<?xml version="1.0" encoding="utf-8"?>
<svg xmlns="http://www.w3.org/2000/svg" xmlns:xlink="http://www.w3.org/1999/xlink" width="528" height="336" viewBox="0 0 2112 1344">
<defs>
  <clipPath id="clip910">
    <rect x="0" y="0" width="2112" height="1344"/>
  </clipPath>
</defs>
<path clip-path="url(#clip910)" d="M0 1344 L2112 1344 L2112 0 L0 0  Z" fill="#ffffff" fill-rule="evenodd" fill-opacity="1"/>
<defs>
  <clipPath id="clip911">
    <rect x="422" y="0" width="1479" height="1344"/>
  </clipPath>
</defs>
<path clip-path="url(#clip910)" d="M206.149 340.49 L2064.76 340.49 L2064.76 120.723 L206.149 120.723  Z" fill="#ffffff" fill-rule="evenodd" fill-opacity="1"/>
<defs>
  <clipPath id="clip912">
    <rect x="206" y="120" width="1860" height="221"/>
  </clipPath>
</defs>
<polyline clip-path="url(#clip912)" style="stroke:#000000; stroke-linecap:round; stroke-linejoin:round; stroke-width:2; stroke-opacity:0.1; fill:none" points="258.751,340.49 258.751,120.723 "/>
<polyline clip-path="url(#clip912)" style="stroke:#000000; stroke-linecap:round; stroke-linejoin:round; stroke-width:2; stroke-opacity:0.1; fill:none" points="657.251,340.49 657.251,120.723 "/>
<polyline clip-path="url(#clip912)" style="stroke:#000000; stroke-linecap:round; stroke-linejoin:round; stroke-width:2; stroke-opacity:0.1; fill:none" points="1055.75,340.49 1055.75,120.723 "/>
<polyline clip-path="url(#clip912)" style="stroke:#000000; stroke-linecap:round; stroke-linejoin:round; stroke-width:2; stroke-opacity:0.1; fill:none" points="1454.25,340.49 1454.25,120.723 "/>
<polyline clip-path="url(#clip912)" style="stroke:#000000; stroke-linecap:round; stroke-linejoin:round; stroke-width:2; stroke-opacity:0.1; fill:none" points="1852.75,340.49 1852.75,120.723 "/>
<polyline clip-path="url(#clip912)" style="stroke:#000000; stroke-linecap:round; stroke-linejoin:round; stroke-width:2; stroke-opacity:0.1; fill:none" points="206.149,338.289 2064.76,338.289 "/>
<polyline clip-path="url(#clip912)" style="stroke:#000000; stroke-linecap:round; stroke-linejoin:round; stroke-width:2; stroke-opacity:0.1; fill:none" points="206.149,302.395 2064.76,302.395 "/>
<polyline clip-path="url(#clip912)" style="stroke:#000000; stroke-linecap:round; stroke-linejoin:round; stroke-width:2; stroke-opacity:0.1; fill:none" points="206.149,266.501 2064.76,266.501 "/>
<polyline clip-path="url(#clip912)" style="stroke:#000000; stroke-linecap:round; stroke-linejoin:round; stroke-width:2; stroke-opacity:0.1; fill:none" points="206.149,230.607 2064.76,230.607 "/>
<polyline clip-path="url(#clip912)" style="stroke:#000000; stroke-linecap:round; stroke-linejoin:round; stroke-width:2; stroke-opacity:0.1; fill:none" points="206.149,194.713 2064.76,194.713 "/>
<polyline clip-path="url(#clip912)" style="stroke:#000000; stroke-linecap:round; stroke-linejoin:round; stroke-width:2; stroke-opacity:0.1; fill:none" points="206.149,158.818 2064.76,158.818 "/>
<polyline clip-path="url(#clip912)" style="stroke:#000000; stroke-linecap:round; stroke-linejoin:round; stroke-width:2; stroke-opacity:0.1; fill:none" points="206.149,122.924 2064.76,122.924 "/>
<polyline clip-path="url(#clip910)" style="stroke:#000000; stroke-linecap:round; stroke-linejoin:round; stroke-width:4; stroke-opacity:1; fill:none" points="206.149,340.49 2064.76,340.49 "/>
<polyline clip-path="url(#clip910)" style="stroke:#000000; stroke-linecap:round; stroke-linejoin:round; stroke-width:4; stroke-opacity:1; fill:none" points="258.751,340.49 258.751,331.091 "/>
<polyline clip-path="url(#clip910)" style="stroke:#000000; stroke-linecap:round; stroke-linejoin:round; stroke-width:4; stroke-opacity:1; fill:none" points="657.251,340.49 657.251,331.091 "/>
<polyline clip-path="url(#clip910)" style="stroke:#000000; stroke-linecap:round; stroke-linejoin:round; stroke-width:4; stroke-opacity:1; fill:none" points="1055.75,340.49 1055.75,331.091 "/>
<polyline clip-path="url(#clip910)" style="stroke:#000000; stroke-linecap:round; stroke-linejoin:round; stroke-width:4; stroke-opacity:1; fill:none" points="1454.25,340.49 1454.25,331.091 "/>
<polyline clip-path="url(#clip910)" style="stroke:#000000; stroke-linecap:round; stroke-linejoin:round; stroke-width:4; stroke-opacity:1; fill:none" points="1852.75,340.49 1852.75,331.091 "/>
<path clip-path="url(#clip910)" d="M258.751 369.105 Q255.14 369.105 253.311 372.67 Q251.505 376.211 251.505 383.341 Q251.505 390.447 253.311 394.012 Q255.14 397.554 258.751 397.554 Q262.385 397.554 264.19 394.012 Q266.019 390.447 266.019 383.341 Q266.019 376.211 264.19 372.67 Q262.385 369.105 258.751 369.105 M258.751 365.401 Q264.561 365.401 267.616 370.008 Q270.695 374.591 270.695 383.341 Q270.695 392.068 267.616 396.674 Q264.561 401.258 258.751 401.258 Q252.94 401.258 249.862 396.674 Q246.806 392.068 246.806 383.341 Q246.806 374.591 249.862 370.008 Q252.94 365.401 258.751 365.401 Z" fill="#000000" fill-rule="nonzero" fill-opacity="1" /><path clip-path="url(#clip910)" d="M631.939 396.651 L639.578 396.651 L639.578 370.285 L631.268 371.952 L631.268 367.693 L639.532 366.026 L644.207 366.026 L644.207 396.651 L651.846 396.651 L651.846 400.586 L631.939 400.586 L631.939 396.651 Z" fill="#000000" fill-rule="nonzero" fill-opacity="1" /><path clip-path="url(#clip910)" d="M671.291 369.105 Q667.68 369.105 665.851 372.67 Q664.045 376.211 664.045 383.341 Q664.045 390.447 665.851 394.012 Q667.68 397.554 671.291 397.554 Q674.925 397.554 676.73 394.012 Q678.559 390.447 678.559 383.341 Q678.559 376.211 676.73 372.67 Q674.925 369.105 671.291 369.105 M671.291 365.401 Q677.101 365.401 680.156 370.008 Q683.235 374.591 683.235 383.341 Q683.235 392.068 680.156 396.674 Q677.101 401.258 671.291 401.258 Q665.48 401.258 662.402 396.674 Q659.346 392.068 659.346 383.341 Q659.346 374.591 662.402 370.008 Q665.48 365.401 671.291 365.401 Z" fill="#000000" fill-rule="nonzero" fill-opacity="1" /><path clip-path="url(#clip910)" d="M1034.53 396.651 L1050.84 396.651 L1050.84 400.586 L1028.9 400.586 L1028.9 396.651 Q1031.56 393.896 1036.15 389.267 Q1040.75 384.614 1041.93 383.272 Q1044.18 380.748 1045.06 379.012 Q1045.96 377.253 1045.96 375.563 Q1045.96 372.809 1044.02 371.073 Q1042.09 369.336 1038.99 369.336 Q1036.79 369.336 1034.34 370.1 Q1031.91 370.864 1029.13 372.415 L1029.13 367.693 Q1031.96 366.559 1034.41 365.98 Q1036.86 365.401 1038.9 365.401 Q1044.27 365.401 1047.47 368.086 Q1050.66 370.772 1050.66 375.262 Q1050.66 377.392 1049.85 379.313 Q1049.06 381.211 1046.96 383.804 Q1046.38 384.475 1043.28 387.693 Q1040.17 390.887 1034.53 396.651 Z" fill="#000000" fill-rule="nonzero" fill-opacity="1" /><path clip-path="url(#clip910)" d="M1070.66 369.105 Q1067.05 369.105 1065.22 372.67 Q1063.41 376.211 1063.41 383.341 Q1063.41 390.447 1065.22 394.012 Q1067.05 397.554 1070.66 397.554 Q1074.29 397.554 1076.1 394.012 Q1077.93 390.447 1077.93 383.341 Q1077.93 376.211 1076.1 372.67 Q1074.29 369.105 1070.66 369.105 M1070.66 365.401 Q1076.47 365.401 1079.53 370.008 Q1082.6 374.591 1082.6 383.341 Q1082.6 392.068 1079.53 396.674 Q1076.47 401.258 1070.66 401.258 Q1064.85 401.258 1061.77 396.674 Q1058.72 392.068 1058.72 383.341 Q1058.72 374.591 1061.77 370.008 Q1064.85 365.401 1070.66 365.401 Z" fill="#000000" fill-rule="nonzero" fill-opacity="1" /><path clip-path="url(#clip910)" d="M1443.1 381.952 Q1446.45 382.67 1448.33 384.938 Q1450.23 387.207 1450.23 390.54 Q1450.23 395.656 1446.71 398.457 Q1443.19 401.258 1436.71 401.258 Q1434.53 401.258 1432.22 400.818 Q1429.92 400.401 1427.47 399.545 L1427.47 395.031 Q1429.41 396.165 1431.73 396.744 Q1434.04 397.322 1436.57 397.322 Q1440.97 397.322 1443.26 395.586 Q1445.57 393.85 1445.57 390.54 Q1445.57 387.484 1443.42 385.772 Q1441.29 384.035 1437.47 384.035 L1433.44 384.035 L1433.44 380.193 L1437.66 380.193 Q1441.1 380.193 1442.93 378.827 Q1444.76 377.438 1444.76 374.846 Q1444.76 372.184 1442.86 370.772 Q1440.99 369.336 1437.47 369.336 Q1435.55 369.336 1433.35 369.753 Q1431.15 370.17 1428.51 371.049 L1428.51 366.883 Q1431.17 366.142 1433.49 365.772 Q1435.83 365.401 1437.89 365.401 Q1443.21 365.401 1446.31 367.832 Q1449.41 370.239 1449.41 374.36 Q1449.41 377.23 1447.77 379.221 Q1446.13 381.188 1443.1 381.952 Z" fill="#000000" fill-rule="nonzero" fill-opacity="1" /><path clip-path="url(#clip910)" d="M1469.09 369.105 Q1465.48 369.105 1463.65 372.67 Q1461.85 376.211 1461.85 383.341 Q1461.85 390.447 1463.65 394.012 Q1465.48 397.554 1469.09 397.554 Q1472.72 397.554 1474.53 394.012 Q1476.36 390.447 1476.36 383.341 Q1476.36 376.211 1474.53 372.67 Q1472.72 369.105 1469.09 369.105 M1469.09 365.401 Q1474.9 365.401 1477.96 370.008 Q1481.04 374.591 1481.04 383.341 Q1481.04 392.068 1477.96 396.674 Q1474.9 401.258 1469.09 401.258 Q1463.28 401.258 1460.2 396.674 Q1457.15 392.068 1457.15 383.341 Q1457.15 374.591 1460.2 370.008 Q1463.28 365.401 1469.09 365.401 Z" fill="#000000" fill-rule="nonzero" fill-opacity="1" /><path clip-path="url(#clip910)" d="M1840.92 370.1 L1829.12 388.549 L1840.92 388.549 L1840.92 370.1 M1839.7 366.026 L1845.58 366.026 L1845.58 388.549 L1850.51 388.549 L1850.51 392.438 L1845.58 392.438 L1845.58 400.586 L1840.92 400.586 L1840.92 392.438 L1825.32 392.438 L1825.32 387.924 L1839.7 366.026 Z" fill="#000000" fill-rule="nonzero" fill-opacity="1" /><path clip-path="url(#clip910)" d="M1868.24 369.105 Q1864.63 369.105 1862.8 372.67 Q1860.99 376.211 1860.99 383.341 Q1860.99 390.447 1862.8 394.012 Q1864.63 397.554 1868.24 397.554 Q1871.87 397.554 1873.68 394.012 Q1875.51 390.447 1875.51 383.341 Q1875.51 376.211 1873.68 372.67 Q1871.87 369.105 1868.24 369.105 M1868.24 365.401 Q1874.05 365.401 1877.11 370.008 Q1880.18 374.591 1880.18 383.341 Q1880.18 392.068 1877.11 396.674 Q1874.05 401.258 1868.24 401.258 Q1862.43 401.258 1859.35 396.674 Q1856.3 392.068 1856.3 383.341 Q1856.3 374.591 1859.35 370.008 Q1862.43 365.401 1868.24 365.401 Z" fill="#000000" fill-rule="nonzero" fill-opacity="1" /><polyline clip-path="url(#clip910)" style="stroke:#000000; stroke-linecap:round; stroke-linejoin:round; stroke-width:4; stroke-opacity:1; fill:none" points="206.149,340.49 206.149,120.723 "/>
<polyline clip-path="url(#clip910)" style="stroke:#000000; stroke-linecap:round; stroke-linejoin:round; stroke-width:4; stroke-opacity:1; fill:none" points="206.149,338.289 225.046,338.289 "/>
<polyline clip-path="url(#clip910)" style="stroke:#000000; stroke-linecap:round; stroke-linejoin:round; stroke-width:4; stroke-opacity:1; fill:none" points="206.149,302.395 225.046,302.395 "/>
<polyline clip-path="url(#clip910)" style="stroke:#000000; stroke-linecap:round; stroke-linejoin:round; stroke-width:4; stroke-opacity:1; fill:none" points="206.149,266.501 225.046,266.501 "/>
<polyline clip-path="url(#clip910)" style="stroke:#000000; stroke-linecap:round; stroke-linejoin:round; stroke-width:4; stroke-opacity:1; fill:none" points="206.149,230.607 225.046,230.607 "/>
<polyline clip-path="url(#clip910)" style="stroke:#000000; stroke-linecap:round; stroke-linejoin:round; stroke-width:4; stroke-opacity:1; fill:none" points="206.149,194.713 225.046,194.713 "/>
<polyline clip-path="url(#clip910)" style="stroke:#000000; stroke-linecap:round; stroke-linejoin:round; stroke-width:4; stroke-opacity:1; fill:none" points="206.149,158.818 225.046,158.818 "/>
<polyline clip-path="url(#clip910)" style="stroke:#000000; stroke-linecap:round; stroke-linejoin:round; stroke-width:4; stroke-opacity:1; fill:none" points="206.149,122.924 225.046,122.924 "/>
<path clip-path="url(#clip910)" d="M52.4321 338.74 L82.1079 338.74 L82.1079 342.676 L52.4321 342.676 L52.4321 338.74 Z" fill="#000000" fill-rule="nonzero" fill-opacity="1" /><path clip-path="url(#clip910)" d="M106.367 336.935 Q109.723 337.653 111.598 339.921 Q113.497 342.19 113.497 345.523 Q113.497 350.639 109.978 353.439 Q106.46 356.24 99.9782 356.24 Q97.8023 356.24 95.4875 355.801 Q93.1958 355.384 90.7421 354.527 L90.7421 350.014 Q92.6865 351.148 95.0013 351.726 Q97.3161 352.305 99.8393 352.305 Q104.237 352.305 106.529 350.569 Q108.844 348.833 108.844 345.523 Q108.844 342.467 106.691 340.754 Q104.561 339.018 100.742 339.018 L96.7143 339.018 L96.7143 335.176 L100.927 335.176 Q104.376 335.176 106.205 333.81 Q108.034 332.421 108.034 329.828 Q108.034 327.166 106.136 325.754 Q104.261 324.319 100.742 324.319 Q98.8208 324.319 96.6217 324.736 Q94.4226 325.153 91.7838 326.032 L91.7838 321.866 Q94.4458 321.125 96.7606 320.754 Q99.0985 320.384 101.159 320.384 Q106.483 320.384 109.585 322.815 Q112.686 325.222 112.686 329.342 Q112.686 332.213 111.043 334.203 Q109.399 336.171 106.367 336.935 Z" fill="#000000" fill-rule="nonzero" fill-opacity="1" /><path clip-path="url(#clip910)" d="M132.362 324.088 Q128.751 324.088 126.922 327.653 Q125.117 331.194 125.117 338.324 Q125.117 345.43 126.922 348.995 Q128.751 352.537 132.362 352.537 Q135.996 352.537 137.802 348.995 Q139.631 345.43 139.631 338.324 Q139.631 331.194 137.802 327.653 Q135.996 324.088 132.362 324.088 M132.362 320.384 Q138.172 320.384 141.228 324.991 Q144.307 329.574 144.307 338.324 Q144.307 347.051 141.228 351.657 Q138.172 356.24 132.362 356.24 Q126.552 356.24 123.473 351.657 Q120.418 347.051 120.418 338.324 Q120.418 329.574 123.473 324.991 Q126.552 320.384 132.362 320.384 Z" fill="#000000" fill-rule="nonzero" fill-opacity="1" /><path clip-path="url(#clip910)" d="M162.524 324.088 Q158.913 324.088 157.084 327.653 Q155.279 331.194 155.279 338.324 Q155.279 345.43 157.084 348.995 Q158.913 352.537 162.524 352.537 Q166.158 352.537 167.964 348.995 Q169.793 345.43 169.793 338.324 Q169.793 331.194 167.964 327.653 Q166.158 324.088 162.524 324.088 M162.524 320.384 Q168.334 320.384 171.39 324.991 Q174.469 329.574 174.469 338.324 Q174.469 347.051 171.39 351.657 Q168.334 356.24 162.524 356.24 Q156.714 356.24 153.635 351.657 Q150.58 347.051 150.58 338.324 Q150.58 329.574 153.635 324.991 Q156.714 320.384 162.524 320.384 Z" fill="#000000" fill-rule="nonzero" fill-opacity="1" /><path clip-path="url(#clip910)" d="M52.4321 302.846 L82.1079 302.846 L82.1079 306.781 L52.4321 306.781 L52.4321 302.846 Z" fill="#000000" fill-rule="nonzero" fill-opacity="1" /><path clip-path="url(#clip910)" d="M96.2282 315.74 L112.548 315.74 L112.548 319.675 L90.6032 319.675 L90.6032 315.74 Q93.2652 312.985 97.8485 308.356 Q102.455 303.703 103.636 302.36 Q105.881 299.837 106.761 298.101 Q107.663 296.342 107.663 294.652 Q107.663 291.897 105.719 290.161 Q103.798 288.425 100.696 288.425 Q98.4967 288.425 96.043 289.189 Q93.6125 289.953 90.8347 291.504 L90.8347 286.782 Q93.6588 285.647 96.1124 285.069 Q98.5661 284.49 100.603 284.49 Q105.974 284.49 109.168 287.175 Q112.362 289.86 112.362 294.351 Q112.362 296.481 111.552 298.402 Q110.765 300.3 108.659 302.893 Q108.08 303.564 104.978 306.781 Q101.876 309.976 96.2282 315.74 Z" fill="#000000" fill-rule="nonzero" fill-opacity="1" /><path clip-path="url(#clip910)" d="M132.362 288.194 Q128.751 288.194 126.922 291.758 Q125.117 295.3 125.117 302.43 Q125.117 309.536 126.922 313.101 Q128.751 316.643 132.362 316.643 Q135.996 316.643 137.802 313.101 Q139.631 309.536 139.631 302.43 Q139.631 295.3 137.802 291.758 Q135.996 288.194 132.362 288.194 M132.362 284.49 Q138.172 284.49 141.228 289.096 Q144.307 293.68 144.307 302.43 Q144.307 311.156 141.228 315.763 Q138.172 320.346 132.362 320.346 Q126.552 320.346 123.473 315.763 Q120.418 311.156 120.418 302.43 Q120.418 293.68 123.473 289.096 Q126.552 284.49 132.362 284.49 Z" fill="#000000" fill-rule="nonzero" fill-opacity="1" /><path clip-path="url(#clip910)" d="M162.524 288.194 Q158.913 288.194 157.084 291.758 Q155.279 295.3 155.279 302.43 Q155.279 309.536 157.084 313.101 Q158.913 316.643 162.524 316.643 Q166.158 316.643 167.964 313.101 Q169.793 309.536 169.793 302.43 Q169.793 295.3 167.964 291.758 Q166.158 288.194 162.524 288.194 M162.524 284.49 Q168.334 284.49 171.39 289.096 Q174.469 293.68 174.469 302.43 Q174.469 311.156 171.39 315.763 Q168.334 320.346 162.524 320.346 Q156.714 320.346 153.635 315.763 Q150.58 311.156 150.58 302.43 Q150.58 293.68 153.635 289.096 Q156.714 284.49 162.524 284.49 Z" fill="#000000" fill-rule="nonzero" fill-opacity="1" /><path clip-path="url(#clip910)" d="M52.4321 266.952 L82.1079 266.952 L82.1079 270.887 L52.4321 270.887 L52.4321 266.952 Z" fill="#000000" fill-rule="nonzero" fill-opacity="1" /><path clip-path="url(#clip910)" d="M93.0106 279.846 L100.649 279.846 L100.649 253.48 L92.3393 255.147 L92.3393 250.887 L100.603 249.221 L105.279 249.221 L105.279 279.846 L112.918 279.846 L112.918 283.781 L93.0106 283.781 L93.0106 279.846 Z" fill="#000000" fill-rule="nonzero" fill-opacity="1" /><path clip-path="url(#clip910)" d="M132.362 252.299 Q128.751 252.299 126.922 255.864 Q125.117 259.406 125.117 266.536 Q125.117 273.642 126.922 277.207 Q128.751 280.748 132.362 280.748 Q135.996 280.748 137.802 277.207 Q139.631 273.642 139.631 266.536 Q139.631 259.406 137.802 255.864 Q135.996 252.299 132.362 252.299 M132.362 248.596 Q138.172 248.596 141.228 253.202 Q144.307 257.786 144.307 266.536 Q144.307 275.262 141.228 279.869 Q138.172 284.452 132.362 284.452 Q126.552 284.452 123.473 279.869 Q120.418 275.262 120.418 266.536 Q120.418 257.786 123.473 253.202 Q126.552 248.596 132.362 248.596 Z" fill="#000000" fill-rule="nonzero" fill-opacity="1" /><path clip-path="url(#clip910)" d="M162.524 252.299 Q158.913 252.299 157.084 255.864 Q155.279 259.406 155.279 266.536 Q155.279 273.642 157.084 277.207 Q158.913 280.748 162.524 280.748 Q166.158 280.748 167.964 277.207 Q169.793 273.642 169.793 266.536 Q169.793 259.406 167.964 255.864 Q166.158 252.299 162.524 252.299 M162.524 248.596 Q168.334 248.596 171.39 253.202 Q174.469 257.786 174.469 266.536 Q174.469 275.262 171.39 279.869 Q168.334 284.452 162.524 284.452 Q156.714 284.452 153.635 279.869 Q150.58 275.262 150.58 266.536 Q150.58 257.786 153.635 253.202 Q156.714 248.596 162.524 248.596 Z" fill="#000000" fill-rule="nonzero" fill-opacity="1" /><path clip-path="url(#clip910)" d="M162.524 216.405 Q158.913 216.405 157.084 219.97 Q155.279 223.512 155.279 230.641 Q155.279 237.748 157.084 241.313 Q158.913 244.854 162.524 244.854 Q166.158 244.854 167.964 241.313 Q169.793 237.748 169.793 230.641 Q169.793 223.512 167.964 219.97 Q166.158 216.405 162.524 216.405 M162.524 212.702 Q168.334 212.702 171.39 217.308 Q174.469 221.891 174.469 230.641 Q174.469 239.368 171.39 243.975 Q168.334 248.558 162.524 248.558 Q156.714 248.558 153.635 243.975 Q150.58 239.368 150.58 230.641 Q150.58 221.891 153.635 217.308 Q156.714 212.702 162.524 212.702 Z" fill="#000000" fill-rule="nonzero" fill-opacity="1" /><path clip-path="url(#clip910)" d="M93.0106 208.057 L100.649 208.057 L100.649 181.692 L92.3393 183.358 L92.3393 179.099 L100.603 177.433 L105.279 177.433 L105.279 208.057 L112.918 208.057 L112.918 211.993 L93.0106 211.993 L93.0106 208.057 Z" fill="#000000" fill-rule="nonzero" fill-opacity="1" /><path clip-path="url(#clip910)" d="M132.362 180.511 Q128.751 180.511 126.922 184.076 Q125.117 187.618 125.117 194.747 Q125.117 201.854 126.922 205.418 Q128.751 208.96 132.362 208.96 Q135.996 208.96 137.802 205.418 Q139.631 201.854 139.631 194.747 Q139.631 187.618 137.802 184.076 Q135.996 180.511 132.362 180.511 M132.362 176.808 Q138.172 176.808 141.228 181.414 Q144.307 185.997 144.307 194.747 Q144.307 203.474 141.228 208.08 Q138.172 212.664 132.362 212.664 Q126.552 212.664 123.473 208.08 Q120.418 203.474 120.418 194.747 Q120.418 185.997 123.473 181.414 Q126.552 176.808 132.362 176.808 Z" fill="#000000" fill-rule="nonzero" fill-opacity="1" /><path clip-path="url(#clip910)" d="M162.524 180.511 Q158.913 180.511 157.084 184.076 Q155.279 187.618 155.279 194.747 Q155.279 201.854 157.084 205.418 Q158.913 208.96 162.524 208.96 Q166.158 208.96 167.964 205.418 Q169.793 201.854 169.793 194.747 Q169.793 187.618 167.964 184.076 Q166.158 180.511 162.524 180.511 M162.524 176.808 Q168.334 176.808 171.39 181.414 Q174.469 185.997 174.469 194.747 Q174.469 203.474 171.39 208.08 Q168.334 212.664 162.524 212.664 Q156.714 212.664 153.635 208.08 Q150.58 203.474 150.58 194.747 Q150.58 185.997 153.635 181.414 Q156.714 176.808 162.524 176.808 Z" fill="#000000" fill-rule="nonzero" fill-opacity="1" /><path clip-path="url(#clip910)" d="M96.2282 172.163 L112.548 172.163 L112.548 176.098 L90.6032 176.098 L90.6032 172.163 Q93.2652 169.409 97.8485 164.779 Q102.455 160.126 103.636 158.784 Q105.881 156.261 106.761 154.524 Q107.663 152.765 107.663 151.075 Q107.663 148.321 105.719 146.585 Q103.798 144.849 100.696 144.849 Q98.4967 144.849 96.043 145.612 Q93.6125 146.376 90.8347 147.927 L90.8347 143.205 Q93.6588 142.071 96.1124 141.492 Q98.5661 140.913 100.603 140.913 Q105.974 140.913 109.168 143.599 Q112.362 146.284 112.362 150.774 Q112.362 152.904 111.552 154.825 Q110.765 156.723 108.659 159.316 Q108.08 159.987 104.978 163.205 Q101.876 166.399 96.2282 172.163 Z" fill="#000000" fill-rule="nonzero" fill-opacity="1" /><path clip-path="url(#clip910)" d="M132.362 144.617 Q128.751 144.617 126.922 148.182 Q125.117 151.723 125.117 158.853 Q125.117 165.96 126.922 169.524 Q128.751 173.066 132.362 173.066 Q135.996 173.066 137.802 169.524 Q139.631 165.96 139.631 158.853 Q139.631 151.723 137.802 148.182 Q135.996 144.617 132.362 144.617 M132.362 140.913 Q138.172 140.913 141.228 145.52 Q144.307 150.103 144.307 158.853 Q144.307 167.58 141.228 172.186 Q138.172 176.77 132.362 176.77 Q126.552 176.77 123.473 172.186 Q120.418 167.58 120.418 158.853 Q120.418 150.103 123.473 145.52 Q126.552 140.913 132.362 140.913 Z" fill="#000000" fill-rule="nonzero" fill-opacity="1" /><path clip-path="url(#clip910)" d="M162.524 144.617 Q158.913 144.617 157.084 148.182 Q155.279 151.723 155.279 158.853 Q155.279 165.96 157.084 169.524 Q158.913 173.066 162.524 173.066 Q166.158 173.066 167.964 169.524 Q169.793 165.96 169.793 158.853 Q169.793 151.723 167.964 148.182 Q166.158 144.617 162.524 144.617 M162.524 140.913 Q168.334 140.913 171.39 145.52 Q174.469 150.103 174.469 158.853 Q174.469 167.58 171.39 172.186 Q168.334 176.77 162.524 176.77 Q156.714 176.77 153.635 172.186 Q150.58 167.58 150.58 158.853 Q150.58 150.103 153.635 145.52 Q156.714 140.913 162.524 140.913 Z" fill="#000000" fill-rule="nonzero" fill-opacity="1" /><path clip-path="url(#clip910)" d="M106.367 121.57 Q109.723 122.288 111.598 124.556 Q113.497 126.825 113.497 130.158 Q113.497 135.274 109.978 138.075 Q106.46 140.876 99.9782 140.876 Q97.8023 140.876 95.4875 140.436 Q93.1958 140.019 90.7421 139.163 L90.7421 134.649 Q92.6865 135.783 95.0013 136.362 Q97.3161 136.94 99.8393 136.94 Q104.237 136.94 106.529 135.204 Q108.844 133.468 108.844 130.158 Q108.844 127.102 106.691 125.389 Q104.561 123.653 100.742 123.653 L96.7143 123.653 L96.7143 119.811 L100.927 119.811 Q104.376 119.811 106.205 118.445 Q108.034 117.056 108.034 114.464 Q108.034 111.802 106.136 110.39 Q104.261 108.954 100.742 108.954 Q98.8208 108.954 96.6217 109.371 Q94.4226 109.788 91.7838 110.667 L91.7838 106.501 Q94.4458 105.76 96.7606 105.39 Q99.0985 105.019 101.159 105.019 Q106.483 105.019 109.585 107.45 Q112.686 109.857 112.686 113.978 Q112.686 116.848 111.043 118.839 Q109.399 120.806 106.367 121.57 Z" fill="#000000" fill-rule="nonzero" fill-opacity="1" /><path clip-path="url(#clip910)" d="M132.362 108.723 Q128.751 108.723 126.922 112.288 Q125.117 115.829 125.117 122.959 Q125.117 130.065 126.922 133.63 Q128.751 137.172 132.362 137.172 Q135.996 137.172 137.802 133.63 Q139.631 130.065 139.631 122.959 Q139.631 115.829 137.802 112.288 Q135.996 108.723 132.362 108.723 M132.362 105.019 Q138.172 105.019 141.228 109.626 Q144.307 114.209 144.307 122.959 Q144.307 131.686 141.228 136.292 Q138.172 140.876 132.362 140.876 Q126.552 140.876 123.473 136.292 Q120.418 131.686 120.418 122.959 Q120.418 114.209 123.473 109.626 Q126.552 105.019 132.362 105.019 Z" fill="#000000" fill-rule="nonzero" fill-opacity="1" /><path clip-path="url(#clip910)" d="M162.524 108.723 Q158.913 108.723 157.084 112.288 Q155.279 115.829 155.279 122.959 Q155.279 130.065 157.084 133.63 Q158.913 137.172 162.524 137.172 Q166.158 137.172 167.964 133.63 Q169.793 130.065 169.793 122.959 Q169.793 115.829 167.964 112.288 Q166.158 108.723 162.524 108.723 M162.524 105.019 Q168.334 105.019 171.39 109.626 Q174.469 114.209 174.469 122.959 Q174.469 131.686 171.39 136.292 Q168.334 140.876 162.524 140.876 Q156.714 140.876 153.635 136.292 Q150.58 131.686 150.58 122.959 Q150.58 114.209 153.635 109.626 Q156.714 105.019 162.524 105.019 Z" fill="#000000" fill-rule="nonzero" fill-opacity="1" /><path clip-path="url(#clip910)" d="M592.206 12.096 L604.399 12.096 L619.833 53.2532 L635.348 12.096 L647.541 12.096 L647.541 72.576 L639.561 72.576 L639.561 19.4686 L623.965 60.9499 L615.741 60.9499 L600.145 19.4686 L600.145 72.576 L592.206 72.576 L592.206 12.096 Z" fill="#000000" fill-rule="nonzero" fill-opacity="1" /><path clip-path="url(#clip910)" d="M684.08 49.7694 Q675.047 49.7694 671.563 51.8354 Q668.079 53.9013 668.079 58.8839 Q668.079 62.8538 670.672 65.2034 Q673.305 67.5124 677.801 67.5124 Q683.999 67.5124 687.726 63.1374 Q691.493 58.7219 691.493 51.4303 L691.493 49.7694 L684.08 49.7694 M698.947 46.6907 L698.947 72.576 L691.493 72.576 L691.493 65.6895 Q688.941 69.8214 685.133 71.8063 Q681.326 73.7508 675.816 73.7508 Q668.849 73.7508 664.717 69.8619 Q660.625 65.9325 660.625 59.3701 Q660.625 51.7138 665.73 47.825 Q670.874 43.9361 681.042 43.9361 L691.493 43.9361 L691.493 43.2069 Q691.493 38.0623 688.091 35.2672 Q684.728 32.4315 678.611 32.4315 Q674.723 32.4315 671.036 33.3632 Q667.35 34.295 663.947 36.1584 L663.947 29.2718 Q668.039 27.692 671.887 26.9223 Q675.735 26.1121 679.381 26.1121 Q689.225 26.1121 694.086 31.2163 Q698.947 36.3204 698.947 46.6907 Z" fill="#000000" fill-rule="nonzero" fill-opacity="1" /><path clip-path="url(#clip910)" d="M752.014 27.2059 L735.608 49.2833 L752.865 72.576 L744.074 72.576 L730.868 54.752 L717.662 72.576 L708.872 72.576 L726.493 48.8377 L710.371 27.2059 L719.161 27.2059 L731.192 43.369 L743.223 27.2059 L752.014 27.2059 Z" fill="#000000" fill-rule="nonzero" fill-opacity="1" /><path clip-path="url(#clip910)" d="M826.348 14.0809 L826.348 22.0612 Q821.689 19.8332 817.557 18.7395 Q813.426 17.6457 809.577 17.6457 Q802.893 17.6457 799.247 20.2383 Q795.642 22.8309 795.642 27.611 Q795.642 31.6214 798.032 33.6873 Q800.463 35.7128 807.187 36.9686 L812.129 37.9813 Q821.284 39.7232 825.619 44.1387 Q829.994 48.5136 829.994 55.8863 Q829.994 64.6767 824.079 69.2137 Q818.206 73.7508 806.823 73.7508 Q802.529 73.7508 797.668 72.7785 Q792.847 71.8063 787.662 69.9024 L787.662 61.4765 Q792.644 64.2716 797.425 65.6895 Q802.205 67.1073 806.823 67.1073 Q813.831 67.1073 817.639 64.3527 Q821.446 61.598 821.446 56.4939 Q821.446 52.0379 818.692 49.5264 Q815.978 47.0148 809.739 45.759 L804.757 44.7868 Q795.602 42.9639 791.51 39.075 Q787.419 35.1862 787.419 28.2591 Q787.419 20.2383 793.05 15.6203 Q798.721 11.0023 808.646 11.0023 Q812.899 11.0023 817.314 11.7719 Q821.73 12.5416 826.348 14.0809 Z" fill="#000000" fill-rule="nonzero" fill-opacity="1" /><path clip-path="url(#clip910)" d="M880.144 45.1919 L880.144 72.576 L872.69 72.576 L872.69 45.4349 Q872.69 38.994 870.179 35.7938 Q867.667 32.5936 862.644 32.5936 Q856.608 32.5936 853.124 36.4419 Q849.641 40.2903 849.641 46.9338 L849.641 72.576 L842.146 72.576 L842.146 9.54393 L849.641 9.54393 L849.641 34.2544 Q852.314 30.163 855.92 28.1376 Q859.565 26.1121 864.305 26.1121 Q872.123 26.1121 876.134 30.9732 Q880.144 35.7938 880.144 45.1919 Z" fill="#000000" fill-rule="nonzero" fill-opacity="1" /><path clip-path="url(#clip910)" d="M933.818 48.0275 L933.818 51.6733 L899.548 51.6733 Q900.034 59.3701 904.166 63.421 Q908.338 67.4314 915.751 67.4314 Q920.045 67.4314 924.056 66.3781 Q928.107 65.3249 932.077 63.2184 L932.077 70.267 Q928.066 71.9684 923.853 72.8596 Q919.64 73.7508 915.306 73.7508 Q904.449 73.7508 898.089 67.4314 Q891.77 61.1119 891.77 50.3365 Q891.77 39.1965 897.765 32.6746 Q903.801 26.1121 914.01 26.1121 Q923.165 26.1121 928.471 32.0264 Q933.818 37.9003 933.818 48.0275 M926.365 45.84 Q926.284 39.7232 922.922 36.0774 Q919.6 32.4315 914.091 32.4315 Q907.852 32.4315 904.085 35.9558 Q900.358 39.4801 899.791 45.8805 L926.365 45.84 Z" fill="#000000" fill-rule="nonzero" fill-opacity="1" /><path clip-path="url(#clip910)" d="M966.671 49.7694 Q957.638 49.7694 954.154 51.8354 Q950.67 53.9013 950.67 58.8839 Q950.67 62.8538 953.263 65.2034 Q955.896 67.5124 960.392 67.5124 Q966.59 67.5124 970.317 63.1374 Q974.084 58.7219 974.084 51.4303 L974.084 49.7694 L966.671 49.7694 M981.538 46.6907 L981.538 72.576 L974.084 72.576 L974.084 65.6895 Q971.532 69.8214 967.725 71.8063 Q963.917 73.7508 958.407 73.7508 Q951.44 73.7508 947.308 69.8619 Q943.217 65.9325 943.217 59.3701 Q943.217 51.7138 948.321 47.825 Q953.465 43.9361 963.633 43.9361 L974.084 43.9361 L974.084 43.2069 Q974.084 38.0623 970.682 35.2672 Q967.319 32.4315 961.203 32.4315 Q957.314 32.4315 953.627 33.3632 Q949.941 34.295 946.538 36.1584 L946.538 29.2718 Q950.63 27.692 954.478 26.9223 Q958.326 26.1121 961.972 26.1121 Q971.816 26.1121 976.677 31.2163 Q981.538 36.3204 981.538 46.6907 Z" fill="#000000" fill-rule="nonzero" fill-opacity="1" /><path clip-path="url(#clip910)" d="M1023.18 34.1734 Q1021.93 33.4443 1020.43 33.1202 Q1018.97 32.7556 1017.19 32.7556 Q1010.87 32.7556 1007.46 36.8875 Q1004.1 40.9789 1004.1 48.6757 L1004.1 72.576 L996.607 72.576 L996.607 27.2059 L1004.1 27.2059 L1004.1 34.2544 Q1006.45 30.1225 1010.22 28.1376 Q1013.99 26.1121 1019.37 26.1121 Q1020.14 26.1121 1021.07 26.2337 Q1022.01 26.3147 1023.14 26.5172 L1023.18 34.1734 Z" fill="#000000" fill-rule="nonzero" fill-opacity="1" /><path clip-path="url(#clip910)" d="M1057.7 12.096 L1095.94 12.096 L1095.94 18.9825 L1065.88 18.9825 L1065.88 36.8875 L1094.68 36.8875 L1094.68 43.7741 L1065.88 43.7741 L1065.88 65.6895 L1096.66 65.6895 L1096.66 72.576 L1057.7 72.576 L1057.7 12.096 Z" fill="#000000" fill-rule="nonzero" fill-opacity="1" /><path clip-path="url(#clip910)" d="M1147.5 45.1919 L1147.5 72.576 L1140.05 72.576 L1140.05 45.4349 Q1140.05 38.994 1137.54 35.7938 Q1135.03 32.5936 1130 32.5936 Q1123.97 32.5936 1120.48 36.4419 Q1117 40.2903 1117 46.9338 L1117 72.576 L1109.51 72.576 L1109.51 27.2059 L1117 27.2059 L1117 34.2544 Q1119.67 30.163 1123.28 28.1376 Q1126.93 26.1121 1131.66 26.1121 Q1139.48 26.1121 1143.49 30.9732 Q1147.5 35.7938 1147.5 45.1919 Z" fill="#000000" fill-rule="nonzero" fill-opacity="1" /><path clip-path="url(#clip910)" d="M1157.02 27.2059 L1164.92 27.2059 L1179.1 65.2844 L1193.28 27.2059 L1201.18 27.2059 L1184.16 72.576 L1174.04 72.576 L1157.02 27.2059 Z" fill="#000000" fill-rule="nonzero" fill-opacity="1" /><path clip-path="url(#clip910)" d="M1250.28 48.0275 L1250.28 51.6733 L1216 51.6733 Q1216.49 59.3701 1220.62 63.421 Q1224.79 67.4314 1232.21 67.4314 Q1236.5 67.4314 1240.51 66.3781 Q1244.56 65.3249 1248.53 63.2184 L1248.53 70.267 Q1244.52 71.9684 1240.31 72.8596 Q1236.1 73.7508 1231.76 73.7508 Q1220.91 73.7508 1214.55 67.4314 Q1208.23 61.1119 1208.23 50.3365 Q1208.23 39.1965 1214.22 32.6746 Q1220.26 26.1121 1230.47 26.1121 Q1239.62 26.1121 1244.93 32.0264 Q1250.28 37.9003 1250.28 48.0275 M1242.82 45.84 Q1242.74 39.7232 1239.38 36.0774 Q1236.06 32.4315 1230.55 32.4315 Q1224.31 32.4315 1220.54 35.9558 Q1216.81 39.4801 1216.25 45.8805 L1242.82 45.84 Z" fill="#000000" fill-rule="nonzero" fill-opacity="1" /><path clip-path="url(#clip910)" d="M1262.51 9.54393 L1269.96 9.54393 L1269.96 72.576 L1262.51 72.576 L1262.51 9.54393 Z" fill="#000000" fill-rule="nonzero" fill-opacity="1" /><path clip-path="url(#clip910)" d="M1303.14 32.4315 Q1297.14 32.4315 1293.66 37.1306 Q1290.18 41.7891 1290.18 49.9314 Q1290.18 58.0738 1293.62 62.7728 Q1297.1 67.4314 1303.14 67.4314 Q1309.09 67.4314 1312.58 62.7323 Q1316.06 58.0333 1316.06 49.9314 Q1316.06 41.8701 1312.58 37.1711 Q1309.09 32.4315 1303.14 32.4315 M1303.14 26.1121 Q1312.86 26.1121 1318.41 32.4315 Q1323.96 38.7509 1323.96 49.9314 Q1323.96 61.0714 1318.41 67.4314 Q1312.86 73.7508 1303.14 73.7508 Q1293.38 73.7508 1287.83 67.4314 Q1282.32 61.0714 1282.32 49.9314 Q1282.32 38.7509 1287.83 32.4315 Q1293.38 26.1121 1303.14 26.1121 Z" fill="#000000" fill-rule="nonzero" fill-opacity="1" /><path clip-path="url(#clip910)" d="M1343.53 65.7705 L1343.53 89.8329 L1336.03 89.8329 L1336.03 27.2059 L1343.53 27.2059 L1343.53 34.0924 Q1345.88 30.0415 1349.44 28.0971 Q1353.05 26.1121 1358.03 26.1121 Q1366.29 26.1121 1371.44 32.6746 Q1376.62 39.2371 1376.62 49.9314 Q1376.62 60.6258 1371.44 67.1883 Q1366.29 73.7508 1358.03 73.7508 Q1353.05 73.7508 1349.44 71.8063 Q1345.88 69.8214 1343.53 65.7705 M1368.89 49.9314 Q1368.89 41.7081 1365.48 37.0496 Q1362.12 32.3505 1356.21 32.3505 Q1350.29 32.3505 1346.89 37.0496 Q1343.53 41.7081 1343.53 49.9314 Q1343.53 58.1548 1346.89 62.8538 Q1350.29 67.5124 1356.21 67.5124 Q1362.12 67.5124 1365.48 62.8538 Q1368.89 58.1548 1368.89 49.9314 Z" fill="#000000" fill-rule="nonzero" fill-opacity="1" /><path clip-path="url(#clip910)" d="M1427.79 48.0275 L1427.79 51.6733 L1393.52 51.6733 Q1394 59.3701 1398.13 63.421 Q1402.31 67.4314 1409.72 67.4314 Q1414.01 67.4314 1418.02 66.3781 Q1422.07 65.3249 1426.04 63.2184 L1426.04 70.267 Q1422.03 71.9684 1417.82 72.8596 Q1413.61 73.7508 1409.27 73.7508 Q1398.42 73.7508 1392.06 67.4314 Q1385.74 61.1119 1385.74 50.3365 Q1385.74 39.1965 1391.73 32.6746 Q1397.77 26.1121 1407.98 26.1121 Q1417.13 26.1121 1422.44 32.0264 Q1427.79 37.9003 1427.79 48.0275 M1420.33 45.84 Q1420.25 39.7232 1416.89 36.0774 Q1413.57 32.4315 1408.06 32.4315 Q1401.82 32.4315 1398.05 35.9558 Q1394.33 39.4801 1393.76 45.8805 L1420.33 45.84 Z" fill="#000000" fill-rule="nonzero" fill-opacity="1" /><path clip-path="url(#clip910)" d="M1484.3 9.62495 Q1478.87 18.942 1476.23 28.0566 Q1473.6 37.1711 1473.6 46.5287 Q1473.6 55.8863 1476.23 65.0818 Q1478.91 74.2369 1484.3 83.5134 L1477.81 83.5134 Q1471.74 73.9938 1468.7 64.7983 Q1465.7 55.6027 1465.7 46.5287 Q1465.7 37.4952 1468.7 28.3401 Q1471.7 19.1851 1477.81 9.62495 L1484.3 9.62495 Z" fill="#000000" fill-rule="nonzero" fill-opacity="1" /><path clip-path="url(#clip910)" d="M1535.34 14.0809 L1535.34 22.0612 Q1530.68 19.8332 1526.55 18.7395 Q1522.41 17.6457 1518.57 17.6457 Q1511.88 17.6457 1508.24 20.2383 Q1504.63 22.8309 1504.63 27.611 Q1504.63 31.6214 1507.02 33.6873 Q1509.45 35.7128 1516.18 36.9686 L1521.12 37.9813 Q1530.27 39.7232 1534.61 44.1387 Q1538.98 48.5136 1538.98 55.8863 Q1538.98 64.6767 1533.07 69.2137 Q1527.19 73.7508 1515.81 73.7508 Q1511.52 73.7508 1506.66 72.7785 Q1501.84 71.8063 1496.65 69.9024 L1496.65 61.4765 Q1501.63 64.2716 1506.41 65.6895 Q1511.19 67.1073 1515.81 67.1073 Q1522.82 67.1073 1526.63 64.3527 Q1530.44 61.598 1530.44 56.4939 Q1530.44 52.0379 1527.68 49.5264 Q1524.97 47.0148 1518.73 45.759 L1513.75 44.7868 Q1504.59 42.9639 1500.5 39.075 Q1496.41 35.1862 1496.41 28.2591 Q1496.41 20.2383 1502.04 15.6203 Q1507.71 11.0023 1517.63 11.0023 Q1521.89 11.0023 1526.3 11.7719 Q1530.72 12.5416 1535.34 14.0809 Z" fill="#000000" fill-rule="nonzero" fill-opacity="1" /><path clip-path="url(#clip910)" d="M1580.42 44.2197 Q1583.06 45.1109 1585.53 48.0275 Q1588.04 50.9442 1590.55 56.0483 L1598.86 72.576 L1590.06 72.576 L1582.33 57.061 Q1579.33 50.9847 1576.49 48.9997 Q1573.7 47.0148 1568.84 47.0148 L1559.93 47.0148 L1559.93 72.576 L1551.74 72.576 L1551.74 12.096 L1570.22 12.096 Q1580.59 12.096 1585.69 16.4305 Q1590.79 20.7649 1590.79 29.5149 Q1590.79 35.2267 1588.12 38.994 Q1585.49 42.7613 1580.42 44.2197 M1559.93 18.8205 L1559.93 40.2903 L1570.22 40.2903 Q1576.13 40.2903 1579.13 37.5762 Q1582.17 34.8216 1582.17 29.5149 Q1582.17 24.2082 1579.13 21.5346 Q1576.13 18.8205 1570.22 18.8205 L1559.93 18.8205 Z" fill="#000000" fill-rule="nonzero" fill-opacity="1" /><path clip-path="url(#clip910)" d="M1620.45 72.576 L1597.36 12.096 L1605.9 12.096 L1625.06 63.0159 L1644.27 12.096 L1652.77 12.096 L1629.72 72.576 L1620.45 72.576 Z" fill="#000000" fill-rule="nonzero" fill-opacity="1" /><path clip-path="url(#clip910)" d="M1660.11 9.62495 L1666.59 9.62495 Q1672.66 19.1851 1675.66 28.3401 Q1678.7 37.4952 1678.7 46.5287 Q1678.7 55.6027 1675.66 64.7983 Q1672.66 73.9938 1666.59 83.5134 L1660.11 83.5134 Q1665.49 74.2369 1668.13 65.0818 Q1670.8 55.8863 1670.8 46.5287 Q1670.8 37.1711 1668.13 28.0566 Q1665.49 18.942 1660.11 9.62495 Z" fill="#000000" fill-rule="nonzero" fill-opacity="1" /><path clip-path="url(#clip912)" d="M258.751 230.607 L278.676 230.972 L298.601 231.338 L318.526 231.704 L338.451 232.069 L358.376 281.238 L378.301 281.604 L398.226 281.969 L418.151 177.171 L438.076 177.537 L458.001 177.903 L477.926 178.268 L497.851 178.634 L517.776 179 L537.701 179.365 L557.626 179.731 L577.551 180.097 L597.476 180.462 L617.401 180.828 L637.326 181.194 L657.251 181.56 L677.176 257.903 L697.101 258.269 L717.026 258.635 L736.951 259 L756.877 259.366 L776.802 259.732 L796.727 260.097 L816.652 260.463 L836.577 260.829 L856.502 261.194 L876.427 261.56 L896.352 126.943 L916.277 127.309 L936.202 127.674 L956.127 128.04 L976.052 128.406 L995.977 223.132 L1015.9 223.498 L1035.83 223.863 L1055.75 224.229 L1075.68 224.595 L1095.6 224.96 L1115.53 225.326 L1135.45 225.692 L1155.38 226.057 L1175.3 226.423 L1195.23 226.789 L1215.15 227.154 L1235.08 227.52 L1255 227.886 L1274.93 228.251 L1294.85 228.617 L1314.78 286.997 L1334.7 287.363 L1354.63 287.728 L1374.55 175.307 L1394.48 175.672 L1414.4 176.038 L1434.33 176.404 L1454.25 176.77 L1474.18 177.135 L1494.1 177.501 L1514.03 177.867 L1533.95 178.232 L1553.88 178.598 L1573.8 178.964 L1593.73 179.329 L1613.65 179.695 L1633.58 257.229 L1653.5 257.595 L1673.43 257.96 L1693.35 258.326 L1713.28 258.692 L1733.2 259.057 L1753.13 259.423 L1773.05 259.789 L1792.98 260.154 L1812.9 260.52 L1832.83 260.886 L1852.75 147.038 L1872.68 147.404 L1892.6 147.77 L1912.53 148.135 L1932.45 148.501 L1952.38 229.51 L1972.3 229.875 L1992.23 230.241 L2012.15 230.607 L2012.15 230.607 L1992.23 230.607 L1972.3 230.607 L1952.38 230.607 L1932.45 230.607 L1912.53 230.607 L1892.6 230.607 L1872.68 230.607 L1852.75 230.607 L1832.83 230.607 L1812.9 230.607 L1792.98 230.607 L1773.05 230.607 L1753.13 230.607 L1733.2 230.607 L1713.28 230.607 L1693.35 230.607 L1673.43 230.607 L1653.5 230.607 L1633.58 230.607 L1613.65 230.607 L1593.73 230.607 L1573.8 230.607 L1553.88 230.607 L1533.95 230.607 L1514.03 230.607 L1494.1 230.607 L1474.18 230.607 L1454.25 230.607 L1434.33 230.607 L1414.4 230.607 L1394.48 230.607 L1374.55 230.607 L1354.63 230.607 L1334.7 230.607 L1314.78 230.607 L1294.85 230.607 L1274.93 230.607 L1255 230.607 L1235.08 230.607 L1215.15 230.607 L1195.23 230.607 L1175.3 230.607 L1155.38 230.607 L1135.45 230.607 L1115.53 230.607 L1095.6 230.607 L1075.68 230.607 L1055.75 230.607 L1035.83 230.607 L1015.9 230.607 L995.977 230.607 L976.052 230.607 L956.127 230.607 L936.202 230.607 L916.277 230.607 L896.352 230.607 L876.427 230.607 L856.502 230.607 L836.577 230.607 L816.652 230.607 L796.727 230.607 L776.802 230.607 L756.877 230.607 L736.951 230.607 L717.026 230.607 L697.101 230.607 L677.176 230.607 L657.251 230.607 L637.326 230.607 L617.401 230.607 L597.476 230.607 L577.551 230.607 L557.626 230.607 L537.701 230.607 L517.776 230.607 L497.851 230.607 L477.926 230.607 L458.001 230.607 L438.076 230.607 L418.151 230.607 L398.226 230.607 L378.301 230.607 L358.376 230.607 L338.451 230.607 L318.526 230.607 L298.601 230.607 L278.676 230.607 L258.751 230.607  Z" fill="#0000ff" fill-rule="evenodd" fill-opacity="0.5"/>
<polyline clip-path="url(#clip912)" style="stroke:#0000ff; stroke-linecap:round; stroke-linejoin:round; stroke-width:4; stroke-opacity:1; fill:none" points="258.751,230.607 278.676,230.972 298.601,231.338 318.526,231.704 338.451,232.069 358.376,281.238 378.301,281.604 398.226,281.969 418.151,177.171 438.076,177.537 458.001,177.903 477.926,178.268 497.851,178.634 517.776,179 537.701,179.365 557.626,179.731 577.551,180.097 597.476,180.462 617.401,180.828 637.326,181.194 657.251,181.56 677.176,257.903 697.101,258.269 717.026,258.635 736.951,259 756.877,259.366 776.802,259.732 796.727,260.097 816.652,260.463 836.577,260.829 856.502,261.194 876.427,261.56 896.352,126.943 916.277,127.309 936.202,127.674 956.127,128.04 976.052,128.406 995.977,223.132 1015.9,223.498 1035.83,223.863 1055.75,224.229 1075.68,224.595 1095.6,224.96 1115.53,225.326 1135.45,225.692 1155.38,226.057 1175.3,226.423 1195.23,226.789 1215.15,227.154 1235.08,227.52 1255,227.886 1274.93,228.251 1294.85,228.617 1314.78,286.997 1334.7,287.363 1354.63,287.728 1374.55,175.307 1394.48,175.672 1414.4,176.038 1434.33,176.404 1454.25,176.77 1474.18,177.135 1494.1,177.501 1514.03,177.867 1533.95,178.232 1553.88,178.598 1573.8,178.964 1593.73,179.329 1613.65,179.695 1633.58,257.229 1653.5,257.595 1673.43,257.96 1693.35,258.326 1713.28,258.692 1733.2,259.057 1753.13,259.423 1773.05,259.789 1792.98,260.154 1812.9,260.52 1832.83,260.886 1852.75,147.038 1872.68,147.404 1892.6,147.77 1912.53,148.135 1932.45,148.501 1952.38,229.51 1972.3,229.875 1992.23,230.241 2012.15,230.607 "/>
<path clip-path="url(#clip912)" d="M258.751 230.607 L278.676 230.972 L298.601 231.338 L318.526 231.704 L338.451 312.592 L358.376 312.957 L378.301 313.323 L398.226 313.689 L418.151 314.054 L438.076 200.328 L458.001 200.694 L477.926 201.06 L497.851 201.425 L517.776 201.791 L537.701 202.157 L557.626 202.523 L577.551 202.888 L597.476 203.254 L617.401 203.62 L637.326 203.985 L657.251 281.518 L677.176 281.884 L697.101 282.25 L717.026 282.615 L736.951 282.981 L756.877 283.347 L776.802 283.712 L796.727 284.078 L816.652 284.444 L836.577 284.809 L856.502 285.175 L876.427 285.541 L896.352 285.907 L916.277 173.485 L936.202 173.851 L956.127 174.216 L976.052 232.597 L995.977 232.963 L1015.9 233.328 L1035.83 233.694 L1055.75 234.06 L1075.68 234.425 L1095.6 234.791 L1115.53 235.157 L1135.45 235.522 L1155.38 235.888 L1175.3 236.254 L1195.23 236.62 L1215.15 236.985 L1235.08 237.351 L1255 237.717 L1274.93 238.082 L1294.85 332.808 L1314.78 333.173 L1334.7 333.539 L1354.63 333.905 L1374.55 334.27 L1394.48 199.653 L1414.4 200.019 L1434.33 200.385 L1454.25 200.75 L1474.18 201.116 L1494.1 201.482 L1514.03 201.847 L1533.95 202.213 L1553.88 202.579 L1573.8 202.944 L1593.73 203.31 L1613.65 279.693 L1633.58 280.059 L1653.5 280.424 L1673.43 280.79 L1693.35 281.156 L1713.28 281.521 L1733.2 281.887 L1753.13 282.253 L1773.05 282.619 L1792.98 282.984 L1812.9 283.35 L1832.83 283.716 L1852.75 284.081 L1872.68 179.244 L1892.6 179.609 L1912.53 179.975 L1932.45 229.144 L1952.38 229.51 L1972.3 229.875 L1992.23 230.241 L2012.15 230.607 L2012.15 230.607 L1992.23 230.607 L1972.3 230.607 L1952.38 230.607 L1932.45 230.607 L1912.53 230.607 L1892.6 230.607 L1872.68 230.607 L1852.75 230.607 L1832.83 230.607 L1812.9 230.607 L1792.98 230.607 L1773.05 230.607 L1753.13 230.607 L1733.2 230.607 L1713.28 230.607 L1693.35 230.607 L1673.43 230.607 L1653.5 230.607 L1633.58 230.607 L1613.65 230.607 L1593.73 230.607 L1573.8 230.607 L1553.88 230.607 L1533.95 230.607 L1514.03 230.607 L1494.1 230.607 L1474.18 230.607 L1454.25 230.607 L1434.33 230.607 L1414.4 230.607 L1394.48 230.607 L1374.55 230.607 L1354.63 230.607 L1334.7 230.607 L1314.78 230.607 L1294.85 230.607 L1274.93 230.607 L1255 230.607 L1235.08 230.607 L1215.15 230.607 L1195.23 230.607 L1175.3 230.607 L1155.38 230.607 L1135.45 230.607 L1115.53 230.607 L1095.6 230.607 L1075.68 230.607 L1055.75 230.607 L1035.83 230.607 L1015.9 230.607 L995.977 230.607 L976.052 230.607 L956.127 230.607 L936.202 230.607 L916.277 230.607 L896.352 230.607 L876.427 230.607 L856.502 230.607 L836.577 230.607 L816.652 230.607 L796.727 230.607 L776.802 230.607 L756.877 230.607 L736.951 230.607 L717.026 230.607 L697.101 230.607 L677.176 230.607 L657.251 230.607 L637.326 230.607 L617.401 230.607 L597.476 230.607 L577.551 230.607 L557.626 230.607 L537.701 230.607 L517.776 230.607 L497.851 230.607 L477.926 230.607 L458.001 230.607 L438.076 230.607 L418.151 230.607 L398.226 230.607 L378.301 230.607 L358.376 230.607 L338.451 230.607 L318.526 230.607 L298.601 230.607 L278.676 230.607 L258.751 230.607  Z" fill="#ff0000" fill-rule="evenodd" fill-opacity="0.5"/>
<polyline clip-path="url(#clip912)" style="stroke:#ff0000; stroke-linecap:round; stroke-linejoin:round; stroke-width:4; stroke-opacity:1; fill:none" points="258.751,230.607 278.676,230.972 298.601,231.338 318.526,231.704 338.451,312.592 358.376,312.957 378.301,313.323 398.226,313.689 418.151,314.054 438.076,200.328 458.001,200.694 477.926,201.06 497.851,201.425 517.776,201.791 537.701,202.157 557.626,202.523 577.551,202.888 597.476,203.254 617.401,203.62 637.326,203.985 657.251,281.518 677.176,281.884 697.101,282.25 717.026,282.615 736.951,282.981 756.877,283.347 776.802,283.712 796.727,284.078 816.652,284.444 836.577,284.809 856.502,285.175 876.427,285.541 896.352,285.907 916.277,173.485 936.202,173.851 956.127,174.216 976.052,232.597 995.977,232.963 1015.9,233.328 1035.83,233.694 1055.75,234.06 1075.68,234.425 1095.6,234.791 1115.53,235.157 1135.45,235.522 1155.38,235.888 1175.3,236.254 1195.23,236.62 1215.15,236.985 1235.08,237.351 1255,237.717 1274.93,238.082 1294.85,332.808 1314.78,333.173 1334.7,333.539 1354.63,333.905 1374.55,334.27 1394.48,199.653 1414.4,200.019 1434.33,200.385 1454.25,200.75 1474.18,201.116 1494.1,201.482 1514.03,201.847 1533.95,202.213 1553.88,202.579 1573.8,202.944 1593.73,203.31 1613.65,279.693 1633.58,280.059 1653.5,280.424 1673.43,280.79 1693.35,281.156 1713.28,281.521 1733.2,281.887 1753.13,282.253 1773.05,282.619 1792.98,282.984 1812.9,283.35 1832.83,283.716 1852.75,284.081 1872.68,179.244 1892.6,179.609 1912.53,179.975 1932.45,229.144 1952.38,229.51 1972.3,229.875 1992.23,230.241 2012.15,230.607 "/>
<path clip-path="url(#clip910)" d="M1001.62 562.579 L1269.29 562.579 L1269.29 407.059 L1001.62 407.059  Z" fill="#ffffff" fill-rule="evenodd" fill-opacity="1"/>
<polyline clip-path="url(#clip910)" style="stroke:#000000; stroke-linecap:round; stroke-linejoin:round; stroke-width:4; stroke-opacity:1; fill:none" points="1001.62,562.579 1269.29,562.579 1269.29,407.059 1001.62,407.059 1001.62,562.579 "/>
<path clip-path="url(#clip910)" d="M1022.27 479.635 L1146.18 479.635 L1146.18 438.163 L1022.27 438.163 L1022.27 479.635  Z" fill="#0000ff" fill-rule="evenodd" fill-opacity="0.5"/>
<polyline clip-path="url(#clip910)" style="stroke:#0000ff; stroke-linecap:round; stroke-linejoin:round; stroke-width:4; stroke-opacity:1; fill:none" points="1022.27,438.163 1146.18,438.163 "/>
<path clip-path="url(#clip910)" d="M1183.61 446.457 L1183.61 459.35 L1196.5 459.35 L1196.5 463.285 L1183.61 463.285 L1183.61 476.179 L1179.72 476.179 L1179.72 463.285 L1166.83 463.285 L1166.83 459.35 L1179.72 459.35 L1179.72 446.457 L1183.61 446.457 Z" fill="#000000" fill-rule="nonzero" fill-opacity="1" /><path clip-path="url(#clip910)" d="M1230.16 476.179 L1216.97 441.619 L1221.85 441.619 L1232.8 470.716 L1243.77 441.619 L1248.63 441.619 L1235.46 476.179 L1230.16 476.179 Z" fill="#000000" fill-rule="nonzero" fill-opacity="1" /><path clip-path="url(#clip910)" d="M1022.27 531.475 L1146.18 531.475 L1146.18 490.003 L1022.27 490.003 L1022.27 531.475  Z" fill="#ff0000" fill-rule="evenodd" fill-opacity="0.5"/>
<polyline clip-path="url(#clip910)" style="stroke:#ff0000; stroke-linecap:round; stroke-linejoin:round; stroke-width:4; stroke-opacity:1; fill:none" points="1022.27,490.003 1146.18,490.003 "/>
<path clip-path="url(#clip910)" d="M1166.83 513.135 L1179.31 513.135 L1179.31 516.931 L1166.83 516.931 L1166.83 513.135 Z" fill="#000000" fill-rule="nonzero" fill-opacity="1" /><path clip-path="url(#clip910)" d="M1210.25 528.019 L1197.06 493.459 L1201.94 493.459 L1212.89 522.556 L1223.87 493.459 L1228.73 493.459 L1215.56 528.019 L1210.25 528.019 Z" fill="#000000" fill-rule="nonzero" fill-opacity="1" /><path clip-path="url(#clip910)" d="M206.149 1012.49 L2064.76 1012.49 L2064.76 792.723 L206.149 792.723  Z" fill="#ffffff" fill-rule="evenodd" fill-opacity="1"/>
<defs>
  <clipPath id="clip913">
    <rect x="206" y="792" width="1860" height="221"/>
  </clipPath>
</defs>
<polyline clip-path="url(#clip913)" style="stroke:#000000; stroke-linecap:round; stroke-linejoin:round; stroke-width:2; stroke-opacity:0.1; fill:none" points="258.751,1012.49 258.751,792.723 "/>
<polyline clip-path="url(#clip913)" style="stroke:#000000; stroke-linecap:round; stroke-linejoin:round; stroke-width:2; stroke-opacity:0.1; fill:none" points="657.251,1012.49 657.251,792.723 "/>
<polyline clip-path="url(#clip913)" style="stroke:#000000; stroke-linecap:round; stroke-linejoin:round; stroke-width:2; stroke-opacity:0.1; fill:none" points="1055.75,1012.49 1055.75,792.723 "/>
<polyline clip-path="url(#clip913)" style="stroke:#000000; stroke-linecap:round; stroke-linejoin:round; stroke-width:2; stroke-opacity:0.1; fill:none" points="1454.25,1012.49 1454.25,792.723 "/>
<polyline clip-path="url(#clip913)" style="stroke:#000000; stroke-linecap:round; stroke-linejoin:round; stroke-width:2; stroke-opacity:0.1; fill:none" points="1852.75,1012.49 1852.75,792.723 "/>
<polyline clip-path="url(#clip913)" style="stroke:#000000; stroke-linecap:round; stroke-linejoin:round; stroke-width:2; stroke-opacity:0.1; fill:none" points="206.149,991.77 2064.76,991.77 "/>
<polyline clip-path="url(#clip913)" style="stroke:#000000; stroke-linecap:round; stroke-linejoin:round; stroke-width:2; stroke-opacity:0.1; fill:none" points="206.149,947.588 2064.76,947.588 "/>
<polyline clip-path="url(#clip913)" style="stroke:#000000; stroke-linecap:round; stroke-linejoin:round; stroke-width:2; stroke-opacity:0.1; fill:none" points="206.149,903.407 2064.76,903.407 "/>
<polyline clip-path="url(#clip913)" style="stroke:#000000; stroke-linecap:round; stroke-linejoin:round; stroke-width:2; stroke-opacity:0.1; fill:none" points="206.149,859.225 2064.76,859.225 "/>
<polyline clip-path="url(#clip913)" style="stroke:#000000; stroke-linecap:round; stroke-linejoin:round; stroke-width:2; stroke-opacity:0.1; fill:none" points="206.149,815.043 2064.76,815.043 "/>
<polyline clip-path="url(#clip910)" style="stroke:#000000; stroke-linecap:round; stroke-linejoin:round; stroke-width:4; stroke-opacity:1; fill:none" points="206.149,1012.49 2064.76,1012.49 "/>
<polyline clip-path="url(#clip910)" style="stroke:#000000; stroke-linecap:round; stroke-linejoin:round; stroke-width:4; stroke-opacity:1; fill:none" points="258.751,1012.49 258.751,1003.09 "/>
<polyline clip-path="url(#clip910)" style="stroke:#000000; stroke-linecap:round; stroke-linejoin:round; stroke-width:4; stroke-opacity:1; fill:none" points="657.251,1012.49 657.251,1003.09 "/>
<polyline clip-path="url(#clip910)" style="stroke:#000000; stroke-linecap:round; stroke-linejoin:round; stroke-width:4; stroke-opacity:1; fill:none" points="1055.75,1012.49 1055.75,1003.09 "/>
<polyline clip-path="url(#clip910)" style="stroke:#000000; stroke-linecap:round; stroke-linejoin:round; stroke-width:4; stroke-opacity:1; fill:none" points="1454.25,1012.49 1454.25,1003.09 "/>
<polyline clip-path="url(#clip910)" style="stroke:#000000; stroke-linecap:round; stroke-linejoin:round; stroke-width:4; stroke-opacity:1; fill:none" points="1852.75,1012.49 1852.75,1003.09 "/>
<path clip-path="url(#clip910)" d="M258.751 1041.1 Q255.14 1041.1 253.311 1044.67 Q251.505 1048.21 251.505 1055.34 Q251.505 1062.45 253.311 1066.01 Q255.14 1069.55 258.751 1069.55 Q262.385 1069.55 264.19 1066.01 Q266.019 1062.45 266.019 1055.34 Q266.019 1048.21 264.19 1044.67 Q262.385 1041.1 258.751 1041.1 M258.751 1037.4 Q264.561 1037.4 267.616 1042.01 Q270.695 1046.59 270.695 1055.34 Q270.695 1064.07 267.616 1068.67 Q264.561 1073.26 258.751 1073.26 Q252.94 1073.26 249.862 1068.67 Q246.806 1064.07 246.806 1055.34 Q246.806 1046.59 249.862 1042.01 Q252.94 1037.4 258.751 1037.4 Z" fill="#000000" fill-rule="nonzero" fill-opacity="1" /><path clip-path="url(#clip910)" d="M631.939 1068.65 L639.578 1068.65 L639.578 1042.29 L631.268 1043.95 L631.268 1039.69 L639.532 1038.03 L644.207 1038.03 L644.207 1068.65 L651.846 1068.65 L651.846 1072.59 L631.939 1072.59 L631.939 1068.65 Z" fill="#000000" fill-rule="nonzero" fill-opacity="1" /><path clip-path="url(#clip910)" d="M671.291 1041.1 Q667.68 1041.1 665.851 1044.67 Q664.045 1048.21 664.045 1055.34 Q664.045 1062.45 665.851 1066.01 Q667.68 1069.55 671.291 1069.55 Q674.925 1069.55 676.73 1066.01 Q678.559 1062.45 678.559 1055.34 Q678.559 1048.21 676.73 1044.67 Q674.925 1041.1 671.291 1041.1 M671.291 1037.4 Q677.101 1037.4 680.156 1042.01 Q683.235 1046.59 683.235 1055.34 Q683.235 1064.07 680.156 1068.67 Q677.101 1073.26 671.291 1073.26 Q665.48 1073.26 662.402 1068.67 Q659.346 1064.07 659.346 1055.34 Q659.346 1046.59 662.402 1042.01 Q665.48 1037.4 671.291 1037.4 Z" fill="#000000" fill-rule="nonzero" fill-opacity="1" /><path clip-path="url(#clip910)" d="M1034.53 1068.65 L1050.84 1068.65 L1050.84 1072.59 L1028.9 1072.59 L1028.9 1068.65 Q1031.56 1065.9 1036.15 1061.27 Q1040.75 1056.61 1041.93 1055.27 Q1044.18 1052.75 1045.06 1051.01 Q1045.96 1049.25 1045.96 1047.56 Q1045.96 1044.81 1044.02 1043.07 Q1042.09 1041.34 1038.99 1041.34 Q1036.79 1041.34 1034.34 1042.1 Q1031.91 1042.86 1029.13 1044.42 L1029.13 1039.69 Q1031.96 1038.56 1034.41 1037.98 Q1036.86 1037.4 1038.9 1037.4 Q1044.27 1037.4 1047.47 1040.09 Q1050.66 1042.77 1050.66 1047.26 Q1050.66 1049.39 1049.85 1051.31 Q1049.06 1053.21 1046.96 1055.8 Q1046.38 1056.48 1043.28 1059.69 Q1040.17 1062.89 1034.53 1068.65 Z" fill="#000000" fill-rule="nonzero" fill-opacity="1" /><path clip-path="url(#clip910)" d="M1070.66 1041.1 Q1067.05 1041.1 1065.22 1044.67 Q1063.41 1048.21 1063.41 1055.34 Q1063.41 1062.45 1065.22 1066.01 Q1067.05 1069.55 1070.66 1069.55 Q1074.29 1069.55 1076.1 1066.01 Q1077.93 1062.45 1077.93 1055.34 Q1077.93 1048.21 1076.1 1044.67 Q1074.29 1041.1 1070.66 1041.1 M1070.66 1037.4 Q1076.47 1037.4 1079.53 1042.01 Q1082.6 1046.59 1082.6 1055.34 Q1082.6 1064.07 1079.53 1068.67 Q1076.47 1073.26 1070.66 1073.26 Q1064.85 1073.26 1061.77 1068.67 Q1058.72 1064.07 1058.72 1055.34 Q1058.72 1046.59 1061.77 1042.01 Q1064.85 1037.4 1070.66 1037.4 Z" fill="#000000" fill-rule="nonzero" fill-opacity="1" /><path clip-path="url(#clip910)" d="M1443.1 1053.95 Q1446.45 1054.67 1448.33 1056.94 Q1450.23 1059.21 1450.23 1062.54 Q1450.23 1067.66 1446.71 1070.46 Q1443.19 1073.26 1436.71 1073.26 Q1434.53 1073.26 1432.22 1072.82 Q1429.92 1072.4 1427.47 1071.54 L1427.47 1067.03 Q1429.41 1068.16 1431.73 1068.74 Q1434.04 1069.32 1436.57 1069.32 Q1440.97 1069.32 1443.26 1067.59 Q1445.57 1065.85 1445.57 1062.54 Q1445.57 1059.48 1443.42 1057.77 Q1441.29 1056.04 1437.47 1056.04 L1433.44 1056.04 L1433.44 1052.19 L1437.66 1052.19 Q1441.1 1052.19 1442.93 1050.83 Q1444.76 1049.44 1444.76 1046.85 Q1444.76 1044.18 1442.86 1042.77 Q1440.99 1041.34 1437.47 1041.34 Q1435.55 1041.34 1433.35 1041.75 Q1431.15 1042.17 1428.51 1043.05 L1428.51 1038.88 Q1431.17 1038.14 1433.49 1037.77 Q1435.83 1037.4 1437.89 1037.4 Q1443.21 1037.4 1446.31 1039.83 Q1449.41 1042.24 1449.41 1046.36 Q1449.41 1049.23 1447.77 1051.22 Q1446.13 1053.19 1443.1 1053.95 Z" fill="#000000" fill-rule="nonzero" fill-opacity="1" /><path clip-path="url(#clip910)" d="M1469.09 1041.1 Q1465.48 1041.1 1463.65 1044.67 Q1461.85 1048.21 1461.85 1055.34 Q1461.85 1062.45 1463.65 1066.01 Q1465.48 1069.55 1469.09 1069.55 Q1472.72 1069.55 1474.53 1066.01 Q1476.36 1062.45 1476.36 1055.34 Q1476.36 1048.21 1474.53 1044.67 Q1472.72 1041.1 1469.09 1041.1 M1469.09 1037.4 Q1474.9 1037.4 1477.96 1042.01 Q1481.04 1046.59 1481.04 1055.34 Q1481.04 1064.07 1477.96 1068.67 Q1474.9 1073.26 1469.09 1073.26 Q1463.28 1073.26 1460.2 1068.67 Q1457.15 1064.07 1457.15 1055.34 Q1457.15 1046.59 1460.2 1042.01 Q1463.28 1037.4 1469.09 1037.4 Z" fill="#000000" fill-rule="nonzero" fill-opacity="1" /><path clip-path="url(#clip910)" d="M1840.92 1042.1 L1829.12 1060.55 L1840.92 1060.55 L1840.92 1042.1 M1839.7 1038.03 L1845.58 1038.03 L1845.58 1060.55 L1850.51 1060.55 L1850.51 1064.44 L1845.58 1064.44 L1845.58 1072.59 L1840.92 1072.59 L1840.92 1064.44 L1825.32 1064.44 L1825.32 1059.92 L1839.7 1038.03 Z" fill="#000000" fill-rule="nonzero" fill-opacity="1" /><path clip-path="url(#clip910)" d="M1868.24 1041.1 Q1864.63 1041.1 1862.8 1044.67 Q1860.99 1048.21 1860.99 1055.34 Q1860.99 1062.45 1862.8 1066.01 Q1864.63 1069.55 1868.24 1069.55 Q1871.87 1069.55 1873.68 1066.01 Q1875.51 1062.45 1875.51 1055.34 Q1875.51 1048.21 1873.68 1044.67 Q1871.87 1041.1 1868.24 1041.1 M1868.24 1037.4 Q1874.05 1037.4 1877.11 1042.01 Q1880.18 1046.59 1880.18 1055.34 Q1880.18 1064.07 1877.11 1068.67 Q1874.05 1073.26 1868.24 1073.26 Q1862.43 1073.26 1859.35 1068.67 Q1856.3 1064.07 1856.3 1055.34 Q1856.3 1046.59 1859.35 1042.01 Q1862.43 1037.4 1868.24 1037.4 Z" fill="#000000" fill-rule="nonzero" fill-opacity="1" /><polyline clip-path="url(#clip910)" style="stroke:#000000; stroke-linecap:round; stroke-linejoin:round; stroke-width:4; stroke-opacity:1; fill:none" points="206.149,1012.49 206.149,792.723 "/>
<polyline clip-path="url(#clip910)" style="stroke:#000000; stroke-linecap:round; stroke-linejoin:round; stroke-width:4; stroke-opacity:1; fill:none" points="206.149,991.77 225.046,991.77 "/>
<polyline clip-path="url(#clip910)" style="stroke:#000000; stroke-linecap:round; stroke-linejoin:round; stroke-width:4; stroke-opacity:1; fill:none" points="206.149,947.588 225.046,947.588 "/>
<polyline clip-path="url(#clip910)" style="stroke:#000000; stroke-linecap:round; stroke-linejoin:round; stroke-width:4; stroke-opacity:1; fill:none" points="206.149,903.407 225.046,903.407 "/>
<polyline clip-path="url(#clip910)" style="stroke:#000000; stroke-linecap:round; stroke-linejoin:round; stroke-width:4; stroke-opacity:1; fill:none" points="206.149,859.225 225.046,859.225 "/>
<polyline clip-path="url(#clip910)" style="stroke:#000000; stroke-linecap:round; stroke-linejoin:round; stroke-width:4; stroke-opacity:1; fill:none" points="206.149,815.043 225.046,815.043 "/>
<path clip-path="url(#clip910)" d="M52.4321 992.222 L82.1079 992.222 L82.1079 996.157 L52.4321 996.157 L52.4321 992.222 Z" fill="#000000" fill-rule="nonzero" fill-opacity="1" /><path clip-path="url(#clip910)" d="M105.048 978.564 L93.2421 997.013 L105.048 997.013 L105.048 978.564 M103.821 974.49 L109.7 974.49 L109.7 997.013 L114.631 997.013 L114.631 1000.9 L109.7 1000.9 L109.7 1009.05 L105.048 1009.05 L105.048 1000.9 L89.4458 1000.9 L89.4458 996.388 L103.821 974.49 Z" fill="#000000" fill-rule="nonzero" fill-opacity="1" /><path clip-path="url(#clip910)" d="M132.362 977.569 Q128.751 977.569 126.922 981.134 Q125.117 984.676 125.117 991.805 Q125.117 998.912 126.922 1002.48 Q128.751 1006.02 132.362 1006.02 Q135.996 1006.02 137.802 1002.48 Q139.631 998.912 139.631 991.805 Q139.631 984.676 137.802 981.134 Q135.996 977.569 132.362 977.569 M132.362 973.865 Q138.172 973.865 141.228 978.472 Q144.307 983.055 144.307 991.805 Q144.307 1000.53 141.228 1005.14 Q138.172 1009.72 132.362 1009.72 Q126.552 1009.72 123.473 1005.14 Q120.418 1000.53 120.418 991.805 Q120.418 983.055 123.473 978.472 Q126.552 973.865 132.362 973.865 Z" fill="#000000" fill-rule="nonzero" fill-opacity="1" /><path clip-path="url(#clip910)" d="M162.524 977.569 Q158.913 977.569 157.084 981.134 Q155.279 984.676 155.279 991.805 Q155.279 998.912 157.084 1002.48 Q158.913 1006.02 162.524 1006.02 Q166.158 1006.02 167.964 1002.48 Q169.793 998.912 169.793 991.805 Q169.793 984.676 167.964 981.134 Q166.158 977.569 162.524 977.569 M162.524 973.865 Q168.334 973.865 171.39 978.472 Q174.469 983.055 174.469 991.805 Q174.469 1000.53 171.39 1005.14 Q168.334 1009.72 162.524 1009.72 Q156.714 1009.72 153.635 1005.14 Q150.58 1000.53 150.58 991.805 Q150.58 983.055 153.635 978.472 Q156.714 973.865 162.524 973.865 Z" fill="#000000" fill-rule="nonzero" fill-opacity="1" /><path clip-path="url(#clip910)" d="M52.4321 948.04 L82.1079 948.04 L82.1079 951.975 L52.4321 951.975 L52.4321 948.04 Z" fill="#000000" fill-rule="nonzero" fill-opacity="1" /><path clip-path="url(#clip910)" d="M96.2282 960.933 L112.548 960.933 L112.548 964.868 L90.6032 964.868 L90.6032 960.933 Q93.2652 958.179 97.8485 953.549 Q102.455 948.896 103.636 947.554 Q105.881 945.031 106.761 943.295 Q107.663 941.535 107.663 939.845 Q107.663 937.091 105.719 935.355 Q103.798 933.619 100.696 933.619 Q98.4967 933.619 96.043 934.383 Q93.6125 935.146 90.8347 936.697 L90.8347 931.975 Q93.6588 930.841 96.1124 930.262 Q98.5661 929.683 100.603 929.683 Q105.974 929.683 109.168 932.369 Q112.362 935.054 112.362 939.545 Q112.362 941.674 111.552 943.595 Q110.765 945.494 108.659 948.086 Q108.08 948.757 104.978 951.975 Q101.876 955.169 96.2282 960.933 Z" fill="#000000" fill-rule="nonzero" fill-opacity="1" /><path clip-path="url(#clip910)" d="M132.362 933.387 Q128.751 933.387 126.922 936.952 Q125.117 940.494 125.117 947.623 Q125.117 954.73 126.922 958.294 Q128.751 961.836 132.362 961.836 Q135.996 961.836 137.802 958.294 Q139.631 954.73 139.631 947.623 Q139.631 940.494 137.802 936.952 Q135.996 933.387 132.362 933.387 M132.362 929.683 Q138.172 929.683 141.228 934.29 Q144.307 938.873 144.307 947.623 Q144.307 956.35 141.228 960.956 Q138.172 965.54 132.362 965.54 Q126.552 965.54 123.473 960.956 Q120.418 956.35 120.418 947.623 Q120.418 938.873 123.473 934.29 Q126.552 929.683 132.362 929.683 Z" fill="#000000" fill-rule="nonzero" fill-opacity="1" /><path clip-path="url(#clip910)" d="M162.524 933.387 Q158.913 933.387 157.084 936.952 Q155.279 940.494 155.279 947.623 Q155.279 954.73 157.084 958.294 Q158.913 961.836 162.524 961.836 Q166.158 961.836 167.964 958.294 Q169.793 954.73 169.793 947.623 Q169.793 940.494 167.964 936.952 Q166.158 933.387 162.524 933.387 M162.524 929.683 Q168.334 929.683 171.39 934.29 Q174.469 938.873 174.469 947.623 Q174.469 956.35 171.39 960.956 Q168.334 965.54 162.524 965.54 Q156.714 965.54 153.635 960.956 Q150.58 956.35 150.58 947.623 Q150.58 938.873 153.635 934.29 Q156.714 929.683 162.524 929.683 Z" fill="#000000" fill-rule="nonzero" fill-opacity="1" /><path clip-path="url(#clip910)" d="M162.524 889.205 Q158.913 889.205 157.084 892.77 Q155.279 896.312 155.279 903.441 Q155.279 910.548 157.084 914.113 Q158.913 917.654 162.524 917.654 Q166.158 917.654 167.964 914.113 Q169.793 910.548 169.793 903.441 Q169.793 896.312 167.964 892.77 Q166.158 889.205 162.524 889.205 M162.524 885.502 Q168.334 885.502 171.39 890.108 Q174.469 894.691 174.469 903.441 Q174.469 912.168 171.39 916.775 Q168.334 921.358 162.524 921.358 Q156.714 921.358 153.635 916.775 Q150.58 912.168 150.58 903.441 Q150.58 894.691 153.635 890.108 Q156.714 885.502 162.524 885.502 Z" fill="#000000" fill-rule="nonzero" fill-opacity="1" /><path clip-path="url(#clip910)" d="M96.2282 872.569 L112.548 872.569 L112.548 876.505 L90.6032 876.505 L90.6032 872.569 Q93.2652 869.815 97.8485 865.185 Q102.455 860.532 103.636 859.19 Q105.881 856.667 106.761 854.931 Q107.663 853.171 107.663 851.482 Q107.663 848.727 105.719 846.991 Q103.798 845.255 100.696 845.255 Q98.4967 845.255 96.043 846.019 Q93.6125 846.783 90.8347 848.333 L90.8347 843.611 Q93.6588 842.477 96.1124 841.898 Q98.5661 841.32 100.603 841.32 Q105.974 841.32 109.168 844.005 Q112.362 846.69 112.362 851.181 Q112.362 853.31 111.552 855.232 Q110.765 857.13 108.659 859.722 Q108.08 860.394 104.978 863.611 Q101.876 866.806 96.2282 872.569 Z" fill="#000000" fill-rule="nonzero" fill-opacity="1" /><path clip-path="url(#clip910)" d="M132.362 845.023 Q128.751 845.023 126.922 848.588 Q125.117 852.13 125.117 859.259 Q125.117 866.366 126.922 869.931 Q128.751 873.472 132.362 873.472 Q135.996 873.472 137.802 869.931 Q139.631 866.366 139.631 859.259 Q139.631 852.13 137.802 848.588 Q135.996 845.023 132.362 845.023 M132.362 841.32 Q138.172 841.32 141.228 845.926 Q144.307 850.509 144.307 859.259 Q144.307 867.986 141.228 872.593 Q138.172 877.176 132.362 877.176 Q126.552 877.176 123.473 872.593 Q120.418 867.986 120.418 859.259 Q120.418 850.509 123.473 845.926 Q126.552 841.32 132.362 841.32 Z" fill="#000000" fill-rule="nonzero" fill-opacity="1" /><path clip-path="url(#clip910)" d="M162.524 845.023 Q158.913 845.023 157.084 848.588 Q155.279 852.13 155.279 859.259 Q155.279 866.366 157.084 869.931 Q158.913 873.472 162.524 873.472 Q166.158 873.472 167.964 869.931 Q169.793 866.366 169.793 859.259 Q169.793 852.13 167.964 848.588 Q166.158 845.023 162.524 845.023 M162.524 841.32 Q168.334 841.32 171.39 845.926 Q174.469 850.509 174.469 859.259 Q174.469 867.986 171.39 872.593 Q168.334 877.176 162.524 877.176 Q156.714 877.176 153.635 872.593 Q150.58 867.986 150.58 859.259 Q150.58 850.509 153.635 845.926 Q156.714 841.32 162.524 841.32 Z" fill="#000000" fill-rule="nonzero" fill-opacity="1" /><path clip-path="url(#clip910)" d="M105.048 801.837 L93.2421 820.286 L105.048 820.286 L105.048 801.837 M103.821 797.763 L109.7 797.763 L109.7 820.286 L114.631 820.286 L114.631 824.175 L109.7 824.175 L109.7 832.323 L105.048 832.323 L105.048 824.175 L89.4458 824.175 L89.4458 819.661 L103.821 797.763 Z" fill="#000000" fill-rule="nonzero" fill-opacity="1" /><path clip-path="url(#clip910)" d="M132.362 800.841 Q128.751 800.841 126.922 804.406 Q125.117 807.948 125.117 815.077 Q125.117 822.184 126.922 825.749 Q128.751 829.29 132.362 829.29 Q135.996 829.29 137.802 825.749 Q139.631 822.184 139.631 815.077 Q139.631 807.948 137.802 804.406 Q135.996 800.841 132.362 800.841 M132.362 797.138 Q138.172 797.138 141.228 801.744 Q144.307 806.327 144.307 815.077 Q144.307 823.804 141.228 828.411 Q138.172 832.994 132.362 832.994 Q126.552 832.994 123.473 828.411 Q120.418 823.804 120.418 815.077 Q120.418 806.327 123.473 801.744 Q126.552 797.138 132.362 797.138 Z" fill="#000000" fill-rule="nonzero" fill-opacity="1" /><path clip-path="url(#clip910)" d="M162.524 800.841 Q158.913 800.841 157.084 804.406 Q155.279 807.948 155.279 815.077 Q155.279 822.184 157.084 825.749 Q158.913 829.29 162.524 829.29 Q166.158 829.29 167.964 825.749 Q169.793 822.184 169.793 815.077 Q169.793 807.948 167.964 804.406 Q166.158 800.841 162.524 800.841 M162.524 797.138 Q168.334 797.138 171.39 801.744 Q174.469 806.327 174.469 815.077 Q174.469 823.804 171.39 828.411 Q168.334 832.994 162.524 832.994 Q156.714 832.994 153.635 828.411 Q150.58 823.804 150.58 815.077 Q150.58 806.327 153.635 801.744 Q156.714 797.138 162.524 797.138 Z" fill="#000000" fill-rule="nonzero" fill-opacity="1" /><path clip-path="url(#clip910)" d="M543.17 684.096 L555.363 684.096 L570.797 725.253 L586.312 684.096 L598.505 684.096 L598.505 744.576 L590.525 744.576 L590.525 691.469 L574.929 732.95 L566.705 732.95 L551.109 691.469 L551.109 744.576 L543.17 744.576 L543.17 684.096 Z" fill="#000000" fill-rule="nonzero" fill-opacity="1" /><path clip-path="url(#clip910)" d="M635.044 721.769 Q626.01 721.769 622.527 723.835 Q619.043 725.901 619.043 730.884 Q619.043 734.854 621.636 737.203 Q624.269 739.512 628.765 739.512 Q634.963 739.512 638.69 735.137 Q642.457 730.722 642.457 723.43 L642.457 721.769 L635.044 721.769 M649.911 718.691 L649.911 744.576 L642.457 744.576 L642.457 737.689 Q639.905 741.821 636.097 743.806 Q632.289 745.751 626.78 745.751 Q619.813 745.751 615.681 741.862 Q611.589 737.933 611.589 731.37 Q611.589 723.714 616.693 719.825 Q621.838 715.936 632.006 715.936 L642.457 715.936 L642.457 715.207 Q642.457 710.062 639.054 707.267 Q635.692 704.432 629.575 704.432 Q625.686 704.432 622 705.363 Q618.314 706.295 614.911 708.158 L614.911 701.272 Q619.002 699.692 622.851 698.922 Q626.699 698.112 630.345 698.112 Q640.189 698.112 645.05 703.216 Q649.911 708.32 649.911 718.691 Z" fill="#000000" fill-rule="nonzero" fill-opacity="1" /><path clip-path="url(#clip910)" d="M702.978 699.206 L686.572 721.283 L703.828 744.576 L695.038 744.576 L681.832 726.752 L668.626 744.576 L659.836 744.576 L677.457 720.838 L661.334 699.206 L670.125 699.206 L682.156 715.369 L694.187 699.206 L702.978 699.206 Z" fill="#000000" fill-rule="nonzero" fill-opacity="1" /><path clip-path="url(#clip910)" d="M741.056 684.096 L753.249 684.096 L768.683 725.253 L784.198 684.096 L796.392 684.096 L796.392 744.576 L788.411 744.576 L788.411 691.469 L772.815 732.95 L764.592 732.95 L748.996 691.469 L748.996 744.576 L741.056 744.576 L741.056 684.096 Z" fill="#000000" fill-rule="nonzero" fill-opacity="1" /><path clip-path="url(#clip910)" d="M829.893 704.432 Q823.897 704.432 820.413 709.131 Q816.93 713.789 816.93 721.931 Q816.93 730.074 820.373 734.773 Q823.857 739.431 829.893 739.431 Q835.847 739.431 839.331 734.732 Q842.815 730.033 842.815 721.931 Q842.815 713.87 839.331 709.171 Q835.847 704.432 829.893 704.432 M829.893 698.112 Q839.615 698.112 845.164 704.432 Q850.714 710.751 850.714 721.931 Q850.714 733.071 845.164 739.431 Q839.615 745.751 829.893 745.751 Q820.13 745.751 814.58 739.431 Q809.071 733.071 809.071 721.931 Q809.071 710.751 814.58 704.432 Q820.13 698.112 829.893 698.112 Z" fill="#000000" fill-rule="nonzero" fill-opacity="1" /><path clip-path="url(#clip910)" d="M898.393 707.915 Q901.188 702.892 905.077 700.502 Q908.966 698.112 914.232 698.112 Q921.321 698.112 925.17 703.095 Q929.018 708.037 929.018 717.192 L929.018 744.576 L921.524 744.576 L921.524 717.435 Q921.524 710.913 919.215 707.753 Q916.906 704.594 912.166 704.594 Q906.374 704.594 903.011 708.442 Q899.649 712.29 899.649 718.934 L899.649 744.576 L892.155 744.576 L892.155 717.435 Q892.155 710.872 889.846 707.753 Q887.537 704.594 882.716 704.594 Q877.005 704.594 873.642 708.482 Q870.28 712.331 870.28 718.934 L870.28 744.576 L862.786 744.576 L862.786 699.206 L870.28 699.206 L870.28 706.254 Q872.832 702.082 876.397 700.097 Q879.962 698.112 884.863 698.112 Q889.805 698.112 893.249 700.624 Q896.732 703.135 898.393 707.915 Z" fill="#000000" fill-rule="nonzero" fill-opacity="1" /><path clip-path="url(#clip910)" d="M982.693 720.028 L982.693 723.673 L948.422 723.673 Q948.908 731.37 953.04 735.421 Q957.212 739.431 964.626 739.431 Q968.92 739.431 972.93 738.378 Q976.981 737.325 980.951 735.218 L980.951 742.267 Q976.94 743.968 972.727 744.86 Q968.514 745.751 964.18 745.751 Q953.324 745.751 946.964 739.431 Q940.644 733.112 940.644 722.337 Q940.644 711.197 946.64 704.675 Q952.675 698.112 962.884 698.112 Q972.039 698.112 977.345 704.026 Q982.693 709.9 982.693 720.028 M975.239 717.84 Q975.158 711.723 971.796 708.077 Q968.474 704.432 962.965 704.432 Q956.726 704.432 952.959 707.956 Q949.232 711.48 948.665 717.881 L975.239 717.84 Z" fill="#000000" fill-rule="nonzero" fill-opacity="1" /><path clip-path="url(#clip910)" d="M1032.64 717.192 L1032.64 744.576 L1025.19 744.576 L1025.19 717.435 Q1025.19 710.994 1022.68 707.794 Q1020.16 704.594 1015.14 704.594 Q1009.1 704.594 1005.62 708.442 Q1002.14 712.29 1002.14 718.934 L1002.14 744.576 L994.643 744.576 L994.643 699.206 L1002.14 699.206 L1002.14 706.254 Q1004.81 702.163 1008.42 700.138 Q1012.06 698.112 1016.8 698.112 Q1024.62 698.112 1028.63 702.973 Q1032.64 707.794 1032.64 717.192 Z" fill="#000000" fill-rule="nonzero" fill-opacity="1" /><path clip-path="url(#clip910)" d="M1054.88 686.324 L1054.88 699.206 L1070.23 699.206 L1070.23 704.999 L1054.88 704.999 L1054.88 729.628 Q1054.88 735.178 1056.38 736.758 Q1057.92 738.338 1062.58 738.338 L1070.23 738.338 L1070.23 744.576 L1062.58 744.576 Q1053.95 744.576 1050.67 741.376 Q1047.39 738.135 1047.39 729.628 L1047.39 704.999 L1041.92 704.999 L1041.92 699.206 L1047.39 699.206 L1047.39 686.324 L1054.88 686.324 Z" fill="#000000" fill-rule="nonzero" fill-opacity="1" /><path clip-path="url(#clip910)" d="M1106.73 684.096 L1144.97 684.096 L1144.97 690.983 L1114.91 690.983 L1114.91 708.888 L1143.72 708.888 L1143.72 715.774 L1114.91 715.774 L1114.91 737.689 L1145.7 737.689 L1145.7 744.576 L1106.73 744.576 L1106.73 684.096 Z" fill="#000000" fill-rule="nonzero" fill-opacity="1" /><path clip-path="url(#clip910)" d="M1196.54 717.192 L1196.54 744.576 L1189.09 744.576 L1189.09 717.435 Q1189.09 710.994 1186.57 707.794 Q1184.06 704.594 1179.04 704.594 Q1173 704.594 1169.52 708.442 Q1166.04 712.29 1166.04 718.934 L1166.04 744.576 L1158.54 744.576 L1158.54 699.206 L1166.04 699.206 L1166.04 706.254 Q1168.71 702.163 1172.32 700.138 Q1175.96 698.112 1180.7 698.112 Q1188.52 698.112 1192.53 702.973 Q1196.54 707.794 1196.54 717.192 Z" fill="#000000" fill-rule="nonzero" fill-opacity="1" /><path clip-path="url(#clip910)" d="M1206.06 699.206 L1213.96 699.206 L1228.14 737.284 L1242.32 699.206 L1250.21 699.206 L1233.2 744.576 L1223.07 744.576 L1206.06 699.206 Z" fill="#000000" fill-rule="nonzero" fill-opacity="1" /><path clip-path="url(#clip910)" d="M1299.31 720.028 L1299.31 723.673 L1265.04 723.673 Q1265.53 731.37 1269.66 735.421 Q1273.83 739.431 1281.24 739.431 Q1285.54 739.431 1289.55 738.378 Q1293.6 737.325 1297.57 735.218 L1297.57 742.267 Q1293.56 743.968 1289.35 744.86 Q1285.13 745.751 1280.8 745.751 Q1269.94 745.751 1263.58 739.431 Q1257.26 733.112 1257.26 722.337 Q1257.26 711.197 1263.26 704.675 Q1269.29 698.112 1279.5 698.112 Q1288.66 698.112 1293.96 704.026 Q1299.31 709.9 1299.31 720.028 M1291.86 717.84 Q1291.78 711.723 1288.41 708.077 Q1285.09 704.432 1279.58 704.432 Q1273.34 704.432 1269.58 707.956 Q1265.85 711.48 1265.28 717.881 L1291.86 717.84 Z" fill="#000000" fill-rule="nonzero" fill-opacity="1" /><path clip-path="url(#clip910)" d="M1311.55 681.544 L1319 681.544 L1319 744.576 L1311.55 744.576 L1311.55 681.544 Z" fill="#000000" fill-rule="nonzero" fill-opacity="1" /><path clip-path="url(#clip910)" d="M1352.18 704.432 Q1346.18 704.432 1342.7 709.131 Q1339.21 713.789 1339.21 721.931 Q1339.21 730.074 1342.66 734.773 Q1346.14 739.431 1352.18 739.431 Q1358.13 739.431 1361.61 734.732 Q1365.1 730.033 1365.1 721.931 Q1365.1 713.87 1361.61 709.171 Q1358.13 704.432 1352.18 704.432 M1352.18 698.112 Q1361.9 698.112 1367.45 704.432 Q1373 710.751 1373 721.931 Q1373 733.071 1367.45 739.431 Q1361.9 745.751 1352.18 745.751 Q1342.41 745.751 1336.86 739.431 Q1331.35 733.071 1331.35 721.931 Q1331.35 710.751 1336.86 704.432 Q1342.41 698.112 1352.18 698.112 Z" fill="#000000" fill-rule="nonzero" fill-opacity="1" /><path clip-path="url(#clip910)" d="M1392.56 737.77 L1392.56 761.833 L1385.07 761.833 L1385.07 699.206 L1392.56 699.206 L1392.56 706.092 Q1394.91 702.042 1398.48 700.097 Q1402.08 698.112 1407.07 698.112 Q1415.33 698.112 1420.47 704.675 Q1425.66 711.237 1425.66 721.931 Q1425.66 732.626 1420.47 739.188 Q1415.33 745.751 1407.07 745.751 Q1402.08 745.751 1398.48 743.806 Q1394.91 741.821 1392.56 737.77 M1417.92 721.931 Q1417.92 713.708 1414.52 709.05 Q1411.16 704.351 1405.24 704.351 Q1399.33 704.351 1395.93 709.05 Q1392.56 713.708 1392.56 721.931 Q1392.56 730.155 1395.93 734.854 Q1399.33 739.512 1405.24 739.512 Q1411.16 739.512 1414.52 734.854 Q1417.92 730.155 1417.92 721.931 Z" fill="#000000" fill-rule="nonzero" fill-opacity="1" /><path clip-path="url(#clip910)" d="M1476.82 720.028 L1476.82 723.673 L1442.55 723.673 Q1443.04 731.37 1447.17 735.421 Q1451.34 739.431 1458.75 739.431 Q1463.05 739.431 1467.06 738.378 Q1471.11 737.325 1475.08 735.218 L1475.08 742.267 Q1471.07 743.968 1466.86 744.86 Q1462.64 745.751 1458.31 745.751 Q1447.45 745.751 1441.09 739.431 Q1434.77 733.112 1434.77 722.337 Q1434.77 711.197 1440.77 704.675 Q1446.8 698.112 1457.01 698.112 Q1466.17 698.112 1471.47 704.026 Q1476.82 709.9 1476.82 720.028 M1469.37 717.84 Q1469.29 711.723 1465.92 708.077 Q1462.6 704.432 1457.09 704.432 Q1450.86 704.432 1447.09 707.956 Q1443.36 711.48 1442.79 717.881 L1469.37 717.84 Z" fill="#000000" fill-rule="nonzero" fill-opacity="1" /><path clip-path="url(#clip910)" d="M1533.33 681.625 Q1527.9 690.942 1525.27 700.057 Q1522.64 709.171 1522.64 718.529 Q1522.64 727.886 1525.27 737.082 Q1527.94 746.237 1533.33 755.513 L1526.85 755.513 Q1520.77 745.994 1517.74 736.798 Q1514.74 727.603 1514.74 718.529 Q1514.74 709.495 1517.74 700.34 Q1520.73 691.185 1526.85 681.625 L1533.33 681.625 Z" fill="#000000" fill-rule="nonzero" fill-opacity="1" /><path clip-path="url(#clip910)" d="M1584.37 686.081 L1584.37 694.061 Q1579.71 691.833 1575.58 690.739 Q1571.45 689.646 1567.6 689.646 Q1560.92 689.646 1557.27 692.238 Q1553.67 694.831 1553.67 699.611 Q1553.67 703.621 1556.06 705.687 Q1558.49 707.713 1565.21 708.969 L1570.15 709.981 Q1579.31 711.723 1583.64 716.139 Q1588.02 720.514 1588.02 727.886 Q1588.02 736.677 1582.1 741.214 Q1576.23 745.751 1564.85 745.751 Q1560.55 745.751 1555.69 744.779 Q1550.87 743.806 1545.69 741.902 L1545.69 733.477 Q1550.67 736.272 1555.45 737.689 Q1560.23 739.107 1564.85 739.107 Q1571.86 739.107 1575.66 736.353 Q1579.47 733.598 1579.47 728.494 Q1579.47 724.038 1576.72 721.526 Q1574 719.015 1567.76 717.759 L1562.78 716.787 Q1553.63 714.964 1549.54 711.075 Q1545.44 707.186 1545.44 700.259 Q1545.44 692.238 1551.07 687.62 Q1556.75 683.002 1566.67 683.002 Q1570.92 683.002 1575.34 683.772 Q1579.76 684.542 1584.37 686.081 Z" fill="#000000" fill-rule="nonzero" fill-opacity="1" /><path clip-path="url(#clip910)" d="M1629.46 716.22 Q1632.09 717.111 1634.56 720.028 Q1637.08 722.944 1639.59 728.048 L1647.89 744.576 L1639.1 744.576 L1631.36 729.061 Q1628.37 722.985 1625.53 721 Q1622.74 719.015 1617.87 719.015 L1608.96 719.015 L1608.96 744.576 L1600.78 744.576 L1600.78 684.096 L1619.25 684.096 Q1629.62 684.096 1634.73 688.43 Q1639.83 692.765 1639.83 701.515 Q1639.83 707.227 1637.16 710.994 Q1634.52 714.761 1629.46 716.22 M1608.96 690.821 L1608.96 712.29 L1619.25 712.29 Q1625.17 712.29 1628.16 709.576 Q1631.2 706.822 1631.2 701.515 Q1631.2 696.208 1628.16 693.535 Q1625.17 690.821 1619.25 690.821 L1608.96 690.821 Z" fill="#000000" fill-rule="nonzero" fill-opacity="1" /><path clip-path="url(#clip910)" d="M1669.48 744.576 L1646.39 684.096 L1654.94 684.096 L1674.1 735.016 L1693.3 684.096 L1701.81 684.096 L1678.76 744.576 L1669.48 744.576 Z" fill="#000000" fill-rule="nonzero" fill-opacity="1" /><path clip-path="url(#clip910)" d="M1709.14 681.625 L1715.62 681.625 Q1721.7 691.185 1724.7 700.34 Q1727.73 709.495 1727.73 718.529 Q1727.73 727.603 1724.7 736.798 Q1721.7 745.994 1715.62 755.513 L1709.14 755.513 Q1714.53 746.237 1717.16 737.082 Q1719.84 727.886 1719.84 718.529 Q1719.84 709.171 1717.16 700.057 Q1714.53 690.942 1709.14 681.625 Z" fill="#000000" fill-rule="nonzero" fill-opacity="1" /><path clip-path="url(#clip913)" d="M258.751 903.407 L278.676 903.463 L298.601 903.632 L318.526 903.913 L338.451 904.307 L358.376 919.831 L378.301 935.468 L398.226 951.217 L418.151 967.079 L438.076 954.193 L458.001 940.331 L477.926 926.332 L497.851 912.294 L517.776 898.369 L537.701 884.361 L557.626 870.235 L577.551 855.992 L597.476 841.722 L617.401 827.518 L637.326 813.184 L657.251 798.943 L677.176 814.559 L697.101 830.262 L717.026 845.972 L736.951 861.744 L756.877 877.555 L776.802 893.103 L796.727 907.205 L816.652 920.489 L836.577 930.735 L856.502 940.092 L876.427 949.56 L896.352 959.142 L916.277 941.508 L936.202 923.51 L956.127 895.816 L976.052 866.541 L995.977 866.343 L1015.9 866.195 L1035.83 866.077 L1055.75 866.034 L1075.68 866.069 L1095.6 866.218 L1115.53 866.477 L1135.45 866.583 L1155.38 866.478 L1175.3 866.214 L1195.23 866.063 L1215.15 866.024 L1235.08 866.08 L1255 866.195 L1274.93 866.342 L1294.85 866.543 L1314.78 895.817 L1334.7 923.522 L1354.63 941.508 L1374.55 959.142 L1394.48 949.561 L1414.4 940.092 L1434.33 930.736 L1454.25 920.484 L1474.18 907.202 L1494.1 893.104 L1514.03 877.554 L1533.95 861.746 L1553.88 845.977 L1573.8 830.261 L1593.73 814.56 L1613.65 798.946 L1633.58 813.19 L1653.5 827.517 L1673.43 841.725 L1693.35 855.997 L1713.28 870.229 L1733.2 884.359 L1753.13 898.365 L1773.05 912.295 L1792.98 926.338 L1812.9 940.329 L1832.83 954.193 L1852.75 967.079 L1872.68 951.217 L1892.6 935.468 L1912.53 919.831 L1932.45 904.307 L1952.38 903.913 L1972.3 903.632 L1992.23 903.463 L2012.15 903.407 L2012.15 903.407 L1992.23 903.407 L1972.3 903.407 L1952.38 903.407 L1932.45 903.407 L1912.53 903.407 L1892.6 903.407 L1872.68 903.407 L1852.75 903.407 L1832.83 903.407 L1812.9 903.407 L1792.98 903.407 L1773.05 903.407 L1753.13 903.407 L1733.2 903.407 L1713.28 903.407 L1693.35 903.407 L1673.43 903.407 L1653.5 903.407 L1633.58 903.407 L1613.65 903.407 L1593.73 903.407 L1573.8 903.407 L1553.88 903.407 L1533.95 903.407 L1514.03 903.407 L1494.1 903.407 L1474.18 903.407 L1454.25 903.407 L1434.33 903.407 L1414.4 903.407 L1394.48 903.407 L1374.55 903.407 L1354.63 903.407 L1334.7 903.407 L1314.78 903.407 L1294.85 903.407 L1274.93 903.407 L1255 903.407 L1235.08 903.407 L1215.15 903.407 L1195.23 903.407 L1175.3 903.407 L1155.38 903.407 L1135.45 903.407 L1115.53 903.407 L1095.6 903.407 L1075.68 903.407 L1055.75 903.407 L1035.83 903.407 L1015.9 903.407 L995.977 903.407 L976.052 903.407 L956.127 903.407 L936.202 903.407 L916.277 903.407 L896.352 903.407 L876.427 903.407 L856.502 903.407 L836.577 903.407 L816.652 903.407 L796.727 903.407 L776.802 903.407 L756.877 903.407 L736.951 903.407 L717.026 903.407 L697.101 903.407 L677.176 903.407 L657.251 903.407 L637.326 903.407 L617.401 903.407 L597.476 903.407 L577.551 903.407 L557.626 903.407 L537.701 903.407 L517.776 903.407 L497.851 903.407 L477.926 903.407 L458.001 903.407 L438.076 903.407 L418.151 903.407 L398.226 903.407 L378.301 903.407 L358.376 903.407 L338.451 903.407 L318.526 903.407 L298.601 903.407 L278.676 903.407 L258.751 903.407  Z" fill="#0000ff" fill-rule="evenodd" fill-opacity="0.5"/>
<polyline clip-path="url(#clip913)" style="stroke:#0000ff; stroke-linecap:round; stroke-linejoin:round; stroke-width:4; stroke-opacity:1; fill:none" points="258.751,903.407 278.676,903.463 298.601,903.632 318.526,903.913 338.451,904.307 358.376,919.831 378.301,935.468 398.226,951.217 418.151,967.079 438.076,954.193 458.001,940.331 477.926,926.332 497.851,912.294 517.776,898.369 537.701,884.361 557.626,870.235 577.551,855.992 597.476,841.722 617.401,827.518 637.326,813.184 657.251,798.943 677.176,814.559 697.101,830.262 717.026,845.972 736.951,861.744 756.877,877.555 776.802,893.103 796.727,907.205 816.652,920.489 836.577,930.735 856.502,940.092 876.427,949.56 896.352,959.142 916.277,941.508 936.202,923.51 956.127,895.816 976.052,866.541 995.977,866.343 1015.9,866.195 1035.83,866.077 1055.75,866.034 1075.68,866.069 1095.6,866.218 1115.53,866.477 1135.45,866.583 1155.38,866.478 1175.3,866.214 1195.23,866.063 1215.15,866.024 1235.08,866.08 1255,866.195 1274.93,866.342 1294.85,866.543 1314.78,895.817 1334.7,923.522 1354.63,941.508 1374.55,959.142 1394.48,949.561 1414.4,940.092 1434.33,930.736 1454.25,920.484 1474.18,907.202 1494.1,893.104 1514.03,877.554 1533.95,861.746 1553.88,845.977 1573.8,830.261 1593.73,814.56 1613.65,798.946 1633.58,813.19 1653.5,827.517 1673.43,841.725 1693.35,855.997 1713.28,870.229 1733.2,884.359 1753.13,898.365 1773.05,912.295 1792.98,926.338 1812.9,940.329 1832.83,954.193 1852.75,967.079 1872.68,951.217 1892.6,935.468 1912.53,919.831 1932.45,904.307 1952.38,903.913 1972.3,903.632 1992.23,903.463 2012.15,903.407 "/>
<path clip-path="url(#clip913)" d="M258.751 903.407 L278.676 903.463 L298.601 903.632 L318.526 903.913 L338.451 904.307 L358.376 929.592 L378.301 954.989 L398.226 980.499 L418.151 1006.12 L438.076 990.258 L458.001 974.506 L477.926 958.867 L497.851 943.34 L517.776 929.225 L537.701 915.484 L557.626 903.827 L577.551 895.241 L597.476 886.768 L617.401 878.407 L637.326 870.159 L657.251 862.023 L677.176 871.325 L697.101 880.739 L717.026 890.302 L736.951 900.063 L756.877 909.972 L776.802 920.096 L796.727 930.332 L816.652 942.902 L836.577 957.588 L856.502 973.496 L876.427 989.748 L896.352 1006.25 L916.277 974.457 L936.202 947.05 L956.127 924.724 L976.052 903.65 L995.977 901.91 L1015.9 900.282 L1035.83 899.072 L1055.75 898.563 L1075.68 898.169 L1095.6 897.888 L1115.53 897.719 L1135.45 897.663 L1155.38 897.719 L1175.3 897.888 L1195.23 898.169 L1215.15 898.563 L1235.08 899.071 L1255 900.282 L1274.93 901.909 L1294.85 903.649 L1314.78 924.722 L1334.7 947.049 L1354.63 974.457 L1374.55 1006.25 L1394.48 989.748 L1414.4 973.496 L1434.33 957.588 L1454.25 942.902 L1474.18 930.336 L1494.1 920.098 L1514.03 909.972 L1533.95 900.062 L1553.88 890.302 L1573.8 880.738 L1593.73 871.322 L1613.65 862.019 L1633.58 870.155 L1653.5 878.404 L1673.43 886.765 L1693.35 895.239 L1713.28 903.937 L1733.2 917.285 L1753.13 930.746 L1773.05 944.831 L1792.98 960.022 L1812.9 975.326 L1832.83 990.742 L1852.75 1006.27 L1872.68 980.611 L1892.6 955.064 L1912.53 929.629 L1932.45 904.307 L1952.38 903.913 L1972.3 903.632 L1992.23 903.463 L2012.15 903.407 L2012.15 903.407 L1992.23 903.407 L1972.3 903.407 L1952.38 903.407 L1932.45 903.407 L1912.53 903.407 L1892.6 903.407 L1872.68 903.407 L1852.75 903.407 L1832.83 903.407 L1812.9 903.407 L1792.98 903.407 L1773.05 903.407 L1753.13 903.407 L1733.2 903.407 L1713.28 903.407 L1693.35 903.407 L1673.43 903.407 L1653.5 903.407 L1633.58 903.407 L1613.65 903.407 L1593.73 903.407 L1573.8 903.407 L1553.88 903.407 L1533.95 903.407 L1514.03 903.407 L1494.1 903.407 L1474.18 903.407 L1454.25 903.407 L1434.33 903.407 L1414.4 903.407 L1394.48 903.407 L1374.55 903.407 L1354.63 903.407 L1334.7 903.407 L1314.78 903.407 L1294.85 903.407 L1274.93 903.407 L1255 903.407 L1235.08 903.407 L1215.15 903.407 L1195.23 903.407 L1175.3 903.407 L1155.38 903.407 L1135.45 903.407 L1115.53 903.407 L1095.6 903.407 L1075.68 903.407 L1055.75 903.407 L1035.83 903.407 L1015.9 903.407 L995.977 903.407 L976.052 903.407 L956.127 903.407 L936.202 903.407 L916.277 903.407 L896.352 903.407 L876.427 903.407 L856.502 903.407 L836.577 903.407 L816.652 903.407 L796.727 903.407 L776.802 903.407 L756.877 903.407 L736.951 903.407 L717.026 903.407 L697.101 903.407 L677.176 903.407 L657.251 903.407 L637.326 903.407 L617.401 903.407 L597.476 903.407 L577.551 903.407 L557.626 903.407 L537.701 903.407 L517.776 903.407 L497.851 903.407 L477.926 903.407 L458.001 903.407 L438.076 903.407 L418.151 903.407 L398.226 903.407 L378.301 903.407 L358.376 903.407 L338.451 903.407 L318.526 903.407 L298.601 903.407 L278.676 903.407 L258.751 903.407  Z" fill="#ff0000" fill-rule="evenodd" fill-opacity="0.5"/>
<polyline clip-path="url(#clip913)" style="stroke:#ff0000; stroke-linecap:round; stroke-linejoin:round; stroke-width:4; stroke-opacity:1; fill:none" points="258.751,903.407 278.676,903.463 298.601,903.632 318.526,903.913 338.451,904.307 358.376,929.592 378.301,954.989 398.226,980.499 418.151,1006.12 438.076,990.258 458.001,974.506 477.926,958.867 497.851,943.34 517.776,929.225 537.701,915.484 557.626,903.827 577.551,895.241 597.476,886.768 617.401,878.407 637.326,870.159 657.251,862.023 677.176,871.325 697.101,880.739 717.026,890.302 736.951,900.063 756.877,909.972 776.802,920.096 796.727,930.332 816.652,942.902 836.577,957.588 856.502,973.496 876.427,989.748 896.352,1006.25 916.277,974.457 936.202,947.05 956.127,924.724 976.052,903.65 995.977,901.91 1015.9,900.282 1035.83,899.072 1055.75,898.563 1075.68,898.169 1095.6,897.888 1115.53,897.719 1135.45,897.663 1155.38,897.719 1175.3,897.888 1195.23,898.169 1215.15,898.563 1235.08,899.071 1255,900.282 1274.93,901.909 1294.85,903.649 1314.78,924.722 1334.7,947.049 1354.63,974.457 1374.55,1006.25 1394.48,989.748 1414.4,973.496 1434.33,957.588 1454.25,942.902 1474.18,930.336 1494.1,920.098 1514.03,909.972 1533.95,900.062 1553.88,890.302 1573.8,880.738 1593.73,871.322 1613.65,862.019 1633.58,870.155 1653.5,878.404 1673.43,886.765 1693.35,895.239 1713.28,903.937 1733.2,917.285 1753.13,930.746 1773.05,944.831 1792.98,960.022 1812.9,975.326 1832.83,990.742 1852.75,1006.27 1872.68,980.611 1892.6,955.064 1912.53,929.629 1932.45,904.307 1952.38,903.913 1972.3,903.632 1992.23,903.463 2012.15,903.407 "/>
<path clip-path="url(#clip910)" d="M999.501 1234.58 L1271.4 1234.58 L1271.4 1079.06 L999.501 1079.06  Z" fill="#ffffff" fill-rule="evenodd" fill-opacity="1"/>
<polyline clip-path="url(#clip910)" style="stroke:#000000; stroke-linecap:round; stroke-linejoin:round; stroke-width:4; stroke-opacity:1; fill:none" points="999.501,1234.58 1271.4,1234.58 1271.4,1079.06 999.501,1079.06 999.501,1234.58 "/>
<path clip-path="url(#clip910)" d="M1020.15 1151.63 L1144.06 1151.63 L1144.06 1110.16 L1020.15 1110.16 L1020.15 1151.63  Z" fill="#0000ff" fill-rule="evenodd" fill-opacity="0.5"/>
<polyline clip-path="url(#clip910)" style="stroke:#0000ff; stroke-linecap:round; stroke-linejoin:round; stroke-width:4; stroke-opacity:1; fill:none" points="1020.15,1110.16 1144.06,1110.16 "/>
<path clip-path="url(#clip910)" d="M1181.49 1118.46 L1181.49 1131.35 L1194.39 1131.35 L1194.39 1135.29 L1181.49 1135.29 L1181.49 1148.18 L1177.6 1148.18 L1177.6 1135.29 L1164.71 1135.29 L1164.71 1131.35 L1177.6 1131.35 L1177.6 1118.46 L1181.49 1118.46 Z" fill="#000000" fill-rule="nonzero" fill-opacity="1" /><path clip-path="url(#clip910)" d="M1219.13 1113.62 L1226.1 1113.62 L1234.92 1137.14 L1243.78 1113.62 L1250.75 1113.62 L1250.75 1148.18 L1246.19 1148.18 L1246.19 1117.83 L1237.28 1141.54 L1232.58 1141.54 L1223.67 1117.83 L1223.67 1148.18 L1219.13 1148.18 L1219.13 1113.62 Z" fill="#000000" fill-rule="nonzero" fill-opacity="1" /><path clip-path="url(#clip910)" d="M1020.15 1203.47 L1144.06 1203.47 L1144.06 1162 L1020.15 1162 L1020.15 1203.47  Z" fill="#ff0000" fill-rule="evenodd" fill-opacity="0.5"/>
<polyline clip-path="url(#clip910)" style="stroke:#ff0000; stroke-linecap:round; stroke-linejoin:round; stroke-width:4; stroke-opacity:1; fill:none" points="1020.15,1162 1144.06,1162 "/>
<path clip-path="url(#clip910)" d="M1164.71 1185.13 L1177.19 1185.13 L1177.19 1188.93 L1164.71 1188.93 L1164.71 1185.13 Z" fill="#000000" fill-rule="nonzero" fill-opacity="1" /><path clip-path="url(#clip910)" d="M1199.22 1165.46 L1206.19 1165.46 L1215.01 1188.98 L1223.88 1165.46 L1230.84 1165.46 L1230.84 1200.02 L1226.28 1200.02 L1226.28 1169.67 L1217.37 1193.38 L1212.67 1193.38 L1203.76 1169.67 L1203.76 1200.02 L1199.22 1200.02 L1199.22 1165.46 Z" fill="#000000" fill-rule="nonzero" fill-opacity="1" /></svg>
