<?xml version="1.0" encoding="utf-8"?>
<svg xmlns="http://www.w3.org/2000/svg" xmlns:xlink="http://www.w3.org/1999/xlink" width="528" height="336" viewBox="0 0 2112 1344">
<defs>
  <clipPath id="clip670">
    <rect x="0" y="0" width="2112" height="1344"/>
  </clipPath>
</defs>
<path clip-path="url(#clip670)" d="M0 1344 L2112 1344 L2112 0 L0 0  Z" fill="#ffffff" fill-rule="evenodd" fill-opacity="1"/>
<defs>
  <clipPath id="clip671">
    <rect x="422" y="0" width="1479" height="1344"/>
  </clipPath>
</defs>
<path clip-path="url(#clip670)" d="M206.149 562.579 L2064.76 562.579 L2064.76 120.723 L206.149 120.723  Z" fill="#ffffff" fill-rule="evenodd" fill-opacity="1"/>
<defs>
  <clipPath id="clip672">
    <rect x="206" y="120" width="1860" height="443"/>
  </clipPath>
</defs>
<polyline clip-path="url(#clip672)" style="stroke:#000000; stroke-linecap:round; stroke-linejoin:round; stroke-width:2; stroke-opacity:0.1; fill:none" points="258.751,562.579 258.751,120.723 "/>
<polyline clip-path="url(#clip672)" style="stroke:#000000; stroke-linecap:round; stroke-linejoin:round; stroke-width:2; stroke-opacity:0.1; fill:none" points="657.251,562.579 657.251,120.723 "/>
<polyline clip-path="url(#clip672)" style="stroke:#000000; stroke-linecap:round; stroke-linejoin:round; stroke-width:2; stroke-opacity:0.1; fill:none" points="1055.75,562.579 1055.75,120.723 "/>
<polyline clip-path="url(#clip672)" style="stroke:#000000; stroke-linecap:round; stroke-linejoin:round; stroke-width:2; stroke-opacity:0.1; fill:none" points="1454.25,562.579 1454.25,120.723 "/>
<polyline clip-path="url(#clip672)" style="stroke:#000000; stroke-linecap:round; stroke-linejoin:round; stroke-width:2; stroke-opacity:0.1; fill:none" points="1852.75,562.579 1852.75,120.723 "/>
<polyline clip-path="url(#clip672)" style="stroke:#000000; stroke-linecap:round; stroke-linejoin:round; stroke-width:2; stroke-opacity:0.1; fill:none" points="206.149,528.633 2064.76,528.633 "/>
<polyline clip-path="url(#clip672)" style="stroke:#000000; stroke-linecap:round; stroke-linejoin:round; stroke-width:2; stroke-opacity:0.1; fill:none" points="206.149,466.306 2064.76,466.306 "/>
<polyline clip-path="url(#clip672)" style="stroke:#000000; stroke-linecap:round; stroke-linejoin:round; stroke-width:2; stroke-opacity:0.1; fill:none" points="206.149,403.978 2064.76,403.978 "/>
<polyline clip-path="url(#clip672)" style="stroke:#000000; stroke-linecap:round; stroke-linejoin:round; stroke-width:2; stroke-opacity:0.1; fill:none" points="206.149,341.651 2064.76,341.651 "/>
<polyline clip-path="url(#clip672)" style="stroke:#000000; stroke-linecap:round; stroke-linejoin:round; stroke-width:2; stroke-opacity:0.1; fill:none" points="206.149,279.324 2064.76,279.324 "/>
<polyline clip-path="url(#clip672)" style="stroke:#000000; stroke-linecap:round; stroke-linejoin:round; stroke-width:2; stroke-opacity:0.1; fill:none" points="206.149,216.996 2064.76,216.996 "/>
<polyline clip-path="url(#clip672)" style="stroke:#000000; stroke-linecap:round; stroke-linejoin:round; stroke-width:2; stroke-opacity:0.1; fill:none" points="206.149,154.669 2064.76,154.669 "/>
<polyline clip-path="url(#clip670)" style="stroke:#000000; stroke-linecap:round; stroke-linejoin:round; stroke-width:4; stroke-opacity:1; fill:none" points="206.149,562.579 2064.76,562.579 "/>
<polyline clip-path="url(#clip670)" style="stroke:#000000; stroke-linecap:round; stroke-linejoin:round; stroke-width:4; stroke-opacity:1; fill:none" points="258.751,562.579 258.751,543.681 "/>
<polyline clip-path="url(#clip670)" style="stroke:#000000; stroke-linecap:round; stroke-linejoin:round; stroke-width:4; stroke-opacity:1; fill:none" points="657.251,562.579 657.251,543.681 "/>
<polyline clip-path="url(#clip670)" style="stroke:#000000; stroke-linecap:round; stroke-linejoin:round; stroke-width:4; stroke-opacity:1; fill:none" points="1055.75,562.579 1055.75,543.681 "/>
<polyline clip-path="url(#clip670)" style="stroke:#000000; stroke-linecap:round; stroke-linejoin:round; stroke-width:4; stroke-opacity:1; fill:none" points="1454.25,562.579 1454.25,543.681 "/>
<polyline clip-path="url(#clip670)" style="stroke:#000000; stroke-linecap:round; stroke-linejoin:round; stroke-width:4; stroke-opacity:1; fill:none" points="1852.75,562.579 1852.75,543.681 "/>
<path clip-path="url(#clip670)" d="M258.751 591.193 Q255.14 591.193 253.311 594.758 Q251.505 598.3 251.505 605.43 Q251.505 612.536 253.311 616.101 Q255.14 619.642 258.751 619.642 Q262.385 619.642 264.19 616.101 Q266.019 612.536 266.019 605.43 Q266.019 598.3 264.19 594.758 Q262.385 591.193 258.751 591.193 M258.751 587.49 Q264.561 587.49 267.616 592.096 Q270.695 596.68 270.695 605.43 Q270.695 614.156 267.616 618.763 Q264.561 623.346 258.751 623.346 Q252.94 623.346 249.862 618.763 Q246.806 614.156 246.806 605.43 Q246.806 596.68 249.862 592.096 Q252.94 587.49 258.751 587.49 Z" fill="#000000" fill-rule="nonzero" fill-opacity="1" /><path clip-path="url(#clip670)" d="M631.939 618.74 L639.578 618.74 L639.578 592.374 L631.268 594.041 L631.268 589.781 L639.532 588.115 L644.207 588.115 L644.207 618.74 L651.846 618.74 L651.846 622.675 L631.939 622.675 L631.939 618.74 Z" fill="#000000" fill-rule="nonzero" fill-opacity="1" /><path clip-path="url(#clip670)" d="M671.291 591.193 Q667.68 591.193 665.851 594.758 Q664.045 598.3 664.045 605.43 Q664.045 612.536 665.851 616.101 Q667.68 619.642 671.291 619.642 Q674.925 619.642 676.73 616.101 Q678.559 612.536 678.559 605.43 Q678.559 598.3 676.73 594.758 Q674.925 591.193 671.291 591.193 M671.291 587.49 Q677.101 587.49 680.156 592.096 Q683.235 596.68 683.235 605.43 Q683.235 614.156 680.156 618.763 Q677.101 623.346 671.291 623.346 Q665.48 623.346 662.402 618.763 Q659.346 614.156 659.346 605.43 Q659.346 596.68 662.402 592.096 Q665.48 587.49 671.291 587.49 Z" fill="#000000" fill-rule="nonzero" fill-opacity="1" /><path clip-path="url(#clip670)" d="M1034.53 618.74 L1050.84 618.74 L1050.84 622.675 L1028.9 622.675 L1028.9 618.74 Q1031.56 615.985 1036.15 611.355 Q1040.75 606.703 1041.93 605.36 Q1044.18 602.837 1045.06 601.101 Q1045.96 599.342 1045.96 597.652 Q1045.96 594.897 1044.02 593.161 Q1042.09 591.425 1038.99 591.425 Q1036.79 591.425 1034.34 592.189 Q1031.91 592.953 1029.13 594.504 L1029.13 589.781 Q1031.96 588.647 1034.41 588.068 Q1036.86 587.49 1038.9 587.49 Q1044.27 587.49 1047.47 590.175 Q1050.66 592.86 1050.66 597.351 Q1050.66 599.48 1049.85 601.402 Q1049.06 603.3 1046.96 605.892 Q1046.38 606.564 1043.28 609.781 Q1040.17 612.976 1034.53 618.74 Z" fill="#000000" fill-rule="nonzero" fill-opacity="1" /><path clip-path="url(#clip670)" d="M1070.66 591.193 Q1067.05 591.193 1065.22 594.758 Q1063.41 598.3 1063.41 605.43 Q1063.41 612.536 1065.22 616.101 Q1067.05 619.642 1070.66 619.642 Q1074.29 619.642 1076.1 616.101 Q1077.93 612.536 1077.93 605.43 Q1077.93 598.3 1076.1 594.758 Q1074.29 591.193 1070.66 591.193 M1070.66 587.49 Q1076.47 587.49 1079.53 592.096 Q1082.6 596.68 1082.6 605.43 Q1082.6 614.156 1079.53 618.763 Q1076.47 623.346 1070.66 623.346 Q1064.85 623.346 1061.77 618.763 Q1058.72 614.156 1058.72 605.43 Q1058.72 596.68 1061.77 592.096 Q1064.85 587.49 1070.66 587.49 Z" fill="#000000" fill-rule="nonzero" fill-opacity="1" /><path clip-path="url(#clip670)" d="M1443.1 604.041 Q1446.45 604.758 1448.33 607.027 Q1450.23 609.295 1450.23 612.629 Q1450.23 617.744 1446.71 620.545 Q1443.19 623.346 1436.71 623.346 Q1434.53 623.346 1432.22 622.906 Q1429.92 622.49 1427.47 621.633 L1427.47 617.119 Q1429.41 618.254 1431.73 618.832 Q1434.04 619.411 1436.57 619.411 Q1440.97 619.411 1443.26 617.675 Q1445.57 615.939 1445.57 612.629 Q1445.57 609.573 1443.42 607.86 Q1441.29 606.124 1437.47 606.124 L1433.44 606.124 L1433.44 602.281 L1437.66 602.281 Q1441.1 602.281 1442.93 600.916 Q1444.76 599.527 1444.76 596.934 Q1444.76 594.272 1442.86 592.86 Q1440.99 591.425 1437.47 591.425 Q1435.55 591.425 1433.35 591.842 Q1431.15 592.258 1428.51 593.138 L1428.51 588.971 Q1431.17 588.231 1433.49 587.86 Q1435.83 587.49 1437.89 587.49 Q1443.21 587.49 1446.31 589.92 Q1449.41 592.328 1449.41 596.448 Q1449.41 599.318 1447.77 601.309 Q1446.13 603.277 1443.1 604.041 Z" fill="#000000" fill-rule="nonzero" fill-opacity="1" /><path clip-path="url(#clip670)" d="M1469.09 591.193 Q1465.48 591.193 1463.65 594.758 Q1461.85 598.3 1461.85 605.43 Q1461.85 612.536 1463.65 616.101 Q1465.48 619.642 1469.09 619.642 Q1472.72 619.642 1474.53 616.101 Q1476.36 612.536 1476.36 605.43 Q1476.36 598.3 1474.53 594.758 Q1472.72 591.193 1469.09 591.193 M1469.09 587.49 Q1474.9 587.49 1477.96 592.096 Q1481.04 596.68 1481.04 605.43 Q1481.04 614.156 1477.96 618.763 Q1474.9 623.346 1469.09 623.346 Q1463.28 623.346 1460.2 618.763 Q1457.15 614.156 1457.15 605.43 Q1457.15 596.68 1460.2 592.096 Q1463.28 587.49 1469.09 587.49 Z" fill="#000000" fill-rule="nonzero" fill-opacity="1" /><path clip-path="url(#clip670)" d="M1840.92 592.189 L1829.12 610.638 L1840.92 610.638 L1840.92 592.189 M1839.7 588.115 L1845.58 588.115 L1845.58 610.638 L1850.51 610.638 L1850.51 614.527 L1845.58 614.527 L1845.58 622.675 L1840.92 622.675 L1840.92 614.527 L1825.32 614.527 L1825.32 610.013 L1839.7 588.115 Z" fill="#000000" fill-rule="nonzero" fill-opacity="1" /><path clip-path="url(#clip670)" d="M1868.24 591.193 Q1864.63 591.193 1862.8 594.758 Q1860.99 598.3 1860.99 605.43 Q1860.99 612.536 1862.8 616.101 Q1864.63 619.642 1868.24 619.642 Q1871.87 619.642 1873.68 616.101 Q1875.51 612.536 1875.51 605.43 Q1875.51 598.3 1873.68 594.758 Q1871.87 591.193 1868.24 591.193 M1868.24 587.49 Q1874.05 587.49 1877.11 592.096 Q1880.18 596.68 1880.18 605.43 Q1880.18 614.156 1877.11 618.763 Q1874.05 623.346 1868.24 623.346 Q1862.43 623.346 1859.35 618.763 Q1856.3 614.156 1856.3 605.43 Q1856.3 596.68 1859.35 592.096 Q1862.43 587.49 1868.24 587.49 Z" fill="#000000" fill-rule="nonzero" fill-opacity="1" /><polyline clip-path="url(#clip670)" style="stroke:#000000; stroke-linecap:round; stroke-linejoin:round; stroke-width:4; stroke-opacity:1; fill:none" points="206.149,562.579 206.149,120.723 "/>
<polyline clip-path="url(#clip670)" style="stroke:#000000; stroke-linecap:round; stroke-linejoin:round; stroke-width:4; stroke-opacity:1; fill:none" points="206.149,528.633 225.046,528.633 "/>
<polyline clip-path="url(#clip670)" style="stroke:#000000; stroke-linecap:round; stroke-linejoin:round; stroke-width:4; stroke-opacity:1; fill:none" points="206.149,466.306 225.046,466.306 "/>
<polyline clip-path="url(#clip670)" style="stroke:#000000; stroke-linecap:round; stroke-linejoin:round; stroke-width:4; stroke-opacity:1; fill:none" points="206.149,403.978 225.046,403.978 "/>
<polyline clip-path="url(#clip670)" style="stroke:#000000; stroke-linecap:round; stroke-linejoin:round; stroke-width:4; stroke-opacity:1; fill:none" points="206.149,341.651 225.046,341.651 "/>
<polyline clip-path="url(#clip670)" style="stroke:#000000; stroke-linecap:round; stroke-linejoin:round; stroke-width:4; stroke-opacity:1; fill:none" points="206.149,279.324 225.046,279.324 "/>
<polyline clip-path="url(#clip670)" style="stroke:#000000; stroke-linecap:round; stroke-linejoin:round; stroke-width:4; stroke-opacity:1; fill:none" points="206.149,216.996 225.046,216.996 "/>
<polyline clip-path="url(#clip670)" style="stroke:#000000; stroke-linecap:round; stroke-linejoin:round; stroke-width:4; stroke-opacity:1; fill:none" points="206.149,154.669 225.046,154.669 "/>
<path clip-path="url(#clip670)" d="M52.4321 529.084 L82.1079 529.084 L82.1079 533.019 L52.4321 533.019 L52.4321 529.084 Z" fill="#000000" fill-rule="nonzero" fill-opacity="1" /><path clip-path="url(#clip670)" d="M93.0106 541.978 L100.649 541.978 L100.649 515.612 L92.3393 517.279 L92.3393 513.019 L100.603 511.353 L105.279 511.353 L105.279 541.978 L112.918 541.978 L112.918 545.913 L93.0106 545.913 L93.0106 541.978 Z" fill="#000000" fill-rule="nonzero" fill-opacity="1" /><path clip-path="url(#clip670)" d="M122.409 511.353 L140.765 511.353 L140.765 515.288 L126.691 515.288 L126.691 523.76 Q127.71 523.413 128.728 523.251 Q129.747 523.066 130.765 523.066 Q136.552 523.066 139.932 526.237 Q143.311 529.408 143.311 534.825 Q143.311 540.404 139.839 543.505 Q136.367 546.584 130.047 546.584 Q127.872 546.584 125.603 546.214 Q123.358 545.843 120.95 545.103 L120.95 540.404 Q123.034 541.538 125.256 542.093 Q127.478 542.649 129.955 542.649 Q133.959 542.649 136.297 540.542 Q138.635 538.436 138.635 534.825 Q138.635 531.214 136.297 529.107 Q133.959 527.001 129.955 527.001 Q128.08 527.001 126.205 527.418 Q124.353 527.834 122.409 528.714 L122.409 511.353 Z" fill="#000000" fill-rule="nonzero" fill-opacity="1" /><path clip-path="url(#clip670)" d="M162.524 514.432 Q158.913 514.432 157.084 517.996 Q155.279 521.538 155.279 528.668 Q155.279 535.774 157.084 539.339 Q158.913 542.88 162.524 542.88 Q166.158 542.88 167.964 539.339 Q169.793 535.774 169.793 528.668 Q169.793 521.538 167.964 517.996 Q166.158 514.432 162.524 514.432 M162.524 510.728 Q168.334 510.728 171.39 515.334 Q174.469 519.918 174.469 528.668 Q174.469 537.394 171.39 542.001 Q168.334 546.584 162.524 546.584 Q156.714 546.584 153.635 542.001 Q150.58 537.394 150.58 528.668 Q150.58 519.918 153.635 515.334 Q156.714 510.728 162.524 510.728 Z" fill="#000000" fill-rule="nonzero" fill-opacity="1" /><path clip-path="url(#clip670)" d="M52.4321 466.757 L82.1079 466.757 L82.1079 470.692 L52.4321 470.692 L52.4321 466.757 Z" fill="#000000" fill-rule="nonzero" fill-opacity="1" /><path clip-path="url(#clip670)" d="M93.0106 479.65 L100.649 479.65 L100.649 453.285 L92.3393 454.951 L92.3393 450.692 L100.603 449.026 L105.279 449.026 L105.279 479.65 L112.918 479.65 L112.918 483.586 L93.0106 483.586 L93.0106 479.65 Z" fill="#000000" fill-rule="nonzero" fill-opacity="1" /><path clip-path="url(#clip670)" d="M132.362 452.104 Q128.751 452.104 126.922 455.669 Q125.117 459.211 125.117 466.34 Q125.117 473.447 126.922 477.011 Q128.751 480.553 132.362 480.553 Q135.996 480.553 137.802 477.011 Q139.631 473.447 139.631 466.34 Q139.631 459.211 137.802 455.669 Q135.996 452.104 132.362 452.104 M132.362 448.401 Q138.172 448.401 141.228 453.007 Q144.307 457.59 144.307 466.34 Q144.307 475.067 141.228 479.674 Q138.172 484.257 132.362 484.257 Q126.552 484.257 123.473 479.674 Q120.418 475.067 120.418 466.34 Q120.418 457.59 123.473 453.007 Q126.552 448.401 132.362 448.401 Z" fill="#000000" fill-rule="nonzero" fill-opacity="1" /><path clip-path="url(#clip670)" d="M162.524 452.104 Q158.913 452.104 157.084 455.669 Q155.279 459.211 155.279 466.34 Q155.279 473.447 157.084 477.011 Q158.913 480.553 162.524 480.553 Q166.158 480.553 167.964 477.011 Q169.793 473.447 169.793 466.34 Q169.793 459.211 167.964 455.669 Q166.158 452.104 162.524 452.104 M162.524 448.401 Q168.334 448.401 171.39 453.007 Q174.469 457.59 174.469 466.34 Q174.469 475.067 171.39 479.674 Q168.334 484.257 162.524 484.257 Q156.714 484.257 153.635 479.674 Q150.58 475.067 150.58 466.34 Q150.58 457.59 153.635 453.007 Q156.714 448.401 162.524 448.401 Z" fill="#000000" fill-rule="nonzero" fill-opacity="1" /><path clip-path="url(#clip670)" d="M82.594 404.43 L112.27 404.43 L112.27 408.365 L82.594 408.365 L82.594 404.43 Z" fill="#000000" fill-rule="nonzero" fill-opacity="1" /><path clip-path="url(#clip670)" d="M122.409 386.698 L140.765 386.698 L140.765 390.633 L126.691 390.633 L126.691 399.106 Q127.71 398.758 128.728 398.596 Q129.747 398.411 130.765 398.411 Q136.552 398.411 139.932 401.582 Q143.311 404.754 143.311 410.17 Q143.311 415.749 139.839 418.851 Q136.367 421.93 130.047 421.93 Q127.872 421.93 125.603 421.559 Q123.358 421.189 120.95 420.448 L120.95 415.749 Q123.034 416.883 125.256 417.439 Q127.478 417.994 129.955 417.994 Q133.959 417.994 136.297 415.888 Q138.635 413.781 138.635 410.17 Q138.635 406.559 136.297 404.453 Q133.959 402.346 129.955 402.346 Q128.08 402.346 126.205 402.763 Q124.353 403.18 122.409 404.059 L122.409 386.698 Z" fill="#000000" fill-rule="nonzero" fill-opacity="1" /><path clip-path="url(#clip670)" d="M162.524 389.777 Q158.913 389.777 157.084 393.342 Q155.279 396.883 155.279 404.013 Q155.279 411.119 157.084 414.684 Q158.913 418.226 162.524 418.226 Q166.158 418.226 167.964 414.684 Q169.793 411.119 169.793 404.013 Q169.793 396.883 167.964 393.342 Q166.158 389.777 162.524 389.777 M162.524 386.073 Q168.334 386.073 171.39 390.68 Q174.469 395.263 174.469 404.013 Q174.469 412.74 171.39 417.346 Q168.334 421.93 162.524 421.93 Q156.714 421.93 153.635 417.346 Q150.58 412.74 150.58 404.013 Q150.58 395.263 153.635 390.68 Q156.714 386.073 162.524 386.073 Z" fill="#000000" fill-rule="nonzero" fill-opacity="1" /><path clip-path="url(#clip670)" d="M162.524 327.45 Q158.913 327.45 157.084 331.014 Q155.279 334.556 155.279 341.686 Q155.279 348.792 157.084 352.357 Q158.913 355.899 162.524 355.899 Q166.158 355.899 167.964 352.357 Q169.793 348.792 169.793 341.686 Q169.793 334.556 167.964 331.014 Q166.158 327.45 162.524 327.45 M162.524 323.746 Q168.334 323.746 171.39 328.352 Q174.469 332.936 174.469 341.686 Q174.469 350.412 171.39 355.019 Q168.334 359.602 162.524 359.602 Q156.714 359.602 153.635 355.019 Q150.58 350.412 150.58 341.686 Q150.58 332.936 153.635 328.352 Q156.714 323.746 162.524 323.746 Z" fill="#000000" fill-rule="nonzero" fill-opacity="1" /><path clip-path="url(#clip670)" d="M122.409 262.044 L140.765 262.044 L140.765 265.979 L126.691 265.979 L126.691 274.451 Q127.71 274.104 128.728 273.942 Q129.747 273.756 130.765 273.756 Q136.552 273.756 139.932 276.928 Q143.311 280.099 143.311 285.516 Q143.311 291.094 139.839 294.196 Q136.367 297.275 130.047 297.275 Q127.872 297.275 125.603 296.905 Q123.358 296.534 120.95 295.793 L120.95 291.094 Q123.034 292.229 125.256 292.784 Q127.478 293.34 129.955 293.34 Q133.959 293.34 136.297 291.233 Q138.635 289.127 138.635 285.516 Q138.635 281.905 136.297 279.798 Q133.959 277.692 129.955 277.692 Q128.08 277.692 126.205 278.108 Q124.353 278.525 122.409 279.405 L122.409 262.044 Z" fill="#000000" fill-rule="nonzero" fill-opacity="1" /><path clip-path="url(#clip670)" d="M162.524 265.122 Q158.913 265.122 157.084 268.687 Q155.279 272.229 155.279 279.358 Q155.279 286.465 157.084 290.03 Q158.913 293.571 162.524 293.571 Q166.158 293.571 167.964 290.03 Q169.793 286.465 169.793 279.358 Q169.793 272.229 167.964 268.687 Q166.158 265.122 162.524 265.122 M162.524 261.419 Q168.334 261.419 171.39 266.025 Q174.469 270.608 174.469 279.358 Q174.469 288.085 171.39 292.692 Q168.334 297.275 162.524 297.275 Q156.714 297.275 153.635 292.692 Q150.58 288.085 150.58 279.358 Q150.58 270.608 153.635 266.025 Q156.714 261.419 162.524 261.419 Z" fill="#000000" fill-rule="nonzero" fill-opacity="1" /><path clip-path="url(#clip670)" d="M93.0106 230.341 L100.649 230.341 L100.649 203.976 L92.3393 205.642 L92.3393 201.383 L100.603 199.716 L105.279 199.716 L105.279 230.341 L112.918 230.341 L112.918 234.276 L93.0106 234.276 L93.0106 230.341 Z" fill="#000000" fill-rule="nonzero" fill-opacity="1" /><path clip-path="url(#clip670)" d="M132.362 202.795 Q128.751 202.795 126.922 206.36 Q125.117 209.901 125.117 217.031 Q125.117 224.137 126.922 227.702 Q128.751 231.244 132.362 231.244 Q135.996 231.244 137.802 227.702 Q139.631 224.137 139.631 217.031 Q139.631 209.901 137.802 206.36 Q135.996 202.795 132.362 202.795 M132.362 199.091 Q138.172 199.091 141.228 203.698 Q144.307 208.281 144.307 217.031 Q144.307 225.758 141.228 230.364 Q138.172 234.948 132.362 234.948 Q126.552 234.948 123.473 230.364 Q120.418 225.758 120.418 217.031 Q120.418 208.281 123.473 203.698 Q126.552 199.091 132.362 199.091 Z" fill="#000000" fill-rule="nonzero" fill-opacity="1" /><path clip-path="url(#clip670)" d="M162.524 202.795 Q158.913 202.795 157.084 206.36 Q155.279 209.901 155.279 217.031 Q155.279 224.137 157.084 227.702 Q158.913 231.244 162.524 231.244 Q166.158 231.244 167.964 227.702 Q169.793 224.137 169.793 217.031 Q169.793 209.901 167.964 206.36 Q166.158 202.795 162.524 202.795 M162.524 199.091 Q168.334 199.091 171.39 203.698 Q174.469 208.281 174.469 217.031 Q174.469 225.758 171.39 230.364 Q168.334 234.948 162.524 234.948 Q156.714 234.948 153.635 230.364 Q150.58 225.758 150.58 217.031 Q150.58 208.281 153.635 203.698 Q156.714 199.091 162.524 199.091 Z" fill="#000000" fill-rule="nonzero" fill-opacity="1" /><path clip-path="url(#clip670)" d="M93.0106 168.014 L100.649 168.014 L100.649 141.648 L92.3393 143.315 L92.3393 139.056 L100.603 137.389 L105.279 137.389 L105.279 168.014 L112.918 168.014 L112.918 171.949 L93.0106 171.949 L93.0106 168.014 Z" fill="#000000" fill-rule="nonzero" fill-opacity="1" /><path clip-path="url(#clip670)" d="M122.409 137.389 L140.765 137.389 L140.765 141.324 L126.691 141.324 L126.691 149.796 Q127.71 149.449 128.728 149.287 Q129.747 149.102 130.765 149.102 Q136.552 149.102 139.932 152.273 Q143.311 155.444 143.311 160.861 Q143.311 166.44 139.839 169.542 Q136.367 172.62 130.047 172.62 Q127.872 172.62 125.603 172.25 Q123.358 171.88 120.95 171.139 L120.95 166.44 Q123.034 167.574 125.256 168.13 Q127.478 168.685 129.955 168.685 Q133.959 168.685 136.297 166.579 Q138.635 164.472 138.635 160.861 Q138.635 157.25 136.297 155.144 Q133.959 153.037 129.955 153.037 Q128.08 153.037 126.205 153.454 Q124.353 153.87 122.409 154.75 L122.409 137.389 Z" fill="#000000" fill-rule="nonzero" fill-opacity="1" /><path clip-path="url(#clip670)" d="M162.524 140.468 Q158.913 140.468 157.084 144.032 Q155.279 147.574 155.279 154.704 Q155.279 161.81 157.084 165.375 Q158.913 168.917 162.524 168.917 Q166.158 168.917 167.964 165.375 Q169.793 161.81 169.793 154.704 Q169.793 147.574 167.964 144.032 Q166.158 140.468 162.524 140.468 M162.524 136.764 Q168.334 136.764 171.39 141.37 Q174.469 145.954 174.469 154.704 Q174.469 163.431 171.39 168.037 Q168.334 172.62 162.524 172.62 Q156.714 172.62 153.635 168.037 Q150.58 163.431 150.58 154.704 Q150.58 145.954 153.635 141.37 Q156.714 136.764 162.524 136.764 Z" fill="#000000" fill-rule="nonzero" fill-opacity="1" /><path clip-path="url(#clip670)" d="M958.853 18.8205 L958.853 65.8515 L968.737 65.8515 Q981.255 65.8515 987.047 60.1802 Q992.881 54.509 992.881 42.2752 Q992.881 30.1225 987.047 24.4918 Q981.255 18.8205 968.737 18.8205 L958.853 18.8205 M950.67 12.096 L967.481 12.096 Q985.062 12.096 993.286 19.4281 Q1001.51 26.7198 1001.51 42.2752 Q1001.51 57.9117 993.245 65.2439 Q984.981 72.576 967.481 72.576 L950.67 72.576 L950.67 12.096 Z" fill="#000000" fill-rule="nonzero" fill-opacity="1" /><path clip-path="url(#clip670)" d="M1014.55 12.096 L1022.74 12.096 L1022.74 65.6895 L1052.19 65.6895 L1052.19 72.576 L1014.55 72.576 L1014.55 12.096 Z" fill="#000000" fill-rule="nonzero" fill-opacity="1" /><path clip-path="url(#clip670)" d="M1123.4 14.0809 L1123.4 22.0612 Q1118.74 19.8332 1114.61 18.7395 Q1110.48 17.6457 1106.63 17.6457 Q1099.95 17.6457 1096.3 20.2383 Q1092.69 22.8309 1092.69 27.611 Q1092.69 31.6214 1095.08 33.6873 Q1097.52 35.7128 1104.24 36.9686 L1109.18 37.9813 Q1118.34 39.7232 1122.67 44.1387 Q1127.05 48.5136 1127.05 55.8863 Q1127.05 64.6767 1121.13 69.2137 Q1115.26 73.7508 1103.88 73.7508 Q1099.58 73.7508 1094.72 72.7785 Q1089.9 71.8063 1084.71 69.9024 L1084.71 61.4765 Q1089.7 64.2716 1094.48 65.6895 Q1099.26 67.1073 1103.88 67.1073 Q1110.88 67.1073 1114.69 64.3527 Q1118.5 61.598 1118.5 56.4939 Q1118.5 52.0379 1115.74 49.5264 Q1113.03 47.0148 1106.79 45.759 L1101.81 44.7868 Q1092.65 42.9639 1088.56 39.075 Q1084.47 35.1862 1084.47 28.2591 Q1084.47 20.2383 1090.1 15.6203 Q1095.77 11.0023 1105.7 11.0023 Q1109.95 11.0023 1114.37 11.7719 Q1118.78 12.5416 1123.4 14.0809 Z" fill="#000000" fill-rule="nonzero" fill-opacity="1" /><path clip-path="url(#clip670)" d="M1177.2 45.1919 L1177.2 72.576 L1169.74 72.576 L1169.74 45.4349 Q1169.74 38.994 1167.23 35.7938 Q1164.72 32.5936 1159.7 32.5936 Q1153.66 32.5936 1150.18 36.4419 Q1146.69 40.2903 1146.69 46.9338 L1146.69 72.576 L1139.2 72.576 L1139.2 9.54393 L1146.69 9.54393 L1146.69 34.2544 Q1149.37 30.163 1152.97 28.1376 Q1156.62 26.1121 1161.36 26.1121 Q1169.18 26.1121 1173.19 30.9732 Q1177.2 35.7938 1177.2 45.1919 Z" fill="#000000" fill-rule="nonzero" fill-opacity="1" /><path clip-path="url(#clip670)" d="M1230.87 48.0275 L1230.87 51.6733 L1196.6 51.6733 Q1197.09 59.3701 1201.22 63.421 Q1205.39 67.4314 1212.8 67.4314 Q1217.1 67.4314 1221.11 66.3781 Q1225.16 65.3249 1229.13 63.2184 L1229.13 70.267 Q1225.12 71.9684 1220.91 72.8596 Q1216.69 73.7508 1212.36 73.7508 Q1201.5 73.7508 1195.14 67.4314 Q1188.82 61.1119 1188.82 50.3365 Q1188.82 39.1965 1194.82 32.6746 Q1200.85 26.1121 1211.06 26.1121 Q1220.22 26.1121 1225.52 32.0264 Q1230.87 37.9003 1230.87 48.0275 M1223.42 45.84 Q1223.34 39.7232 1219.97 36.0774 Q1216.65 32.4315 1211.14 32.4315 Q1204.9 32.4315 1201.14 35.9558 Q1197.41 39.4801 1196.84 45.8805 L1223.42 45.84 Z" fill="#000000" fill-rule="nonzero" fill-opacity="1" /><path clip-path="url(#clip670)" d="M1263.72 49.7694 Q1254.69 49.7694 1251.21 51.8354 Q1247.72 53.9013 1247.72 58.8839 Q1247.72 62.8538 1250.32 65.2034 Q1252.95 67.5124 1257.45 67.5124 Q1263.64 67.5124 1267.37 63.1374 Q1271.14 58.7219 1271.14 51.4303 L1271.14 49.7694 L1263.72 49.7694 M1278.59 46.6907 L1278.59 72.576 L1271.14 72.576 L1271.14 65.6895 Q1268.59 69.8214 1264.78 71.8063 Q1260.97 73.7508 1255.46 73.7508 Q1248.49 73.7508 1244.36 69.8619 Q1240.27 65.9325 1240.27 59.3701 Q1240.27 51.7138 1245.37 47.825 Q1250.52 43.9361 1260.69 43.9361 L1271.14 43.9361 L1271.14 43.2069 Q1271.14 38.0623 1267.73 35.2672 Q1264.37 32.4315 1258.26 32.4315 Q1254.37 32.4315 1250.68 33.3632 Q1246.99 34.295 1243.59 36.1584 L1243.59 29.2718 Q1247.68 27.692 1251.53 26.9223 Q1255.38 26.1121 1259.03 26.1121 Q1268.87 26.1121 1273.73 31.2163 Q1278.59 36.3204 1278.59 46.6907 Z" fill="#000000" fill-rule="nonzero" fill-opacity="1" /><path clip-path="url(#clip670)" d="M1320.23 34.1734 Q1318.98 33.4443 1317.48 33.1202 Q1316.02 32.7556 1314.24 32.7556 Q1307.92 32.7556 1304.52 36.8875 Q1301.15 40.9789 1301.15 48.6757 L1301.15 72.576 L1293.66 72.576 L1293.66 27.2059 L1301.15 27.2059 L1301.15 34.2544 Q1303.5 30.1225 1307.27 28.1376 Q1311.04 26.1121 1316.43 26.1121 Q1317.2 26.1121 1318.13 26.2337 Q1319.06 26.3147 1320.19 26.5172 L1320.23 34.1734 Z" fill="#000000" fill-rule="nonzero" fill-opacity="1" /><path clip-path="url(#clip672)" d="M258.751 342.025 L278.676 342.897 L298.601 344.144 L318.526 345.515 L338.451 431.527 L358.376 517.539 L378.301 518.785 L398.226 520.032 L418.151 374.186 L438.076 228.34 L458.001 229.586 L477.926 230.833 L497.851 232.204 L517.776 233.451 L537.701 234.697 L557.626 235.944 L577.551 237.19 L597.476 238.437 L617.401 239.808 L637.326 241.055 L657.251 339.532 L677.176 438.134 L697.101 439.38 L717.026 440.627 L736.951 441.873 L756.877 443.12 L776.802 444.491 L796.727 445.738 L816.652 446.984 L836.577 448.231 L856.502 449.477 L876.427 450.848 L896.352 292.038 L916.277 133.228 L936.202 134.475 L956.127 135.721 L976.052 234.199 L995.977 332.8 L1015.9 334.047 L1035.83 335.294 L1055.75 336.54 L1075.68 337.787 L1095.6 339.158 L1115.53 340.404 L1135.45 341.651 L1155.38 342.897 L1175.3 344.144 L1195.23 345.515 L1215.15 346.762 L1235.08 348.008 L1255 349.255 L1274.93 350.501 L1294.85 449.103 L1314.78 547.58 L1334.7 548.827 L1354.63 550.073 L1374.55 391.263 L1394.48 232.453 L1414.4 233.825 L1434.33 235.071 L1454.25 236.318 L1474.18 237.564 L1494.1 238.811 L1514.03 240.182 L1533.95 241.429 L1553.88 242.675 L1573.8 243.922 L1593.73 245.168 L1613.65 343.77 L1633.58 442.247 L1653.5 443.494 L1673.43 444.865 L1693.35 446.111 L1713.28 447.358 L1733.2 448.605 L1753.13 449.851 L1773.05 451.098 L1792.98 452.469 L1812.9 453.715 L1832.83 454.962 L1852.75 309.116 L1872.68 163.27 L1892.6 164.517 L1912.53 165.763 L1932.45 251.775 L1952.38 337.787 L1972.3 339.158 L1992.23 340.404 L2012.15 341.277 L2012.15 341.651 L1992.23 341.651 L1972.3 341.651 L1952.38 341.651 L1932.45 341.651 L1912.53 341.651 L1892.6 341.651 L1872.68 341.651 L1852.75 341.651 L1832.83 341.651 L1812.9 341.651 L1792.98 341.651 L1773.05 341.651 L1753.13 341.651 L1733.2 341.651 L1713.28 341.651 L1693.35 341.651 L1673.43 341.651 L1653.5 341.651 L1633.58 341.651 L1613.65 341.651 L1593.73 341.651 L1573.8 341.651 L1553.88 341.651 L1533.95 341.651 L1514.03 341.651 L1494.1 341.651 L1474.18 341.651 L1454.25 341.651 L1434.33 341.651 L1414.4 341.651 L1394.48 341.651 L1374.55 341.651 L1354.63 341.651 L1334.7 341.651 L1314.78 341.651 L1294.85 341.651 L1274.93 341.651 L1255 341.651 L1235.08 341.651 L1215.15 341.651 L1195.23 341.651 L1175.3 341.651 L1155.38 341.651 L1135.45 341.651 L1115.53 341.651 L1095.6 341.651 L1075.68 341.651 L1055.75 341.651 L1035.83 341.651 L1015.9 341.651 L995.977 341.651 L976.052 341.651 L956.127 341.651 L936.202 341.651 L916.277 341.651 L896.352 341.651 L876.427 341.651 L856.502 341.651 L836.577 341.651 L816.652 341.651 L796.727 341.651 L776.802 341.651 L756.877 341.651 L736.951 341.651 L717.026 341.651 L697.101 341.651 L677.176 341.651 L657.251 341.651 L637.326 341.651 L617.401 341.651 L597.476 341.651 L577.551 341.651 L557.626 341.651 L537.701 341.651 L517.776 341.651 L497.851 341.651 L477.926 341.651 L458.001 341.651 L438.076 341.651 L418.151 341.651 L398.226 341.651 L378.301 341.651 L358.376 341.651 L338.451 341.651 L318.526 341.651 L298.601 341.651 L278.676 341.651 L258.751 341.651  Z" fill="#0000ff" fill-rule="evenodd" fill-opacity="0.5"/>
<polyline clip-path="url(#clip672)" style="stroke:#0000ff; stroke-linecap:round; stroke-linejoin:round; stroke-width:4; stroke-opacity:1; fill:none" points="258.751,342.025 278.676,342.897 298.601,344.144 318.526,345.515 338.451,431.527 358.376,517.539 378.301,518.785 398.226,520.032 418.151,374.186 438.076,228.34 458.001,229.586 477.926,230.833 497.851,232.204 517.776,233.451 537.701,234.697 557.626,235.944 577.551,237.19 597.476,238.437 617.401,239.808 637.326,241.055 657.251,339.532 677.176,438.134 697.101,439.38 717.026,440.627 736.951,441.873 756.877,443.12 776.802,444.491 796.727,445.738 816.652,446.984 836.577,448.231 856.502,449.477 876.427,450.848 896.352,292.038 916.277,133.228 936.202,134.475 956.127,135.721 976.052,234.199 995.977,332.8 1015.9,334.047 1035.83,335.294 1055.75,336.54 1075.68,337.787 1095.6,339.158 1115.53,340.404 1135.45,341.651 1155.38,342.897 1175.3,344.144 1195.23,345.515 1215.15,346.762 1235.08,348.008 1255,349.255 1274.93,350.501 1294.85,449.103 1314.78,547.58 1334.7,548.827 1354.63,550.073 1374.55,391.263 1394.48,232.453 1414.4,233.825 1434.33,235.071 1454.25,236.318 1474.18,237.564 1494.1,238.811 1514.03,240.182 1533.95,241.429 1553.88,242.675 1573.8,243.922 1593.73,245.168 1613.65,343.77 1633.58,442.247 1653.5,443.494 1673.43,444.865 1693.35,446.111 1713.28,447.358 1733.2,448.605 1753.13,449.851 1773.05,451.098 1792.98,452.469 1812.9,453.715 1832.83,454.962 1852.75,309.116 1872.68,163.27 1892.6,164.517 1912.53,165.763 1932.45,251.775 1952.38,337.787 1972.3,339.158 1992.23,340.404 2012.15,341.277 "/>
<path clip-path="url(#clip670)" d="M206.149 1234.58 L2064.76 1234.58 L2064.76 792.723 L206.149 792.723  Z" fill="#ffffff" fill-rule="evenodd" fill-opacity="1"/>
<defs>
  <clipPath id="clip673">
    <rect x="206" y="792" width="1860" height="443"/>
  </clipPath>
</defs>
<polyline clip-path="url(#clip673)" style="stroke:#000000; stroke-linecap:round; stroke-linejoin:round; stroke-width:2; stroke-opacity:0.1; fill:none" points="258.751,1234.58 258.751,792.723 "/>
<polyline clip-path="url(#clip673)" style="stroke:#000000; stroke-linecap:round; stroke-linejoin:round; stroke-width:2; stroke-opacity:0.1; fill:none" points="657.251,1234.58 657.251,792.723 "/>
<polyline clip-path="url(#clip673)" style="stroke:#000000; stroke-linecap:round; stroke-linejoin:round; stroke-width:2; stroke-opacity:0.1; fill:none" points="1055.75,1234.58 1055.75,792.723 "/>
<polyline clip-path="url(#clip673)" style="stroke:#000000; stroke-linecap:round; stroke-linejoin:round; stroke-width:2; stroke-opacity:0.1; fill:none" points="1454.25,1234.58 1454.25,792.723 "/>
<polyline clip-path="url(#clip673)" style="stroke:#000000; stroke-linecap:round; stroke-linejoin:round; stroke-width:2; stroke-opacity:0.1; fill:none" points="1852.75,1234.58 1852.75,792.723 "/>
<polyline clip-path="url(#clip673)" style="stroke:#000000; stroke-linecap:round; stroke-linejoin:round; stroke-width:2; stroke-opacity:0.1; fill:none" points="206.149,1231.63 2064.76,1231.63 "/>
<polyline clip-path="url(#clip673)" style="stroke:#000000; stroke-linecap:round; stroke-linejoin:round; stroke-width:2; stroke-opacity:0.1; fill:none" points="206.149,1150.66 2064.76,1150.66 "/>
<polyline clip-path="url(#clip673)" style="stroke:#000000; stroke-linecap:round; stroke-linejoin:round; stroke-width:2; stroke-opacity:0.1; fill:none" points="206.149,1069.68 2064.76,1069.68 "/>
<polyline clip-path="url(#clip673)" style="stroke:#000000; stroke-linecap:round; stroke-linejoin:round; stroke-width:2; stroke-opacity:0.1; fill:none" points="206.149,988.711 2064.76,988.711 "/>
<polyline clip-path="url(#clip673)" style="stroke:#000000; stroke-linecap:round; stroke-linejoin:round; stroke-width:2; stroke-opacity:0.1; fill:none" points="206.149,907.739 2064.76,907.739 "/>
<polyline clip-path="url(#clip673)" style="stroke:#000000; stroke-linecap:round; stroke-linejoin:round; stroke-width:2; stroke-opacity:0.1; fill:none" points="206.149,826.767 2064.76,826.767 "/>
<polyline clip-path="url(#clip670)" style="stroke:#000000; stroke-linecap:round; stroke-linejoin:round; stroke-width:4; stroke-opacity:1; fill:none" points="206.149,1234.58 2064.76,1234.58 "/>
<polyline clip-path="url(#clip670)" style="stroke:#000000; stroke-linecap:round; stroke-linejoin:round; stroke-width:4; stroke-opacity:1; fill:none" points="258.751,1234.58 258.751,1215.68 "/>
<polyline clip-path="url(#clip670)" style="stroke:#000000; stroke-linecap:round; stroke-linejoin:round; stroke-width:4; stroke-opacity:1; fill:none" points="657.251,1234.58 657.251,1215.68 "/>
<polyline clip-path="url(#clip670)" style="stroke:#000000; stroke-linecap:round; stroke-linejoin:round; stroke-width:4; stroke-opacity:1; fill:none" points="1055.75,1234.58 1055.75,1215.68 "/>
<polyline clip-path="url(#clip670)" style="stroke:#000000; stroke-linecap:round; stroke-linejoin:round; stroke-width:4; stroke-opacity:1; fill:none" points="1454.25,1234.58 1454.25,1215.68 "/>
<polyline clip-path="url(#clip670)" style="stroke:#000000; stroke-linecap:round; stroke-linejoin:round; stroke-width:4; stroke-opacity:1; fill:none" points="1852.75,1234.58 1852.75,1215.68 "/>
<path clip-path="url(#clip670)" d="M258.751 1263.19 Q255.14 1263.19 253.311 1266.76 Q251.505 1270.3 251.505 1277.43 Q251.505 1284.54 253.311 1288.1 Q255.14 1291.64 258.751 1291.64 Q262.385 1291.64 264.19 1288.1 Q266.019 1284.54 266.019 1277.43 Q266.019 1270.3 264.19 1266.76 Q262.385 1263.19 258.751 1263.19 M258.751 1259.49 Q264.561 1259.49 267.616 1264.1 Q270.695 1268.68 270.695 1277.43 Q270.695 1286.16 267.616 1290.76 Q264.561 1295.35 258.751 1295.35 Q252.94 1295.35 249.862 1290.76 Q246.806 1286.16 246.806 1277.43 Q246.806 1268.68 249.862 1264.1 Q252.94 1259.49 258.751 1259.49 Z" fill="#000000" fill-rule="nonzero" fill-opacity="1" /><path clip-path="url(#clip670)" d="M631.939 1290.74 L639.578 1290.74 L639.578 1264.37 L631.268 1266.04 L631.268 1261.78 L639.532 1260.11 L644.207 1260.11 L644.207 1290.74 L651.846 1290.74 L651.846 1294.67 L631.939 1294.67 L631.939 1290.74 Z" fill="#000000" fill-rule="nonzero" fill-opacity="1" /><path clip-path="url(#clip670)" d="M671.291 1263.19 Q667.68 1263.19 665.851 1266.76 Q664.045 1270.3 664.045 1277.43 Q664.045 1284.54 665.851 1288.1 Q667.68 1291.64 671.291 1291.64 Q674.925 1291.64 676.73 1288.1 Q678.559 1284.54 678.559 1277.43 Q678.559 1270.3 676.73 1266.76 Q674.925 1263.19 671.291 1263.19 M671.291 1259.49 Q677.101 1259.49 680.156 1264.1 Q683.235 1268.68 683.235 1277.43 Q683.235 1286.16 680.156 1290.76 Q677.101 1295.35 671.291 1295.35 Q665.48 1295.35 662.402 1290.76 Q659.346 1286.16 659.346 1277.43 Q659.346 1268.68 662.402 1264.1 Q665.48 1259.49 671.291 1259.49 Z" fill="#000000" fill-rule="nonzero" fill-opacity="1" /><path clip-path="url(#clip670)" d="M1034.53 1290.74 L1050.84 1290.74 L1050.84 1294.67 L1028.9 1294.67 L1028.9 1290.74 Q1031.56 1287.99 1036.15 1283.36 Q1040.75 1278.7 1041.93 1277.36 Q1044.18 1274.84 1045.06 1273.1 Q1045.96 1271.34 1045.96 1269.65 Q1045.96 1266.9 1044.02 1265.16 Q1042.09 1263.42 1038.99 1263.42 Q1036.79 1263.42 1034.34 1264.19 Q1031.91 1264.95 1029.13 1266.5 L1029.13 1261.78 Q1031.96 1260.65 1034.41 1260.07 Q1036.86 1259.49 1038.9 1259.49 Q1044.27 1259.49 1047.47 1262.17 Q1050.66 1264.86 1050.66 1269.35 Q1050.66 1271.48 1049.85 1273.4 Q1049.06 1275.3 1046.96 1277.89 Q1046.38 1278.56 1043.28 1281.78 Q1040.17 1284.98 1034.53 1290.74 Z" fill="#000000" fill-rule="nonzero" fill-opacity="1" /><path clip-path="url(#clip670)" d="M1070.66 1263.19 Q1067.05 1263.19 1065.22 1266.76 Q1063.41 1270.3 1063.41 1277.43 Q1063.41 1284.54 1065.22 1288.1 Q1067.05 1291.64 1070.66 1291.64 Q1074.29 1291.64 1076.1 1288.1 Q1077.93 1284.54 1077.93 1277.43 Q1077.93 1270.3 1076.1 1266.76 Q1074.29 1263.19 1070.66 1263.19 M1070.66 1259.49 Q1076.47 1259.49 1079.53 1264.1 Q1082.6 1268.68 1082.6 1277.43 Q1082.6 1286.16 1079.53 1290.76 Q1076.47 1295.35 1070.66 1295.35 Q1064.85 1295.35 1061.77 1290.76 Q1058.72 1286.16 1058.72 1277.43 Q1058.72 1268.68 1061.77 1264.1 Q1064.85 1259.49 1070.66 1259.49 Z" fill="#000000" fill-rule="nonzero" fill-opacity="1" /><path clip-path="url(#clip670)" d="M1443.1 1276.04 Q1446.45 1276.76 1448.33 1279.03 Q1450.23 1281.3 1450.23 1284.63 Q1450.23 1289.74 1446.71 1292.55 Q1443.19 1295.35 1436.71 1295.35 Q1434.53 1295.35 1432.22 1294.91 Q1429.92 1294.49 1427.47 1293.63 L1427.47 1289.12 Q1429.41 1290.25 1431.73 1290.83 Q1434.04 1291.41 1436.57 1291.41 Q1440.97 1291.41 1443.26 1289.67 Q1445.57 1287.94 1445.57 1284.63 Q1445.57 1281.57 1443.42 1279.86 Q1441.29 1278.12 1437.47 1278.12 L1433.44 1278.12 L1433.44 1274.28 L1437.66 1274.28 Q1441.1 1274.28 1442.93 1272.92 Q1444.76 1271.53 1444.76 1268.93 Q1444.76 1266.27 1442.86 1264.86 Q1440.99 1263.42 1437.47 1263.42 Q1435.55 1263.42 1433.35 1263.84 Q1431.15 1264.26 1428.51 1265.14 L1428.51 1260.97 Q1431.17 1260.23 1433.49 1259.86 Q1435.83 1259.49 1437.89 1259.49 Q1443.21 1259.49 1446.31 1261.92 Q1449.41 1264.33 1449.41 1268.45 Q1449.41 1271.32 1447.77 1273.31 Q1446.13 1275.28 1443.1 1276.04 Z" fill="#000000" fill-rule="nonzero" fill-opacity="1" /><path clip-path="url(#clip670)" d="M1469.09 1263.19 Q1465.48 1263.19 1463.65 1266.76 Q1461.85 1270.3 1461.85 1277.43 Q1461.85 1284.54 1463.65 1288.1 Q1465.48 1291.64 1469.09 1291.64 Q1472.72 1291.64 1474.53 1288.1 Q1476.36 1284.54 1476.36 1277.43 Q1476.36 1270.3 1474.53 1266.76 Q1472.72 1263.19 1469.09 1263.19 M1469.09 1259.49 Q1474.9 1259.49 1477.96 1264.1 Q1481.04 1268.68 1481.04 1277.43 Q1481.04 1286.16 1477.96 1290.76 Q1474.9 1295.35 1469.09 1295.35 Q1463.28 1295.35 1460.2 1290.76 Q1457.15 1286.16 1457.15 1277.43 Q1457.15 1268.68 1460.2 1264.1 Q1463.28 1259.49 1469.09 1259.49 Z" fill="#000000" fill-rule="nonzero" fill-opacity="1" /><path clip-path="url(#clip670)" d="M1840.92 1264.19 L1829.12 1282.64 L1840.92 1282.64 L1840.92 1264.19 M1839.7 1260.11 L1845.58 1260.11 L1845.58 1282.64 L1850.51 1282.64 L1850.51 1286.53 L1845.58 1286.53 L1845.58 1294.67 L1840.92 1294.67 L1840.92 1286.53 L1825.32 1286.53 L1825.32 1282.01 L1839.7 1260.11 Z" fill="#000000" fill-rule="nonzero" fill-opacity="1" /><path clip-path="url(#clip670)" d="M1868.24 1263.19 Q1864.63 1263.19 1862.8 1266.76 Q1860.99 1270.3 1860.99 1277.43 Q1860.99 1284.54 1862.8 1288.1 Q1864.63 1291.64 1868.24 1291.64 Q1871.87 1291.64 1873.68 1288.1 Q1875.51 1284.54 1875.51 1277.43 Q1875.51 1270.3 1873.68 1266.76 Q1871.87 1263.19 1868.24 1263.19 M1868.24 1259.49 Q1874.05 1259.49 1877.11 1264.1 Q1880.18 1268.68 1880.18 1277.43 Q1880.18 1286.16 1877.11 1290.76 Q1874.05 1295.35 1868.24 1295.35 Q1862.43 1295.35 1859.35 1290.76 Q1856.3 1286.16 1856.3 1277.43 Q1856.3 1268.68 1859.35 1264.1 Q1862.43 1259.49 1868.24 1259.49 Z" fill="#000000" fill-rule="nonzero" fill-opacity="1" /><polyline clip-path="url(#clip670)" style="stroke:#000000; stroke-linecap:round; stroke-linejoin:round; stroke-width:4; stroke-opacity:1; fill:none" points="206.149,1234.58 206.149,792.723 "/>
<polyline clip-path="url(#clip670)" style="stroke:#000000; stroke-linecap:round; stroke-linejoin:round; stroke-width:4; stroke-opacity:1; fill:none" points="206.149,1231.63 225.046,1231.63 "/>
<polyline clip-path="url(#clip670)" style="stroke:#000000; stroke-linecap:round; stroke-linejoin:round; stroke-width:4; stroke-opacity:1; fill:none" points="206.149,1150.66 225.046,1150.66 "/>
<polyline clip-path="url(#clip670)" style="stroke:#000000; stroke-linecap:round; stroke-linejoin:round; stroke-width:4; stroke-opacity:1; fill:none" points="206.149,1069.68 225.046,1069.68 "/>
<polyline clip-path="url(#clip670)" style="stroke:#000000; stroke-linecap:round; stroke-linejoin:round; stroke-width:4; stroke-opacity:1; fill:none" points="206.149,988.711 225.046,988.711 "/>
<polyline clip-path="url(#clip670)" style="stroke:#000000; stroke-linecap:round; stroke-linejoin:round; stroke-width:4; stroke-opacity:1; fill:none" points="206.149,907.739 225.046,907.739 "/>
<polyline clip-path="url(#clip670)" style="stroke:#000000; stroke-linecap:round; stroke-linejoin:round; stroke-width:4; stroke-opacity:1; fill:none" points="206.149,826.767 225.046,826.767 "/>
<path clip-path="url(#clip670)" d="M52.4321 1232.08 L82.1079 1232.08 L82.1079 1236.01 L52.4321 1236.01 L52.4321 1232.08 Z" fill="#000000" fill-rule="nonzero" fill-opacity="1" /><path clip-path="url(#clip670)" d="M106.367 1230.27 Q109.723 1230.99 111.598 1233.26 Q113.497 1235.53 113.497 1238.86 Q113.497 1243.98 109.978 1246.78 Q106.46 1249.58 99.9782 1249.58 Q97.8023 1249.58 95.4875 1249.14 Q93.1958 1248.72 90.7421 1247.87 L90.7421 1243.35 Q92.6865 1244.49 95.0013 1245.07 Q97.3161 1245.64 99.8393 1245.64 Q104.237 1245.64 106.529 1243.91 Q108.844 1242.17 108.844 1238.86 Q108.844 1235.81 106.691 1234.09 Q104.561 1232.36 100.742 1232.36 L96.7143 1232.36 L96.7143 1228.51 L100.927 1228.51 Q104.376 1228.51 106.205 1227.15 Q108.034 1225.76 108.034 1223.17 Q108.034 1220.51 106.136 1219.09 Q104.261 1217.66 100.742 1217.66 Q98.8208 1217.66 96.6217 1218.07 Q94.4226 1218.49 91.7838 1219.37 L91.7838 1215.2 Q94.4458 1214.46 96.7606 1214.09 Q99.0985 1213.72 101.159 1213.72 Q106.483 1213.72 109.585 1216.15 Q112.686 1218.56 112.686 1222.68 Q112.686 1225.55 111.043 1227.54 Q109.399 1229.51 106.367 1230.27 Z" fill="#000000" fill-rule="nonzero" fill-opacity="1" /><path clip-path="url(#clip670)" d="M132.362 1217.43 Q128.751 1217.43 126.922 1220.99 Q125.117 1224.53 125.117 1231.66 Q125.117 1238.77 126.922 1242.33 Q128.751 1245.88 132.362 1245.88 Q135.996 1245.88 137.802 1242.33 Q139.631 1238.77 139.631 1231.66 Q139.631 1224.53 137.802 1220.99 Q135.996 1217.43 132.362 1217.43 M132.362 1213.72 Q138.172 1213.72 141.228 1218.33 Q144.307 1222.91 144.307 1231.66 Q144.307 1240.39 141.228 1245 Q138.172 1249.58 132.362 1249.58 Q126.552 1249.58 123.473 1245 Q120.418 1240.39 120.418 1231.66 Q120.418 1222.91 123.473 1218.33 Q126.552 1213.72 132.362 1213.72 Z" fill="#000000" fill-rule="nonzero" fill-opacity="1" /><path clip-path="url(#clip670)" d="M162.524 1217.43 Q158.913 1217.43 157.084 1220.99 Q155.279 1224.53 155.279 1231.66 Q155.279 1238.77 157.084 1242.33 Q158.913 1245.88 162.524 1245.88 Q166.158 1245.88 167.964 1242.33 Q169.793 1238.77 169.793 1231.66 Q169.793 1224.53 167.964 1220.99 Q166.158 1217.43 162.524 1217.43 M162.524 1213.72 Q168.334 1213.72 171.39 1218.33 Q174.469 1222.91 174.469 1231.66 Q174.469 1240.39 171.39 1245 Q168.334 1249.58 162.524 1249.58 Q156.714 1249.58 153.635 1245 Q150.58 1240.39 150.58 1231.66 Q150.58 1222.91 153.635 1218.33 Q156.714 1213.72 162.524 1213.72 Z" fill="#000000" fill-rule="nonzero" fill-opacity="1" /><path clip-path="url(#clip670)" d="M52.4321 1151.11 L82.1079 1151.11 L82.1079 1155.04 L52.4321 1155.04 L52.4321 1151.11 Z" fill="#000000" fill-rule="nonzero" fill-opacity="1" /><path clip-path="url(#clip670)" d="M96.2282 1164 L112.548 1164 L112.548 1167.94 L90.6032 1167.94 L90.6032 1164 Q93.2652 1161.25 97.8485 1156.62 Q102.455 1151.96 103.636 1150.62 Q105.881 1148.1 106.761 1146.36 Q107.663 1144.6 107.663 1142.91 Q107.663 1140.16 105.719 1138.42 Q103.798 1136.69 100.696 1136.69 Q98.4967 1136.69 96.043 1137.45 Q93.6125 1138.21 90.8347 1139.76 L90.8347 1135.04 Q93.6588 1133.91 96.1124 1133.33 Q98.5661 1132.75 100.603 1132.75 Q105.974 1132.75 109.168 1135.44 Q112.362 1138.12 112.362 1142.61 Q112.362 1144.74 111.552 1146.66 Q110.765 1148.56 108.659 1151.15 Q108.08 1151.82 104.978 1155.04 Q101.876 1158.24 96.2282 1164 Z" fill="#000000" fill-rule="nonzero" fill-opacity="1" /><path clip-path="url(#clip670)" d="M132.362 1136.45 Q128.751 1136.45 126.922 1140.02 Q125.117 1143.56 125.117 1150.69 Q125.117 1157.8 126.922 1161.36 Q128.751 1164.9 132.362 1164.9 Q135.996 1164.9 137.802 1161.36 Q139.631 1157.8 139.631 1150.69 Q139.631 1143.56 137.802 1140.02 Q135.996 1136.45 132.362 1136.45 M132.362 1132.75 Q138.172 1132.75 141.228 1137.36 Q144.307 1141.94 144.307 1150.69 Q144.307 1159.42 141.228 1164.02 Q138.172 1168.61 132.362 1168.61 Q126.552 1168.61 123.473 1164.02 Q120.418 1159.42 120.418 1150.69 Q120.418 1141.94 123.473 1137.36 Q126.552 1132.75 132.362 1132.75 Z" fill="#000000" fill-rule="nonzero" fill-opacity="1" /><path clip-path="url(#clip670)" d="M162.524 1136.45 Q158.913 1136.45 157.084 1140.02 Q155.279 1143.56 155.279 1150.69 Q155.279 1157.8 157.084 1161.36 Q158.913 1164.9 162.524 1164.9 Q166.158 1164.9 167.964 1161.36 Q169.793 1157.8 169.793 1150.69 Q169.793 1143.56 167.964 1140.02 Q166.158 1136.45 162.524 1136.45 M162.524 1132.75 Q168.334 1132.75 171.39 1137.36 Q174.469 1141.94 174.469 1150.69 Q174.469 1159.42 171.39 1164.02 Q168.334 1168.61 162.524 1168.61 Q156.714 1168.61 153.635 1164.02 Q150.58 1159.42 150.58 1150.69 Q150.58 1141.94 153.635 1137.36 Q156.714 1132.75 162.524 1132.75 Z" fill="#000000" fill-rule="nonzero" fill-opacity="1" /><path clip-path="url(#clip670)" d="M52.4321 1070.14 L82.1079 1070.14 L82.1079 1074.07 L52.4321 1074.07 L52.4321 1070.14 Z" fill="#000000" fill-rule="nonzero" fill-opacity="1" /><path clip-path="url(#clip670)" d="M93.0106 1083.03 L100.649 1083.03 L100.649 1056.66 L92.3393 1058.33 L92.3393 1054.07 L100.603 1052.4 L105.279 1052.4 L105.279 1083.03 L112.918 1083.03 L112.918 1086.96 L93.0106 1086.96 L93.0106 1083.03 Z" fill="#000000" fill-rule="nonzero" fill-opacity="1" /><path clip-path="url(#clip670)" d="M132.362 1055.48 Q128.751 1055.48 126.922 1059.05 Q125.117 1062.59 125.117 1069.72 Q125.117 1076.82 126.922 1080.39 Q128.751 1083.93 132.362 1083.93 Q135.996 1083.93 137.802 1080.39 Q139.631 1076.82 139.631 1069.72 Q139.631 1062.59 137.802 1059.05 Q135.996 1055.48 132.362 1055.48 M132.362 1051.78 Q138.172 1051.78 141.228 1056.39 Q144.307 1060.97 144.307 1069.72 Q144.307 1078.45 141.228 1083.05 Q138.172 1087.63 132.362 1087.63 Q126.552 1087.63 123.473 1083.05 Q120.418 1078.45 120.418 1069.72 Q120.418 1060.97 123.473 1056.39 Q126.552 1051.78 132.362 1051.78 Z" fill="#000000" fill-rule="nonzero" fill-opacity="1" /><path clip-path="url(#clip670)" d="M162.524 1055.48 Q158.913 1055.48 157.084 1059.05 Q155.279 1062.59 155.279 1069.72 Q155.279 1076.82 157.084 1080.39 Q158.913 1083.93 162.524 1083.93 Q166.158 1083.93 167.964 1080.39 Q169.793 1076.82 169.793 1069.72 Q169.793 1062.59 167.964 1059.05 Q166.158 1055.48 162.524 1055.48 M162.524 1051.78 Q168.334 1051.78 171.39 1056.39 Q174.469 1060.97 174.469 1069.72 Q174.469 1078.45 171.39 1083.05 Q168.334 1087.63 162.524 1087.63 Q156.714 1087.63 153.635 1083.05 Q150.58 1078.45 150.58 1069.72 Q150.58 1060.97 153.635 1056.39 Q156.714 1051.78 162.524 1051.78 Z" fill="#000000" fill-rule="nonzero" fill-opacity="1" /><path clip-path="url(#clip670)" d="M162.524 974.51 Q158.913 974.51 157.084 978.075 Q155.279 981.617 155.279 988.746 Q155.279 995.853 157.084 999.417 Q158.913 1002.96 162.524 1002.96 Q166.158 1002.96 167.964 999.417 Q169.793 995.853 169.793 988.746 Q169.793 981.617 167.964 978.075 Q166.158 974.51 162.524 974.51 M162.524 970.806 Q168.334 970.806 171.39 975.413 Q174.469 979.996 174.469 988.746 Q174.469 997.473 171.39 1002.08 Q168.334 1006.66 162.524 1006.66 Q156.714 1006.66 153.635 1002.08 Q150.58 997.473 150.58 988.746 Q150.58 979.996 153.635 975.413 Q156.714 970.806 162.524 970.806 Z" fill="#000000" fill-rule="nonzero" fill-opacity="1" /><path clip-path="url(#clip670)" d="M93.0106 921.084 L100.649 921.084 L100.649 894.718 L92.3393 896.385 L92.3393 892.126 L100.603 890.459 L105.279 890.459 L105.279 921.084 L112.918 921.084 L112.918 925.019 L93.0106 925.019 L93.0106 921.084 Z" fill="#000000" fill-rule="nonzero" fill-opacity="1" /><path clip-path="url(#clip670)" d="M132.362 893.538 Q128.751 893.538 126.922 897.103 Q125.117 900.644 125.117 907.774 Q125.117 914.88 126.922 918.445 Q128.751 921.987 132.362 921.987 Q135.996 921.987 137.802 918.445 Q139.631 914.88 139.631 907.774 Q139.631 900.644 137.802 897.103 Q135.996 893.538 132.362 893.538 M132.362 889.834 Q138.172 889.834 141.228 894.441 Q144.307 899.024 144.307 907.774 Q144.307 916.501 141.228 921.107 Q138.172 925.691 132.362 925.691 Q126.552 925.691 123.473 921.107 Q120.418 916.501 120.418 907.774 Q120.418 899.024 123.473 894.441 Q126.552 889.834 132.362 889.834 Z" fill="#000000" fill-rule="nonzero" fill-opacity="1" /><path clip-path="url(#clip670)" d="M162.524 893.538 Q158.913 893.538 157.084 897.103 Q155.279 900.644 155.279 907.774 Q155.279 914.88 157.084 918.445 Q158.913 921.987 162.524 921.987 Q166.158 921.987 167.964 918.445 Q169.793 914.88 169.793 907.774 Q169.793 900.644 167.964 897.103 Q166.158 893.538 162.524 893.538 M162.524 889.834 Q168.334 889.834 171.39 894.441 Q174.469 899.024 174.469 907.774 Q174.469 916.501 171.39 921.107 Q168.334 925.691 162.524 925.691 Q156.714 925.691 153.635 921.107 Q150.58 916.501 150.58 907.774 Q150.58 899.024 153.635 894.441 Q156.714 889.834 162.524 889.834 Z" fill="#000000" fill-rule="nonzero" fill-opacity="1" /><path clip-path="url(#clip670)" d="M96.2282 840.112 L112.548 840.112 L112.548 844.047 L90.6032 844.047 L90.6032 840.112 Q93.2652 837.357 97.8485 832.728 Q102.455 828.075 103.636 826.732 Q105.881 824.209 106.761 822.473 Q107.663 820.714 107.663 819.024 Q107.663 816.269 105.719 814.533 Q103.798 812.797 100.696 812.797 Q98.4967 812.797 96.043 813.561 Q93.6125 814.325 90.8347 815.876 L90.8347 811.154 Q93.6588 810.019 96.1124 809.441 Q98.5661 808.862 100.603 808.862 Q105.974 808.862 109.168 811.547 Q112.362 814.232 112.362 818.723 Q112.362 820.853 111.552 822.774 Q110.765 824.672 108.659 827.265 Q108.08 827.936 104.978 831.154 Q101.876 834.348 96.2282 840.112 Z" fill="#000000" fill-rule="nonzero" fill-opacity="1" /><path clip-path="url(#clip670)" d="M132.362 812.566 Q128.751 812.566 126.922 816.13 Q125.117 819.672 125.117 826.802 Q125.117 833.908 126.922 837.473 Q128.751 841.015 132.362 841.015 Q135.996 841.015 137.802 837.473 Q139.631 833.908 139.631 826.802 Q139.631 819.672 137.802 816.13 Q135.996 812.566 132.362 812.566 M132.362 808.862 Q138.172 808.862 141.228 813.468 Q144.307 818.052 144.307 826.802 Q144.307 835.529 141.228 840.135 Q138.172 844.718 132.362 844.718 Q126.552 844.718 123.473 840.135 Q120.418 835.529 120.418 826.802 Q120.418 818.052 123.473 813.468 Q126.552 808.862 132.362 808.862 Z" fill="#000000" fill-rule="nonzero" fill-opacity="1" /><path clip-path="url(#clip670)" d="M162.524 812.566 Q158.913 812.566 157.084 816.13 Q155.279 819.672 155.279 826.802 Q155.279 833.908 157.084 837.473 Q158.913 841.015 162.524 841.015 Q166.158 841.015 167.964 837.473 Q169.793 833.908 169.793 826.802 Q169.793 819.672 167.964 816.13 Q166.158 812.566 162.524 812.566 M162.524 808.862 Q168.334 808.862 171.39 813.468 Q174.469 818.052 174.469 826.802 Q174.469 835.529 171.39 840.135 Q168.334 844.718 162.524 844.718 Q156.714 844.718 153.635 840.135 Q150.58 835.529 150.58 826.802 Q150.58 818.052 153.635 813.468 Q156.714 808.862 162.524 808.862 Z" fill="#000000" fill-rule="nonzero" fill-opacity="1" /><path clip-path="url(#clip670)" d="M910.809 690.821 L910.809 737.851 L920.694 737.851 Q933.211 737.851 939.004 732.18 Q944.837 726.509 944.837 714.275 Q944.837 702.123 939.004 696.492 Q933.211 690.821 920.694 690.821 L910.809 690.821 M902.626 684.096 L919.438 684.096 Q937.019 684.096 945.242 691.428 Q953.465 698.72 953.465 714.275 Q953.465 729.912 945.201 737.244 Q936.938 744.576 919.438 744.576 L902.626 744.576 L902.626 684.096 Z" fill="#000000" fill-rule="nonzero" fill-opacity="1" /><path clip-path="url(#clip670)" d="M966.509 684.096 L974.692 684.096 L974.692 737.689 L1004.14 737.689 L1004.14 744.576 L966.509 744.576 L966.509 684.096 Z" fill="#000000" fill-rule="nonzero" fill-opacity="1" /><path clip-path="url(#clip670)" d="M1039.1 684.096 L1051.29 684.096 L1066.73 725.253 L1082.24 684.096 L1094.44 684.096 L1094.44 744.576 L1086.46 744.576 L1086.46 691.469 L1070.86 732.95 L1062.64 732.95 L1047.04 691.469 L1047.04 744.576 L1039.1 744.576 L1039.1 684.096 Z" fill="#000000" fill-rule="nonzero" fill-opacity="1" /><path clip-path="url(#clip670)" d="M1127.94 704.432 Q1121.94 704.432 1118.46 709.131 Q1114.97 713.789 1114.97 721.931 Q1114.97 730.074 1118.42 734.773 Q1121.9 739.431 1127.94 739.431 Q1133.89 739.431 1137.38 734.732 Q1140.86 730.033 1140.86 721.931 Q1140.86 713.87 1137.38 709.171 Q1133.89 704.432 1127.94 704.432 M1127.94 698.112 Q1137.66 698.112 1143.21 704.432 Q1148.76 710.751 1148.76 721.931 Q1148.76 733.071 1143.21 739.431 Q1137.66 745.751 1127.94 745.751 Q1118.18 745.751 1112.63 739.431 Q1107.12 733.071 1107.12 721.931 Q1107.12 710.751 1112.63 704.432 Q1118.18 698.112 1127.94 698.112 Z" fill="#000000" fill-rule="nonzero" fill-opacity="1" /><path clip-path="url(#clip670)" d="M1196.44 707.915 Q1199.23 702.892 1203.12 700.502 Q1207.01 698.112 1212.28 698.112 Q1219.37 698.112 1223.22 703.095 Q1227.06 708.037 1227.06 717.192 L1227.06 744.576 L1219.57 744.576 L1219.57 717.435 Q1219.57 710.913 1217.26 707.753 Q1214.95 704.594 1210.21 704.594 Q1204.42 704.594 1201.06 708.442 Q1197.69 712.29 1197.69 718.934 L1197.69 744.576 L1190.2 744.576 L1190.2 717.435 Q1190.2 710.872 1187.89 707.753 Q1185.58 704.594 1180.76 704.594 Q1175.05 704.594 1171.69 708.482 Q1168.33 712.331 1168.33 718.934 L1168.33 744.576 L1160.83 744.576 L1160.83 699.206 L1168.33 699.206 L1168.33 706.254 Q1170.88 702.082 1174.44 700.097 Q1178.01 698.112 1182.91 698.112 Q1187.85 698.112 1191.29 700.624 Q1194.78 703.135 1196.44 707.915 Z" fill="#000000" fill-rule="nonzero" fill-opacity="1" /><path clip-path="url(#clip670)" d="M1280.74 720.028 L1280.74 723.673 L1246.47 723.673 Q1246.95 731.37 1251.09 735.421 Q1255.26 739.431 1262.67 739.431 Q1266.96 739.431 1270.98 738.378 Q1275.03 737.325 1279 735.218 L1279 742.267 Q1274.99 743.968 1270.77 744.86 Q1266.56 745.751 1262.23 745.751 Q1251.37 745.751 1245.01 739.431 Q1238.69 733.112 1238.69 722.337 Q1238.69 711.197 1244.68 704.675 Q1250.72 698.112 1260.93 698.112 Q1270.08 698.112 1275.39 704.026 Q1280.74 709.9 1280.74 720.028 M1273.28 717.84 Q1273.2 711.723 1269.84 708.077 Q1266.52 704.432 1261.01 704.432 Q1254.77 704.432 1251 707.956 Q1247.28 711.48 1246.71 717.881 L1273.28 717.84 Z" fill="#000000" fill-rule="nonzero" fill-opacity="1" /><path clip-path="url(#clip670)" d="M1330.69 717.192 L1330.69 744.576 L1323.23 744.576 L1323.23 717.435 Q1323.23 710.994 1320.72 707.794 Q1318.21 704.594 1313.19 704.594 Q1307.15 704.594 1303.67 708.442 Q1300.18 712.29 1300.18 718.934 L1300.18 744.576 L1292.69 744.576 L1292.69 699.206 L1300.18 699.206 L1300.18 706.254 Q1302.86 702.163 1306.46 700.138 Q1310.11 698.112 1314.85 698.112 Q1322.66 698.112 1326.68 702.973 Q1330.69 707.794 1330.69 717.192 Z" fill="#000000" fill-rule="nonzero" fill-opacity="1" /><path clip-path="url(#clip670)" d="M1352.93 686.324 L1352.93 699.206 L1368.28 699.206 L1368.28 704.999 L1352.93 704.999 L1352.93 729.628 Q1352.93 735.178 1354.42 736.758 Q1355.96 738.338 1360.62 738.338 L1368.28 738.338 L1368.28 744.576 L1360.62 744.576 Q1351.99 744.576 1348.71 741.376 Q1345.43 738.135 1345.43 729.628 L1345.43 704.999 L1339.96 704.999 L1339.96 699.206 L1345.43 699.206 L1345.43 686.324 L1352.93 686.324 Z" fill="#000000" fill-rule="nonzero" fill-opacity="1" /><path clip-path="url(#clip673)" d="M258.751 988.711 L278.676 988.954 L298.601 989.521 L318.526 990.574 L338.451 992.031 L358.376 1048.87 L378.301 1106.2 L398.226 1163.94 L418.151 1222.07 L438.076 1185.07 L458.001 1148.47 L477.926 1112.28 L497.851 1076.57 L517.776 1041.18 L537.701 1006.2 L557.626 971.707 L577.551 937.537 L597.476 903.853 L617.401 870.573 L637.326 837.698 L657.251 805.228 L677.176 836.322 L697.101 867.82 L717.026 899.804 L736.951 932.112 L756.877 964.906 L776.802 998.104 L796.727 1031.71 L816.652 1065.72 L836.577 1100.13 L856.502 1134.95 L876.427 1170.17 L896.352 1205.8 L916.277 1137.94 L936.202 1070.41 L956.127 1003.29 L976.052 936.646 L995.977 933.569 L1015.9 930.816 L1035.83 928.549 L1055.75 926.687 L1075.68 925.31 L1095.6 924.258 L1115.53 923.61 L1135.45 923.448 L1155.38 923.61 L1175.3 924.258 L1195.23 925.31 L1215.15 926.687 L1235.08 928.549 L1255 930.816 L1274.93 933.569 L1294.85 936.646 L1314.78 1003.29 L1334.7 1070.41 L1354.63 1137.94 L1374.55 1205.8 L1394.48 1170.17 L1414.4 1134.95 L1434.33 1100.13 L1454.25 1065.72 L1474.18 1031.71 L1494.1 998.104 L1514.03 964.906 L1533.95 932.112 L1553.88 899.804 L1573.8 867.82 L1593.73 836.322 L1613.65 805.228 L1633.58 837.698 L1653.5 870.573 L1673.43 903.853 L1693.35 937.537 L1713.28 971.707 L1733.2 1006.2 L1753.13 1041.18 L1773.05 1076.57 L1792.98 1112.28 L1812.9 1148.47 L1832.83 1185.07 L1852.75 1222.07 L1872.68 1163.94 L1892.6 1106.2 L1912.53 1048.87 L1932.45 992.031 L1952.38 990.574 L1972.3 989.521 L1992.23 988.954 L2012.15 988.711 L2012.15 988.711 L1992.23 988.711 L1972.3 988.711 L1952.38 988.711 L1932.45 988.711 L1912.53 988.711 L1892.6 988.711 L1872.68 988.711 L1852.75 988.711 L1832.83 988.711 L1812.9 988.711 L1792.98 988.711 L1773.05 988.711 L1753.13 988.711 L1733.2 988.711 L1713.28 988.711 L1693.35 988.711 L1673.43 988.711 L1653.5 988.711 L1633.58 988.711 L1613.65 988.711 L1593.73 988.711 L1573.8 988.711 L1553.88 988.711 L1533.95 988.711 L1514.03 988.711 L1494.1 988.711 L1474.18 988.711 L1454.25 988.711 L1434.33 988.711 L1414.4 988.711 L1394.48 988.711 L1374.55 988.711 L1354.63 988.711 L1334.7 988.711 L1314.78 988.711 L1294.85 988.711 L1274.93 988.711 L1255 988.711 L1235.08 988.711 L1215.15 988.711 L1195.23 988.711 L1175.3 988.711 L1155.38 988.711 L1135.45 988.711 L1115.53 988.711 L1095.6 988.711 L1075.68 988.711 L1055.75 988.711 L1035.83 988.711 L1015.9 988.711 L995.977 988.711 L976.052 988.711 L956.127 988.711 L936.202 988.711 L916.277 988.711 L896.352 988.711 L876.427 988.711 L856.502 988.711 L836.577 988.711 L816.652 988.711 L796.727 988.711 L776.802 988.711 L756.877 988.711 L736.951 988.711 L717.026 988.711 L697.101 988.711 L677.176 988.711 L657.251 988.711 L637.326 988.711 L617.401 988.711 L597.476 988.711 L577.551 988.711 L557.626 988.711 L537.701 988.711 L517.776 988.711 L497.851 988.711 L477.926 988.711 L458.001 988.711 L438.076 988.711 L418.151 988.711 L398.226 988.711 L378.301 988.711 L358.376 988.711 L338.451 988.711 L318.526 988.711 L298.601 988.711 L278.676 988.711 L258.751 988.711  Z" fill="#0000ff" fill-rule="evenodd" fill-opacity="0.5"/>
<polyline clip-path="url(#clip673)" style="stroke:#0000ff; stroke-linecap:round; stroke-linejoin:round; stroke-width:4; stroke-opacity:1; fill:none" points="258.751,988.711 278.676,988.954 298.601,989.521 318.526,990.574 338.451,992.031 358.376,1048.87 378.301,1106.2 398.226,1163.94 418.151,1222.07 438.076,1185.07 458.001,1148.47 477.926,1112.28 497.851,1076.57 517.776,1041.18 537.701,1006.2 557.626,971.707 577.551,937.537 597.476,903.853 617.401,870.573 637.326,837.698 657.251,805.228 677.176,836.322 697.101,867.82 717.026,899.804 736.951,932.112 756.877,964.906 776.802,998.104 796.727,1031.71 816.652,1065.72 836.577,1100.13 856.502,1134.95 876.427,1170.17 896.352,1205.8 916.277,1137.94 936.202,1070.41 956.127,1003.29 976.052,936.646 995.977,933.569 1015.9,930.816 1035.83,928.549 1055.75,926.687 1075.68,925.31 1095.6,924.258 1115.53,923.61 1135.45,923.448 1155.38,923.61 1175.3,924.258 1195.23,925.31 1215.15,926.687 1235.08,928.549 1255,930.816 1274.93,933.569 1294.85,936.646 1314.78,1003.29 1334.7,1070.41 1354.63,1137.94 1374.55,1205.8 1394.48,1170.17 1414.4,1134.95 1434.33,1100.13 1454.25,1065.72 1474.18,1031.71 1494.1,998.104 1514.03,964.906 1533.95,932.112 1553.88,899.804 1573.8,867.82 1593.73,836.322 1613.65,805.228 1633.58,837.698 1653.5,870.573 1673.43,903.853 1693.35,937.537 1713.28,971.707 1733.2,1006.2 1753.13,1041.18 1773.05,1076.57 1792.98,1112.28 1812.9,1148.47 1832.83,1185.07 1852.75,1222.07 1872.68,1163.94 1892.6,1106.2 1912.53,1048.87 1932.45,992.031 1952.38,990.574 1972.3,989.521 1992.23,988.954 2012.15,988.711 "/>
</svg>
