<?xml version="1.0" encoding="utf-8"?>
<svg xmlns="http://www.w3.org/2000/svg" xmlns:xlink="http://www.w3.org/1999/xlink" width="528" height="336" viewBox="0 0 2112 1344">
<defs>
  <clipPath id="clip850">
    <rect x="0" y="0" width="2112" height="1344"/>
  </clipPath>
</defs>
<path clip-path="url(#clip850)" d="M0 1344 L2112 1344 L2112 0 L0 0  Z" fill="#ffffff" fill-rule="evenodd" fill-opacity="1"/>
<defs>
  <clipPath id="clip851">
    <rect x="422" y="0" width="1479" height="1344"/>
  </clipPath>
</defs>
<path clip-path="url(#clip850)" d="M206.149 562.579 L2064.76 562.579 L2064.76 120.723 L206.149 120.723  Z" fill="#ffffff" fill-rule="evenodd" fill-opacity="1"/>
<defs>
  <clipPath id="clip852">
    <rect x="206" y="120" width="1860" height="443"/>
  </clipPath>
</defs>
<polyline clip-path="url(#clip852)" style="stroke:#000000; stroke-linecap:round; stroke-linejoin:round; stroke-width:2; stroke-opacity:0.1; fill:none" points="258.751,562.579 258.751,120.723 "/>
<polyline clip-path="url(#clip852)" style="stroke:#000000; stroke-linecap:round; stroke-linejoin:round; stroke-width:2; stroke-opacity:0.1; fill:none" points="657.251,562.579 657.251,120.723 "/>
<polyline clip-path="url(#clip852)" style="stroke:#000000; stroke-linecap:round; stroke-linejoin:round; stroke-width:2; stroke-opacity:0.1; fill:none" points="1055.75,562.579 1055.75,120.723 "/>
<polyline clip-path="url(#clip852)" style="stroke:#000000; stroke-linecap:round; stroke-linejoin:round; stroke-width:2; stroke-opacity:0.1; fill:none" points="1454.25,562.579 1454.25,120.723 "/>
<polyline clip-path="url(#clip852)" style="stroke:#000000; stroke-linecap:round; stroke-linejoin:round; stroke-width:2; stroke-opacity:0.1; fill:none" points="1852.75,562.579 1852.75,120.723 "/>
<polyline clip-path="url(#clip852)" style="stroke:#000000; stroke-linecap:round; stroke-linejoin:round; stroke-width:2; stroke-opacity:0.1; fill:none" points="206.149,528.64 2064.76,528.64 "/>
<polyline clip-path="url(#clip852)" style="stroke:#000000; stroke-linecap:round; stroke-linejoin:round; stroke-width:2; stroke-opacity:0.1; fill:none" points="206.149,466.521 2064.76,466.521 "/>
<polyline clip-path="url(#clip852)" style="stroke:#000000; stroke-linecap:round; stroke-linejoin:round; stroke-width:2; stroke-opacity:0.1; fill:none" points="206.149,404.403 2064.76,404.403 "/>
<polyline clip-path="url(#clip852)" style="stroke:#000000; stroke-linecap:round; stroke-linejoin:round; stroke-width:2; stroke-opacity:0.1; fill:none" points="206.149,342.284 2064.76,342.284 "/>
<polyline clip-path="url(#clip852)" style="stroke:#000000; stroke-linecap:round; stroke-linejoin:round; stroke-width:2; stroke-opacity:0.1; fill:none" points="206.149,280.165 2064.76,280.165 "/>
<polyline clip-path="url(#clip852)" style="stroke:#000000; stroke-linecap:round; stroke-linejoin:round; stroke-width:2; stroke-opacity:0.1; fill:none" points="206.149,218.046 2064.76,218.046 "/>
<polyline clip-path="url(#clip852)" style="stroke:#000000; stroke-linecap:round; stroke-linejoin:round; stroke-width:2; stroke-opacity:0.1; fill:none" points="206.149,155.927 2064.76,155.927 "/>
<polyline clip-path="url(#clip850)" style="stroke:#000000; stroke-linecap:round; stroke-linejoin:round; stroke-width:4; stroke-opacity:1; fill:none" points="206.149,562.579 2064.76,562.579 "/>
<polyline clip-path="url(#clip850)" style="stroke:#000000; stroke-linecap:round; stroke-linejoin:round; stroke-width:4; stroke-opacity:1; fill:none" points="258.751,562.579 258.751,543.681 "/>
<polyline clip-path="url(#clip850)" style="stroke:#000000; stroke-linecap:round; stroke-linejoin:round; stroke-width:4; stroke-opacity:1; fill:none" points="657.251,562.579 657.251,543.681 "/>
<polyline clip-path="url(#clip850)" style="stroke:#000000; stroke-linecap:round; stroke-linejoin:round; stroke-width:4; stroke-opacity:1; fill:none" points="1055.75,562.579 1055.75,543.681 "/>
<polyline clip-path="url(#clip850)" style="stroke:#000000; stroke-linecap:round; stroke-linejoin:round; stroke-width:4; stroke-opacity:1; fill:none" points="1454.25,562.579 1454.25,543.681 "/>
<polyline clip-path="url(#clip850)" style="stroke:#000000; stroke-linecap:round; stroke-linejoin:round; stroke-width:4; stroke-opacity:1; fill:none" points="1852.75,562.579 1852.75,543.681 "/>
<path clip-path="url(#clip850)" d="M258.751 591.193 Q255.14 591.193 253.311 594.758 Q251.505 598.3 251.505 605.43 Q251.505 612.536 253.311 616.101 Q255.14 619.642 258.751 619.642 Q262.385 619.642 264.19 616.101 Q266.019 612.536 266.019 605.43 Q266.019 598.3 264.19 594.758 Q262.385 591.193 258.751 591.193 M258.751 587.49 Q264.561 587.49 267.616 592.096 Q270.695 596.68 270.695 605.43 Q270.695 614.156 267.616 618.763 Q264.561 623.346 258.751 623.346 Q252.94 623.346 249.862 618.763 Q246.806 614.156 246.806 605.43 Q246.806 596.68 249.862 592.096 Q252.94 587.49 258.751 587.49 Z" fill="#000000" fill-rule="nonzero" fill-opacity="1" /><path clip-path="url(#clip850)" d="M631.939 618.74 L639.578 618.74 L639.578 592.374 L631.268 594.041 L631.268 589.781 L639.532 588.115 L644.207 588.115 L644.207 618.74 L651.846 618.74 L651.846 622.675 L631.939 622.675 L631.939 618.74 Z" fill="#000000" fill-rule="nonzero" fill-opacity="1" /><path clip-path="url(#clip850)" d="M671.291 591.193 Q667.68 591.193 665.851 594.758 Q664.045 598.3 664.045 605.43 Q664.045 612.536 665.851 616.101 Q667.68 619.642 671.291 619.642 Q674.925 619.642 676.73 616.101 Q678.559 612.536 678.559 605.43 Q678.559 598.3 676.73 594.758 Q674.925 591.193 671.291 591.193 M671.291 587.49 Q677.101 587.49 680.156 592.096 Q683.235 596.68 683.235 605.43 Q683.235 614.156 680.156 618.763 Q677.101 623.346 671.291 623.346 Q665.48 623.346 662.402 618.763 Q659.346 614.156 659.346 605.43 Q659.346 596.68 662.402 592.096 Q665.48 587.49 671.291 587.49 Z" fill="#000000" fill-rule="nonzero" fill-opacity="1" /><path clip-path="url(#clip850)" d="M1034.53 618.74 L1050.84 618.74 L1050.84 622.675 L1028.9 622.675 L1028.9 618.74 Q1031.56 615.985 1036.15 611.355 Q1040.75 606.703 1041.93 605.36 Q1044.18 602.837 1045.06 601.101 Q1045.96 599.342 1045.96 597.652 Q1045.96 594.897 1044.02 593.161 Q1042.09 591.425 1038.99 591.425 Q1036.79 591.425 1034.34 592.189 Q1031.91 592.953 1029.13 594.504 L1029.13 589.781 Q1031.96 588.647 1034.41 588.068 Q1036.86 587.49 1038.9 587.49 Q1044.27 587.49 1047.47 590.175 Q1050.66 592.86 1050.66 597.351 Q1050.66 599.48 1049.85 601.402 Q1049.06 603.3 1046.96 605.892 Q1046.38 606.564 1043.28 609.781 Q1040.17 612.976 1034.53 618.74 Z" fill="#000000" fill-rule="nonzero" fill-opacity="1" /><path clip-path="url(#clip850)" d="M1070.66 591.193 Q1067.05 591.193 1065.22 594.758 Q1063.41 598.3 1063.41 605.43 Q1063.41 612.536 1065.22 616.101 Q1067.05 619.642 1070.66 619.642 Q1074.29 619.642 1076.1 616.101 Q1077.93 612.536 1077.93 605.43 Q1077.93 598.3 1076.1 594.758 Q1074.29 591.193 1070.66 591.193 M1070.66 587.49 Q1076.47 587.49 1079.53 592.096 Q1082.6 596.68 1082.6 605.43 Q1082.6 614.156 1079.53 618.763 Q1076.47 623.346 1070.66 623.346 Q1064.85 623.346 1061.77 618.763 Q1058.72 614.156 1058.72 605.43 Q1058.72 596.68 1061.77 592.096 Q1064.85 587.49 1070.66 587.49 Z" fill="#000000" fill-rule="nonzero" fill-opacity="1" /><path clip-path="url(#clip850)" d="M1443.1 604.041 Q1446.45 604.758 1448.33 607.027 Q1450.23 609.295 1450.23 612.629 Q1450.23 617.744 1446.71 620.545 Q1443.19 623.346 1436.71 623.346 Q1434.53 623.346 1432.22 622.906 Q1429.92 622.49 1427.47 621.633 L1427.47 617.119 Q1429.41 618.254 1431.73 618.832 Q1434.04 619.411 1436.57 619.411 Q1440.97 619.411 1443.26 617.675 Q1445.57 615.939 1445.57 612.629 Q1445.57 609.573 1443.42 607.86 Q1441.29 606.124 1437.47 606.124 L1433.44 606.124 L1433.44 602.281 L1437.66 602.281 Q1441.1 602.281 1442.93 600.916 Q1444.76 599.527 1444.76 596.934 Q1444.76 594.272 1442.86 592.86 Q1440.99 591.425 1437.47 591.425 Q1435.55 591.425 1433.35 591.842 Q1431.15 592.258 1428.51 593.138 L1428.51 588.971 Q1431.17 588.231 1433.49 587.86 Q1435.83 587.49 1437.89 587.49 Q1443.21 587.49 1446.31 589.92 Q1449.41 592.328 1449.41 596.448 Q1449.41 599.318 1447.77 601.309 Q1446.13 603.277 1443.1 604.041 Z" fill="#000000" fill-rule="nonzero" fill-opacity="1" /><path clip-path="url(#clip850)" d="M1469.09 591.193 Q1465.48 591.193 1463.65 594.758 Q1461.85 598.3 1461.85 605.43 Q1461.85 612.536 1463.65 616.101 Q1465.48 619.642 1469.09 619.642 Q1472.72 619.642 1474.53 616.101 Q1476.36 612.536 1476.36 605.43 Q1476.36 598.3 1474.53 594.758 Q1472.72 591.193 1469.09 591.193 M1469.09 587.49 Q1474.9 587.49 1477.96 592.096 Q1481.04 596.68 1481.04 605.43 Q1481.04 614.156 1477.96 618.763 Q1474.9 623.346 1469.09 623.346 Q1463.28 623.346 1460.2 618.763 Q1457.15 614.156 1457.15 605.43 Q1457.15 596.68 1460.2 592.096 Q1463.28 587.49 1469.09 587.49 Z" fill="#000000" fill-rule="nonzero" fill-opacity="1" /><path clip-path="url(#clip850)" d="M1840.92 592.189 L1829.12 610.638 L1840.92 610.638 L1840.92 592.189 M1839.7 588.115 L1845.58 588.115 L1845.58 610.638 L1850.51 610.638 L1850.51 614.527 L1845.58 614.527 L1845.58 622.675 L1840.92 622.675 L1840.92 614.527 L1825.32 614.527 L1825.32 610.013 L1839.7 588.115 Z" fill="#000000" fill-rule="nonzero" fill-opacity="1" /><path clip-path="url(#clip850)" d="M1868.24 591.193 Q1864.63 591.193 1862.8 594.758 Q1860.99 598.3 1860.99 605.43 Q1860.99 612.536 1862.8 616.101 Q1864.63 619.642 1868.24 619.642 Q1871.87 619.642 1873.68 616.101 Q1875.51 612.536 1875.51 605.43 Q1875.51 598.3 1873.68 594.758 Q1871.87 591.193 1868.24 591.193 M1868.24 587.49 Q1874.05 587.49 1877.11 592.096 Q1880.18 596.68 1880.18 605.43 Q1880.18 614.156 1877.11 618.763 Q1874.05 623.346 1868.24 623.346 Q1862.43 623.346 1859.35 618.763 Q1856.3 614.156 1856.3 605.43 Q1856.3 596.68 1859.35 592.096 Q1862.43 587.49 1868.24 587.49 Z" fill="#000000" fill-rule="nonzero" fill-opacity="1" /><polyline clip-path="url(#clip850)" style="stroke:#000000; stroke-linecap:round; stroke-linejoin:round; stroke-width:4; stroke-opacity:1; fill:none" points="206.149,562.579 206.149,120.723 "/>
<polyline clip-path="url(#clip850)" style="stroke:#000000; stroke-linecap:round; stroke-linejoin:round; stroke-width:4; stroke-opacity:1; fill:none" points="206.149,528.64 225.046,528.64 "/>
<polyline clip-path="url(#clip850)" style="stroke:#000000; stroke-linecap:round; stroke-linejoin:round; stroke-width:4; stroke-opacity:1; fill:none" points="206.149,466.521 225.046,466.521 "/>
<polyline clip-path="url(#clip850)" style="stroke:#000000; stroke-linecap:round; stroke-linejoin:round; stroke-width:4; stroke-opacity:1; fill:none" points="206.149,404.403 225.046,404.403 "/>
<polyline clip-path="url(#clip850)" style="stroke:#000000; stroke-linecap:round; stroke-linejoin:round; stroke-width:4; stroke-opacity:1; fill:none" points="206.149,342.284 225.046,342.284 "/>
<polyline clip-path="url(#clip850)" style="stroke:#000000; stroke-linecap:round; stroke-linejoin:round; stroke-width:4; stroke-opacity:1; fill:none" points="206.149,280.165 225.046,280.165 "/>
<polyline clip-path="url(#clip850)" style="stroke:#000000; stroke-linecap:round; stroke-linejoin:round; stroke-width:4; stroke-opacity:1; fill:none" points="206.149,218.046 225.046,218.046 "/>
<polyline clip-path="url(#clip850)" style="stroke:#000000; stroke-linecap:round; stroke-linejoin:round; stroke-width:4; stroke-opacity:1; fill:none" points="206.149,155.927 225.046,155.927 "/>
<path clip-path="url(#clip850)" d="M52.4321 529.092 L82.1079 529.092 L82.1079 533.027 L52.4321 533.027 L52.4321 529.092 Z" fill="#000000" fill-rule="nonzero" fill-opacity="1" /><path clip-path="url(#clip850)" d="M93.0106 541.985 L100.649 541.985 L100.649 515.619 L92.3393 517.286 L92.3393 513.027 L100.603 511.36 L105.279 511.36 L105.279 541.985 L112.918 541.985 L112.918 545.92 L93.0106 545.92 L93.0106 541.985 Z" fill="#000000" fill-rule="nonzero" fill-opacity="1" /><path clip-path="url(#clip850)" d="M122.409 511.36 L140.765 511.36 L140.765 515.295 L126.691 515.295 L126.691 523.768 Q127.71 523.42 128.728 523.258 Q129.747 523.073 130.765 523.073 Q136.552 523.073 139.932 526.244 Q143.311 529.416 143.311 534.832 Q143.311 540.411 139.839 543.513 Q136.367 546.592 130.047 546.592 Q127.872 546.592 125.603 546.221 Q123.358 545.851 120.95 545.11 L120.95 540.411 Q123.034 541.545 125.256 542.101 Q127.478 542.656 129.955 542.656 Q133.959 542.656 136.297 540.55 Q138.635 538.443 138.635 534.832 Q138.635 531.221 136.297 529.115 Q133.959 527.008 129.955 527.008 Q128.08 527.008 126.205 527.425 Q124.353 527.842 122.409 528.721 L122.409 511.36 Z" fill="#000000" fill-rule="nonzero" fill-opacity="1" /><path clip-path="url(#clip850)" d="M162.524 514.439 Q158.913 514.439 157.084 518.004 Q155.279 521.545 155.279 528.675 Q155.279 535.781 157.084 539.346 Q158.913 542.888 162.524 542.888 Q166.158 542.888 167.964 539.346 Q169.793 535.781 169.793 528.675 Q169.793 521.545 167.964 518.004 Q166.158 514.439 162.524 514.439 M162.524 510.735 Q168.334 510.735 171.39 515.342 Q174.469 519.925 174.469 528.675 Q174.469 537.402 171.39 542.008 Q168.334 546.592 162.524 546.592 Q156.714 546.592 153.635 542.008 Q150.58 537.402 150.58 528.675 Q150.58 519.925 153.635 515.342 Q156.714 510.735 162.524 510.735 Z" fill="#000000" fill-rule="nonzero" fill-opacity="1" /><path clip-path="url(#clip850)" d="M52.4321 466.973 L82.1079 466.973 L82.1079 470.908 L52.4321 470.908 L52.4321 466.973 Z" fill="#000000" fill-rule="nonzero" fill-opacity="1" /><path clip-path="url(#clip850)" d="M93.0106 479.866 L100.649 479.866 L100.649 453.501 L92.3393 455.167 L92.3393 450.908 L100.603 449.241 L105.279 449.241 L105.279 479.866 L112.918 479.866 L112.918 483.801 L93.0106 483.801 L93.0106 479.866 Z" fill="#000000" fill-rule="nonzero" fill-opacity="1" /><path clip-path="url(#clip850)" d="M132.362 452.32 Q128.751 452.32 126.922 455.885 Q125.117 459.427 125.117 466.556 Q125.117 473.663 126.922 477.227 Q128.751 480.769 132.362 480.769 Q135.996 480.769 137.802 477.227 Q139.631 473.663 139.631 466.556 Q139.631 459.427 137.802 455.885 Q135.996 452.32 132.362 452.32 M132.362 448.616 Q138.172 448.616 141.228 453.223 Q144.307 457.806 144.307 466.556 Q144.307 475.283 141.228 479.889 Q138.172 484.473 132.362 484.473 Q126.552 484.473 123.473 479.889 Q120.418 475.283 120.418 466.556 Q120.418 457.806 123.473 453.223 Q126.552 448.616 132.362 448.616 Z" fill="#000000" fill-rule="nonzero" fill-opacity="1" /><path clip-path="url(#clip850)" d="M162.524 452.32 Q158.913 452.32 157.084 455.885 Q155.279 459.427 155.279 466.556 Q155.279 473.663 157.084 477.227 Q158.913 480.769 162.524 480.769 Q166.158 480.769 167.964 477.227 Q169.793 473.663 169.793 466.556 Q169.793 459.427 167.964 455.885 Q166.158 452.32 162.524 452.32 M162.524 448.616 Q168.334 448.616 171.39 453.223 Q174.469 457.806 174.469 466.556 Q174.469 475.283 171.39 479.889 Q168.334 484.473 162.524 484.473 Q156.714 484.473 153.635 479.889 Q150.58 475.283 150.58 466.556 Q150.58 457.806 153.635 453.223 Q156.714 448.616 162.524 448.616 Z" fill="#000000" fill-rule="nonzero" fill-opacity="1" /><path clip-path="url(#clip850)" d="M82.594 404.854 L112.27 404.854 L112.27 408.789 L82.594 408.789 L82.594 404.854 Z" fill="#000000" fill-rule="nonzero" fill-opacity="1" /><path clip-path="url(#clip850)" d="M122.409 387.123 L140.765 387.123 L140.765 391.058 L126.691 391.058 L126.691 399.53 Q127.71 399.183 128.728 399.021 Q129.747 398.835 130.765 398.835 Q136.552 398.835 139.932 402.007 Q143.311 405.178 143.311 410.595 Q143.311 416.173 139.839 419.275 Q136.367 422.354 130.047 422.354 Q127.872 422.354 125.603 421.984 Q123.358 421.613 120.95 420.872 L120.95 416.173 Q123.034 417.308 125.256 417.863 Q127.478 418.419 129.955 418.419 Q133.959 418.419 136.297 416.312 Q138.635 414.206 138.635 410.595 Q138.635 406.984 136.297 404.877 Q133.959 402.771 129.955 402.771 Q128.08 402.771 126.205 403.187 Q124.353 403.604 122.409 404.484 L122.409 387.123 Z" fill="#000000" fill-rule="nonzero" fill-opacity="1" /><path clip-path="url(#clip850)" d="M162.524 390.201 Q158.913 390.201 157.084 393.766 Q155.279 397.308 155.279 404.437 Q155.279 411.544 157.084 415.109 Q158.913 418.65 162.524 418.65 Q166.158 418.65 167.964 415.109 Q169.793 411.544 169.793 404.437 Q169.793 397.308 167.964 393.766 Q166.158 390.201 162.524 390.201 M162.524 386.498 Q168.334 386.498 171.39 391.104 Q174.469 395.687 174.469 404.437 Q174.469 413.164 171.39 417.771 Q168.334 422.354 162.524 422.354 Q156.714 422.354 153.635 417.771 Q150.58 413.164 150.58 404.437 Q150.58 395.687 153.635 391.104 Q156.714 386.498 162.524 386.498 Z" fill="#000000" fill-rule="nonzero" fill-opacity="1" /><path clip-path="url(#clip850)" d="M162.524 328.082 Q158.913 328.082 157.084 331.647 Q155.279 335.189 155.279 342.318 Q155.279 349.425 157.084 352.99 Q158.913 356.531 162.524 356.531 Q166.158 356.531 167.964 352.99 Q169.793 349.425 169.793 342.318 Q169.793 335.189 167.964 331.647 Q166.158 328.082 162.524 328.082 M162.524 324.379 Q168.334 324.379 171.39 328.985 Q174.469 333.569 174.469 342.318 Q174.469 351.045 171.39 355.652 Q168.334 360.235 162.524 360.235 Q156.714 360.235 153.635 355.652 Q150.58 351.045 150.58 342.318 Q150.58 333.569 153.635 328.985 Q156.714 324.379 162.524 324.379 Z" fill="#000000" fill-rule="nonzero" fill-opacity="1" /><path clip-path="url(#clip850)" d="M122.409 262.885 L140.765 262.885 L140.765 266.82 L126.691 266.82 L126.691 275.292 Q127.71 274.945 128.728 274.783 Q129.747 274.598 130.765 274.598 Q136.552 274.598 139.932 277.769 Q143.311 280.94 143.311 286.357 Q143.311 291.936 139.839 295.038 Q136.367 298.116 130.047 298.116 Q127.872 298.116 125.603 297.746 Q123.358 297.376 120.95 296.635 L120.95 291.936 Q123.034 293.07 125.256 293.626 Q127.478 294.181 129.955 294.181 Q133.959 294.181 136.297 292.075 Q138.635 289.968 138.635 286.357 Q138.635 282.746 136.297 280.639 Q133.959 278.533 129.955 278.533 Q128.08 278.533 126.205 278.95 Q124.353 279.366 122.409 280.246 L122.409 262.885 Z" fill="#000000" fill-rule="nonzero" fill-opacity="1" /><path clip-path="url(#clip850)" d="M162.524 265.964 Q158.913 265.964 157.084 269.528 Q155.279 273.07 155.279 280.2 Q155.279 287.306 157.084 290.871 Q158.913 294.413 162.524 294.413 Q166.158 294.413 167.964 290.871 Q169.793 287.306 169.793 280.2 Q169.793 273.07 167.964 269.528 Q166.158 265.964 162.524 265.964 M162.524 262.26 Q168.334 262.26 171.39 266.866 Q174.469 271.45 174.469 280.2 Q174.469 288.926 171.39 293.533 Q168.334 298.116 162.524 298.116 Q156.714 298.116 153.635 293.533 Q150.58 288.926 150.58 280.2 Q150.58 271.45 153.635 266.866 Q156.714 262.26 162.524 262.26 Z" fill="#000000" fill-rule="nonzero" fill-opacity="1" /><path clip-path="url(#clip850)" d="M93.0106 231.391 L100.649 231.391 L100.649 205.025 L92.3393 206.692 L92.3393 202.433 L100.603 200.766 L105.279 200.766 L105.279 231.391 L112.918 231.391 L112.918 235.326 L93.0106 235.326 L93.0106 231.391 Z" fill="#000000" fill-rule="nonzero" fill-opacity="1" /><path clip-path="url(#clip850)" d="M132.362 203.845 Q128.751 203.845 126.922 207.41 Q125.117 210.951 125.117 218.081 Q125.117 225.187 126.922 228.752 Q128.751 232.294 132.362 232.294 Q135.996 232.294 137.802 228.752 Q139.631 225.187 139.631 218.081 Q139.631 210.951 137.802 207.41 Q135.996 203.845 132.362 203.845 M132.362 200.141 Q138.172 200.141 141.228 204.748 Q144.307 209.331 144.307 218.081 Q144.307 226.808 141.228 231.414 Q138.172 235.997 132.362 235.997 Q126.552 235.997 123.473 231.414 Q120.418 226.808 120.418 218.081 Q120.418 209.331 123.473 204.748 Q126.552 200.141 132.362 200.141 Z" fill="#000000" fill-rule="nonzero" fill-opacity="1" /><path clip-path="url(#clip850)" d="M162.524 203.845 Q158.913 203.845 157.084 207.41 Q155.279 210.951 155.279 218.081 Q155.279 225.187 157.084 228.752 Q158.913 232.294 162.524 232.294 Q166.158 232.294 167.964 228.752 Q169.793 225.187 169.793 218.081 Q169.793 210.951 167.964 207.41 Q166.158 203.845 162.524 203.845 M162.524 200.141 Q168.334 200.141 171.39 204.748 Q174.469 209.331 174.469 218.081 Q174.469 226.808 171.39 231.414 Q168.334 235.997 162.524 235.997 Q156.714 235.997 153.635 231.414 Q150.58 226.808 150.58 218.081 Q150.58 209.331 153.635 204.748 Q156.714 200.141 162.524 200.141 Z" fill="#000000" fill-rule="nonzero" fill-opacity="1" /><path clip-path="url(#clip850)" d="M93.0106 169.272 L100.649 169.272 L100.649 142.907 L92.3393 144.573 L92.3393 140.314 L100.603 138.647 L105.279 138.647 L105.279 169.272 L112.918 169.272 L112.918 173.207 L93.0106 173.207 L93.0106 169.272 Z" fill="#000000" fill-rule="nonzero" fill-opacity="1" /><path clip-path="url(#clip850)" d="M122.409 138.647 L140.765 138.647 L140.765 142.583 L126.691 142.583 L126.691 151.055 Q127.71 150.707 128.728 150.545 Q129.747 150.36 130.765 150.36 Q136.552 150.36 139.932 153.532 Q143.311 156.703 143.311 162.119 Q143.311 167.698 139.839 170.8 Q136.367 173.879 130.047 173.879 Q127.872 173.879 125.603 173.508 Q123.358 173.138 120.95 172.397 L120.95 167.698 Q123.034 168.832 125.256 169.388 Q127.478 169.943 129.955 169.943 Q133.959 169.943 136.297 167.837 Q138.635 165.731 138.635 162.119 Q138.635 158.508 136.297 156.402 Q133.959 154.295 129.955 154.295 Q128.08 154.295 126.205 154.712 Q124.353 155.129 122.409 156.008 L122.409 138.647 Z" fill="#000000" fill-rule="nonzero" fill-opacity="1" /><path clip-path="url(#clip850)" d="M162.524 141.726 Q158.913 141.726 157.084 145.291 Q155.279 148.832 155.279 155.962 Q155.279 163.069 157.084 166.633 Q158.913 170.175 162.524 170.175 Q166.158 170.175 167.964 166.633 Q169.793 163.069 169.793 155.962 Q169.793 148.832 167.964 145.291 Q166.158 141.726 162.524 141.726 M162.524 138.022 Q168.334 138.022 171.39 142.629 Q174.469 147.212 174.469 155.962 Q174.469 164.689 171.39 169.295 Q168.334 173.879 162.524 173.879 Q156.714 173.879 153.635 169.295 Q150.58 164.689 150.58 155.962 Q150.58 147.212 153.635 142.629 Q156.714 138.022 162.524 138.022 Z" fill="#000000" fill-rule="nonzero" fill-opacity="1" /><path clip-path="url(#clip850)" d="M958.853 18.8205 L958.853 65.8515 L968.737 65.8515 Q981.255 65.8515 987.047 60.1802 Q992.881 54.509 992.881 42.2752 Q992.881 30.1225 987.047 24.4918 Q981.255 18.8205 968.737 18.8205 L958.853 18.8205 M950.67 12.096 L967.481 12.096 Q985.062 12.096 993.286 19.4281 Q1001.51 26.7198 1001.51 42.2752 Q1001.51 57.9117 993.245 65.2439 Q984.981 72.576 967.481 72.576 L950.67 72.576 L950.67 12.096 Z" fill="#000000" fill-rule="nonzero" fill-opacity="1" /><path clip-path="url(#clip850)" d="M1014.55 12.096 L1022.74 12.096 L1022.74 65.6895 L1052.19 65.6895 L1052.19 72.576 L1014.55 72.576 L1014.55 12.096 Z" fill="#000000" fill-rule="nonzero" fill-opacity="1" /><path clip-path="url(#clip850)" d="M1123.4 14.0809 L1123.4 22.0612 Q1118.74 19.8332 1114.61 18.7395 Q1110.48 17.6457 1106.63 17.6457 Q1099.95 17.6457 1096.3 20.2383 Q1092.69 22.8309 1092.69 27.611 Q1092.69 31.6214 1095.08 33.6873 Q1097.52 35.7128 1104.24 36.9686 L1109.18 37.9813 Q1118.34 39.7232 1122.67 44.1387 Q1127.05 48.5136 1127.05 55.8863 Q1127.05 64.6767 1121.13 69.2137 Q1115.26 73.7508 1103.88 73.7508 Q1099.58 73.7508 1094.72 72.7785 Q1089.9 71.8063 1084.71 69.9024 L1084.71 61.4765 Q1089.7 64.2716 1094.48 65.6895 Q1099.26 67.1073 1103.88 67.1073 Q1110.88 67.1073 1114.69 64.3527 Q1118.5 61.598 1118.5 56.4939 Q1118.5 52.0379 1115.74 49.5264 Q1113.03 47.0148 1106.79 45.759 L1101.81 44.7868 Q1092.65 42.9639 1088.56 39.075 Q1084.47 35.1862 1084.47 28.2591 Q1084.47 20.2383 1090.1 15.6203 Q1095.77 11.0023 1105.7 11.0023 Q1109.95 11.0023 1114.37 11.7719 Q1118.78 12.5416 1123.4 14.0809 Z" fill="#000000" fill-rule="nonzero" fill-opacity="1" /><path clip-path="url(#clip850)" d="M1177.2 45.1919 L1177.2 72.576 L1169.74 72.576 L1169.74 45.4349 Q1169.74 38.994 1167.23 35.7938 Q1164.72 32.5936 1159.7 32.5936 Q1153.66 32.5936 1150.18 36.4419 Q1146.69 40.2903 1146.69 46.9338 L1146.69 72.576 L1139.2 72.576 L1139.2 9.54393 L1146.69 9.54393 L1146.69 34.2544 Q1149.37 30.163 1152.97 28.1376 Q1156.62 26.1121 1161.36 26.1121 Q1169.18 26.1121 1173.19 30.9732 Q1177.2 35.7938 1177.2 45.1919 Z" fill="#000000" fill-rule="nonzero" fill-opacity="1" /><path clip-path="url(#clip850)" d="M1230.87 48.0275 L1230.87 51.6733 L1196.6 51.6733 Q1197.09 59.3701 1201.22 63.421 Q1205.39 67.4314 1212.8 67.4314 Q1217.1 67.4314 1221.11 66.3781 Q1225.16 65.3249 1229.13 63.2184 L1229.13 70.267 Q1225.12 71.9684 1220.91 72.8596 Q1216.69 73.7508 1212.36 73.7508 Q1201.5 73.7508 1195.14 67.4314 Q1188.82 61.1119 1188.82 50.3365 Q1188.82 39.1965 1194.82 32.6746 Q1200.85 26.1121 1211.06 26.1121 Q1220.22 26.1121 1225.52 32.0264 Q1230.87 37.9003 1230.87 48.0275 M1223.42 45.84 Q1223.34 39.7232 1219.97 36.0774 Q1216.65 32.4315 1211.14 32.4315 Q1204.9 32.4315 1201.14 35.9558 Q1197.41 39.4801 1196.84 45.8805 L1223.42 45.84 Z" fill="#000000" fill-rule="nonzero" fill-opacity="1" /><path clip-path="url(#clip850)" d="M1263.72 49.7694 Q1254.69 49.7694 1251.21 51.8354 Q1247.72 53.9013 1247.72 58.8839 Q1247.72 62.8538 1250.32 65.2034 Q1252.95 67.5124 1257.45 67.5124 Q1263.64 67.5124 1267.37 63.1374 Q1271.14 58.7219 1271.14 51.4303 L1271.14 49.7694 L1263.72 49.7694 M1278.59 46.6907 L1278.59 72.576 L1271.14 72.576 L1271.14 65.6895 Q1268.59 69.8214 1264.78 71.8063 Q1260.97 73.7508 1255.46 73.7508 Q1248.49 73.7508 1244.36 69.8619 Q1240.27 65.9325 1240.27 59.3701 Q1240.27 51.7138 1245.37 47.825 Q1250.52 43.9361 1260.69 43.9361 L1271.14 43.9361 L1271.14 43.2069 Q1271.14 38.0623 1267.73 35.2672 Q1264.37 32.4315 1258.26 32.4315 Q1254.37 32.4315 1250.68 33.3632 Q1246.99 34.295 1243.59 36.1584 L1243.59 29.2718 Q1247.68 27.692 1251.53 26.9223 Q1255.38 26.1121 1259.03 26.1121 Q1268.87 26.1121 1273.73 31.2163 Q1278.59 36.3204 1278.59 46.6907 Z" fill="#000000" fill-rule="nonzero" fill-opacity="1" /><path clip-path="url(#clip850)" d="M1320.23 34.1734 Q1318.98 33.4443 1317.48 33.1202 Q1316.02 32.7556 1314.24 32.7556 Q1307.92 32.7556 1304.52 36.8875 Q1301.15 40.9789 1301.15 48.6757 L1301.15 72.576 L1293.66 72.576 L1293.66 27.2059 L1301.15 27.2059 L1301.15 34.2544 Q1303.5 30.1225 1307.27 28.1376 Q1311.04 26.1121 1316.43 26.1121 Q1317.2 26.1121 1318.13 26.2337 Q1319.06 26.3147 1320.19 26.5172 L1320.23 34.1734 Z" fill="#000000" fill-rule="nonzero" fill-opacity="1" /><path clip-path="url(#clip852)" d="M258.751 342.284 L278.676 343.55 L298.601 344.815 L318.526 346.081 L338.451 347.347 L358.376 517.531 L378.301 518.796 L398.226 520.062 L418.151 228.135 L438.076 229.4 L458.001 230.666 L477.926 231.932 L497.851 233.198 L517.776 234.463 L537.701 235.729 L557.626 236.995 L577.551 238.26 L597.476 239.526 L617.401 240.792 L637.326 242.058 L657.251 243.323 L677.176 438.456 L697.101 439.721 L717.026 440.987 L736.951 442.253 L756.877 443.519 L776.802 444.784 L796.727 446.05 L816.652 447.316 L836.577 448.582 L856.502 449.847 L876.427 451.113 L896.352 133.228 L916.277 134.494 L936.202 135.76 L956.127 137.026 L976.052 138.291 L995.977 333.424 L1015.9 334.689 L1035.83 335.955 L1055.75 337.221 L1075.68 338.487 L1095.6 339.752 L1115.53 341.018 L1135.45 342.284 L1155.38 343.55 L1175.3 344.815 L1195.23 346.081 L1215.15 347.347 L1235.08 348.612 L1255 349.878 L1274.93 351.144 L1294.85 352.41 L1314.78 547.542 L1334.7 548.808 L1354.63 550.073 L1374.55 232.189 L1394.48 233.455 L1414.4 234.72 L1434.33 235.986 L1454.25 237.252 L1474.18 238.517 L1494.1 239.783 L1514.03 241.049 L1533.95 242.315 L1553.88 243.58 L1573.8 244.846 L1593.73 246.112 L1613.65 247.378 L1633.58 442.51 L1653.5 443.776 L1673.43 445.041 L1693.35 446.307 L1713.28 447.573 L1733.2 448.839 L1753.13 450.104 L1773.05 451.37 L1792.98 452.636 L1812.9 453.901 L1832.83 455.167 L1852.75 163.24 L1872.68 164.506 L1892.6 165.771 L1912.53 167.037 L1932.45 168.303 L1952.38 338.487 L1972.3 339.752 L1992.23 341.018 L2012.15 342.284 L2012.15 342.284 L1992.23 342.284 L1972.3 342.284 L1952.38 342.284 L1932.45 342.284 L1912.53 342.284 L1892.6 342.284 L1872.68 342.284 L1852.75 342.284 L1832.83 342.284 L1812.9 342.284 L1792.98 342.284 L1773.05 342.284 L1753.13 342.284 L1733.2 342.284 L1713.28 342.284 L1693.35 342.284 L1673.43 342.284 L1653.5 342.284 L1633.58 342.284 L1613.65 342.284 L1593.73 342.284 L1573.8 342.284 L1553.88 342.284 L1533.95 342.284 L1514.03 342.284 L1494.1 342.284 L1474.18 342.284 L1454.25 342.284 L1434.33 342.284 L1414.4 342.284 L1394.48 342.284 L1374.55 342.284 L1354.63 342.284 L1334.7 342.284 L1314.78 342.284 L1294.85 342.284 L1274.93 342.284 L1255 342.284 L1235.08 342.284 L1215.15 342.284 L1195.23 342.284 L1175.3 342.284 L1155.38 342.284 L1135.45 342.284 L1115.53 342.284 L1095.6 342.284 L1075.68 342.284 L1055.75 342.284 L1035.83 342.284 L1015.9 342.284 L995.977 342.284 L976.052 342.284 L956.127 342.284 L936.202 342.284 L916.277 342.284 L896.352 342.284 L876.427 342.284 L856.502 342.284 L836.577 342.284 L816.652 342.284 L796.727 342.284 L776.802 342.284 L756.877 342.284 L736.951 342.284 L717.026 342.284 L697.101 342.284 L677.176 342.284 L657.251 342.284 L637.326 342.284 L617.401 342.284 L597.476 342.284 L577.551 342.284 L557.626 342.284 L537.701 342.284 L517.776 342.284 L497.851 342.284 L477.926 342.284 L458.001 342.284 L438.076 342.284 L418.151 342.284 L398.226 342.284 L378.301 342.284 L358.376 342.284 L338.451 342.284 L318.526 342.284 L298.601 342.284 L278.676 342.284 L258.751 342.284  Z" fill="#0000ff" fill-rule="evenodd" fill-opacity="0.5"/>
<polyline clip-path="url(#clip852)" style="stroke:#0000ff; stroke-linecap:round; stroke-linejoin:round; stroke-width:4; stroke-opacity:1; fill:none" points="258.751,342.284 278.676,343.55 298.601,344.815 318.526,346.081 338.451,347.347 358.376,517.531 378.301,518.796 398.226,520.062 418.151,228.135 438.076,229.4 458.001,230.666 477.926,231.932 497.851,233.198 517.776,234.463 537.701,235.729 557.626,236.995 577.551,238.26 597.476,239.526 617.401,240.792 637.326,242.058 657.251,243.323 677.176,438.456 697.101,439.721 717.026,440.987 736.951,442.253 756.877,443.519 776.802,444.784 796.727,446.05 816.652,447.316 836.577,448.582 856.502,449.847 876.427,451.113 896.352,133.228 916.277,134.494 936.202,135.76 956.127,137.026 976.052,138.291 995.977,333.424 1015.9,334.689 1035.83,335.955 1055.75,337.221 1075.68,338.487 1095.6,339.752 1115.53,341.018 1135.45,342.284 1155.38,343.55 1175.3,344.815 1195.23,346.081 1215.15,347.347 1235.08,348.612 1255,349.878 1274.93,351.144 1294.85,352.41 1314.78,547.542 1334.7,548.808 1354.63,550.073 1374.55,232.189 1394.48,233.455 1414.4,234.72 1434.33,235.986 1454.25,237.252 1474.18,238.517 1494.1,239.783 1514.03,241.049 1533.95,242.315 1553.88,243.58 1573.8,244.846 1593.73,246.112 1613.65,247.378 1633.58,442.51 1653.5,443.776 1673.43,445.041 1693.35,446.307 1713.28,447.573 1733.2,448.839 1753.13,450.104 1773.05,451.37 1792.98,452.636 1812.9,453.901 1832.83,455.167 1852.75,163.24 1872.68,164.506 1892.6,165.771 1912.53,167.037 1932.45,168.303 1952.38,338.487 1972.3,339.752 1992.23,341.018 2012.15,342.284 "/>
<path clip-path="url(#clip850)" d="M206.149 1234.58 L2064.76 1234.58 L2064.76 792.723 L206.149 792.723  Z" fill="#ffffff" fill-rule="evenodd" fill-opacity="1"/>
<defs>
  <clipPath id="clip853">
    <rect x="206" y="792" width="1860" height="443"/>
  </clipPath>
</defs>
<polyline clip-path="url(#clip853)" style="stroke:#000000; stroke-linecap:round; stroke-linejoin:round; stroke-width:2; stroke-opacity:0.1; fill:none" points="258.751,1234.58 258.751,792.723 "/>
<polyline clip-path="url(#clip853)" style="stroke:#000000; stroke-linecap:round; stroke-linejoin:round; stroke-width:2; stroke-opacity:0.1; fill:none" points="657.251,1234.58 657.251,792.723 "/>
<polyline clip-path="url(#clip853)" style="stroke:#000000; stroke-linecap:round; stroke-linejoin:round; stroke-width:2; stroke-opacity:0.1; fill:none" points="1055.75,1234.58 1055.75,792.723 "/>
<polyline clip-path="url(#clip853)" style="stroke:#000000; stroke-linecap:round; stroke-linejoin:round; stroke-width:2; stroke-opacity:0.1; fill:none" points="1454.25,1234.58 1454.25,792.723 "/>
<polyline clip-path="url(#clip853)" style="stroke:#000000; stroke-linecap:round; stroke-linejoin:round; stroke-width:2; stroke-opacity:0.1; fill:none" points="1852.75,1234.58 1852.75,792.723 "/>
<polyline clip-path="url(#clip853)" style="stroke:#000000; stroke-linecap:round; stroke-linejoin:round; stroke-width:2; stroke-opacity:0.1; fill:none" points="206.149,1231.61 2064.76,1231.61 "/>
<polyline clip-path="url(#clip853)" style="stroke:#000000; stroke-linecap:round; stroke-linejoin:round; stroke-width:2; stroke-opacity:0.1; fill:none" points="206.149,1150.61 2064.76,1150.61 "/>
<polyline clip-path="url(#clip853)" style="stroke:#000000; stroke-linecap:round; stroke-linejoin:round; stroke-width:2; stroke-opacity:0.1; fill:none" points="206.149,1069.6 2064.76,1069.6 "/>
<polyline clip-path="url(#clip853)" style="stroke:#000000; stroke-linecap:round; stroke-linejoin:round; stroke-width:2; stroke-opacity:0.1; fill:none" points="206.149,988.599 2064.76,988.599 "/>
<polyline clip-path="url(#clip853)" style="stroke:#000000; stroke-linecap:round; stroke-linejoin:round; stroke-width:2; stroke-opacity:0.1; fill:none" points="206.149,907.595 2064.76,907.595 "/>
<polyline clip-path="url(#clip853)" style="stroke:#000000; stroke-linecap:round; stroke-linejoin:round; stroke-width:2; stroke-opacity:0.1; fill:none" points="206.149,826.592 2064.76,826.592 "/>
<polyline clip-path="url(#clip850)" style="stroke:#000000; stroke-linecap:round; stroke-linejoin:round; stroke-width:4; stroke-opacity:1; fill:none" points="206.149,1234.58 2064.76,1234.58 "/>
<polyline clip-path="url(#clip850)" style="stroke:#000000; stroke-linecap:round; stroke-linejoin:round; stroke-width:4; stroke-opacity:1; fill:none" points="258.751,1234.58 258.751,1215.68 "/>
<polyline clip-path="url(#clip850)" style="stroke:#000000; stroke-linecap:round; stroke-linejoin:round; stroke-width:4; stroke-opacity:1; fill:none" points="657.251,1234.58 657.251,1215.68 "/>
<polyline clip-path="url(#clip850)" style="stroke:#000000; stroke-linecap:round; stroke-linejoin:round; stroke-width:4; stroke-opacity:1; fill:none" points="1055.75,1234.58 1055.75,1215.68 "/>
<polyline clip-path="url(#clip850)" style="stroke:#000000; stroke-linecap:round; stroke-linejoin:round; stroke-width:4; stroke-opacity:1; fill:none" points="1454.25,1234.58 1454.25,1215.68 "/>
<polyline clip-path="url(#clip850)" style="stroke:#000000; stroke-linecap:round; stroke-linejoin:round; stroke-width:4; stroke-opacity:1; fill:none" points="1852.75,1234.58 1852.75,1215.68 "/>
<path clip-path="url(#clip850)" d="M258.751 1263.19 Q255.14 1263.19 253.311 1266.76 Q251.505 1270.3 251.505 1277.43 Q251.505 1284.54 253.311 1288.1 Q255.14 1291.64 258.751 1291.64 Q262.385 1291.64 264.19 1288.1 Q266.019 1284.54 266.019 1277.43 Q266.019 1270.3 264.19 1266.76 Q262.385 1263.19 258.751 1263.19 M258.751 1259.49 Q264.561 1259.49 267.616 1264.1 Q270.695 1268.68 270.695 1277.43 Q270.695 1286.16 267.616 1290.76 Q264.561 1295.35 258.751 1295.35 Q252.94 1295.35 249.862 1290.76 Q246.806 1286.16 246.806 1277.43 Q246.806 1268.68 249.862 1264.1 Q252.94 1259.49 258.751 1259.49 Z" fill="#000000" fill-rule="nonzero" fill-opacity="1" /><path clip-path="url(#clip850)" d="M631.939 1290.74 L639.578 1290.74 L639.578 1264.37 L631.268 1266.04 L631.268 1261.78 L639.532 1260.11 L644.207 1260.11 L644.207 1290.74 L651.846 1290.74 L651.846 1294.67 L631.939 1294.67 L631.939 1290.74 Z" fill="#000000" fill-rule="nonzero" fill-opacity="1" /><path clip-path="url(#clip850)" d="M671.291 1263.19 Q667.68 1263.19 665.851 1266.76 Q664.045 1270.3 664.045 1277.43 Q664.045 1284.54 665.851 1288.1 Q667.68 1291.64 671.291 1291.64 Q674.925 1291.64 676.73 1288.1 Q678.559 1284.54 678.559 1277.43 Q678.559 1270.3 676.73 1266.76 Q674.925 1263.19 671.291 1263.19 M671.291 1259.49 Q677.101 1259.49 680.156 1264.1 Q683.235 1268.68 683.235 1277.43 Q683.235 1286.16 680.156 1290.76 Q677.101 1295.35 671.291 1295.35 Q665.48 1295.35 662.402 1290.76 Q659.346 1286.16 659.346 1277.43 Q659.346 1268.68 662.402 1264.1 Q665.48 1259.49 671.291 1259.49 Z" fill="#000000" fill-rule="nonzero" fill-opacity="1" /><path clip-path="url(#clip850)" d="M1034.53 1290.74 L1050.84 1290.74 L1050.84 1294.67 L1028.9 1294.67 L1028.9 1290.74 Q1031.56 1287.99 1036.15 1283.36 Q1040.75 1278.7 1041.93 1277.36 Q1044.18 1274.84 1045.06 1273.1 Q1045.96 1271.34 1045.96 1269.65 Q1045.96 1266.9 1044.02 1265.16 Q1042.09 1263.42 1038.99 1263.42 Q1036.79 1263.42 1034.34 1264.19 Q1031.91 1264.95 1029.13 1266.5 L1029.13 1261.78 Q1031.96 1260.65 1034.41 1260.07 Q1036.86 1259.49 1038.9 1259.49 Q1044.27 1259.49 1047.47 1262.17 Q1050.66 1264.86 1050.66 1269.35 Q1050.66 1271.48 1049.85 1273.4 Q1049.06 1275.3 1046.96 1277.89 Q1046.38 1278.56 1043.28 1281.78 Q1040.17 1284.98 1034.53 1290.74 Z" fill="#000000" fill-rule="nonzero" fill-opacity="1" /><path clip-path="url(#clip850)" d="M1070.66 1263.19 Q1067.05 1263.19 1065.22 1266.76 Q1063.41 1270.3 1063.41 1277.43 Q1063.41 1284.54 1065.22 1288.1 Q1067.05 1291.64 1070.66 1291.64 Q1074.29 1291.64 1076.1 1288.1 Q1077.93 1284.54 1077.93 1277.43 Q1077.93 1270.3 1076.1 1266.76 Q1074.29 1263.19 1070.66 1263.19 M1070.66 1259.49 Q1076.47 1259.49 1079.53 1264.1 Q1082.6 1268.68 1082.6 1277.43 Q1082.6 1286.16 1079.53 1290.76 Q1076.47 1295.35 1070.66 1295.35 Q1064.85 1295.35 1061.77 1290.76 Q1058.72 1286.16 1058.72 1277.43 Q1058.72 1268.68 1061.77 1264.1 Q1064.85 1259.49 1070.66 1259.49 Z" fill="#000000" fill-rule="nonzero" fill-opacity="1" /><path clip-path="url(#clip850)" d="M1443.1 1276.04 Q1446.45 1276.76 1448.33 1279.03 Q1450.23 1281.3 1450.23 1284.63 Q1450.23 1289.74 1446.71 1292.55 Q1443.19 1295.35 1436.71 1295.35 Q1434.53 1295.35 1432.22 1294.91 Q1429.92 1294.49 1427.47 1293.63 L1427.47 1289.12 Q1429.41 1290.25 1431.73 1290.83 Q1434.04 1291.41 1436.57 1291.41 Q1440.97 1291.41 1443.26 1289.67 Q1445.57 1287.94 1445.57 1284.63 Q1445.57 1281.57 1443.42 1279.86 Q1441.29 1278.12 1437.47 1278.12 L1433.44 1278.12 L1433.44 1274.28 L1437.66 1274.28 Q1441.1 1274.28 1442.93 1272.92 Q1444.76 1271.53 1444.76 1268.93 Q1444.76 1266.27 1442.86 1264.86 Q1440.99 1263.42 1437.47 1263.42 Q1435.55 1263.42 1433.35 1263.84 Q1431.15 1264.26 1428.51 1265.14 L1428.51 1260.97 Q1431.17 1260.23 1433.49 1259.86 Q1435.83 1259.49 1437.89 1259.49 Q1443.21 1259.49 1446.31 1261.92 Q1449.41 1264.33 1449.41 1268.45 Q1449.41 1271.32 1447.77 1273.31 Q1446.13 1275.28 1443.1 1276.04 Z" fill="#000000" fill-rule="nonzero" fill-opacity="1" /><path clip-path="url(#clip850)" d="M1469.09 1263.19 Q1465.48 1263.19 1463.65 1266.76 Q1461.85 1270.3 1461.85 1277.43 Q1461.85 1284.54 1463.65 1288.1 Q1465.48 1291.64 1469.09 1291.64 Q1472.72 1291.64 1474.53 1288.1 Q1476.36 1284.54 1476.36 1277.43 Q1476.36 1270.3 1474.53 1266.76 Q1472.72 1263.19 1469.09 1263.19 M1469.09 1259.49 Q1474.9 1259.49 1477.96 1264.1 Q1481.04 1268.68 1481.04 1277.43 Q1481.04 1286.16 1477.96 1290.76 Q1474.9 1295.35 1469.09 1295.35 Q1463.28 1295.35 1460.2 1290.76 Q1457.15 1286.16 1457.15 1277.43 Q1457.15 1268.68 1460.2 1264.1 Q1463.28 1259.49 1469.09 1259.49 Z" fill="#000000" fill-rule="nonzero" fill-opacity="1" /><path clip-path="url(#clip850)" d="M1840.92 1264.19 L1829.12 1282.64 L1840.92 1282.64 L1840.92 1264.19 M1839.7 1260.11 L1845.58 1260.11 L1845.58 1282.64 L1850.51 1282.64 L1850.51 1286.53 L1845.58 1286.53 L1845.58 1294.67 L1840.92 1294.67 L1840.92 1286.53 L1825.32 1286.53 L1825.32 1282.01 L1839.7 1260.11 Z" fill="#000000" fill-rule="nonzero" fill-opacity="1" /><path clip-path="url(#clip850)" d="M1868.24 1263.19 Q1864.63 1263.19 1862.8 1266.76 Q1860.99 1270.3 1860.99 1277.43 Q1860.99 1284.54 1862.8 1288.1 Q1864.63 1291.64 1868.24 1291.64 Q1871.87 1291.64 1873.68 1288.1 Q1875.51 1284.54 1875.51 1277.43 Q1875.51 1270.3 1873.68 1266.76 Q1871.87 1263.19 1868.24 1263.19 M1868.24 1259.49 Q1874.05 1259.49 1877.11 1264.1 Q1880.18 1268.68 1880.18 1277.43 Q1880.18 1286.16 1877.11 1290.76 Q1874.05 1295.35 1868.24 1295.35 Q1862.43 1295.35 1859.35 1290.76 Q1856.3 1286.16 1856.3 1277.43 Q1856.3 1268.68 1859.35 1264.1 Q1862.43 1259.49 1868.24 1259.49 Z" fill="#000000" fill-rule="nonzero" fill-opacity="1" /><polyline clip-path="url(#clip850)" style="stroke:#000000; stroke-linecap:round; stroke-linejoin:round; stroke-width:4; stroke-opacity:1; fill:none" points="206.149,1234.58 206.149,792.723 "/>
<polyline clip-path="url(#clip850)" style="stroke:#000000; stroke-linecap:round; stroke-linejoin:round; stroke-width:4; stroke-opacity:1; fill:none" points="206.149,1231.61 225.046,1231.61 "/>
<polyline clip-path="url(#clip850)" style="stroke:#000000; stroke-linecap:round; stroke-linejoin:round; stroke-width:4; stroke-opacity:1; fill:none" points="206.149,1150.61 225.046,1150.61 "/>
<polyline clip-path="url(#clip850)" style="stroke:#000000; stroke-linecap:round; stroke-linejoin:round; stroke-width:4; stroke-opacity:1; fill:none" points="206.149,1069.6 225.046,1069.6 "/>
<polyline clip-path="url(#clip850)" style="stroke:#000000; stroke-linecap:round; stroke-linejoin:round; stroke-width:4; stroke-opacity:1; fill:none" points="206.149,988.599 225.046,988.599 "/>
<polyline clip-path="url(#clip850)" style="stroke:#000000; stroke-linecap:round; stroke-linejoin:round; stroke-width:4; stroke-opacity:1; fill:none" points="206.149,907.595 225.046,907.595 "/>
<polyline clip-path="url(#clip850)" style="stroke:#000000; stroke-linecap:round; stroke-linejoin:round; stroke-width:4; stroke-opacity:1; fill:none" points="206.149,826.592 225.046,826.592 "/>
<path clip-path="url(#clip850)" d="M52.4321 1232.06 L82.1079 1232.06 L82.1079 1236 L52.4321 1236 L52.4321 1232.06 Z" fill="#000000" fill-rule="nonzero" fill-opacity="1" /><path clip-path="url(#clip850)" d="M106.367 1230.25 Q109.723 1230.97 111.598 1233.24 Q113.497 1235.51 113.497 1238.84 Q113.497 1243.96 109.978 1246.76 Q106.46 1249.56 99.9782 1249.56 Q97.8023 1249.56 95.4875 1249.12 Q93.1958 1248.7 90.7421 1247.85 L90.7421 1243.33 Q92.6865 1244.47 95.0013 1245.05 Q97.3161 1245.63 99.8393 1245.63 Q104.237 1245.63 106.529 1243.89 Q108.844 1242.15 108.844 1238.84 Q108.844 1235.79 106.691 1234.07 Q104.561 1232.34 100.742 1232.34 L96.7143 1232.34 L96.7143 1228.5 L100.927 1228.5 Q104.376 1228.5 106.205 1227.13 Q108.034 1225.74 108.034 1223.15 Q108.034 1220.49 106.136 1219.07 Q104.261 1217.64 100.742 1217.64 Q98.8208 1217.64 96.6217 1218.06 Q94.4226 1218.47 91.7838 1219.35 L91.7838 1215.19 Q94.4458 1214.44 96.7606 1214.07 Q99.0985 1213.7 101.159 1213.7 Q106.483 1213.7 109.585 1216.13 Q112.686 1218.54 112.686 1222.66 Q112.686 1225.53 111.043 1227.52 Q109.399 1229.49 106.367 1230.25 Z" fill="#000000" fill-rule="nonzero" fill-opacity="1" /><path clip-path="url(#clip850)" d="M132.362 1217.41 Q128.751 1217.41 126.922 1220.97 Q125.117 1224.51 125.117 1231.64 Q125.117 1238.75 126.922 1242.31 Q128.751 1245.86 132.362 1245.86 Q135.996 1245.86 137.802 1242.31 Q139.631 1238.75 139.631 1231.64 Q139.631 1224.51 137.802 1220.97 Q135.996 1217.41 132.362 1217.41 M132.362 1213.7 Q138.172 1213.7 141.228 1218.31 Q144.307 1222.89 144.307 1231.64 Q144.307 1240.37 141.228 1244.98 Q138.172 1249.56 132.362 1249.56 Q126.552 1249.56 123.473 1244.98 Q120.418 1240.37 120.418 1231.64 Q120.418 1222.89 123.473 1218.31 Q126.552 1213.7 132.362 1213.7 Z" fill="#000000" fill-rule="nonzero" fill-opacity="1" /><path clip-path="url(#clip850)" d="M162.524 1217.41 Q158.913 1217.41 157.084 1220.97 Q155.279 1224.51 155.279 1231.64 Q155.279 1238.75 157.084 1242.31 Q158.913 1245.86 162.524 1245.86 Q166.158 1245.86 167.964 1242.31 Q169.793 1238.75 169.793 1231.64 Q169.793 1224.51 167.964 1220.97 Q166.158 1217.41 162.524 1217.41 M162.524 1213.7 Q168.334 1213.7 171.39 1218.31 Q174.469 1222.89 174.469 1231.64 Q174.469 1240.37 171.39 1244.98 Q168.334 1249.56 162.524 1249.56 Q156.714 1249.56 153.635 1244.98 Q150.58 1240.37 150.58 1231.64 Q150.58 1222.89 153.635 1218.31 Q156.714 1213.7 162.524 1213.7 Z" fill="#000000" fill-rule="nonzero" fill-opacity="1" /><path clip-path="url(#clip850)" d="M52.4321 1151.06 L82.1079 1151.06 L82.1079 1154.99 L52.4321 1154.99 L52.4321 1151.06 Z" fill="#000000" fill-rule="nonzero" fill-opacity="1" /><path clip-path="url(#clip850)" d="M96.2282 1163.95 L112.548 1163.95 L112.548 1167.89 L90.6032 1167.89 L90.6032 1163.95 Q93.2652 1161.2 97.8485 1156.57 Q102.455 1151.91 103.636 1150.57 Q105.881 1148.05 106.761 1146.31 Q107.663 1144.55 107.663 1142.86 Q107.663 1140.11 105.719 1138.37 Q103.798 1136.64 100.696 1136.64 Q98.4967 1136.64 96.043 1137.4 Q93.6125 1138.16 90.8347 1139.71 L90.8347 1134.99 Q93.6588 1133.86 96.1124 1133.28 Q98.5661 1132.7 100.603 1132.7 Q105.974 1132.7 109.168 1135.39 Q112.362 1138.07 112.362 1142.56 Q112.362 1144.69 111.552 1146.61 Q110.765 1148.51 108.659 1151.1 Q108.08 1151.77 104.978 1154.99 Q101.876 1158.19 96.2282 1163.95 Z" fill="#000000" fill-rule="nonzero" fill-opacity="1" /><path clip-path="url(#clip850)" d="M132.362 1136.4 Q128.751 1136.4 126.922 1139.97 Q125.117 1143.51 125.117 1150.64 Q125.117 1157.75 126.922 1161.31 Q128.751 1164.85 132.362 1164.85 Q135.996 1164.85 137.802 1161.31 Q139.631 1157.75 139.631 1150.64 Q139.631 1143.51 137.802 1139.97 Q135.996 1136.4 132.362 1136.4 M132.362 1132.7 Q138.172 1132.7 141.228 1137.31 Q144.307 1141.89 144.307 1150.64 Q144.307 1159.37 141.228 1163.97 Q138.172 1168.56 132.362 1168.56 Q126.552 1168.56 123.473 1163.97 Q120.418 1159.37 120.418 1150.64 Q120.418 1141.89 123.473 1137.31 Q126.552 1132.7 132.362 1132.7 Z" fill="#000000" fill-rule="nonzero" fill-opacity="1" /><path clip-path="url(#clip850)" d="M162.524 1136.4 Q158.913 1136.4 157.084 1139.97 Q155.279 1143.51 155.279 1150.64 Q155.279 1157.75 157.084 1161.31 Q158.913 1164.85 162.524 1164.85 Q166.158 1164.85 167.964 1161.31 Q169.793 1157.75 169.793 1150.64 Q169.793 1143.51 167.964 1139.97 Q166.158 1136.4 162.524 1136.4 M162.524 1132.7 Q168.334 1132.7 171.39 1137.31 Q174.469 1141.89 174.469 1150.64 Q174.469 1159.37 171.39 1163.97 Q168.334 1168.56 162.524 1168.56 Q156.714 1168.56 153.635 1163.97 Q150.58 1159.37 150.58 1150.64 Q150.58 1141.89 153.635 1137.31 Q156.714 1132.7 162.524 1132.7 Z" fill="#000000" fill-rule="nonzero" fill-opacity="1" /><path clip-path="url(#clip850)" d="M52.4321 1070.05 L82.1079 1070.05 L82.1079 1073.99 L52.4321 1073.99 L52.4321 1070.05 Z" fill="#000000" fill-rule="nonzero" fill-opacity="1" /><path clip-path="url(#clip850)" d="M93.0106 1082.95 L100.649 1082.95 L100.649 1056.58 L92.3393 1058.25 L92.3393 1053.99 L100.603 1052.32 L105.279 1052.32 L105.279 1082.95 L112.918 1082.95 L112.918 1086.88 L93.0106 1086.88 L93.0106 1082.95 Z" fill="#000000" fill-rule="nonzero" fill-opacity="1" /><path clip-path="url(#clip850)" d="M132.362 1055.4 Q128.751 1055.4 126.922 1058.97 Q125.117 1062.51 125.117 1069.64 Q125.117 1076.74 126.922 1080.31 Q128.751 1083.85 132.362 1083.85 Q135.996 1083.85 137.802 1080.31 Q139.631 1076.74 139.631 1069.64 Q139.631 1062.51 137.802 1058.97 Q135.996 1055.4 132.362 1055.4 M132.362 1051.7 Q138.172 1051.7 141.228 1056.3 Q144.307 1060.89 144.307 1069.64 Q144.307 1078.36 141.228 1082.97 Q138.172 1087.55 132.362 1087.55 Q126.552 1087.55 123.473 1082.97 Q120.418 1078.36 120.418 1069.64 Q120.418 1060.89 123.473 1056.3 Q126.552 1051.7 132.362 1051.7 Z" fill="#000000" fill-rule="nonzero" fill-opacity="1" /><path clip-path="url(#clip850)" d="M162.524 1055.4 Q158.913 1055.4 157.084 1058.97 Q155.279 1062.51 155.279 1069.64 Q155.279 1076.74 157.084 1080.31 Q158.913 1083.85 162.524 1083.85 Q166.158 1083.85 167.964 1080.31 Q169.793 1076.74 169.793 1069.64 Q169.793 1062.51 167.964 1058.97 Q166.158 1055.4 162.524 1055.4 M162.524 1051.7 Q168.334 1051.7 171.39 1056.3 Q174.469 1060.89 174.469 1069.64 Q174.469 1078.36 171.39 1082.97 Q168.334 1087.55 162.524 1087.55 Q156.714 1087.55 153.635 1082.97 Q150.58 1078.36 150.58 1069.64 Q150.58 1060.89 153.635 1056.3 Q156.714 1051.7 162.524 1051.7 Z" fill="#000000" fill-rule="nonzero" fill-opacity="1" /><path clip-path="url(#clip850)" d="M162.524 974.397 Q158.913 974.397 157.084 977.962 Q155.279 981.504 155.279 988.633 Q155.279 995.74 157.084 999.304 Q158.913 1002.85 162.524 1002.85 Q166.158 1002.85 167.964 999.304 Q169.793 995.74 169.793 988.633 Q169.793 981.504 167.964 977.962 Q166.158 974.397 162.524 974.397 M162.524 970.694 Q168.334 970.694 171.39 975.3 Q174.469 979.883 174.469 988.633 Q174.469 997.36 171.39 1001.97 Q168.334 1006.55 162.524 1006.55 Q156.714 1006.55 153.635 1001.97 Q150.58 997.36 150.58 988.633 Q150.58 979.883 153.635 975.3 Q156.714 970.694 162.524 970.694 Z" fill="#000000" fill-rule="nonzero" fill-opacity="1" /><path clip-path="url(#clip850)" d="M93.0106 920.94 L100.649 920.94 L100.649 894.574 L92.3393 896.241 L92.3393 891.982 L100.603 890.315 L105.279 890.315 L105.279 920.94 L112.918 920.94 L112.918 924.875 L93.0106 924.875 L93.0106 920.94 Z" fill="#000000" fill-rule="nonzero" fill-opacity="1" /><path clip-path="url(#clip850)" d="M132.362 893.394 Q128.751 893.394 126.922 896.959 Q125.117 900.5 125.117 907.63 Q125.117 914.736 126.922 918.301 Q128.751 921.843 132.362 921.843 Q135.996 921.843 137.802 918.301 Q139.631 914.736 139.631 907.63 Q139.631 900.5 137.802 896.959 Q135.996 893.394 132.362 893.394 M132.362 889.69 Q138.172 889.69 141.228 894.297 Q144.307 898.88 144.307 907.63 Q144.307 916.357 141.228 920.963 Q138.172 925.546 132.362 925.546 Q126.552 925.546 123.473 920.963 Q120.418 916.357 120.418 907.63 Q120.418 898.88 123.473 894.297 Q126.552 889.69 132.362 889.69 Z" fill="#000000" fill-rule="nonzero" fill-opacity="1" /><path clip-path="url(#clip850)" d="M162.524 893.394 Q158.913 893.394 157.084 896.959 Q155.279 900.5 155.279 907.63 Q155.279 914.736 157.084 918.301 Q158.913 921.843 162.524 921.843 Q166.158 921.843 167.964 918.301 Q169.793 914.736 169.793 907.63 Q169.793 900.5 167.964 896.959 Q166.158 893.394 162.524 893.394 M162.524 889.69 Q168.334 889.69 171.39 894.297 Q174.469 898.88 174.469 907.63 Q174.469 916.357 171.39 920.963 Q168.334 925.546 162.524 925.546 Q156.714 925.546 153.635 920.963 Q150.58 916.357 150.58 907.63 Q150.58 898.88 153.635 894.297 Q156.714 889.69 162.524 889.69 Z" fill="#000000" fill-rule="nonzero" fill-opacity="1" /><path clip-path="url(#clip850)" d="M96.2282 839.936 L112.548 839.936 L112.548 843.872 L90.6032 843.872 L90.6032 839.936 Q93.2652 837.182 97.8485 832.552 Q102.455 827.899 103.636 826.557 Q105.881 824.034 106.761 822.298 Q107.663 820.538 107.663 818.849 Q107.663 816.094 105.719 814.358 Q103.798 812.622 100.696 812.622 Q98.4967 812.622 96.043 813.386 Q93.6125 814.15 90.8347 815.7 L90.8347 810.978 Q93.6588 809.844 96.1124 809.265 Q98.5661 808.687 100.603 808.687 Q105.974 808.687 109.168 811.372 Q112.362 814.057 112.362 818.548 Q112.362 820.677 111.552 822.599 Q110.765 824.497 108.659 827.089 Q108.08 827.761 104.978 830.978 Q101.876 834.173 96.2282 839.936 Z" fill="#000000" fill-rule="nonzero" fill-opacity="1" /><path clip-path="url(#clip850)" d="M132.362 812.39 Q128.751 812.39 126.922 815.955 Q125.117 819.497 125.117 826.626 Q125.117 833.733 126.922 837.298 Q128.751 840.839 132.362 840.839 Q135.996 840.839 137.802 837.298 Q139.631 833.733 139.631 826.626 Q139.631 819.497 137.802 815.955 Q135.996 812.39 132.362 812.39 M132.362 808.687 Q138.172 808.687 141.228 813.293 Q144.307 817.876 144.307 826.626 Q144.307 835.353 141.228 839.96 Q138.172 844.543 132.362 844.543 Q126.552 844.543 123.473 839.96 Q120.418 835.353 120.418 826.626 Q120.418 817.876 123.473 813.293 Q126.552 808.687 132.362 808.687 Z" fill="#000000" fill-rule="nonzero" fill-opacity="1" /><path clip-path="url(#clip850)" d="M162.524 812.39 Q158.913 812.39 157.084 815.955 Q155.279 819.497 155.279 826.626 Q155.279 833.733 157.084 837.298 Q158.913 840.839 162.524 840.839 Q166.158 840.839 167.964 837.298 Q169.793 833.733 169.793 826.626 Q169.793 819.497 167.964 815.955 Q166.158 812.39 162.524 812.39 M162.524 808.687 Q168.334 808.687 171.39 813.293 Q174.469 817.876 174.469 826.626 Q174.469 835.353 171.39 839.96 Q168.334 844.543 162.524 844.543 Q156.714 844.543 153.635 839.96 Q150.58 835.353 150.58 826.626 Q150.58 817.876 153.635 813.293 Q156.714 808.687 162.524 808.687 Z" fill="#000000" fill-rule="nonzero" fill-opacity="1" /><path clip-path="url(#clip850)" d="M910.809 690.821 L910.809 737.851 L920.694 737.851 Q933.211 737.851 939.004 732.18 Q944.837 726.509 944.837 714.275 Q944.837 702.123 939.004 696.492 Q933.211 690.821 920.694 690.821 L910.809 690.821 M902.626 684.096 L919.438 684.096 Q937.019 684.096 945.242 691.428 Q953.465 698.72 953.465 714.275 Q953.465 729.912 945.201 737.244 Q936.938 744.576 919.438 744.576 L902.626 744.576 L902.626 684.096 Z" fill="#000000" fill-rule="nonzero" fill-opacity="1" /><path clip-path="url(#clip850)" d="M966.509 684.096 L974.692 684.096 L974.692 737.689 L1004.14 737.689 L1004.14 744.576 L966.509 744.576 L966.509 684.096 Z" fill="#000000" fill-rule="nonzero" fill-opacity="1" /><path clip-path="url(#clip850)" d="M1039.1 684.096 L1051.29 684.096 L1066.73 725.253 L1082.24 684.096 L1094.44 684.096 L1094.44 744.576 L1086.46 744.576 L1086.46 691.469 L1070.86 732.95 L1062.64 732.95 L1047.04 691.469 L1047.04 744.576 L1039.1 744.576 L1039.1 684.096 Z" fill="#000000" fill-rule="nonzero" fill-opacity="1" /><path clip-path="url(#clip850)" d="M1127.94 704.432 Q1121.94 704.432 1118.46 709.131 Q1114.97 713.789 1114.97 721.931 Q1114.97 730.074 1118.42 734.773 Q1121.9 739.431 1127.94 739.431 Q1133.89 739.431 1137.38 734.732 Q1140.86 730.033 1140.86 721.931 Q1140.86 713.87 1137.38 709.171 Q1133.89 704.432 1127.94 704.432 M1127.94 698.112 Q1137.66 698.112 1143.21 704.432 Q1148.76 710.751 1148.76 721.931 Q1148.76 733.071 1143.21 739.431 Q1137.66 745.751 1127.94 745.751 Q1118.18 745.751 1112.63 739.431 Q1107.12 733.071 1107.12 721.931 Q1107.12 710.751 1112.63 704.432 Q1118.18 698.112 1127.94 698.112 Z" fill="#000000" fill-rule="nonzero" fill-opacity="1" /><path clip-path="url(#clip850)" d="M1196.44 707.915 Q1199.23 702.892 1203.12 700.502 Q1207.01 698.112 1212.28 698.112 Q1219.37 698.112 1223.22 703.095 Q1227.06 708.037 1227.06 717.192 L1227.06 744.576 L1219.57 744.576 L1219.57 717.435 Q1219.57 710.913 1217.26 707.753 Q1214.95 704.594 1210.21 704.594 Q1204.42 704.594 1201.06 708.442 Q1197.69 712.29 1197.69 718.934 L1197.69 744.576 L1190.2 744.576 L1190.2 717.435 Q1190.2 710.872 1187.89 707.753 Q1185.58 704.594 1180.76 704.594 Q1175.05 704.594 1171.69 708.482 Q1168.33 712.331 1168.33 718.934 L1168.33 744.576 L1160.83 744.576 L1160.83 699.206 L1168.33 699.206 L1168.33 706.254 Q1170.88 702.082 1174.44 700.097 Q1178.01 698.112 1182.91 698.112 Q1187.85 698.112 1191.29 700.624 Q1194.78 703.135 1196.44 707.915 Z" fill="#000000" fill-rule="nonzero" fill-opacity="1" /><path clip-path="url(#clip850)" d="M1280.74 720.028 L1280.74 723.673 L1246.47 723.673 Q1246.95 731.37 1251.09 735.421 Q1255.26 739.431 1262.67 739.431 Q1266.96 739.431 1270.98 738.378 Q1275.03 737.325 1279 735.218 L1279 742.267 Q1274.99 743.968 1270.77 744.86 Q1266.56 745.751 1262.23 745.751 Q1251.37 745.751 1245.01 739.431 Q1238.69 733.112 1238.69 722.337 Q1238.69 711.197 1244.68 704.675 Q1250.72 698.112 1260.93 698.112 Q1270.08 698.112 1275.39 704.026 Q1280.74 709.9 1280.74 720.028 M1273.28 717.84 Q1273.2 711.723 1269.84 708.077 Q1266.52 704.432 1261.01 704.432 Q1254.77 704.432 1251 707.956 Q1247.28 711.48 1246.71 717.881 L1273.28 717.84 Z" fill="#000000" fill-rule="nonzero" fill-opacity="1" /><path clip-path="url(#clip850)" d="M1330.69 717.192 L1330.69 744.576 L1323.23 744.576 L1323.23 717.435 Q1323.23 710.994 1320.72 707.794 Q1318.21 704.594 1313.19 704.594 Q1307.15 704.594 1303.67 708.442 Q1300.18 712.29 1300.18 718.934 L1300.18 744.576 L1292.69 744.576 L1292.69 699.206 L1300.18 699.206 L1300.18 706.254 Q1302.86 702.163 1306.46 700.138 Q1310.11 698.112 1314.85 698.112 Q1322.66 698.112 1326.68 702.973 Q1330.69 707.794 1330.69 717.192 Z" fill="#000000" fill-rule="nonzero" fill-opacity="1" /><path clip-path="url(#clip850)" d="M1352.93 686.324 L1352.93 699.206 L1368.28 699.206 L1368.28 704.999 L1352.93 704.999 L1352.93 729.628 Q1352.93 735.178 1354.42 736.758 Q1355.96 738.338 1360.62 738.338 L1368.28 738.338 L1368.28 744.576 L1360.62 744.576 Q1351.99 744.576 1348.71 741.376 Q1345.43 738.135 1345.43 729.628 L1345.43 704.999 L1339.96 704.999 L1339.96 699.206 L1345.43 699.206 L1345.43 686.324 L1352.93 686.324 Z" fill="#000000" fill-rule="nonzero" fill-opacity="1" /><path clip-path="url(#clip853)" d="M258.751 988.599 L278.676 988.805 L298.601 989.424 L318.526 990.455 L338.451 991.9 L358.376 1048.82 L378.301 1106.16 L398.226 1163.91 L418.151 1222.07 L438.076 1185.07 L458.001 1148.47 L477.926 1112.29 L497.851 1076.52 L517.776 1041.17 L537.701 1006.22 L557.626 971.693 L577.551 937.575 L597.476 903.869 L617.401 870.576 L637.326 837.696 L657.251 805.228 L677.176 836.374 L697.101 867.933 L717.026 899.904 L736.951 932.288 L756.877 965.084 L776.802 998.294 L796.727 1031.92 L816.652 1065.95 L836.577 1100.4 L856.502 1135.26 L876.427 1170.53 L896.352 1206.21 L916.277 1138.27 L936.202 1070.73 L956.127 1003.61 L976.052 936.904 L995.977 933.81 L1015.9 931.128 L1035.83 928.858 L1055.75 927.001 L1075.68 925.557 L1095.6 924.525 L1115.53 923.907 L1135.45 923.7 L1155.38 923.907 L1175.3 924.525 L1195.23 925.557 L1215.15 927.001 L1235.08 928.858 L1255 931.128 L1274.93 933.81 L1294.85 936.904 L1314.78 1003.61 L1334.7 1070.73 L1354.63 1138.27 L1374.55 1206.21 L1394.48 1170.53 L1414.4 1135.26 L1434.33 1100.4 L1454.25 1065.95 L1474.18 1031.92 L1494.1 998.294 L1514.03 965.084 L1533.95 932.288 L1553.88 899.904 L1573.8 867.933 L1593.73 836.374 L1613.65 805.228 L1633.58 837.696 L1653.5 870.576 L1673.43 903.869 L1693.35 937.575 L1713.28 971.693 L1733.2 1006.22 L1753.13 1041.17 L1773.05 1076.52 L1792.98 1112.29 L1812.9 1148.47 L1832.83 1185.07 L1852.75 1222.07 L1872.68 1163.91 L1892.6 1106.16 L1912.53 1048.82 L1932.45 991.9 L1952.38 990.455 L1972.3 989.424 L1992.23 988.805 L2012.15 988.599 L2012.15 988.599 L1992.23 988.599 L1972.3 988.599 L1952.38 988.599 L1932.45 988.599 L1912.53 988.599 L1892.6 988.599 L1872.68 988.599 L1852.75 988.599 L1832.83 988.599 L1812.9 988.599 L1792.98 988.599 L1773.05 988.599 L1753.13 988.599 L1733.2 988.599 L1713.28 988.599 L1693.35 988.599 L1673.43 988.599 L1653.5 988.599 L1633.58 988.599 L1613.65 988.599 L1593.73 988.599 L1573.8 988.599 L1553.88 988.599 L1533.95 988.599 L1514.03 988.599 L1494.1 988.599 L1474.18 988.599 L1454.25 988.599 L1434.33 988.599 L1414.4 988.599 L1394.48 988.599 L1374.55 988.599 L1354.63 988.599 L1334.7 988.599 L1314.78 988.599 L1294.85 988.599 L1274.93 988.599 L1255 988.599 L1235.08 988.599 L1215.15 988.599 L1195.23 988.599 L1175.3 988.599 L1155.38 988.599 L1135.45 988.599 L1115.53 988.599 L1095.6 988.599 L1075.68 988.599 L1055.75 988.599 L1035.83 988.599 L1015.9 988.599 L995.977 988.599 L976.052 988.599 L956.127 988.599 L936.202 988.599 L916.277 988.599 L896.352 988.599 L876.427 988.599 L856.502 988.599 L836.577 988.599 L816.652 988.599 L796.727 988.599 L776.802 988.599 L756.877 988.599 L736.951 988.599 L717.026 988.599 L697.101 988.599 L677.176 988.599 L657.251 988.599 L637.326 988.599 L617.401 988.599 L597.476 988.599 L577.551 988.599 L557.626 988.599 L537.701 988.599 L517.776 988.599 L497.851 988.599 L477.926 988.599 L458.001 988.599 L438.076 988.599 L418.151 988.599 L398.226 988.599 L378.301 988.599 L358.376 988.599 L338.451 988.599 L318.526 988.599 L298.601 988.599 L278.676 988.599 L258.751 988.599  Z" fill="#0000ff" fill-rule="evenodd" fill-opacity="0.5"/>
<polyline clip-path="url(#clip853)" style="stroke:#0000ff; stroke-linecap:round; stroke-linejoin:round; stroke-width:4; stroke-opacity:1; fill:none" points="258.751,988.599 278.676,988.805 298.601,989.424 318.526,990.455 338.451,991.9 358.376,1048.82 378.301,1106.16 398.226,1163.91 418.151,1222.07 438.076,1185.07 458.001,1148.47 477.926,1112.29 497.851,1076.52 517.776,1041.17 537.701,1006.22 557.626,971.693 577.551,937.575 597.476,903.869 617.401,870.576 637.326,837.696 657.251,805.228 677.176,836.374 697.101,867.933 717.026,899.904 736.951,932.288 756.877,965.084 776.802,998.294 796.727,1031.92 816.652,1065.95 836.577,1100.4 856.502,1135.26 876.427,1170.53 896.352,1206.21 916.277,1138.27 936.202,1070.73 956.127,1003.61 976.052,936.904 995.977,933.81 1015.9,931.128 1035.83,928.858 1055.75,927.001 1075.68,925.557 1095.6,924.525 1115.53,923.907 1135.45,923.7 1155.38,923.907 1175.3,924.525 1195.23,925.557 1215.15,927.001 1235.08,928.858 1255,931.128 1274.93,933.81 1294.85,936.904 1314.78,1003.61 1334.7,1070.73 1354.63,1138.27 1374.55,1206.21 1394.48,1170.53 1414.4,1135.26 1434.33,1100.4 1454.25,1065.95 1474.18,1031.92 1494.1,998.294 1514.03,965.084 1533.95,932.288 1553.88,899.904 1573.8,867.933 1593.73,836.374 1613.65,805.228 1633.58,837.696 1653.5,870.576 1673.43,903.869 1693.35,937.575 1713.28,971.693 1733.2,1006.22 1753.13,1041.17 1773.05,1076.52 1792.98,1112.29 1812.9,1148.47 1832.83,1185.07 1852.75,1222.07 1872.68,1163.91 1892.6,1106.16 1912.53,1048.82 1932.45,991.9 1952.38,990.455 1972.3,989.424 1992.23,988.805 2012.15,988.599 "/>
</svg>
