<?xml version="1.0" encoding="utf-8"?>
<svg xmlns="http://www.w3.org/2000/svg" xmlns:xlink="http://www.w3.org/1999/xlink" width="721" height="400" viewBox="0 0 2884 1600">
<defs>
  <clipPath id="clip390">
    <rect x="0" y="0" width="2884" height="1600"/>
  </clipPath>
</defs>
<path clip-path="url(#clip390)" d="M0 1600 L2884 1600 L2884 0 L0 0  Z" fill="#ffffff" fill-rule="evenodd" fill-opacity="1"/>
<defs>
  <clipPath id="clip391">
    <rect x="576" y="0" width="2020" height="1600"/>
  </clipPath>
</defs>
<path clip-path="url(#clip390)" d="M213.869 692.248 L2405.23 692.248 L2405.23 113.322 L213.869 113.322  Z" fill="#ffffff" fill-rule="evenodd" fill-opacity="1"/>
<defs>
  <clipPath id="clip392">
    <rect x="213" y="113" width="2192" height="580"/>
  </clipPath>
</defs>
<polyline clip-path="url(#clip392)" style="stroke:#000000; stroke-linecap:round; stroke-linejoin:round; stroke-width:2; stroke-opacity:0.1; fill:none" points="275.888,692.248 275.888,113.322 "/>
<polyline clip-path="url(#clip392)" style="stroke:#000000; stroke-linecap:round; stroke-linejoin:round; stroke-width:2; stroke-opacity:0.1; fill:none" points="745.735,692.248 745.735,113.322 "/>
<polyline clip-path="url(#clip392)" style="stroke:#000000; stroke-linecap:round; stroke-linejoin:round; stroke-width:2; stroke-opacity:0.1; fill:none" points="1215.58,692.248 1215.58,113.322 "/>
<polyline clip-path="url(#clip392)" style="stroke:#000000; stroke-linecap:round; stroke-linejoin:round; stroke-width:2; stroke-opacity:0.1; fill:none" points="1685.43,692.248 1685.43,113.322 "/>
<polyline clip-path="url(#clip392)" style="stroke:#000000; stroke-linecap:round; stroke-linejoin:round; stroke-width:2; stroke-opacity:0.1; fill:none" points="2155.27,692.248 2155.27,113.322 "/>
<polyline clip-path="url(#clip392)" style="stroke:#000000; stroke-linecap:round; stroke-linejoin:round; stroke-width:2; stroke-opacity:0.1; fill:none" points="213.869,603.443 2405.23,603.443 "/>
<polyline clip-path="url(#clip392)" style="stroke:#000000; stroke-linecap:round; stroke-linejoin:round; stroke-width:2; stroke-opacity:0.1; fill:none" points="213.869,502.967 2405.23,502.967 "/>
<polyline clip-path="url(#clip392)" style="stroke:#000000; stroke-linecap:round; stroke-linejoin:round; stroke-width:2; stroke-opacity:0.1; fill:none" points="213.869,402.49 2405.23,402.49 "/>
<polyline clip-path="url(#clip392)" style="stroke:#000000; stroke-linecap:round; stroke-linejoin:round; stroke-width:2; stroke-opacity:0.1; fill:none" points="213.869,302.013 2405.23,302.013 "/>
<polyline clip-path="url(#clip392)" style="stroke:#000000; stroke-linecap:round; stroke-linejoin:round; stroke-width:2; stroke-opacity:0.1; fill:none" points="213.869,201.536 2405.23,201.536 "/>
<polyline clip-path="url(#clip390)" style="stroke:#000000; stroke-linecap:round; stroke-linejoin:round; stroke-width:4; stroke-opacity:1; fill:none" points="213.869,692.248 2405.23,692.248 "/>
<polyline clip-path="url(#clip390)" style="stroke:#000000; stroke-linecap:round; stroke-linejoin:round; stroke-width:4; stroke-opacity:1; fill:none" points="275.888,692.248 275.888,673.35 "/>
<polyline clip-path="url(#clip390)" style="stroke:#000000; stroke-linecap:round; stroke-linejoin:round; stroke-width:4; stroke-opacity:1; fill:none" points="745.735,692.248 745.735,673.35 "/>
<polyline clip-path="url(#clip390)" style="stroke:#000000; stroke-linecap:round; stroke-linejoin:round; stroke-width:4; stroke-opacity:1; fill:none" points="1215.58,692.248 1215.58,673.35 "/>
<polyline clip-path="url(#clip390)" style="stroke:#000000; stroke-linecap:round; stroke-linejoin:round; stroke-width:4; stroke-opacity:1; fill:none" points="1685.43,692.248 1685.43,673.35 "/>
<polyline clip-path="url(#clip390)" style="stroke:#000000; stroke-linecap:round; stroke-linejoin:round; stroke-width:4; stroke-opacity:1; fill:none" points="2155.27,692.248 2155.27,673.35 "/>
<path clip-path="url(#clip390)" d="M275.888 727.039 Q272.277 727.039 270.448 730.603 Q268.643 734.145 268.643 741.275 Q268.643 748.381 270.448 751.946 Q272.277 755.487 275.888 755.487 Q279.522 755.487 281.328 751.946 Q283.157 748.381 283.157 741.275 Q283.157 734.145 281.328 730.603 Q279.522 727.039 275.888 727.039 M275.888 723.335 Q281.698 723.335 284.754 727.941 Q287.833 732.525 287.833 741.275 Q287.833 750.001 284.754 754.608 Q281.698 759.191 275.888 759.191 Q270.078 759.191 266.999 754.608 Q263.944 750.001 263.944 741.275 Q263.944 732.525 266.999 727.941 Q270.078 723.335 275.888 723.335 Z" fill="#000000" fill-rule="nonzero" fill-opacity="1" /><path clip-path="url(#clip390)" d="M720.422 754.585 L728.061 754.585 L728.061 728.219 L719.751 729.886 L719.751 725.626 L728.015 723.96 L732.691 723.96 L732.691 754.585 L740.33 754.585 L740.33 758.52 L720.422 758.52 L720.422 754.585 Z" fill="#000000" fill-rule="nonzero" fill-opacity="1" /><path clip-path="url(#clip390)" d="M759.774 727.039 Q756.163 727.039 754.334 730.603 Q752.529 734.145 752.529 741.275 Q752.529 748.381 754.334 751.946 Q756.163 755.487 759.774 755.487 Q763.408 755.487 765.214 751.946 Q767.042 748.381 767.042 741.275 Q767.042 734.145 765.214 730.603 Q763.408 727.039 759.774 727.039 M759.774 723.335 Q765.584 723.335 768.64 727.941 Q771.718 732.525 771.718 741.275 Q771.718 750.001 768.64 754.608 Q765.584 759.191 759.774 759.191 Q753.964 759.191 750.885 754.608 Q747.83 750.001 747.83 741.275 Q747.83 732.525 750.885 727.941 Q753.964 723.335 759.774 723.335 Z" fill="#000000" fill-rule="nonzero" fill-opacity="1" /><path clip-path="url(#clip390)" d="M1194.35 754.585 L1210.67 754.585 L1210.67 758.52 L1188.73 758.52 L1188.73 754.585 Q1191.39 751.83 1195.97 747.2 Q1200.58 742.548 1201.76 741.205 Q1204.01 738.682 1204.89 736.946 Q1205.79 735.187 1205.79 733.497 Q1205.79 730.742 1203.85 729.006 Q1201.92 727.27 1198.82 727.27 Q1196.62 727.27 1194.17 728.034 Q1191.74 728.798 1188.96 730.349 L1188.96 725.626 Q1191.79 724.492 1194.24 723.914 Q1196.69 723.335 1198.73 723.335 Q1204.1 723.335 1207.29 726.02 Q1210.49 728.705 1210.49 733.196 Q1210.49 735.325 1209.68 737.247 Q1208.89 739.145 1206.78 741.738 Q1206.21 742.409 1203.1 745.626 Q1200 748.821 1194.35 754.585 Z" fill="#000000" fill-rule="nonzero" fill-opacity="1" /><path clip-path="url(#clip390)" d="M1230.49 727.039 Q1226.88 727.039 1225.05 730.603 Q1223.24 734.145 1223.24 741.275 Q1223.24 748.381 1225.05 751.946 Q1226.88 755.487 1230.49 755.487 Q1234.12 755.487 1235.93 751.946 Q1237.76 748.381 1237.76 741.275 Q1237.76 734.145 1235.93 730.603 Q1234.12 727.039 1230.49 727.039 M1230.49 723.335 Q1236.3 723.335 1239.35 727.941 Q1242.43 732.525 1242.43 741.275 Q1242.43 750.001 1239.35 754.608 Q1236.3 759.191 1230.49 759.191 Q1224.68 759.191 1221.6 754.608 Q1218.54 750.001 1218.54 741.275 Q1218.54 732.525 1221.6 727.941 Q1224.68 723.335 1230.49 723.335 Z" fill="#000000" fill-rule="nonzero" fill-opacity="1" /><path clip-path="url(#clip390)" d="M1674.27 739.886 Q1677.63 740.603 1679.5 742.872 Q1681.4 745.14 1681.4 748.474 Q1681.4 753.589 1677.88 756.39 Q1674.36 759.191 1667.88 759.191 Q1665.71 759.191 1663.39 758.751 Q1661.1 758.335 1658.65 757.478 L1658.65 752.964 Q1660.59 754.099 1662.9 754.677 Q1665.22 755.256 1667.74 755.256 Q1672.14 755.256 1674.43 753.52 Q1676.75 751.784 1676.75 748.474 Q1676.75 745.418 1674.59 743.705 Q1672.46 741.969 1668.65 741.969 L1664.62 741.969 L1664.62 738.126 L1668.83 738.126 Q1672.28 738.126 1674.11 736.761 Q1675.94 735.372 1675.94 732.779 Q1675.94 730.117 1674.04 728.705 Q1672.16 727.27 1668.65 727.27 Q1666.72 727.27 1664.53 727.687 Q1662.33 728.103 1659.69 728.983 L1659.69 724.816 Q1662.35 724.076 1664.66 723.705 Q1667 723.335 1669.06 723.335 Q1674.39 723.335 1677.49 725.765 Q1680.59 728.173 1680.59 732.293 Q1680.59 735.163 1678.95 737.154 Q1677.3 739.122 1674.27 739.886 Z" fill="#000000" fill-rule="nonzero" fill-opacity="1" /><path clip-path="url(#clip390)" d="M1700.27 727.039 Q1696.65 727.039 1694.83 730.603 Q1693.02 734.145 1693.02 741.275 Q1693.02 748.381 1694.83 751.946 Q1696.65 755.487 1700.27 755.487 Q1703.9 755.487 1705.71 751.946 Q1707.53 748.381 1707.53 741.275 Q1707.53 734.145 1705.71 730.603 Q1703.9 727.039 1700.27 727.039 M1700.27 723.335 Q1706.08 723.335 1709.13 727.941 Q1712.21 732.525 1712.21 741.275 Q1712.21 750.001 1709.13 754.608 Q1706.08 759.191 1700.27 759.191 Q1694.46 759.191 1691.38 754.608 Q1688.32 750.001 1688.32 741.275 Q1688.32 732.525 1691.38 727.941 Q1694.46 723.335 1700.27 723.335 Z" fill="#000000" fill-rule="nonzero" fill-opacity="1" /><path clip-path="url(#clip390)" d="M2143.45 728.034 L2131.64 746.483 L2143.45 746.483 L2143.45 728.034 M2142.22 723.96 L2148.1 723.96 L2148.1 746.483 L2153.03 746.483 L2153.03 750.372 L2148.1 750.372 L2148.1 758.52 L2143.45 758.52 L2143.45 750.372 L2127.84 750.372 L2127.84 745.858 L2142.22 723.96 Z" fill="#000000" fill-rule="nonzero" fill-opacity="1" /><path clip-path="url(#clip390)" d="M2170.76 727.039 Q2167.15 727.039 2165.32 730.603 Q2163.51 734.145 2163.51 741.275 Q2163.51 748.381 2165.32 751.946 Q2167.15 755.487 2170.76 755.487 Q2174.39 755.487 2176.2 751.946 Q2178.03 748.381 2178.03 741.275 Q2178.03 734.145 2176.2 730.603 Q2174.39 727.039 2170.76 727.039 M2170.76 723.335 Q2176.57 723.335 2179.63 727.941 Q2182.7 732.525 2182.7 741.275 Q2182.7 750.001 2179.63 754.608 Q2176.57 759.191 2170.76 759.191 Q2164.95 759.191 2161.87 754.608 Q2158.82 750.001 2158.82 741.275 Q2158.82 732.525 2161.87 727.941 Q2164.95 723.335 2170.76 723.335 Z" fill="#000000" fill-rule="nonzero" fill-opacity="1" /><polyline clip-path="url(#clip390)" style="stroke:#000000; stroke-linecap:round; stroke-linejoin:round; stroke-width:4; stroke-opacity:1; fill:none" points="213.869,692.248 213.869,113.322 "/>
<polyline clip-path="url(#clip390)" style="stroke:#000000; stroke-linecap:round; stroke-linejoin:round; stroke-width:4; stroke-opacity:1; fill:none" points="213.869,603.443 229.657,603.443 "/>
<polyline clip-path="url(#clip390)" style="stroke:#000000; stroke-linecap:round; stroke-linejoin:round; stroke-width:4; stroke-opacity:1; fill:none" points="213.869,502.967 229.657,502.967 "/>
<polyline clip-path="url(#clip390)" style="stroke:#000000; stroke-linecap:round; stroke-linejoin:round; stroke-width:4; stroke-opacity:1; fill:none" points="213.869,402.49 229.657,402.49 "/>
<polyline clip-path="url(#clip390)" style="stroke:#000000; stroke-linecap:round; stroke-linejoin:round; stroke-width:4; stroke-opacity:1; fill:none" points="213.869,302.013 229.657,302.013 "/>
<polyline clip-path="url(#clip390)" style="stroke:#000000; stroke-linecap:round; stroke-linejoin:round; stroke-width:4; stroke-opacity:1; fill:none" points="213.869,201.536 229.657,201.536 "/>
<path clip-path="url(#clip390)" d="M48.5721 603.895 L78.2479 603.895 L78.2479 607.83 L48.5721 607.83 L48.5721 603.895 Z" fill="#000000" fill-rule="nonzero" fill-opacity="1" /><path clip-path="url(#clip390)" d="M92.3682 616.788 L108.688 616.788 L108.688 620.723 L86.7432 620.723 L86.7432 616.788 Q89.4052 614.034 93.9885 609.404 Q98.595 604.751 99.7756 603.409 Q102.021 600.885 102.901 599.149 Q103.803 597.39 103.803 595.7 Q103.803 592.946 101.859 591.21 Q99.9376 589.474 96.8358 589.474 Q94.6367 589.474 92.183 590.237 Q89.7525 591.001 86.9747 592.552 L86.9747 587.83 Q89.7988 586.696 92.2524 586.117 Q94.7061 585.538 96.7432 585.538 Q102.114 585.538 105.308 588.224 Q108.502 590.909 108.502 595.399 Q108.502 597.529 107.692 599.45 Q106.905 601.348 104.799 603.941 Q104.22 604.612 101.118 607.83 Q98.0163 611.024 92.3682 616.788 Z" fill="#000000" fill-rule="nonzero" fill-opacity="1" /><path clip-path="url(#clip390)" d="M128.502 589.242 Q124.891 589.242 123.062 592.807 Q121.257 596.348 121.257 603.478 Q121.257 610.585 123.062 614.149 Q124.891 617.691 128.502 617.691 Q132.136 617.691 133.942 614.149 Q135.771 610.585 135.771 603.478 Q135.771 596.348 133.942 592.807 Q132.136 589.242 128.502 589.242 M128.502 585.538 Q134.312 585.538 137.368 590.145 Q140.447 594.728 140.447 603.478 Q140.447 612.205 137.368 616.811 Q134.312 621.395 128.502 621.395 Q122.692 621.395 119.613 616.811 Q116.558 612.205 116.558 603.478 Q116.558 594.728 119.613 590.145 Q122.692 585.538 128.502 585.538 Z" fill="#000000" fill-rule="nonzero" fill-opacity="1" /><path clip-path="url(#clip390)" d="M158.664 589.242 Q155.053 589.242 153.224 592.807 Q151.419 596.348 151.419 603.478 Q151.419 610.585 153.224 614.149 Q155.053 617.691 158.664 617.691 Q162.298 617.691 164.104 614.149 Q165.933 610.585 165.933 603.478 Q165.933 596.348 164.104 592.807 Q162.298 589.242 158.664 589.242 M158.664 585.538 Q164.474 585.538 167.53 590.145 Q170.609 594.728 170.609 603.478 Q170.609 612.205 167.53 616.811 Q164.474 621.395 158.664 621.395 Q152.854 621.395 149.775 616.811 Q146.72 612.205 146.72 603.478 Q146.72 594.728 149.775 590.145 Q152.854 585.538 158.664 585.538 Z" fill="#000000" fill-rule="nonzero" fill-opacity="1" /><path clip-path="url(#clip390)" d="M48.5721 503.418 L78.2479 503.418 L78.2479 507.353 L48.5721 507.353 L48.5721 503.418 Z" fill="#000000" fill-rule="nonzero" fill-opacity="1" /><path clip-path="url(#clip390)" d="M89.1506 516.311 L96.7895 516.311 L96.7895 489.946 L88.4793 491.612 L88.4793 487.353 L96.7432 485.687 L101.419 485.687 L101.419 516.311 L109.058 516.311 L109.058 520.247 L89.1506 520.247 L89.1506 516.311 Z" fill="#000000" fill-rule="nonzero" fill-opacity="1" /><path clip-path="url(#clip390)" d="M128.502 488.765 Q124.891 488.765 123.062 492.33 Q121.257 495.872 121.257 503.001 Q121.257 510.108 123.062 513.672 Q124.891 517.214 128.502 517.214 Q132.136 517.214 133.942 513.672 Q135.771 510.108 135.771 503.001 Q135.771 495.872 133.942 492.33 Q132.136 488.765 128.502 488.765 M128.502 485.062 Q134.312 485.062 137.368 489.668 Q140.447 494.251 140.447 503.001 Q140.447 511.728 137.368 516.334 Q134.312 520.918 128.502 520.918 Q122.692 520.918 119.613 516.334 Q116.558 511.728 116.558 503.001 Q116.558 494.251 119.613 489.668 Q122.692 485.062 128.502 485.062 Z" fill="#000000" fill-rule="nonzero" fill-opacity="1" /><path clip-path="url(#clip390)" d="M158.664 488.765 Q155.053 488.765 153.224 492.33 Q151.419 495.872 151.419 503.001 Q151.419 510.108 153.224 513.672 Q155.053 517.214 158.664 517.214 Q162.298 517.214 164.104 513.672 Q165.933 510.108 165.933 503.001 Q165.933 495.872 164.104 492.33 Q162.298 488.765 158.664 488.765 M158.664 485.062 Q164.474 485.062 167.53 489.668 Q170.609 494.251 170.609 503.001 Q170.609 511.728 167.53 516.334 Q164.474 520.918 158.664 520.918 Q152.854 520.918 149.775 516.334 Q146.72 511.728 146.72 503.001 Q146.72 494.251 149.775 489.668 Q152.854 485.062 158.664 485.062 Z" fill="#000000" fill-rule="nonzero" fill-opacity="1" /><path clip-path="url(#clip390)" d="M158.664 388.288 Q155.053 388.288 153.224 391.853 Q151.419 395.395 151.419 402.524 Q151.419 409.631 153.224 413.196 Q155.053 416.737 158.664 416.737 Q162.298 416.737 164.104 413.196 Q165.933 409.631 165.933 402.524 Q165.933 395.395 164.104 391.853 Q162.298 388.288 158.664 388.288 M158.664 384.585 Q164.474 384.585 167.53 389.191 Q170.609 393.774 170.609 402.524 Q170.609 411.251 167.53 415.858 Q164.474 420.441 158.664 420.441 Q152.854 420.441 149.775 415.858 Q146.72 411.251 146.72 402.524 Q146.72 393.774 149.775 389.191 Q152.854 384.585 158.664 384.585 Z" fill="#000000" fill-rule="nonzero" fill-opacity="1" /><path clip-path="url(#clip390)" d="M89.1506 315.358 L96.7895 315.358 L96.7895 288.992 L88.4793 290.659 L88.4793 286.399 L96.7432 284.733 L101.419 284.733 L101.419 315.358 L109.058 315.358 L109.058 319.293 L89.1506 319.293 L89.1506 315.358 Z" fill="#000000" fill-rule="nonzero" fill-opacity="1" /><path clip-path="url(#clip390)" d="M128.502 287.811 Q124.891 287.811 123.062 291.376 Q121.257 294.918 121.257 302.048 Q121.257 309.154 123.062 312.719 Q124.891 316.26 128.502 316.26 Q132.136 316.26 133.942 312.719 Q135.771 309.154 135.771 302.048 Q135.771 294.918 133.942 291.376 Q132.136 287.811 128.502 287.811 M128.502 284.108 Q134.312 284.108 137.368 288.714 Q140.447 293.298 140.447 302.048 Q140.447 310.774 137.368 315.381 Q134.312 319.964 128.502 319.964 Q122.692 319.964 119.613 315.381 Q116.558 310.774 116.558 302.048 Q116.558 293.298 119.613 288.714 Q122.692 284.108 128.502 284.108 Z" fill="#000000" fill-rule="nonzero" fill-opacity="1" /><path clip-path="url(#clip390)" d="M158.664 287.811 Q155.053 287.811 153.224 291.376 Q151.419 294.918 151.419 302.048 Q151.419 309.154 153.224 312.719 Q155.053 316.26 158.664 316.26 Q162.298 316.26 164.104 312.719 Q165.933 309.154 165.933 302.048 Q165.933 294.918 164.104 291.376 Q162.298 287.811 158.664 287.811 M158.664 284.108 Q164.474 284.108 167.53 288.714 Q170.609 293.298 170.609 302.048 Q170.609 310.774 167.53 315.381 Q164.474 319.964 158.664 319.964 Q152.854 319.964 149.775 315.381 Q146.72 310.774 146.72 302.048 Q146.72 293.298 149.775 288.714 Q152.854 284.108 158.664 284.108 Z" fill="#000000" fill-rule="nonzero" fill-opacity="1" /><path clip-path="url(#clip390)" d="M92.3682 214.881 L108.688 214.881 L108.688 218.816 L86.7432 218.816 L86.7432 214.881 Q89.4052 212.126 93.9885 207.497 Q98.595 202.844 99.7756 201.501 Q102.021 198.978 102.901 197.242 Q103.803 195.483 103.803 193.793 Q103.803 191.038 101.859 189.302 Q99.9376 187.566 96.8358 187.566 Q94.6367 187.566 92.183 188.33 Q89.7525 189.094 86.9747 190.645 L86.9747 185.923 Q89.7988 184.788 92.2524 184.21 Q94.7061 183.631 96.7432 183.631 Q102.114 183.631 105.308 186.316 Q108.502 189.001 108.502 193.492 Q108.502 195.622 107.692 197.543 Q106.905 199.441 104.799 202.034 Q104.22 202.705 101.118 205.923 Q98.0163 209.117 92.3682 214.881 Z" fill="#000000" fill-rule="nonzero" fill-opacity="1" /><path clip-path="url(#clip390)" d="M128.502 187.335 Q124.891 187.335 123.062 190.899 Q121.257 194.441 121.257 201.571 Q121.257 208.677 123.062 212.242 Q124.891 215.784 128.502 215.784 Q132.136 215.784 133.942 212.242 Q135.771 208.677 135.771 201.571 Q135.771 194.441 133.942 190.899 Q132.136 187.335 128.502 187.335 M128.502 183.631 Q134.312 183.631 137.368 188.237 Q140.447 192.821 140.447 201.571 Q140.447 210.297 137.368 214.904 Q134.312 219.487 128.502 219.487 Q122.692 219.487 119.613 214.904 Q116.558 210.297 116.558 201.571 Q116.558 192.821 119.613 188.237 Q122.692 183.631 128.502 183.631 Z" fill="#000000" fill-rule="nonzero" fill-opacity="1" /><path clip-path="url(#clip390)" d="M158.664 187.335 Q155.053 187.335 153.224 190.899 Q151.419 194.441 151.419 201.571 Q151.419 208.677 153.224 212.242 Q155.053 215.784 158.664 215.784 Q162.298 215.784 164.104 212.242 Q165.933 208.677 165.933 201.571 Q165.933 194.441 164.104 190.899 Q162.298 187.335 158.664 187.335 M158.664 183.631 Q164.474 183.631 167.53 188.237 Q170.609 192.821 170.609 201.571 Q170.609 210.297 167.53 214.904 Q164.474 219.487 158.664 219.487 Q152.854 219.487 149.775 214.904 Q146.72 210.297 146.72 201.571 Q146.72 192.821 149.775 188.237 Q152.854 183.631 158.664 183.631 Z" fill="#000000" fill-rule="nonzero" fill-opacity="1" /><path clip-path="url(#clip390)" d="M800.635 14.0809 L800.635 22.0612 Q795.977 19.8332 791.845 18.7395 Q787.713 17.6457 783.865 17.6457 Q777.181 17.6457 773.535 20.2383 Q769.93 22.8309 769.93 27.611 Q769.93 31.6214 772.32 33.6873 Q774.75 35.7128 781.475 36.9686 L786.417 37.9813 Q795.572 39.7232 799.906 44.1387 Q804.281 48.5136 804.281 55.8863 Q804.281 64.6767 798.367 69.2137 Q792.493 73.7508 781.11 73.7508 Q776.816 73.7508 771.955 72.7785 Q767.134 71.8063 761.949 69.9024 L761.949 61.4765 Q766.932 64.2716 771.712 65.6895 Q776.492 67.1073 781.11 67.1073 Q788.118 67.1073 791.926 64.3527 Q795.734 61.598 795.734 56.4939 Q795.734 52.0379 792.979 49.5264 Q790.265 47.0148 784.027 45.759 L779.044 44.7868 Q769.889 42.9639 765.798 39.075 Q761.706 35.1862 761.706 28.2591 Q761.706 20.2383 767.337 15.6203 Q773.008 11.0023 782.933 11.0023 Q787.186 11.0023 791.602 11.7719 Q796.017 12.5416 800.635 14.0809 Z" fill="#000000" fill-rule="nonzero" fill-opacity="1" /><path clip-path="url(#clip390)" d="M854.431 45.1919 L854.431 72.576 L846.978 72.576 L846.978 45.4349 Q846.978 38.994 844.466 35.7938 Q841.955 32.5936 836.931 32.5936 Q830.896 32.5936 827.412 36.4419 Q823.928 40.2903 823.928 46.9338 L823.928 72.576 L816.434 72.576 L816.434 9.54393 L823.928 9.54393 L823.928 34.2544 Q826.602 30.163 830.207 28.1376 Q833.853 26.1121 838.592 26.1121 Q846.411 26.1121 850.421 30.9732 Q854.431 35.7938 854.431 45.1919 Z" fill="#000000" fill-rule="nonzero" fill-opacity="1" /><path clip-path="url(#clip390)" d="M908.106 48.0275 L908.106 51.6733 L873.835 51.6733 Q874.321 59.3701 878.453 63.421 Q882.626 67.4314 890.039 67.4314 Q894.333 67.4314 898.343 66.3781 Q902.394 65.3249 906.364 63.2184 L906.364 70.267 Q902.354 71.9684 898.141 72.8596 Q893.928 73.7508 889.593 73.7508 Q878.737 73.7508 872.377 67.4314 Q866.057 61.1119 866.057 50.3365 Q866.057 39.1965 872.053 32.6746 Q878.089 26.1121 888.297 26.1121 Q897.452 26.1121 902.759 32.0264 Q908.106 37.9003 908.106 48.0275 M900.652 45.84 Q900.571 39.7232 897.209 36.0774 Q893.887 32.4315 888.378 32.4315 Q882.14 32.4315 878.372 35.9558 Q874.645 39.4801 874.078 45.8805 L900.652 45.84 Z" fill="#000000" fill-rule="nonzero" fill-opacity="1" /><path clip-path="url(#clip390)" d="M940.959 49.7694 Q931.925 49.7694 928.441 51.8354 Q924.958 53.9013 924.958 58.8839 Q924.958 62.8538 927.55 65.2034 Q930.183 67.5124 934.68 67.5124 Q940.878 67.5124 944.605 63.1374 Q948.372 58.7219 948.372 51.4303 L948.372 49.7694 L940.959 49.7694 M955.826 46.6907 L955.826 72.576 L948.372 72.576 L948.372 65.6895 Q945.82 69.8214 942.012 71.8063 Q938.204 73.7508 932.695 73.7508 Q925.727 73.7508 921.595 69.8619 Q917.504 65.9325 917.504 59.3701 Q917.504 51.7138 922.608 47.825 Q927.753 43.9361 937.921 43.9361 L948.372 43.9361 L948.372 43.2069 Q948.372 38.0623 944.969 35.2672 Q941.607 32.4315 935.49 32.4315 Q931.601 32.4315 927.915 33.3632 Q924.228 34.295 920.826 36.1584 L920.826 29.2718 Q924.917 27.692 928.765 26.9223 Q932.614 26.1121 936.26 26.1121 Q946.103 26.1121 950.964 31.2163 Q955.826 36.3204 955.826 46.6907 Z" fill="#000000" fill-rule="nonzero" fill-opacity="1" /><path clip-path="url(#clip390)" d="M997.469 34.1734 Q996.213 33.4443 994.714 33.1202 Q993.256 32.7556 991.473 32.7556 Q985.154 32.7556 981.751 36.8875 Q978.389 40.9789 978.389 48.6757 L978.389 72.576 L970.895 72.576 L970.895 27.2059 L978.389 27.2059 L978.389 34.2544 Q980.739 30.1225 984.506 28.1376 Q988.273 26.1121 993.661 26.1121 Q994.431 26.1121 995.362 26.2337 Q996.294 26.3147 997.428 26.5172 L997.469 34.1734 Z" fill="#000000" fill-rule="nonzero" fill-opacity="1" /><path clip-path="url(#clip390)" d="M1031.98 12.096 L1070.22 12.096 L1070.22 18.9825 L1040.17 18.9825 L1040.17 36.8875 L1068.97 36.8875 L1068.97 43.7741 L1040.17 43.7741 L1040.17 65.6895 L1070.95 65.6895 L1070.95 72.576 L1031.98 72.576 L1031.98 12.096 Z" fill="#000000" fill-rule="nonzero" fill-opacity="1" /><path clip-path="url(#clip390)" d="M1121.79 45.1919 L1121.79 72.576 L1114.34 72.576 L1114.34 45.4349 Q1114.34 38.994 1111.83 35.7938 Q1109.31 32.5936 1104.29 32.5936 Q1098.26 32.5936 1094.77 36.4419 Q1091.29 40.2903 1091.29 46.9338 L1091.29 72.576 L1083.79 72.576 L1083.79 27.2059 L1091.29 27.2059 L1091.29 34.2544 Q1093.96 30.163 1097.57 28.1376 Q1101.21 26.1121 1105.95 26.1121 Q1113.77 26.1121 1117.78 30.9732 Q1121.79 35.7938 1121.79 45.1919 Z" fill="#000000" fill-rule="nonzero" fill-opacity="1" /><path clip-path="url(#clip390)" d="M1131.31 27.2059 L1139.21 27.2059 L1153.39 65.2844 L1167.57 27.2059 L1175.47 27.2059 L1158.45 72.576 L1148.32 72.576 L1131.31 27.2059 Z" fill="#000000" fill-rule="nonzero" fill-opacity="1" /><path clip-path="url(#clip390)" d="M1224.56 48.0275 L1224.56 51.6733 L1190.29 51.6733 Q1190.78 59.3701 1194.91 63.421 Q1199.08 67.4314 1206.5 67.4314 Q1210.79 67.4314 1214.8 66.3781 Q1218.85 65.3249 1222.82 63.2184 L1222.82 70.267 Q1218.81 71.9684 1214.6 72.8596 Q1210.38 73.7508 1206.05 73.7508 Q1195.19 73.7508 1188.83 67.4314 Q1182.51 61.1119 1182.51 50.3365 Q1182.51 39.1965 1188.51 32.6746 Q1194.55 26.1121 1204.75 26.1121 Q1213.91 26.1121 1219.22 32.0264 Q1224.56 37.9003 1224.56 48.0275 M1217.11 45.84 Q1217.03 39.7232 1213.67 36.0774 Q1210.34 32.4315 1204.83 32.4315 Q1198.6 32.4315 1194.83 35.9558 Q1191.1 39.4801 1190.53 45.8805 L1217.11 45.84 Z" fill="#000000" fill-rule="nonzero" fill-opacity="1" /><path clip-path="url(#clip390)" d="M1236.8 9.54393 L1244.25 9.54393 L1244.25 72.576 L1236.8 72.576 L1236.8 9.54393 Z" fill="#000000" fill-rule="nonzero" fill-opacity="1" /><path clip-path="url(#clip390)" d="M1277.43 32.4315 Q1271.43 32.4315 1267.95 37.1306 Q1264.46 41.7891 1264.46 49.9314 Q1264.46 58.0738 1267.91 62.7728 Q1271.39 67.4314 1277.43 67.4314 Q1283.38 67.4314 1286.87 62.7323 Q1290.35 58.0333 1290.35 49.9314 Q1290.35 41.8701 1286.87 37.1711 Q1283.38 32.4315 1277.43 32.4315 M1277.43 26.1121 Q1287.15 26.1121 1292.7 32.4315 Q1298.25 38.7509 1298.25 49.9314 Q1298.25 61.0714 1292.7 67.4314 Q1287.15 73.7508 1277.43 73.7508 Q1267.66 73.7508 1262.11 67.4314 Q1256.61 61.0714 1256.61 49.9314 Q1256.61 38.7509 1262.11 32.4315 Q1267.66 26.1121 1277.43 26.1121 Z" fill="#000000" fill-rule="nonzero" fill-opacity="1" /><path clip-path="url(#clip390)" d="M1317.81 65.7705 L1317.81 89.8329 L1310.32 89.8329 L1310.32 27.2059 L1317.81 27.2059 L1317.81 34.0924 Q1320.16 30.0415 1323.73 28.0971 Q1327.33 26.1121 1332.32 26.1121 Q1340.58 26.1121 1345.73 32.6746 Q1350.91 39.2371 1350.91 49.9314 Q1350.91 60.6258 1345.73 67.1883 Q1340.58 73.7508 1332.32 73.7508 Q1327.33 73.7508 1323.73 71.8063 Q1320.16 69.8214 1317.81 65.7705 M1343.17 49.9314 Q1343.17 41.7081 1339.77 37.0496 Q1336.41 32.3505 1330.49 32.3505 Q1324.58 32.3505 1321.18 37.0496 Q1317.81 41.7081 1317.81 49.9314 Q1317.81 58.1548 1321.18 62.8538 Q1324.58 67.5124 1330.49 67.5124 Q1336.41 67.5124 1339.77 62.8538 Q1343.17 58.1548 1343.17 49.9314 Z" fill="#000000" fill-rule="nonzero" fill-opacity="1" /><path clip-path="url(#clip390)" d="M1402.07 48.0275 L1402.07 51.6733 L1367.8 51.6733 Q1368.29 59.3701 1372.42 63.421 Q1376.59 67.4314 1384.01 67.4314 Q1388.3 67.4314 1392.31 66.3781 Q1396.36 65.3249 1400.33 63.2184 L1400.33 70.267 Q1396.32 71.9684 1392.11 72.8596 Q1387.89 73.7508 1383.56 73.7508 Q1372.7 73.7508 1366.34 67.4314 Q1360.02 61.1119 1360.02 50.3365 Q1360.02 39.1965 1366.02 32.6746 Q1372.06 26.1121 1382.26 26.1121 Q1391.42 26.1121 1396.73 32.0264 Q1402.07 37.9003 1402.07 48.0275 M1394.62 45.84 Q1394.54 39.7232 1391.18 36.0774 Q1387.85 32.4315 1382.35 32.4315 Q1376.11 32.4315 1372.34 35.9558 Q1368.61 39.4801 1368.05 45.8805 L1394.62 45.84 Z" fill="#000000" fill-rule="nonzero" fill-opacity="1" /><path clip-path="url(#clip390)" d="M1449.19 18.8205 L1449.19 65.8515 L1459.07 65.8515 Q1471.59 65.8515 1477.38 60.1802 Q1483.21 54.509 1483.21 42.2752 Q1483.21 30.1225 1477.38 24.4918 Q1471.59 18.8205 1459.07 18.8205 L1449.19 18.8205 M1441 12.096 L1457.81 12.096 Q1475.39 12.096 1483.62 19.4281 Q1491.84 26.7198 1491.84 42.2752 Q1491.84 57.9117 1483.58 65.2439 Q1475.31 72.576 1457.81 72.576 L1441 72.576 L1441 12.096 Z" fill="#000000" fill-rule="nonzero" fill-opacity="1" /><path clip-path="url(#clip390)" d="M1504.56 27.2059 L1512.01 27.2059 L1512.01 72.576 L1504.56 72.576 L1504.56 27.2059 M1504.56 9.54393 L1512.01 9.54393 L1512.01 18.9825 L1504.56 18.9825 L1504.56 9.54393 Z" fill="#000000" fill-rule="nonzero" fill-opacity="1" /><path clip-path="url(#clip390)" d="M1550.58 9.54393 L1550.58 15.7418 L1543.45 15.7418 Q1539.44 15.7418 1537.86 17.3622 Q1536.32 18.9825 1536.32 23.1955 L1536.32 27.2059 L1548.59 27.2059 L1548.59 32.9987 L1536.32 32.9987 L1536.32 72.576 L1528.83 72.576 L1528.83 32.9987 L1521.7 32.9987 L1521.7 27.2059 L1528.83 27.2059 L1528.83 24.0462 Q1528.83 16.471 1532.35 13.0277 Q1535.87 9.54393 1543.53 9.54393 L1550.58 9.54393 Z" fill="#000000" fill-rule="nonzero" fill-opacity="1" /><path clip-path="url(#clip390)" d="M1579.79 9.54393 L1579.79 15.7418 L1572.66 15.7418 Q1568.65 15.7418 1567.07 17.3622 Q1565.53 18.9825 1565.53 23.1955 L1565.53 27.2059 L1577.8 27.2059 L1577.8 32.9987 L1565.53 32.9987 L1565.53 72.576 L1558.03 72.576 L1558.03 32.9987 L1550.9 32.9987 L1550.9 27.2059 L1558.03 27.2059 L1558.03 24.0462 Q1558.03 16.471 1561.56 13.0277 Q1565.08 9.54393 1572.74 9.54393 L1579.79 9.54393 Z" fill="#000000" fill-rule="nonzero" fill-opacity="1" /><path clip-path="url(#clip390)" d="M1624.83 48.0275 L1624.83 51.6733 L1590.56 51.6733 Q1591.05 59.3701 1595.18 63.421 Q1599.35 67.4314 1606.77 67.4314 Q1611.06 67.4314 1615.07 66.3781 Q1619.12 65.3249 1623.09 63.2184 L1623.09 70.267 Q1619.08 71.9684 1614.87 72.8596 Q1610.65 73.7508 1606.32 73.7508 Q1595.46 73.7508 1589.1 67.4314 Q1582.78 61.1119 1582.78 50.3365 Q1582.78 39.1965 1588.78 32.6746 Q1594.82 26.1121 1605.02 26.1121 Q1614.18 26.1121 1619.49 32.0264 Q1624.83 37.9003 1624.83 48.0275 M1617.38 45.84 Q1617.3 39.7232 1613.94 36.0774 Q1610.61 32.4315 1605.1 32.4315 Q1598.87 32.4315 1595.1 35.9558 Q1591.37 39.4801 1590.8 45.8805 L1617.38 45.84 Z" fill="#000000" fill-rule="nonzero" fill-opacity="1" /><path clip-path="url(#clip390)" d="M1663.36 34.1734 Q1662.1 33.4443 1660.6 33.1202 Q1659.14 32.7556 1657.36 32.7556 Q1651.04 32.7556 1647.64 36.8875 Q1644.28 40.9789 1644.28 48.6757 L1644.28 72.576 L1636.78 72.576 L1636.78 27.2059 L1644.28 27.2059 L1644.28 34.2544 Q1646.63 30.1225 1650.39 28.1376 Q1654.16 26.1121 1659.55 26.1121 Q1660.32 26.1121 1661.25 26.2337 Q1662.18 26.3147 1663.32 26.5172 L1663.36 34.1734 Z" fill="#000000" fill-rule="nonzero" fill-opacity="1" /><path clip-path="url(#clip390)" d="M1708.16 48.0275 L1708.16 51.6733 L1673.89 51.6733 Q1674.37 59.3701 1678.51 63.421 Q1682.68 67.4314 1690.09 67.4314 Q1694.39 67.4314 1698.4 66.3781 Q1702.45 65.3249 1706.42 63.2184 L1706.42 70.267 Q1702.41 71.9684 1698.19 72.8596 Q1693.98 73.7508 1689.65 73.7508 Q1678.79 73.7508 1672.43 67.4314 Q1666.11 61.1119 1666.11 50.3365 Q1666.11 39.1965 1672.11 32.6746 Q1678.14 26.1121 1688.35 26.1121 Q1697.51 26.1121 1702.81 32.0264 Q1708.16 37.9003 1708.16 48.0275 M1700.71 45.84 Q1700.62 39.7232 1697.26 36.0774 Q1693.94 32.4315 1688.43 32.4315 Q1682.19 32.4315 1678.43 35.9558 Q1674.7 39.4801 1674.13 45.8805 L1700.71 45.84 Z" fill="#000000" fill-rule="nonzero" fill-opacity="1" /><path clip-path="url(#clip390)" d="M1758.11 45.1919 L1758.11 72.576 L1750.65 72.576 L1750.65 45.4349 Q1750.65 38.994 1748.14 35.7938 Q1745.63 32.5936 1740.61 32.5936 Q1734.57 32.5936 1731.09 36.4419 Q1727.6 40.2903 1727.6 46.9338 L1727.6 72.576 L1720.11 72.576 L1720.11 27.2059 L1727.6 27.2059 L1727.6 34.2544 Q1730.28 30.163 1733.88 28.1376 Q1737.53 26.1121 1742.27 26.1121 Q1750.09 26.1121 1754.1 30.9732 Q1758.11 35.7938 1758.11 45.1919 Z" fill="#000000" fill-rule="nonzero" fill-opacity="1" /><path clip-path="url(#clip390)" d="M1805.62 28.9478 L1805.62 35.9153 Q1802.46 34.1734 1799.26 33.3227 Q1796.1 32.4315 1792.86 32.4315 Q1785.61 32.4315 1781.6 37.0496 Q1777.59 41.6271 1777.59 49.9314 Q1777.59 58.2358 1781.6 62.8538 Q1785.61 67.4314 1792.86 67.4314 Q1796.1 67.4314 1799.26 66.5807 Q1802.46 65.6895 1805.62 63.9476 L1805.62 70.8341 Q1802.51 72.2924 1799.14 73.0216 Q1795.82 73.7508 1792.05 73.7508 Q1781.8 73.7508 1775.77 67.3098 Q1769.73 60.8689 1769.73 49.9314 Q1769.73 38.832 1775.81 32.472 Q1781.93 26.1121 1792.54 26.1121 Q1795.98 26.1121 1799.26 26.8413 Q1802.55 27.5299 1805.62 28.9478 Z" fill="#000000" fill-rule="nonzero" fill-opacity="1" /><path clip-path="url(#clip390)" d="M1857.39 48.0275 L1857.39 51.6733 L1823.12 51.6733 Q1823.61 59.3701 1827.74 63.421 Q1831.91 67.4314 1839.33 67.4314 Q1843.62 67.4314 1847.63 66.3781 Q1851.68 65.3249 1855.65 63.2184 L1855.65 70.267 Q1851.64 71.9684 1847.43 72.8596 Q1843.22 73.7508 1838.88 73.7508 Q1828.03 73.7508 1821.67 67.4314 Q1815.35 61.1119 1815.35 50.3365 Q1815.35 39.1965 1821.34 32.6746 Q1827.38 26.1121 1837.59 26.1121 Q1846.74 26.1121 1852.05 32.0264 Q1857.39 37.9003 1857.39 48.0275 M1849.94 45.84 Q1849.86 39.7232 1846.5 36.0774 Q1843.18 32.4315 1837.67 32.4315 Q1831.43 32.4315 1827.66 35.9558 Q1823.93 39.4801 1823.37 45.8805 L1849.94 45.84 Z" fill="#000000" fill-rule="nonzero" fill-opacity="1" /><path clip-path="url(#clip392)" d="M275.888 402.791 L299.381 402.516 L322.873 402.442 L346.365 402.469 L369.858 487.901 L393.35 402.467 L416.842 402.494 L440.335 402.521 L463.827 616.73 L487.319 401.837 L510.811 401.763 L534.304 401.79 L557.796 401.816 L581.288 401.843 L604.781 401.769 L628.273 401.796 L651.765 401.822 L675.258 401.749 L698.75 401.775 L722.242 401.802 L745.735 579.572 L769.227 401.407 L792.719 401.433 L816.212 401.46 L839.704 401.487 L863.196 401.413 L886.689 401.439 L910.181 401.466 L933.673 401.493 L957.166 401.419 L980.658 401.445 L1004.15 401.472 L1027.64 670.207 L1051.13 380.458 L1074.63 380.485 L1098.12 380.512 L1121.61 580.487 L1145.1 409.702 L1168.6 409.729 L1192.09 409.755 L1215.58 409.682 L1239.07 409.708 L1262.57 409.735 L1286.06 409.761 L1309.55 409.688 L1333.04 409.714 L1356.54 409.741 L1380.03 409.768 L1403.52 409.694 L1427.01 409.72 L1450.5 409.747 L1474 409.673 L1497.49 507.665 L1520.98 399.856 L1544.47 399.882 L1567.97 399.909 L1591.46 646.498 L1614.95 398.347 L1638.44 398.273 L1661.94 398.3 L1685.43 398.326 L1708.92 398.353 L1732.41 398.279 L1755.9 398.306 L1779.4 398.332 L1802.89 398.258 L1826.38 398.285 L1849.87 398.312 L1873.37 591.153 L1896.86 401.928 L1920.35 401.954 L1943.84 401.88 L1967.34 401.907 L1990.83 401.934 L2014.32 401.96 L2037.81 401.886 L2061.3 401.913 L2084.8 401.94 L2108.29 401.866 L2131.78 401.892 L2155.27 675.863 L2178.77 404.1 L2202.26 404.026 L2225.75 404.053 L2249.24 566.651 L2272.74 402.51 L2296.23 402.537 L2319.72 402.463 L2343.21 402.188 L2343.21 402.49 L2319.72 402.49 L2296.23 402.49 L2272.74 402.49 L2249.24 402.49 L2225.75 402.49 L2202.26 402.49 L2178.77 402.49 L2155.27 402.49 L2131.78 402.49 L2108.29 402.49 L2084.8 402.49 L2061.3 402.49 L2037.81 402.49 L2014.32 402.49 L1990.83 402.49 L1967.34 402.49 L1943.84 402.49 L1920.35 402.49 L1896.86 402.49 L1873.37 402.49 L1849.87 402.49 L1826.38 402.49 L1802.89 402.49 L1779.4 402.49 L1755.9 402.49 L1732.41 402.49 L1708.92 402.49 L1685.43 402.49 L1661.94 402.49 L1638.44 402.49 L1614.95 402.49 L1591.46 402.49 L1567.97 402.49 L1544.47 402.49 L1520.98 402.49 L1497.49 402.49 L1474 402.49 L1450.5 402.49 L1427.01 402.49 L1403.52 402.49 L1380.03 402.49 L1356.54 402.49 L1333.04 402.49 L1309.55 402.49 L1286.06 402.49 L1262.57 402.49 L1239.07 402.49 L1215.58 402.49 L1192.09 402.49 L1168.6 402.49 L1145.1 402.49 L1121.61 402.49 L1098.12 402.49 L1074.63 402.49 L1051.13 402.49 L1027.64 402.49 L1004.15 402.49 L980.658 402.49 L957.166 402.49 L933.673 402.49 L910.181 402.49 L886.689 402.49 L863.196 402.49 L839.704 402.49 L816.212 402.49 L792.719 402.49 L769.227 402.49 L745.735 402.49 L722.242 402.49 L698.75 402.49 L675.258 402.49 L651.765 402.49 L628.273 402.49 L604.781 402.49 L581.288 402.49 L557.796 402.49 L534.304 402.49 L510.811 402.49 L487.319 402.49 L463.827 402.49 L440.335 402.49 L416.842 402.49 L393.35 402.49 L369.858 402.49 L346.365 402.49 L322.873 402.49 L299.381 402.49 L275.888 402.49  Z" fill="#0000ff" fill-rule="evenodd" fill-opacity="0.5"/>
<polyline clip-path="url(#clip392)" style="stroke:#0000ff; stroke-linecap:round; stroke-linejoin:round; stroke-width:4; stroke-opacity:1; fill:none" points="275.888,402.791 299.381,402.516 322.873,402.442 346.365,402.469 369.858,487.901 393.35,402.467 416.842,402.494 440.335,402.521 463.827,616.73 487.319,401.837 510.811,401.763 534.304,401.79 557.796,401.816 581.288,401.843 604.781,401.769 628.273,401.796 651.765,401.822 675.258,401.749 698.75,401.775 722.242,401.802 745.735,579.572 769.227,401.407 792.719,401.433 816.212,401.46 839.704,401.487 863.196,401.413 886.689,401.439 910.181,401.466 933.673,401.493 957.166,401.419 980.658,401.445 1004.15,401.472 1027.64,670.207 1051.13,380.458 1074.63,380.485 1098.12,380.512 1121.61,580.487 1145.1,409.702 1168.6,409.729 1192.09,409.755 1215.58,409.682 1239.07,409.708 1262.57,409.735 1286.06,409.761 1309.55,409.688 1333.04,409.714 1356.54,409.741 1380.03,409.768 1403.52,409.694 1427.01,409.72 1450.5,409.747 1474,409.673 1497.49,507.665 1520.98,399.856 1544.47,399.882 1567.97,399.909 1591.46,646.498 1614.95,398.347 1638.44,398.273 1661.94,398.3 1685.43,398.326 1708.92,398.353 1732.41,398.279 1755.9,398.306 1779.4,398.332 1802.89,398.258 1826.38,398.285 1849.87,398.312 1873.37,591.153 1896.86,401.928 1920.35,401.954 1943.84,401.88 1967.34,401.907 1990.83,401.934 2014.32,401.96 2037.81,401.886 2061.3,401.913 2084.8,401.94 2108.29,401.866 2131.78,401.892 2155.27,675.863 2178.77,404.1 2202.26,404.026 2225.75,404.053 2249.24,566.651 2272.74,402.51 2296.23,402.537 2319.72,402.463 2343.21,402.188 "/>
<path clip-path="url(#clip392)" d="M275.888 402.791 L299.381 402.516 L322.873 402.442 L346.365 402.469 L369.858 238.919 L393.35 401.517 L416.842 401.544 L440.335 401.47 L463.827 129.707 L487.319 403.082 L510.811 403.109 L534.304 403.035 L557.796 403.061 L581.288 403.088 L604.781 403.014 L628.273 403.041 L651.765 403.067 L675.258 403.094 L698.75 403.02 L722.242 403.047 L745.735 213.816 L769.227 406.658 L792.719 406.684 L816.212 406.711 L839.704 406.637 L863.196 406.664 L886.689 406.69 L910.181 406.617 L933.673 406.643 L957.166 406.67 L980.658 406.696 L1004.15 406.623 L1027.64 158.471 L1051.13 405.07 L1074.63 405.097 L1098.12 405.124 L1121.61 297.312 L1145.1 395.303 L1168.6 395.229 L1192.09 395.256 L1215.58 395.283 L1239.07 395.209 L1262.57 395.236 L1286.06 395.262 L1309.55 395.289 L1333.04 395.215 L1356.54 395.242 L1380.03 395.268 L1403.52 395.295 L1427.01 395.221 L1450.5 395.248 L1474 395.274 L1497.49 224.486 L1520.98 424.461 L1544.47 424.488 L1567.97 424.515 L1591.46 134.766 L1614.95 403.508 L1638.44 403.534 L1661.94 403.561 L1685.43 403.487 L1708.92 403.514 L1732.41 403.54 L1755.9 403.567 L1779.4 403.493 L1802.89 403.52 L1826.38 403.546 L1849.87 403.573 L1873.37 225.402 L1896.86 403.172 L1920.35 403.199 L1943.84 403.225 L1967.34 403.152 L1990.83 403.178 L2014.32 403.205 L2037.81 403.131 L2061.3 403.158 L2084.8 403.184 L2108.29 403.211 L2131.78 403.137 L2155.27 188.244 L2178.77 402.459 L2202.26 402.485 L2225.75 402.512 L2249.24 317.078 L2272.74 402.51 L2296.23 402.537 L2319.72 402.463 L2343.21 402.188 L2343.21 402.49 L2319.72 402.49 L2296.23 402.49 L2272.74 402.49 L2249.24 402.49 L2225.75 402.49 L2202.26 402.49 L2178.77 402.49 L2155.27 402.49 L2131.78 402.49 L2108.29 402.49 L2084.8 402.49 L2061.3 402.49 L2037.81 402.49 L2014.32 402.49 L1990.83 402.49 L1967.34 402.49 L1943.84 402.49 L1920.35 402.49 L1896.86 402.49 L1873.37 402.49 L1849.87 402.49 L1826.38 402.49 L1802.89 402.49 L1779.4 402.49 L1755.9 402.49 L1732.41 402.49 L1708.92 402.49 L1685.43 402.49 L1661.94 402.49 L1638.44 402.49 L1614.95 402.49 L1591.46 402.49 L1567.97 402.49 L1544.47 402.49 L1520.98 402.49 L1497.49 402.49 L1474 402.49 L1450.5 402.49 L1427.01 402.49 L1403.52 402.49 L1380.03 402.49 L1356.54 402.49 L1333.04 402.49 L1309.55 402.49 L1286.06 402.49 L1262.57 402.49 L1239.07 402.49 L1215.58 402.49 L1192.09 402.49 L1168.6 402.49 L1145.1 402.49 L1121.61 402.49 L1098.12 402.49 L1074.63 402.49 L1051.13 402.49 L1027.64 402.49 L1004.15 402.49 L980.658 402.49 L957.166 402.49 L933.673 402.49 L910.181 402.49 L886.689 402.49 L863.196 402.49 L839.704 402.49 L816.212 402.49 L792.719 402.49 L769.227 402.49 L745.735 402.49 L722.242 402.49 L698.75 402.49 L675.258 402.49 L651.765 402.49 L628.273 402.49 L604.781 402.49 L581.288 402.49 L557.796 402.49 L534.304 402.49 L510.811 402.49 L487.319 402.49 L463.827 402.49 L440.335 402.49 L416.842 402.49 L393.35 402.49 L369.858 402.49 L346.365 402.49 L322.873 402.49 L299.381 402.49 L275.888 402.49  Z" fill="#ff0000" fill-rule="evenodd" fill-opacity="0.5"/>
<polyline clip-path="url(#clip392)" style="stroke:#ff0000; stroke-linecap:round; stroke-linejoin:round; stroke-width:4; stroke-opacity:1; fill:none" points="275.888,402.791 299.381,402.516 322.873,402.442 346.365,402.469 369.858,238.919 393.35,401.517 416.842,401.544 440.335,401.47 463.827,129.707 487.319,403.082 510.811,403.109 534.304,403.035 557.796,403.061 581.288,403.088 604.781,403.014 628.273,403.041 651.765,403.067 675.258,403.094 698.75,403.02 722.242,403.047 745.735,213.816 769.227,406.658 792.719,406.684 816.212,406.711 839.704,406.637 863.196,406.664 886.689,406.69 910.181,406.617 933.673,406.643 957.166,406.67 980.658,406.696 1004.15,406.623 1027.64,158.471 1051.13,405.07 1074.63,405.097 1098.12,405.124 1121.61,297.312 1145.1,395.303 1168.6,395.229 1192.09,395.256 1215.58,395.283 1239.07,395.209 1262.57,395.236 1286.06,395.262 1309.55,395.289 1333.04,395.215 1356.54,395.242 1380.03,395.268 1403.52,395.295 1427.01,395.221 1450.5,395.248 1474,395.274 1497.49,224.486 1520.98,424.461 1544.47,424.488 1567.97,424.515 1591.46,134.766 1614.95,403.508 1638.44,403.534 1661.94,403.561 1685.43,403.487 1708.92,403.514 1732.41,403.54 1755.9,403.567 1779.4,403.493 1802.89,403.52 1826.38,403.546 1849.87,403.573 1873.37,225.402 1896.86,403.172 1920.35,403.199 1943.84,403.225 1967.34,403.152 1990.83,403.178 2014.32,403.205 2037.81,403.131 2061.3,403.158 2084.8,403.184 2108.29,403.211 2131.78,403.137 2155.27,188.244 2178.77,402.459 2202.26,402.485 2225.75,402.512 2249.24,317.078 2272.74,402.51 2296.23,402.537 2319.72,402.463 2343.21,402.188 "/>
<path clip-path="url(#clip390)" d="M2492.66 288.14 L2836.76 288.14 L2836.76 132.62 L2492.66 132.62  Z" fill="#ffffff" fill-rule="evenodd" fill-opacity="1"/>
<polyline clip-path="url(#clip390)" style="stroke:#000000; stroke-linecap:round; stroke-linejoin:round; stroke-width:4; stroke-opacity:1; fill:none" points="2492.66,288.14 2836.76,288.14 2836.76,132.62 2492.66,132.62 2492.66,288.14 "/>
<path clip-path="url(#clip390)" d="M2521.81 205.196 L2696.66 205.196 L2696.66 163.724 L2521.81 163.724 L2521.81 205.196  Z" fill="#0000ff" fill-rule="evenodd" fill-opacity="0.5"/>
<polyline clip-path="url(#clip390)" style="stroke:#0000ff; stroke-linecap:round; stroke-linejoin:round; stroke-width:4; stroke-opacity:1; fill:none" points="2521.81,163.724 2696.66,163.724 "/>
<path clip-path="url(#clip390)" d="M2742.59 172.018 L2742.59 184.911 L2755.48 184.911 L2755.48 188.846 L2742.59 188.846 L2742.59 201.74 L2738.7 201.74 L2738.7 188.846 L2725.81 188.846 L2725.81 184.911 L2738.7 184.911 L2738.7 172.018 L2742.59 172.018 Z" fill="#000000" fill-rule="nonzero" fill-opacity="1" /><path clip-path="url(#clip390)" d="M2789.14 201.74 L2775.95 167.18 L2780.83 167.18 L2791.78 196.277 L2802.75 167.18 L2807.61 167.18 L2794.44 201.74 L2789.14 201.74 Z" fill="#000000" fill-rule="nonzero" fill-opacity="1" /><path clip-path="url(#clip390)" d="M2521.81 257.036 L2696.66 257.036 L2696.66 215.564 L2521.81 215.564 L2521.81 257.036  Z" fill="#ff0000" fill-rule="evenodd" fill-opacity="0.5"/>
<polyline clip-path="url(#clip390)" style="stroke:#ff0000; stroke-linecap:round; stroke-linejoin:round; stroke-width:4; stroke-opacity:1; fill:none" points="2521.81,215.564 2696.66,215.564 "/>
<path clip-path="url(#clip390)" d="M2725.81 238.696 L2738.28 238.696 L2738.28 242.492 L2725.81 242.492 L2725.81 238.696 Z" fill="#000000" fill-rule="nonzero" fill-opacity="1" /><path clip-path="url(#clip390)" d="M2769.23 253.58 L2756.04 219.02 L2760.92 219.02 L2771.87 248.117 L2782.84 219.02 L2787.71 219.02 L2774.53 253.58 L2769.23 253.58 Z" fill="#000000" fill-rule="nonzero" fill-opacity="1" /><path clip-path="url(#clip390)" d="M213.869 1492.25 L2401 1492.25 L2401 913.322 L213.869 913.322  Z" fill="#ffffff" fill-rule="evenodd" fill-opacity="1"/>
<defs>
  <clipPath id="clip393">
    <rect x="213" y="913" width="2188" height="580"/>
  </clipPath>
</defs>
<polyline clip-path="url(#clip393)" style="stroke:#000000; stroke-linecap:round; stroke-linejoin:round; stroke-width:2; stroke-opacity:0.1; fill:none" points="275.768,1492.25 275.768,913.322 "/>
<polyline clip-path="url(#clip393)" style="stroke:#000000; stroke-linecap:round; stroke-linejoin:round; stroke-width:2; stroke-opacity:0.1; fill:none" points="744.707,1492.25 744.707,913.322 "/>
<polyline clip-path="url(#clip393)" style="stroke:#000000; stroke-linecap:round; stroke-linejoin:round; stroke-width:2; stroke-opacity:0.1; fill:none" points="1213.64,1492.25 1213.64,913.322 "/>
<polyline clip-path="url(#clip393)" style="stroke:#000000; stroke-linecap:round; stroke-linejoin:round; stroke-width:2; stroke-opacity:0.1; fill:none" points="1682.58,1492.25 1682.58,913.322 "/>
<polyline clip-path="url(#clip393)" style="stroke:#000000; stroke-linecap:round; stroke-linejoin:round; stroke-width:2; stroke-opacity:0.1; fill:none" points="2151.52,1492.25 2151.52,913.322 "/>
<polyline clip-path="url(#clip393)" style="stroke:#000000; stroke-linecap:round; stroke-linejoin:round; stroke-width:2; stroke-opacity:0.1; fill:none" points="213.869,1470.3 2401,1470.3 "/>
<polyline clip-path="url(#clip393)" style="stroke:#000000; stroke-linecap:round; stroke-linejoin:round; stroke-width:2; stroke-opacity:0.1; fill:none" points="213.869,1327.98 2401,1327.98 "/>
<polyline clip-path="url(#clip393)" style="stroke:#000000; stroke-linecap:round; stroke-linejoin:round; stroke-width:2; stroke-opacity:0.1; fill:none" points="213.869,1185.65 2401,1185.65 "/>
<polyline clip-path="url(#clip393)" style="stroke:#000000; stroke-linecap:round; stroke-linejoin:round; stroke-width:2; stroke-opacity:0.1; fill:none" points="213.869,1043.33 2401,1043.33 "/>
<polyline clip-path="url(#clip390)" style="stroke:#000000; stroke-linecap:round; stroke-linejoin:round; stroke-width:4; stroke-opacity:1; fill:none" points="213.869,1492.25 2401,1492.25 "/>
<polyline clip-path="url(#clip390)" style="stroke:#000000; stroke-linecap:round; stroke-linejoin:round; stroke-width:4; stroke-opacity:1; fill:none" points="275.768,1492.25 275.768,1473.35 "/>
<polyline clip-path="url(#clip390)" style="stroke:#000000; stroke-linecap:round; stroke-linejoin:round; stroke-width:4; stroke-opacity:1; fill:none" points="744.707,1492.25 744.707,1473.35 "/>
<polyline clip-path="url(#clip390)" style="stroke:#000000; stroke-linecap:round; stroke-linejoin:round; stroke-width:4; stroke-opacity:1; fill:none" points="1213.64,1492.25 1213.64,1473.35 "/>
<polyline clip-path="url(#clip390)" style="stroke:#000000; stroke-linecap:round; stroke-linejoin:round; stroke-width:4; stroke-opacity:1; fill:none" points="1682.58,1492.25 1682.58,1473.35 "/>
<polyline clip-path="url(#clip390)" style="stroke:#000000; stroke-linecap:round; stroke-linejoin:round; stroke-width:4; stroke-opacity:1; fill:none" points="2151.52,1492.25 2151.52,1473.35 "/>
<path clip-path="url(#clip390)" d="M275.768 1527.04 Q272.157 1527.04 270.329 1530.6 Q268.523 1534.14 268.523 1541.27 Q268.523 1548.38 270.329 1551.95 Q272.157 1555.49 275.768 1555.49 Q279.403 1555.49 281.208 1551.95 Q283.037 1548.38 283.037 1541.27 Q283.037 1534.14 281.208 1530.6 Q279.403 1527.04 275.768 1527.04 M275.768 1523.33 Q281.579 1523.33 284.634 1527.94 Q287.713 1532.52 287.713 1541.27 Q287.713 1550 284.634 1554.61 Q281.579 1559.19 275.768 1559.19 Q269.958 1559.19 266.88 1554.61 Q263.824 1550 263.824 1541.27 Q263.824 1532.52 266.88 1527.94 Q269.958 1523.33 275.768 1523.33 Z" fill="#000000" fill-rule="nonzero" fill-opacity="1" /><path clip-path="url(#clip390)" d="M719.394 1554.58 L727.033 1554.58 L727.033 1528.22 L718.723 1529.89 L718.723 1525.63 L726.987 1523.96 L731.663 1523.96 L731.663 1554.58 L739.302 1554.58 L739.302 1558.52 L719.394 1558.52 L719.394 1554.58 Z" fill="#000000" fill-rule="nonzero" fill-opacity="1" /><path clip-path="url(#clip390)" d="M758.746 1527.04 Q755.135 1527.04 753.306 1530.6 Q751.501 1534.14 751.501 1541.27 Q751.501 1548.38 753.306 1551.95 Q755.135 1555.49 758.746 1555.49 Q762.38 1555.49 764.186 1551.95 Q766.014 1548.38 766.014 1541.27 Q766.014 1534.14 764.186 1530.6 Q762.38 1527.04 758.746 1527.04 M758.746 1523.33 Q764.556 1523.33 767.612 1527.94 Q770.69 1532.52 770.69 1541.27 Q770.69 1550 767.612 1554.61 Q764.556 1559.19 758.746 1559.19 Q752.936 1559.19 749.857 1554.61 Q746.801 1550 746.801 1541.27 Q746.801 1532.52 749.857 1527.94 Q752.936 1523.33 758.746 1523.33 Z" fill="#000000" fill-rule="nonzero" fill-opacity="1" /><path clip-path="url(#clip390)" d="M1192.42 1554.58 L1208.74 1554.58 L1208.74 1558.52 L1186.79 1558.52 L1186.79 1554.58 Q1189.46 1551.83 1194.04 1547.2 Q1198.64 1542.55 1199.83 1541.21 Q1202.07 1538.68 1202.95 1536.95 Q1203.85 1535.19 1203.85 1533.5 Q1203.85 1530.74 1201.91 1529.01 Q1199.99 1527.27 1196.89 1527.27 Q1194.69 1527.27 1192.23 1528.03 Q1189.8 1528.8 1187.02 1530.35 L1187.02 1525.63 Q1189.85 1524.49 1192.3 1523.91 Q1194.76 1523.33 1196.79 1523.33 Q1202.16 1523.33 1205.36 1526.02 Q1208.55 1528.71 1208.55 1533.2 Q1208.55 1535.33 1207.74 1537.25 Q1206.96 1539.14 1204.85 1541.74 Q1204.27 1542.41 1201.17 1545.63 Q1198.07 1548.82 1192.42 1554.58 Z" fill="#000000" fill-rule="nonzero" fill-opacity="1" /><path clip-path="url(#clip390)" d="M1228.55 1527.04 Q1224.94 1527.04 1223.11 1530.6 Q1221.31 1534.14 1221.31 1541.27 Q1221.31 1548.38 1223.11 1551.95 Q1224.94 1555.49 1228.55 1555.49 Q1232.19 1555.49 1233.99 1551.95 Q1235.82 1548.38 1235.82 1541.27 Q1235.82 1534.14 1233.99 1530.6 Q1232.19 1527.04 1228.55 1527.04 M1228.55 1523.33 Q1234.36 1523.33 1237.42 1527.94 Q1240.5 1532.52 1240.5 1541.27 Q1240.5 1550 1237.42 1554.61 Q1234.36 1559.19 1228.55 1559.19 Q1222.74 1559.19 1219.66 1554.61 Q1216.61 1550 1216.61 1541.27 Q1216.61 1532.52 1219.66 1527.94 Q1222.74 1523.33 1228.55 1523.33 Z" fill="#000000" fill-rule="nonzero" fill-opacity="1" /><path clip-path="url(#clip390)" d="M1671.43 1539.89 Q1674.78 1540.6 1676.66 1542.87 Q1678.56 1545.14 1678.56 1548.47 Q1678.56 1553.59 1675.04 1556.39 Q1671.52 1559.19 1665.04 1559.19 Q1662.86 1559.19 1660.55 1558.75 Q1658.25 1558.33 1655.8 1557.48 L1655.8 1552.96 Q1657.75 1554.1 1660.06 1554.68 Q1662.37 1555.26 1664.9 1555.26 Q1669.3 1555.26 1671.59 1553.52 Q1673.9 1551.78 1673.9 1548.47 Q1673.9 1545.42 1671.75 1543.71 Q1669.62 1541.97 1665.8 1541.97 L1661.77 1541.97 L1661.77 1538.13 L1665.99 1538.13 Q1669.43 1538.13 1671.26 1536.76 Q1673.09 1535.37 1673.09 1532.78 Q1673.09 1530.12 1671.19 1528.71 Q1669.32 1527.27 1665.8 1527.27 Q1663.88 1527.27 1661.68 1527.69 Q1659.48 1528.1 1656.84 1528.98 L1656.84 1524.82 Q1659.5 1524.08 1661.82 1523.71 Q1664.16 1523.33 1666.22 1523.33 Q1671.54 1523.33 1674.64 1525.77 Q1677.75 1528.17 1677.75 1532.29 Q1677.75 1535.16 1676.1 1537.15 Q1674.46 1539.12 1671.43 1539.89 Z" fill="#000000" fill-rule="nonzero" fill-opacity="1" /><path clip-path="url(#clip390)" d="M1697.42 1527.04 Q1693.81 1527.04 1691.98 1530.6 Q1690.18 1534.14 1690.18 1541.27 Q1690.18 1548.38 1691.98 1551.95 Q1693.81 1555.49 1697.42 1555.49 Q1701.06 1555.49 1702.86 1551.95 Q1704.69 1548.38 1704.69 1541.27 Q1704.69 1534.14 1702.86 1530.6 Q1701.06 1527.04 1697.42 1527.04 M1697.42 1523.33 Q1703.23 1523.33 1706.29 1527.94 Q1709.37 1532.52 1709.37 1541.27 Q1709.37 1550 1706.29 1554.61 Q1703.23 1559.19 1697.42 1559.19 Q1691.61 1559.19 1688.53 1554.61 Q1685.48 1550 1685.48 1541.27 Q1685.48 1532.52 1688.53 1527.94 Q1691.61 1523.33 1697.42 1523.33 Z" fill="#000000" fill-rule="nonzero" fill-opacity="1" /><path clip-path="url(#clip390)" d="M2139.69 1528.03 L2127.89 1546.48 L2139.69 1546.48 L2139.69 1528.03 M2138.47 1523.96 L2144.35 1523.96 L2144.35 1546.48 L2149.28 1546.48 L2149.28 1550.37 L2144.35 1550.37 L2144.35 1558.52 L2139.69 1558.52 L2139.69 1550.37 L2124.09 1550.37 L2124.09 1545.86 L2138.47 1523.96 Z" fill="#000000" fill-rule="nonzero" fill-opacity="1" /><path clip-path="url(#clip390)" d="M2167.01 1527.04 Q2163.4 1527.04 2161.57 1530.6 Q2159.76 1534.14 2159.76 1541.27 Q2159.76 1548.38 2161.57 1551.95 Q2163.4 1555.49 2167.01 1555.49 Q2170.64 1555.49 2172.45 1551.95 Q2174.28 1548.38 2174.28 1541.27 Q2174.28 1534.14 2172.45 1530.6 Q2170.64 1527.04 2167.01 1527.04 M2167.01 1523.33 Q2172.82 1523.33 2175.87 1527.94 Q2178.95 1532.52 2178.95 1541.27 Q2178.95 1550 2175.87 1554.61 Q2172.82 1559.19 2167.01 1559.19 Q2161.2 1559.19 2158.12 1554.61 Q2155.06 1550 2155.06 1541.27 Q2155.06 1532.52 2158.12 1527.94 Q2161.2 1523.33 2167.01 1523.33 Z" fill="#000000" fill-rule="nonzero" fill-opacity="1" /><polyline clip-path="url(#clip390)" style="stroke:#000000; stroke-linecap:round; stroke-linejoin:round; stroke-width:4; stroke-opacity:1; fill:none" points="213.869,1492.25 213.869,913.322 "/>
<polyline clip-path="url(#clip390)" style="stroke:#000000; stroke-linecap:round; stroke-linejoin:round; stroke-width:4; stroke-opacity:1; fill:none" points="213.869,1470.3 229.627,1470.3 "/>
<polyline clip-path="url(#clip390)" style="stroke:#000000; stroke-linecap:round; stroke-linejoin:round; stroke-width:4; stroke-opacity:1; fill:none" points="213.869,1327.98 229.627,1327.98 "/>
<polyline clip-path="url(#clip390)" style="stroke:#000000; stroke-linecap:round; stroke-linejoin:round; stroke-width:4; stroke-opacity:1; fill:none" points="213.869,1185.65 229.627,1185.65 "/>
<polyline clip-path="url(#clip390)" style="stroke:#000000; stroke-linecap:round; stroke-linejoin:round; stroke-width:4; stroke-opacity:1; fill:none" points="213.869,1043.33 229.627,1043.33 "/>
<path clip-path="url(#clip390)" d="M78.734 1470.75 L108.41 1470.75 L108.41 1474.69 L78.734 1474.69 L78.734 1470.75 Z" fill="#000000" fill-rule="nonzero" fill-opacity="1" /><path clip-path="url(#clip390)" d="M131.349 1457.1 L119.544 1475.55 L131.349 1475.55 L131.349 1457.1 M130.123 1453.02 L136.002 1453.02 L136.002 1475.55 L140.933 1475.55 L140.933 1479.44 L136.002 1479.44 L136.002 1487.58 L131.349 1487.58 L131.349 1479.44 L115.748 1479.44 L115.748 1474.92 L130.123 1453.02 Z" fill="#000000" fill-rule="nonzero" fill-opacity="1" /><path clip-path="url(#clip390)" d="M158.664 1456.1 Q155.053 1456.1 153.224 1459.67 Q151.419 1463.21 151.419 1470.34 Q151.419 1477.44 153.224 1481.01 Q155.053 1484.55 158.664 1484.55 Q162.298 1484.55 164.104 1481.01 Q165.933 1477.44 165.933 1470.34 Q165.933 1463.21 164.104 1459.67 Q162.298 1456.1 158.664 1456.1 M158.664 1452.4 Q164.474 1452.4 167.53 1457 Q170.609 1461.59 170.609 1470.34 Q170.609 1479.06 167.53 1483.67 Q164.474 1488.25 158.664 1488.25 Q152.854 1488.25 149.775 1483.67 Q146.72 1479.06 146.72 1470.34 Q146.72 1461.59 149.775 1457 Q152.854 1452.4 158.664 1452.4 Z" fill="#000000" fill-rule="nonzero" fill-opacity="1" /><path clip-path="url(#clip390)" d="M78.734 1328.43 L108.41 1328.43 L108.41 1332.36 L78.734 1332.36 L78.734 1328.43 Z" fill="#000000" fill-rule="nonzero" fill-opacity="1" /><path clip-path="url(#clip390)" d="M122.53 1341.32 L138.849 1341.32 L138.849 1345.26 L116.905 1345.26 L116.905 1341.32 Q119.567 1338.57 124.15 1333.94 Q128.757 1329.29 129.937 1327.94 Q132.183 1325.42 133.062 1323.68 Q133.965 1321.92 133.965 1320.23 Q133.965 1317.48 132.021 1315.74 Q130.099 1314.01 126.998 1314.01 Q124.799 1314.01 122.345 1314.77 Q119.914 1315.54 117.137 1317.09 L117.137 1312.36 Q119.961 1311.23 122.414 1310.65 Q124.868 1310.07 126.905 1310.07 Q132.275 1310.07 135.47 1312.76 Q138.664 1315.44 138.664 1319.93 Q138.664 1322.06 137.854 1323.98 Q137.067 1325.88 134.961 1328.47 Q134.382 1329.15 131.28 1332.36 Q128.178 1335.56 122.53 1341.32 Z" fill="#000000" fill-rule="nonzero" fill-opacity="1" /><path clip-path="url(#clip390)" d="M158.664 1313.78 Q155.053 1313.78 153.224 1317.34 Q151.419 1320.88 151.419 1328.01 Q151.419 1335.12 153.224 1338.68 Q155.053 1342.22 158.664 1342.22 Q162.298 1342.22 164.104 1338.68 Q165.933 1335.12 165.933 1328.01 Q165.933 1320.88 164.104 1317.34 Q162.298 1313.78 158.664 1313.78 M158.664 1310.07 Q164.474 1310.07 167.53 1314.68 Q170.609 1319.26 170.609 1328.01 Q170.609 1336.74 167.53 1341.35 Q164.474 1345.93 158.664 1345.93 Q152.854 1345.93 149.775 1341.35 Q146.72 1336.74 146.72 1328.01 Q146.72 1319.26 149.775 1314.68 Q152.854 1310.07 158.664 1310.07 Z" fill="#000000" fill-rule="nonzero" fill-opacity="1" /><path clip-path="url(#clip390)" d="M158.664 1171.45 Q155.053 1171.45 153.224 1175.01 Q151.419 1178.56 151.419 1185.69 Q151.419 1192.79 153.224 1196.36 Q155.053 1199.9 158.664 1199.9 Q162.298 1199.9 164.104 1196.36 Q165.933 1192.79 165.933 1185.69 Q165.933 1178.56 164.104 1175.01 Q162.298 1171.45 158.664 1171.45 M158.664 1167.75 Q164.474 1167.75 167.53 1172.35 Q170.609 1176.94 170.609 1185.69 Q170.609 1194.41 167.53 1199.02 Q164.474 1203.6 158.664 1203.6 Q152.854 1203.6 149.775 1199.02 Q146.72 1194.41 146.72 1185.69 Q146.72 1176.94 149.775 1172.35 Q152.854 1167.75 158.664 1167.75 Z" fill="#000000" fill-rule="nonzero" fill-opacity="1" /><path clip-path="url(#clip390)" d="M122.53 1056.67 L138.849 1056.67 L138.849 1060.61 L116.905 1060.61 L116.905 1056.67 Q119.567 1053.92 124.15 1049.29 Q128.757 1044.63 129.937 1043.29 Q132.183 1040.77 133.062 1039.03 Q133.965 1037.27 133.965 1035.58 Q133.965 1032.83 132.021 1031.09 Q130.099 1029.36 126.998 1029.36 Q124.799 1029.36 122.345 1030.12 Q119.914 1030.88 117.137 1032.43 L117.137 1027.71 Q119.961 1026.58 122.414 1026 Q124.868 1025.42 126.905 1025.42 Q132.275 1025.42 135.47 1028.11 Q138.664 1030.79 138.664 1035.28 Q138.664 1037.41 137.854 1039.33 Q137.067 1041.23 134.961 1043.82 Q134.382 1044.49 131.28 1047.71 Q128.178 1050.91 122.53 1056.67 Z" fill="#000000" fill-rule="nonzero" fill-opacity="1" /><path clip-path="url(#clip390)" d="M158.664 1029.12 Q155.053 1029.12 153.224 1032.69 Q151.419 1036.23 151.419 1043.36 Q151.419 1050.47 153.224 1054.03 Q155.053 1057.57 158.664 1057.57 Q162.298 1057.57 164.104 1054.03 Q165.933 1050.47 165.933 1043.36 Q165.933 1036.23 164.104 1032.69 Q162.298 1029.12 158.664 1029.12 M158.664 1025.42 Q164.474 1025.42 167.53 1030.03 Q170.609 1034.61 170.609 1043.36 Q170.609 1052.09 167.53 1056.69 Q164.474 1061.28 158.664 1061.28 Q152.854 1061.28 149.775 1056.69 Q146.72 1052.09 146.72 1043.36 Q146.72 1034.61 149.775 1030.03 Q152.854 1025.42 158.664 1025.42 Z" fill="#000000" fill-rule="nonzero" fill-opacity="1" /><path clip-path="url(#clip390)" d="M711.889 812.096 L724.082 812.096 L739.516 853.253 L755.031 812.096 L767.224 812.096 L767.224 872.576 L759.244 872.576 L759.244 819.469 L743.648 860.95 L735.425 860.95 L719.829 819.469 L719.829 872.576 L711.889 872.576 L711.889 812.096 Z" fill="#000000" fill-rule="nonzero" fill-opacity="1" /><path clip-path="url(#clip390)" d="M800.725 832.432 Q794.73 832.432 791.246 837.131 Q787.762 841.789 787.762 849.931 Q787.762 858.074 791.205 862.773 Q794.689 867.431 800.725 867.431 Q806.68 867.431 810.164 862.732 Q813.647 858.033 813.647 849.931 Q813.647 841.87 810.164 837.171 Q806.68 832.432 800.725 832.432 M800.725 826.112 Q810.447 826.112 815.997 832.432 Q821.547 838.751 821.547 849.931 Q821.547 861.071 815.997 867.431 Q810.447 873.751 800.725 873.751 Q790.962 873.751 785.413 867.431 Q779.903 861.071 779.903 849.931 Q779.903 838.751 785.413 832.432 Q790.962 826.112 800.725 826.112 Z" fill="#000000" fill-rule="nonzero" fill-opacity="1" /><path clip-path="url(#clip390)" d="M869.226 835.915 Q872.021 830.892 875.91 828.502 Q879.799 826.112 885.065 826.112 Q892.154 826.112 896.002 831.095 Q899.851 836.037 899.851 845.192 L899.851 872.576 L892.357 872.576 L892.357 845.435 Q892.357 838.913 890.048 835.753 Q887.739 832.594 882.999 832.594 Q877.206 832.594 873.844 836.442 Q870.482 840.29 870.482 846.934 L870.482 872.576 L862.987 872.576 L862.987 845.435 Q862.987 838.872 860.678 835.753 Q858.369 832.594 853.549 832.594 Q847.837 832.594 844.475 836.482 Q841.113 840.331 841.113 846.934 L841.113 872.576 L833.618 872.576 L833.618 827.206 L841.113 827.206 L841.113 834.254 Q843.665 830.082 847.229 828.097 Q850.794 826.112 855.696 826.112 Q860.638 826.112 864.081 828.624 Q867.565 831.135 869.226 835.915 Z" fill="#000000" fill-rule="nonzero" fill-opacity="1" /><path clip-path="url(#clip390)" d="M953.525 848.028 L953.525 851.673 L919.255 851.673 Q919.741 859.37 923.873 863.421 Q928.045 867.431 935.458 867.431 Q939.752 867.431 943.763 866.378 Q947.813 865.325 951.783 863.218 L951.783 870.267 Q947.773 871.968 943.56 872.86 Q939.347 873.751 935.013 873.751 Q924.156 873.751 917.796 867.431 Q911.477 861.112 911.477 850.337 Q911.477 839.197 917.472 832.675 Q923.508 826.112 933.716 826.112 Q942.871 826.112 948.178 832.026 Q953.525 837.9 953.525 848.028 M946.072 845.84 Q945.991 839.723 942.628 836.077 Q939.307 832.432 933.797 832.432 Q927.559 832.432 923.792 835.956 Q920.065 839.48 919.498 845.881 L946.072 845.84 Z" fill="#000000" fill-rule="nonzero" fill-opacity="1" /><path clip-path="url(#clip390)" d="M1003.47 845.192 L1003.47 872.576 L996.019 872.576 L996.019 845.435 Q996.019 838.994 993.508 835.794 Q990.996 832.594 985.973 832.594 Q979.937 832.594 976.453 836.442 Q972.97 840.29 972.97 846.934 L972.97 872.576 L965.475 872.576 L965.475 827.206 L972.97 827.206 L972.97 834.254 Q975.643 830.163 979.248 828.138 Q982.894 826.112 987.634 826.112 Q995.452 826.112 999.462 830.973 Q1003.47 835.794 1003.47 845.192 Z" fill="#000000" fill-rule="nonzero" fill-opacity="1" /><path clip-path="url(#clip390)" d="M1025.71 814.324 L1025.71 827.206 L1041.07 827.206 L1041.07 832.999 L1025.71 832.999 L1025.71 857.628 Q1025.71 863.178 1027.21 864.758 Q1028.75 866.338 1033.41 866.338 L1041.07 866.338 L1041.07 872.576 L1033.41 872.576 Q1024.78 872.576 1021.5 869.376 Q1018.22 866.135 1018.22 857.628 L1018.22 832.999 L1012.75 832.999 L1012.75 827.206 L1018.22 827.206 L1018.22 814.324 L1025.71 814.324 Z" fill="#000000" fill-rule="nonzero" fill-opacity="1" /><path clip-path="url(#clip390)" d="M1077.56 812.096 L1115.8 812.096 L1115.8 818.983 L1085.75 818.983 L1085.75 836.888 L1114.55 836.888 L1114.55 843.774 L1085.75 843.774 L1085.75 865.689 L1116.53 865.689 L1116.53 872.576 L1077.56 872.576 L1077.56 812.096 Z" fill="#000000" fill-rule="nonzero" fill-opacity="1" /><path clip-path="url(#clip390)" d="M1167.37 845.192 L1167.37 872.576 L1159.92 872.576 L1159.92 845.435 Q1159.92 838.994 1157.41 835.794 Q1154.9 832.594 1149.87 832.594 Q1143.84 832.594 1140.35 836.442 Q1136.87 840.29 1136.87 846.934 L1136.87 872.576 L1129.37 872.576 L1129.37 827.206 L1136.87 827.206 L1136.87 834.254 Q1139.54 830.163 1143.15 828.138 Q1146.79 826.112 1151.53 826.112 Q1159.35 826.112 1163.36 830.973 Q1167.37 835.794 1167.37 845.192 Z" fill="#000000" fill-rule="nonzero" fill-opacity="1" /><path clip-path="url(#clip390)" d="M1176.89 827.206 L1184.79 827.206 L1198.97 865.284 L1213.15 827.206 L1221.05 827.206 L1204.03 872.576 L1193.91 872.576 L1176.89 827.206 Z" fill="#000000" fill-rule="nonzero" fill-opacity="1" /><path clip-path="url(#clip390)" d="M1270.14 848.028 L1270.14 851.673 L1235.87 851.673 Q1236.36 859.37 1240.49 863.421 Q1244.66 867.431 1252.08 867.431 Q1256.37 867.431 1260.38 866.378 Q1264.43 865.325 1268.4 863.218 L1268.4 870.267 Q1264.39 871.968 1260.18 872.86 Q1255.97 873.751 1251.63 873.751 Q1240.77 873.751 1234.41 867.431 Q1228.1 861.112 1228.1 850.337 Q1228.1 839.197 1234.09 832.675 Q1240.13 826.112 1250.33 826.112 Q1259.49 826.112 1264.8 832.026 Q1270.14 837.9 1270.14 848.028 M1262.69 845.84 Q1262.61 839.723 1259.25 836.077 Q1255.93 832.432 1250.42 832.432 Q1244.18 832.432 1240.41 835.956 Q1236.68 839.48 1236.12 845.881 L1262.69 845.84 Z" fill="#000000" fill-rule="nonzero" fill-opacity="1" /><path clip-path="url(#clip390)" d="M1282.38 809.544 L1289.83 809.544 L1289.83 872.576 L1282.38 872.576 L1282.38 809.544 Z" fill="#000000" fill-rule="nonzero" fill-opacity="1" /><path clip-path="url(#clip390)" d="M1323.01 832.432 Q1317.01 832.432 1313.53 837.131 Q1310.05 841.789 1310.05 849.931 Q1310.05 858.074 1313.49 862.773 Q1316.97 867.431 1323.01 867.431 Q1328.96 867.431 1332.45 862.732 Q1335.93 858.033 1335.93 849.931 Q1335.93 841.87 1332.45 837.171 Q1328.96 832.432 1323.01 832.432 M1323.01 826.112 Q1332.73 826.112 1338.28 832.432 Q1343.83 838.751 1343.83 849.931 Q1343.83 861.071 1338.28 867.431 Q1332.73 873.751 1323.01 873.751 Q1313.25 873.751 1307.7 867.431 Q1302.19 861.071 1302.19 849.931 Q1302.19 838.751 1307.7 832.432 Q1313.25 826.112 1323.01 826.112 Z" fill="#000000" fill-rule="nonzero" fill-opacity="1" /><path clip-path="url(#clip390)" d="M1363.4 865.77 L1363.4 889.833 L1355.9 889.833 L1355.9 827.206 L1363.4 827.206 L1363.4 834.092 Q1365.75 830.042 1369.31 828.097 Q1372.92 826.112 1377.9 826.112 Q1386.16 826.112 1391.31 832.675 Q1396.49 839.237 1396.49 849.931 Q1396.49 860.626 1391.31 867.188 Q1386.16 873.751 1377.9 873.751 Q1372.92 873.751 1369.31 871.806 Q1365.75 869.821 1363.4 865.77 M1388.75 849.931 Q1388.75 841.708 1385.35 837.05 Q1381.99 832.351 1376.08 832.351 Q1370.16 832.351 1366.76 837.05 Q1363.4 841.708 1363.4 849.931 Q1363.4 858.155 1366.76 862.854 Q1370.16 867.512 1376.08 867.512 Q1381.99 867.512 1385.35 862.854 Q1388.75 858.155 1388.75 849.931 Z" fill="#000000" fill-rule="nonzero" fill-opacity="1" /><path clip-path="url(#clip390)" d="M1447.65 848.028 L1447.65 851.673 L1413.38 851.673 Q1413.87 859.37 1418 863.421 Q1422.17 867.431 1429.59 867.431 Q1433.88 867.431 1437.89 866.378 Q1441.94 865.325 1445.91 863.218 L1445.91 870.267 Q1441.9 871.968 1437.69 872.86 Q1433.48 873.751 1429.14 873.751 Q1418.29 873.751 1411.93 867.431 Q1405.61 861.112 1405.61 850.337 Q1405.61 839.197 1411.6 832.675 Q1417.64 826.112 1427.85 826.112 Q1437 826.112 1442.31 832.026 Q1447.65 837.9 1447.65 848.028 M1440.2 845.84 Q1440.12 839.723 1436.76 836.077 Q1433.44 832.432 1427.93 832.432 Q1421.69 832.432 1417.92 835.956 Q1414.19 839.48 1413.63 845.881 L1440.2 845.84 Z" fill="#000000" fill-rule="nonzero" fill-opacity="1" /><path clip-path="url(#clip390)" d="M1494.77 818.821 L1494.77 865.851 L1504.65 865.851 Q1517.17 865.851 1522.96 860.18 Q1528.79 854.509 1528.79 842.275 Q1528.79 830.123 1522.96 824.492 Q1517.17 818.821 1504.65 818.821 L1494.77 818.821 M1486.58 812.096 L1503.39 812.096 Q1520.98 812.096 1529.2 819.428 Q1537.42 826.72 1537.42 842.275 Q1537.42 857.912 1529.16 865.244 Q1520.89 872.576 1503.39 872.576 L1486.58 872.576 L1486.58 812.096 Z" fill="#000000" fill-rule="nonzero" fill-opacity="1" /><path clip-path="url(#clip390)" d="M1550.14 827.206 L1557.6 827.206 L1557.6 872.576 L1550.14 872.576 L1550.14 827.206 M1550.14 809.544 L1557.6 809.544 L1557.6 818.983 L1550.14 818.983 L1550.14 809.544 Z" fill="#000000" fill-rule="nonzero" fill-opacity="1" /><path clip-path="url(#clip390)" d="M1596.16 809.544 L1596.16 815.742 L1589.03 815.742 Q1585.02 815.742 1583.44 817.362 Q1581.9 818.983 1581.9 823.195 L1581.9 827.206 L1594.18 827.206 L1594.18 832.999 L1581.9 832.999 L1581.9 872.576 L1574.41 872.576 L1574.41 832.999 L1567.28 832.999 L1567.28 827.206 L1574.41 827.206 L1574.41 824.046 Q1574.41 816.471 1577.93 813.028 Q1581.46 809.544 1589.11 809.544 L1596.16 809.544 Z" fill="#000000" fill-rule="nonzero" fill-opacity="1" /><path clip-path="url(#clip390)" d="M1625.37 809.544 L1625.37 815.742 L1618.24 815.742 Q1614.23 815.742 1612.65 817.362 Q1611.11 818.983 1611.11 823.195 L1611.11 827.206 L1623.38 827.206 L1623.38 832.999 L1611.11 832.999 L1611.11 872.576 L1603.61 872.576 L1603.61 832.999 L1596.48 832.999 L1596.48 827.206 L1603.61 827.206 L1603.61 824.046 Q1603.61 816.471 1607.14 813.028 Q1610.66 809.544 1618.32 809.544 L1625.37 809.544 Z" fill="#000000" fill-rule="nonzero" fill-opacity="1" /><path clip-path="url(#clip390)" d="M1670.41 848.028 L1670.41 851.673 L1636.14 851.673 Q1636.63 859.37 1640.76 863.421 Q1644.93 867.431 1652.35 867.431 Q1656.64 867.431 1660.65 866.378 Q1664.7 865.325 1668.67 863.218 L1668.67 870.267 Q1664.66 871.968 1660.45 872.86 Q1656.24 873.751 1651.9 873.751 Q1641.04 873.751 1634.68 867.431 Q1628.37 861.112 1628.37 850.337 Q1628.37 839.197 1634.36 832.675 Q1640.4 826.112 1650.6 826.112 Q1659.76 826.112 1665.07 832.026 Q1670.41 837.9 1670.41 848.028 M1662.96 845.84 Q1662.88 839.723 1659.52 836.077 Q1656.2 832.432 1650.69 832.432 Q1644.45 832.432 1640.68 835.956 Q1636.95 839.48 1636.39 845.881 L1662.96 845.84 Z" fill="#000000" fill-rule="nonzero" fill-opacity="1" /><path clip-path="url(#clip390)" d="M1708.94 834.173 Q1707.68 833.444 1706.18 833.12 Q1704.72 832.756 1702.94 832.756 Q1696.62 832.756 1693.22 836.888 Q1689.86 840.979 1689.86 848.676 L1689.86 872.576 L1682.36 872.576 L1682.36 827.206 L1689.86 827.206 L1689.86 834.254 Q1692.21 830.123 1695.97 828.138 Q1699.74 826.112 1705.13 826.112 Q1705.9 826.112 1706.83 826.234 Q1707.76 826.315 1708.9 826.517 L1708.94 834.173 Z" fill="#000000" fill-rule="nonzero" fill-opacity="1" /><path clip-path="url(#clip390)" d="M1753.74 848.028 L1753.74 851.673 L1719.47 851.673 Q1719.96 859.37 1724.09 863.421 Q1728.26 867.431 1735.67 867.431 Q1739.97 867.431 1743.98 866.378 Q1748.03 865.325 1752 863.218 L1752 870.267 Q1747.99 871.968 1743.78 872.86 Q1739.56 873.751 1735.23 873.751 Q1724.37 873.751 1718.01 867.431 Q1711.69 861.112 1711.69 850.337 Q1711.69 839.197 1717.69 832.675 Q1723.72 826.112 1733.93 826.112 Q1743.09 826.112 1748.39 832.026 Q1753.74 837.9 1753.74 848.028 M1746.29 845.84 Q1746.21 839.723 1742.84 836.077 Q1739.52 832.432 1734.01 832.432 Q1727.77 832.432 1724.01 835.956 Q1720.28 839.48 1719.71 845.881 L1746.29 845.84 Z" fill="#000000" fill-rule="nonzero" fill-opacity="1" /><path clip-path="url(#clip390)" d="M1803.69 845.192 L1803.69 872.576 L1796.23 872.576 L1796.23 845.435 Q1796.23 838.994 1793.72 835.794 Q1791.21 832.594 1786.19 832.594 Q1780.15 832.594 1776.67 836.442 Q1773.19 840.29 1773.19 846.934 L1773.19 872.576 L1765.69 872.576 L1765.69 827.206 L1773.19 827.206 L1773.19 834.254 Q1775.86 830.163 1779.46 828.138 Q1783.11 826.112 1787.85 826.112 Q1795.67 826.112 1799.68 830.973 Q1803.69 835.794 1803.69 845.192 Z" fill="#000000" fill-rule="nonzero" fill-opacity="1" /><path clip-path="url(#clip390)" d="M1851.21 828.948 L1851.21 835.915 Q1848.05 834.173 1844.85 833.323 Q1841.69 832.432 1838.45 832.432 Q1831.19 832.432 1827.18 837.05 Q1823.17 841.627 1823.17 849.931 Q1823.17 858.236 1827.18 862.854 Q1831.19 867.431 1838.45 867.431 Q1841.69 867.431 1844.85 866.581 Q1848.05 865.689 1851.21 863.948 L1851.21 870.834 Q1848.09 872.292 1844.72 873.022 Q1841.4 873.751 1837.64 873.751 Q1827.39 873.751 1821.35 867.31 Q1815.31 860.869 1815.31 849.931 Q1815.31 838.832 1821.39 832.472 Q1827.51 826.112 1838.12 826.112 Q1841.56 826.112 1844.85 826.841 Q1848.13 827.53 1851.21 828.948 Z" fill="#000000" fill-rule="nonzero" fill-opacity="1" /><path clip-path="url(#clip390)" d="M1902.98 848.028 L1902.98 851.673 L1868.71 851.673 Q1869.19 859.37 1873.32 863.421 Q1877.5 867.431 1884.91 867.431 Q1889.2 867.431 1893.21 866.378 Q1897.26 865.325 1901.23 863.218 L1901.23 870.267 Q1897.22 871.968 1893.01 872.86 Q1888.8 873.751 1884.46 873.751 Q1873.61 873.751 1867.25 867.431 Q1860.93 861.112 1860.93 850.337 Q1860.93 839.197 1866.92 832.675 Q1872.96 826.112 1883.17 826.112 Q1892.32 826.112 1897.63 832.026 Q1902.98 837.9 1902.98 848.028 M1895.52 845.84 Q1895.44 839.723 1892.08 836.077 Q1888.76 832.432 1883.25 832.432 Q1877.01 832.432 1873.24 835.956 Q1869.52 839.48 1868.95 845.881 L1895.52 845.84 Z" fill="#000000" fill-rule="nonzero" fill-opacity="1" /><path clip-path="url(#clip393)" d="M275.768 1185.65 L299.215 1185.52 L322.662 1185.84 L346.109 1185.9 L369.556 1185.69 L393.003 1185.39 L416.45 1185.54 L439.897 1185.42 L463.344 1185.76 L486.791 1175.35 L510.237 1166.98 L533.684 1164.6 L557.131 1169.76 L580.578 1171.1 L604.025 1166.1 L627.472 1162.49 L650.919 1157.29 L674.366 1154.69 L697.813 1146.69 L721.26 1148.5 L744.707 1144.04 L768.153 1157 L791.6 1169.68 L815.047 1183.05 L838.494 1196.94 L861.941 1205.42 L885.388 1215.61 L908.835 1265.69 L932.282 1168.05 L955.729 1108.19 L979.176 1104.63 L1002.62 1100.8 L1026.07 1096.71 L1049.52 1105.63 L1072.96 1141.84 L1096.41 1190.6 L1119.86 1178.76 L1143.3 1181.31 L1166.75 1182.88 L1190.2 1185.94 L1213.64 1186.64 L1237.09 1188.95 L1260.54 1191.01 L1283.99 1193.57 L1307.43 1193.13 L1330.88 1193.57 L1354.33 1191.2 L1377.77 1189.32 L1401.22 1187.18 L1424.67 1185.8 L1448.11 1182.85 L1471.56 1181.38 L1495.01 1178.63 L1518.45 1190.54 L1541.9 1142 L1565.35 1105.6 L1588.8 1096.68 L1612.24 1100.77 L1635.69 1104.6 L1659.14 1108.17 L1682.58 1168.28 L1706.03 1265.87 L1729.48 1215.58 L1752.92 1205.48 L1776.37 1196.83 L1799.82 1182.79 L1823.26 1169.7 L1846.71 1156.92 L1870.16 1143.86 L1893.61 1148.17 L1917.05 1146.73 L1940.5 1154.55 L1963.95 1156.97 L1987.39 1162.83 L2010.84 1166.2 L2034.29 1171.31 L2057.73 1169.69 L2081.18 1164.25 L2104.63 1167.11 L2128.07 1175.32 L2151.52 1185.76 L2174.97 1185.42 L2198.42 1185.54 L2221.86 1185.39 L2245.31 1185.69 L2268.76 1185.9 L2292.2 1185.84 L2315.65 1185.52 L2339.1 1185.65 L2339.1 1185.65 L2315.65 1185.65 L2292.2 1185.65 L2268.76 1185.65 L2245.31 1185.65 L2221.86 1185.65 L2198.42 1185.65 L2174.97 1185.65 L2151.52 1185.65 L2128.07 1185.65 L2104.63 1185.65 L2081.18 1185.65 L2057.73 1185.65 L2034.29 1185.65 L2010.84 1185.65 L1987.39 1185.65 L1963.95 1185.65 L1940.5 1185.65 L1917.05 1185.65 L1893.61 1185.65 L1870.16 1185.65 L1846.71 1185.65 L1823.26 1185.65 L1799.82 1185.65 L1776.37 1185.65 L1752.92 1185.65 L1729.48 1185.65 L1706.03 1185.65 L1682.58 1185.65 L1659.14 1185.65 L1635.69 1185.65 L1612.24 1185.65 L1588.8 1185.65 L1565.35 1185.65 L1541.9 1185.65 L1518.45 1185.65 L1495.01 1185.65 L1471.56 1185.65 L1448.11 1185.65 L1424.67 1185.65 L1401.22 1185.65 L1377.77 1185.65 L1354.33 1185.65 L1330.88 1185.65 L1307.43 1185.65 L1283.99 1185.65 L1260.54 1185.65 L1237.09 1185.65 L1213.64 1185.65 L1190.2 1185.65 L1166.75 1185.65 L1143.3 1185.65 L1119.86 1185.65 L1096.41 1185.65 L1072.96 1185.65 L1049.52 1185.65 L1026.07 1185.65 L1002.62 1185.65 L979.176 1185.65 L955.729 1185.65 L932.282 1185.65 L908.835 1185.65 L885.388 1185.65 L861.941 1185.65 L838.494 1185.65 L815.047 1185.65 L791.6 1185.65 L768.153 1185.65 L744.707 1185.65 L721.26 1185.65 L697.813 1185.65 L674.366 1185.65 L650.919 1185.65 L627.472 1185.65 L604.025 1185.65 L580.578 1185.65 L557.131 1185.65 L533.684 1185.65 L510.237 1185.65 L486.791 1185.65 L463.344 1185.65 L439.897 1185.65 L416.45 1185.65 L393.003 1185.65 L369.556 1185.65 L346.109 1185.65 L322.662 1185.65 L299.215 1185.65 L275.768 1185.65  Z" fill="#0000ff" fill-rule="evenodd" fill-opacity="0.5"/>
<polyline clip-path="url(#clip393)" style="stroke:#0000ff; stroke-linecap:round; stroke-linejoin:round; stroke-width:4; stroke-opacity:1; fill:none" points="275.768,1185.65 299.215,1185.52 322.662,1185.84 346.109,1185.9 369.556,1185.69 393.003,1185.39 416.45,1185.54 439.897,1185.42 463.344,1185.76 486.791,1175.35 510.237,1166.98 533.684,1164.6 557.131,1169.76 580.578,1171.1 604.025,1166.1 627.472,1162.49 650.919,1157.29 674.366,1154.69 697.813,1146.69 721.26,1148.5 744.707,1144.04 768.153,1157 791.6,1169.68 815.047,1183.05 838.494,1196.94 861.941,1205.42 885.388,1215.61 908.835,1265.69 932.282,1168.05 955.729,1108.19 979.176,1104.63 1002.62,1100.8 1026.07,1096.71 1049.52,1105.63 1072.96,1141.84 1096.41,1190.6 1119.86,1178.76 1143.3,1181.31 1166.75,1182.88 1190.2,1185.94 1213.64,1186.64 1237.09,1188.95 1260.54,1191.01 1283.99,1193.57 1307.43,1193.13 1330.88,1193.57 1354.33,1191.2 1377.77,1189.32 1401.22,1187.18 1424.67,1185.8 1448.11,1182.85 1471.56,1181.38 1495.01,1178.63 1518.45,1190.54 1541.9,1142 1565.35,1105.6 1588.8,1096.68 1612.24,1100.77 1635.69,1104.6 1659.14,1108.17 1682.58,1168.28 1706.03,1265.87 1729.48,1215.58 1752.92,1205.48 1776.37,1196.83 1799.82,1182.79 1823.26,1169.7 1846.71,1156.92 1870.16,1143.86 1893.61,1148.17 1917.05,1146.73 1940.5,1154.55 1963.95,1156.97 1987.39,1162.83 2010.84,1166.2 2034.29,1171.31 2057.73,1169.69 2081.18,1164.25 2104.63,1167.11 2128.07,1175.32 2151.52,1185.76 2174.97,1185.42 2198.42,1185.54 2221.86,1185.39 2245.31,1185.69 2268.76,1185.9 2292.2,1185.84 2315.65,1185.52 2339.1,1185.65 "/>
<path clip-path="url(#clip393)" d="M275.768 1185.65 L299.215 1185.52 L322.662 1185.84 L346.109 1185.9 L369.556 1185.69 L393.003 1182.38 L416.45 1178.81 L439.897 1174.97 L463.344 1171.59 L486.791 1168.96 L510.237 1166.07 L533.684 1162.92 L557.131 1160.22 L580.578 1084.16 L604.025 1031.38 L627.472 1199.42 L650.919 1201.95 L674.366 1203.51 L697.813 1205.52 L721.26 1207.98 L744.707 1210.18 L768.153 1211.88 L791.6 1214.74 L815.047 1219.58 L838.494 1221.41 L861.941 1226.03 L885.388 1225.31 L908.835 1223.62 L932.282 1227.85 L955.729 1351.29 L979.176 1392.6 L1002.62 1434.36 L1026.07 1475.86 L1049.52 1364.82 L1072.96 1319.17 L1096.41 1300.88 L1119.86 1278.63 L1143.3 1269.2 L1166.75 1260.21 L1190.2 1233.76 L1213.64 1173.91 L1237.09 1114.34 L1260.54 1054.51 L1283.99 995.125 L1307.43 935.48 L1330.88 995.127 L1354.33 1054.51 L1377.77 1114.35 L1401.22 1173.92 L1424.67 1233.87 L1448.11 1260.24 L1471.56 1269.23 L1495.01 1278.66 L1518.45 1301.03 L1541.9 1319.23 L1565.35 1364.82 L1588.8 1475.86 L1612.24 1434.36 L1635.69 1392.6 L1659.14 1351.29 L1682.58 1227.9 L1706.03 1223.4 L1729.48 1225.19 L1752.92 1226.01 L1776.37 1221.5 L1799.82 1219.55 L1823.26 1214.79 L1846.71 1212.01 L1870.16 1210.38 L1893.61 1208.17 L1917.05 1205.69 L1940.5 1203.67 L1963.95 1202.09 L1987.39 1193.21 L2010.84 929.707 L2034.29 998.272 L2057.73 1076.15 L2081.18 1097.78 L2104.63 1119.85 L2128.07 1141.67 L2151.52 1163.22 L2174.97 1168.7 L2198.42 1174.62 L2221.86 1180.29 L2245.31 1185.69 L2268.76 1185.9 L2292.2 1185.84 L2315.65 1185.52 L2339.1 1185.65 L2339.1 1185.65 L2315.65 1185.65 L2292.2 1185.65 L2268.76 1185.65 L2245.31 1185.65 L2221.86 1185.65 L2198.42 1185.65 L2174.97 1185.65 L2151.52 1185.65 L2128.07 1185.65 L2104.63 1185.65 L2081.18 1185.65 L2057.73 1185.65 L2034.29 1185.65 L2010.84 1185.65 L1987.39 1185.65 L1963.95 1185.65 L1940.5 1185.65 L1917.05 1185.65 L1893.61 1185.65 L1870.16 1185.65 L1846.71 1185.65 L1823.26 1185.65 L1799.82 1185.65 L1776.37 1185.65 L1752.92 1185.65 L1729.48 1185.65 L1706.03 1185.65 L1682.58 1185.65 L1659.14 1185.65 L1635.69 1185.65 L1612.24 1185.65 L1588.8 1185.65 L1565.35 1185.65 L1541.9 1185.65 L1518.45 1185.65 L1495.01 1185.65 L1471.56 1185.65 L1448.11 1185.65 L1424.67 1185.65 L1401.22 1185.65 L1377.77 1185.65 L1354.33 1185.65 L1330.88 1185.65 L1307.43 1185.65 L1283.99 1185.65 L1260.54 1185.65 L1237.09 1185.65 L1213.64 1185.65 L1190.2 1185.65 L1166.75 1185.65 L1143.3 1185.65 L1119.86 1185.65 L1096.41 1185.65 L1072.96 1185.65 L1049.52 1185.65 L1026.07 1185.65 L1002.62 1185.65 L979.176 1185.65 L955.729 1185.65 L932.282 1185.65 L908.835 1185.65 L885.388 1185.65 L861.941 1185.65 L838.494 1185.65 L815.047 1185.65 L791.6 1185.65 L768.153 1185.65 L744.707 1185.65 L721.26 1185.65 L697.813 1185.65 L674.366 1185.65 L650.919 1185.65 L627.472 1185.65 L604.025 1185.65 L580.578 1185.65 L557.131 1185.65 L533.684 1185.65 L510.237 1185.65 L486.791 1185.65 L463.344 1185.65 L439.897 1185.65 L416.45 1185.65 L393.003 1185.65 L369.556 1185.65 L346.109 1185.65 L322.662 1185.65 L299.215 1185.65 L275.768 1185.65  Z" fill="#ff0000" fill-rule="evenodd" fill-opacity="0.5"/>
<polyline clip-path="url(#clip393)" style="stroke:#ff0000; stroke-linecap:round; stroke-linejoin:round; stroke-width:4; stroke-opacity:1; fill:none" points="275.768,1185.65 299.215,1185.52 322.662,1185.84 346.109,1185.9 369.556,1185.69 393.003,1182.38 416.45,1178.81 439.897,1174.97 463.344,1171.59 486.791,1168.96 510.237,1166.07 533.684,1162.92 557.131,1160.22 580.578,1084.16 604.025,1031.38 627.472,1199.42 650.919,1201.95 674.366,1203.51 697.813,1205.52 721.26,1207.98 744.707,1210.18 768.153,1211.88 791.6,1214.74 815.047,1219.58 838.494,1221.41 861.941,1226.03 885.388,1225.31 908.835,1223.62 932.282,1227.85 955.729,1351.29 979.176,1392.6 1002.62,1434.36 1026.07,1475.86 1049.52,1364.82 1072.96,1319.17 1096.41,1300.88 1119.86,1278.63 1143.3,1269.2 1166.75,1260.21 1190.2,1233.76 1213.64,1173.91 1237.09,1114.34 1260.54,1054.51 1283.99,995.125 1307.43,935.48 1330.88,995.127 1354.33,1054.51 1377.77,1114.35 1401.22,1173.92 1424.67,1233.87 1448.11,1260.24 1471.56,1269.23 1495.01,1278.66 1518.45,1301.03 1541.9,1319.23 1565.35,1364.82 1588.8,1475.86 1612.24,1434.36 1635.69,1392.6 1659.14,1351.29 1682.58,1227.9 1706.03,1223.4 1729.48,1225.19 1752.92,1226.01 1776.37,1221.5 1799.82,1219.55 1823.26,1214.79 1846.71,1212.01 1870.16,1210.38 1893.61,1208.17 1917.05,1205.69 1940.5,1203.67 1963.95,1202.09 1987.39,1193.21 2010.84,929.707 2034.29,998.272 2057.73,1076.15 2081.18,1097.78 2104.63,1119.85 2128.07,1141.67 2151.52,1163.22 2174.97,1168.7 2198.42,1174.62 2221.86,1180.29 2245.31,1185.69 2268.76,1185.9 2292.2,1185.84 2315.65,1185.52 2339.1,1185.65 "/>
<path clip-path="url(#clip390)" d="M2488.43 1088.14 L2836.76 1088.14 L2836.76 932.62 L2488.43 932.62  Z" fill="#ffffff" fill-rule="evenodd" fill-opacity="1"/>
<polyline clip-path="url(#clip390)" style="stroke:#000000; stroke-linecap:round; stroke-linejoin:round; stroke-width:4; stroke-opacity:1; fill:none" points="2488.43,1088.14 2836.76,1088.14 2836.76,932.62 2488.43,932.62 2488.43,1088.14 "/>
<path clip-path="url(#clip390)" d="M2517.57 1005.2 L2692.43 1005.2 L2692.43 963.724 L2517.57 963.724 L2517.57 1005.2  Z" fill="#0000ff" fill-rule="evenodd" fill-opacity="0.5"/>
<polyline clip-path="url(#clip390)" style="stroke:#0000ff; stroke-linecap:round; stroke-linejoin:round; stroke-width:4; stroke-opacity:1; fill:none" points="2517.57,963.724 2692.43,963.724 "/>
<path clip-path="url(#clip390)" d="M2738.35 972.018 L2738.35 984.911 L2751.25 984.911 L2751.25 988.846 L2738.35 988.846 L2738.35 1001.74 L2734.46 1001.74 L2734.46 988.846 L2721.57 988.846 L2721.57 984.911 L2734.46 984.911 L2734.46 972.018 L2738.35 972.018 Z" fill="#000000" fill-rule="nonzero" fill-opacity="1" /><path clip-path="url(#clip390)" d="M2775.99 967.18 L2782.96 967.18 L2791.78 990.698 L2800.65 967.18 L2807.61 967.18 L2807.61 1001.74 L2803.05 1001.74 L2803.05 971.393 L2794.14 995.096 L2789.44 995.096 L2780.53 971.393 L2780.53 1001.74 L2775.99 1001.74 L2775.99 967.18 Z" fill="#000000" fill-rule="nonzero" fill-opacity="1" /><path clip-path="url(#clip390)" d="M2517.57 1057.04 L2692.43 1057.04 L2692.43 1015.56 L2517.57 1015.56 L2517.57 1057.04  Z" fill="#ff0000" fill-rule="evenodd" fill-opacity="0.5"/>
<polyline clip-path="url(#clip390)" style="stroke:#ff0000; stroke-linecap:round; stroke-linejoin:round; stroke-width:4; stroke-opacity:1; fill:none" points="2517.57,1015.56 2692.43,1015.56 "/>
<path clip-path="url(#clip390)" d="M2721.57 1038.7 L2734.05 1038.7 L2734.05 1042.49 L2721.57 1042.49 L2721.57 1038.7 Z" fill="#000000" fill-rule="nonzero" fill-opacity="1" /><path clip-path="url(#clip390)" d="M2756.09 1019.02 L2763.05 1019.02 L2771.87 1042.54 L2780.74 1019.02 L2787.71 1019.02 L2787.71 1053.58 L2783.15 1053.58 L2783.15 1023.23 L2774.23 1046.94 L2769.53 1046.94 L2760.62 1023.23 L2760.62 1053.58 L2756.09 1053.58 L2756.09 1019.02 Z" fill="#000000" fill-rule="nonzero" fill-opacity="1" /></svg>
