<?xml version="1.0" encoding="utf-8"?>
<svg xmlns="http://www.w3.org/2000/svg" xmlns:xlink="http://www.w3.org/1999/xlink" width="721" height="400" viewBox="0 0 2884 1600">
<defs>
  <clipPath id="clip390">
    <rect x="0" y="0" width="2884" height="1600"/>
  </clipPath>
</defs>
<path clip-path="url(#clip390)" d="M0 1600 L2884 1600 L2884 0 L0 0  Z" fill="#ffffff" fill-rule="evenodd" fill-opacity="1"/>
<defs>
  <clipPath id="clip391">
    <rect x="576" y="0" width="2020" height="1600"/>
  </clipPath>
</defs>
<path clip-path="url(#clip390)" d="M213.869 692.248 L2405.23 692.248 L2405.23 113.322 L213.869 113.322  Z" fill="#ffffff" fill-rule="evenodd" fill-opacity="1"/>
<defs>
  <clipPath id="clip392">
    <rect x="213" y="113" width="2192" height="580"/>
  </clipPath>
</defs>
<polyline clip-path="url(#clip392)" style="stroke:#000000; stroke-linecap:round; stroke-linejoin:round; stroke-width:2; stroke-opacity:0.1; fill:none" points="275.888,692.248 275.888,113.322 "/>
<polyline clip-path="url(#clip392)" style="stroke:#000000; stroke-linecap:round; stroke-linejoin:round; stroke-width:2; stroke-opacity:0.1; fill:none" points="745.735,692.248 745.735,113.322 "/>
<polyline clip-path="url(#clip392)" style="stroke:#000000; stroke-linecap:round; stroke-linejoin:round; stroke-width:2; stroke-opacity:0.1; fill:none" points="1215.58,692.248 1215.58,113.322 "/>
<polyline clip-path="url(#clip392)" style="stroke:#000000; stroke-linecap:round; stroke-linejoin:round; stroke-width:2; stroke-opacity:0.1; fill:none" points="1685.43,692.248 1685.43,113.322 "/>
<polyline clip-path="url(#clip392)" style="stroke:#000000; stroke-linecap:round; stroke-linejoin:round; stroke-width:2; stroke-opacity:0.1; fill:none" points="2155.27,692.248 2155.27,113.322 "/>
<polyline clip-path="url(#clip392)" style="stroke:#000000; stroke-linecap:round; stroke-linejoin:round; stroke-width:2; stroke-opacity:0.1; fill:none" points="213.869,689.833 2405.23,689.833 "/>
<polyline clip-path="url(#clip392)" style="stroke:#000000; stroke-linecap:round; stroke-linejoin:round; stroke-width:2; stroke-opacity:0.1; fill:none" points="213.869,594.15 2405.23,594.15 "/>
<polyline clip-path="url(#clip392)" style="stroke:#000000; stroke-linecap:round; stroke-linejoin:round; stroke-width:2; stroke-opacity:0.1; fill:none" points="213.869,498.468 2405.23,498.468 "/>
<polyline clip-path="url(#clip392)" style="stroke:#000000; stroke-linecap:round; stroke-linejoin:round; stroke-width:2; stroke-opacity:0.1; fill:none" points="213.869,402.785 2405.23,402.785 "/>
<polyline clip-path="url(#clip392)" style="stroke:#000000; stroke-linecap:round; stroke-linejoin:round; stroke-width:2; stroke-opacity:0.1; fill:none" points="213.869,307.102 2405.23,307.102 "/>
<polyline clip-path="url(#clip392)" style="stroke:#000000; stroke-linecap:round; stroke-linejoin:round; stroke-width:2; stroke-opacity:0.1; fill:none" points="213.869,211.42 2405.23,211.42 "/>
<polyline clip-path="url(#clip392)" style="stroke:#000000; stroke-linecap:round; stroke-linejoin:round; stroke-width:2; stroke-opacity:0.1; fill:none" points="213.869,115.737 2405.23,115.737 "/>
<polyline clip-path="url(#clip390)" style="stroke:#000000; stroke-linecap:round; stroke-linejoin:round; stroke-width:4; stroke-opacity:1; fill:none" points="213.869,692.248 2405.23,692.248 "/>
<polyline clip-path="url(#clip390)" style="stroke:#000000; stroke-linecap:round; stroke-linejoin:round; stroke-width:4; stroke-opacity:1; fill:none" points="275.888,692.248 275.888,673.35 "/>
<polyline clip-path="url(#clip390)" style="stroke:#000000; stroke-linecap:round; stroke-linejoin:round; stroke-width:4; stroke-opacity:1; fill:none" points="745.735,692.248 745.735,673.35 "/>
<polyline clip-path="url(#clip390)" style="stroke:#000000; stroke-linecap:round; stroke-linejoin:round; stroke-width:4; stroke-opacity:1; fill:none" points="1215.58,692.248 1215.58,673.35 "/>
<polyline clip-path="url(#clip390)" style="stroke:#000000; stroke-linecap:round; stroke-linejoin:round; stroke-width:4; stroke-opacity:1; fill:none" points="1685.43,692.248 1685.43,673.35 "/>
<polyline clip-path="url(#clip390)" style="stroke:#000000; stroke-linecap:round; stroke-linejoin:round; stroke-width:4; stroke-opacity:1; fill:none" points="2155.27,692.248 2155.27,673.35 "/>
<path clip-path="url(#clip390)" d="M275.888 727.039 Q272.277 727.039 270.448 730.603 Q268.643 734.145 268.643 741.275 Q268.643 748.381 270.448 751.946 Q272.277 755.487 275.888 755.487 Q279.522 755.487 281.328 751.946 Q283.157 748.381 283.157 741.275 Q283.157 734.145 281.328 730.603 Q279.522 727.039 275.888 727.039 M275.888 723.335 Q281.698 723.335 284.754 727.941 Q287.833 732.525 287.833 741.275 Q287.833 750.001 284.754 754.608 Q281.698 759.191 275.888 759.191 Q270.078 759.191 266.999 754.608 Q263.944 750.001 263.944 741.275 Q263.944 732.525 266.999 727.941 Q270.078 723.335 275.888 723.335 Z" fill="#000000" fill-rule="nonzero" fill-opacity="1" /><path clip-path="url(#clip390)" d="M720.422 754.585 L728.061 754.585 L728.061 728.219 L719.751 729.886 L719.751 725.626 L728.015 723.96 L732.691 723.96 L732.691 754.585 L740.33 754.585 L740.33 758.52 L720.422 758.52 L720.422 754.585 Z" fill="#000000" fill-rule="nonzero" fill-opacity="1" /><path clip-path="url(#clip390)" d="M759.774 727.039 Q756.163 727.039 754.334 730.603 Q752.529 734.145 752.529 741.275 Q752.529 748.381 754.334 751.946 Q756.163 755.487 759.774 755.487 Q763.408 755.487 765.214 751.946 Q767.042 748.381 767.042 741.275 Q767.042 734.145 765.214 730.603 Q763.408 727.039 759.774 727.039 M759.774 723.335 Q765.584 723.335 768.64 727.941 Q771.718 732.525 771.718 741.275 Q771.718 750.001 768.64 754.608 Q765.584 759.191 759.774 759.191 Q753.964 759.191 750.885 754.608 Q747.83 750.001 747.83 741.275 Q747.83 732.525 750.885 727.941 Q753.964 723.335 759.774 723.335 Z" fill="#000000" fill-rule="nonzero" fill-opacity="1" /><path clip-path="url(#clip390)" d="M1194.35 754.585 L1210.67 754.585 L1210.67 758.52 L1188.73 758.52 L1188.73 754.585 Q1191.39 751.83 1195.97 747.2 Q1200.58 742.548 1201.76 741.205 Q1204.01 738.682 1204.89 736.946 Q1205.79 735.187 1205.79 733.497 Q1205.79 730.742 1203.85 729.006 Q1201.92 727.27 1198.82 727.27 Q1196.62 727.27 1194.17 728.034 Q1191.74 728.798 1188.96 730.349 L1188.96 725.626 Q1191.79 724.492 1194.24 723.914 Q1196.69 723.335 1198.73 723.335 Q1204.1 723.335 1207.29 726.02 Q1210.49 728.705 1210.49 733.196 Q1210.49 735.325 1209.68 737.247 Q1208.89 739.145 1206.78 741.738 Q1206.21 742.409 1203.1 745.626 Q1200 748.821 1194.35 754.585 Z" fill="#000000" fill-rule="nonzero" fill-opacity="1" /><path clip-path="url(#clip390)" d="M1230.49 727.039 Q1226.88 727.039 1225.05 730.603 Q1223.24 734.145 1223.24 741.275 Q1223.24 748.381 1225.05 751.946 Q1226.88 755.487 1230.49 755.487 Q1234.12 755.487 1235.93 751.946 Q1237.76 748.381 1237.76 741.275 Q1237.76 734.145 1235.93 730.603 Q1234.12 727.039 1230.49 727.039 M1230.49 723.335 Q1236.3 723.335 1239.35 727.941 Q1242.43 732.525 1242.43 741.275 Q1242.43 750.001 1239.35 754.608 Q1236.3 759.191 1230.49 759.191 Q1224.68 759.191 1221.6 754.608 Q1218.54 750.001 1218.54 741.275 Q1218.54 732.525 1221.6 727.941 Q1224.68 723.335 1230.49 723.335 Z" fill="#000000" fill-rule="nonzero" fill-opacity="1" /><path clip-path="url(#clip390)" d="M1674.27 739.886 Q1677.63 740.603 1679.5 742.872 Q1681.4 745.14 1681.4 748.474 Q1681.4 753.589 1677.88 756.39 Q1674.36 759.191 1667.88 759.191 Q1665.71 759.191 1663.39 758.751 Q1661.1 758.335 1658.65 757.478 L1658.65 752.964 Q1660.59 754.099 1662.9 754.677 Q1665.22 755.256 1667.74 755.256 Q1672.14 755.256 1674.43 753.52 Q1676.75 751.784 1676.75 748.474 Q1676.75 745.418 1674.59 743.705 Q1672.46 741.969 1668.65 741.969 L1664.62 741.969 L1664.62 738.126 L1668.83 738.126 Q1672.28 738.126 1674.11 736.761 Q1675.94 735.372 1675.94 732.779 Q1675.94 730.117 1674.04 728.705 Q1672.16 727.27 1668.65 727.27 Q1666.72 727.27 1664.53 727.687 Q1662.33 728.103 1659.69 728.983 L1659.69 724.816 Q1662.35 724.076 1664.66 723.705 Q1667 723.335 1669.06 723.335 Q1674.39 723.335 1677.49 725.765 Q1680.59 728.173 1680.59 732.293 Q1680.59 735.163 1678.95 737.154 Q1677.3 739.122 1674.27 739.886 Z" fill="#000000" fill-rule="nonzero" fill-opacity="1" /><path clip-path="url(#clip390)" d="M1700.27 727.039 Q1696.65 727.039 1694.83 730.603 Q1693.02 734.145 1693.02 741.275 Q1693.02 748.381 1694.83 751.946 Q1696.65 755.487 1700.27 755.487 Q1703.9 755.487 1705.71 751.946 Q1707.53 748.381 1707.53 741.275 Q1707.53 734.145 1705.71 730.603 Q1703.9 727.039 1700.27 727.039 M1700.27 723.335 Q1706.08 723.335 1709.13 727.941 Q1712.21 732.525 1712.21 741.275 Q1712.21 750.001 1709.13 754.608 Q1706.08 759.191 1700.27 759.191 Q1694.46 759.191 1691.38 754.608 Q1688.32 750.001 1688.32 741.275 Q1688.32 732.525 1691.38 727.941 Q1694.46 723.335 1700.27 723.335 Z" fill="#000000" fill-rule="nonzero" fill-opacity="1" /><path clip-path="url(#clip390)" d="M2143.45 728.034 L2131.64 746.483 L2143.45 746.483 L2143.45 728.034 M2142.22 723.96 L2148.1 723.96 L2148.1 746.483 L2153.03 746.483 L2153.03 750.372 L2148.1 750.372 L2148.1 758.52 L2143.45 758.52 L2143.45 750.372 L2127.84 750.372 L2127.84 745.858 L2142.22 723.96 Z" fill="#000000" fill-rule="nonzero" fill-opacity="1" /><path clip-path="url(#clip390)" d="M2170.76 727.039 Q2167.15 727.039 2165.32 730.603 Q2163.51 734.145 2163.51 741.275 Q2163.51 748.381 2165.32 751.946 Q2167.15 755.487 2170.76 755.487 Q2174.39 755.487 2176.2 751.946 Q2178.03 748.381 2178.03 741.275 Q2178.03 734.145 2176.2 730.603 Q2174.39 727.039 2170.76 727.039 M2170.76 723.335 Q2176.57 723.335 2179.63 727.941 Q2182.7 732.525 2182.7 741.275 Q2182.7 750.001 2179.63 754.608 Q2176.57 759.191 2170.76 759.191 Q2164.95 759.191 2161.87 754.608 Q2158.82 750.001 2158.82 741.275 Q2158.82 732.525 2161.87 727.941 Q2164.95 723.335 2170.76 723.335 Z" fill="#000000" fill-rule="nonzero" fill-opacity="1" /><polyline clip-path="url(#clip390)" style="stroke:#000000; stroke-linecap:round; stroke-linejoin:round; stroke-width:4; stroke-opacity:1; fill:none" points="213.869,692.248 213.869,113.322 "/>
<polyline clip-path="url(#clip390)" style="stroke:#000000; stroke-linecap:round; stroke-linejoin:round; stroke-width:4; stroke-opacity:1; fill:none" points="213.869,689.833 229.657,689.833 "/>
<polyline clip-path="url(#clip390)" style="stroke:#000000; stroke-linecap:round; stroke-linejoin:round; stroke-width:4; stroke-opacity:1; fill:none" points="213.869,594.15 229.657,594.15 "/>
<polyline clip-path="url(#clip390)" style="stroke:#000000; stroke-linecap:round; stroke-linejoin:round; stroke-width:4; stroke-opacity:1; fill:none" points="213.869,498.468 229.657,498.468 "/>
<polyline clip-path="url(#clip390)" style="stroke:#000000; stroke-linecap:round; stroke-linejoin:round; stroke-width:4; stroke-opacity:1; fill:none" points="213.869,402.785 229.657,402.785 "/>
<polyline clip-path="url(#clip390)" style="stroke:#000000; stroke-linecap:round; stroke-linejoin:round; stroke-width:4; stroke-opacity:1; fill:none" points="213.869,307.102 229.657,307.102 "/>
<polyline clip-path="url(#clip390)" style="stroke:#000000; stroke-linecap:round; stroke-linejoin:round; stroke-width:4; stroke-opacity:1; fill:none" points="213.869,211.42 229.657,211.42 "/>
<polyline clip-path="url(#clip390)" style="stroke:#000000; stroke-linecap:round; stroke-linejoin:round; stroke-width:4; stroke-opacity:1; fill:none" points="213.869,115.737 229.657,115.737 "/>
<path clip-path="url(#clip390)" d="M48.5721 690.284 L78.2479 690.284 L78.2479 694.219 L48.5721 694.219 L48.5721 690.284 Z" fill="#000000" fill-rule="nonzero" fill-opacity="1" /><path clip-path="url(#clip390)" d="M102.507 688.479 Q105.863 689.196 107.738 691.465 Q109.637 693.733 109.637 697.067 Q109.637 702.182 106.118 704.983 Q102.6 707.784 96.1182 707.784 Q93.9423 707.784 91.6275 707.344 Q89.3358 706.928 86.8821 706.071 L86.8821 701.557 Q88.8265 702.692 91.1413 703.27 Q93.4561 703.849 95.9793 703.849 Q100.377 703.849 102.669 702.113 Q104.984 700.377 104.984 697.067 Q104.984 694.011 102.831 692.298 Q100.701 690.562 96.8821 690.562 L92.8543 690.562 L92.8543 686.719 L97.0672 686.719 Q100.516 686.719 102.345 685.354 Q104.174 683.965 104.174 681.372 Q104.174 678.71 102.276 677.298 Q100.401 675.863 96.8821 675.863 Q94.9608 675.863 92.7617 676.28 Q90.5626 676.696 87.9238 677.576 L87.9238 673.409 Q90.5858 672.669 92.9006 672.298 Q95.2385 671.928 97.2987 671.928 Q102.623 671.928 105.725 674.358 Q108.826 676.766 108.826 680.886 Q108.826 683.756 107.183 685.747 Q105.539 687.715 102.507 688.479 Z" fill="#000000" fill-rule="nonzero" fill-opacity="1" /><path clip-path="url(#clip390)" d="M128.502 675.631 Q124.891 675.631 123.062 679.196 Q121.257 682.738 121.257 689.868 Q121.257 696.974 123.062 700.539 Q124.891 704.08 128.502 704.08 Q132.136 704.08 133.942 700.539 Q135.771 696.974 135.771 689.868 Q135.771 682.738 133.942 679.196 Q132.136 675.631 128.502 675.631 M128.502 671.928 Q134.312 671.928 137.368 676.534 Q140.447 681.118 140.447 689.868 Q140.447 698.594 137.368 703.201 Q134.312 707.784 128.502 707.784 Q122.692 707.784 119.613 703.201 Q116.558 698.594 116.558 689.868 Q116.558 681.118 119.613 676.534 Q122.692 671.928 128.502 671.928 Z" fill="#000000" fill-rule="nonzero" fill-opacity="1" /><path clip-path="url(#clip390)" d="M158.664 675.631 Q155.053 675.631 153.224 679.196 Q151.419 682.738 151.419 689.868 Q151.419 696.974 153.224 700.539 Q155.053 704.08 158.664 704.08 Q162.298 704.08 164.104 700.539 Q165.933 696.974 165.933 689.868 Q165.933 682.738 164.104 679.196 Q162.298 675.631 158.664 675.631 M158.664 671.928 Q164.474 671.928 167.53 676.534 Q170.609 681.118 170.609 689.868 Q170.609 698.594 167.53 703.201 Q164.474 707.784 158.664 707.784 Q152.854 707.784 149.775 703.201 Q146.72 698.594 146.72 689.868 Q146.72 681.118 149.775 676.534 Q152.854 671.928 158.664 671.928 Z" fill="#000000" fill-rule="nonzero" fill-opacity="1" /><path clip-path="url(#clip390)" d="M48.5721 594.602 L78.2479 594.602 L78.2479 598.537 L48.5721 598.537 L48.5721 594.602 Z" fill="#000000" fill-rule="nonzero" fill-opacity="1" /><path clip-path="url(#clip390)" d="M92.3682 607.495 L108.688 607.495 L108.688 611.43 L86.7432 611.43 L86.7432 607.495 Q89.4052 604.74 93.9885 600.111 Q98.595 595.458 99.7756 594.115 Q102.021 591.592 102.901 589.856 Q103.803 588.097 103.803 586.407 Q103.803 583.653 101.859 581.916 Q99.9376 580.18 96.8358 580.18 Q94.6367 580.18 92.183 580.944 Q89.7525 581.708 86.9747 583.259 L86.9747 578.537 Q89.7988 577.403 92.2524 576.824 Q94.7061 576.245 96.7432 576.245 Q102.114 576.245 105.308 578.93 Q108.502 581.616 108.502 586.106 Q108.502 588.236 107.692 590.157 Q106.905 592.055 104.799 594.648 Q104.22 595.319 101.118 598.537 Q98.0163 601.731 92.3682 607.495 Z" fill="#000000" fill-rule="nonzero" fill-opacity="1" /><path clip-path="url(#clip390)" d="M128.502 579.949 Q124.891 579.949 123.062 583.514 Q121.257 587.055 121.257 594.185 Q121.257 601.291 123.062 604.856 Q124.891 608.398 128.502 608.398 Q132.136 608.398 133.942 604.856 Q135.771 601.291 135.771 594.185 Q135.771 587.055 133.942 583.514 Q132.136 579.949 128.502 579.949 M128.502 576.245 Q134.312 576.245 137.368 580.852 Q140.447 585.435 140.447 594.185 Q140.447 602.912 137.368 607.518 Q134.312 612.101 128.502 612.101 Q122.692 612.101 119.613 607.518 Q116.558 602.912 116.558 594.185 Q116.558 585.435 119.613 580.852 Q122.692 576.245 128.502 576.245 Z" fill="#000000" fill-rule="nonzero" fill-opacity="1" /><path clip-path="url(#clip390)" d="M158.664 579.949 Q155.053 579.949 153.224 583.514 Q151.419 587.055 151.419 594.185 Q151.419 601.291 153.224 604.856 Q155.053 608.398 158.664 608.398 Q162.298 608.398 164.104 604.856 Q165.933 601.291 165.933 594.185 Q165.933 587.055 164.104 583.514 Q162.298 579.949 158.664 579.949 M158.664 576.245 Q164.474 576.245 167.53 580.852 Q170.609 585.435 170.609 594.185 Q170.609 602.912 167.53 607.518 Q164.474 612.101 158.664 612.101 Q152.854 612.101 149.775 607.518 Q146.72 602.912 146.72 594.185 Q146.72 585.435 149.775 580.852 Q152.854 576.245 158.664 576.245 Z" fill="#000000" fill-rule="nonzero" fill-opacity="1" /><path clip-path="url(#clip390)" d="M48.5721 498.919 L78.2479 498.919 L78.2479 502.854 L48.5721 502.854 L48.5721 498.919 Z" fill="#000000" fill-rule="nonzero" fill-opacity="1" /><path clip-path="url(#clip390)" d="M89.1506 511.812 L96.7895 511.812 L96.7895 485.447 L88.4793 487.114 L88.4793 482.854 L96.7432 481.188 L101.419 481.188 L101.419 511.812 L109.058 511.812 L109.058 515.748 L89.1506 515.748 L89.1506 511.812 Z" fill="#000000" fill-rule="nonzero" fill-opacity="1" /><path clip-path="url(#clip390)" d="M128.502 484.266 Q124.891 484.266 123.062 487.831 Q121.257 491.373 121.257 498.502 Q121.257 505.609 123.062 509.174 Q124.891 512.715 128.502 512.715 Q132.136 512.715 133.942 509.174 Q135.771 505.609 135.771 498.502 Q135.771 491.373 133.942 487.831 Q132.136 484.266 128.502 484.266 M128.502 480.563 Q134.312 480.563 137.368 485.169 Q140.447 489.752 140.447 498.502 Q140.447 507.229 137.368 511.836 Q134.312 516.419 128.502 516.419 Q122.692 516.419 119.613 511.836 Q116.558 507.229 116.558 498.502 Q116.558 489.752 119.613 485.169 Q122.692 480.563 128.502 480.563 Z" fill="#000000" fill-rule="nonzero" fill-opacity="1" /><path clip-path="url(#clip390)" d="M158.664 484.266 Q155.053 484.266 153.224 487.831 Q151.419 491.373 151.419 498.502 Q151.419 505.609 153.224 509.174 Q155.053 512.715 158.664 512.715 Q162.298 512.715 164.104 509.174 Q165.933 505.609 165.933 498.502 Q165.933 491.373 164.104 487.831 Q162.298 484.266 158.664 484.266 M158.664 480.563 Q164.474 480.563 167.53 485.169 Q170.609 489.752 170.609 498.502 Q170.609 507.229 167.53 511.836 Q164.474 516.419 158.664 516.419 Q152.854 516.419 149.775 511.836 Q146.72 507.229 146.72 498.502 Q146.72 489.752 149.775 485.169 Q152.854 480.563 158.664 480.563 Z" fill="#000000" fill-rule="nonzero" fill-opacity="1" /><path clip-path="url(#clip390)" d="M158.664 388.584 Q155.053 388.584 153.224 392.149 Q151.419 395.69 151.419 402.82 Q151.419 409.926 153.224 413.491 Q155.053 417.033 158.664 417.033 Q162.298 417.033 164.104 413.491 Q165.933 409.926 165.933 402.82 Q165.933 395.69 164.104 392.149 Q162.298 388.584 158.664 388.584 M158.664 384.88 Q164.474 384.88 167.53 389.486 Q170.609 394.07 170.609 402.82 Q170.609 411.547 167.53 416.153 Q164.474 420.736 158.664 420.736 Q152.854 420.736 149.775 416.153 Q146.72 411.547 146.72 402.82 Q146.72 394.07 149.775 389.486 Q152.854 384.88 158.664 384.88 Z" fill="#000000" fill-rule="nonzero" fill-opacity="1" /><path clip-path="url(#clip390)" d="M89.1506 320.447 L96.7895 320.447 L96.7895 294.082 L88.4793 295.748 L88.4793 291.489 L96.7432 289.822 L101.419 289.822 L101.419 320.447 L109.058 320.447 L109.058 324.382 L89.1506 324.382 L89.1506 320.447 Z" fill="#000000" fill-rule="nonzero" fill-opacity="1" /><path clip-path="url(#clip390)" d="M128.502 292.901 Q124.891 292.901 123.062 296.466 Q121.257 300.008 121.257 307.137 Q121.257 314.244 123.062 317.808 Q124.891 321.35 128.502 321.35 Q132.136 321.35 133.942 317.808 Q135.771 314.244 135.771 307.137 Q135.771 300.008 133.942 296.466 Q132.136 292.901 128.502 292.901 M128.502 289.197 Q134.312 289.197 137.368 293.804 Q140.447 298.387 140.447 307.137 Q140.447 315.864 137.368 320.47 Q134.312 325.054 128.502 325.054 Q122.692 325.054 119.613 320.47 Q116.558 315.864 116.558 307.137 Q116.558 298.387 119.613 293.804 Q122.692 289.197 128.502 289.197 Z" fill="#000000" fill-rule="nonzero" fill-opacity="1" /><path clip-path="url(#clip390)" d="M158.664 292.901 Q155.053 292.901 153.224 296.466 Q151.419 300.008 151.419 307.137 Q151.419 314.244 153.224 317.808 Q155.053 321.35 158.664 321.35 Q162.298 321.35 164.104 317.808 Q165.933 314.244 165.933 307.137 Q165.933 300.008 164.104 296.466 Q162.298 292.901 158.664 292.901 M158.664 289.197 Q164.474 289.197 167.53 293.804 Q170.609 298.387 170.609 307.137 Q170.609 315.864 167.53 320.47 Q164.474 325.054 158.664 325.054 Q152.854 325.054 149.775 320.47 Q146.72 315.864 146.72 307.137 Q146.72 298.387 149.775 293.804 Q152.854 289.197 158.664 289.197 Z" fill="#000000" fill-rule="nonzero" fill-opacity="1" /><path clip-path="url(#clip390)" d="M92.3682 224.765 L108.688 224.765 L108.688 228.7 L86.7432 228.7 L86.7432 224.765 Q89.4052 222.01 93.9885 217.38 Q98.595 212.728 99.7756 211.385 Q102.021 208.862 102.901 207.126 Q103.803 205.367 103.803 203.677 Q103.803 200.922 101.859 199.186 Q99.9376 197.45 96.8358 197.45 Q94.6367 197.45 92.183 198.214 Q89.7525 198.978 86.9747 200.529 L86.9747 195.806 Q89.7988 194.672 92.2524 194.094 Q94.7061 193.515 96.7432 193.515 Q102.114 193.515 105.308 196.2 Q108.502 198.885 108.502 203.376 Q108.502 205.506 107.692 207.427 Q106.905 209.325 104.799 211.918 Q104.22 212.589 101.118 215.806 Q98.0163 219.001 92.3682 224.765 Z" fill="#000000" fill-rule="nonzero" fill-opacity="1" /><path clip-path="url(#clip390)" d="M128.502 197.219 Q124.891 197.219 123.062 200.783 Q121.257 204.325 121.257 211.455 Q121.257 218.561 123.062 222.126 Q124.891 225.667 128.502 225.667 Q132.136 225.667 133.942 222.126 Q135.771 218.561 135.771 211.455 Q135.771 204.325 133.942 200.783 Q132.136 197.219 128.502 197.219 M128.502 193.515 Q134.312 193.515 137.368 198.121 Q140.447 202.705 140.447 211.455 Q140.447 220.181 137.368 224.788 Q134.312 229.371 128.502 229.371 Q122.692 229.371 119.613 224.788 Q116.558 220.181 116.558 211.455 Q116.558 202.705 119.613 198.121 Q122.692 193.515 128.502 193.515 Z" fill="#000000" fill-rule="nonzero" fill-opacity="1" /><path clip-path="url(#clip390)" d="M158.664 197.219 Q155.053 197.219 153.224 200.783 Q151.419 204.325 151.419 211.455 Q151.419 218.561 153.224 222.126 Q155.053 225.667 158.664 225.667 Q162.298 225.667 164.104 222.126 Q165.933 218.561 165.933 211.455 Q165.933 204.325 164.104 200.783 Q162.298 197.219 158.664 197.219 M158.664 193.515 Q164.474 193.515 167.53 198.121 Q170.609 202.705 170.609 211.455 Q170.609 220.181 167.53 224.788 Q164.474 229.371 158.664 229.371 Q152.854 229.371 149.775 224.788 Q146.72 220.181 146.72 211.455 Q146.72 202.705 149.775 198.121 Q152.854 193.515 158.664 193.515 Z" fill="#000000" fill-rule="nonzero" fill-opacity="1" /><path clip-path="url(#clip390)" d="M102.507 114.383 Q105.863 115.101 107.738 117.369 Q109.637 119.638 109.637 122.971 Q109.637 128.087 106.118 130.888 Q102.6 133.689 96.1182 133.689 Q93.9423 133.689 91.6275 133.249 Q89.3358 132.832 86.8821 131.976 L86.8821 127.462 Q88.8265 128.596 91.1413 129.175 Q93.4561 129.753 95.9793 129.753 Q100.377 129.753 102.669 128.017 Q104.984 126.281 104.984 122.971 Q104.984 119.915 102.831 118.203 Q100.701 116.466 96.8821 116.466 L92.8543 116.466 L92.8543 112.624 L97.0672 112.624 Q100.516 112.624 102.345 111.258 Q104.174 109.869 104.174 107.277 Q104.174 104.615 102.276 103.203 Q100.401 101.767 96.8821 101.767 Q94.9608 101.767 92.7617 102.184 Q90.5626 102.601 87.9238 103.48 L87.9238 99.3137 Q90.5858 98.573 92.9006 98.2026 Q95.2385 97.8323 97.2987 97.8323 Q102.623 97.8323 105.725 100.263 Q108.826 102.67 108.826 106.791 Q108.826 109.661 107.183 111.652 Q105.539 113.619 102.507 114.383 Z" fill="#000000" fill-rule="nonzero" fill-opacity="1" /><path clip-path="url(#clip390)" d="M128.502 101.536 Q124.891 101.536 123.062 105.101 Q121.257 108.642 121.257 115.772 Q121.257 122.878 123.062 126.443 Q124.891 129.985 128.502 129.985 Q132.136 129.985 133.942 126.443 Q135.771 122.878 135.771 115.772 Q135.771 108.642 133.942 105.101 Q132.136 101.536 128.502 101.536 M128.502 97.8323 Q134.312 97.8323 137.368 102.439 Q140.447 107.022 140.447 115.772 Q140.447 124.499 137.368 129.105 Q134.312 133.689 128.502 133.689 Q122.692 133.689 119.613 129.105 Q116.558 124.499 116.558 115.772 Q116.558 107.022 119.613 102.439 Q122.692 97.8323 128.502 97.8323 Z" fill="#000000" fill-rule="nonzero" fill-opacity="1" /><path clip-path="url(#clip390)" d="M158.664 101.536 Q155.053 101.536 153.224 105.101 Q151.419 108.642 151.419 115.772 Q151.419 122.878 153.224 126.443 Q155.053 129.985 158.664 129.985 Q162.298 129.985 164.104 126.443 Q165.933 122.878 165.933 115.772 Q165.933 108.642 164.104 105.101 Q162.298 101.536 158.664 101.536 M158.664 97.8323 Q164.474 97.8323 167.53 102.439 Q170.609 107.022 170.609 115.772 Q170.609 124.499 167.53 129.105 Q164.474 133.689 158.664 133.689 Q152.854 133.689 149.775 129.105 Q146.72 124.499 146.72 115.772 Q146.72 107.022 149.775 102.439 Q152.854 97.8323 158.664 97.8323 Z" fill="#000000" fill-rule="nonzero" fill-opacity="1" /><path clip-path="url(#clip390)" d="M766.304 12.096 L778.497 12.096 L793.931 53.2532 L809.446 12.096 L821.639 12.096 L821.639 72.576 L813.659 72.576 L813.659 19.4686 L798.063 60.9499 L789.84 60.9499 L774.244 19.4686 L774.244 72.576 L766.304 72.576 L766.304 12.096 Z" fill="#000000" fill-rule="nonzero" fill-opacity="1" /><path clip-path="url(#clip390)" d="M858.178 49.7694 Q849.145 49.7694 845.661 51.8354 Q842.177 53.9013 842.177 58.8839 Q842.177 62.8538 844.77 65.2034 Q847.403 67.5124 851.9 67.5124 Q858.097 67.5124 861.824 63.1374 Q865.592 58.7219 865.592 51.4303 L865.592 49.7694 L858.178 49.7694 M873.045 46.6907 L873.045 72.576 L865.592 72.576 L865.592 65.6895 Q863.04 69.8214 859.232 71.8063 Q855.424 73.7508 849.915 73.7508 Q842.947 73.7508 838.815 69.8619 Q834.724 65.9325 834.724 59.3701 Q834.724 51.7138 839.828 47.825 Q844.973 43.9361 855.14 43.9361 L865.592 43.9361 L865.592 43.2069 Q865.592 38.0623 862.189 35.2672 Q858.827 32.4315 852.71 32.4315 Q848.821 32.4315 845.135 33.3632 Q841.448 34.295 838.045 36.1584 L838.045 29.2718 Q842.137 27.692 845.985 26.9223 Q849.834 26.1121 853.479 26.1121 Q863.323 26.1121 868.184 31.2163 Q873.045 36.3204 873.045 46.6907 Z" fill="#000000" fill-rule="nonzero" fill-opacity="1" /><path clip-path="url(#clip390)" d="M926.112 27.2059 L909.706 49.2833 L926.963 72.576 L918.172 72.576 L904.966 54.752 L891.76 72.576 L882.97 72.576 L900.591 48.8377 L884.469 27.2059 L893.259 27.2059 L905.291 43.369 L917.322 27.2059 L926.112 27.2059 Z" fill="#000000" fill-rule="nonzero" fill-opacity="1" /><path clip-path="url(#clip390)" d="M1000.45 14.0809 L1000.45 22.0612 Q995.788 19.8332 991.656 18.7395 Q987.524 17.6457 983.675 17.6457 Q976.992 17.6457 973.346 20.2383 Q969.74 22.8309 969.74 27.611 Q969.74 31.6214 972.13 33.6873 Q974.561 35.7128 981.285 36.9686 L986.228 37.9813 Q995.383 39.7232 999.717 44.1387 Q1004.09 48.5136 1004.09 55.8863 Q1004.09 64.6767 998.178 69.2137 Q992.304 73.7508 980.921 73.7508 Q976.627 73.7508 971.766 72.7785 Q966.945 71.8063 961.76 69.9024 L961.76 61.4765 Q966.743 64.2716 971.523 65.6895 Q976.303 67.1073 980.921 67.1073 Q987.929 67.1073 991.737 64.3527 Q995.545 61.598 995.545 56.4939 Q995.545 52.0379 992.79 49.5264 Q990.076 47.0148 983.838 45.759 L978.855 44.7868 Q969.7 42.9639 965.608 39.075 Q961.517 35.1862 961.517 28.2591 Q961.517 20.2383 967.148 15.6203 Q972.819 11.0023 982.744 11.0023 Q986.997 11.0023 991.413 11.7719 Q995.828 12.5416 1000.45 14.0809 Z" fill="#000000" fill-rule="nonzero" fill-opacity="1" /><path clip-path="url(#clip390)" d="M1054.24 45.1919 L1054.24 72.576 L1046.79 72.576 L1046.79 45.4349 Q1046.79 38.994 1044.28 35.7938 Q1041.77 32.5936 1036.74 32.5936 Q1030.71 32.5936 1027.22 36.4419 Q1023.74 40.2903 1023.74 46.9338 L1023.74 72.576 L1016.24 72.576 L1016.24 9.54393 L1023.74 9.54393 L1023.74 34.2544 Q1026.41 30.163 1030.02 28.1376 Q1033.66 26.1121 1038.4 26.1121 Q1046.22 26.1121 1050.23 30.9732 Q1054.24 35.7938 1054.24 45.1919 Z" fill="#000000" fill-rule="nonzero" fill-opacity="1" /><path clip-path="url(#clip390)" d="M1107.92 48.0275 L1107.92 51.6733 L1073.65 51.6733 Q1074.13 59.3701 1078.26 63.421 Q1082.44 67.4314 1089.85 67.4314 Q1094.14 67.4314 1098.15 66.3781 Q1102.2 65.3249 1106.17 63.2184 L1106.17 70.267 Q1102.16 71.9684 1097.95 72.8596 Q1093.74 73.7508 1089.4 73.7508 Q1078.55 73.7508 1072.19 67.4314 Q1065.87 61.1119 1065.87 50.3365 Q1065.87 39.1965 1071.86 32.6746 Q1077.9 26.1121 1088.11 26.1121 Q1097.26 26.1121 1102.57 32.0264 Q1107.92 37.9003 1107.92 48.0275 M1100.46 45.84 Q1100.38 39.7232 1097.02 36.0774 Q1093.7 32.4315 1088.19 32.4315 Q1081.95 32.4315 1078.18 35.9558 Q1074.46 39.4801 1073.89 45.8805 L1100.46 45.84 Z" fill="#000000" fill-rule="nonzero" fill-opacity="1" /><path clip-path="url(#clip390)" d="M1140.77 49.7694 Q1131.74 49.7694 1128.25 51.8354 Q1124.77 53.9013 1124.77 58.8839 Q1124.77 62.8538 1127.36 65.2034 Q1129.99 67.5124 1134.49 67.5124 Q1140.69 67.5124 1144.42 63.1374 Q1148.18 58.7219 1148.18 51.4303 L1148.18 49.7694 L1140.77 49.7694 M1155.64 46.6907 L1155.64 72.576 L1148.18 72.576 L1148.18 65.6895 Q1145.63 69.8214 1141.82 71.8063 Q1138.01 73.7508 1132.51 73.7508 Q1125.54 73.7508 1121.41 69.8619 Q1117.31 65.9325 1117.31 59.3701 Q1117.31 51.7138 1122.42 47.825 Q1127.56 43.9361 1137.73 43.9361 L1148.18 43.9361 L1148.18 43.2069 Q1148.18 38.0623 1144.78 35.2672 Q1141.42 32.4315 1135.3 32.4315 Q1131.41 32.4315 1127.73 33.3632 Q1124.04 34.295 1120.64 36.1584 L1120.64 29.2718 Q1124.73 27.692 1128.58 26.9223 Q1132.42 26.1121 1136.07 26.1121 Q1145.91 26.1121 1150.78 31.2163 Q1155.64 36.3204 1155.64 46.6907 Z" fill="#000000" fill-rule="nonzero" fill-opacity="1" /><path clip-path="url(#clip390)" d="M1197.28 34.1734 Q1196.02 33.4443 1194.53 33.1202 Q1193.07 32.7556 1191.28 32.7556 Q1184.96 32.7556 1181.56 36.8875 Q1178.2 40.9789 1178.2 48.6757 L1178.2 72.576 L1170.71 72.576 L1170.71 27.2059 L1178.2 27.2059 L1178.2 34.2544 Q1180.55 30.1225 1184.32 28.1376 Q1188.08 26.1121 1193.47 26.1121 Q1194.24 26.1121 1195.17 26.2337 Q1196.1 26.3147 1197.24 26.5172 L1197.28 34.1734 Z" fill="#000000" fill-rule="nonzero" fill-opacity="1" /><path clip-path="url(#clip390)" d="M1231.79 12.096 L1270.03 12.096 L1270.03 18.9825 L1239.98 18.9825 L1239.98 36.8875 L1268.78 36.8875 L1268.78 43.7741 L1239.98 43.7741 L1239.98 65.6895 L1270.76 65.6895 L1270.76 72.576 L1231.79 72.576 L1231.79 12.096 Z" fill="#000000" fill-rule="nonzero" fill-opacity="1" /><path clip-path="url(#clip390)" d="M1321.6 45.1919 L1321.6 72.576 L1314.15 72.576 L1314.15 45.4349 Q1314.15 38.994 1311.64 35.7938 Q1309.13 32.5936 1304.1 32.5936 Q1298.07 32.5936 1294.58 36.4419 Q1291.1 40.2903 1291.1 46.9338 L1291.1 72.576 L1283.6 72.576 L1283.6 27.2059 L1291.1 27.2059 L1291.1 34.2544 Q1293.77 30.163 1297.38 28.1376 Q1301.02 26.1121 1305.76 26.1121 Q1313.58 26.1121 1317.59 30.9732 Q1321.6 35.7938 1321.6 45.1919 Z" fill="#000000" fill-rule="nonzero" fill-opacity="1" /><path clip-path="url(#clip390)" d="M1331.12 27.2059 L1339.02 27.2059 L1353.2 65.2844 L1367.38 27.2059 L1375.28 27.2059 L1358.26 72.576 L1348.14 72.576 L1331.12 27.2059 Z" fill="#000000" fill-rule="nonzero" fill-opacity="1" /><path clip-path="url(#clip390)" d="M1424.37 48.0275 L1424.37 51.6733 L1390.1 51.6733 Q1390.59 59.3701 1394.72 63.421 Q1398.89 67.4314 1406.31 67.4314 Q1410.6 67.4314 1414.61 66.3781 Q1418.66 65.3249 1422.63 63.2184 L1422.63 70.267 Q1418.62 71.9684 1414.41 72.8596 Q1410.2 73.7508 1405.86 73.7508 Q1395 73.7508 1388.64 67.4314 Q1382.32 61.1119 1382.32 50.3365 Q1382.32 39.1965 1388.32 32.6746 Q1394.36 26.1121 1404.56 26.1121 Q1413.72 26.1121 1419.03 32.0264 Q1424.37 37.9003 1424.37 48.0275 M1416.92 45.84 Q1416.84 39.7232 1413.48 36.0774 Q1410.15 32.4315 1404.65 32.4315 Q1398.41 32.4315 1394.64 35.9558 Q1390.91 39.4801 1390.35 45.8805 L1416.92 45.84 Z" fill="#000000" fill-rule="nonzero" fill-opacity="1" /><path clip-path="url(#clip390)" d="M1436.61 9.54393 L1444.06 9.54393 L1444.06 72.576 L1436.61 72.576 L1436.61 9.54393 Z" fill="#000000" fill-rule="nonzero" fill-opacity="1" /><path clip-path="url(#clip390)" d="M1477.24 32.4315 Q1471.24 32.4315 1467.76 37.1306 Q1464.27 41.7891 1464.27 49.9314 Q1464.27 58.0738 1467.72 62.7728 Q1471.2 67.4314 1477.24 67.4314 Q1483.19 67.4314 1486.68 62.7323 Q1490.16 58.0333 1490.16 49.9314 Q1490.16 41.8701 1486.68 37.1711 Q1483.19 32.4315 1477.24 32.4315 M1477.24 26.1121 Q1486.96 26.1121 1492.51 32.4315 Q1498.06 38.7509 1498.06 49.9314 Q1498.06 61.0714 1492.51 67.4314 Q1486.96 73.7508 1477.24 73.7508 Q1467.47 73.7508 1461.93 67.4314 Q1456.42 61.0714 1456.42 49.9314 Q1456.42 38.7509 1461.93 32.4315 Q1467.47 26.1121 1477.24 26.1121 Z" fill="#000000" fill-rule="nonzero" fill-opacity="1" /><path clip-path="url(#clip390)" d="M1517.63 65.7705 L1517.63 89.8329 L1510.13 89.8329 L1510.13 27.2059 L1517.63 27.2059 L1517.63 34.0924 Q1519.97 30.0415 1523.54 28.0971 Q1527.14 26.1121 1532.13 26.1121 Q1540.39 26.1121 1545.54 32.6746 Q1550.72 39.2371 1550.72 49.9314 Q1550.72 60.6258 1545.54 67.1883 Q1540.39 73.7508 1532.13 73.7508 Q1527.14 73.7508 1523.54 71.8063 Q1519.97 69.8214 1517.63 65.7705 M1542.98 49.9314 Q1542.98 41.7081 1539.58 37.0496 Q1536.22 32.3505 1530.3 32.3505 Q1524.39 32.3505 1520.99 37.0496 Q1517.63 41.7081 1517.63 49.9314 Q1517.63 58.1548 1520.99 62.8538 Q1524.39 67.5124 1530.3 67.5124 Q1536.22 67.5124 1539.58 62.8538 Q1542.98 58.1548 1542.98 49.9314 Z" fill="#000000" fill-rule="nonzero" fill-opacity="1" /><path clip-path="url(#clip390)" d="M1601.88 48.0275 L1601.88 51.6733 L1567.61 51.6733 Q1568.1 59.3701 1572.23 63.421 Q1576.4 67.4314 1583.82 67.4314 Q1588.11 67.4314 1592.12 66.3781 Q1596.17 65.3249 1600.14 63.2184 L1600.14 70.267 Q1596.13 71.9684 1591.92 72.8596 Q1587.71 73.7508 1583.37 73.7508 Q1572.51 73.7508 1566.16 67.4314 Q1559.84 61.1119 1559.84 50.3365 Q1559.84 39.1965 1565.83 32.6746 Q1571.87 26.1121 1582.08 26.1121 Q1591.23 26.1121 1596.54 32.0264 Q1601.88 37.9003 1601.88 48.0275 M1594.43 45.84 Q1594.35 39.7232 1590.99 36.0774 Q1587.67 32.4315 1582.16 32.4315 Q1575.92 32.4315 1572.15 35.9558 Q1568.42 39.4801 1567.86 45.8805 L1594.43 45.84 Z" fill="#000000" fill-rule="nonzero" fill-opacity="1" /><path clip-path="url(#clip390)" d="M1658.39 9.62495 Q1652.97 18.942 1650.33 28.0566 Q1647.7 37.1711 1647.7 46.5287 Q1647.7 55.8863 1650.33 65.0818 Q1653.01 74.2369 1658.39 83.5134 L1651.91 83.5134 Q1645.84 73.9938 1642.8 64.7983 Q1639.8 55.6027 1639.8 46.5287 Q1639.8 37.4952 1642.8 28.3401 Q1645.8 19.1851 1651.91 9.62495 L1658.39 9.62495 Z" fill="#000000" fill-rule="nonzero" fill-opacity="1" /><path clip-path="url(#clip390)" d="M1709.44 14.0809 L1709.44 22.0612 Q1704.78 19.8332 1700.65 18.7395 Q1696.51 17.6457 1692.66 17.6457 Q1685.98 17.6457 1682.33 20.2383 Q1678.73 22.8309 1678.73 27.611 Q1678.73 31.6214 1681.12 33.6873 Q1683.55 35.7128 1690.27 36.9686 L1695.22 37.9813 Q1704.37 39.7232 1708.71 44.1387 Q1713.08 48.5136 1713.08 55.8863 Q1713.08 64.6767 1707.17 69.2137 Q1701.29 73.7508 1689.91 73.7508 Q1685.62 73.7508 1680.76 72.7785 Q1675.93 71.8063 1670.75 69.9024 L1670.75 61.4765 Q1675.73 64.2716 1680.51 65.6895 Q1685.29 67.1073 1689.91 67.1073 Q1696.92 67.1073 1700.73 64.3527 Q1704.53 61.598 1704.53 56.4939 Q1704.53 52.0379 1701.78 49.5264 Q1699.07 47.0148 1692.83 45.759 L1687.84 44.7868 Q1678.69 42.9639 1674.6 39.075 Q1670.51 35.1862 1670.51 28.2591 Q1670.51 20.2383 1676.14 15.6203 Q1681.81 11.0023 1691.73 11.0023 Q1695.99 11.0023 1700.4 11.7719 Q1704.82 12.5416 1709.44 14.0809 Z" fill="#000000" fill-rule="nonzero" fill-opacity="1" /><path clip-path="url(#clip390)" d="M1754.52 44.2197 Q1757.16 45.1109 1759.63 48.0275 Q1762.14 50.9442 1764.65 56.0483 L1772.95 72.576 L1764.16 72.576 L1756.43 57.061 Q1753.43 50.9847 1750.59 48.9997 Q1747.8 47.0148 1742.94 47.0148 L1734.02 47.0148 L1734.02 72.576 L1725.84 72.576 L1725.84 12.096 L1744.31 12.096 Q1754.68 12.096 1759.79 16.4305 Q1764.89 20.7649 1764.89 29.5149 Q1764.89 35.2267 1762.22 38.994 Q1759.59 42.7613 1754.52 44.2197 M1734.02 18.8205 L1734.02 40.2903 L1744.31 40.2903 Q1750.23 40.2903 1753.23 37.5762 Q1756.26 34.8216 1756.26 29.5149 Q1756.26 24.2082 1753.23 21.5346 Q1750.23 18.8205 1744.31 18.8205 L1734.02 18.8205 Z" fill="#000000" fill-rule="nonzero" fill-opacity="1" /><path clip-path="url(#clip390)" d="M1794.54 72.576 L1771.45 12.096 L1780 12.096 L1799.16 63.0159 L1818.36 12.096 L1826.87 12.096 L1803.82 72.576 L1794.54 72.576 Z" fill="#000000" fill-rule="nonzero" fill-opacity="1" /><path clip-path="url(#clip390)" d="M1834.2 9.62495 L1840.68 9.62495 Q1846.76 19.1851 1849.76 28.3401 Q1852.8 37.4952 1852.8 46.5287 Q1852.8 55.6027 1849.76 64.7983 Q1846.76 73.9938 1840.68 83.5134 L1834.2 83.5134 Q1839.59 74.2369 1842.22 65.0818 Q1844.9 55.8863 1844.9 46.5287 Q1844.9 37.1711 1842.22 28.0566 Q1839.59 18.942 1834.2 9.62495 Z" fill="#000000" fill-rule="nonzero" fill-opacity="1" /><path clip-path="url(#clip392)" d="M275.888 403.072 L299.381 403.742 L322.873 404.699 L346.365 405.751 L369.858 471.772 L393.35 537.793 L416.842 538.75 L440.335 539.707 L463.827 411.109 L487.319 262.897 L510.811 263.854 L534.304 264.811 L557.796 265.768 L581.288 266.82 L604.781 267.777 L628.273 268.734 L651.765 269.691 L675.258 270.647 L698.75 271.604 L722.242 272.657 L745.735 391.686 L769.227 474.93 L792.719 475.982 L816.212 476.939 L839.704 477.896 L863.196 478.853 L886.689 479.81 L910.181 480.862 L933.673 481.819 L957.166 482.776 L980.658 483.732 L1004.15 484.689 L1027.64 321.551 L1051.13 129.707 L1074.63 130.759 L1098.12 131.716 L1121.61 262.801 L1145.1 386.806 L1168.6 387.763 L1192.09 388.72 L1215.58 389.677 L1239.07 390.729 L1262.57 391.686 L1286.06 392.643 L1309.55 393.599 L1333.04 394.556 L1356.54 395.609 L1380.03 396.566 L1403.52 397.522 L1427.01 398.479 L1450.5 399.436 L1474 400.489 L1497.49 476.078 L1520.98 551.667 L1544.47 552.624 L1567.97 553.676 L1591.46 423.644 L1614.95 254.477 L1638.44 255.434 L1661.94 256.391 L1685.43 257.347 L1708.92 258.304 L1732.41 259.357 L1755.9 260.314 L1779.4 261.27 L1802.89 262.227 L1826.38 263.184 L1849.87 264.237 L1873.37 391.494 L1896.86 473.494 L1920.35 474.451 L1943.84 475.408 L1967.34 476.365 L1990.83 477.322 L2014.32 478.279 L2037.81 479.331 L2061.3 480.288 L2084.8 481.245 L2108.29 482.202 L2131.78 483.158 L2155.27 360.972 L2178.77 181.854 L2202.26 182.811 L2225.75 183.768 L2249.24 291.793 L2272.74 399.819 L2296.23 400.871 L2319.72 401.828 L2343.21 402.498 L2343.21 402.785 L2319.72 402.785 L2296.23 402.785 L2272.74 402.785 L2249.24 402.785 L2225.75 402.785 L2202.26 402.785 L2178.77 402.785 L2155.27 402.785 L2131.78 402.785 L2108.29 402.785 L2084.8 402.785 L2061.3 402.785 L2037.81 402.785 L2014.32 402.785 L1990.83 402.785 L1967.34 402.785 L1943.84 402.785 L1920.35 402.785 L1896.86 402.785 L1873.37 402.785 L1849.87 402.785 L1826.38 402.785 L1802.89 402.785 L1779.4 402.785 L1755.9 402.785 L1732.41 402.785 L1708.92 402.785 L1685.43 402.785 L1661.94 402.785 L1638.44 402.785 L1614.95 402.785 L1591.46 402.785 L1567.97 402.785 L1544.47 402.785 L1520.98 402.785 L1497.49 402.785 L1474 402.785 L1450.5 402.785 L1427.01 402.785 L1403.52 402.785 L1380.03 402.785 L1356.54 402.785 L1333.04 402.785 L1309.55 402.785 L1286.06 402.785 L1262.57 402.785 L1239.07 402.785 L1215.58 402.785 L1192.09 402.785 L1168.6 402.785 L1145.1 402.785 L1121.61 402.785 L1098.12 402.785 L1074.63 402.785 L1051.13 402.785 L1027.64 402.785 L1004.15 402.785 L980.658 402.785 L957.166 402.785 L933.673 402.785 L910.181 402.785 L886.689 402.785 L863.196 402.785 L839.704 402.785 L816.212 402.785 L792.719 402.785 L769.227 402.785 L745.735 402.785 L722.242 402.785 L698.75 402.785 L675.258 402.785 L651.765 402.785 L628.273 402.785 L604.781 402.785 L581.288 402.785 L557.796 402.785 L534.304 402.785 L510.811 402.785 L487.319 402.785 L463.827 402.785 L440.335 402.785 L416.842 402.785 L393.35 402.785 L369.858 402.785 L346.365 402.785 L322.873 402.785 L299.381 402.785 L275.888 402.785  Z" fill="#0000ff" fill-rule="evenodd" fill-opacity="0.5"/>
<polyline clip-path="url(#clip392)" style="stroke:#0000ff; stroke-linecap:round; stroke-linejoin:round; stroke-width:4; stroke-opacity:1; fill:none" points="275.888,403.072 299.381,403.742 322.873,404.699 346.365,405.751 369.858,471.772 393.35,537.793 416.842,538.75 440.335,539.707 463.827,411.109 487.319,262.897 510.811,263.854 534.304,264.811 557.796,265.768 581.288,266.82 604.781,267.777 628.273,268.734 651.765,269.691 675.258,270.647 698.75,271.604 722.242,272.657 745.735,391.686 769.227,474.93 792.719,475.982 816.212,476.939 839.704,477.896 863.196,478.853 886.689,479.81 910.181,480.862 933.673,481.819 957.166,482.776 980.658,483.732 1004.15,484.689 1027.64,321.551 1051.13,129.707 1074.63,130.759 1098.12,131.716 1121.61,262.801 1145.1,386.806 1168.6,387.763 1192.09,388.72 1215.58,389.677 1239.07,390.729 1262.57,391.686 1286.06,392.643 1309.55,393.599 1333.04,394.556 1356.54,395.609 1380.03,396.566 1403.52,397.522 1427.01,398.479 1450.5,399.436 1474,400.489 1497.49,476.078 1520.98,551.667 1544.47,552.624 1567.97,553.676 1591.46,423.644 1614.95,254.477 1638.44,255.434 1661.94,256.391 1685.43,257.347 1708.92,258.304 1732.41,259.357 1755.9,260.314 1779.4,261.27 1802.89,262.227 1826.38,263.184 1849.87,264.237 1873.37,391.494 1896.86,473.494 1920.35,474.451 1943.84,475.408 1967.34,476.365 1990.83,477.322 2014.32,478.279 2037.81,479.331 2061.3,480.288 2084.8,481.245 2108.29,482.202 2131.78,483.158 2155.27,360.972 2178.77,181.854 2202.26,182.811 2225.75,183.768 2249.24,291.793 2272.74,399.819 2296.23,400.871 2319.72,401.828 2343.21,402.498 "/>
<path clip-path="url(#clip392)" d="M275.888 403.072 L299.381 403.742 L322.873 404.699 L346.365 405.751 L369.858 513.777 L393.35 621.802 L416.842 622.759 L440.335 623.716 L463.827 444.598 L487.319 322.412 L510.811 323.368 L534.304 324.325 L557.796 325.282 L581.288 326.239 L604.781 327.291 L628.273 328.248 L651.765 329.205 L675.258 330.162 L698.75 331.119 L722.242 332.076 L745.735 414.076 L769.227 541.333 L792.719 542.386 L816.212 543.343 L839.704 544.3 L863.196 545.256 L886.689 546.213 L910.181 547.266 L933.673 548.223 L957.166 549.179 L980.658 550.136 L1004.15 551.093 L1027.64 381.926 L1051.13 251.894 L1074.63 252.946 L1098.12 253.903 L1121.61 329.492 L1145.1 405.081 L1168.6 406.134 L1192.09 407.091 L1215.58 408.048 L1239.07 409.004 L1262.57 409.961 L1286.06 411.014 L1309.55 411.971 L1333.04 412.927 L1356.54 413.884 L1380.03 414.841 L1403.52 415.894 L1427.01 416.85 L1450.5 417.807 L1474 418.764 L1497.49 542.769 L1520.98 673.854 L1544.47 674.811 L1567.97 675.863 L1591.46 484.02 L1614.95 320.881 L1638.44 321.838 L1661.94 322.794 L1685.43 323.751 L1708.92 324.708 L1732.41 325.761 L1755.9 326.717 L1779.4 327.674 L1802.89 328.631 L1826.38 329.588 L1849.87 330.64 L1873.37 413.884 L1896.86 532.913 L1920.35 533.966 L1943.84 534.923 L1967.34 535.88 L1990.83 536.836 L2014.32 537.793 L2037.81 538.75 L2061.3 539.802 L2084.8 540.759 L2108.29 541.716 L2131.78 542.673 L2155.27 394.461 L2178.77 265.863 L2202.26 266.82 L2225.75 267.777 L2249.24 333.798 L2272.74 399.819 L2296.23 400.871 L2319.72 401.828 L2343.21 402.498 L2343.21 402.785 L2319.72 402.785 L2296.23 402.785 L2272.74 402.785 L2249.24 402.785 L2225.75 402.785 L2202.26 402.785 L2178.77 402.785 L2155.27 402.785 L2131.78 402.785 L2108.29 402.785 L2084.8 402.785 L2061.3 402.785 L2037.81 402.785 L2014.32 402.785 L1990.83 402.785 L1967.34 402.785 L1943.84 402.785 L1920.35 402.785 L1896.86 402.785 L1873.37 402.785 L1849.87 402.785 L1826.38 402.785 L1802.89 402.785 L1779.4 402.785 L1755.9 402.785 L1732.41 402.785 L1708.92 402.785 L1685.43 402.785 L1661.94 402.785 L1638.44 402.785 L1614.95 402.785 L1591.46 402.785 L1567.97 402.785 L1544.47 402.785 L1520.98 402.785 L1497.49 402.785 L1474 402.785 L1450.5 402.785 L1427.01 402.785 L1403.52 402.785 L1380.03 402.785 L1356.54 402.785 L1333.04 402.785 L1309.55 402.785 L1286.06 402.785 L1262.57 402.785 L1239.07 402.785 L1215.58 402.785 L1192.09 402.785 L1168.6 402.785 L1145.1 402.785 L1121.61 402.785 L1098.12 402.785 L1074.63 402.785 L1051.13 402.785 L1027.64 402.785 L1004.15 402.785 L980.658 402.785 L957.166 402.785 L933.673 402.785 L910.181 402.785 L886.689 402.785 L863.196 402.785 L839.704 402.785 L816.212 402.785 L792.719 402.785 L769.227 402.785 L745.735 402.785 L722.242 402.785 L698.75 402.785 L675.258 402.785 L651.765 402.785 L628.273 402.785 L604.781 402.785 L581.288 402.785 L557.796 402.785 L534.304 402.785 L510.811 402.785 L487.319 402.785 L463.827 402.785 L440.335 402.785 L416.842 402.785 L393.35 402.785 L369.858 402.785 L346.365 402.785 L322.873 402.785 L299.381 402.785 L275.888 402.785  Z" fill="#ff0000" fill-rule="evenodd" fill-opacity="0.5"/>
<polyline clip-path="url(#clip392)" style="stroke:#ff0000; stroke-linecap:round; stroke-linejoin:round; stroke-width:4; stroke-opacity:1; fill:none" points="275.888,403.072 299.381,403.742 322.873,404.699 346.365,405.751 369.858,513.777 393.35,621.802 416.842,622.759 440.335,623.716 463.827,444.598 487.319,322.412 510.811,323.368 534.304,324.325 557.796,325.282 581.288,326.239 604.781,327.291 628.273,328.248 651.765,329.205 675.258,330.162 698.75,331.119 722.242,332.076 745.735,414.076 769.227,541.333 792.719,542.386 816.212,543.343 839.704,544.3 863.196,545.256 886.689,546.213 910.181,547.266 933.673,548.223 957.166,549.179 980.658,550.136 1004.15,551.093 1027.64,381.926 1051.13,251.894 1074.63,252.946 1098.12,253.903 1121.61,329.492 1145.1,405.081 1168.6,406.134 1192.09,407.091 1215.58,408.048 1239.07,409.004 1262.57,409.961 1286.06,411.014 1309.55,411.971 1333.04,412.927 1356.54,413.884 1380.03,414.841 1403.52,415.894 1427.01,416.85 1450.5,417.807 1474,418.764 1497.49,542.769 1520.98,673.854 1544.47,674.811 1567.97,675.863 1591.46,484.02 1614.95,320.881 1638.44,321.838 1661.94,322.794 1685.43,323.751 1708.92,324.708 1732.41,325.761 1755.9,326.717 1779.4,327.674 1802.89,328.631 1826.38,329.588 1849.87,330.64 1873.37,413.884 1896.86,532.913 1920.35,533.966 1943.84,534.923 1967.34,535.88 1990.83,536.836 2014.32,537.793 2037.81,538.75 2061.3,539.802 2084.8,540.759 2108.29,541.716 2131.78,542.673 2155.27,394.461 2178.77,265.863 2202.26,266.82 2225.75,267.777 2249.24,333.798 2272.74,399.819 2296.23,400.871 2319.72,401.828 2343.21,402.498 "/>
<path clip-path="url(#clip390)" d="M2492.66 288.14 L2836.76 288.14 L2836.76 132.62 L2492.66 132.62  Z" fill="#ffffff" fill-rule="evenodd" fill-opacity="1"/>
<polyline clip-path="url(#clip390)" style="stroke:#000000; stroke-linecap:round; stroke-linejoin:round; stroke-width:4; stroke-opacity:1; fill:none" points="2492.66,288.14 2836.76,288.14 2836.76,132.62 2492.66,132.62 2492.66,288.14 "/>
<path clip-path="url(#clip390)" d="M2521.81 205.196 L2696.66 205.196 L2696.66 163.724 L2521.81 163.724 L2521.81 205.196  Z" fill="#0000ff" fill-rule="evenodd" fill-opacity="0.5"/>
<polyline clip-path="url(#clip390)" style="stroke:#0000ff; stroke-linecap:round; stroke-linejoin:round; stroke-width:4; stroke-opacity:1; fill:none" points="2521.81,163.724 2696.66,163.724 "/>
<path clip-path="url(#clip390)" d="M2742.59 172.018 L2742.59 184.911 L2755.48 184.911 L2755.48 188.846 L2742.59 188.846 L2742.59 201.74 L2738.7 201.74 L2738.7 188.846 L2725.81 188.846 L2725.81 184.911 L2738.7 184.911 L2738.7 172.018 L2742.59 172.018 Z" fill="#000000" fill-rule="nonzero" fill-opacity="1" /><path clip-path="url(#clip390)" d="M2789.14 201.74 L2775.95 167.18 L2780.83 167.18 L2791.78 196.277 L2802.75 167.18 L2807.61 167.18 L2794.44 201.74 L2789.14 201.74 Z" fill="#000000" fill-rule="nonzero" fill-opacity="1" /><path clip-path="url(#clip390)" d="M2521.81 257.036 L2696.66 257.036 L2696.66 215.564 L2521.81 215.564 L2521.81 257.036  Z" fill="#ff0000" fill-rule="evenodd" fill-opacity="0.5"/>
<polyline clip-path="url(#clip390)" style="stroke:#ff0000; stroke-linecap:round; stroke-linejoin:round; stroke-width:4; stroke-opacity:1; fill:none" points="2521.81,215.564 2696.66,215.564 "/>
<path clip-path="url(#clip390)" d="M2725.81 238.696 L2738.28 238.696 L2738.28 242.492 L2725.81 242.492 L2725.81 238.696 Z" fill="#000000" fill-rule="nonzero" fill-opacity="1" /><path clip-path="url(#clip390)" d="M2769.23 253.58 L2756.04 219.02 L2760.92 219.02 L2771.87 248.117 L2782.84 219.02 L2787.71 219.02 L2774.53 253.58 L2769.23 253.58 Z" fill="#000000" fill-rule="nonzero" fill-opacity="1" /><path clip-path="url(#clip390)" d="M213.869 1492.25 L2401 1492.25 L2401 913.322 L213.869 913.322  Z" fill="#ffffff" fill-rule="evenodd" fill-opacity="1"/>
<defs>
  <clipPath id="clip393">
    <rect x="213" y="913" width="2188" height="580"/>
  </clipPath>
</defs>
<polyline clip-path="url(#clip393)" style="stroke:#000000; stroke-linecap:round; stroke-linejoin:round; stroke-width:2; stroke-opacity:0.1; fill:none" points="275.768,1492.25 275.768,913.322 "/>
<polyline clip-path="url(#clip393)" style="stroke:#000000; stroke-linecap:round; stroke-linejoin:round; stroke-width:2; stroke-opacity:0.1; fill:none" points="744.707,1492.25 744.707,913.322 "/>
<polyline clip-path="url(#clip393)" style="stroke:#000000; stroke-linecap:round; stroke-linejoin:round; stroke-width:2; stroke-opacity:0.1; fill:none" points="1213.64,1492.25 1213.64,913.322 "/>
<polyline clip-path="url(#clip393)" style="stroke:#000000; stroke-linecap:round; stroke-linejoin:round; stroke-width:2; stroke-opacity:0.1; fill:none" points="1682.58,1492.25 1682.58,913.322 "/>
<polyline clip-path="url(#clip393)" style="stroke:#000000; stroke-linecap:round; stroke-linejoin:round; stroke-width:2; stroke-opacity:0.1; fill:none" points="2151.52,1492.25 2151.52,913.322 "/>
<polyline clip-path="url(#clip393)" style="stroke:#000000; stroke-linecap:round; stroke-linejoin:round; stroke-width:2; stroke-opacity:0.1; fill:none" points="213.869,1432.65 2401,1432.65 "/>
<polyline clip-path="url(#clip393)" style="stroke:#000000; stroke-linecap:round; stroke-linejoin:round; stroke-width:2; stroke-opacity:0.1; fill:none" points="213.869,1317.86 2401,1317.86 "/>
<polyline clip-path="url(#clip393)" style="stroke:#000000; stroke-linecap:round; stroke-linejoin:round; stroke-width:2; stroke-opacity:0.1; fill:none" points="213.869,1203.07 2401,1203.07 "/>
<polyline clip-path="url(#clip393)" style="stroke:#000000; stroke-linecap:round; stroke-linejoin:round; stroke-width:2; stroke-opacity:0.1; fill:none" points="213.869,1088.29 2401,1088.29 "/>
<polyline clip-path="url(#clip393)" style="stroke:#000000; stroke-linecap:round; stroke-linejoin:round; stroke-width:2; stroke-opacity:0.1; fill:none" points="213.869,973.498 2401,973.498 "/>
<polyline clip-path="url(#clip390)" style="stroke:#000000; stroke-linecap:round; stroke-linejoin:round; stroke-width:4; stroke-opacity:1; fill:none" points="213.869,1492.25 2401,1492.25 "/>
<polyline clip-path="url(#clip390)" style="stroke:#000000; stroke-linecap:round; stroke-linejoin:round; stroke-width:4; stroke-opacity:1; fill:none" points="275.768,1492.25 275.768,1473.35 "/>
<polyline clip-path="url(#clip390)" style="stroke:#000000; stroke-linecap:round; stroke-linejoin:round; stroke-width:4; stroke-opacity:1; fill:none" points="744.707,1492.25 744.707,1473.35 "/>
<polyline clip-path="url(#clip390)" style="stroke:#000000; stroke-linecap:round; stroke-linejoin:round; stroke-width:4; stroke-opacity:1; fill:none" points="1213.64,1492.25 1213.64,1473.35 "/>
<polyline clip-path="url(#clip390)" style="stroke:#000000; stroke-linecap:round; stroke-linejoin:round; stroke-width:4; stroke-opacity:1; fill:none" points="1682.58,1492.25 1682.58,1473.35 "/>
<polyline clip-path="url(#clip390)" style="stroke:#000000; stroke-linecap:round; stroke-linejoin:round; stroke-width:4; stroke-opacity:1; fill:none" points="2151.52,1492.25 2151.52,1473.35 "/>
<path clip-path="url(#clip390)" d="M275.768 1527.04 Q272.157 1527.04 270.329 1530.6 Q268.523 1534.14 268.523 1541.27 Q268.523 1548.38 270.329 1551.95 Q272.157 1555.49 275.768 1555.49 Q279.403 1555.49 281.208 1551.95 Q283.037 1548.38 283.037 1541.27 Q283.037 1534.14 281.208 1530.6 Q279.403 1527.04 275.768 1527.04 M275.768 1523.33 Q281.579 1523.33 284.634 1527.94 Q287.713 1532.52 287.713 1541.27 Q287.713 1550 284.634 1554.61 Q281.579 1559.19 275.768 1559.19 Q269.958 1559.19 266.88 1554.61 Q263.824 1550 263.824 1541.27 Q263.824 1532.52 266.88 1527.94 Q269.958 1523.33 275.768 1523.33 Z" fill="#000000" fill-rule="nonzero" fill-opacity="1" /><path clip-path="url(#clip390)" d="M719.394 1554.58 L727.033 1554.58 L727.033 1528.22 L718.723 1529.89 L718.723 1525.63 L726.987 1523.96 L731.663 1523.96 L731.663 1554.58 L739.302 1554.58 L739.302 1558.52 L719.394 1558.52 L719.394 1554.58 Z" fill="#000000" fill-rule="nonzero" fill-opacity="1" /><path clip-path="url(#clip390)" d="M758.746 1527.04 Q755.135 1527.04 753.306 1530.6 Q751.501 1534.14 751.501 1541.27 Q751.501 1548.38 753.306 1551.95 Q755.135 1555.49 758.746 1555.49 Q762.38 1555.49 764.186 1551.95 Q766.014 1548.38 766.014 1541.27 Q766.014 1534.14 764.186 1530.6 Q762.38 1527.04 758.746 1527.04 M758.746 1523.33 Q764.556 1523.33 767.612 1527.94 Q770.69 1532.52 770.69 1541.27 Q770.69 1550 767.612 1554.61 Q764.556 1559.19 758.746 1559.19 Q752.936 1559.19 749.857 1554.61 Q746.801 1550 746.801 1541.27 Q746.801 1532.52 749.857 1527.94 Q752.936 1523.33 758.746 1523.33 Z" fill="#000000" fill-rule="nonzero" fill-opacity="1" /><path clip-path="url(#clip390)" d="M1192.42 1554.58 L1208.74 1554.58 L1208.74 1558.52 L1186.79 1558.52 L1186.79 1554.58 Q1189.46 1551.83 1194.04 1547.2 Q1198.64 1542.55 1199.83 1541.21 Q1202.07 1538.68 1202.95 1536.95 Q1203.85 1535.19 1203.85 1533.5 Q1203.85 1530.74 1201.91 1529.01 Q1199.99 1527.27 1196.89 1527.27 Q1194.69 1527.27 1192.23 1528.03 Q1189.8 1528.8 1187.02 1530.35 L1187.02 1525.63 Q1189.85 1524.49 1192.3 1523.91 Q1194.76 1523.33 1196.79 1523.33 Q1202.16 1523.33 1205.36 1526.02 Q1208.55 1528.71 1208.55 1533.2 Q1208.55 1535.33 1207.74 1537.25 Q1206.96 1539.14 1204.85 1541.74 Q1204.27 1542.41 1201.17 1545.63 Q1198.07 1548.82 1192.42 1554.58 Z" fill="#000000" fill-rule="nonzero" fill-opacity="1" /><path clip-path="url(#clip390)" d="M1228.55 1527.04 Q1224.94 1527.04 1223.11 1530.6 Q1221.31 1534.14 1221.31 1541.27 Q1221.31 1548.38 1223.11 1551.95 Q1224.94 1555.49 1228.55 1555.49 Q1232.19 1555.49 1233.99 1551.95 Q1235.82 1548.38 1235.82 1541.27 Q1235.82 1534.14 1233.99 1530.6 Q1232.19 1527.04 1228.55 1527.04 M1228.55 1523.33 Q1234.36 1523.33 1237.42 1527.94 Q1240.5 1532.52 1240.5 1541.27 Q1240.5 1550 1237.42 1554.61 Q1234.36 1559.19 1228.55 1559.19 Q1222.74 1559.19 1219.66 1554.61 Q1216.61 1550 1216.61 1541.27 Q1216.61 1532.52 1219.66 1527.94 Q1222.74 1523.33 1228.55 1523.33 Z" fill="#000000" fill-rule="nonzero" fill-opacity="1" /><path clip-path="url(#clip390)" d="M1671.43 1539.89 Q1674.78 1540.6 1676.66 1542.87 Q1678.56 1545.14 1678.56 1548.47 Q1678.56 1553.59 1675.04 1556.39 Q1671.52 1559.19 1665.04 1559.19 Q1662.86 1559.19 1660.55 1558.75 Q1658.25 1558.33 1655.8 1557.48 L1655.8 1552.96 Q1657.75 1554.1 1660.06 1554.68 Q1662.37 1555.26 1664.9 1555.26 Q1669.3 1555.26 1671.59 1553.52 Q1673.9 1551.78 1673.9 1548.47 Q1673.9 1545.42 1671.75 1543.71 Q1669.62 1541.97 1665.8 1541.97 L1661.77 1541.97 L1661.77 1538.13 L1665.99 1538.13 Q1669.43 1538.13 1671.26 1536.76 Q1673.09 1535.37 1673.09 1532.78 Q1673.09 1530.12 1671.19 1528.71 Q1669.32 1527.27 1665.8 1527.27 Q1663.88 1527.27 1661.68 1527.69 Q1659.48 1528.1 1656.84 1528.98 L1656.84 1524.82 Q1659.5 1524.08 1661.82 1523.71 Q1664.16 1523.33 1666.22 1523.33 Q1671.54 1523.33 1674.64 1525.77 Q1677.75 1528.17 1677.75 1532.29 Q1677.75 1535.16 1676.1 1537.15 Q1674.46 1539.12 1671.43 1539.89 Z" fill="#000000" fill-rule="nonzero" fill-opacity="1" /><path clip-path="url(#clip390)" d="M1697.42 1527.04 Q1693.81 1527.04 1691.98 1530.6 Q1690.18 1534.14 1690.18 1541.27 Q1690.18 1548.38 1691.98 1551.95 Q1693.81 1555.49 1697.42 1555.49 Q1701.06 1555.49 1702.86 1551.95 Q1704.69 1548.38 1704.69 1541.27 Q1704.69 1534.14 1702.86 1530.6 Q1701.06 1527.04 1697.42 1527.04 M1697.42 1523.33 Q1703.23 1523.33 1706.29 1527.94 Q1709.37 1532.52 1709.37 1541.27 Q1709.37 1550 1706.29 1554.61 Q1703.23 1559.19 1697.42 1559.19 Q1691.61 1559.19 1688.53 1554.61 Q1685.48 1550 1685.48 1541.27 Q1685.48 1532.52 1688.53 1527.94 Q1691.61 1523.33 1697.42 1523.33 Z" fill="#000000" fill-rule="nonzero" fill-opacity="1" /><path clip-path="url(#clip390)" d="M2139.69 1528.03 L2127.89 1546.48 L2139.69 1546.48 L2139.69 1528.03 M2138.47 1523.96 L2144.35 1523.96 L2144.35 1546.48 L2149.28 1546.48 L2149.28 1550.37 L2144.35 1550.37 L2144.35 1558.52 L2139.69 1558.52 L2139.69 1550.37 L2124.09 1550.37 L2124.09 1545.86 L2138.47 1523.96 Z" fill="#000000" fill-rule="nonzero" fill-opacity="1" /><path clip-path="url(#clip390)" d="M2167.01 1527.04 Q2163.4 1527.04 2161.57 1530.6 Q2159.76 1534.14 2159.76 1541.27 Q2159.76 1548.38 2161.57 1551.95 Q2163.4 1555.49 2167.01 1555.49 Q2170.64 1555.49 2172.45 1551.95 Q2174.28 1548.38 2174.28 1541.27 Q2174.28 1534.14 2172.45 1530.6 Q2170.64 1527.04 2167.01 1527.04 M2167.01 1523.33 Q2172.82 1523.33 2175.87 1527.94 Q2178.95 1532.52 2178.95 1541.27 Q2178.95 1550 2175.87 1554.61 Q2172.82 1559.19 2167.01 1559.19 Q2161.2 1559.19 2158.12 1554.61 Q2155.06 1550 2155.06 1541.27 Q2155.06 1532.52 2158.12 1527.94 Q2161.2 1523.33 2167.01 1523.33 Z" fill="#000000" fill-rule="nonzero" fill-opacity="1" /><polyline clip-path="url(#clip390)" style="stroke:#000000; stroke-linecap:round; stroke-linejoin:round; stroke-width:4; stroke-opacity:1; fill:none" points="213.869,1492.25 213.869,913.322 "/>
<polyline clip-path="url(#clip390)" style="stroke:#000000; stroke-linecap:round; stroke-linejoin:round; stroke-width:4; stroke-opacity:1; fill:none" points="213.869,1432.65 229.627,1432.65 "/>
<polyline clip-path="url(#clip390)" style="stroke:#000000; stroke-linecap:round; stroke-linejoin:round; stroke-width:4; stroke-opacity:1; fill:none" points="213.869,1317.86 229.627,1317.86 "/>
<polyline clip-path="url(#clip390)" style="stroke:#000000; stroke-linecap:round; stroke-linejoin:round; stroke-width:4; stroke-opacity:1; fill:none" points="213.869,1203.07 229.627,1203.07 "/>
<polyline clip-path="url(#clip390)" style="stroke:#000000; stroke-linecap:round; stroke-linejoin:round; stroke-width:4; stroke-opacity:1; fill:none" points="213.869,1088.29 229.627,1088.29 "/>
<polyline clip-path="url(#clip390)" style="stroke:#000000; stroke-linecap:round; stroke-linejoin:round; stroke-width:4; stroke-opacity:1; fill:none" points="213.869,973.498 229.627,973.498 "/>
<path clip-path="url(#clip390)" d="M48.5721 1433.1 L78.2479 1433.1 L78.2479 1437.03 L48.5721 1437.03 L48.5721 1433.1 Z" fill="#000000" fill-rule="nonzero" fill-opacity="1" /><path clip-path="url(#clip390)" d="M101.188 1419.44 L89.3821 1437.89 L101.188 1437.89 L101.188 1419.44 M99.9607 1415.37 L105.84 1415.37 L105.84 1437.89 L110.771 1437.89 L110.771 1441.78 L105.84 1441.78 L105.84 1449.93 L101.188 1449.93 L101.188 1441.78 L85.5858 1441.78 L85.5858 1437.26 L99.9607 1415.37 Z" fill="#000000" fill-rule="nonzero" fill-opacity="1" /><path clip-path="url(#clip390)" d="M128.502 1418.44 Q124.891 1418.44 123.062 1422.01 Q121.257 1425.55 121.257 1432.68 Q121.257 1439.79 123.062 1443.35 Q124.891 1446.89 128.502 1446.89 Q132.136 1446.89 133.942 1443.35 Q135.771 1439.79 135.771 1432.68 Q135.771 1425.55 133.942 1422.01 Q132.136 1418.44 128.502 1418.44 M128.502 1414.74 Q134.312 1414.74 137.368 1419.35 Q140.447 1423.93 140.447 1432.68 Q140.447 1441.41 137.368 1446.01 Q134.312 1450.6 128.502 1450.6 Q122.692 1450.6 119.613 1446.01 Q116.558 1441.41 116.558 1432.68 Q116.558 1423.93 119.613 1419.35 Q122.692 1414.74 128.502 1414.74 Z" fill="#000000" fill-rule="nonzero" fill-opacity="1" /><path clip-path="url(#clip390)" d="M158.664 1418.44 Q155.053 1418.44 153.224 1422.01 Q151.419 1425.55 151.419 1432.68 Q151.419 1439.79 153.224 1443.35 Q155.053 1446.89 158.664 1446.89 Q162.298 1446.89 164.104 1443.35 Q165.933 1439.79 165.933 1432.68 Q165.933 1425.55 164.104 1422.01 Q162.298 1418.44 158.664 1418.44 M158.664 1414.74 Q164.474 1414.74 167.53 1419.35 Q170.609 1423.93 170.609 1432.68 Q170.609 1441.41 167.53 1446.01 Q164.474 1450.6 158.664 1450.6 Q152.854 1450.6 149.775 1446.01 Q146.72 1441.41 146.72 1432.68 Q146.72 1423.93 149.775 1419.35 Q152.854 1414.74 158.664 1414.74 Z" fill="#000000" fill-rule="nonzero" fill-opacity="1" /><path clip-path="url(#clip390)" d="M48.5721 1318.31 L78.2479 1318.31 L78.2479 1322.25 L48.5721 1322.25 L48.5721 1318.31 Z" fill="#000000" fill-rule="nonzero" fill-opacity="1" /><path clip-path="url(#clip390)" d="M92.3682 1331.2 L108.688 1331.2 L108.688 1335.14 L86.7432 1335.14 L86.7432 1331.2 Q89.4052 1328.45 93.9885 1323.82 Q98.595 1319.17 99.7756 1317.82 Q102.021 1315.3 102.901 1313.56 Q103.803 1311.81 103.803 1310.12 Q103.803 1307.36 101.859 1305.63 Q99.9376 1303.89 96.8358 1303.89 Q94.6367 1303.89 92.183 1304.65 Q89.7525 1305.42 86.9747 1306.97 L86.9747 1302.25 Q89.7988 1301.11 92.2524 1300.53 Q94.7061 1299.95 96.7432 1299.95 Q102.114 1299.95 105.308 1302.64 Q108.502 1305.32 108.502 1309.81 Q108.502 1311.94 107.692 1313.87 Q106.905 1315.76 104.799 1318.36 Q104.22 1319.03 101.118 1322.25 Q98.0163 1325.44 92.3682 1331.2 Z" fill="#000000" fill-rule="nonzero" fill-opacity="1" /><path clip-path="url(#clip390)" d="M128.502 1303.66 Q124.891 1303.66 123.062 1307.22 Q121.257 1310.76 121.257 1317.89 Q121.257 1325 123.062 1328.56 Q124.891 1332.11 128.502 1332.11 Q132.136 1332.11 133.942 1328.56 Q135.771 1325 135.771 1317.89 Q135.771 1310.76 133.942 1307.22 Q132.136 1303.66 128.502 1303.66 M128.502 1299.95 Q134.312 1299.95 137.368 1304.56 Q140.447 1309.14 140.447 1317.89 Q140.447 1326.62 137.368 1331.23 Q134.312 1335.81 128.502 1335.81 Q122.692 1335.81 119.613 1331.23 Q116.558 1326.62 116.558 1317.89 Q116.558 1309.14 119.613 1304.56 Q122.692 1299.95 128.502 1299.95 Z" fill="#000000" fill-rule="nonzero" fill-opacity="1" /><path clip-path="url(#clip390)" d="M158.664 1303.66 Q155.053 1303.66 153.224 1307.22 Q151.419 1310.76 151.419 1317.89 Q151.419 1325 153.224 1328.56 Q155.053 1332.11 158.664 1332.11 Q162.298 1332.11 164.104 1328.56 Q165.933 1325 165.933 1317.89 Q165.933 1310.76 164.104 1307.22 Q162.298 1303.66 158.664 1303.66 M158.664 1299.95 Q164.474 1299.95 167.53 1304.56 Q170.609 1309.14 170.609 1317.89 Q170.609 1326.62 167.53 1331.23 Q164.474 1335.81 158.664 1335.81 Q152.854 1335.81 149.775 1331.23 Q146.72 1326.62 146.72 1317.89 Q146.72 1309.14 149.775 1304.56 Q152.854 1299.95 158.664 1299.95 Z" fill="#000000" fill-rule="nonzero" fill-opacity="1" /><path clip-path="url(#clip390)" d="M158.664 1188.87 Q155.053 1188.87 153.224 1192.44 Q151.419 1195.98 151.419 1203.11 Q151.419 1210.21 153.224 1213.78 Q155.053 1217.32 158.664 1217.32 Q162.298 1217.32 164.104 1213.78 Q165.933 1210.21 165.933 1203.11 Q165.933 1195.98 164.104 1192.44 Q162.298 1188.87 158.664 1188.87 M158.664 1185.17 Q164.474 1185.17 167.53 1189.77 Q170.609 1194.36 170.609 1203.11 Q170.609 1211.83 167.53 1216.44 Q164.474 1221.02 158.664 1221.02 Q152.854 1221.02 149.775 1216.44 Q146.72 1211.83 146.72 1203.11 Q146.72 1194.36 149.775 1189.77 Q152.854 1185.17 158.664 1185.17 Z" fill="#000000" fill-rule="nonzero" fill-opacity="1" /><path clip-path="url(#clip390)" d="M92.3682 1101.63 L108.688 1101.63 L108.688 1105.57 L86.7432 1105.57 L86.7432 1101.63 Q89.4052 1098.88 93.9885 1094.25 Q98.595 1089.59 99.7756 1088.25 Q102.021 1085.73 102.901 1083.99 Q103.803 1082.23 103.803 1080.54 Q103.803 1077.79 101.859 1076.05 Q99.9376 1074.32 96.8358 1074.32 Q94.6367 1074.32 92.183 1075.08 Q89.7525 1075.84 86.9747 1077.39 L86.9747 1072.67 Q89.7988 1071.54 92.2524 1070.96 Q94.7061 1070.38 96.7432 1070.38 Q102.114 1070.38 105.308 1073.07 Q108.502 1075.75 108.502 1080.24 Q108.502 1082.37 107.692 1084.29 Q106.905 1086.19 104.799 1088.78 Q104.22 1089.45 101.118 1092.67 Q98.0163 1095.87 92.3682 1101.63 Z" fill="#000000" fill-rule="nonzero" fill-opacity="1" /><path clip-path="url(#clip390)" d="M128.502 1074.08 Q124.891 1074.08 123.062 1077.65 Q121.257 1081.19 121.257 1088.32 Q121.257 1095.43 123.062 1098.99 Q124.891 1102.53 128.502 1102.53 Q132.136 1102.53 133.942 1098.99 Q135.771 1095.43 135.771 1088.32 Q135.771 1081.19 133.942 1077.65 Q132.136 1074.08 128.502 1074.08 M128.502 1070.38 Q134.312 1070.38 137.368 1074.99 Q140.447 1079.57 140.447 1088.32 Q140.447 1097.05 137.368 1101.65 Q134.312 1106.24 128.502 1106.24 Q122.692 1106.24 119.613 1101.65 Q116.558 1097.05 116.558 1088.32 Q116.558 1079.57 119.613 1074.99 Q122.692 1070.38 128.502 1070.38 Z" fill="#000000" fill-rule="nonzero" fill-opacity="1" /><path clip-path="url(#clip390)" d="M158.664 1074.08 Q155.053 1074.08 153.224 1077.65 Q151.419 1081.19 151.419 1088.32 Q151.419 1095.43 153.224 1098.99 Q155.053 1102.53 158.664 1102.53 Q162.298 1102.53 164.104 1098.99 Q165.933 1095.43 165.933 1088.32 Q165.933 1081.19 164.104 1077.65 Q162.298 1074.08 158.664 1074.08 M158.664 1070.38 Q164.474 1070.38 167.53 1074.99 Q170.609 1079.57 170.609 1088.32 Q170.609 1097.05 167.53 1101.65 Q164.474 1106.24 158.664 1106.24 Q152.854 1106.24 149.775 1101.65 Q146.72 1097.05 146.72 1088.32 Q146.72 1079.57 149.775 1074.99 Q152.854 1070.38 158.664 1070.38 Z" fill="#000000" fill-rule="nonzero" fill-opacity="1" /><path clip-path="url(#clip390)" d="M101.188 960.292 L89.3821 978.741 L101.188 978.741 L101.188 960.292 M99.9607 956.218 L105.84 956.218 L105.84 978.741 L110.771 978.741 L110.771 982.63 L105.84 982.63 L105.84 990.778 L101.188 990.778 L101.188 982.63 L85.5858 982.63 L85.5858 978.116 L99.9607 956.218 Z" fill="#000000" fill-rule="nonzero" fill-opacity="1" /><path clip-path="url(#clip390)" d="M128.502 959.297 Q124.891 959.297 123.062 962.862 Q121.257 966.403 121.257 973.533 Q121.257 980.639 123.062 984.204 Q124.891 987.746 128.502 987.746 Q132.136 987.746 133.942 984.204 Q135.771 980.639 135.771 973.533 Q135.771 966.403 133.942 962.862 Q132.136 959.297 128.502 959.297 M128.502 955.593 Q134.312 955.593 137.368 960.2 Q140.447 964.783 140.447 973.533 Q140.447 982.26 137.368 986.866 Q134.312 991.449 128.502 991.449 Q122.692 991.449 119.613 986.866 Q116.558 982.26 116.558 973.533 Q116.558 964.783 119.613 960.2 Q122.692 955.593 128.502 955.593 Z" fill="#000000" fill-rule="nonzero" fill-opacity="1" /><path clip-path="url(#clip390)" d="M158.664 959.297 Q155.053 959.297 153.224 962.862 Q151.419 966.403 151.419 973.533 Q151.419 980.639 153.224 984.204 Q155.053 987.746 158.664 987.746 Q162.298 987.746 164.104 984.204 Q165.933 980.639 165.933 973.533 Q165.933 966.403 164.104 962.862 Q162.298 959.297 158.664 959.297 M158.664 955.593 Q164.474 955.593 167.53 960.2 Q170.609 964.783 170.609 973.533 Q170.609 982.26 167.53 986.866 Q164.474 991.449 158.664 991.449 Q152.854 991.449 149.775 986.866 Q146.72 982.26 146.72 973.533 Q146.72 964.783 149.775 960.2 Q152.854 955.593 158.664 955.593 Z" fill="#000000" fill-rule="nonzero" fill-opacity="1" /><path clip-path="url(#clip390)" d="M715.15 812.096 L727.343 812.096 L742.777 853.253 L758.292 812.096 L770.485 812.096 L770.485 872.576 L762.505 872.576 L762.505 819.469 L746.909 860.95 L738.685 860.95 L723.09 819.469 L723.09 872.576 L715.15 872.576 L715.15 812.096 Z" fill="#000000" fill-rule="nonzero" fill-opacity="1" /><path clip-path="url(#clip390)" d="M807.024 849.769 Q797.991 849.769 794.507 851.835 Q791.023 853.901 791.023 858.884 Q791.023 862.854 793.616 865.203 Q796.249 867.512 800.745 867.512 Q806.943 867.512 810.67 863.137 Q814.437 858.722 814.437 851.43 L814.437 849.769 L807.024 849.769 M821.891 846.691 L821.891 872.576 L814.437 872.576 L814.437 865.689 Q811.885 869.821 808.077 871.806 Q804.27 873.751 798.76 873.751 Q791.793 873.751 787.661 869.862 Q783.57 865.933 783.57 859.37 Q783.57 851.714 788.674 847.825 Q793.818 843.936 803.986 843.936 L814.437 843.936 L814.437 843.207 Q814.437 838.062 811.035 835.267 Q807.672 832.432 801.556 832.432 Q797.667 832.432 793.98 833.363 Q790.294 834.295 786.891 836.158 L786.891 829.272 Q790.983 827.692 794.831 826.922 Q798.679 826.112 802.325 826.112 Q812.169 826.112 817.03 831.216 Q821.891 836.32 821.891 846.691 Z" fill="#000000" fill-rule="nonzero" fill-opacity="1" /><path clip-path="url(#clip390)" d="M874.958 827.206 L858.552 849.283 L875.809 872.576 L867.018 872.576 L853.812 854.752 L840.606 872.576 L831.816 872.576 L849.437 848.838 L833.315 827.206 L842.105 827.206 L854.136 843.369 L866.167 827.206 L874.958 827.206 Z" fill="#000000" fill-rule="nonzero" fill-opacity="1" /><path clip-path="url(#clip390)" d="M913.036 812.096 L925.23 812.096 L940.664 853.253 L956.179 812.096 L968.372 812.096 L968.372 872.576 L960.391 872.576 L960.391 819.469 L944.795 860.95 L936.572 860.95 L920.976 819.469 L920.976 872.576 L913.036 872.576 L913.036 812.096 Z" fill="#000000" fill-rule="nonzero" fill-opacity="1" /><path clip-path="url(#clip390)" d="M1001.87 832.432 Q995.877 832.432 992.394 837.131 Q988.91 841.789 988.91 849.931 Q988.91 858.074 992.353 862.773 Q995.837 867.431 1001.87 867.431 Q1007.83 867.431 1011.31 862.732 Q1014.8 858.033 1014.8 849.931 Q1014.8 841.87 1011.31 837.171 Q1007.83 832.432 1001.87 832.432 M1001.87 826.112 Q1011.59 826.112 1017.14 832.432 Q1022.69 838.751 1022.69 849.931 Q1022.69 861.071 1017.14 867.431 Q1011.59 873.751 1001.87 873.751 Q992.11 873.751 986.56 867.431 Q981.051 861.071 981.051 849.931 Q981.051 838.751 986.56 832.432 Q992.11 826.112 1001.87 826.112 Z" fill="#000000" fill-rule="nonzero" fill-opacity="1" /><path clip-path="url(#clip390)" d="M1070.37 835.915 Q1073.17 830.892 1077.06 828.502 Q1080.95 826.112 1086.21 826.112 Q1093.3 826.112 1097.15 831.095 Q1101 836.037 1101 845.192 L1101 872.576 L1093.5 872.576 L1093.5 845.435 Q1093.5 838.913 1091.2 835.753 Q1088.89 832.594 1084.15 832.594 Q1078.35 832.594 1074.99 836.442 Q1071.63 840.29 1071.63 846.934 L1071.63 872.576 L1064.14 872.576 L1064.14 845.435 Q1064.14 838.872 1061.83 835.753 Q1059.52 832.594 1054.7 832.594 Q1048.98 832.594 1045.62 836.482 Q1042.26 840.331 1042.26 846.934 L1042.26 872.576 L1034.77 872.576 L1034.77 827.206 L1042.26 827.206 L1042.26 834.254 Q1044.81 830.082 1048.38 828.097 Q1051.94 826.112 1056.84 826.112 Q1061.79 826.112 1065.23 828.624 Q1068.71 831.135 1070.37 835.915 Z" fill="#000000" fill-rule="nonzero" fill-opacity="1" /><path clip-path="url(#clip390)" d="M1154.67 848.028 L1154.67 851.673 L1120.4 851.673 Q1120.89 859.37 1125.02 863.421 Q1129.19 867.431 1136.61 867.431 Q1140.9 867.431 1144.91 866.378 Q1148.96 865.325 1152.93 863.218 L1152.93 870.267 Q1148.92 871.968 1144.71 872.86 Q1140.49 873.751 1136.16 873.751 Q1125.3 873.751 1118.94 867.431 Q1112.62 861.112 1112.62 850.337 Q1112.62 839.197 1118.62 832.675 Q1124.66 826.112 1134.86 826.112 Q1144.02 826.112 1149.33 832.026 Q1154.67 837.9 1154.67 848.028 M1147.22 845.84 Q1147.14 839.723 1143.78 836.077 Q1140.45 832.432 1134.94 832.432 Q1128.71 832.432 1124.94 835.956 Q1121.21 839.48 1120.65 845.881 L1147.22 845.84 Z" fill="#000000" fill-rule="nonzero" fill-opacity="1" /><path clip-path="url(#clip390)" d="M1204.62 845.192 L1204.62 872.576 L1197.17 872.576 L1197.17 845.435 Q1197.17 838.994 1194.66 835.794 Q1192.14 832.594 1187.12 832.594 Q1181.08 832.594 1177.6 836.442 Q1174.12 840.29 1174.12 846.934 L1174.12 872.576 L1166.62 872.576 L1166.62 827.206 L1174.12 827.206 L1174.12 834.254 Q1176.79 830.163 1180.4 828.138 Q1184.04 826.112 1188.78 826.112 Q1196.6 826.112 1200.61 830.973 Q1204.62 835.794 1204.62 845.192 Z" fill="#000000" fill-rule="nonzero" fill-opacity="1" /><path clip-path="url(#clip390)" d="M1226.86 814.324 L1226.86 827.206 L1242.21 827.206 L1242.21 832.999 L1226.86 832.999 L1226.86 857.628 Q1226.86 863.178 1228.36 864.758 Q1229.9 866.338 1234.56 866.338 L1242.21 866.338 L1242.21 872.576 L1234.56 872.576 Q1225.93 872.576 1222.65 869.376 Q1219.37 866.135 1219.37 857.628 L1219.37 832.999 L1213.9 832.999 L1213.9 827.206 L1219.37 827.206 L1219.37 814.324 L1226.86 814.324 Z" fill="#000000" fill-rule="nonzero" fill-opacity="1" /><path clip-path="url(#clip390)" d="M1278.71 812.096 L1316.95 812.096 L1316.95 818.983 L1286.89 818.983 L1286.89 836.888 L1315.7 836.888 L1315.7 843.774 L1286.89 843.774 L1286.89 865.689 L1317.68 865.689 L1317.68 872.576 L1278.71 872.576 L1278.71 812.096 Z" fill="#000000" fill-rule="nonzero" fill-opacity="1" /><path clip-path="url(#clip390)" d="M1368.52 845.192 L1368.52 872.576 L1361.07 872.576 L1361.07 845.435 Q1361.07 838.994 1358.55 835.794 Q1356.04 832.594 1351.02 832.594 Q1344.98 832.594 1341.5 836.442 Q1338.02 840.29 1338.02 846.934 L1338.02 872.576 L1330.52 872.576 L1330.52 827.206 L1338.02 827.206 L1338.02 834.254 Q1340.69 830.163 1344.3 828.138 Q1347.94 826.112 1352.68 826.112 Q1360.5 826.112 1364.51 830.973 Q1368.52 835.794 1368.52 845.192 Z" fill="#000000" fill-rule="nonzero" fill-opacity="1" /><path clip-path="url(#clip390)" d="M1378.04 827.206 L1385.94 827.206 L1400.12 865.284 L1414.3 827.206 L1422.19 827.206 L1405.18 872.576 L1395.05 872.576 L1378.04 827.206 Z" fill="#000000" fill-rule="nonzero" fill-opacity="1" /><path clip-path="url(#clip390)" d="M1471.29 848.028 L1471.29 851.673 L1437.02 851.673 Q1437.51 859.37 1441.64 863.421 Q1445.81 867.431 1453.22 867.431 Q1457.52 867.431 1461.53 866.378 Q1465.58 865.325 1469.55 863.218 L1469.55 870.267 Q1465.54 871.968 1461.33 872.86 Q1457.11 873.751 1452.78 873.751 Q1441.92 873.751 1435.56 867.431 Q1429.24 861.112 1429.24 850.337 Q1429.24 839.197 1435.24 832.675 Q1441.27 826.112 1451.48 826.112 Q1460.64 826.112 1465.94 832.026 Q1471.29 837.9 1471.29 848.028 M1463.84 845.84 Q1463.76 839.723 1460.39 836.077 Q1457.07 832.432 1451.56 832.432 Q1445.33 832.432 1441.56 835.956 Q1437.83 839.48 1437.26 845.881 L1463.84 845.84 Z" fill="#000000" fill-rule="nonzero" fill-opacity="1" /><path clip-path="url(#clip390)" d="M1483.53 809.544 L1490.98 809.544 L1490.98 872.576 L1483.53 872.576 L1483.53 809.544 Z" fill="#000000" fill-rule="nonzero" fill-opacity="1" /><path clip-path="url(#clip390)" d="M1524.16 832.432 Q1518.16 832.432 1514.68 837.131 Q1511.19 841.789 1511.19 849.931 Q1511.19 858.074 1514.64 862.773 Q1518.12 867.431 1524.16 867.431 Q1530.11 867.431 1533.59 862.732 Q1537.08 858.033 1537.08 849.931 Q1537.08 841.87 1533.59 837.171 Q1530.11 832.432 1524.16 832.432 M1524.16 826.112 Q1533.88 826.112 1539.43 832.432 Q1544.98 838.751 1544.98 849.931 Q1544.98 861.071 1539.43 867.431 Q1533.88 873.751 1524.16 873.751 Q1514.39 873.751 1508.84 867.431 Q1503.33 861.071 1503.33 849.931 Q1503.33 838.751 1508.84 832.432 Q1514.39 826.112 1524.16 826.112 Z" fill="#000000" fill-rule="nonzero" fill-opacity="1" /><path clip-path="url(#clip390)" d="M1564.54 865.77 L1564.54 889.833 L1557.05 889.833 L1557.05 827.206 L1564.54 827.206 L1564.54 834.092 Q1566.89 830.042 1570.46 828.097 Q1574.06 826.112 1579.05 826.112 Q1587.31 826.112 1592.45 832.675 Q1597.64 839.237 1597.64 849.931 Q1597.64 860.626 1592.45 867.188 Q1587.31 873.751 1579.05 873.751 Q1574.06 873.751 1570.46 871.806 Q1566.89 869.821 1564.54 865.77 M1589.9 849.931 Q1589.9 841.708 1586.5 837.05 Q1583.14 832.351 1577.22 832.351 Q1571.31 832.351 1567.91 837.05 Q1564.54 841.708 1564.54 849.931 Q1564.54 858.155 1567.91 862.854 Q1571.31 867.512 1577.22 867.512 Q1583.14 867.512 1586.5 862.854 Q1589.9 858.155 1589.9 849.931 Z" fill="#000000" fill-rule="nonzero" fill-opacity="1" /><path clip-path="url(#clip390)" d="M1648.8 848.028 L1648.8 851.673 L1614.53 851.673 Q1615.02 859.37 1619.15 863.421 Q1623.32 867.431 1630.74 867.431 Q1635.03 867.431 1639.04 866.378 Q1643.09 865.325 1647.06 863.218 L1647.06 870.267 Q1643.05 871.968 1638.84 872.86 Q1634.62 873.751 1630.29 873.751 Q1619.43 873.751 1613.07 867.431 Q1606.75 861.112 1606.75 850.337 Q1606.75 839.197 1612.75 832.675 Q1618.78 826.112 1628.99 826.112 Q1638.15 826.112 1643.45 832.026 Q1648.8 837.9 1648.8 848.028 M1641.35 845.84 Q1641.27 839.723 1637.91 836.077 Q1634.58 832.432 1629.07 832.432 Q1622.84 832.432 1619.07 835.956 Q1615.34 839.48 1614.77 845.881 L1641.35 845.84 Z" fill="#000000" fill-rule="nonzero" fill-opacity="1" /><path clip-path="url(#clip390)" d="M1705.31 809.625 Q1699.88 818.942 1697.25 828.057 Q1694.62 837.171 1694.62 846.529 Q1694.62 855.886 1697.25 865.082 Q1699.92 874.237 1705.31 883.513 L1698.83 883.513 Q1692.75 873.994 1689.72 864.798 Q1686.72 855.603 1686.72 846.529 Q1686.72 837.495 1689.72 828.34 Q1692.71 819.185 1698.83 809.625 L1705.31 809.625 Z" fill="#000000" fill-rule="nonzero" fill-opacity="1" /><path clip-path="url(#clip390)" d="M1756.35 814.081 L1756.35 822.061 Q1751.7 819.833 1747.56 818.739 Q1743.43 817.646 1739.58 817.646 Q1732.9 817.646 1729.25 820.238 Q1725.65 822.831 1725.65 827.611 Q1725.65 831.621 1728.04 833.687 Q1730.47 835.713 1737.19 836.969 L1742.13 837.981 Q1751.29 839.723 1755.62 844.139 Q1760 848.514 1760 855.886 Q1760 864.677 1754.09 869.214 Q1748.21 873.751 1736.83 873.751 Q1732.53 873.751 1727.67 872.779 Q1722.85 871.806 1717.67 869.902 L1717.67 861.477 Q1722.65 864.272 1727.43 865.689 Q1732.21 867.107 1736.83 867.107 Q1743.84 867.107 1747.64 864.353 Q1751.45 861.598 1751.45 856.494 Q1751.45 852.038 1748.7 849.526 Q1745.98 847.015 1739.74 845.759 L1734.76 844.787 Q1725.61 842.964 1721.52 839.075 Q1717.42 835.186 1717.42 828.259 Q1717.42 820.238 1723.06 815.62 Q1728.73 811.002 1738.65 811.002 Q1742.9 811.002 1747.32 811.772 Q1751.74 812.542 1756.35 814.081 Z" fill="#000000" fill-rule="nonzero" fill-opacity="1" /><path clip-path="url(#clip390)" d="M1801.44 844.22 Q1804.07 845.111 1806.54 848.028 Q1809.06 850.944 1811.57 856.048 L1819.87 872.576 L1811.08 872.576 L1803.34 857.061 Q1800.35 850.985 1797.51 849 Q1794.72 847.015 1789.85 847.015 L1780.94 847.015 L1780.94 872.576 L1772.76 872.576 L1772.76 812.096 L1791.23 812.096 Q1801.6 812.096 1806.71 816.43 Q1811.81 820.765 1811.81 829.515 Q1811.81 835.227 1809.14 838.994 Q1806.5 842.761 1801.44 844.22 M1780.94 818.821 L1780.94 840.29 L1791.23 840.29 Q1797.15 840.29 1800.14 837.576 Q1803.18 834.822 1803.18 829.515 Q1803.18 824.208 1800.14 821.535 Q1797.15 818.821 1791.23 818.821 L1780.94 818.821 Z" fill="#000000" fill-rule="nonzero" fill-opacity="1" /><path clip-path="url(#clip390)" d="M1841.46 872.576 L1818.37 812.096 L1826.92 812.096 L1846.08 863.016 L1865.28 812.096 L1873.79 812.096 L1850.74 872.576 L1841.46 872.576 Z" fill="#000000" fill-rule="nonzero" fill-opacity="1" /><path clip-path="url(#clip390)" d="M1881.12 809.625 L1887.6 809.625 Q1893.68 819.185 1896.68 828.34 Q1899.72 837.495 1899.72 846.529 Q1899.72 855.603 1896.68 864.798 Q1893.68 873.994 1887.6 883.513 L1881.12 883.513 Q1886.51 874.237 1889.14 865.082 Q1891.82 855.886 1891.82 846.529 Q1891.82 837.171 1889.14 828.057 Q1886.51 818.942 1881.12 809.625 Z" fill="#000000" fill-rule="nonzero" fill-opacity="1" /><path clip-path="url(#clip393)" d="M275.768 1203.07 L299.215 1203.24 L322.662 1203.65 L346.109 1204.39 L369.556 1205.43 L393.003 1245.72 L416.45 1286.35 L439.897 1327.27 L463.344 1368.48 L486.791 1334.56 L510.237 1298.12 L533.684 1261.61 L557.131 1225.46 L580.578 1189.3 L604.025 1152.68 L627.472 1115.78 L650.919 1078.53 L674.366 1041.34 L697.813 1004.09 L721.26 966.898 L744.707 929.707 L768.153 970.858 L791.6 1012.24 L815.047 1053.68 L838.494 1095.29 L861.941 1136.73 L885.388 1177.65 L908.835 1216.56 L932.282 1246.58 L955.729 1270.39 L979.176 1294.56 L1002.62 1319.01 L1026.07 1343.69 L1049.52 1298.29 L1072.96 1253.18 L1096.41 1183.5 L1119.86 1106.88 L1143.3 1106.48 L1166.75 1106.19 L1190.2 1106.02 L1213.64 1105.9 L1237.09 1106.13 L1260.54 1106.65 L1283.99 1107.4 L1307.43 1107.68 L1330.88 1107.4 L1354.33 1106.65 L1377.77 1106.13 L1401.22 1105.9 L1424.67 1106.02 L1448.11 1106.19 L1471.56 1106.48 L1495.01 1106.88 L1518.45 1183.5 L1541.9 1253.18 L1565.35 1298.29 L1588.8 1343.69 L1612.24 1319.01 L1635.69 1294.56 L1659.14 1270.39 L1682.58 1246.58 L1706.03 1216.56 L1729.48 1177.65 L1752.92 1136.73 L1776.37 1095.29 L1799.82 1053.68 L1823.26 1012.24 L1846.71 970.858 L1870.16 929.707 L1893.61 966.898 L1917.05 1004.09 L1940.5 1041.34 L1963.95 1078.53 L1987.39 1115.78 L2010.84 1152.68 L2034.29 1189.3 L2057.73 1225.46 L2081.18 1261.61 L2104.63 1298.12 L2128.07 1334.56 L2151.52 1368.48 L2174.97 1327.27 L2198.42 1286.35 L2221.86 1245.72 L2245.31 1205.43 L2268.76 1204.39 L2292.2 1203.65 L2315.65 1203.24 L2339.1 1203.07 L2339.1 1203.07 L2315.65 1203.07 L2292.2 1203.07 L2268.76 1203.07 L2245.31 1203.07 L2221.86 1203.07 L2198.42 1203.07 L2174.97 1203.07 L2151.52 1203.07 L2128.07 1203.07 L2104.63 1203.07 L2081.18 1203.07 L2057.73 1203.07 L2034.29 1203.07 L2010.84 1203.07 L1987.39 1203.07 L1963.95 1203.07 L1940.5 1203.07 L1917.05 1203.07 L1893.61 1203.07 L1870.16 1203.07 L1846.71 1203.07 L1823.26 1203.07 L1799.82 1203.07 L1776.37 1203.07 L1752.92 1203.07 L1729.48 1203.07 L1706.03 1203.07 L1682.58 1203.07 L1659.14 1203.07 L1635.69 1203.07 L1612.24 1203.07 L1588.8 1203.07 L1565.35 1203.07 L1541.9 1203.07 L1518.45 1203.07 L1495.01 1203.07 L1471.56 1203.07 L1448.11 1203.07 L1424.67 1203.07 L1401.22 1203.07 L1377.77 1203.07 L1354.33 1203.07 L1330.88 1203.07 L1307.43 1203.07 L1283.99 1203.07 L1260.54 1203.07 L1237.09 1203.07 L1213.64 1203.07 L1190.2 1203.07 L1166.75 1203.07 L1143.3 1203.07 L1119.86 1203.07 L1096.41 1203.07 L1072.96 1203.07 L1049.52 1203.07 L1026.07 1203.07 L1002.62 1203.07 L979.176 1203.07 L955.729 1203.07 L932.282 1203.07 L908.835 1203.07 L885.388 1203.07 L861.941 1203.07 L838.494 1203.07 L815.047 1203.07 L791.6 1203.07 L768.153 1203.07 L744.707 1203.07 L721.26 1203.07 L697.813 1203.07 L674.366 1203.07 L650.919 1203.07 L627.472 1203.07 L604.025 1203.07 L580.578 1203.07 L557.131 1203.07 L533.684 1203.07 L510.237 1203.07 L486.791 1203.07 L463.344 1203.07 L439.897 1203.07 L416.45 1203.07 L393.003 1203.07 L369.556 1203.07 L346.109 1203.07 L322.662 1203.07 L299.215 1203.07 L275.768 1203.07  Z" fill="#0000ff" fill-rule="evenodd" fill-opacity="0.5"/>
<polyline clip-path="url(#clip393)" style="stroke:#0000ff; stroke-linecap:round; stroke-linejoin:round; stroke-width:4; stroke-opacity:1; fill:none" points="275.768,1203.07 299.215,1203.24 322.662,1203.65 346.109,1204.39 369.556,1205.43 393.003,1245.72 416.45,1286.35 439.897,1327.27 463.344,1368.48 486.791,1334.56 510.237,1298.12 533.684,1261.61 557.131,1225.46 580.578,1189.3 604.025,1152.68 627.472,1115.78 650.919,1078.53 674.366,1041.34 697.813,1004.09 721.26,966.898 744.707,929.707 768.153,970.858 791.6,1012.24 815.047,1053.68 838.494,1095.29 861.941,1136.73 885.388,1177.65 908.835,1216.56 932.282,1246.58 955.729,1270.39 979.176,1294.56 1002.62,1319.01 1026.07,1343.69 1049.52,1298.29 1072.96,1253.18 1096.41,1183.5 1119.86,1106.88 1143.3,1106.48 1166.75,1106.19 1190.2,1106.02 1213.64,1105.9 1237.09,1106.13 1260.54,1106.65 1283.99,1107.4 1307.43,1107.68 1330.88,1107.4 1354.33,1106.65 1377.77,1106.13 1401.22,1105.9 1424.67,1106.02 1448.11,1106.19 1471.56,1106.48 1495.01,1106.88 1518.45,1183.5 1541.9,1253.18 1565.35,1298.29 1588.8,1343.69 1612.24,1319.01 1635.69,1294.56 1659.14,1270.39 1682.58,1246.58 1706.03,1216.56 1729.48,1177.65 1752.92,1136.73 1776.37,1095.29 1799.82,1053.68 1823.26,1012.24 1846.71,970.858 1870.16,929.707 1893.61,966.898 1917.05,1004.09 1940.5,1041.34 1963.95,1078.53 1987.39,1115.78 2010.84,1152.68 2034.29,1189.3 2057.73,1225.46 2081.18,1261.61 2104.63,1298.12 2128.07,1334.56 2151.52,1368.48 2174.97,1327.27 2198.42,1286.35 2221.86,1245.72 2245.31,1205.43 2268.76,1204.39 2292.2,1203.65 2315.65,1203.24 2339.1,1203.07 "/>
<path clip-path="url(#clip393)" d="M275.768 1203.07 L299.215 1203.24 L322.662 1203.65 L346.109 1204.39 L369.556 1205.43 L393.003 1270.97 L416.45 1336.74 L439.897 1402.86 L463.344 1469.32 L486.791 1427.94 L510.237 1386.9 L533.684 1346.1 L557.131 1305.63 L580.578 1265.46 L604.025 1227.29 L627.472 1204.79 L650.919 1182.58 L674.366 1160.66 L697.813 1139.02 L721.26 1117.67 L744.707 1096.61 L768.153 1120.88 L791.6 1145.45 L815.047 1170.53 L838.494 1196.01 L861.941 1221.95 L885.388 1248.18 L908.835 1274.7 L932.282 1301.85 L955.729 1344.09 L979.176 1387.71 L1002.62 1431.67 L1026.07 1475.86 L1049.52 1393.85 L1072.96 1322.57 L1096.41 1263.68 L1119.86 1207.89 L1143.3 1202.96 L1166.75 1198.31 L1190.2 1193.95 L1213.64 1189.87 L1237.09 1186.08 L1260.54 1182.64 L1283.99 1179.43 L1307.43 1176.56 L1330.88 1179.43 L1354.33 1182.64 L1377.77 1186.08 L1401.22 1189.87 L1424.67 1193.95 L1448.11 1198.31 L1471.56 1202.96 L1495.01 1207.89 L1518.45 1263.68 L1541.9 1322.57 L1565.35 1393.85 L1588.8 1475.86 L1612.24 1431.67 L1635.69 1387.71 L1659.14 1344.09 L1682.58 1301.85 L1706.03 1274.7 L1729.48 1248.18 L1752.92 1221.95 L1776.37 1196.01 L1799.82 1170.53 L1823.26 1145.45 L1846.71 1120.88 L1870.16 1096.61 L1893.61 1117.67 L1917.05 1139.02 L1940.5 1160.66 L1963.95 1182.58 L1987.39 1204.79 L2010.84 1227.29 L2034.29 1265.46 L2057.73 1305.63 L2081.18 1346.1 L2104.63 1386.9 L2128.07 1427.94 L2151.52 1469.32 L2174.97 1402.86 L2198.42 1336.74 L2221.86 1270.97 L2245.31 1205.43 L2268.76 1204.39 L2292.2 1203.65 L2315.65 1203.24 L2339.1 1203.07 L2339.1 1203.07 L2315.65 1203.07 L2292.2 1203.07 L2268.76 1203.07 L2245.31 1203.07 L2221.86 1203.07 L2198.42 1203.07 L2174.97 1203.07 L2151.52 1203.07 L2128.07 1203.07 L2104.63 1203.07 L2081.18 1203.07 L2057.73 1203.07 L2034.29 1203.07 L2010.84 1203.07 L1987.39 1203.07 L1963.95 1203.07 L1940.5 1203.07 L1917.05 1203.07 L1893.61 1203.07 L1870.16 1203.07 L1846.71 1203.07 L1823.26 1203.07 L1799.82 1203.07 L1776.37 1203.07 L1752.92 1203.07 L1729.48 1203.07 L1706.03 1203.07 L1682.58 1203.07 L1659.14 1203.07 L1635.69 1203.07 L1612.24 1203.07 L1588.8 1203.07 L1565.35 1203.07 L1541.9 1203.07 L1518.45 1203.07 L1495.01 1203.07 L1471.56 1203.07 L1448.11 1203.07 L1424.67 1203.07 L1401.22 1203.07 L1377.77 1203.07 L1354.33 1203.07 L1330.88 1203.07 L1307.43 1203.07 L1283.99 1203.07 L1260.54 1203.07 L1237.09 1203.07 L1213.64 1203.07 L1190.2 1203.07 L1166.75 1203.07 L1143.3 1203.07 L1119.86 1203.07 L1096.41 1203.07 L1072.96 1203.07 L1049.52 1203.07 L1026.07 1203.07 L1002.62 1203.07 L979.176 1203.07 L955.729 1203.07 L932.282 1203.07 L908.835 1203.07 L885.388 1203.07 L861.941 1203.07 L838.494 1203.07 L815.047 1203.07 L791.6 1203.07 L768.153 1203.07 L744.707 1203.07 L721.26 1203.07 L697.813 1203.07 L674.366 1203.07 L650.919 1203.07 L627.472 1203.07 L604.025 1203.07 L580.578 1203.07 L557.131 1203.07 L533.684 1203.07 L510.237 1203.07 L486.791 1203.07 L463.344 1203.07 L439.897 1203.07 L416.45 1203.07 L393.003 1203.07 L369.556 1203.07 L346.109 1203.07 L322.662 1203.07 L299.215 1203.07 L275.768 1203.07  Z" fill="#ff0000" fill-rule="evenodd" fill-opacity="0.5"/>
<polyline clip-path="url(#clip393)" style="stroke:#ff0000; stroke-linecap:round; stroke-linejoin:round; stroke-width:4; stroke-opacity:1; fill:none" points="275.768,1203.07 299.215,1203.24 322.662,1203.65 346.109,1204.39 369.556,1205.43 393.003,1270.97 416.45,1336.74 439.897,1402.86 463.344,1469.32 486.791,1427.94 510.237,1386.9 533.684,1346.1 557.131,1305.63 580.578,1265.46 604.025,1227.29 627.472,1204.79 650.919,1182.58 674.366,1160.66 697.813,1139.02 721.26,1117.67 744.707,1096.61 768.153,1120.88 791.6,1145.45 815.047,1170.53 838.494,1196.01 861.941,1221.95 885.388,1248.18 908.835,1274.7 932.282,1301.85 955.729,1344.09 979.176,1387.71 1002.62,1431.67 1026.07,1475.86 1049.52,1393.85 1072.96,1322.57 1096.41,1263.68 1119.86,1207.89 1143.3,1202.96 1166.75,1198.31 1190.2,1193.95 1213.64,1189.87 1237.09,1186.08 1260.54,1182.64 1283.99,1179.43 1307.43,1176.56 1330.88,1179.43 1354.33,1182.64 1377.77,1186.08 1401.22,1189.87 1424.67,1193.95 1448.11,1198.31 1471.56,1202.96 1495.01,1207.89 1518.45,1263.68 1541.9,1322.57 1565.35,1393.85 1588.8,1475.86 1612.24,1431.67 1635.69,1387.71 1659.14,1344.09 1682.58,1301.85 1706.03,1274.7 1729.48,1248.18 1752.92,1221.95 1776.37,1196.01 1799.82,1170.53 1823.26,1145.45 1846.71,1120.88 1870.16,1096.61 1893.61,1117.67 1917.05,1139.02 1940.5,1160.66 1963.95,1182.58 1987.39,1204.79 2010.84,1227.29 2034.29,1265.46 2057.73,1305.63 2081.18,1346.1 2104.63,1386.9 2128.07,1427.94 2151.52,1469.32 2174.97,1402.86 2198.42,1336.74 2221.86,1270.97 2245.31,1205.43 2268.76,1204.39 2292.2,1203.65 2315.65,1203.24 2339.1,1203.07 "/>
<path clip-path="url(#clip390)" d="M2488.43 1088.14 L2836.76 1088.14 L2836.76 932.62 L2488.43 932.62  Z" fill="#ffffff" fill-rule="evenodd" fill-opacity="1"/>
<polyline clip-path="url(#clip390)" style="stroke:#000000; stroke-linecap:round; stroke-linejoin:round; stroke-width:4; stroke-opacity:1; fill:none" points="2488.43,1088.14 2836.76,1088.14 2836.76,932.62 2488.43,932.62 2488.43,1088.14 "/>
<path clip-path="url(#clip390)" d="M2517.57 1005.2 L2692.43 1005.2 L2692.43 963.724 L2517.57 963.724 L2517.57 1005.2  Z" fill="#0000ff" fill-rule="evenodd" fill-opacity="0.5"/>
<polyline clip-path="url(#clip390)" style="stroke:#0000ff; stroke-linecap:round; stroke-linejoin:round; stroke-width:4; stroke-opacity:1; fill:none" points="2517.57,963.724 2692.43,963.724 "/>
<path clip-path="url(#clip390)" d="M2738.35 972.018 L2738.35 984.911 L2751.25 984.911 L2751.25 988.846 L2738.35 988.846 L2738.35 1001.74 L2734.46 1001.74 L2734.46 988.846 L2721.57 988.846 L2721.57 984.911 L2734.46 984.911 L2734.46 972.018 L2738.35 972.018 Z" fill="#000000" fill-rule="nonzero" fill-opacity="1" /><path clip-path="url(#clip390)" d="M2775.99 967.18 L2782.96 967.18 L2791.78 990.698 L2800.65 967.18 L2807.61 967.18 L2807.61 1001.74 L2803.05 1001.74 L2803.05 971.393 L2794.14 995.096 L2789.44 995.096 L2780.53 971.393 L2780.53 1001.74 L2775.99 1001.74 L2775.99 967.18 Z" fill="#000000" fill-rule="nonzero" fill-opacity="1" /><path clip-path="url(#clip390)" d="M2517.57 1057.04 L2692.43 1057.04 L2692.43 1015.56 L2517.57 1015.56 L2517.57 1057.04  Z" fill="#ff0000" fill-rule="evenodd" fill-opacity="0.5"/>
<polyline clip-path="url(#clip390)" style="stroke:#ff0000; stroke-linecap:round; stroke-linejoin:round; stroke-width:4; stroke-opacity:1; fill:none" points="2517.57,1015.56 2692.43,1015.56 "/>
<path clip-path="url(#clip390)" d="M2721.57 1038.7 L2734.05 1038.7 L2734.05 1042.49 L2721.57 1042.49 L2721.57 1038.7 Z" fill="#000000" fill-rule="nonzero" fill-opacity="1" /><path clip-path="url(#clip390)" d="M2756.09 1019.02 L2763.05 1019.02 L2771.87 1042.54 L2780.74 1019.02 L2787.71 1019.02 L2787.71 1053.58 L2783.15 1053.58 L2783.15 1023.23 L2774.23 1046.94 L2769.53 1046.94 L2760.62 1023.23 L2760.62 1053.58 L2756.09 1053.58 L2756.09 1019.02 Z" fill="#000000" fill-rule="nonzero" fill-opacity="1" /></svg>
