<?xml version="1.0" encoding="utf-8"?>
<svg xmlns="http://www.w3.org/2000/svg" xmlns:xlink="http://www.w3.org/1999/xlink" width="480" height="384" viewBox="0 0 1920 1536">
<defs>
  <clipPath id="clip330">
    <rect x="0" y="0" width="1920" height="1536"/>
  </clipPath>
</defs>
<path clip-path="url(#clip330)" d="M0 1536 L1920 1536 L1920 0 L0 0  Z" fill="#ffffff" fill-rule="evenodd" fill-opacity="1"/>
<defs>
  <clipPath id="clip331">
    <rect x="384" y="0" width="1345" height="1345"/>
  </clipPath>
</defs>
<path clip-path="url(#clip330)" d="M204.229 648.176 L1872.76 648.176 L1872.76 135.568 L204.229 135.568  Z" fill="#ffffff" fill-rule="evenodd" fill-opacity="1"/>
<defs>
  <clipPath id="clip332">
    <rect x="204" y="135" width="1670" height="514"/>
  </clipPath>
</defs>
<polyline clip-path="url(#clip332)" style="stroke:#000000; stroke-linecap:round; stroke-linejoin:round; stroke-width:2; stroke-opacity:0.1; fill:none" points="251.451,648.176 251.451,135.568 "/>
<polyline clip-path="url(#clip332)" style="stroke:#000000; stroke-linecap:round; stroke-linejoin:round; stroke-width:2; stroke-opacity:0.1; fill:none" points="609.197,648.176 609.197,135.568 "/>
<polyline clip-path="url(#clip332)" style="stroke:#000000; stroke-linecap:round; stroke-linejoin:round; stroke-width:2; stroke-opacity:0.1; fill:none" points="966.943,648.176 966.943,135.568 "/>
<polyline clip-path="url(#clip332)" style="stroke:#000000; stroke-linecap:round; stroke-linejoin:round; stroke-width:2; stroke-opacity:0.1; fill:none" points="1324.69,648.176 1324.69,135.568 "/>
<polyline clip-path="url(#clip332)" style="stroke:#000000; stroke-linecap:round; stroke-linejoin:round; stroke-width:2; stroke-opacity:0.1; fill:none" points="1682.44,648.176 1682.44,135.568 "/>
<polyline clip-path="url(#clip332)" style="stroke:#000000; stroke-linecap:round; stroke-linejoin:round; stroke-width:2; stroke-opacity:0.1; fill:none" points="204.229,608.794 1872.76,608.794 "/>
<polyline clip-path="url(#clip332)" style="stroke:#000000; stroke-linecap:round; stroke-linejoin:round; stroke-width:2; stroke-opacity:0.1; fill:none" points="204.229,536.487 1872.76,536.487 "/>
<polyline clip-path="url(#clip332)" style="stroke:#000000; stroke-linecap:round; stroke-linejoin:round; stroke-width:2; stroke-opacity:0.1; fill:none" points="204.229,464.179 1872.76,464.179 "/>
<polyline clip-path="url(#clip332)" style="stroke:#000000; stroke-linecap:round; stroke-linejoin:round; stroke-width:2; stroke-opacity:0.1; fill:none" points="204.229,391.872 1872.76,391.872 "/>
<polyline clip-path="url(#clip332)" style="stroke:#000000; stroke-linecap:round; stroke-linejoin:round; stroke-width:2; stroke-opacity:0.1; fill:none" points="204.229,319.565 1872.76,319.565 "/>
<polyline clip-path="url(#clip332)" style="stroke:#000000; stroke-linecap:round; stroke-linejoin:round; stroke-width:2; stroke-opacity:0.1; fill:none" points="204.229,247.257 1872.76,247.257 "/>
<polyline clip-path="url(#clip332)" style="stroke:#000000; stroke-linecap:round; stroke-linejoin:round; stroke-width:2; stroke-opacity:0.1; fill:none" points="204.229,174.95 1872.76,174.95 "/>
<polyline clip-path="url(#clip330)" style="stroke:#000000; stroke-linecap:round; stroke-linejoin:round; stroke-width:4; stroke-opacity:1; fill:none" points="204.229,648.176 1872.76,648.176 "/>
<polyline clip-path="url(#clip330)" style="stroke:#000000; stroke-linecap:round; stroke-linejoin:round; stroke-width:4; stroke-opacity:1; fill:none" points="251.451,648.176 251.451,629.278 "/>
<polyline clip-path="url(#clip330)" style="stroke:#000000; stroke-linecap:round; stroke-linejoin:round; stroke-width:4; stroke-opacity:1; fill:none" points="609.197,648.176 609.197,629.278 "/>
<polyline clip-path="url(#clip330)" style="stroke:#000000; stroke-linecap:round; stroke-linejoin:round; stroke-width:4; stroke-opacity:1; fill:none" points="966.943,648.176 966.943,629.278 "/>
<polyline clip-path="url(#clip330)" style="stroke:#000000; stroke-linecap:round; stroke-linejoin:round; stroke-width:4; stroke-opacity:1; fill:none" points="1324.69,648.176 1324.69,629.278 "/>
<polyline clip-path="url(#clip330)" style="stroke:#000000; stroke-linecap:round; stroke-linejoin:round; stroke-width:4; stroke-opacity:1; fill:none" points="1682.44,648.176 1682.44,629.278 "/>
<path clip-path="url(#clip330)" d="M251.451 675.255 Q247.84 675.255 246.011 678.819 Q244.206 682.361 244.206 689.491 Q244.206 696.597 246.011 700.162 Q247.84 703.703 251.451 703.703 Q255.085 703.703 256.891 700.162 Q258.719 696.597 258.719 689.491 Q258.719 682.361 256.891 678.819 Q255.085 675.255 251.451 675.255 M251.451 671.551 Q257.261 671.551 260.317 676.157 Q263.395 680.741 263.395 689.491 Q263.395 698.217 260.317 702.824 Q257.261 707.407 251.451 707.407 Q245.641 707.407 242.562 702.824 Q239.507 698.217 239.507 689.491 Q239.507 680.741 242.562 676.157 Q245.641 671.551 251.451 671.551 Z" fill="#000000" fill-rule="nonzero" fill-opacity="1" /><path clip-path="url(#clip330)" d="M583.885 702.801 L591.523 702.801 L591.523 676.435 L583.213 678.102 L583.213 673.843 L591.477 672.176 L596.153 672.176 L596.153 702.801 L603.792 702.801 L603.792 706.736 L583.885 706.736 L583.885 702.801 Z" fill="#000000" fill-rule="nonzero" fill-opacity="1" /><path clip-path="url(#clip330)" d="M623.236 675.255 Q619.625 675.255 617.796 678.819 Q615.991 682.361 615.991 689.491 Q615.991 696.597 617.796 700.162 Q619.625 703.703 623.236 703.703 Q626.871 703.703 628.676 700.162 Q630.505 696.597 630.505 689.491 Q630.505 682.361 628.676 678.819 Q626.871 675.255 623.236 675.255 M623.236 671.551 Q629.046 671.551 632.102 676.157 Q635.181 680.741 635.181 689.491 Q635.181 698.217 632.102 702.824 Q629.046 707.407 623.236 707.407 Q617.426 707.407 614.347 702.824 Q611.292 698.217 611.292 689.491 Q611.292 680.741 614.347 676.157 Q617.426 671.551 623.236 671.551 Z" fill="#000000" fill-rule="nonzero" fill-opacity="1" /><path clip-path="url(#clip330)" d="M945.716 702.801 L962.036 702.801 L962.036 706.736 L940.091 706.736 L940.091 702.801 Q942.753 700.046 947.337 695.416 Q951.943 690.764 953.124 689.421 Q955.369 686.898 956.249 685.162 Q957.151 683.403 957.151 681.713 Q957.151 678.958 955.207 677.222 Q953.286 675.486 950.184 675.486 Q947.985 675.486 945.531 676.25 Q943.101 677.014 940.323 678.565 L940.323 673.843 Q943.147 672.708 945.601 672.13 Q948.054 671.551 950.091 671.551 Q955.462 671.551 958.656 674.236 Q961.85 676.921 961.85 681.412 Q961.85 683.542 961.04 685.463 Q960.253 687.361 958.147 689.954 Q957.568 690.625 954.466 693.842 Q951.364 697.037 945.716 702.801 Z" fill="#000000" fill-rule="nonzero" fill-opacity="1" /><path clip-path="url(#clip330)" d="M981.85 675.255 Q978.239 675.255 976.411 678.819 Q974.605 682.361 974.605 689.491 Q974.605 696.597 976.411 700.162 Q978.239 703.703 981.85 703.703 Q985.485 703.703 987.29 700.162 Q989.119 696.597 989.119 689.491 Q989.119 682.361 987.29 678.819 Q985.485 675.255 981.85 675.255 M981.85 671.551 Q987.66 671.551 990.716 676.157 Q993.795 680.741 993.795 689.491 Q993.795 698.217 990.716 702.824 Q987.66 707.407 981.85 707.407 Q976.04 707.407 972.961 702.824 Q969.906 698.217 969.906 689.491 Q969.906 680.741 972.961 676.157 Q976.04 671.551 981.85 671.551 Z" fill="#000000" fill-rule="nonzero" fill-opacity="1" /><path clip-path="url(#clip330)" d="M1313.53 688.102 Q1316.89 688.819 1318.76 691.088 Q1320.66 693.356 1320.66 696.69 Q1320.66 701.805 1317.14 704.606 Q1313.62 707.407 1307.14 707.407 Q1304.97 707.407 1302.65 706.967 Q1300.36 706.551 1297.91 705.694 L1297.91 701.18 Q1299.85 702.315 1302.17 702.893 Q1304.48 703.472 1307 703.472 Q1311.4 703.472 1313.69 701.736 Q1316.01 700 1316.01 696.69 Q1316.01 693.634 1313.86 691.921 Q1311.73 690.185 1307.91 690.185 L1303.88 690.185 L1303.88 686.342 L1308.09 686.342 Q1311.54 686.342 1313.37 684.977 Q1315.2 683.588 1315.2 680.995 Q1315.2 678.333 1313.3 676.921 Q1311.43 675.486 1307.91 675.486 Q1305.99 675.486 1303.79 675.903 Q1301.59 676.319 1298.95 677.199 L1298.95 673.032 Q1301.61 672.292 1303.93 671.921 Q1306.26 671.551 1308.32 671.551 Q1313.65 671.551 1316.75 673.981 Q1319.85 676.389 1319.85 680.509 Q1319.85 683.38 1318.21 685.37 Q1316.56 687.338 1313.53 688.102 Z" fill="#000000" fill-rule="nonzero" fill-opacity="1" /><path clip-path="url(#clip330)" d="M1339.53 675.255 Q1335.92 675.255 1334.09 678.819 Q1332.28 682.361 1332.28 689.491 Q1332.28 696.597 1334.09 700.162 Q1335.92 703.703 1339.53 703.703 Q1343.16 703.703 1344.97 700.162 Q1346.8 696.597 1346.8 689.491 Q1346.8 682.361 1344.97 678.819 Q1343.16 675.255 1339.53 675.255 M1339.53 671.551 Q1345.34 671.551 1348.39 676.157 Q1351.47 680.741 1351.47 689.491 Q1351.47 698.217 1348.39 702.824 Q1345.34 707.407 1339.53 707.407 Q1333.72 707.407 1330.64 702.824 Q1327.58 698.217 1327.58 689.491 Q1327.58 680.741 1330.64 676.157 Q1333.72 671.551 1339.53 671.551 Z" fill="#000000" fill-rule="nonzero" fill-opacity="1" /><path clip-path="url(#clip330)" d="M1670.61 676.25 L1658.8 694.699 L1670.61 694.699 L1670.61 676.25 M1669.38 672.176 L1675.26 672.176 L1675.26 694.699 L1680.19 694.699 L1680.19 698.588 L1675.26 698.588 L1675.26 706.736 L1670.61 706.736 L1670.61 698.588 L1655 698.588 L1655 694.074 L1669.38 672.176 Z" fill="#000000" fill-rule="nonzero" fill-opacity="1" /><path clip-path="url(#clip330)" d="M1697.92 675.255 Q1694.31 675.255 1692.48 678.819 Q1690.68 682.361 1690.68 689.491 Q1690.68 696.597 1692.48 700.162 Q1694.31 703.703 1697.92 703.703 Q1701.56 703.703 1703.36 700.162 Q1705.19 696.597 1705.19 689.491 Q1705.19 682.361 1703.36 678.819 Q1701.56 675.255 1697.92 675.255 M1697.92 671.551 Q1703.73 671.551 1706.79 676.157 Q1709.87 680.741 1709.87 689.491 Q1709.87 698.217 1706.79 702.824 Q1703.73 707.407 1697.92 707.407 Q1692.11 707.407 1689.03 702.824 Q1685.98 698.217 1685.98 689.491 Q1685.98 680.741 1689.03 676.157 Q1692.11 671.551 1697.92 671.551 Z" fill="#000000" fill-rule="nonzero" fill-opacity="1" /><polyline clip-path="url(#clip330)" style="stroke:#000000; stroke-linecap:round; stroke-linejoin:round; stroke-width:4; stroke-opacity:1; fill:none" points="204.229,648.176 204.229,135.568 "/>
<polyline clip-path="url(#clip330)" style="stroke:#000000; stroke-linecap:round; stroke-linejoin:round; stroke-width:4; stroke-opacity:1; fill:none" points="204.229,608.794 223.126,608.794 "/>
<polyline clip-path="url(#clip330)" style="stroke:#000000; stroke-linecap:round; stroke-linejoin:round; stroke-width:4; stroke-opacity:1; fill:none" points="204.229,536.487 223.126,536.487 "/>
<polyline clip-path="url(#clip330)" style="stroke:#000000; stroke-linecap:round; stroke-linejoin:round; stroke-width:4; stroke-opacity:1; fill:none" points="204.229,464.179 223.126,464.179 "/>
<polyline clip-path="url(#clip330)" style="stroke:#000000; stroke-linecap:round; stroke-linejoin:round; stroke-width:4; stroke-opacity:1; fill:none" points="204.229,391.872 223.126,391.872 "/>
<polyline clip-path="url(#clip330)" style="stroke:#000000; stroke-linecap:round; stroke-linejoin:round; stroke-width:4; stroke-opacity:1; fill:none" points="204.229,319.565 223.126,319.565 "/>
<polyline clip-path="url(#clip330)" style="stroke:#000000; stroke-linecap:round; stroke-linejoin:round; stroke-width:4; stroke-opacity:1; fill:none" points="204.229,247.257 223.126,247.257 "/>
<polyline clip-path="url(#clip330)" style="stroke:#000000; stroke-linecap:round; stroke-linejoin:round; stroke-width:4; stroke-opacity:1; fill:none" points="204.229,174.95 223.126,174.95 "/>
<path clip-path="url(#clip330)" d="M53.3921 609.246 L83.0679 609.246 L83.0679 613.181 L53.3921 613.181 L53.3921 609.246 Z" fill="#000000" fill-rule="nonzero" fill-opacity="1" /><path clip-path="url(#clip330)" d="M93.9706 622.139 L101.609 622.139 L101.609 595.774 L93.2993 597.44 L93.2993 593.181 L101.563 591.514 L106.239 591.514 L106.239 622.139 L113.878 622.139 L113.878 626.074 L93.9706 626.074 L93.9706 622.139 Z" fill="#000000" fill-rule="nonzero" fill-opacity="1" /><path clip-path="url(#clip330)" d="M123.369 591.514 L141.725 591.514 L141.725 595.45 L127.651 595.45 L127.651 603.922 Q128.67 603.574 129.688 603.412 Q130.707 603.227 131.725 603.227 Q137.512 603.227 140.892 606.399 Q144.271 609.57 144.271 614.986 Q144.271 620.565 140.799 623.667 Q137.327 626.746 131.007 626.746 Q128.832 626.746 126.563 626.375 Q124.318 626.005 121.91 625.264 L121.91 620.565 Q123.994 621.699 126.216 622.255 Q128.438 622.81 130.915 622.81 Q134.919 622.81 137.257 620.704 Q139.595 618.598 139.595 614.986 Q139.595 611.375 137.257 609.269 Q134.919 607.162 130.915 607.162 Q129.04 607.162 127.165 607.579 Q125.313 607.996 123.369 608.875 L123.369 591.514 Z" fill="#000000" fill-rule="nonzero" fill-opacity="1" /><path clip-path="url(#clip330)" d="M163.484 594.593 Q159.873 594.593 158.044 598.158 Q156.239 601.699 156.239 608.829 Q156.239 615.936 158.044 619.5 Q159.873 623.042 163.484 623.042 Q167.118 623.042 168.924 619.5 Q170.753 615.936 170.753 608.829 Q170.753 601.699 168.924 598.158 Q167.118 594.593 163.484 594.593 M163.484 590.889 Q169.294 590.889 172.35 595.496 Q175.429 600.079 175.429 608.829 Q175.429 617.556 172.35 622.162 Q169.294 626.746 163.484 626.746 Q157.674 626.746 154.595 622.162 Q151.54 617.556 151.54 608.829 Q151.54 600.079 154.595 595.496 Q157.674 590.889 163.484 590.889 Z" fill="#000000" fill-rule="nonzero" fill-opacity="1" /><path clip-path="url(#clip330)" d="M53.3921 536.938 L83.0679 536.938 L83.0679 540.873 L53.3921 540.873 L53.3921 536.938 Z" fill="#000000" fill-rule="nonzero" fill-opacity="1" /><path clip-path="url(#clip330)" d="M93.9706 549.832 L101.609 549.832 L101.609 523.466 L93.2993 525.133 L93.2993 520.874 L101.563 519.207 L106.239 519.207 L106.239 549.832 L113.878 549.832 L113.878 553.767 L93.9706 553.767 L93.9706 549.832 Z" fill="#000000" fill-rule="nonzero" fill-opacity="1" /><path clip-path="url(#clip330)" d="M133.322 522.286 Q129.711 522.286 127.882 525.85 Q126.077 529.392 126.077 536.522 Q126.077 543.628 127.882 547.193 Q129.711 550.735 133.322 550.735 Q136.956 550.735 138.762 547.193 Q140.591 543.628 140.591 536.522 Q140.591 529.392 138.762 525.85 Q136.956 522.286 133.322 522.286 M133.322 518.582 Q139.132 518.582 142.188 523.188 Q145.267 527.772 145.267 536.522 Q145.267 545.248 142.188 549.855 Q139.132 554.438 133.322 554.438 Q127.512 554.438 124.433 549.855 Q121.378 545.248 121.378 536.522 Q121.378 527.772 124.433 523.188 Q127.512 518.582 133.322 518.582 Z" fill="#000000" fill-rule="nonzero" fill-opacity="1" /><path clip-path="url(#clip330)" d="M163.484 522.286 Q159.873 522.286 158.044 525.85 Q156.239 529.392 156.239 536.522 Q156.239 543.628 158.044 547.193 Q159.873 550.735 163.484 550.735 Q167.118 550.735 168.924 547.193 Q170.753 543.628 170.753 536.522 Q170.753 529.392 168.924 525.85 Q167.118 522.286 163.484 522.286 M163.484 518.582 Q169.294 518.582 172.35 523.188 Q175.429 527.772 175.429 536.522 Q175.429 545.248 172.35 549.855 Q169.294 554.438 163.484 554.438 Q157.674 554.438 154.595 549.855 Q151.54 545.248 151.54 536.522 Q151.54 527.772 154.595 523.188 Q157.674 518.582 163.484 518.582 Z" fill="#000000" fill-rule="nonzero" fill-opacity="1" /><path clip-path="url(#clip330)" d="M83.554 464.631 L113.23 464.631 L113.23 468.566 L83.554 468.566 L83.554 464.631 Z" fill="#000000" fill-rule="nonzero" fill-opacity="1" /><path clip-path="url(#clip330)" d="M123.369 446.899 L141.725 446.899 L141.725 450.835 L127.651 450.835 L127.651 459.307 Q128.67 458.96 129.688 458.798 Q130.707 458.612 131.725 458.612 Q137.512 458.612 140.892 461.784 Q144.271 464.955 144.271 470.372 Q144.271 475.95 140.799 479.052 Q137.327 482.131 131.007 482.131 Q128.832 482.131 126.563 481.76 Q124.318 481.39 121.91 480.649 L121.91 475.95 Q123.994 477.084 126.216 477.64 Q128.438 478.196 130.915 478.196 Q134.919 478.196 137.257 476.089 Q139.595 473.983 139.595 470.372 Q139.595 466.76 137.257 464.654 Q134.919 462.548 130.915 462.548 Q129.04 462.548 127.165 462.964 Q125.313 463.381 123.369 464.26 L123.369 446.899 Z" fill="#000000" fill-rule="nonzero" fill-opacity="1" /><path clip-path="url(#clip330)" d="M163.484 449.978 Q159.873 449.978 158.044 453.543 Q156.239 457.085 156.239 464.214 Q156.239 471.321 158.044 474.885 Q159.873 478.427 163.484 478.427 Q167.118 478.427 168.924 474.885 Q170.753 471.321 170.753 464.214 Q170.753 457.085 168.924 453.543 Q167.118 449.978 163.484 449.978 M163.484 446.274 Q169.294 446.274 172.35 450.881 Q175.429 455.464 175.429 464.214 Q175.429 472.941 172.35 477.547 Q169.294 482.131 163.484 482.131 Q157.674 482.131 154.595 477.547 Q151.54 472.941 151.54 464.214 Q151.54 455.464 154.595 450.881 Q157.674 446.274 163.484 446.274 Z" fill="#000000" fill-rule="nonzero" fill-opacity="1" /><path clip-path="url(#clip330)" d="M163.484 377.671 Q159.873 377.671 158.044 381.235 Q156.239 384.777 156.239 391.907 Q156.239 399.013 158.044 402.578 Q159.873 406.12 163.484 406.12 Q167.118 406.12 168.924 402.578 Q170.753 399.013 170.753 391.907 Q170.753 384.777 168.924 381.235 Q167.118 377.671 163.484 377.671 M163.484 373.967 Q169.294 373.967 172.35 378.573 Q175.429 383.157 175.429 391.907 Q175.429 400.634 172.35 405.24 Q169.294 409.823 163.484 409.823 Q157.674 409.823 154.595 405.24 Q151.54 400.634 151.54 391.907 Q151.54 383.157 154.595 378.573 Q157.674 373.967 163.484 373.967 Z" fill="#000000" fill-rule="nonzero" fill-opacity="1" /><path clip-path="url(#clip330)" d="M123.369 302.285 L141.725 302.285 L141.725 306.22 L127.651 306.22 L127.651 314.692 Q128.67 314.345 129.688 314.183 Q130.707 313.997 131.725 313.997 Q137.512 313.997 140.892 317.169 Q144.271 320.34 144.271 325.757 Q144.271 331.335 140.799 334.437 Q137.327 337.516 131.007 337.516 Q128.832 337.516 126.563 337.145 Q124.318 336.775 121.91 336.034 L121.91 331.335 Q123.994 332.47 126.216 333.025 Q128.438 333.581 130.915 333.581 Q134.919 333.581 137.257 331.474 Q139.595 329.368 139.595 325.757 Q139.595 322.146 137.257 320.039 Q134.919 317.933 130.915 317.933 Q129.04 317.933 127.165 318.349 Q125.313 318.766 123.369 319.646 L123.369 302.285 Z" fill="#000000" fill-rule="nonzero" fill-opacity="1" /><path clip-path="url(#clip330)" d="M163.484 305.363 Q159.873 305.363 158.044 308.928 Q156.239 312.47 156.239 319.599 Q156.239 326.706 158.044 330.271 Q159.873 333.812 163.484 333.812 Q167.118 333.812 168.924 330.271 Q170.753 326.706 170.753 319.599 Q170.753 312.47 168.924 308.928 Q167.118 305.363 163.484 305.363 M163.484 301.66 Q169.294 301.66 172.35 306.266 Q175.429 310.849 175.429 319.599 Q175.429 328.326 172.35 332.933 Q169.294 337.516 163.484 337.516 Q157.674 337.516 154.595 332.933 Q151.54 328.326 151.54 319.599 Q151.54 310.849 154.595 306.266 Q157.674 301.66 163.484 301.66 Z" fill="#000000" fill-rule="nonzero" fill-opacity="1" /><path clip-path="url(#clip330)" d="M93.9706 260.602 L101.609 260.602 L101.609 234.236 L93.2993 235.903 L93.2993 231.644 L101.563 229.977 L106.239 229.977 L106.239 260.602 L113.878 260.602 L113.878 264.537 L93.9706 264.537 L93.9706 260.602 Z" fill="#000000" fill-rule="nonzero" fill-opacity="1" /><path clip-path="url(#clip330)" d="M133.322 233.056 Q129.711 233.056 127.882 236.621 Q126.077 240.162 126.077 247.292 Q126.077 254.398 127.882 257.963 Q129.711 261.505 133.322 261.505 Q136.956 261.505 138.762 257.963 Q140.591 254.398 140.591 247.292 Q140.591 240.162 138.762 236.621 Q136.956 233.056 133.322 233.056 M133.322 229.352 Q139.132 229.352 142.188 233.959 Q145.267 238.542 145.267 247.292 Q145.267 256.019 142.188 260.625 Q139.132 265.208 133.322 265.208 Q127.512 265.208 124.433 260.625 Q121.378 256.019 121.378 247.292 Q121.378 238.542 124.433 233.959 Q127.512 229.352 133.322 229.352 Z" fill="#000000" fill-rule="nonzero" fill-opacity="1" /><path clip-path="url(#clip330)" d="M163.484 233.056 Q159.873 233.056 158.044 236.621 Q156.239 240.162 156.239 247.292 Q156.239 254.398 158.044 257.963 Q159.873 261.505 163.484 261.505 Q167.118 261.505 168.924 257.963 Q170.753 254.398 170.753 247.292 Q170.753 240.162 168.924 236.621 Q167.118 233.056 163.484 233.056 M163.484 229.352 Q169.294 229.352 172.35 233.959 Q175.429 238.542 175.429 247.292 Q175.429 256.019 172.35 260.625 Q169.294 265.208 163.484 265.208 Q157.674 265.208 154.595 260.625 Q151.54 256.019 151.54 247.292 Q151.54 238.542 154.595 233.959 Q157.674 229.352 163.484 229.352 Z" fill="#000000" fill-rule="nonzero" fill-opacity="1" /><path clip-path="url(#clip330)" d="M93.9706 188.294 L101.609 188.294 L101.609 161.929 L93.2993 163.596 L93.2993 159.336 L101.563 157.67 L106.239 157.67 L106.239 188.294 L113.878 188.294 L113.878 192.23 L93.9706 192.23 L93.9706 188.294 Z" fill="#000000" fill-rule="nonzero" fill-opacity="1" /><path clip-path="url(#clip330)" d="M123.369 157.67 L141.725 157.67 L141.725 161.605 L127.651 161.605 L127.651 170.077 Q128.67 169.73 129.688 169.568 Q130.707 169.383 131.725 169.383 Q137.512 169.383 140.892 172.554 Q144.271 175.725 144.271 181.142 Q144.271 186.72 140.799 189.822 Q137.327 192.901 131.007 192.901 Q128.832 192.901 126.563 192.531 Q124.318 192.16 121.91 191.419 L121.91 186.72 Q123.994 187.855 126.216 188.41 Q128.438 188.966 130.915 188.966 Q134.919 188.966 137.257 186.859 Q139.595 184.753 139.595 181.142 Q139.595 177.531 137.257 175.424 Q134.919 173.318 130.915 173.318 Q129.04 173.318 127.165 173.734 Q125.313 174.151 123.369 175.031 L123.369 157.67 Z" fill="#000000" fill-rule="nonzero" fill-opacity="1" /><path clip-path="url(#clip330)" d="M163.484 160.748 Q159.873 160.748 158.044 164.313 Q156.239 167.855 156.239 174.984 Q156.239 182.091 158.044 185.656 Q159.873 189.197 163.484 189.197 Q167.118 189.197 168.924 185.656 Q170.753 182.091 170.753 174.984 Q170.753 167.855 168.924 164.313 Q167.118 160.748 163.484 160.748 M163.484 157.045 Q169.294 157.045 172.35 161.651 Q175.429 166.234 175.429 174.984 Q175.429 183.711 172.35 188.318 Q169.294 192.901 163.484 192.901 Q157.674 192.901 154.595 188.318 Q151.54 183.711 151.54 174.984 Q151.54 166.234 154.595 161.651 Q157.674 157.045 163.484 157.045 Z" fill="#000000" fill-rule="nonzero" fill-opacity="1" /><path clip-path="url(#clip330)" d="M861.893 18.8205 L861.893 65.8515 L871.777 65.8515 Q884.295 65.8515 890.087 60.1802 Q895.921 54.509 895.921 42.2752 Q895.921 30.1225 890.087 24.4918 Q884.295 18.8205 871.777 18.8205 L861.893 18.8205 M853.71 12.096 L870.521 12.096 Q888.102 12.096 896.326 19.4281 Q904.549 26.7198 904.549 42.2752 Q904.549 57.9117 896.285 65.2439 Q888.021 72.576 870.521 72.576 L853.71 72.576 L853.71 12.096 Z" fill="#000000" fill-rule="nonzero" fill-opacity="1" /><path clip-path="url(#clip330)" d="M917.593 12.096 L925.776 12.096 L925.776 65.6895 L955.226 65.6895 L955.226 72.576 L917.593 72.576 L917.593 12.096 Z" fill="#000000" fill-rule="nonzero" fill-opacity="1" /><path clip-path="url(#clip330)" d="M1026.44 14.0809 L1026.44 22.0612 Q1021.78 19.8332 1017.65 18.7395 Q1013.52 17.6457 1009.67 17.6457 Q1002.99 17.6457 999.34 20.2383 Q995.735 22.8309 995.735 27.611 Q995.735 31.6214 998.125 33.6873 Q1000.56 35.7128 1007.28 36.9686 L1012.22 37.9813 Q1021.38 39.7232 1025.71 44.1387 Q1030.09 48.5136 1030.09 55.8863 Q1030.09 64.6767 1024.17 69.2137 Q1018.3 73.7508 1006.92 73.7508 Q1002.62 73.7508 997.76 72.7785 Q992.94 71.8063 987.755 69.9024 L987.755 61.4765 Q992.737 64.2716 997.517 65.6895 Q1002.3 67.1073 1006.92 67.1073 Q1013.92 67.1073 1017.73 64.3527 Q1021.54 61.598 1021.54 56.4939 Q1021.54 52.0379 1018.78 49.5264 Q1016.07 47.0148 1009.83 45.759 L1004.85 44.7868 Q995.694 42.9639 991.603 39.075 Q987.512 35.1862 987.512 28.2591 Q987.512 20.2383 993.142 15.6203 Q998.814 11.0023 1008.74 11.0023 Q1012.99 11.0023 1017.41 11.7719 Q1021.82 12.5416 1026.44 14.0809 Z" fill="#000000" fill-rule="nonzero" fill-opacity="1" /><path clip-path="url(#clip330)" d="M1080.24 45.1919 L1080.24 72.576 L1072.78 72.576 L1072.78 45.4349 Q1072.78 38.994 1070.27 35.7938 Q1067.76 32.5936 1062.74 32.5936 Q1056.7 32.5936 1053.22 36.4419 Q1049.73 40.2903 1049.73 46.9338 L1049.73 72.576 L1042.24 72.576 L1042.24 9.54393 L1049.73 9.54393 L1049.73 34.2544 Q1052.41 30.163 1056.01 28.1376 Q1059.66 26.1121 1064.4 26.1121 Q1072.22 26.1121 1076.23 30.9732 Q1080.24 35.7938 1080.24 45.1919 Z" fill="#000000" fill-rule="nonzero" fill-opacity="1" /><path clip-path="url(#clip330)" d="M1133.91 48.0275 L1133.91 51.6733 L1099.64 51.6733 Q1100.13 59.3701 1104.26 63.421 Q1108.43 67.4314 1115.84 67.4314 Q1120.14 67.4314 1124.15 66.3781 Q1128.2 65.3249 1132.17 63.2184 L1132.17 70.267 Q1128.16 71.9684 1123.95 72.8596 Q1119.73 73.7508 1115.4 73.7508 Q1104.54 73.7508 1098.18 67.4314 Q1091.86 61.1119 1091.86 50.3365 Q1091.86 39.1965 1097.86 32.6746 Q1103.89 26.1121 1114.1 26.1121 Q1123.26 26.1121 1128.56 32.0264 Q1133.91 37.9003 1133.91 48.0275 M1126.46 45.84 Q1126.38 39.7232 1123.01 36.0774 Q1119.69 32.4315 1114.18 32.4315 Q1107.94 32.4315 1104.18 35.9558 Q1100.45 39.4801 1099.88 45.8805 L1126.46 45.84 Z" fill="#000000" fill-rule="nonzero" fill-opacity="1" /><path clip-path="url(#clip330)" d="M1166.76 49.7694 Q1157.73 49.7694 1154.25 51.8354 Q1150.76 53.9013 1150.76 58.8839 Q1150.76 62.8538 1153.36 65.2034 Q1155.99 67.5124 1160.49 67.5124 Q1166.68 67.5124 1170.41 63.1374 Q1174.18 58.7219 1174.18 51.4303 L1174.18 49.7694 L1166.76 49.7694 M1181.63 46.6907 L1181.63 72.576 L1174.18 72.576 L1174.18 65.6895 Q1171.63 69.8214 1167.82 71.8063 Q1164.01 73.7508 1158.5 73.7508 Q1151.53 73.7508 1147.4 69.8619 Q1143.31 65.9325 1143.31 59.3701 Q1143.31 51.7138 1148.41 47.825 Q1153.56 43.9361 1163.73 43.9361 L1174.18 43.9361 L1174.18 43.2069 Q1174.18 38.0623 1170.77 35.2672 Q1167.41 32.4315 1161.3 32.4315 Q1157.41 32.4315 1153.72 33.3632 Q1150.03 34.295 1146.63 36.1584 L1146.63 29.2718 Q1150.72 27.692 1154.57 26.9223 Q1158.42 26.1121 1162.07 26.1121 Q1171.91 26.1121 1176.77 31.2163 Q1181.63 36.3204 1181.63 46.6907 Z" fill="#000000" fill-rule="nonzero" fill-opacity="1" /><path clip-path="url(#clip330)" d="M1223.27 34.1734 Q1222.02 33.4443 1220.52 33.1202 Q1219.06 32.7556 1217.28 32.7556 Q1210.96 32.7556 1207.56 36.8875 Q1204.19 40.9789 1204.19 48.6757 L1204.19 72.576 L1196.7 72.576 L1196.7 27.2059 L1204.19 27.2059 L1204.19 34.2544 Q1206.54 30.1225 1210.31 28.1376 Q1214.08 26.1121 1219.47 26.1121 Q1220.24 26.1121 1221.17 26.2337 Q1222.1 26.3147 1223.23 26.5172 L1223.27 34.1734 Z" fill="#000000" fill-rule="nonzero" fill-opacity="1" /><path clip-path="url(#clip332)" d="M251.451 392.306 L269.338 393.318 L287.226 394.764 L305.113 396.355 L323 496.139 L340.887 595.924 L358.775 597.37 L376.662 598.816 L394.549 429.616 L412.437 260.417 L430.324 261.863 L448.211 263.309 L466.099 264.9 L483.986 266.346 L501.873 267.792 L519.76 269.239 L537.648 270.685 L555.535 272.131 L573.422 273.722 L591.31 275.168 L609.197 389.414 L627.084 503.804 L644.972 505.25 L662.859 506.696 L680.746 508.142 L698.633 509.589 L716.521 511.179 L734.408 512.625 L752.295 514.072 L770.183 515.518 L788.07 516.964 L805.957 518.555 L823.845 334.315 L841.732 150.076 L859.619 151.522 L877.507 152.968 L895.394 267.214 L913.281 381.604 L931.168 383.05 L949.056 384.497 L966.943 385.943 L984.83 387.389 L1002.72 388.98 L1020.6 390.426 L1038.49 391.872 L1056.38 393.318 L1074.27 394.764 L1092.15 396.355 L1110.04 397.801 L1127.93 399.247 L1145.82 400.694 L1163.7 402.14 L1181.59 516.53 L1199.48 630.776 L1217.37 632.222 L1235.25 633.668 L1253.14 449.429 L1271.03 265.189 L1288.91 266.78 L1306.8 268.226 L1324.69 269.672 L1342.58 271.119 L1360.46 272.565 L1378.35 274.155 L1396.24 275.602 L1414.13 277.048 L1432.01 278.494 L1449.9 279.94 L1467.79 394.33 L1485.67 508.576 L1503.56 510.022 L1521.45 511.613 L1539.34 513.059 L1557.22 514.505 L1575.11 515.952 L1593 517.398 L1610.89 518.844 L1628.77 520.435 L1646.66 521.881 L1664.55 523.327 L1682.44 354.128 L1700.32 184.928 L1718.21 186.374 L1736.1 187.82 L1753.98 287.605 L1771.87 387.389 L1789.76 388.98 L1807.65 390.426 L1825.53 391.438 L1825.53 391.872 L1807.65 391.872 L1789.76 391.872 L1771.87 391.872 L1753.98 391.872 L1736.1 391.872 L1718.21 391.872 L1700.32 391.872 L1682.44 391.872 L1664.55 391.872 L1646.66 391.872 L1628.77 391.872 L1610.89 391.872 L1593 391.872 L1575.11 391.872 L1557.22 391.872 L1539.34 391.872 L1521.45 391.872 L1503.56 391.872 L1485.67 391.872 L1467.79 391.872 L1449.9 391.872 L1432.01 391.872 L1414.13 391.872 L1396.24 391.872 L1378.35 391.872 L1360.46 391.872 L1342.58 391.872 L1324.69 391.872 L1306.8 391.872 L1288.91 391.872 L1271.03 391.872 L1253.14 391.872 L1235.25 391.872 L1217.37 391.872 L1199.48 391.872 L1181.59 391.872 L1163.7 391.872 L1145.82 391.872 L1127.93 391.872 L1110.04 391.872 L1092.15 391.872 L1074.27 391.872 L1056.38 391.872 L1038.49 391.872 L1020.6 391.872 L1002.72 391.872 L984.83 391.872 L966.943 391.872 L949.056 391.872 L931.168 391.872 L913.281 391.872 L895.394 391.872 L877.507 391.872 L859.619 391.872 L841.732 391.872 L823.845 391.872 L805.957 391.872 L788.07 391.872 L770.183 391.872 L752.295 391.872 L734.408 391.872 L716.521 391.872 L698.633 391.872 L680.746 391.872 L662.859 391.872 L644.972 391.872 L627.084 391.872 L609.197 391.872 L591.31 391.872 L573.422 391.872 L555.535 391.872 L537.648 391.872 L519.76 391.872 L501.873 391.872 L483.986 391.872 L466.099 391.872 L448.211 391.872 L430.324 391.872 L412.437 391.872 L394.549 391.872 L376.662 391.872 L358.775 391.872 L340.887 391.872 L323 391.872 L305.113 391.872 L287.226 391.872 L269.338 391.872 L251.451 391.872  Z" fill="#0000ff" fill-rule="evenodd" fill-opacity="0.5"/>
<polyline clip-path="url(#clip332)" style="stroke:#0000ff; stroke-linecap:round; stroke-linejoin:round; stroke-width:4; stroke-opacity:1; fill:none" points="251.451,392.306 269.338,393.318 287.226,394.764 305.113,396.355 323,496.139 340.887,595.924 358.775,597.37 376.662,598.816 394.549,429.616 412.437,260.417 430.324,261.863 448.211,263.309 466.099,264.9 483.986,266.346 501.873,267.792 519.76,269.239 537.648,270.685 555.535,272.131 573.422,273.722 591.31,275.168 609.197,389.414 627.084,503.804 644.972,505.25 662.859,506.696 680.746,508.142 698.633,509.589 716.521,511.179 734.408,512.625 752.295,514.072 770.183,515.518 788.07,516.964 805.957,518.555 823.845,334.315 841.732,150.076 859.619,151.522 877.507,152.968 895.394,267.214 913.281,381.604 931.168,383.05 949.056,384.497 966.943,385.943 984.83,387.389 1002.72,388.98 1020.6,390.426 1038.49,391.872 1056.38,393.318 1074.27,394.764 1092.15,396.355 1110.04,397.801 1127.93,399.247 1145.82,400.694 1163.7,402.14 1181.59,516.53 1199.48,630.776 1217.37,632.222 1235.25,633.668 1253.14,449.429 1271.03,265.189 1288.91,266.78 1306.8,268.226 1324.69,269.672 1342.58,271.119 1360.46,272.565 1378.35,274.155 1396.24,275.602 1414.13,277.048 1432.01,278.494 1449.9,279.94 1467.79,394.33 1485.67,508.576 1503.56,510.022 1521.45,511.613 1539.34,513.059 1557.22,514.505 1575.11,515.952 1593,517.398 1610.89,518.844 1628.77,520.435 1646.66,521.881 1664.55,523.327 1682.44,354.128 1700.32,184.928 1718.21,186.374 1736.1,187.82 1753.98,287.605 1771.87,387.389 1789.76,388.98 1807.65,390.426 1825.53,391.438 "/>
<path clip-path="url(#clip330)" d="M204.229 1416.18 L1872.76 1416.18 L1872.76 903.568 L204.229 903.568  Z" fill="#ffffff" fill-rule="evenodd" fill-opacity="1"/>
<defs>
  <clipPath id="clip333">
    <rect x="204" y="903" width="1670" height="514"/>
  </clipPath>
</defs>
<polyline clip-path="url(#clip333)" style="stroke:#000000; stroke-linecap:round; stroke-linejoin:round; stroke-width:2; stroke-opacity:0.1; fill:none" points="251.451,1416.18 251.451,903.568 "/>
<polyline clip-path="url(#clip333)" style="stroke:#000000; stroke-linecap:round; stroke-linejoin:round; stroke-width:2; stroke-opacity:0.1; fill:none" points="609.197,1416.18 609.197,903.568 "/>
<polyline clip-path="url(#clip333)" style="stroke:#000000; stroke-linecap:round; stroke-linejoin:round; stroke-width:2; stroke-opacity:0.1; fill:none" points="966.943,1416.18 966.943,903.568 "/>
<polyline clip-path="url(#clip333)" style="stroke:#000000; stroke-linecap:round; stroke-linejoin:round; stroke-width:2; stroke-opacity:0.1; fill:none" points="1324.69,1416.18 1324.69,903.568 "/>
<polyline clip-path="url(#clip333)" style="stroke:#000000; stroke-linecap:round; stroke-linejoin:round; stroke-width:2; stroke-opacity:0.1; fill:none" points="1682.44,1416.18 1682.44,903.568 "/>
<polyline clip-path="url(#clip333)" style="stroke:#000000; stroke-linecap:round; stroke-linejoin:round; stroke-width:2; stroke-opacity:0.1; fill:none" points="204.229,1412.75 1872.76,1412.75 "/>
<polyline clip-path="url(#clip333)" style="stroke:#000000; stroke-linecap:round; stroke-linejoin:round; stroke-width:2; stroke-opacity:0.1; fill:none" points="204.229,1318.81 1872.76,1318.81 "/>
<polyline clip-path="url(#clip333)" style="stroke:#000000; stroke-linecap:round; stroke-linejoin:round; stroke-width:2; stroke-opacity:0.1; fill:none" points="204.229,1224.88 1872.76,1224.88 "/>
<polyline clip-path="url(#clip333)" style="stroke:#000000; stroke-linecap:round; stroke-linejoin:round; stroke-width:2; stroke-opacity:0.1; fill:none" points="204.229,1130.94 1872.76,1130.94 "/>
<polyline clip-path="url(#clip333)" style="stroke:#000000; stroke-linecap:round; stroke-linejoin:round; stroke-width:2; stroke-opacity:0.1; fill:none" points="204.229,1037 1872.76,1037 "/>
<polyline clip-path="url(#clip333)" style="stroke:#000000; stroke-linecap:round; stroke-linejoin:round; stroke-width:2; stroke-opacity:0.1; fill:none" points="204.229,943.063 1872.76,943.063 "/>
<polyline clip-path="url(#clip330)" style="stroke:#000000; stroke-linecap:round; stroke-linejoin:round; stroke-width:4; stroke-opacity:1; fill:none" points="204.229,1416.18 1872.76,1416.18 "/>
<polyline clip-path="url(#clip330)" style="stroke:#000000; stroke-linecap:round; stroke-linejoin:round; stroke-width:4; stroke-opacity:1; fill:none" points="251.451,1416.18 251.451,1397.28 "/>
<polyline clip-path="url(#clip330)" style="stroke:#000000; stroke-linecap:round; stroke-linejoin:round; stroke-width:4; stroke-opacity:1; fill:none" points="609.197,1416.18 609.197,1397.28 "/>
<polyline clip-path="url(#clip330)" style="stroke:#000000; stroke-linecap:round; stroke-linejoin:round; stroke-width:4; stroke-opacity:1; fill:none" points="966.943,1416.18 966.943,1397.28 "/>
<polyline clip-path="url(#clip330)" style="stroke:#000000; stroke-linecap:round; stroke-linejoin:round; stroke-width:4; stroke-opacity:1; fill:none" points="1324.69,1416.18 1324.69,1397.28 "/>
<polyline clip-path="url(#clip330)" style="stroke:#000000; stroke-linecap:round; stroke-linejoin:round; stroke-width:4; stroke-opacity:1; fill:none" points="1682.44,1416.18 1682.44,1397.28 "/>
<path clip-path="url(#clip330)" d="M251.451 1443.25 Q247.84 1443.25 246.011 1446.82 Q244.206 1450.36 244.206 1457.49 Q244.206 1464.6 246.011 1468.16 Q247.84 1471.7 251.451 1471.7 Q255.085 1471.7 256.891 1468.16 Q258.719 1464.6 258.719 1457.49 Q258.719 1450.36 256.891 1446.82 Q255.085 1443.25 251.451 1443.25 M251.451 1439.55 Q257.261 1439.55 260.317 1444.16 Q263.395 1448.74 263.395 1457.49 Q263.395 1466.22 260.317 1470.82 Q257.261 1475.41 251.451 1475.41 Q245.641 1475.41 242.562 1470.82 Q239.507 1466.22 239.507 1457.49 Q239.507 1448.74 242.562 1444.16 Q245.641 1439.55 251.451 1439.55 Z" fill="#000000" fill-rule="nonzero" fill-opacity="1" /><path clip-path="url(#clip330)" d="M583.885 1470.8 L591.523 1470.8 L591.523 1444.44 L583.213 1446.1 L583.213 1441.84 L591.477 1440.18 L596.153 1440.18 L596.153 1470.8 L603.792 1470.8 L603.792 1474.74 L583.885 1474.74 L583.885 1470.8 Z" fill="#000000" fill-rule="nonzero" fill-opacity="1" /><path clip-path="url(#clip330)" d="M623.236 1443.25 Q619.625 1443.25 617.796 1446.82 Q615.991 1450.36 615.991 1457.49 Q615.991 1464.6 617.796 1468.16 Q619.625 1471.7 623.236 1471.7 Q626.871 1471.7 628.676 1468.16 Q630.505 1464.6 630.505 1457.49 Q630.505 1450.36 628.676 1446.82 Q626.871 1443.25 623.236 1443.25 M623.236 1439.55 Q629.046 1439.55 632.102 1444.16 Q635.181 1448.74 635.181 1457.49 Q635.181 1466.22 632.102 1470.82 Q629.046 1475.41 623.236 1475.41 Q617.426 1475.41 614.347 1470.82 Q611.292 1466.22 611.292 1457.49 Q611.292 1448.74 614.347 1444.16 Q617.426 1439.55 623.236 1439.55 Z" fill="#000000" fill-rule="nonzero" fill-opacity="1" /><path clip-path="url(#clip330)" d="M945.716 1470.8 L962.036 1470.8 L962.036 1474.74 L940.091 1474.74 L940.091 1470.8 Q942.753 1468.05 947.337 1463.42 Q951.943 1458.76 953.124 1457.42 Q955.369 1454.9 956.249 1453.16 Q957.151 1451.4 957.151 1449.71 Q957.151 1446.96 955.207 1445.22 Q953.286 1443.49 950.184 1443.49 Q947.985 1443.49 945.531 1444.25 Q943.101 1445.01 940.323 1446.56 L940.323 1441.84 Q943.147 1440.71 945.601 1440.13 Q948.054 1439.55 950.091 1439.55 Q955.462 1439.55 958.656 1442.24 Q961.85 1444.92 961.85 1449.41 Q961.85 1451.54 961.04 1453.46 Q960.253 1455.36 958.147 1457.95 Q957.568 1458.62 954.466 1461.84 Q951.364 1465.04 945.716 1470.8 Z" fill="#000000" fill-rule="nonzero" fill-opacity="1" /><path clip-path="url(#clip330)" d="M981.85 1443.25 Q978.239 1443.25 976.411 1446.82 Q974.605 1450.36 974.605 1457.49 Q974.605 1464.6 976.411 1468.16 Q978.239 1471.7 981.85 1471.7 Q985.485 1471.7 987.29 1468.16 Q989.119 1464.6 989.119 1457.49 Q989.119 1450.36 987.29 1446.82 Q985.485 1443.25 981.85 1443.25 M981.85 1439.55 Q987.66 1439.55 990.716 1444.16 Q993.795 1448.74 993.795 1457.49 Q993.795 1466.22 990.716 1470.82 Q987.66 1475.41 981.85 1475.41 Q976.04 1475.41 972.961 1470.82 Q969.906 1466.22 969.906 1457.49 Q969.906 1448.74 972.961 1444.16 Q976.04 1439.55 981.85 1439.55 Z" fill="#000000" fill-rule="nonzero" fill-opacity="1" /><path clip-path="url(#clip330)" d="M1313.53 1456.1 Q1316.89 1456.82 1318.76 1459.09 Q1320.66 1461.36 1320.66 1464.69 Q1320.66 1469.81 1317.14 1472.61 Q1313.62 1475.41 1307.14 1475.41 Q1304.97 1475.41 1302.65 1474.97 Q1300.36 1474.55 1297.91 1473.69 L1297.91 1469.18 Q1299.85 1470.31 1302.17 1470.89 Q1304.48 1471.47 1307 1471.47 Q1311.4 1471.47 1313.69 1469.74 Q1316.01 1468 1316.01 1464.69 Q1316.01 1461.63 1313.86 1459.92 Q1311.73 1458.19 1307.91 1458.19 L1303.88 1458.19 L1303.88 1454.34 L1308.09 1454.34 Q1311.54 1454.34 1313.37 1452.98 Q1315.2 1451.59 1315.2 1449 Q1315.2 1446.33 1313.3 1444.92 Q1311.43 1443.49 1307.91 1443.49 Q1305.99 1443.49 1303.79 1443.9 Q1301.59 1444.32 1298.95 1445.2 L1298.95 1441.03 Q1301.61 1440.29 1303.93 1439.92 Q1306.26 1439.55 1308.32 1439.55 Q1313.65 1439.55 1316.75 1441.98 Q1319.85 1444.39 1319.85 1448.51 Q1319.85 1451.38 1318.21 1453.37 Q1316.56 1455.34 1313.53 1456.1 Z" fill="#000000" fill-rule="nonzero" fill-opacity="1" /><path clip-path="url(#clip330)" d="M1339.53 1443.25 Q1335.92 1443.25 1334.09 1446.82 Q1332.28 1450.36 1332.28 1457.49 Q1332.28 1464.6 1334.09 1468.16 Q1335.92 1471.7 1339.53 1471.7 Q1343.16 1471.7 1344.97 1468.16 Q1346.8 1464.6 1346.8 1457.49 Q1346.8 1450.36 1344.97 1446.82 Q1343.16 1443.25 1339.53 1443.25 M1339.53 1439.55 Q1345.34 1439.55 1348.39 1444.16 Q1351.47 1448.74 1351.47 1457.49 Q1351.47 1466.22 1348.39 1470.82 Q1345.34 1475.41 1339.53 1475.41 Q1333.72 1475.41 1330.64 1470.82 Q1327.58 1466.22 1327.58 1457.49 Q1327.58 1448.74 1330.64 1444.16 Q1333.72 1439.55 1339.53 1439.55 Z" fill="#000000" fill-rule="nonzero" fill-opacity="1" /><path clip-path="url(#clip330)" d="M1670.61 1444.25 L1658.8 1462.7 L1670.61 1462.7 L1670.61 1444.25 M1669.38 1440.18 L1675.26 1440.18 L1675.26 1462.7 L1680.19 1462.7 L1680.19 1466.59 L1675.26 1466.59 L1675.26 1474.74 L1670.61 1474.74 L1670.61 1466.59 L1655 1466.59 L1655 1462.07 L1669.38 1440.18 Z" fill="#000000" fill-rule="nonzero" fill-opacity="1" /><path clip-path="url(#clip330)" d="M1697.92 1443.25 Q1694.31 1443.25 1692.48 1446.82 Q1690.68 1450.36 1690.68 1457.49 Q1690.68 1464.6 1692.48 1468.16 Q1694.31 1471.7 1697.92 1471.7 Q1701.56 1471.7 1703.36 1468.16 Q1705.19 1464.6 1705.19 1457.49 Q1705.19 1450.36 1703.36 1446.82 Q1701.56 1443.25 1697.92 1443.25 M1697.92 1439.55 Q1703.73 1439.55 1706.79 1444.16 Q1709.87 1448.74 1709.87 1457.49 Q1709.87 1466.22 1706.79 1470.82 Q1703.73 1475.41 1697.92 1475.41 Q1692.11 1475.41 1689.03 1470.82 Q1685.98 1466.22 1685.98 1457.49 Q1685.98 1448.74 1689.03 1444.16 Q1692.11 1439.55 1697.92 1439.55 Z" fill="#000000" fill-rule="nonzero" fill-opacity="1" /><polyline clip-path="url(#clip330)" style="stroke:#000000; stroke-linecap:round; stroke-linejoin:round; stroke-width:4; stroke-opacity:1; fill:none" points="204.229,1416.18 204.229,903.568 "/>
<polyline clip-path="url(#clip330)" style="stroke:#000000; stroke-linecap:round; stroke-linejoin:round; stroke-width:4; stroke-opacity:1; fill:none" points="204.229,1412.75 223.126,1412.75 "/>
<polyline clip-path="url(#clip330)" style="stroke:#000000; stroke-linecap:round; stroke-linejoin:round; stroke-width:4; stroke-opacity:1; fill:none" points="204.229,1318.81 223.126,1318.81 "/>
<polyline clip-path="url(#clip330)" style="stroke:#000000; stroke-linecap:round; stroke-linejoin:round; stroke-width:4; stroke-opacity:1; fill:none" points="204.229,1224.88 223.126,1224.88 "/>
<polyline clip-path="url(#clip330)" style="stroke:#000000; stroke-linecap:round; stroke-linejoin:round; stroke-width:4; stroke-opacity:1; fill:none" points="204.229,1130.94 223.126,1130.94 "/>
<polyline clip-path="url(#clip330)" style="stroke:#000000; stroke-linecap:round; stroke-linejoin:round; stroke-width:4; stroke-opacity:1; fill:none" points="204.229,1037 223.126,1037 "/>
<polyline clip-path="url(#clip330)" style="stroke:#000000; stroke-linecap:round; stroke-linejoin:round; stroke-width:4; stroke-opacity:1; fill:none" points="204.229,943.063 223.126,943.063 "/>
<path clip-path="url(#clip330)" d="M53.3921 1413.2 L83.0679 1413.2 L83.0679 1417.14 L53.3921 1417.14 L53.3921 1413.2 Z" fill="#000000" fill-rule="nonzero" fill-opacity="1" /><path clip-path="url(#clip330)" d="M107.327 1411.4 Q110.683 1412.12 112.558 1414.38 Q114.457 1416.65 114.457 1419.99 Q114.457 1425.1 110.938 1427.9 Q107.42 1430.7 100.938 1430.7 Q98.7623 1430.7 96.4475 1430.26 Q94.1558 1429.85 91.7021 1428.99 L91.7021 1424.48 Q93.6465 1425.61 95.9613 1426.19 Q98.2761 1426.77 100.799 1426.77 Q105.197 1426.77 107.489 1425.03 Q109.804 1423.3 109.804 1419.99 Q109.804 1416.93 107.651 1415.22 Q105.521 1413.48 101.702 1413.48 L97.6743 1413.48 L97.6743 1409.64 L101.887 1409.64 Q105.336 1409.64 107.165 1408.27 Q108.994 1406.88 108.994 1404.29 Q108.994 1401.63 107.096 1400.22 Q105.221 1398.78 101.702 1398.78 Q99.7808 1398.78 97.5817 1399.2 Q95.3826 1399.62 92.7438 1400.5 L92.7438 1396.33 Q95.4058 1395.59 97.7206 1395.22 Q100.059 1394.85 102.119 1394.85 Q107.443 1394.85 110.545 1397.28 Q113.646 1399.69 113.646 1403.81 Q113.646 1406.68 112.003 1408.67 Q110.359 1410.63 107.327 1411.4 Z" fill="#000000" fill-rule="nonzero" fill-opacity="1" /><path clip-path="url(#clip330)" d="M133.322 1398.55 Q129.711 1398.55 127.882 1402.12 Q126.077 1405.66 126.077 1412.79 Q126.077 1419.89 127.882 1423.46 Q129.711 1427 133.322 1427 Q136.956 1427 138.762 1423.46 Q140.591 1419.89 140.591 1412.79 Q140.591 1405.66 138.762 1402.12 Q136.956 1398.55 133.322 1398.55 M133.322 1394.85 Q139.132 1394.85 142.188 1399.45 Q145.267 1404.04 145.267 1412.79 Q145.267 1421.51 142.188 1426.12 Q139.132 1430.7 133.322 1430.7 Q127.512 1430.7 124.433 1426.12 Q121.378 1421.51 121.378 1412.79 Q121.378 1404.04 124.433 1399.45 Q127.512 1394.85 133.322 1394.85 Z" fill="#000000" fill-rule="nonzero" fill-opacity="1" /><path clip-path="url(#clip330)" d="M163.484 1398.55 Q159.873 1398.55 158.044 1402.12 Q156.239 1405.66 156.239 1412.79 Q156.239 1419.89 158.044 1423.46 Q159.873 1427 163.484 1427 Q167.118 1427 168.924 1423.46 Q170.753 1419.89 170.753 1412.79 Q170.753 1405.66 168.924 1402.12 Q167.118 1398.55 163.484 1398.55 M163.484 1394.85 Q169.294 1394.85 172.35 1399.45 Q175.429 1404.04 175.429 1412.79 Q175.429 1421.51 172.35 1426.12 Q169.294 1430.7 163.484 1430.7 Q157.674 1430.7 154.595 1426.12 Q151.54 1421.51 151.54 1412.79 Q151.54 1404.04 154.595 1399.45 Q157.674 1394.85 163.484 1394.85 Z" fill="#000000" fill-rule="nonzero" fill-opacity="1" /><path clip-path="url(#clip330)" d="M53.3921 1319.27 L83.0679 1319.27 L83.0679 1323.2 L53.3921 1323.2 L53.3921 1319.27 Z" fill="#000000" fill-rule="nonzero" fill-opacity="1" /><path clip-path="url(#clip330)" d="M97.1882 1332.16 L113.508 1332.16 L113.508 1336.09 L91.5632 1336.09 L91.5632 1332.16 Q94.2252 1329.41 98.8085 1324.78 Q103.415 1320.12 104.596 1318.78 Q106.841 1316.26 107.721 1314.52 Q108.623 1312.76 108.623 1311.07 Q108.623 1308.32 106.679 1306.58 Q104.758 1304.85 101.656 1304.85 Q99.4567 1304.85 97.003 1305.61 Q94.5725 1306.37 91.7947 1307.92 L91.7947 1303.2 Q94.6188 1302.07 97.0724 1301.49 Q99.5261 1300.91 101.563 1300.91 Q106.934 1300.91 110.128 1303.6 Q113.322 1306.28 113.322 1310.77 Q113.322 1312.9 112.512 1314.82 Q111.725 1316.72 109.619 1319.31 Q109.04 1319.98 105.938 1323.2 Q102.836 1326.4 97.1882 1332.16 Z" fill="#000000" fill-rule="nonzero" fill-opacity="1" /><path clip-path="url(#clip330)" d="M133.322 1304.61 Q129.711 1304.61 127.882 1308.18 Q126.077 1311.72 126.077 1318.85 Q126.077 1325.96 127.882 1329.52 Q129.711 1333.06 133.322 1333.06 Q136.956 1333.06 138.762 1329.52 Q140.591 1325.96 140.591 1318.85 Q140.591 1311.72 138.762 1308.18 Q136.956 1304.61 133.322 1304.61 M133.322 1300.91 Q139.132 1300.91 142.188 1305.52 Q145.267 1310.1 145.267 1318.85 Q145.267 1327.58 142.188 1332.18 Q139.132 1336.77 133.322 1336.77 Q127.512 1336.77 124.433 1332.18 Q121.378 1327.58 121.378 1318.85 Q121.378 1310.1 124.433 1305.52 Q127.512 1300.91 133.322 1300.91 Z" fill="#000000" fill-rule="nonzero" fill-opacity="1" /><path clip-path="url(#clip330)" d="M163.484 1304.61 Q159.873 1304.61 158.044 1308.18 Q156.239 1311.72 156.239 1318.85 Q156.239 1325.96 158.044 1329.52 Q159.873 1333.06 163.484 1333.06 Q167.118 1333.06 168.924 1329.52 Q170.753 1325.96 170.753 1318.85 Q170.753 1311.72 168.924 1308.18 Q167.118 1304.61 163.484 1304.61 M163.484 1300.91 Q169.294 1300.91 172.35 1305.52 Q175.429 1310.1 175.429 1318.85 Q175.429 1327.58 172.35 1332.18 Q169.294 1336.77 163.484 1336.77 Q157.674 1336.77 154.595 1332.18 Q151.54 1327.58 151.54 1318.85 Q151.54 1310.1 154.595 1305.52 Q157.674 1300.91 163.484 1300.91 Z" fill="#000000" fill-rule="nonzero" fill-opacity="1" /><path clip-path="url(#clip330)" d="M53.3921 1225.33 L83.0679 1225.33 L83.0679 1229.26 L53.3921 1229.26 L53.3921 1225.33 Z" fill="#000000" fill-rule="nonzero" fill-opacity="1" /><path clip-path="url(#clip330)" d="M93.9706 1238.22 L101.609 1238.22 L101.609 1211.86 L93.2993 1213.52 L93.2993 1209.26 L101.563 1207.6 L106.239 1207.6 L106.239 1238.22 L113.878 1238.22 L113.878 1242.16 L93.9706 1242.16 L93.9706 1238.22 Z" fill="#000000" fill-rule="nonzero" fill-opacity="1" /><path clip-path="url(#clip330)" d="M133.322 1210.68 Q129.711 1210.68 127.882 1214.24 Q126.077 1217.78 126.077 1224.91 Q126.077 1232.02 127.882 1235.58 Q129.711 1239.12 133.322 1239.12 Q136.956 1239.12 138.762 1235.58 Q140.591 1232.02 140.591 1224.91 Q140.591 1217.78 138.762 1214.24 Q136.956 1210.68 133.322 1210.68 M133.322 1206.97 Q139.132 1206.97 142.188 1211.58 Q145.267 1216.16 145.267 1224.91 Q145.267 1233.64 142.188 1238.24 Q139.132 1242.83 133.322 1242.83 Q127.512 1242.83 124.433 1238.24 Q121.378 1233.64 121.378 1224.91 Q121.378 1216.16 124.433 1211.58 Q127.512 1206.97 133.322 1206.97 Z" fill="#000000" fill-rule="nonzero" fill-opacity="1" /><path clip-path="url(#clip330)" d="M163.484 1210.68 Q159.873 1210.68 158.044 1214.24 Q156.239 1217.78 156.239 1224.91 Q156.239 1232.02 158.044 1235.58 Q159.873 1239.12 163.484 1239.12 Q167.118 1239.12 168.924 1235.58 Q170.753 1232.02 170.753 1224.91 Q170.753 1217.78 168.924 1214.24 Q167.118 1210.68 163.484 1210.68 M163.484 1206.97 Q169.294 1206.97 172.35 1211.58 Q175.429 1216.16 175.429 1224.91 Q175.429 1233.64 172.35 1238.24 Q169.294 1242.83 163.484 1242.83 Q157.674 1242.83 154.595 1238.24 Q151.54 1233.64 151.54 1224.91 Q151.54 1216.16 154.595 1211.58 Q157.674 1206.97 163.484 1206.97 Z" fill="#000000" fill-rule="nonzero" fill-opacity="1" /><path clip-path="url(#clip330)" d="M163.484 1116.74 Q159.873 1116.74 158.044 1120.3 Q156.239 1123.84 156.239 1130.97 Q156.239 1138.08 158.044 1141.65 Q159.873 1145.19 163.484 1145.19 Q167.118 1145.19 168.924 1141.65 Q170.753 1138.08 170.753 1130.97 Q170.753 1123.84 168.924 1120.3 Q167.118 1116.74 163.484 1116.74 M163.484 1113.03 Q169.294 1113.03 172.35 1117.64 Q175.429 1122.22 175.429 1130.97 Q175.429 1139.7 172.35 1144.31 Q169.294 1148.89 163.484 1148.89 Q157.674 1148.89 154.595 1144.31 Q151.54 1139.7 151.54 1130.97 Q151.54 1122.22 154.595 1117.64 Q157.674 1113.03 163.484 1113.03 Z" fill="#000000" fill-rule="nonzero" fill-opacity="1" /><path clip-path="url(#clip330)" d="M93.9706 1050.35 L101.609 1050.35 L101.609 1023.98 L93.2993 1025.65 L93.2993 1021.39 L101.563 1019.72 L106.239 1019.72 L106.239 1050.35 L113.878 1050.35 L113.878 1054.28 L93.9706 1054.28 L93.9706 1050.35 Z" fill="#000000" fill-rule="nonzero" fill-opacity="1" /><path clip-path="url(#clip330)" d="M133.322 1022.8 Q129.711 1022.8 127.882 1026.36 Q126.077 1029.91 126.077 1037.04 Q126.077 1044.14 127.882 1047.71 Q129.711 1051.25 133.322 1051.25 Q136.956 1051.25 138.762 1047.71 Q140.591 1044.14 140.591 1037.04 Q140.591 1029.91 138.762 1026.36 Q136.956 1022.8 133.322 1022.8 M133.322 1019.1 Q139.132 1019.1 142.188 1023.7 Q145.267 1028.29 145.267 1037.04 Q145.267 1045.76 142.188 1050.37 Q139.132 1054.95 133.322 1054.95 Q127.512 1054.95 124.433 1050.37 Q121.378 1045.76 121.378 1037.04 Q121.378 1028.29 124.433 1023.7 Q127.512 1019.1 133.322 1019.1 Z" fill="#000000" fill-rule="nonzero" fill-opacity="1" /><path clip-path="url(#clip330)" d="M163.484 1022.8 Q159.873 1022.8 158.044 1026.36 Q156.239 1029.91 156.239 1037.04 Q156.239 1044.14 158.044 1047.71 Q159.873 1051.25 163.484 1051.25 Q167.118 1051.25 168.924 1047.71 Q170.753 1044.14 170.753 1037.04 Q170.753 1029.91 168.924 1026.36 Q167.118 1022.8 163.484 1022.8 M163.484 1019.1 Q169.294 1019.1 172.35 1023.7 Q175.429 1028.29 175.429 1037.04 Q175.429 1045.76 172.35 1050.37 Q169.294 1054.95 163.484 1054.95 Q157.674 1054.95 154.595 1050.37 Q151.54 1045.76 151.54 1037.04 Q151.54 1028.29 154.595 1023.7 Q157.674 1019.1 163.484 1019.1 Z" fill="#000000" fill-rule="nonzero" fill-opacity="1" /><path clip-path="url(#clip330)" d="M97.1882 956.408 L113.508 956.408 L113.508 960.343 L91.5632 960.343 L91.5632 956.408 Q94.2252 953.654 98.8085 949.024 Q103.415 944.371 104.596 943.029 Q106.841 940.506 107.721 938.769 Q108.623 937.01 108.623 935.32 Q108.623 932.566 106.679 930.83 Q104.758 929.094 101.656 929.094 Q99.4567 929.094 97.003 929.857 Q94.5725 930.621 91.7947 932.172 L91.7947 927.45 Q94.6188 926.316 97.0724 925.737 Q99.5261 925.158 101.563 925.158 Q106.934 925.158 110.128 927.844 Q113.322 930.529 113.322 935.019 Q113.322 937.149 112.512 939.07 Q111.725 940.968 109.619 943.561 Q109.04 944.232 105.938 947.45 Q102.836 950.644 97.1882 956.408 Z" fill="#000000" fill-rule="nonzero" fill-opacity="1" /><path clip-path="url(#clip330)" d="M133.322 928.862 Q129.711 928.862 127.882 932.427 Q126.077 935.968 126.077 943.098 Q126.077 950.205 127.882 953.769 Q129.711 957.311 133.322 957.311 Q136.956 957.311 138.762 953.769 Q140.591 950.205 140.591 943.098 Q140.591 935.968 138.762 932.427 Q136.956 928.862 133.322 928.862 M133.322 925.158 Q139.132 925.158 142.188 929.765 Q145.267 934.348 145.267 943.098 Q145.267 951.825 142.188 956.431 Q139.132 961.015 133.322 961.015 Q127.512 961.015 124.433 956.431 Q121.378 951.825 121.378 943.098 Q121.378 934.348 124.433 929.765 Q127.512 925.158 133.322 925.158 Z" fill="#000000" fill-rule="nonzero" fill-opacity="1" /><path clip-path="url(#clip330)" d="M163.484 928.862 Q159.873 928.862 158.044 932.427 Q156.239 935.968 156.239 943.098 Q156.239 950.205 158.044 953.769 Q159.873 957.311 163.484 957.311 Q167.118 957.311 168.924 953.769 Q170.753 950.205 170.753 943.098 Q170.753 935.968 168.924 932.427 Q167.118 928.862 163.484 928.862 M163.484 925.158 Q169.294 925.158 172.35 929.765 Q175.429 934.348 175.429 943.098 Q175.429 951.825 172.35 956.431 Q169.294 961.015 163.484 961.015 Q157.674 961.015 154.595 956.431 Q151.54 951.825 151.54 943.098 Q151.54 934.348 154.595 929.765 Q157.674 925.158 163.484 925.158 Z" fill="#000000" fill-rule="nonzero" fill-opacity="1" /><path clip-path="url(#clip330)" d="M813.849 786.821 L813.849 833.851 L823.734 833.851 Q836.251 833.851 842.044 828.18 Q847.877 822.509 847.877 810.275 Q847.877 798.123 842.044 792.492 Q836.251 786.821 823.734 786.821 L813.849 786.821 M805.666 780.096 L822.478 780.096 Q840.059 780.096 848.282 787.428 Q856.505 794.72 856.505 810.275 Q856.505 825.912 848.241 833.244 Q839.978 840.576 822.478 840.576 L805.666 840.576 L805.666 780.096 Z" fill="#000000" fill-rule="nonzero" fill-opacity="1" /><path clip-path="url(#clip330)" d="M869.549 780.096 L877.732 780.096 L877.732 833.689 L907.182 833.689 L907.182 840.576 L869.549 840.576 L869.549 780.096 Z" fill="#000000" fill-rule="nonzero" fill-opacity="1" /><path clip-path="url(#clip330)" d="M942.141 780.096 L954.335 780.096 L969.769 821.253 L985.284 780.096 L997.477 780.096 L997.477 840.576 L989.497 840.576 L989.497 787.469 L973.901 828.95 L965.677 828.95 L950.081 787.469 L950.081 840.576 L942.141 840.576 L942.141 780.096 Z" fill="#000000" fill-rule="nonzero" fill-opacity="1" /><path clip-path="url(#clip330)" d="M1030.98 800.432 Q1024.98 800.432 1021.5 805.131 Q1018.01 809.789 1018.01 817.931 Q1018.01 826.074 1021.46 830.773 Q1024.94 835.431 1030.98 835.431 Q1036.93 835.431 1040.42 830.732 Q1043.9 826.033 1043.9 817.931 Q1043.9 809.87 1040.42 805.171 Q1036.93 800.432 1030.98 800.432 M1030.98 794.112 Q1040.7 794.112 1046.25 800.432 Q1051.8 806.751 1051.8 817.931 Q1051.8 829.071 1046.25 835.431 Q1040.7 841.751 1030.98 841.751 Q1021.22 841.751 1015.67 835.431 Q1010.16 829.071 1010.16 817.931 Q1010.16 806.751 1015.67 800.432 Q1021.22 794.112 1030.98 794.112 Z" fill="#000000" fill-rule="nonzero" fill-opacity="1" /><path clip-path="url(#clip330)" d="M1099.48 803.915 Q1102.27 798.892 1106.16 796.502 Q1110.05 794.112 1115.32 794.112 Q1122.41 794.112 1126.26 799.095 Q1130.1 804.037 1130.1 813.192 L1130.1 840.576 L1122.61 840.576 L1122.61 813.435 Q1122.61 806.913 1120.3 803.753 Q1117.99 800.594 1113.25 800.594 Q1107.46 800.594 1104.1 804.442 Q1100.73 808.29 1100.73 814.934 L1100.73 840.576 L1093.24 840.576 L1093.24 813.435 Q1093.24 806.872 1090.93 803.753 Q1088.62 800.594 1083.8 800.594 Q1078.09 800.594 1074.73 804.482 Q1071.37 808.331 1071.37 814.934 L1071.37 840.576 L1063.87 840.576 L1063.87 795.206 L1071.37 795.206 L1071.37 802.254 Q1073.92 798.082 1077.48 796.097 Q1081.05 794.112 1085.95 794.112 Q1090.89 794.112 1094.33 796.624 Q1097.82 799.135 1099.48 803.915 Z" fill="#000000" fill-rule="nonzero" fill-opacity="1" /><path clip-path="url(#clip330)" d="M1183.78 816.028 L1183.78 819.673 L1149.51 819.673 Q1149.99 827.37 1154.13 831.421 Q1158.3 835.431 1165.71 835.431 Q1170 835.431 1174.02 834.378 Q1178.07 833.325 1182.04 831.218 L1182.04 838.267 Q1178.03 839.968 1173.81 840.86 Q1169.6 841.751 1165.27 841.751 Q1154.41 841.751 1148.05 835.431 Q1141.73 829.112 1141.73 818.337 Q1141.73 807.197 1147.72 800.675 Q1153.76 794.112 1163.97 794.112 Q1173.12 794.112 1178.43 800.026 Q1183.78 805.9 1183.78 816.028 M1176.32 813.84 Q1176.24 807.723 1172.88 804.077 Q1169.56 800.432 1164.05 800.432 Q1157.81 800.432 1154.04 803.956 Q1150.32 807.48 1149.75 813.881 L1176.32 813.84 Z" fill="#000000" fill-rule="nonzero" fill-opacity="1" /><path clip-path="url(#clip330)" d="M1233.73 813.192 L1233.73 840.576 L1226.27 840.576 L1226.27 813.435 Q1226.27 806.994 1223.76 803.794 Q1221.25 800.594 1216.23 800.594 Q1210.19 800.594 1206.71 804.442 Q1203.22 808.29 1203.22 814.934 L1203.22 840.576 L1195.73 840.576 L1195.73 795.206 L1203.22 795.206 L1203.22 802.254 Q1205.9 798.163 1209.5 796.138 Q1213.15 794.112 1217.89 794.112 Q1225.7 794.112 1229.72 798.973 Q1233.73 803.794 1233.73 813.192 Z" fill="#000000" fill-rule="nonzero" fill-opacity="1" /><path clip-path="url(#clip330)" d="M1255.97 782.324 L1255.97 795.206 L1271.32 795.206 L1271.32 800.999 L1255.97 800.999 L1255.97 825.628 Q1255.97 831.178 1257.46 832.758 Q1259 834.338 1263.66 834.338 L1271.32 834.338 L1271.32 840.576 L1263.66 840.576 Q1255.03 840.576 1251.75 837.376 Q1248.47 834.135 1248.47 825.628 L1248.47 800.999 L1243 800.999 L1243 795.206 L1248.47 795.206 L1248.47 782.324 L1255.97 782.324 Z" fill="#000000" fill-rule="nonzero" fill-opacity="1" /><path clip-path="url(#clip333)" d="M251.451 1130.94 L269.338 1131.22 L287.226 1131.88 L305.113 1133.1 L323 1134.79 L340.887 1200.73 L358.775 1267.24 L376.662 1334.22 L394.549 1401.67 L412.437 1358.74 L430.324 1316.28 L448.211 1274.29 L466.099 1232.86 L483.986 1191.81 L501.873 1151.23 L519.76 1111.21 L537.648 1071.57 L555.535 1032.49 L573.422 993.884 L591.31 955.745 L609.197 918.076 L627.084 954.148 L644.972 990.69 L662.859 1027.8 L680.746 1065.28 L698.633 1103.32 L716.521 1141.84 L734.408 1180.82 L752.295 1220.27 L770.183 1260.2 L788.07 1300.59 L805.957 1341.45 L823.845 1382.79 L841.732 1304.07 L859.619 1225.72 L877.507 1147.85 L895.394 1070.54 L913.281 1066.97 L931.168 1063.77 L949.056 1061.14 L966.943 1058.98 L984.83 1057.39 L1002.72 1056.16 L1020.6 1055.41 L1038.49 1055.23 L1056.38 1055.41 L1074.27 1056.16 L1092.15 1057.39 L1110.04 1058.98 L1127.93 1061.14 L1145.82 1063.77 L1163.7 1066.97 L1181.59 1070.54 L1199.48 1147.85 L1217.37 1225.72 L1235.25 1304.07 L1253.14 1382.79 L1271.03 1341.45 L1288.91 1300.59 L1306.8 1260.2 L1324.69 1220.27 L1342.58 1180.82 L1360.46 1141.84 L1378.35 1103.32 L1396.24 1065.28 L1414.13 1027.8 L1432.01 990.69 L1449.9 954.148 L1467.79 918.076 L1485.67 955.745 L1503.56 993.884 L1521.45 1032.49 L1539.34 1071.57 L1557.22 1111.21 L1575.11 1151.23 L1593 1191.81 L1610.89 1232.86 L1628.77 1274.29 L1646.66 1316.28 L1664.55 1358.74 L1682.44 1401.67 L1700.32 1334.22 L1718.21 1267.24 L1736.1 1200.73 L1753.98 1134.79 L1771.87 1133.1 L1789.76 1131.88 L1807.65 1131.22 L1825.53 1130.94 L1825.53 1130.94 L1807.65 1130.94 L1789.76 1130.94 L1771.87 1130.94 L1753.98 1130.94 L1736.1 1130.94 L1718.21 1130.94 L1700.32 1130.94 L1682.44 1130.94 L1664.55 1130.94 L1646.66 1130.94 L1628.77 1130.94 L1610.89 1130.94 L1593 1130.94 L1575.11 1130.94 L1557.22 1130.94 L1539.34 1130.94 L1521.45 1130.94 L1503.56 1130.94 L1485.67 1130.94 L1467.79 1130.94 L1449.9 1130.94 L1432.01 1130.94 L1414.13 1130.94 L1396.24 1130.94 L1378.35 1130.94 L1360.46 1130.94 L1342.58 1130.94 L1324.69 1130.94 L1306.8 1130.94 L1288.91 1130.94 L1271.03 1130.94 L1253.14 1130.94 L1235.25 1130.94 L1217.37 1130.94 L1199.48 1130.94 L1181.59 1130.94 L1163.7 1130.94 L1145.82 1130.94 L1127.93 1130.94 L1110.04 1130.94 L1092.15 1130.94 L1074.27 1130.94 L1056.38 1130.94 L1038.49 1130.94 L1020.6 1130.94 L1002.72 1130.94 L984.83 1130.94 L966.943 1130.94 L949.056 1130.94 L931.168 1130.94 L913.281 1130.94 L895.394 1130.94 L877.507 1130.94 L859.619 1130.94 L841.732 1130.94 L823.845 1130.94 L805.957 1130.94 L788.07 1130.94 L770.183 1130.94 L752.295 1130.94 L734.408 1130.94 L716.521 1130.94 L698.633 1130.94 L680.746 1130.94 L662.859 1130.94 L644.972 1130.94 L627.084 1130.94 L609.197 1130.94 L591.31 1130.94 L573.422 1130.94 L555.535 1130.94 L537.648 1130.94 L519.76 1130.94 L501.873 1130.94 L483.986 1130.94 L466.099 1130.94 L448.211 1130.94 L430.324 1130.94 L412.437 1130.94 L394.549 1130.94 L376.662 1130.94 L358.775 1130.94 L340.887 1130.94 L323 1130.94 L305.113 1130.94 L287.226 1130.94 L269.338 1130.94 L251.451 1130.94  Z" fill="#0000ff" fill-rule="evenodd" fill-opacity="0.5"/>
<polyline clip-path="url(#clip333)" style="stroke:#0000ff; stroke-linecap:round; stroke-linejoin:round; stroke-width:4; stroke-opacity:1; fill:none" points="251.451,1130.94 269.338,1131.22 287.226,1131.88 305.113,1133.1 323,1134.79 340.887,1200.73 358.775,1267.24 376.662,1334.22 394.549,1401.67 412.437,1358.74 430.324,1316.28 448.211,1274.29 466.099,1232.86 483.986,1191.81 501.873,1151.23 519.76,1111.21 537.648,1071.57 555.535,1032.49 573.422,993.884 591.31,955.745 609.197,918.076 627.084,954.148 644.972,990.69 662.859,1027.8 680.746,1065.28 698.633,1103.32 716.521,1141.84 734.408,1180.82 752.295,1220.27 770.183,1260.2 788.07,1300.59 805.957,1341.45 823.845,1382.79 841.732,1304.07 859.619,1225.72 877.507,1147.85 895.394,1070.54 913.281,1066.97 931.168,1063.77 949.056,1061.14 966.943,1058.98 984.83,1057.39 1002.72,1056.16 1020.6,1055.41 1038.49,1055.23 1056.38,1055.41 1074.27,1056.16 1092.15,1057.39 1110.04,1058.98 1127.93,1061.14 1145.82,1063.77 1163.7,1066.97 1181.59,1070.54 1199.48,1147.85 1217.37,1225.72 1235.25,1304.07 1253.14,1382.79 1271.03,1341.45 1288.91,1300.59 1306.8,1260.2 1324.69,1220.27 1342.58,1180.82 1360.46,1141.84 1378.35,1103.32 1396.24,1065.28 1414.13,1027.8 1432.01,990.69 1449.9,954.148 1467.79,918.076 1485.67,955.745 1503.56,993.884 1521.45,1032.49 1539.34,1071.57 1557.22,1111.21 1575.11,1151.23 1593,1191.81 1610.89,1232.86 1628.77,1274.29 1646.66,1316.28 1664.55,1358.74 1682.44,1401.67 1700.32,1334.22 1718.21,1267.24 1736.1,1200.73 1753.98,1134.79 1771.87,1133.1 1789.76,1131.88 1807.65,1131.22 1825.53,1130.94 "/>
</svg>
