<?xml version="1.0" encoding="utf-8"?>
<svg xmlns="http://www.w3.org/2000/svg" xmlns:xlink="http://www.w3.org/1999/xlink" width="721" height="400" viewBox="0 0 2884 1600">
<defs>
  <clipPath id="clip630">
    <rect x="0" y="0" width="2884" height="1600"/>
  </clipPath>
</defs>
<path clip-path="url(#clip630)" d="M0 1600 L2884 1600 L2884 0 L0 0  Z" fill="#ffffff" fill-rule="evenodd" fill-opacity="1"/>
<defs>
  <clipPath id="clip631">
    <rect x="576" y="0" width="2020" height="1600"/>
  </clipPath>
</defs>
<path clip-path="url(#clip630)" d="M213.869 692.248 L2405.23 692.248 L2405.23 113.322 L213.869 113.322  Z" fill="#ffffff" fill-rule="evenodd" fill-opacity="1"/>
<defs>
  <clipPath id="clip632">
    <rect x="213" y="113" width="2192" height="580"/>
  </clipPath>
</defs>
<polyline clip-path="url(#clip632)" style="stroke:#000000; stroke-linecap:round; stroke-linejoin:round; stroke-width:2; stroke-opacity:0.1; fill:none" points="275.888,692.248 275.888,113.322 "/>
<polyline clip-path="url(#clip632)" style="stroke:#000000; stroke-linecap:round; stroke-linejoin:round; stroke-width:2; stroke-opacity:0.1; fill:none" points="745.735,692.248 745.735,113.322 "/>
<polyline clip-path="url(#clip632)" style="stroke:#000000; stroke-linecap:round; stroke-linejoin:round; stroke-width:2; stroke-opacity:0.1; fill:none" points="1215.58,692.248 1215.58,113.322 "/>
<polyline clip-path="url(#clip632)" style="stroke:#000000; stroke-linecap:round; stroke-linejoin:round; stroke-width:2; stroke-opacity:0.1; fill:none" points="1685.43,692.248 1685.43,113.322 "/>
<polyline clip-path="url(#clip632)" style="stroke:#000000; stroke-linecap:round; stroke-linejoin:round; stroke-width:2; stroke-opacity:0.1; fill:none" points="2155.27,692.248 2155.27,113.322 "/>
<polyline clip-path="url(#clip632)" style="stroke:#000000; stroke-linecap:round; stroke-linejoin:round; stroke-width:2; stroke-opacity:0.1; fill:none" points="213.869,679.213 2405.23,679.213 "/>
<polyline clip-path="url(#clip632)" style="stroke:#000000; stroke-linecap:round; stroke-linejoin:round; stroke-width:2; stroke-opacity:0.1; fill:none" points="213.869,540.998 2405.23,540.998 "/>
<polyline clip-path="url(#clip632)" style="stroke:#000000; stroke-linecap:round; stroke-linejoin:round; stroke-width:2; stroke-opacity:0.1; fill:none" points="213.869,402.783 2405.23,402.783 "/>
<polyline clip-path="url(#clip632)" style="stroke:#000000; stroke-linecap:round; stroke-linejoin:round; stroke-width:2; stroke-opacity:0.1; fill:none" points="213.869,264.568 2405.23,264.568 "/>
<polyline clip-path="url(#clip632)" style="stroke:#000000; stroke-linecap:round; stroke-linejoin:round; stroke-width:2; stroke-opacity:0.1; fill:none" points="213.869,126.353 2405.23,126.353 "/>
<polyline clip-path="url(#clip630)" style="stroke:#000000; stroke-linecap:round; stroke-linejoin:round; stroke-width:4; stroke-opacity:1; fill:none" points="213.869,692.248 2405.23,692.248 "/>
<polyline clip-path="url(#clip630)" style="stroke:#000000; stroke-linecap:round; stroke-linejoin:round; stroke-width:4; stroke-opacity:1; fill:none" points="275.888,692.248 275.888,673.35 "/>
<polyline clip-path="url(#clip630)" style="stroke:#000000; stroke-linecap:round; stroke-linejoin:round; stroke-width:4; stroke-opacity:1; fill:none" points="745.735,692.248 745.735,673.35 "/>
<polyline clip-path="url(#clip630)" style="stroke:#000000; stroke-linecap:round; stroke-linejoin:round; stroke-width:4; stroke-opacity:1; fill:none" points="1215.58,692.248 1215.58,673.35 "/>
<polyline clip-path="url(#clip630)" style="stroke:#000000; stroke-linecap:round; stroke-linejoin:round; stroke-width:4; stroke-opacity:1; fill:none" points="1685.43,692.248 1685.43,673.35 "/>
<polyline clip-path="url(#clip630)" style="stroke:#000000; stroke-linecap:round; stroke-linejoin:round; stroke-width:4; stroke-opacity:1; fill:none" points="2155.27,692.248 2155.27,673.35 "/>
<path clip-path="url(#clip630)" d="M275.888 727.039 Q272.277 727.039 270.448 730.603 Q268.643 734.145 268.643 741.275 Q268.643 748.381 270.448 751.946 Q272.277 755.487 275.888 755.487 Q279.522 755.487 281.328 751.946 Q283.157 748.381 283.157 741.275 Q283.157 734.145 281.328 730.603 Q279.522 727.039 275.888 727.039 M275.888 723.335 Q281.698 723.335 284.754 727.941 Q287.833 732.525 287.833 741.275 Q287.833 750.001 284.754 754.608 Q281.698 759.191 275.888 759.191 Q270.078 759.191 266.999 754.608 Q263.944 750.001 263.944 741.275 Q263.944 732.525 266.999 727.941 Q270.078 723.335 275.888 723.335 Z" fill="#000000" fill-rule="nonzero" fill-opacity="1" /><path clip-path="url(#clip630)" d="M720.422 754.585 L728.061 754.585 L728.061 728.219 L719.751 729.886 L719.751 725.626 L728.015 723.96 L732.691 723.96 L732.691 754.585 L740.33 754.585 L740.33 758.52 L720.422 758.52 L720.422 754.585 Z" fill="#000000" fill-rule="nonzero" fill-opacity="1" /><path clip-path="url(#clip630)" d="M759.774 727.039 Q756.163 727.039 754.334 730.603 Q752.529 734.145 752.529 741.275 Q752.529 748.381 754.334 751.946 Q756.163 755.487 759.774 755.487 Q763.408 755.487 765.214 751.946 Q767.042 748.381 767.042 741.275 Q767.042 734.145 765.214 730.603 Q763.408 727.039 759.774 727.039 M759.774 723.335 Q765.584 723.335 768.64 727.941 Q771.718 732.525 771.718 741.275 Q771.718 750.001 768.64 754.608 Q765.584 759.191 759.774 759.191 Q753.964 759.191 750.885 754.608 Q747.83 750.001 747.83 741.275 Q747.83 732.525 750.885 727.941 Q753.964 723.335 759.774 723.335 Z" fill="#000000" fill-rule="nonzero" fill-opacity="1" /><path clip-path="url(#clip630)" d="M1194.35 754.585 L1210.67 754.585 L1210.67 758.52 L1188.73 758.52 L1188.73 754.585 Q1191.39 751.83 1195.97 747.2 Q1200.58 742.548 1201.76 741.205 Q1204.01 738.682 1204.89 736.946 Q1205.79 735.187 1205.79 733.497 Q1205.79 730.742 1203.85 729.006 Q1201.92 727.27 1198.82 727.27 Q1196.62 727.27 1194.17 728.034 Q1191.74 728.798 1188.96 730.349 L1188.96 725.626 Q1191.79 724.492 1194.24 723.914 Q1196.69 723.335 1198.73 723.335 Q1204.1 723.335 1207.29 726.02 Q1210.49 728.705 1210.49 733.196 Q1210.49 735.325 1209.68 737.247 Q1208.89 739.145 1206.78 741.738 Q1206.21 742.409 1203.1 745.626 Q1200 748.821 1194.35 754.585 Z" fill="#000000" fill-rule="nonzero" fill-opacity="1" /><path clip-path="url(#clip630)" d="M1230.49 727.039 Q1226.88 727.039 1225.05 730.603 Q1223.24 734.145 1223.24 741.275 Q1223.24 748.381 1225.05 751.946 Q1226.88 755.487 1230.49 755.487 Q1234.12 755.487 1235.93 751.946 Q1237.76 748.381 1237.76 741.275 Q1237.76 734.145 1235.93 730.603 Q1234.12 727.039 1230.49 727.039 M1230.49 723.335 Q1236.3 723.335 1239.35 727.941 Q1242.43 732.525 1242.43 741.275 Q1242.43 750.001 1239.35 754.608 Q1236.3 759.191 1230.49 759.191 Q1224.68 759.191 1221.6 754.608 Q1218.54 750.001 1218.54 741.275 Q1218.54 732.525 1221.6 727.941 Q1224.68 723.335 1230.49 723.335 Z" fill="#000000" fill-rule="nonzero" fill-opacity="1" /><path clip-path="url(#clip630)" d="M1674.27 739.886 Q1677.63 740.603 1679.5 742.872 Q1681.4 745.14 1681.4 748.474 Q1681.4 753.589 1677.88 756.39 Q1674.36 759.191 1667.88 759.191 Q1665.71 759.191 1663.39 758.751 Q1661.1 758.335 1658.65 757.478 L1658.65 752.964 Q1660.59 754.099 1662.9 754.677 Q1665.22 755.256 1667.74 755.256 Q1672.14 755.256 1674.43 753.52 Q1676.75 751.784 1676.75 748.474 Q1676.75 745.418 1674.59 743.705 Q1672.46 741.969 1668.65 741.969 L1664.62 741.969 L1664.62 738.126 L1668.83 738.126 Q1672.28 738.126 1674.11 736.761 Q1675.94 735.372 1675.94 732.779 Q1675.94 730.117 1674.04 728.705 Q1672.16 727.27 1668.65 727.27 Q1666.72 727.27 1664.53 727.687 Q1662.33 728.103 1659.69 728.983 L1659.69 724.816 Q1662.35 724.076 1664.66 723.705 Q1667 723.335 1669.06 723.335 Q1674.39 723.335 1677.49 725.765 Q1680.59 728.173 1680.59 732.293 Q1680.59 735.163 1678.95 737.154 Q1677.3 739.122 1674.27 739.886 Z" fill="#000000" fill-rule="nonzero" fill-opacity="1" /><path clip-path="url(#clip630)" d="M1700.27 727.039 Q1696.65 727.039 1694.83 730.603 Q1693.02 734.145 1693.02 741.275 Q1693.02 748.381 1694.83 751.946 Q1696.65 755.487 1700.27 755.487 Q1703.9 755.487 1705.71 751.946 Q1707.53 748.381 1707.53 741.275 Q1707.53 734.145 1705.71 730.603 Q1703.9 727.039 1700.27 727.039 M1700.27 723.335 Q1706.08 723.335 1709.13 727.941 Q1712.21 732.525 1712.21 741.275 Q1712.21 750.001 1709.13 754.608 Q1706.08 759.191 1700.27 759.191 Q1694.46 759.191 1691.38 754.608 Q1688.32 750.001 1688.32 741.275 Q1688.32 732.525 1691.38 727.941 Q1694.46 723.335 1700.27 723.335 Z" fill="#000000" fill-rule="nonzero" fill-opacity="1" /><path clip-path="url(#clip630)" d="M2143.45 728.034 L2131.64 746.483 L2143.45 746.483 L2143.45 728.034 M2142.22 723.96 L2148.1 723.96 L2148.1 746.483 L2153.03 746.483 L2153.03 750.372 L2148.1 750.372 L2148.1 758.52 L2143.45 758.52 L2143.45 750.372 L2127.84 750.372 L2127.84 745.858 L2142.22 723.96 Z" fill="#000000" fill-rule="nonzero" fill-opacity="1" /><path clip-path="url(#clip630)" d="M2170.76 727.039 Q2167.15 727.039 2165.32 730.603 Q2163.51 734.145 2163.51 741.275 Q2163.51 748.381 2165.32 751.946 Q2167.15 755.487 2170.76 755.487 Q2174.39 755.487 2176.2 751.946 Q2178.03 748.381 2178.03 741.275 Q2178.03 734.145 2176.2 730.603 Q2174.39 727.039 2170.76 727.039 M2170.76 723.335 Q2176.57 723.335 2179.63 727.941 Q2182.7 732.525 2182.7 741.275 Q2182.7 750.001 2179.63 754.608 Q2176.57 759.191 2170.76 759.191 Q2164.95 759.191 2161.87 754.608 Q2158.82 750.001 2158.82 741.275 Q2158.82 732.525 2161.87 727.941 Q2164.95 723.335 2170.76 723.335 Z" fill="#000000" fill-rule="nonzero" fill-opacity="1" /><polyline clip-path="url(#clip630)" style="stroke:#000000; stroke-linecap:round; stroke-linejoin:round; stroke-width:4; stroke-opacity:1; fill:none" points="213.869,692.248 213.869,113.322 "/>
<polyline clip-path="url(#clip630)" style="stroke:#000000; stroke-linecap:round; stroke-linejoin:round; stroke-width:4; stroke-opacity:1; fill:none" points="213.869,679.213 229.657,679.213 "/>
<polyline clip-path="url(#clip630)" style="stroke:#000000; stroke-linecap:round; stroke-linejoin:round; stroke-width:4; stroke-opacity:1; fill:none" points="213.869,540.998 229.657,540.998 "/>
<polyline clip-path="url(#clip630)" style="stroke:#000000; stroke-linecap:round; stroke-linejoin:round; stroke-width:4; stroke-opacity:1; fill:none" points="213.869,402.783 229.657,402.783 "/>
<polyline clip-path="url(#clip630)" style="stroke:#000000; stroke-linecap:round; stroke-linejoin:round; stroke-width:4; stroke-opacity:1; fill:none" points="213.869,264.568 229.657,264.568 "/>
<polyline clip-path="url(#clip630)" style="stroke:#000000; stroke-linecap:round; stroke-linejoin:round; stroke-width:4; stroke-opacity:1; fill:none" points="213.869,126.353 229.657,126.353 "/>
<path clip-path="url(#clip630)" d="M48.5721 679.664 L78.2479 679.664 L78.2479 683.599 L48.5721 683.599 L48.5721 679.664 Z" fill="#000000" fill-rule="nonzero" fill-opacity="1" /><path clip-path="url(#clip630)" d="M101.188 666.007 L89.3821 684.456 L101.188 684.456 L101.188 666.007 M99.9607 661.933 L105.84 661.933 L105.84 684.456 L110.771 684.456 L110.771 688.345 L105.84 688.345 L105.84 696.493 L101.188 696.493 L101.188 688.345 L85.5858 688.345 L85.5858 683.831 L99.9607 661.933 Z" fill="#000000" fill-rule="nonzero" fill-opacity="1" /><path clip-path="url(#clip630)" d="M128.502 665.012 Q124.891 665.012 123.062 668.576 Q121.257 672.118 121.257 679.248 Q121.257 686.354 123.062 689.919 Q124.891 693.46 128.502 693.46 Q132.136 693.46 133.942 689.919 Q135.771 686.354 135.771 679.248 Q135.771 672.118 133.942 668.576 Q132.136 665.012 128.502 665.012 M128.502 661.308 Q134.312 661.308 137.368 665.914 Q140.447 670.498 140.447 679.248 Q140.447 687.974 137.368 692.581 Q134.312 697.164 128.502 697.164 Q122.692 697.164 119.613 692.581 Q116.558 687.974 116.558 679.248 Q116.558 670.498 119.613 665.914 Q122.692 661.308 128.502 661.308 Z" fill="#000000" fill-rule="nonzero" fill-opacity="1" /><path clip-path="url(#clip630)" d="M158.664 665.012 Q155.053 665.012 153.224 668.576 Q151.419 672.118 151.419 679.248 Q151.419 686.354 153.224 689.919 Q155.053 693.46 158.664 693.46 Q162.298 693.46 164.104 689.919 Q165.933 686.354 165.933 679.248 Q165.933 672.118 164.104 668.576 Q162.298 665.012 158.664 665.012 M158.664 661.308 Q164.474 661.308 167.53 665.914 Q170.609 670.498 170.609 679.248 Q170.609 687.974 167.53 692.581 Q164.474 697.164 158.664 697.164 Q152.854 697.164 149.775 692.581 Q146.72 687.974 146.72 679.248 Q146.72 670.498 149.775 665.914 Q152.854 661.308 158.664 661.308 Z" fill="#000000" fill-rule="nonzero" fill-opacity="1" /><path clip-path="url(#clip630)" d="M48.5721 541.449 L78.2479 541.449 L78.2479 545.384 L48.5721 545.384 L48.5721 541.449 Z" fill="#000000" fill-rule="nonzero" fill-opacity="1" /><path clip-path="url(#clip630)" d="M92.3682 554.343 L108.688 554.343 L108.688 558.278 L86.7432 558.278 L86.7432 554.343 Q89.4052 551.588 93.9885 546.958 Q98.595 542.306 99.7756 540.963 Q102.021 538.44 102.901 536.704 Q103.803 534.945 103.803 533.255 Q103.803 530.5 101.859 528.764 Q99.9376 527.028 96.8358 527.028 Q94.6367 527.028 92.183 527.792 Q89.7525 528.556 86.9747 530.107 L86.9747 525.385 Q89.7988 524.25 92.2524 523.672 Q94.7061 523.093 96.7432 523.093 Q102.114 523.093 105.308 525.778 Q108.502 528.463 108.502 532.954 Q108.502 535.084 107.692 537.005 Q106.905 538.903 104.799 541.496 Q104.22 542.167 101.118 545.384 Q98.0163 548.579 92.3682 554.343 Z" fill="#000000" fill-rule="nonzero" fill-opacity="1" /><path clip-path="url(#clip630)" d="M128.502 526.797 Q124.891 526.797 123.062 530.361 Q121.257 533.903 121.257 541.033 Q121.257 548.139 123.062 551.704 Q124.891 555.245 128.502 555.245 Q132.136 555.245 133.942 551.704 Q135.771 548.139 135.771 541.033 Q135.771 533.903 133.942 530.361 Q132.136 526.797 128.502 526.797 M128.502 523.093 Q134.312 523.093 137.368 527.699 Q140.447 532.283 140.447 541.033 Q140.447 549.759 137.368 554.366 Q134.312 558.949 128.502 558.949 Q122.692 558.949 119.613 554.366 Q116.558 549.759 116.558 541.033 Q116.558 532.283 119.613 527.699 Q122.692 523.093 128.502 523.093 Z" fill="#000000" fill-rule="nonzero" fill-opacity="1" /><path clip-path="url(#clip630)" d="M158.664 526.797 Q155.053 526.797 153.224 530.361 Q151.419 533.903 151.419 541.033 Q151.419 548.139 153.224 551.704 Q155.053 555.245 158.664 555.245 Q162.298 555.245 164.104 551.704 Q165.933 548.139 165.933 541.033 Q165.933 533.903 164.104 530.361 Q162.298 526.797 158.664 526.797 M158.664 523.093 Q164.474 523.093 167.53 527.699 Q170.609 532.283 170.609 541.033 Q170.609 549.759 167.53 554.366 Q164.474 558.949 158.664 558.949 Q152.854 558.949 149.775 554.366 Q146.72 549.759 146.72 541.033 Q146.72 532.283 149.775 527.699 Q152.854 523.093 158.664 523.093 Z" fill="#000000" fill-rule="nonzero" fill-opacity="1" /><path clip-path="url(#clip630)" d="M158.664 388.582 Q155.053 388.582 153.224 392.146 Q151.419 395.688 151.419 402.818 Q151.419 409.924 153.224 413.489 Q155.053 417.031 158.664 417.031 Q162.298 417.031 164.104 413.489 Q165.933 409.924 165.933 402.818 Q165.933 395.688 164.104 392.146 Q162.298 388.582 158.664 388.582 M158.664 384.878 Q164.474 384.878 167.53 389.484 Q170.609 394.068 170.609 402.818 Q170.609 411.544 167.53 416.151 Q164.474 420.734 158.664 420.734 Q152.854 420.734 149.775 416.151 Q146.72 411.544 146.72 402.818 Q146.72 394.068 149.775 389.484 Q152.854 384.878 158.664 384.878 Z" fill="#000000" fill-rule="nonzero" fill-opacity="1" /><path clip-path="url(#clip630)" d="M92.3682 277.913 L108.688 277.913 L108.688 281.848 L86.7432 281.848 L86.7432 277.913 Q89.4052 275.158 93.9885 270.529 Q98.595 265.876 99.7756 264.533 Q102.021 262.01 102.901 260.274 Q103.803 258.515 103.803 256.825 Q103.803 254.07 101.859 252.334 Q99.9376 250.598 96.8358 250.598 Q94.6367 250.598 92.183 251.362 Q89.7525 252.126 86.9747 253.677 L86.9747 248.955 Q89.7988 247.82 92.2524 247.242 Q94.7061 246.663 96.7432 246.663 Q102.114 246.663 105.308 249.348 Q108.502 252.033 108.502 256.524 Q108.502 258.654 107.692 260.575 Q106.905 262.473 104.799 265.066 Q104.22 265.737 101.118 268.955 Q98.0163 272.149 92.3682 277.913 Z" fill="#000000" fill-rule="nonzero" fill-opacity="1" /><path clip-path="url(#clip630)" d="M128.502 250.367 Q124.891 250.367 123.062 253.931 Q121.257 257.473 121.257 264.603 Q121.257 271.709 123.062 275.274 Q124.891 278.816 128.502 278.816 Q132.136 278.816 133.942 275.274 Q135.771 271.709 135.771 264.603 Q135.771 257.473 133.942 253.931 Q132.136 250.367 128.502 250.367 M128.502 246.663 Q134.312 246.663 137.368 251.269 Q140.447 255.853 140.447 264.603 Q140.447 273.33 137.368 277.936 Q134.312 282.519 128.502 282.519 Q122.692 282.519 119.613 277.936 Q116.558 273.33 116.558 264.603 Q116.558 255.853 119.613 251.269 Q122.692 246.663 128.502 246.663 Z" fill="#000000" fill-rule="nonzero" fill-opacity="1" /><path clip-path="url(#clip630)" d="M158.664 250.367 Q155.053 250.367 153.224 253.931 Q151.419 257.473 151.419 264.603 Q151.419 271.709 153.224 275.274 Q155.053 278.816 158.664 278.816 Q162.298 278.816 164.104 275.274 Q165.933 271.709 165.933 264.603 Q165.933 257.473 164.104 253.931 Q162.298 250.367 158.664 250.367 M158.664 246.663 Q164.474 246.663 167.53 251.269 Q170.609 255.853 170.609 264.603 Q170.609 273.33 167.53 277.936 Q164.474 282.519 158.664 282.519 Q152.854 282.519 149.775 277.936 Q146.72 273.33 146.72 264.603 Q146.72 255.853 149.775 251.269 Q152.854 246.663 158.664 246.663 Z" fill="#000000" fill-rule="nonzero" fill-opacity="1" /><path clip-path="url(#clip630)" d="M101.188 113.147 L89.3821 131.596 L101.188 131.596 L101.188 113.147 M99.9607 109.073 L105.84 109.073 L105.84 131.596 L110.771 131.596 L110.771 135.485 L105.84 135.485 L105.84 143.633 L101.188 143.633 L101.188 135.485 L85.5858 135.485 L85.5858 130.971 L99.9607 109.073 Z" fill="#000000" fill-rule="nonzero" fill-opacity="1" /><path clip-path="url(#clip630)" d="M128.502 112.152 Q124.891 112.152 123.062 115.717 Q121.257 119.258 121.257 126.388 Q121.257 133.494 123.062 137.059 Q124.891 140.601 128.502 140.601 Q132.136 140.601 133.942 137.059 Q135.771 133.494 135.771 126.388 Q135.771 119.258 133.942 115.717 Q132.136 112.152 128.502 112.152 M128.502 108.448 Q134.312 108.448 137.368 113.055 Q140.447 117.638 140.447 126.388 Q140.447 135.115 137.368 139.721 Q134.312 144.304 128.502 144.304 Q122.692 144.304 119.613 139.721 Q116.558 135.115 116.558 126.388 Q116.558 117.638 119.613 113.055 Q122.692 108.448 128.502 108.448 Z" fill="#000000" fill-rule="nonzero" fill-opacity="1" /><path clip-path="url(#clip630)" d="M158.664 112.152 Q155.053 112.152 153.224 115.717 Q151.419 119.258 151.419 126.388 Q151.419 133.494 153.224 137.059 Q155.053 140.601 158.664 140.601 Q162.298 140.601 164.104 137.059 Q165.933 133.494 165.933 126.388 Q165.933 119.258 164.104 115.717 Q162.298 112.152 158.664 112.152 M158.664 108.448 Q164.474 108.448 167.53 113.055 Q170.609 117.638 170.609 126.388 Q170.609 135.115 167.53 139.721 Q164.474 144.304 158.664 144.304 Q152.854 144.304 149.775 139.721 Q146.72 135.115 146.72 126.388 Q146.72 117.638 149.775 113.055 Q152.854 108.448 158.664 108.448 Z" fill="#000000" fill-rule="nonzero" fill-opacity="1" /><path clip-path="url(#clip630)" d="M767.074 12.096 L779.267 12.096 L794.701 53.2532 L810.216 12.096 L822.409 12.096 L822.409 72.576 L814.429 72.576 L814.429 19.4686 L798.833 60.9499 L790.609 60.9499 L775.013 19.4686 L775.013 72.576 L767.074 72.576 L767.074 12.096 Z" fill="#000000" fill-rule="nonzero" fill-opacity="1" /><path clip-path="url(#clip630)" d="M858.948 49.7694 Q849.915 49.7694 846.431 51.8354 Q842.947 53.9013 842.947 58.8839 Q842.947 62.8538 845.54 65.2034 Q848.173 67.5124 852.669 67.5124 Q858.867 67.5124 862.594 63.1374 Q866.361 58.7219 866.361 51.4303 L866.361 49.7694 L858.948 49.7694 M873.815 46.6907 L873.815 72.576 L866.361 72.576 L866.361 65.6895 Q863.809 69.8214 860.001 71.8063 Q856.194 73.7508 850.684 73.7508 Q843.717 73.7508 839.585 69.8619 Q835.493 65.9325 835.493 59.3701 Q835.493 51.7138 840.598 47.825 Q845.742 43.9361 855.91 43.9361 L866.361 43.9361 L866.361 43.2069 Q866.361 38.0623 862.959 35.2672 Q859.596 32.4315 853.479 32.4315 Q849.591 32.4315 845.904 33.3632 Q842.218 34.295 838.815 36.1584 L838.815 29.2718 Q842.907 27.692 846.755 26.9223 Q850.603 26.1121 854.249 26.1121 Q864.093 26.1121 868.954 31.2163 Q873.815 36.3204 873.815 46.6907 Z" fill="#000000" fill-rule="nonzero" fill-opacity="1" /><path clip-path="url(#clip630)" d="M926.882 27.2059 L910.476 49.2833 L927.733 72.576 L918.942 72.576 L905.736 54.752 L892.53 72.576 L883.74 72.576 L901.361 48.8377 L885.239 27.2059 L894.029 27.2059 L906.06 43.369 L918.091 27.2059 L926.882 27.2059 Z" fill="#000000" fill-rule="nonzero" fill-opacity="1" /><path clip-path="url(#clip630)" d="M1001.22 14.0809 L1001.22 22.0612 Q996.557 19.8332 992.425 18.7395 Q988.294 17.6457 984.445 17.6457 Q977.761 17.6457 974.115 20.2383 Q970.51 22.8309 970.51 27.611 Q970.51 31.6214 972.9 33.6873 Q975.331 35.7128 982.055 36.9686 L986.997 37.9813 Q996.152 39.7232 1000.49 44.1387 Q1004.86 48.5136 1004.86 55.8863 Q1004.86 64.6767 998.947 69.2137 Q993.074 73.7508 981.691 73.7508 Q977.397 73.7508 972.536 72.7785 Q967.715 71.8063 962.53 69.9024 L962.53 61.4765 Q967.512 64.2716 972.292 65.6895 Q977.073 67.1073 981.691 67.1073 Q988.699 67.1073 992.506 64.3527 Q996.314 61.598 996.314 56.4939 Q996.314 52.0379 993.56 49.5264 Q990.846 47.0148 984.607 45.759 L979.625 44.7868 Q970.47 42.9639 966.378 39.075 Q962.287 35.1862 962.287 28.2591 Q962.287 20.2383 967.917 15.6203 Q973.589 11.0023 983.513 11.0023 Q987.767 11.0023 992.182 11.7719 Q996.598 12.5416 1001.22 14.0809 Z" fill="#000000" fill-rule="nonzero" fill-opacity="1" /><path clip-path="url(#clip630)" d="M1055.01 45.1919 L1055.01 72.576 L1047.56 72.576 L1047.56 45.4349 Q1047.56 38.994 1045.05 35.7938 Q1042.54 32.5936 1037.51 32.5936 Q1031.48 32.5936 1027.99 36.4419 Q1024.51 40.2903 1024.51 46.9338 L1024.51 72.576 L1017.01 72.576 L1017.01 9.54393 L1024.51 9.54393 L1024.51 34.2544 Q1027.18 30.163 1030.79 28.1376 Q1034.43 26.1121 1039.17 26.1121 Q1046.99 26.1121 1051 30.9732 Q1055.01 35.7938 1055.01 45.1919 Z" fill="#000000" fill-rule="nonzero" fill-opacity="1" /><path clip-path="url(#clip630)" d="M1108.69 48.0275 L1108.69 51.6733 L1074.42 51.6733 Q1074.9 59.3701 1079.03 63.421 Q1083.21 67.4314 1090.62 67.4314 Q1094.91 67.4314 1098.92 66.3781 Q1102.97 65.3249 1106.94 63.2184 L1106.94 70.267 Q1102.93 71.9684 1098.72 72.8596 Q1094.51 73.7508 1090.17 73.7508 Q1079.32 73.7508 1072.96 67.4314 Q1066.64 61.1119 1066.64 50.3365 Q1066.64 39.1965 1072.63 32.6746 Q1078.67 26.1121 1088.88 26.1121 Q1098.03 26.1121 1103.34 32.0264 Q1108.69 37.9003 1108.69 48.0275 M1101.23 45.84 Q1101.15 39.7232 1097.79 36.0774 Q1094.47 32.4315 1088.96 32.4315 Q1082.72 32.4315 1078.95 35.9558 Q1075.23 39.4801 1074.66 45.8805 L1101.23 45.84 Z" fill="#000000" fill-rule="nonzero" fill-opacity="1" /><path clip-path="url(#clip630)" d="M1141.54 49.7694 Q1132.51 49.7694 1129.02 51.8354 Q1125.54 53.9013 1125.54 58.8839 Q1125.54 62.8538 1128.13 65.2034 Q1130.76 67.5124 1135.26 67.5124 Q1141.46 67.5124 1145.19 63.1374 Q1148.95 58.7219 1148.95 51.4303 L1148.95 49.7694 L1141.54 49.7694 M1156.41 46.6907 L1156.41 72.576 L1148.95 72.576 L1148.95 65.6895 Q1146.4 69.8214 1142.59 71.8063 Q1138.78 73.7508 1133.28 73.7508 Q1126.31 73.7508 1122.18 69.8619 Q1118.08 65.9325 1118.08 59.3701 Q1118.08 51.7138 1123.19 47.825 Q1128.33 43.9361 1138.5 43.9361 L1148.95 43.9361 L1148.95 43.2069 Q1148.95 38.0623 1145.55 35.2672 Q1142.19 32.4315 1136.07 32.4315 Q1132.18 32.4315 1128.5 33.3632 Q1124.81 34.295 1121.41 36.1584 L1121.41 29.2718 Q1125.5 27.692 1129.35 26.9223 Q1133.19 26.1121 1136.84 26.1121 Q1146.68 26.1121 1151.54 31.2163 Q1156.41 36.3204 1156.41 46.6907 Z" fill="#000000" fill-rule="nonzero" fill-opacity="1" /><path clip-path="url(#clip630)" d="M1198.05 34.1734 Q1196.79 33.4443 1195.29 33.1202 Q1193.84 32.7556 1192.05 32.7556 Q1185.73 32.7556 1182.33 36.8875 Q1178.97 40.9789 1178.97 48.6757 L1178.97 72.576 L1171.48 72.576 L1171.48 27.2059 L1178.97 27.2059 L1178.97 34.2544 Q1181.32 30.1225 1185.09 28.1376 Q1188.85 26.1121 1194.24 26.1121 Q1195.01 26.1121 1195.94 26.2337 Q1196.87 26.3147 1198.01 26.5172 L1198.05 34.1734 Z" fill="#000000" fill-rule="nonzero" fill-opacity="1" /><path clip-path="url(#clip630)" d="M1232.56 12.096 L1270.8 12.096 L1270.8 18.9825 L1240.75 18.9825 L1240.75 36.8875 L1269.55 36.8875 L1269.55 43.7741 L1240.75 43.7741 L1240.75 65.6895 L1271.53 65.6895 L1271.53 72.576 L1232.56 72.576 L1232.56 12.096 Z" fill="#000000" fill-rule="nonzero" fill-opacity="1" /><path clip-path="url(#clip630)" d="M1322.37 45.1919 L1322.37 72.576 L1314.92 72.576 L1314.92 45.4349 Q1314.92 38.994 1312.41 35.7938 Q1309.89 32.5936 1304.87 32.5936 Q1298.84 32.5936 1295.35 36.4419 Q1291.87 40.2903 1291.87 46.9338 L1291.87 72.576 L1284.37 72.576 L1284.37 27.2059 L1291.87 27.2059 L1291.87 34.2544 Q1294.54 30.163 1298.15 28.1376 Q1301.79 26.1121 1306.53 26.1121 Q1314.35 26.1121 1318.36 30.9732 Q1322.37 35.7938 1322.37 45.1919 Z" fill="#000000" fill-rule="nonzero" fill-opacity="1" /><path clip-path="url(#clip630)" d="M1331.89 27.2059 L1339.79 27.2059 L1353.97 65.2844 L1368.15 27.2059 L1376.05 27.2059 L1359.03 72.576 L1348.91 72.576 L1331.89 27.2059 Z" fill="#000000" fill-rule="nonzero" fill-opacity="1" /><path clip-path="url(#clip630)" d="M1425.14 48.0275 L1425.14 51.6733 L1390.87 51.6733 Q1391.36 59.3701 1395.49 63.421 Q1399.66 67.4314 1407.08 67.4314 Q1411.37 67.4314 1415.38 66.3781 Q1419.43 65.3249 1423.4 63.2184 L1423.4 70.267 Q1419.39 71.9684 1415.18 72.8596 Q1410.96 73.7508 1406.63 73.7508 Q1395.77 73.7508 1389.41 67.4314 Q1383.09 61.1119 1383.09 50.3365 Q1383.09 39.1965 1389.09 32.6746 Q1395.13 26.1121 1405.33 26.1121 Q1414.49 26.1121 1419.8 32.0264 Q1425.14 37.9003 1425.14 48.0275 M1417.69 45.84 Q1417.61 39.7232 1414.25 36.0774 Q1410.92 32.4315 1405.42 32.4315 Q1399.18 32.4315 1395.41 35.9558 Q1391.68 39.4801 1391.12 45.8805 L1417.69 45.84 Z" fill="#000000" fill-rule="nonzero" fill-opacity="1" /><path clip-path="url(#clip630)" d="M1437.38 9.54393 L1444.83 9.54393 L1444.83 72.576 L1437.38 72.576 L1437.38 9.54393 Z" fill="#000000" fill-rule="nonzero" fill-opacity="1" /><path clip-path="url(#clip630)" d="M1478.01 32.4315 Q1472.01 32.4315 1468.53 37.1306 Q1465.04 41.7891 1465.04 49.9314 Q1465.04 58.0738 1468.49 62.7728 Q1471.97 67.4314 1478.01 67.4314 Q1483.96 67.4314 1487.45 62.7323 Q1490.93 58.0333 1490.93 49.9314 Q1490.93 41.8701 1487.45 37.1711 Q1483.96 32.4315 1478.01 32.4315 M1478.01 26.1121 Q1487.73 26.1121 1493.28 32.4315 Q1498.83 38.7509 1498.83 49.9314 Q1498.83 61.0714 1493.28 67.4314 Q1487.73 73.7508 1478.01 73.7508 Q1468.24 73.7508 1462.69 67.4314 Q1457.19 61.0714 1457.19 49.9314 Q1457.19 38.7509 1462.69 32.4315 Q1468.24 26.1121 1478.01 26.1121 Z" fill="#000000" fill-rule="nonzero" fill-opacity="1" /><path clip-path="url(#clip630)" d="M1518.39 65.7705 L1518.39 89.8329 L1510.9 89.8329 L1510.9 27.2059 L1518.39 27.2059 L1518.39 34.0924 Q1520.74 30.0415 1524.31 28.0971 Q1527.91 26.1121 1532.9 26.1121 Q1541.16 26.1121 1546.31 32.6746 Q1551.49 39.2371 1551.49 49.9314 Q1551.49 60.6258 1546.31 67.1883 Q1541.16 73.7508 1532.9 73.7508 Q1527.91 73.7508 1524.31 71.8063 Q1520.74 69.8214 1518.39 65.7705 M1543.75 49.9314 Q1543.75 41.7081 1540.35 37.0496 Q1536.99 32.3505 1531.07 32.3505 Q1525.16 32.3505 1521.76 37.0496 Q1518.39 41.7081 1518.39 49.9314 Q1518.39 58.1548 1521.76 62.8538 Q1525.16 67.5124 1531.07 67.5124 Q1536.99 67.5124 1540.35 62.8538 Q1543.75 58.1548 1543.75 49.9314 Z" fill="#000000" fill-rule="nonzero" fill-opacity="1" /><path clip-path="url(#clip630)" d="M1602.65 48.0275 L1602.65 51.6733 L1568.38 51.6733 Q1568.87 59.3701 1573 63.421 Q1577.17 67.4314 1584.59 67.4314 Q1588.88 67.4314 1592.89 66.3781 Q1596.94 65.3249 1600.91 63.2184 L1600.91 70.267 Q1596.9 71.9684 1592.69 72.8596 Q1588.48 73.7508 1584.14 73.7508 Q1573.28 73.7508 1566.92 67.4314 Q1560.61 61.1119 1560.61 50.3365 Q1560.61 39.1965 1566.6 32.6746 Q1572.64 26.1121 1582.84 26.1121 Q1592 26.1121 1597.31 32.0264 Q1602.65 37.9003 1602.65 48.0275 M1595.2 45.84 Q1595.12 39.7232 1591.76 36.0774 Q1588.43 32.4315 1582.93 32.4315 Q1576.69 32.4315 1572.92 35.9558 Q1569.19 39.4801 1568.63 45.8805 L1595.2 45.84 Z" fill="#000000" fill-rule="nonzero" fill-opacity="1" /><path clip-path="url(#clip630)" d="M1659.16 9.62495 Q1653.74 18.942 1651.1 28.0566 Q1648.47 37.1711 1648.47 46.5287 Q1648.47 55.8863 1651.1 65.0818 Q1653.78 74.2369 1659.16 83.5134 L1652.68 83.5134 Q1646.61 73.9938 1643.57 64.7983 Q1640.57 55.6027 1640.57 46.5287 Q1640.57 37.4952 1643.57 28.3401 Q1646.57 19.1851 1652.68 9.62495 L1659.16 9.62495 Z" fill="#000000" fill-rule="nonzero" fill-opacity="1" /><path clip-path="url(#clip630)" d="M1710.21 14.0809 L1710.21 22.0612 Q1705.55 19.8332 1701.41 18.7395 Q1697.28 17.6457 1693.43 17.6457 Q1686.75 17.6457 1683.1 20.2383 Q1679.5 22.8309 1679.5 27.611 Q1679.5 31.6214 1681.89 33.6873 Q1684.32 35.7128 1691.04 36.9686 L1695.99 37.9813 Q1705.14 39.7232 1709.48 44.1387 Q1713.85 48.5136 1713.85 55.8863 Q1713.85 64.6767 1707.94 69.2137 Q1702.06 73.7508 1690.68 73.7508 Q1686.39 73.7508 1681.52 72.7785 Q1676.7 71.8063 1671.52 69.9024 L1671.52 61.4765 Q1676.5 64.2716 1681.28 65.6895 Q1686.06 67.1073 1690.68 67.1073 Q1697.69 67.1073 1701.5 64.3527 Q1705.3 61.598 1705.3 56.4939 Q1705.3 52.0379 1702.55 49.5264 Q1699.83 47.0148 1693.6 45.759 L1688.61 44.7868 Q1679.46 42.9639 1675.37 39.075 Q1671.28 35.1862 1671.28 28.2591 Q1671.28 20.2383 1676.91 15.6203 Q1682.58 11.0023 1692.5 11.0023 Q1696.76 11.0023 1701.17 11.7719 Q1705.59 12.5416 1710.21 14.0809 Z" fill="#000000" fill-rule="nonzero" fill-opacity="1" /><path clip-path="url(#clip630)" d="M1718.23 12.096 L1769.39 12.096 L1769.39 18.9825 L1747.92 18.9825 L1747.92 72.576 L1739.7 72.576 L1739.7 18.9825 L1718.23 18.9825 L1718.23 12.096 Z" fill="#000000" fill-rule="nonzero" fill-opacity="1" /><path clip-path="url(#clip630)" d="M1805.97 44.2197 Q1808.6 45.1109 1811.07 48.0275 Q1813.58 50.9442 1816.1 56.0483 L1824.4 72.576 L1815.61 72.576 L1807.87 57.061 Q1804.87 50.9847 1802.04 48.9997 Q1799.24 47.0148 1794.38 47.0148 L1785.47 47.0148 L1785.47 72.576 L1777.29 72.576 L1777.29 12.096 L1795.76 12.096 Q1806.13 12.096 1811.23 16.4305 Q1816.34 20.7649 1816.34 29.5149 Q1816.34 35.2267 1813.67 38.994 Q1811.03 42.7613 1805.97 44.2197 M1785.47 18.8205 L1785.47 40.2903 L1795.76 40.2903 Q1801.67 40.2903 1804.67 37.5762 Q1807.71 34.8216 1807.71 29.5149 Q1807.71 24.2082 1804.67 21.5346 Q1801.67 18.8205 1795.76 18.8205 L1785.47 18.8205 Z" fill="#000000" fill-rule="nonzero" fill-opacity="1" /><path clip-path="url(#clip630)" d="M1833.43 9.62495 L1839.92 9.62495 Q1845.99 19.1851 1848.99 28.3401 Q1852.03 37.4952 1852.03 46.5287 Q1852.03 55.6027 1848.99 64.7983 Q1845.99 73.9938 1839.92 83.5134 L1833.43 83.5134 Q1838.82 74.2369 1841.45 65.0818 Q1844.13 55.8863 1844.13 46.5287 Q1844.13 37.1711 1841.45 28.0566 Q1838.82 18.942 1833.43 9.62495 Z" fill="#000000" fill-rule="nonzero" fill-opacity="1" /><path clip-path="url(#clip632)" d="M275.888 402.783 L299.381 403.663 L322.873 404.543 L346.365 405.423 L369.858 406.303 L393.35 524.635 L416.842 525.515 L440.335 526.395 L463.827 256.95 L487.319 257.83 L510.811 258.71 L534.304 259.59 L557.796 260.47 L581.288 261.35 L604.781 262.23 L628.273 263.11 L651.765 263.99 L675.258 264.87 L698.75 265.75 L722.242 266.631 L745.735 267.511 L769.227 468.005 L792.719 468.885 L816.212 469.765 L839.704 470.645 L863.196 471.525 L886.689 472.405 L910.181 473.285 L933.673 474.166 L957.166 475.046 L980.658 475.926 L1004.15 476.806 L1027.64 129.707 L1051.13 130.587 L1074.63 131.467 L1098.12 132.347 L1121.61 133.227 L1145.1 380.062 L1168.6 380.942 L1192.09 381.822 L1215.58 382.702 L1239.07 383.582 L1262.57 384.462 L1286.06 385.342 L1309.55 386.222 L1333.04 387.102 L1356.54 387.982 L1380.03 388.862 L1403.52 389.742 L1427.01 390.623 L1450.5 391.503 L1474 392.383 L1497.49 393.263 L1520.98 535.691 L1544.47 536.572 L1567.97 537.452 L1591.46 247.533 L1614.95 248.413 L1638.44 249.293 L1661.94 250.173 L1685.43 251.053 L1708.92 251.933 L1732.41 252.813 L1755.9 253.693 L1779.4 254.573 L1802.89 255.454 L1826.38 256.334 L1849.87 257.214 L1873.37 258.094 L1896.86 464.606 L1920.35 465.486 L1943.84 466.366 L1967.34 467.246 L1990.83 468.126 L2014.32 469.006 L2037.81 469.887 L2061.3 470.767 L2084.8 471.647 L2108.29 472.527 L2131.78 473.407 L2155.27 171.013 L2178.77 171.893 L2202.26 172.773 L2225.75 173.653 L2249.24 174.533 L2272.74 400.143 L2296.23 401.023 L2319.72 401.903 L2343.21 402.783 L2343.21 402.783 L2319.72 402.783 L2296.23 402.783 L2272.74 402.783 L2249.24 402.783 L2225.75 402.783 L2202.26 402.783 L2178.77 402.783 L2155.27 402.783 L2131.78 402.783 L2108.29 402.783 L2084.8 402.783 L2061.3 402.783 L2037.81 402.783 L2014.32 402.783 L1990.83 402.783 L1967.34 402.783 L1943.84 402.783 L1920.35 402.783 L1896.86 402.783 L1873.37 402.783 L1849.87 402.783 L1826.38 402.783 L1802.89 402.783 L1779.4 402.783 L1755.9 402.783 L1732.41 402.783 L1708.92 402.783 L1685.43 402.783 L1661.94 402.783 L1638.44 402.783 L1614.95 402.783 L1591.46 402.783 L1567.97 402.783 L1544.47 402.783 L1520.98 402.783 L1497.49 402.783 L1474 402.783 L1450.5 402.783 L1427.01 402.783 L1403.52 402.783 L1380.03 402.783 L1356.54 402.783 L1333.04 402.783 L1309.55 402.783 L1286.06 402.783 L1262.57 402.783 L1239.07 402.783 L1215.58 402.783 L1192.09 402.783 L1168.6 402.783 L1145.1 402.783 L1121.61 402.783 L1098.12 402.783 L1074.63 402.783 L1051.13 402.783 L1027.64 402.783 L1004.15 402.783 L980.658 402.783 L957.166 402.783 L933.673 402.783 L910.181 402.783 L886.689 402.783 L863.196 402.783 L839.704 402.783 L816.212 402.783 L792.719 402.783 L769.227 402.783 L745.735 402.783 L722.242 402.783 L698.75 402.783 L675.258 402.783 L651.765 402.783 L628.273 402.783 L604.781 402.783 L581.288 402.783 L557.796 402.783 L534.304 402.783 L510.811 402.783 L487.319 402.783 L463.827 402.783 L440.335 402.783 L416.842 402.783 L393.35 402.783 L369.858 402.783 L346.365 402.783 L322.873 402.783 L299.381 402.783 L275.888 402.783  Z" fill="#0000ff" fill-rule="evenodd" fill-opacity="0.5"/>
<polyline clip-path="url(#clip632)" style="stroke:#0000ff; stroke-linecap:round; stroke-linejoin:round; stroke-width:4; stroke-opacity:1; fill:none" points="275.888,402.783 299.381,403.663 322.873,404.543 346.365,405.423 369.858,406.303 393.35,524.635 416.842,525.515 440.335,526.395 463.827,256.95 487.319,257.83 510.811,258.71 534.304,259.59 557.796,260.47 581.288,261.35 604.781,262.23 628.273,263.11 651.765,263.99 675.258,264.87 698.75,265.75 722.242,266.631 745.735,267.511 769.227,468.005 792.719,468.885 816.212,469.765 839.704,470.645 863.196,471.525 886.689,472.405 910.181,473.285 933.673,474.166 957.166,475.046 980.658,475.926 1004.15,476.806 1027.64,129.707 1051.13,130.587 1074.63,131.467 1098.12,132.347 1121.61,133.227 1145.1,380.062 1168.6,380.942 1192.09,381.822 1215.58,382.702 1239.07,383.582 1262.57,384.462 1286.06,385.342 1309.55,386.222 1333.04,387.102 1356.54,387.982 1380.03,388.862 1403.52,389.742 1427.01,390.623 1450.5,391.503 1474,392.383 1497.49,393.263 1520.98,535.691 1544.47,536.572 1567.97,537.452 1591.46,247.533 1614.95,248.413 1638.44,249.293 1661.94,250.173 1685.43,251.053 1708.92,251.933 1732.41,252.813 1755.9,253.693 1779.4,254.573 1802.89,255.454 1826.38,256.334 1849.87,257.214 1873.37,258.094 1896.86,464.606 1920.35,465.486 1943.84,466.366 1967.34,467.246 1990.83,468.126 2014.32,469.006 2037.81,469.887 2061.3,470.767 2084.8,471.647 2108.29,472.527 2131.78,473.407 2155.27,171.013 2178.77,171.893 2202.26,172.773 2225.75,173.653 2249.24,174.533 2272.74,400.143 2296.23,401.023 2319.72,401.903 2343.21,402.783 "/>
<path clip-path="url(#clip632)" d="M275.888 402.783 L299.381 403.663 L322.873 404.543 L346.365 405.423 L369.858 630.626 L393.35 631.506 L416.842 632.386 L440.335 633.266 L463.827 634.147 L487.319 332.162 L510.811 333.042 L534.304 333.923 L557.796 334.803 L581.288 335.683 L604.781 336.563 L628.273 337.443 L651.765 338.323 L675.258 339.203 L698.75 340.083 L722.242 340.963 L745.735 547.479 L769.227 548.359 L792.719 549.239 L816.212 550.119 L839.704 550.999 L863.196 551.879 L886.689 552.759 L910.181 553.64 L933.673 554.52 L957.166 555.4 L980.658 556.28 L1004.15 557.16 L1027.64 558.04 L1051.13 268.114 L1074.63 268.994 L1098.12 269.874 L1121.61 412.305 L1145.1 413.185 L1168.6 414.065 L1192.09 414.945 L1215.58 415.825 L1239.07 416.705 L1262.57 417.586 L1286.06 418.466 L1309.55 419.346 L1333.04 420.226 L1356.54 421.106 L1380.03 421.986 L1403.52 422.866 L1427.01 423.746 L1450.5 424.626 L1474 425.506 L1497.49 672.343 L1520.98 673.223 L1544.47 674.103 L1567.97 674.983 L1591.46 675.863 L1614.95 328.76 L1638.44 329.64 L1661.94 330.52 L1685.43 331.4 L1708.92 332.28 L1732.41 333.16 L1755.9 334.04 L1779.4 334.92 L1802.89 335.801 L1826.38 336.681 L1849.87 337.561 L1873.37 538.059 L1896.86 538.939 L1920.35 539.819 L1943.84 540.699 L1967.34 541.579 L1990.83 542.459 L2014.32 543.339 L2037.81 544.22 L2061.3 545.1 L2084.8 545.98 L2108.29 546.86 L2131.78 547.74 L2155.27 548.62 L2178.77 279.171 L2202.26 280.051 L2225.75 280.931 L2249.24 399.263 L2272.74 400.143 L2296.23 401.023 L2319.72 401.903 L2343.21 402.783 L2343.21 402.783 L2319.72 402.783 L2296.23 402.783 L2272.74 402.783 L2249.24 402.783 L2225.75 402.783 L2202.26 402.783 L2178.77 402.783 L2155.27 402.783 L2131.78 402.783 L2108.29 402.783 L2084.8 402.783 L2061.3 402.783 L2037.81 402.783 L2014.32 402.783 L1990.83 402.783 L1967.34 402.783 L1943.84 402.783 L1920.35 402.783 L1896.86 402.783 L1873.37 402.783 L1849.87 402.783 L1826.38 402.783 L1802.89 402.783 L1779.4 402.783 L1755.9 402.783 L1732.41 402.783 L1708.92 402.783 L1685.43 402.783 L1661.94 402.783 L1638.44 402.783 L1614.95 402.783 L1591.46 402.783 L1567.97 402.783 L1544.47 402.783 L1520.98 402.783 L1497.49 402.783 L1474 402.783 L1450.5 402.783 L1427.01 402.783 L1403.52 402.783 L1380.03 402.783 L1356.54 402.783 L1333.04 402.783 L1309.55 402.783 L1286.06 402.783 L1262.57 402.783 L1239.07 402.783 L1215.58 402.783 L1192.09 402.783 L1168.6 402.783 L1145.1 402.783 L1121.61 402.783 L1098.12 402.783 L1074.63 402.783 L1051.13 402.783 L1027.64 402.783 L1004.15 402.783 L980.658 402.783 L957.166 402.783 L933.673 402.783 L910.181 402.783 L886.689 402.783 L863.196 402.783 L839.704 402.783 L816.212 402.783 L792.719 402.783 L769.227 402.783 L745.735 402.783 L722.242 402.783 L698.75 402.783 L675.258 402.783 L651.765 402.783 L628.273 402.783 L604.781 402.783 L581.288 402.783 L557.796 402.783 L534.304 402.783 L510.811 402.783 L487.319 402.783 L463.827 402.783 L440.335 402.783 L416.842 402.783 L393.35 402.783 L369.858 402.783 L346.365 402.783 L322.873 402.783 L299.381 402.783 L275.888 402.783  Z" fill="#ff0000" fill-rule="evenodd" fill-opacity="0.5"/>
<polyline clip-path="url(#clip632)" style="stroke:#ff0000; stroke-linecap:round; stroke-linejoin:round; stroke-width:4; stroke-opacity:1; fill:none" points="275.888,402.783 299.381,403.663 322.873,404.543 346.365,405.423 369.858,630.626 393.35,631.506 416.842,632.386 440.335,633.266 463.827,634.147 487.319,332.162 510.811,333.042 534.304,333.923 557.796,334.803 581.288,335.683 604.781,336.563 628.273,337.443 651.765,338.323 675.258,339.203 698.75,340.083 722.242,340.963 745.735,547.479 769.227,548.359 792.719,549.239 816.212,550.119 839.704,550.999 863.196,551.879 886.689,552.759 910.181,553.64 933.673,554.52 957.166,555.4 980.658,556.28 1004.15,557.16 1027.64,558.04 1051.13,268.114 1074.63,268.994 1098.12,269.874 1121.61,412.305 1145.1,413.185 1168.6,414.065 1192.09,414.945 1215.58,415.825 1239.07,416.705 1262.57,417.586 1286.06,418.466 1309.55,419.346 1333.04,420.226 1356.54,421.106 1380.03,421.986 1403.52,422.866 1427.01,423.746 1450.5,424.626 1474,425.506 1497.49,672.343 1520.98,673.223 1544.47,674.103 1567.97,674.983 1591.46,675.863 1614.95,328.76 1638.44,329.64 1661.94,330.52 1685.43,331.4 1708.92,332.28 1732.41,333.16 1755.9,334.04 1779.4,334.92 1802.89,335.801 1826.38,336.681 1849.87,337.561 1873.37,538.059 1896.86,538.939 1920.35,539.819 1943.84,540.699 1967.34,541.579 1990.83,542.459 2014.32,543.339 2037.81,544.22 2061.3,545.1 2084.8,545.98 2108.29,546.86 2131.78,547.74 2155.27,548.62 2178.77,279.171 2202.26,280.051 2225.75,280.931 2249.24,399.263 2272.74,400.143 2296.23,401.023 2319.72,401.903 2343.21,402.783 "/>
<path clip-path="url(#clip630)" d="M2492.66 288.14 L2836.76 288.14 L2836.76 132.62 L2492.66 132.62  Z" fill="#ffffff" fill-rule="evenodd" fill-opacity="1"/>
<polyline clip-path="url(#clip630)" style="stroke:#000000; stroke-linecap:round; stroke-linejoin:round; stroke-width:4; stroke-opacity:1; fill:none" points="2492.66,288.14 2836.76,288.14 2836.76,132.62 2492.66,132.62 2492.66,288.14 "/>
<path clip-path="url(#clip630)" d="M2521.81 205.196 L2696.66 205.196 L2696.66 163.724 L2521.81 163.724 L2521.81 205.196  Z" fill="#0000ff" fill-rule="evenodd" fill-opacity="0.5"/>
<polyline clip-path="url(#clip630)" style="stroke:#0000ff; stroke-linecap:round; stroke-linejoin:round; stroke-width:4; stroke-opacity:1; fill:none" points="2521.81,163.724 2696.66,163.724 "/>
<path clip-path="url(#clip630)" d="M2742.59 172.018 L2742.59 184.911 L2755.48 184.911 L2755.48 188.846 L2742.59 188.846 L2742.59 201.74 L2738.7 201.74 L2738.7 188.846 L2725.81 188.846 L2725.81 184.911 L2738.7 184.911 L2738.7 172.018 L2742.59 172.018 Z" fill="#000000" fill-rule="nonzero" fill-opacity="1" /><path clip-path="url(#clip630)" d="M2789.14 201.74 L2775.95 167.18 L2780.83 167.18 L2791.78 196.277 L2802.75 167.18 L2807.61 167.18 L2794.44 201.74 L2789.14 201.74 Z" fill="#000000" fill-rule="nonzero" fill-opacity="1" /><path clip-path="url(#clip630)" d="M2521.81 257.036 L2696.66 257.036 L2696.66 215.564 L2521.81 215.564 L2521.81 257.036  Z" fill="#ff0000" fill-rule="evenodd" fill-opacity="0.5"/>
<polyline clip-path="url(#clip630)" style="stroke:#ff0000; stroke-linecap:round; stroke-linejoin:round; stroke-width:4; stroke-opacity:1; fill:none" points="2521.81,215.564 2696.66,215.564 "/>
<path clip-path="url(#clip630)" d="M2725.81 238.696 L2738.28 238.696 L2738.28 242.492 L2725.81 242.492 L2725.81 238.696 Z" fill="#000000" fill-rule="nonzero" fill-opacity="1" /><path clip-path="url(#clip630)" d="M2769.23 253.58 L2756.04 219.02 L2760.92 219.02 L2771.87 248.117 L2782.84 219.02 L2787.71 219.02 L2774.53 253.58 L2769.23 253.58 Z" fill="#000000" fill-rule="nonzero" fill-opacity="1" /><path clip-path="url(#clip630)" d="M213.869 1492.25 L2401 1492.25 L2401 913.322 L213.869 913.322  Z" fill="#ffffff" fill-rule="evenodd" fill-opacity="1"/>
<defs>
  <clipPath id="clip633">
    <rect x="213" y="913" width="2188" height="580"/>
  </clipPath>
</defs>
<polyline clip-path="url(#clip633)" style="stroke:#000000; stroke-linecap:round; stroke-linejoin:round; stroke-width:2; stroke-opacity:0.1; fill:none" points="275.768,1492.25 275.768,913.322 "/>
<polyline clip-path="url(#clip633)" style="stroke:#000000; stroke-linecap:round; stroke-linejoin:round; stroke-width:2; stroke-opacity:0.1; fill:none" points="744.707,1492.25 744.707,913.322 "/>
<polyline clip-path="url(#clip633)" style="stroke:#000000; stroke-linecap:round; stroke-linejoin:round; stroke-width:2; stroke-opacity:0.1; fill:none" points="1213.64,1492.25 1213.64,913.322 "/>
<polyline clip-path="url(#clip633)" style="stroke:#000000; stroke-linecap:round; stroke-linejoin:round; stroke-width:2; stroke-opacity:0.1; fill:none" points="1682.58,1492.25 1682.58,913.322 "/>
<polyline clip-path="url(#clip633)" style="stroke:#000000; stroke-linecap:round; stroke-linejoin:round; stroke-width:2; stroke-opacity:0.1; fill:none" points="2151.52,1492.25 2151.52,913.322 "/>
<polyline clip-path="url(#clip633)" style="stroke:#000000; stroke-linecap:round; stroke-linejoin:round; stroke-width:2; stroke-opacity:0.1; fill:none" points="213.869,1447.97 2401,1447.97 "/>
<polyline clip-path="url(#clip633)" style="stroke:#000000; stroke-linecap:round; stroke-linejoin:round; stroke-width:2; stroke-opacity:0.1; fill:none" points="213.869,1369.1 2401,1369.1 "/>
<polyline clip-path="url(#clip633)" style="stroke:#000000; stroke-linecap:round; stroke-linejoin:round; stroke-width:2; stroke-opacity:0.1; fill:none" points="213.869,1290.24 2401,1290.24 "/>
<polyline clip-path="url(#clip633)" style="stroke:#000000; stroke-linecap:round; stroke-linejoin:round; stroke-width:2; stroke-opacity:0.1; fill:none" points="213.869,1211.38 2401,1211.38 "/>
<polyline clip-path="url(#clip633)" style="stroke:#000000; stroke-linecap:round; stroke-linejoin:round; stroke-width:2; stroke-opacity:0.1; fill:none" points="213.869,1132.52 2401,1132.52 "/>
<polyline clip-path="url(#clip633)" style="stroke:#000000; stroke-linecap:round; stroke-linejoin:round; stroke-width:2; stroke-opacity:0.1; fill:none" points="213.869,1053.66 2401,1053.66 "/>
<polyline clip-path="url(#clip633)" style="stroke:#000000; stroke-linecap:round; stroke-linejoin:round; stroke-width:2; stroke-opacity:0.1; fill:none" points="213.869,974.797 2401,974.797 "/>
<polyline clip-path="url(#clip630)" style="stroke:#000000; stroke-linecap:round; stroke-linejoin:round; stroke-width:4; stroke-opacity:1; fill:none" points="213.869,1492.25 2401,1492.25 "/>
<polyline clip-path="url(#clip630)" style="stroke:#000000; stroke-linecap:round; stroke-linejoin:round; stroke-width:4; stroke-opacity:1; fill:none" points="275.768,1492.25 275.768,1473.35 "/>
<polyline clip-path="url(#clip630)" style="stroke:#000000; stroke-linecap:round; stroke-linejoin:round; stroke-width:4; stroke-opacity:1; fill:none" points="744.707,1492.25 744.707,1473.35 "/>
<polyline clip-path="url(#clip630)" style="stroke:#000000; stroke-linecap:round; stroke-linejoin:round; stroke-width:4; stroke-opacity:1; fill:none" points="1213.64,1492.25 1213.64,1473.35 "/>
<polyline clip-path="url(#clip630)" style="stroke:#000000; stroke-linecap:round; stroke-linejoin:round; stroke-width:4; stroke-opacity:1; fill:none" points="1682.58,1492.25 1682.58,1473.35 "/>
<polyline clip-path="url(#clip630)" style="stroke:#000000; stroke-linecap:round; stroke-linejoin:round; stroke-width:4; stroke-opacity:1; fill:none" points="2151.52,1492.25 2151.52,1473.35 "/>
<path clip-path="url(#clip630)" d="M275.768 1527.04 Q272.157 1527.04 270.329 1530.6 Q268.523 1534.14 268.523 1541.27 Q268.523 1548.38 270.329 1551.95 Q272.157 1555.49 275.768 1555.49 Q279.403 1555.49 281.208 1551.95 Q283.037 1548.38 283.037 1541.27 Q283.037 1534.14 281.208 1530.6 Q279.403 1527.04 275.768 1527.04 M275.768 1523.33 Q281.579 1523.33 284.634 1527.94 Q287.713 1532.52 287.713 1541.27 Q287.713 1550 284.634 1554.61 Q281.579 1559.19 275.768 1559.19 Q269.958 1559.19 266.88 1554.61 Q263.824 1550 263.824 1541.27 Q263.824 1532.52 266.88 1527.94 Q269.958 1523.33 275.768 1523.33 Z" fill="#000000" fill-rule="nonzero" fill-opacity="1" /><path clip-path="url(#clip630)" d="M719.394 1554.58 L727.033 1554.58 L727.033 1528.22 L718.723 1529.89 L718.723 1525.63 L726.987 1523.96 L731.663 1523.96 L731.663 1554.58 L739.302 1554.58 L739.302 1558.52 L719.394 1558.52 L719.394 1554.58 Z" fill="#000000" fill-rule="nonzero" fill-opacity="1" /><path clip-path="url(#clip630)" d="M758.746 1527.04 Q755.135 1527.04 753.306 1530.6 Q751.501 1534.14 751.501 1541.27 Q751.501 1548.38 753.306 1551.95 Q755.135 1555.49 758.746 1555.49 Q762.38 1555.49 764.186 1551.95 Q766.014 1548.38 766.014 1541.27 Q766.014 1534.14 764.186 1530.6 Q762.38 1527.04 758.746 1527.04 M758.746 1523.33 Q764.556 1523.33 767.612 1527.94 Q770.69 1532.52 770.69 1541.27 Q770.69 1550 767.612 1554.61 Q764.556 1559.19 758.746 1559.19 Q752.936 1559.19 749.857 1554.61 Q746.801 1550 746.801 1541.27 Q746.801 1532.52 749.857 1527.94 Q752.936 1523.33 758.746 1523.33 Z" fill="#000000" fill-rule="nonzero" fill-opacity="1" /><path clip-path="url(#clip630)" d="M1192.42 1554.58 L1208.74 1554.58 L1208.74 1558.52 L1186.79 1558.52 L1186.79 1554.58 Q1189.46 1551.83 1194.04 1547.2 Q1198.64 1542.55 1199.83 1541.21 Q1202.07 1538.68 1202.95 1536.95 Q1203.85 1535.19 1203.85 1533.5 Q1203.85 1530.74 1201.91 1529.01 Q1199.99 1527.27 1196.89 1527.27 Q1194.69 1527.27 1192.23 1528.03 Q1189.8 1528.8 1187.02 1530.35 L1187.02 1525.63 Q1189.85 1524.49 1192.3 1523.91 Q1194.76 1523.33 1196.79 1523.33 Q1202.16 1523.33 1205.36 1526.02 Q1208.55 1528.71 1208.55 1533.2 Q1208.55 1535.33 1207.74 1537.25 Q1206.96 1539.14 1204.85 1541.74 Q1204.27 1542.41 1201.17 1545.63 Q1198.07 1548.82 1192.42 1554.58 Z" fill="#000000" fill-rule="nonzero" fill-opacity="1" /><path clip-path="url(#clip630)" d="M1228.55 1527.04 Q1224.94 1527.04 1223.11 1530.6 Q1221.31 1534.14 1221.31 1541.27 Q1221.31 1548.38 1223.11 1551.95 Q1224.94 1555.49 1228.55 1555.49 Q1232.19 1555.49 1233.99 1551.95 Q1235.82 1548.38 1235.82 1541.27 Q1235.82 1534.14 1233.99 1530.6 Q1232.19 1527.04 1228.55 1527.04 M1228.55 1523.33 Q1234.36 1523.33 1237.42 1527.94 Q1240.5 1532.52 1240.5 1541.27 Q1240.5 1550 1237.42 1554.61 Q1234.36 1559.19 1228.55 1559.19 Q1222.74 1559.19 1219.66 1554.61 Q1216.61 1550 1216.61 1541.27 Q1216.61 1532.52 1219.66 1527.94 Q1222.74 1523.33 1228.55 1523.33 Z" fill="#000000" fill-rule="nonzero" fill-opacity="1" /><path clip-path="url(#clip630)" d="M1671.43 1539.89 Q1674.78 1540.6 1676.66 1542.87 Q1678.56 1545.14 1678.56 1548.47 Q1678.56 1553.59 1675.04 1556.39 Q1671.52 1559.19 1665.04 1559.19 Q1662.86 1559.19 1660.55 1558.75 Q1658.25 1558.33 1655.8 1557.48 L1655.8 1552.96 Q1657.75 1554.1 1660.06 1554.68 Q1662.37 1555.26 1664.9 1555.26 Q1669.3 1555.26 1671.59 1553.52 Q1673.9 1551.78 1673.9 1548.47 Q1673.9 1545.42 1671.75 1543.71 Q1669.62 1541.97 1665.8 1541.97 L1661.77 1541.97 L1661.77 1538.13 L1665.99 1538.13 Q1669.43 1538.13 1671.26 1536.76 Q1673.09 1535.37 1673.09 1532.78 Q1673.09 1530.12 1671.19 1528.71 Q1669.32 1527.27 1665.8 1527.27 Q1663.88 1527.27 1661.68 1527.69 Q1659.48 1528.1 1656.84 1528.98 L1656.84 1524.82 Q1659.5 1524.08 1661.82 1523.71 Q1664.16 1523.33 1666.22 1523.33 Q1671.54 1523.33 1674.64 1525.77 Q1677.75 1528.17 1677.75 1532.29 Q1677.75 1535.16 1676.1 1537.15 Q1674.46 1539.12 1671.43 1539.89 Z" fill="#000000" fill-rule="nonzero" fill-opacity="1" /><path clip-path="url(#clip630)" d="M1697.42 1527.04 Q1693.81 1527.04 1691.98 1530.6 Q1690.18 1534.14 1690.18 1541.27 Q1690.18 1548.38 1691.98 1551.95 Q1693.81 1555.49 1697.42 1555.49 Q1701.06 1555.49 1702.86 1551.95 Q1704.69 1548.38 1704.69 1541.27 Q1704.69 1534.14 1702.86 1530.6 Q1701.06 1527.04 1697.42 1527.04 M1697.42 1523.33 Q1703.23 1523.33 1706.29 1527.94 Q1709.37 1532.52 1709.37 1541.27 Q1709.37 1550 1706.29 1554.61 Q1703.23 1559.19 1697.42 1559.19 Q1691.61 1559.19 1688.53 1554.61 Q1685.48 1550 1685.48 1541.27 Q1685.48 1532.52 1688.53 1527.94 Q1691.61 1523.33 1697.42 1523.33 Z" fill="#000000" fill-rule="nonzero" fill-opacity="1" /><path clip-path="url(#clip630)" d="M2139.69 1528.03 L2127.89 1546.48 L2139.69 1546.48 L2139.69 1528.03 M2138.47 1523.96 L2144.35 1523.96 L2144.35 1546.48 L2149.28 1546.48 L2149.28 1550.37 L2144.35 1550.37 L2144.35 1558.52 L2139.69 1558.52 L2139.69 1550.37 L2124.09 1550.37 L2124.09 1545.86 L2138.47 1523.96 Z" fill="#000000" fill-rule="nonzero" fill-opacity="1" /><path clip-path="url(#clip630)" d="M2167.01 1527.04 Q2163.4 1527.04 2161.57 1530.6 Q2159.76 1534.14 2159.76 1541.27 Q2159.76 1548.38 2161.57 1551.95 Q2163.4 1555.49 2167.01 1555.49 Q2170.64 1555.49 2172.45 1551.95 Q2174.28 1548.38 2174.28 1541.27 Q2174.28 1534.14 2172.45 1530.6 Q2170.64 1527.04 2167.01 1527.04 M2167.01 1523.33 Q2172.82 1523.33 2175.87 1527.94 Q2178.95 1532.52 2178.95 1541.27 Q2178.95 1550 2175.87 1554.61 Q2172.82 1559.19 2167.01 1559.19 Q2161.2 1559.19 2158.12 1554.61 Q2155.06 1550 2155.06 1541.27 Q2155.06 1532.52 2158.12 1527.94 Q2161.2 1523.33 2167.01 1523.33 Z" fill="#000000" fill-rule="nonzero" fill-opacity="1" /><polyline clip-path="url(#clip630)" style="stroke:#000000; stroke-linecap:round; stroke-linejoin:round; stroke-width:4; stroke-opacity:1; fill:none" points="213.869,1492.25 213.869,913.322 "/>
<polyline clip-path="url(#clip630)" style="stroke:#000000; stroke-linecap:round; stroke-linejoin:round; stroke-width:4; stroke-opacity:1; fill:none" points="213.869,1447.97 229.627,1447.97 "/>
<polyline clip-path="url(#clip630)" style="stroke:#000000; stroke-linecap:round; stroke-linejoin:round; stroke-width:4; stroke-opacity:1; fill:none" points="213.869,1369.1 229.627,1369.1 "/>
<polyline clip-path="url(#clip630)" style="stroke:#000000; stroke-linecap:round; stroke-linejoin:round; stroke-width:4; stroke-opacity:1; fill:none" points="213.869,1290.24 229.627,1290.24 "/>
<polyline clip-path="url(#clip630)" style="stroke:#000000; stroke-linecap:round; stroke-linejoin:round; stroke-width:4; stroke-opacity:1; fill:none" points="213.869,1211.38 229.627,1211.38 "/>
<polyline clip-path="url(#clip630)" style="stroke:#000000; stroke-linecap:round; stroke-linejoin:round; stroke-width:4; stroke-opacity:1; fill:none" points="213.869,1132.52 229.627,1132.52 "/>
<polyline clip-path="url(#clip630)" style="stroke:#000000; stroke-linecap:round; stroke-linejoin:round; stroke-width:4; stroke-opacity:1; fill:none" points="213.869,1053.66 229.627,1053.66 "/>
<polyline clip-path="url(#clip630)" style="stroke:#000000; stroke-linecap:round; stroke-linejoin:round; stroke-width:4; stroke-opacity:1; fill:none" points="213.869,974.797 229.627,974.797 "/>
<path clip-path="url(#clip630)" d="M48.5721 1448.42 L78.2479 1448.42 L78.2479 1452.35 L48.5721 1452.35 L48.5721 1448.42 Z" fill="#000000" fill-rule="nonzero" fill-opacity="1" /><path clip-path="url(#clip630)" d="M98.9191 1446.1 Q95.7709 1446.1 93.9191 1448.25 Q92.0904 1450.41 92.0904 1454.16 Q92.0904 1457.88 93.9191 1460.06 Q95.7709 1462.21 98.9191 1462.21 Q102.067 1462.21 103.896 1460.06 Q105.748 1457.88 105.748 1454.16 Q105.748 1450.41 103.896 1448.25 Q102.067 1446.1 98.9191 1446.1 M108.201 1431.45 L108.201 1435.71 Q106.442 1434.87 104.637 1434.44 Q102.854 1434 101.095 1434 Q96.4654 1434 94.0117 1437.12 Q91.5812 1440.25 91.2339 1446.56 Q92.5997 1444.55 94.6598 1443.49 Q96.72 1442.4 99.1969 1442.4 Q104.405 1442.4 107.414 1445.57 Q110.447 1448.72 110.447 1454.16 Q110.447 1459.48 107.299 1462.7 Q104.151 1465.92 98.9191 1465.92 Q92.9237 1465.92 89.7525 1461.33 Q86.5812 1456.73 86.5812 1448 Q86.5812 1439.81 90.47 1434.94 Q94.3589 1430.06 100.91 1430.06 Q102.669 1430.06 104.451 1430.41 Q106.257 1430.75 108.201 1431.45 Z" fill="#000000" fill-rule="nonzero" fill-opacity="1" /><path clip-path="url(#clip630)" d="M128.502 1433.76 Q124.891 1433.76 123.062 1437.33 Q121.257 1440.87 121.257 1448 Q121.257 1455.11 123.062 1458.67 Q124.891 1462.21 128.502 1462.21 Q132.136 1462.21 133.942 1458.67 Q135.771 1455.11 135.771 1448 Q135.771 1440.87 133.942 1437.33 Q132.136 1433.76 128.502 1433.76 M128.502 1430.06 Q134.312 1430.06 137.368 1434.67 Q140.447 1439.25 140.447 1448 Q140.447 1456.73 137.368 1461.33 Q134.312 1465.92 128.502 1465.92 Q122.692 1465.92 119.613 1461.33 Q116.558 1456.73 116.558 1448 Q116.558 1439.25 119.613 1434.67 Q122.692 1430.06 128.502 1430.06 Z" fill="#000000" fill-rule="nonzero" fill-opacity="1" /><path clip-path="url(#clip630)" d="M158.664 1433.76 Q155.053 1433.76 153.224 1437.33 Q151.419 1440.87 151.419 1448 Q151.419 1455.11 153.224 1458.67 Q155.053 1462.21 158.664 1462.21 Q162.298 1462.21 164.104 1458.67 Q165.933 1455.11 165.933 1448 Q165.933 1440.87 164.104 1437.33 Q162.298 1433.76 158.664 1433.76 M158.664 1430.06 Q164.474 1430.06 167.53 1434.67 Q170.609 1439.25 170.609 1448 Q170.609 1456.73 167.53 1461.33 Q164.474 1465.92 158.664 1465.92 Q152.854 1465.92 149.775 1461.33 Q146.72 1456.73 146.72 1448 Q146.72 1439.25 149.775 1434.67 Q152.854 1430.06 158.664 1430.06 Z" fill="#000000" fill-rule="nonzero" fill-opacity="1" /><path clip-path="url(#clip630)" d="M48.5721 1369.56 L78.2479 1369.56 L78.2479 1373.49 L48.5721 1373.49 L48.5721 1369.56 Z" fill="#000000" fill-rule="nonzero" fill-opacity="1" /><path clip-path="url(#clip630)" d="M101.188 1355.9 L89.3821 1374.35 L101.188 1374.35 L101.188 1355.9 M99.9607 1351.82 L105.84 1351.82 L105.84 1374.35 L110.771 1374.35 L110.771 1378.24 L105.84 1378.24 L105.84 1386.38 L101.188 1386.38 L101.188 1378.24 L85.5858 1378.24 L85.5858 1373.72 L99.9607 1351.82 Z" fill="#000000" fill-rule="nonzero" fill-opacity="1" /><path clip-path="url(#clip630)" d="M128.502 1354.9 Q124.891 1354.9 123.062 1358.47 Q121.257 1362.01 121.257 1369.14 Q121.257 1376.24 123.062 1379.81 Q124.891 1383.35 128.502 1383.35 Q132.136 1383.35 133.942 1379.81 Q135.771 1376.24 135.771 1369.14 Q135.771 1362.01 133.942 1358.47 Q132.136 1354.9 128.502 1354.9 M128.502 1351.2 Q134.312 1351.2 137.368 1355.81 Q140.447 1360.39 140.447 1369.14 Q140.447 1377.87 137.368 1382.47 Q134.312 1387.06 128.502 1387.06 Q122.692 1387.06 119.613 1382.47 Q116.558 1377.87 116.558 1369.14 Q116.558 1360.39 119.613 1355.81 Q122.692 1351.2 128.502 1351.2 Z" fill="#000000" fill-rule="nonzero" fill-opacity="1" /><path clip-path="url(#clip630)" d="M158.664 1354.9 Q155.053 1354.9 153.224 1358.47 Q151.419 1362.01 151.419 1369.14 Q151.419 1376.24 153.224 1379.81 Q155.053 1383.35 158.664 1383.35 Q162.298 1383.35 164.104 1379.81 Q165.933 1376.24 165.933 1369.14 Q165.933 1362.01 164.104 1358.47 Q162.298 1354.9 158.664 1354.9 M158.664 1351.2 Q164.474 1351.2 167.53 1355.81 Q170.609 1360.39 170.609 1369.14 Q170.609 1377.87 167.53 1382.47 Q164.474 1387.06 158.664 1387.06 Q152.854 1387.06 149.775 1382.47 Q146.72 1377.87 146.72 1369.14 Q146.72 1360.39 149.775 1355.81 Q152.854 1351.2 158.664 1351.2 Z" fill="#000000" fill-rule="nonzero" fill-opacity="1" /><path clip-path="url(#clip630)" d="M48.5721 1290.69 L78.2479 1290.69 L78.2479 1294.63 L48.5721 1294.63 L48.5721 1290.69 Z" fill="#000000" fill-rule="nonzero" fill-opacity="1" /><path clip-path="url(#clip630)" d="M92.3682 1303.59 L108.688 1303.59 L108.688 1307.52 L86.7432 1307.52 L86.7432 1303.59 Q89.4052 1300.83 93.9885 1296.2 Q98.595 1291.55 99.7756 1290.21 Q102.021 1287.68 102.901 1285.95 Q103.803 1284.19 103.803 1282.5 Q103.803 1279.74 101.859 1278.01 Q99.9376 1276.27 96.8358 1276.27 Q94.6367 1276.27 92.183 1277.04 Q89.7525 1277.8 86.9747 1279.35 L86.9747 1274.63 Q89.7988 1273.49 92.2524 1272.92 Q94.7061 1272.34 96.7432 1272.34 Q102.114 1272.34 105.308 1275.02 Q108.502 1277.71 108.502 1282.2 Q108.502 1284.33 107.692 1286.25 Q106.905 1288.15 104.799 1290.74 Q104.22 1291.41 101.118 1294.63 Q98.0163 1297.82 92.3682 1303.59 Z" fill="#000000" fill-rule="nonzero" fill-opacity="1" /><path clip-path="url(#clip630)" d="M128.502 1276.04 Q124.891 1276.04 123.062 1279.61 Q121.257 1283.15 121.257 1290.28 Q121.257 1297.38 123.062 1300.95 Q124.891 1304.49 128.502 1304.49 Q132.136 1304.49 133.942 1300.95 Q135.771 1297.38 135.771 1290.28 Q135.771 1283.15 133.942 1279.61 Q132.136 1276.04 128.502 1276.04 M128.502 1272.34 Q134.312 1272.34 137.368 1276.94 Q140.447 1281.53 140.447 1290.28 Q140.447 1299 137.368 1303.61 Q134.312 1308.19 128.502 1308.19 Q122.692 1308.19 119.613 1303.61 Q116.558 1299 116.558 1290.28 Q116.558 1281.53 119.613 1276.94 Q122.692 1272.34 128.502 1272.34 Z" fill="#000000" fill-rule="nonzero" fill-opacity="1" /><path clip-path="url(#clip630)" d="M158.664 1276.04 Q155.053 1276.04 153.224 1279.61 Q151.419 1283.15 151.419 1290.28 Q151.419 1297.38 153.224 1300.95 Q155.053 1304.49 158.664 1304.49 Q162.298 1304.49 164.104 1300.95 Q165.933 1297.38 165.933 1290.28 Q165.933 1283.15 164.104 1279.61 Q162.298 1276.04 158.664 1276.04 M158.664 1272.34 Q164.474 1272.34 167.53 1276.94 Q170.609 1281.53 170.609 1290.28 Q170.609 1299 167.53 1303.61 Q164.474 1308.19 158.664 1308.19 Q152.854 1308.19 149.775 1303.61 Q146.72 1299 146.72 1290.28 Q146.72 1281.53 149.775 1276.94 Q152.854 1272.34 158.664 1272.34 Z" fill="#000000" fill-rule="nonzero" fill-opacity="1" /><path clip-path="url(#clip630)" d="M158.664 1197.18 Q155.053 1197.18 153.224 1200.74 Q151.419 1204.29 151.419 1211.42 Q151.419 1218.52 153.224 1222.09 Q155.053 1225.63 158.664 1225.63 Q162.298 1225.63 164.104 1222.09 Q165.933 1218.52 165.933 1211.42 Q165.933 1204.29 164.104 1200.74 Q162.298 1197.18 158.664 1197.18 M158.664 1193.48 Q164.474 1193.48 167.53 1198.08 Q170.609 1202.67 170.609 1211.42 Q170.609 1220.14 167.53 1224.75 Q164.474 1229.33 158.664 1229.33 Q152.854 1229.33 149.775 1224.75 Q146.72 1220.14 146.72 1211.42 Q146.72 1202.67 149.775 1198.08 Q152.854 1193.48 158.664 1193.48 Z" fill="#000000" fill-rule="nonzero" fill-opacity="1" /><path clip-path="url(#clip630)" d="M92.3682 1145.86 L108.688 1145.86 L108.688 1149.8 L86.7432 1149.8 L86.7432 1145.86 Q89.4052 1143.11 93.9885 1138.48 Q98.595 1133.83 99.7756 1132.48 Q102.021 1129.96 102.901 1128.23 Q103.803 1126.47 103.803 1124.78 Q103.803 1122.02 101.859 1120.29 Q99.9376 1118.55 96.8358 1118.55 Q94.6367 1118.55 92.183 1119.31 Q89.7525 1120.08 86.9747 1121.63 L86.9747 1116.91 Q89.7988 1115.77 92.2524 1115.19 Q94.7061 1114.61 96.7432 1114.61 Q102.114 1114.61 105.308 1117.3 Q108.502 1119.99 108.502 1124.48 Q108.502 1126.61 107.692 1128.53 Q106.905 1130.42 104.799 1133.02 Q104.22 1133.69 101.118 1136.91 Q98.0163 1140.1 92.3682 1145.86 Z" fill="#000000" fill-rule="nonzero" fill-opacity="1" /><path clip-path="url(#clip630)" d="M128.502 1118.32 Q124.891 1118.32 123.062 1121.88 Q121.257 1125.42 121.257 1132.55 Q121.257 1139.66 123.062 1143.23 Q124.891 1146.77 128.502 1146.77 Q132.136 1146.77 133.942 1143.23 Q135.771 1139.66 135.771 1132.55 Q135.771 1125.42 133.942 1121.88 Q132.136 1118.32 128.502 1118.32 M128.502 1114.61 Q134.312 1114.61 137.368 1119.22 Q140.447 1123.8 140.447 1132.55 Q140.447 1141.28 137.368 1145.89 Q134.312 1150.47 128.502 1150.47 Q122.692 1150.47 119.613 1145.89 Q116.558 1141.28 116.558 1132.55 Q116.558 1123.8 119.613 1119.22 Q122.692 1114.61 128.502 1114.61 Z" fill="#000000" fill-rule="nonzero" fill-opacity="1" /><path clip-path="url(#clip630)" d="M158.664 1118.32 Q155.053 1118.32 153.224 1121.88 Q151.419 1125.42 151.419 1132.55 Q151.419 1139.66 153.224 1143.23 Q155.053 1146.77 158.664 1146.77 Q162.298 1146.77 164.104 1143.23 Q165.933 1139.66 165.933 1132.55 Q165.933 1125.42 164.104 1121.88 Q162.298 1118.32 158.664 1118.32 M158.664 1114.61 Q164.474 1114.61 167.53 1119.22 Q170.609 1123.8 170.609 1132.55 Q170.609 1141.28 167.53 1145.89 Q164.474 1150.47 158.664 1150.47 Q152.854 1150.47 149.775 1145.89 Q146.72 1141.28 146.72 1132.55 Q146.72 1123.8 149.775 1119.22 Q152.854 1114.61 158.664 1114.61 Z" fill="#000000" fill-rule="nonzero" fill-opacity="1" /><path clip-path="url(#clip630)" d="M101.188 1040.45 L89.3821 1058.9 L101.188 1058.9 L101.188 1040.45 M99.9607 1036.38 L105.84 1036.38 L105.84 1058.9 L110.771 1058.9 L110.771 1062.79 L105.84 1062.79 L105.84 1070.94 L101.188 1070.94 L101.188 1062.79 L85.5858 1062.79 L85.5858 1058.28 L99.9607 1036.38 Z" fill="#000000" fill-rule="nonzero" fill-opacity="1" /><path clip-path="url(#clip630)" d="M128.502 1039.46 Q124.891 1039.46 123.062 1043.02 Q121.257 1046.56 121.257 1053.69 Q121.257 1060.8 123.062 1064.36 Q124.891 1067.91 128.502 1067.91 Q132.136 1067.91 133.942 1064.36 Q135.771 1060.8 135.771 1053.69 Q135.771 1046.56 133.942 1043.02 Q132.136 1039.46 128.502 1039.46 M128.502 1035.75 Q134.312 1035.75 137.368 1040.36 Q140.447 1044.94 140.447 1053.69 Q140.447 1062.42 137.368 1067.03 Q134.312 1071.61 128.502 1071.61 Q122.692 1071.61 119.613 1067.03 Q116.558 1062.42 116.558 1053.69 Q116.558 1044.94 119.613 1040.36 Q122.692 1035.75 128.502 1035.75 Z" fill="#000000" fill-rule="nonzero" fill-opacity="1" /><path clip-path="url(#clip630)" d="M158.664 1039.46 Q155.053 1039.46 153.224 1043.02 Q151.419 1046.56 151.419 1053.69 Q151.419 1060.8 153.224 1064.36 Q155.053 1067.91 158.664 1067.91 Q162.298 1067.91 164.104 1064.36 Q165.933 1060.8 165.933 1053.69 Q165.933 1046.56 164.104 1043.02 Q162.298 1039.46 158.664 1039.46 M158.664 1035.75 Q164.474 1035.75 167.53 1040.36 Q170.609 1044.94 170.609 1053.69 Q170.609 1062.42 167.53 1067.03 Q164.474 1071.61 158.664 1071.61 Q152.854 1071.61 149.775 1067.03 Q146.72 1062.42 146.72 1053.69 Q146.72 1044.94 149.775 1040.36 Q152.854 1035.75 158.664 1035.75 Z" fill="#000000" fill-rule="nonzero" fill-opacity="1" /><path clip-path="url(#clip630)" d="M98.9191 972.934 Q95.7709 972.934 93.9191 975.086 Q92.0904 977.239 92.0904 980.989 Q92.0904 984.716 93.9191 986.892 Q95.7709 989.045 98.9191 989.045 Q102.067 989.045 103.896 986.892 Q105.748 984.716 105.748 980.989 Q105.748 977.239 103.896 975.086 Q102.067 972.934 98.9191 972.934 M108.201 958.281 L108.201 962.54 Q106.442 961.707 104.637 961.267 Q102.854 960.827 101.095 960.827 Q96.4654 960.827 94.0117 963.952 Q91.5812 967.077 91.2339 973.397 Q92.5997 971.383 94.6598 970.318 Q96.72 969.23 99.1969 969.23 Q104.405 969.23 107.414 972.401 Q110.447 975.549 110.447 980.989 Q110.447 986.313 107.299 989.531 Q104.151 992.748 98.9191 992.748 Q92.9237 992.748 89.7525 988.165 Q86.5812 983.559 86.5812 974.832 Q86.5812 966.637 90.47 961.776 Q94.3589 956.892 100.91 956.892 Q102.669 956.892 104.451 957.239 Q106.257 957.586 108.201 958.281 Z" fill="#000000" fill-rule="nonzero" fill-opacity="1" /><path clip-path="url(#clip630)" d="M128.502 960.596 Q124.891 960.596 123.062 964.161 Q121.257 967.702 121.257 974.832 Q121.257 981.938 123.062 985.503 Q124.891 989.045 128.502 989.045 Q132.136 989.045 133.942 985.503 Q135.771 981.938 135.771 974.832 Q135.771 967.702 133.942 964.161 Q132.136 960.596 128.502 960.596 M128.502 956.892 Q134.312 956.892 137.368 961.498 Q140.447 966.082 140.447 974.832 Q140.447 983.559 137.368 988.165 Q134.312 992.748 128.502 992.748 Q122.692 992.748 119.613 988.165 Q116.558 983.559 116.558 974.832 Q116.558 966.082 119.613 961.498 Q122.692 956.892 128.502 956.892 Z" fill="#000000" fill-rule="nonzero" fill-opacity="1" /><path clip-path="url(#clip630)" d="M158.664 960.596 Q155.053 960.596 153.224 964.161 Q151.419 967.702 151.419 974.832 Q151.419 981.938 153.224 985.503 Q155.053 989.045 158.664 989.045 Q162.298 989.045 164.104 985.503 Q165.933 981.938 165.933 974.832 Q165.933 967.702 164.104 964.161 Q162.298 960.596 158.664 960.596 M158.664 956.892 Q164.474 956.892 167.53 961.498 Q170.609 966.082 170.609 974.832 Q170.609 983.559 167.53 988.165 Q164.474 992.748 158.664 992.748 Q152.854 992.748 149.775 988.165 Q146.72 983.559 146.72 974.832 Q146.72 966.082 149.775 961.498 Q152.854 956.892 158.664 956.892 Z" fill="#000000" fill-rule="nonzero" fill-opacity="1" /><path clip-path="url(#clip630)" d="M715.919 812.096 L728.113 812.096 L743.547 853.253 L759.062 812.096 L771.255 812.096 L771.255 872.576 L763.274 872.576 L763.274 819.469 L747.678 860.95 L739.455 860.95 L723.859 819.469 L723.859 872.576 L715.919 872.576 L715.919 812.096 Z" fill="#000000" fill-rule="nonzero" fill-opacity="1" /><path clip-path="url(#clip630)" d="M807.794 849.769 Q798.76 849.769 795.277 851.835 Q791.793 853.901 791.793 858.884 Q791.793 862.854 794.385 865.203 Q797.019 867.512 801.515 867.512 Q807.713 867.512 811.44 863.137 Q815.207 858.722 815.207 851.43 L815.207 849.769 L807.794 849.769 M822.661 846.691 L822.661 872.576 L815.207 872.576 L815.207 865.689 Q812.655 869.821 808.847 871.806 Q805.039 873.751 799.53 873.751 Q792.563 873.751 788.431 869.862 Q784.339 865.933 784.339 859.37 Q784.339 851.714 789.443 847.825 Q794.588 843.936 804.756 843.936 L815.207 843.936 L815.207 843.207 Q815.207 838.062 811.804 835.267 Q808.442 832.432 802.325 832.432 Q798.436 832.432 794.75 833.363 Q791.064 834.295 787.661 836.158 L787.661 829.272 Q791.752 827.692 795.601 826.922 Q799.449 826.112 803.095 826.112 Q812.939 826.112 817.8 831.216 Q822.661 836.32 822.661 846.691 Z" fill="#000000" fill-rule="nonzero" fill-opacity="1" /><path clip-path="url(#clip630)" d="M875.728 827.206 L859.321 849.283 L876.578 872.576 L867.788 872.576 L854.582 854.752 L841.376 872.576 L832.585 872.576 L850.207 848.838 L834.084 827.206 L842.875 827.206 L854.906 843.369 L866.937 827.206 L875.728 827.206 Z" fill="#000000" fill-rule="nonzero" fill-opacity="1" /><path clip-path="url(#clip630)" d="M913.806 812.096 L925.999 812.096 L941.433 853.253 L956.948 812.096 L969.141 812.096 L969.141 872.576 L961.161 872.576 L961.161 819.469 L945.565 860.95 L937.342 860.95 L921.746 819.469 L921.746 872.576 L913.806 872.576 L913.806 812.096 Z" fill="#000000" fill-rule="nonzero" fill-opacity="1" /><path clip-path="url(#clip630)" d="M1002.64 832.432 Q996.647 832.432 993.163 837.131 Q989.68 841.789 989.68 849.931 Q989.68 858.074 993.123 862.773 Q996.607 867.431 1002.64 867.431 Q1008.6 867.431 1012.08 862.732 Q1015.56 858.033 1015.56 849.931 Q1015.56 841.87 1012.08 837.171 Q1008.6 832.432 1002.64 832.432 M1002.64 826.112 Q1012.36 826.112 1017.91 832.432 Q1023.46 838.751 1023.46 849.931 Q1023.46 861.071 1017.91 867.431 Q1012.36 873.751 1002.64 873.751 Q992.88 873.751 987.33 867.431 Q981.821 861.071 981.821 849.931 Q981.821 838.751 987.33 832.432 Q992.88 826.112 1002.64 826.112 Z" fill="#000000" fill-rule="nonzero" fill-opacity="1" /><path clip-path="url(#clip630)" d="M1071.14 835.915 Q1073.94 830.892 1077.83 828.502 Q1081.72 826.112 1086.98 826.112 Q1094.07 826.112 1097.92 831.095 Q1101.77 836.037 1101.77 845.192 L1101.77 872.576 L1094.27 872.576 L1094.27 845.435 Q1094.27 838.913 1091.96 835.753 Q1089.66 832.594 1084.92 832.594 Q1079.12 832.594 1075.76 836.442 Q1072.4 840.29 1072.4 846.934 L1072.4 872.576 L1064.9 872.576 L1064.9 845.435 Q1064.9 838.872 1062.6 835.753 Q1060.29 832.594 1055.47 832.594 Q1049.75 832.594 1046.39 836.482 Q1043.03 840.331 1043.03 846.934 L1043.03 872.576 L1035.54 872.576 L1035.54 827.206 L1043.03 827.206 L1043.03 834.254 Q1045.58 830.082 1049.15 828.097 Q1052.71 826.112 1057.61 826.112 Q1062.56 826.112 1066 828.624 Q1069.48 831.135 1071.14 835.915 Z" fill="#000000" fill-rule="nonzero" fill-opacity="1" /><path clip-path="url(#clip630)" d="M1155.44 848.028 L1155.44 851.673 L1121.17 851.673 Q1121.66 859.37 1125.79 863.421 Q1129.96 867.431 1137.38 867.431 Q1141.67 867.431 1145.68 866.378 Q1149.73 865.325 1153.7 863.218 L1153.7 870.267 Q1149.69 871.968 1145.48 872.86 Q1141.26 873.751 1136.93 873.751 Q1126.07 873.751 1119.71 867.431 Q1113.39 861.112 1113.39 850.337 Q1113.39 839.197 1119.39 832.675 Q1125.43 826.112 1135.63 826.112 Q1144.79 826.112 1150.1 832.026 Q1155.44 837.9 1155.44 848.028 M1147.99 845.84 Q1147.91 839.723 1144.55 836.077 Q1141.22 832.432 1135.71 832.432 Q1129.48 832.432 1125.71 835.956 Q1121.98 839.48 1121.41 845.881 L1147.99 845.84 Z" fill="#000000" fill-rule="nonzero" fill-opacity="1" /><path clip-path="url(#clip630)" d="M1205.39 845.192 L1205.39 872.576 L1197.94 872.576 L1197.94 845.435 Q1197.94 838.994 1195.42 835.794 Q1192.91 832.594 1187.89 832.594 Q1181.85 832.594 1178.37 836.442 Q1174.89 840.29 1174.89 846.934 L1174.89 872.576 L1167.39 872.576 L1167.39 827.206 L1174.89 827.206 L1174.89 834.254 Q1177.56 830.163 1181.17 828.138 Q1184.81 826.112 1189.55 826.112 Q1197.37 826.112 1201.38 830.973 Q1205.39 835.794 1205.39 845.192 Z" fill="#000000" fill-rule="nonzero" fill-opacity="1" /><path clip-path="url(#clip630)" d="M1227.63 814.324 L1227.63 827.206 L1242.98 827.206 L1242.98 832.999 L1227.63 832.999 L1227.63 857.628 Q1227.63 863.178 1229.13 864.758 Q1230.67 866.338 1235.33 866.338 L1242.98 866.338 L1242.98 872.576 L1235.33 872.576 Q1226.7 872.576 1223.42 869.376 Q1220.14 866.135 1220.14 857.628 L1220.14 832.999 L1214.67 832.999 L1214.67 827.206 L1220.14 827.206 L1220.14 814.324 L1227.63 814.324 Z" fill="#000000" fill-rule="nonzero" fill-opacity="1" /><path clip-path="url(#clip630)" d="M1279.48 812.096 L1317.72 812.096 L1317.72 818.983 L1287.66 818.983 L1287.66 836.888 L1316.47 836.888 L1316.47 843.774 L1287.66 843.774 L1287.66 865.689 L1318.45 865.689 L1318.45 872.576 L1279.48 872.576 L1279.48 812.096 Z" fill="#000000" fill-rule="nonzero" fill-opacity="1" /><path clip-path="url(#clip630)" d="M1369.29 845.192 L1369.29 872.576 L1361.84 872.576 L1361.84 845.435 Q1361.84 838.994 1359.32 835.794 Q1356.81 832.594 1351.79 832.594 Q1345.75 832.594 1342.27 836.442 Q1338.79 840.29 1338.79 846.934 L1338.79 872.576 L1331.29 872.576 L1331.29 827.206 L1338.79 827.206 L1338.79 834.254 Q1341.46 830.163 1345.07 828.138 Q1348.71 826.112 1353.45 826.112 Q1361.27 826.112 1365.28 830.973 Q1369.29 835.794 1369.29 845.192 Z" fill="#000000" fill-rule="nonzero" fill-opacity="1" /><path clip-path="url(#clip630)" d="M1378.81 827.206 L1386.71 827.206 L1400.89 865.284 L1415.06 827.206 L1422.96 827.206 L1405.95 872.576 L1395.82 872.576 L1378.81 827.206 Z" fill="#000000" fill-rule="nonzero" fill-opacity="1" /><path clip-path="url(#clip630)" d="M1472.06 848.028 L1472.06 851.673 L1437.79 851.673 Q1438.28 859.37 1442.41 863.421 Q1446.58 867.431 1453.99 867.431 Q1458.29 867.431 1462.3 866.378 Q1466.35 865.325 1470.32 863.218 L1470.32 870.267 Q1466.31 871.968 1462.1 872.86 Q1457.88 873.751 1453.55 873.751 Q1442.69 873.751 1436.33 867.431 Q1430.01 861.112 1430.01 850.337 Q1430.01 839.197 1436.01 832.675 Q1442.04 826.112 1452.25 826.112 Q1461.41 826.112 1466.71 832.026 Q1472.06 837.9 1472.06 848.028 M1464.61 845.84 Q1464.53 839.723 1461.16 836.077 Q1457.84 832.432 1452.33 832.432 Q1446.09 832.432 1442.33 835.956 Q1438.6 839.48 1438.03 845.881 L1464.61 845.84 Z" fill="#000000" fill-rule="nonzero" fill-opacity="1" /><path clip-path="url(#clip630)" d="M1484.29 809.544 L1491.75 809.544 L1491.75 872.576 L1484.29 872.576 L1484.29 809.544 Z" fill="#000000" fill-rule="nonzero" fill-opacity="1" /><path clip-path="url(#clip630)" d="M1524.93 832.432 Q1518.93 832.432 1515.45 837.131 Q1511.96 841.789 1511.96 849.931 Q1511.96 858.074 1515.41 862.773 Q1518.89 867.431 1524.93 867.431 Q1530.88 867.431 1534.36 862.732 Q1537.85 858.033 1537.85 849.931 Q1537.85 841.87 1534.36 837.171 Q1530.88 832.432 1524.93 832.432 M1524.93 826.112 Q1534.65 826.112 1540.2 832.432 Q1545.75 838.751 1545.75 849.931 Q1545.75 861.071 1540.2 867.431 Q1534.65 873.751 1524.93 873.751 Q1515.16 873.751 1509.61 867.431 Q1504.1 861.071 1504.1 849.931 Q1504.1 838.751 1509.61 832.432 Q1515.16 826.112 1524.93 826.112 Z" fill="#000000" fill-rule="nonzero" fill-opacity="1" /><path clip-path="url(#clip630)" d="M1565.31 865.77 L1565.31 889.833 L1557.82 889.833 L1557.82 827.206 L1565.31 827.206 L1565.31 834.092 Q1567.66 830.042 1571.23 828.097 Q1574.83 826.112 1579.82 826.112 Q1588.08 826.112 1593.22 832.675 Q1598.41 839.237 1598.41 849.931 Q1598.41 860.626 1593.22 867.188 Q1588.08 873.751 1579.82 873.751 Q1574.83 873.751 1571.23 871.806 Q1567.66 869.821 1565.31 865.77 M1590.67 849.931 Q1590.67 841.708 1587.27 837.05 Q1583.91 832.351 1577.99 832.351 Q1572.08 832.351 1568.68 837.05 Q1565.31 841.708 1565.31 849.931 Q1565.31 858.155 1568.68 862.854 Q1572.08 867.512 1577.99 867.512 Q1583.91 867.512 1587.27 862.854 Q1590.67 858.155 1590.67 849.931 Z" fill="#000000" fill-rule="nonzero" fill-opacity="1" /><path clip-path="url(#clip630)" d="M1649.57 848.028 L1649.57 851.673 L1615.3 851.673 Q1615.79 859.37 1619.92 863.421 Q1624.09 867.431 1631.5 867.431 Q1635.8 867.431 1639.81 866.378 Q1643.86 865.325 1647.83 863.218 L1647.83 870.267 Q1643.82 871.968 1639.61 872.86 Q1635.39 873.751 1631.06 873.751 Q1620.2 873.751 1613.84 867.431 Q1607.52 861.112 1607.52 850.337 Q1607.52 839.197 1613.52 832.675 Q1619.55 826.112 1629.76 826.112 Q1638.92 826.112 1644.22 832.026 Q1649.57 837.9 1649.57 848.028 M1642.12 845.84 Q1642.04 839.723 1638.67 836.077 Q1635.35 832.432 1629.84 832.432 Q1623.61 832.432 1619.84 835.956 Q1616.11 839.48 1615.54 845.881 L1642.12 845.84 Z" fill="#000000" fill-rule="nonzero" fill-opacity="1" /><path clip-path="url(#clip630)" d="M1706.08 809.625 Q1700.65 818.942 1698.02 828.057 Q1695.39 837.171 1695.39 846.529 Q1695.39 855.886 1698.02 865.082 Q1700.69 874.237 1706.08 883.513 L1699.6 883.513 Q1693.52 873.994 1690.49 864.798 Q1687.49 855.603 1687.49 846.529 Q1687.49 837.495 1690.49 828.34 Q1693.48 819.185 1699.6 809.625 L1706.08 809.625 Z" fill="#000000" fill-rule="nonzero" fill-opacity="1" /><path clip-path="url(#clip630)" d="M1757.12 814.081 L1757.12 822.061 Q1752.46 819.833 1748.33 818.739 Q1744.2 817.646 1740.35 817.646 Q1733.67 817.646 1730.02 820.238 Q1726.42 822.831 1726.42 827.611 Q1726.42 831.621 1728.81 833.687 Q1731.24 835.713 1737.96 836.969 L1742.9 837.981 Q1752.06 839.723 1756.39 844.139 Q1760.77 848.514 1760.77 855.886 Q1760.77 864.677 1754.85 869.214 Q1748.98 873.751 1737.6 873.751 Q1733.3 873.751 1728.44 872.779 Q1723.62 871.806 1718.44 869.902 L1718.44 861.477 Q1723.42 864.272 1728.2 865.689 Q1732.98 867.107 1737.6 867.107 Q1744.61 867.107 1748.41 864.353 Q1752.22 861.598 1752.22 856.494 Q1752.22 852.038 1749.47 849.526 Q1746.75 847.015 1740.51 845.759 L1735.53 844.787 Q1726.38 842.964 1722.29 839.075 Q1718.19 835.186 1718.19 828.259 Q1718.19 820.238 1723.82 815.62 Q1729.5 811.002 1739.42 811.002 Q1743.67 811.002 1748.09 811.772 Q1752.51 812.542 1757.12 814.081 Z" fill="#000000" fill-rule="nonzero" fill-opacity="1" /><path clip-path="url(#clip630)" d="M1765.14 812.096 L1816.31 812.096 L1816.31 818.983 L1794.84 818.983 L1794.84 872.576 L1786.61 872.576 L1786.61 818.983 L1765.14 818.983 L1765.14 812.096 Z" fill="#000000" fill-rule="nonzero" fill-opacity="1" /><path clip-path="url(#clip630)" d="M1852.89 844.22 Q1855.52 845.111 1857.99 848.028 Q1860.5 850.944 1863.01 856.048 L1871.32 872.576 L1862.53 872.576 L1854.79 857.061 Q1851.79 850.985 1848.96 849 Q1846.16 847.015 1841.3 847.015 L1832.39 847.015 L1832.39 872.576 L1824.21 872.576 L1824.21 812.096 L1842.68 812.096 Q1853.05 812.096 1858.15 816.43 Q1863.26 820.765 1863.26 829.515 Q1863.26 835.227 1860.58 838.994 Q1857.95 842.761 1852.89 844.22 M1832.39 818.821 L1832.39 840.29 L1842.68 840.29 Q1848.59 840.29 1851.59 837.576 Q1854.63 834.822 1854.63 829.515 Q1854.63 824.208 1851.59 821.535 Q1848.59 818.821 1842.68 818.821 L1832.39 818.821 Z" fill="#000000" fill-rule="nonzero" fill-opacity="1" /><path clip-path="url(#clip630)" d="M1880.35 809.625 L1886.83 809.625 Q1892.91 819.185 1895.91 828.34 Q1898.95 837.495 1898.95 846.529 Q1898.95 855.603 1895.91 864.798 Q1892.91 873.994 1886.83 883.513 L1880.35 883.513 Q1885.74 874.237 1888.37 865.082 Q1891.05 855.886 1891.05 846.529 Q1891.05 837.171 1888.37 828.057 Q1885.74 818.942 1880.35 809.625 Z" fill="#000000" fill-rule="nonzero" fill-opacity="1" /><path clip-path="url(#clip633)" d="M275.768 1211.38 L299.215 1211.51 L322.662 1211.88 L346.109 1212.51 L369.556 1213.39 L393.003 1248.03 L416.45 1282.91 L439.897 1318.05 L463.344 1353.44 L486.791 1322.2 L510.237 1287.81 L533.684 1252.88 L557.131 1217.74 L580.578 1182.85 L604.025 1147.6 L627.472 1111.88 L650.919 1075.69 L674.366 1039.33 L697.813 1003.06 L721.26 966.288 L744.707 929.707 L768.153 970.904 L791.6 1012.27 L815.047 1053.57 L838.494 1094.95 L861.941 1136.35 L885.388 1176.84 L908.835 1212.7 L932.282 1245.91 L955.729 1269.54 L979.176 1290.28 L1002.62 1311.27 L1026.07 1332.51 L1049.52 1293.97 L1072.96 1254.19 L1096.41 1184.02 L1119.86 1108.81 L1143.3 1108.94 L1166.75 1109.13 L1190.2 1109.32 L1213.64 1109.63 L1237.09 1110.1 L1260.54 1110.81 L1283.99 1111.77 L1307.43 1112.15 L1330.88 1111.77 L1354.33 1110.8 L1377.77 1110.08 L1401.22 1109.6 L1424.67 1109.33 L1448.11 1109.14 L1471.56 1108.94 L1495.01 1108.82 L1518.45 1184.02 L1541.9 1254.18 L1565.35 1293.97 L1588.8 1332.51 L1612.24 1311.27 L1635.69 1290.28 L1659.14 1269.54 L1682.58 1245.9 L1706.03 1212.69 L1729.48 1176.84 L1752.92 1136.35 L1776.37 1094.95 L1799.82 1053.58 L1823.26 1012.27 L1846.71 970.908 L1870.16 929.717 L1893.61 966.306 L1917.05 1003.06 L1940.5 1039.33 L1963.95 1075.71 L1987.39 1111.86 L2010.84 1147.6 L2034.29 1182.84 L2057.73 1217.75 L2081.18 1252.9 L2104.63 1287.8 L2128.07 1322.2 L2151.52 1353.44 L2174.97 1318.05 L2198.42 1282.91 L2221.86 1248.03 L2245.31 1213.39 L2268.76 1212.51 L2292.2 1211.88 L2315.65 1211.51 L2339.1 1211.38 L2339.1 1211.38 L2315.65 1211.38 L2292.2 1211.38 L2268.76 1211.38 L2245.31 1211.38 L2221.86 1211.38 L2198.42 1211.38 L2174.97 1211.38 L2151.52 1211.38 L2128.07 1211.38 L2104.63 1211.38 L2081.18 1211.38 L2057.73 1211.38 L2034.29 1211.38 L2010.84 1211.38 L1987.39 1211.38 L1963.95 1211.38 L1940.5 1211.38 L1917.05 1211.38 L1893.61 1211.38 L1870.16 1211.38 L1846.71 1211.38 L1823.26 1211.38 L1799.82 1211.38 L1776.37 1211.38 L1752.92 1211.38 L1729.48 1211.38 L1706.03 1211.38 L1682.58 1211.38 L1659.14 1211.38 L1635.69 1211.38 L1612.24 1211.38 L1588.8 1211.38 L1565.35 1211.38 L1541.9 1211.38 L1518.45 1211.38 L1495.01 1211.38 L1471.56 1211.38 L1448.11 1211.38 L1424.67 1211.38 L1401.22 1211.38 L1377.77 1211.38 L1354.33 1211.38 L1330.88 1211.38 L1307.43 1211.38 L1283.99 1211.38 L1260.54 1211.38 L1237.09 1211.38 L1213.64 1211.38 L1190.2 1211.38 L1166.75 1211.38 L1143.3 1211.38 L1119.86 1211.38 L1096.41 1211.38 L1072.96 1211.38 L1049.52 1211.38 L1026.07 1211.38 L1002.62 1211.38 L979.176 1211.38 L955.729 1211.38 L932.282 1211.38 L908.835 1211.38 L885.388 1211.38 L861.941 1211.38 L838.494 1211.38 L815.047 1211.38 L791.6 1211.38 L768.153 1211.38 L744.707 1211.38 L721.26 1211.38 L697.813 1211.38 L674.366 1211.38 L650.919 1211.38 L627.472 1211.38 L604.025 1211.38 L580.578 1211.38 L557.131 1211.38 L533.684 1211.38 L510.237 1211.38 L486.791 1211.38 L463.344 1211.38 L439.897 1211.38 L416.45 1211.38 L393.003 1211.38 L369.556 1211.38 L346.109 1211.38 L322.662 1211.38 L299.215 1211.38 L275.768 1211.38  Z" fill="#0000ff" fill-rule="evenodd" fill-opacity="0.5"/>
<polyline clip-path="url(#clip633)" style="stroke:#0000ff; stroke-linecap:round; stroke-linejoin:round; stroke-width:4; stroke-opacity:1; fill:none" points="275.768,1211.38 299.215,1211.51 322.662,1211.88 346.109,1212.51 369.556,1213.39 393.003,1248.03 416.45,1282.91 439.897,1318.05 463.344,1353.44 486.791,1322.2 510.237,1287.81 533.684,1252.88 557.131,1217.74 580.578,1182.85 604.025,1147.6 627.472,1111.88 650.919,1075.69 674.366,1039.33 697.813,1003.06 721.26,966.288 744.707,929.707 768.153,970.904 791.6,1012.27 815.047,1053.57 838.494,1094.95 861.941,1136.35 885.388,1176.84 908.835,1212.7 932.282,1245.91 955.729,1269.54 979.176,1290.28 1002.62,1311.27 1026.07,1332.51 1049.52,1293.97 1072.96,1254.19 1096.41,1184.02 1119.86,1108.81 1143.3,1108.94 1166.75,1109.13 1190.2,1109.32 1213.64,1109.63 1237.09,1110.1 1260.54,1110.81 1283.99,1111.77 1307.43,1112.15 1330.88,1111.77 1354.33,1110.8 1377.77,1110.08 1401.22,1109.6 1424.67,1109.33 1448.11,1109.14 1471.56,1108.94 1495.01,1108.82 1518.45,1184.02 1541.9,1254.18 1565.35,1293.97 1588.8,1332.51 1612.24,1311.27 1635.69,1290.28 1659.14,1269.54 1682.58,1245.9 1706.03,1212.69 1729.48,1176.84 1752.92,1136.35 1776.37,1094.95 1799.82,1053.58 1823.26,1012.27 1846.71,970.908 1870.16,929.717 1893.61,966.306 1917.05,1003.06 1940.5,1039.33 1963.95,1075.71 1987.39,1111.86 2010.84,1147.6 2034.29,1182.84 2057.73,1217.75 2081.18,1252.9 2104.63,1287.8 2128.07,1322.2 2151.52,1353.44 2174.97,1318.05 2198.42,1282.91 2221.86,1248.03 2245.31,1213.39 2268.76,1212.51 2292.2,1211.88 2315.65,1211.51 2339.1,1211.38 "/>
<path clip-path="url(#clip633)" d="M275.768 1211.38 L299.215 1211.51 L322.662 1211.88 L346.109 1212.51 L369.556 1213.39 L393.003 1278.52 L416.45 1343.89 L439.897 1409.52 L463.344 1475.4 L486.791 1434.85 L510.237 1394.56 L533.684 1354.51 L557.131 1314.72 L580.578 1279.23 L604.025 1244.81 L627.472 1216.81 L650.919 1198.29 L674.366 1180.03 L697.813 1162.02 L721.26 1144.26 L744.707 1126.74 L768.153 1148.22 L791.6 1169.94 L815.047 1192.03 L838.494 1214.64 L861.941 1237.61 L885.388 1261.15 L908.835 1284.94 L932.282 1309.04 L955.729 1344.63 L979.176 1386.3 L1002.62 1428.23 L1026.07 1470.41 L1049.52 1394.47 L1072.96 1327.72 L1096.41 1274.32 L1119.86 1224.72 L1143.3 1220.04 L1166.75 1215.61 L1190.2 1212.38 L1213.64 1211.24 L1237.09 1210.36 L1260.54 1209.74 L1283.99 1209.36 L1307.43 1209.23 L1330.88 1209.36 L1354.33 1209.74 L1377.77 1210.36 L1401.22 1211.24 L1424.67 1212.38 L1448.11 1215.61 L1471.56 1220.04 L1495.01 1224.72 L1518.45 1274.31 L1541.9 1327.71 L1565.35 1394.47 L1588.8 1470.41 L1612.24 1428.23 L1635.69 1386.3 L1659.14 1344.63 L1682.58 1309.04 L1706.03 1284.96 L1729.48 1261.16 L1752.92 1237.61 L1776.37 1214.64 L1799.82 1192.04 L1823.26 1169.94 L1846.71 1148.21 L1870.16 1126.73 L1893.61 1144.24 L1917.05 1162.01 L1940.5 1180.02 L1963.95 1198.29 L1987.39 1217.15 L2010.84 1250.44 L2034.29 1283.99 L2057.73 1319.38 L2081.18 1358.12 L2104.63 1397.12 L2128.07 1436.36 L2151.52 1475.86 L2174.97 1409.87 L2198.42 1344.12 L2221.86 1278.63 L2245.31 1213.39 L2268.76 1212.51 L2292.2 1211.88 L2315.65 1211.51 L2339.1 1211.38 L2339.1 1211.38 L2315.65 1211.38 L2292.2 1211.38 L2268.76 1211.38 L2245.31 1211.38 L2221.86 1211.38 L2198.42 1211.38 L2174.97 1211.38 L2151.52 1211.38 L2128.07 1211.38 L2104.63 1211.38 L2081.18 1211.38 L2057.73 1211.38 L2034.29 1211.38 L2010.84 1211.38 L1987.39 1211.38 L1963.95 1211.38 L1940.5 1211.38 L1917.05 1211.38 L1893.61 1211.38 L1870.16 1211.38 L1846.71 1211.38 L1823.26 1211.38 L1799.82 1211.38 L1776.37 1211.38 L1752.92 1211.38 L1729.48 1211.38 L1706.03 1211.38 L1682.58 1211.38 L1659.14 1211.38 L1635.69 1211.38 L1612.24 1211.38 L1588.8 1211.38 L1565.35 1211.38 L1541.9 1211.38 L1518.45 1211.38 L1495.01 1211.38 L1471.56 1211.38 L1448.11 1211.38 L1424.67 1211.38 L1401.22 1211.38 L1377.77 1211.38 L1354.33 1211.38 L1330.88 1211.38 L1307.43 1211.38 L1283.99 1211.38 L1260.54 1211.38 L1237.09 1211.38 L1213.64 1211.38 L1190.2 1211.38 L1166.75 1211.38 L1143.3 1211.38 L1119.86 1211.38 L1096.41 1211.38 L1072.96 1211.38 L1049.52 1211.38 L1026.07 1211.38 L1002.62 1211.38 L979.176 1211.38 L955.729 1211.38 L932.282 1211.38 L908.835 1211.38 L885.388 1211.38 L861.941 1211.38 L838.494 1211.38 L815.047 1211.38 L791.6 1211.38 L768.153 1211.38 L744.707 1211.38 L721.26 1211.38 L697.813 1211.38 L674.366 1211.38 L650.919 1211.38 L627.472 1211.38 L604.025 1211.38 L580.578 1211.38 L557.131 1211.38 L533.684 1211.38 L510.237 1211.38 L486.791 1211.38 L463.344 1211.38 L439.897 1211.38 L416.45 1211.38 L393.003 1211.38 L369.556 1211.38 L346.109 1211.38 L322.662 1211.38 L299.215 1211.38 L275.768 1211.38  Z" fill="#ff0000" fill-rule="evenodd" fill-opacity="0.5"/>
<polyline clip-path="url(#clip633)" style="stroke:#ff0000; stroke-linecap:round; stroke-linejoin:round; stroke-width:4; stroke-opacity:1; fill:none" points="275.768,1211.38 299.215,1211.51 322.662,1211.88 346.109,1212.51 369.556,1213.39 393.003,1278.52 416.45,1343.89 439.897,1409.52 463.344,1475.4 486.791,1434.85 510.237,1394.56 533.684,1354.51 557.131,1314.72 580.578,1279.23 604.025,1244.81 627.472,1216.81 650.919,1198.29 674.366,1180.03 697.813,1162.02 721.26,1144.26 744.707,1126.74 768.153,1148.22 791.6,1169.94 815.047,1192.03 838.494,1214.64 861.941,1237.61 885.388,1261.15 908.835,1284.94 932.282,1309.04 955.729,1344.63 979.176,1386.3 1002.62,1428.23 1026.07,1470.41 1049.52,1394.47 1072.96,1327.72 1096.41,1274.32 1119.86,1224.72 1143.3,1220.04 1166.75,1215.61 1190.2,1212.38 1213.64,1211.24 1237.09,1210.36 1260.54,1209.74 1283.99,1209.36 1307.43,1209.23 1330.88,1209.36 1354.33,1209.74 1377.77,1210.36 1401.22,1211.24 1424.67,1212.38 1448.11,1215.61 1471.56,1220.04 1495.01,1224.72 1518.45,1274.31 1541.9,1327.71 1565.35,1394.47 1588.8,1470.41 1612.24,1428.23 1635.69,1386.3 1659.14,1344.63 1682.58,1309.04 1706.03,1284.96 1729.48,1261.16 1752.92,1237.61 1776.37,1214.64 1799.82,1192.04 1823.26,1169.94 1846.71,1148.21 1870.16,1126.73 1893.61,1144.24 1917.05,1162.01 1940.5,1180.02 1963.95,1198.29 1987.39,1217.15 2010.84,1250.44 2034.29,1283.99 2057.73,1319.38 2081.18,1358.12 2104.63,1397.12 2128.07,1436.36 2151.52,1475.86 2174.97,1409.87 2198.42,1344.12 2221.86,1278.63 2245.31,1213.39 2268.76,1212.51 2292.2,1211.88 2315.65,1211.51 2339.1,1211.38 "/>
<path clip-path="url(#clip630)" d="M2488.43 1088.14 L2836.76 1088.14 L2836.76 932.62 L2488.43 932.62  Z" fill="#ffffff" fill-rule="evenodd" fill-opacity="1"/>
<polyline clip-path="url(#clip630)" style="stroke:#000000; stroke-linecap:round; stroke-linejoin:round; stroke-width:4; stroke-opacity:1; fill:none" points="2488.43,1088.14 2836.76,1088.14 2836.76,932.62 2488.43,932.62 2488.43,1088.14 "/>
<path clip-path="url(#clip630)" d="M2517.57 1005.2 L2692.43 1005.2 L2692.43 963.724 L2517.57 963.724 L2517.57 1005.2  Z" fill="#0000ff" fill-rule="evenodd" fill-opacity="0.5"/>
<polyline clip-path="url(#clip630)" style="stroke:#0000ff; stroke-linecap:round; stroke-linejoin:round; stroke-width:4; stroke-opacity:1; fill:none" points="2517.57,963.724 2692.43,963.724 "/>
<path clip-path="url(#clip630)" d="M2738.35 972.018 L2738.35 984.911 L2751.25 984.911 L2751.25 988.846 L2738.35 988.846 L2738.35 1001.74 L2734.46 1001.74 L2734.46 988.846 L2721.57 988.846 L2721.57 984.911 L2734.46 984.911 L2734.46 972.018 L2738.35 972.018 Z" fill="#000000" fill-rule="nonzero" fill-opacity="1" /><path clip-path="url(#clip630)" d="M2775.99 967.18 L2782.96 967.18 L2791.78 990.698 L2800.65 967.18 L2807.61 967.18 L2807.61 1001.74 L2803.05 1001.74 L2803.05 971.393 L2794.14 995.096 L2789.44 995.096 L2780.53 971.393 L2780.53 1001.74 L2775.99 1001.74 L2775.99 967.18 Z" fill="#000000" fill-rule="nonzero" fill-opacity="1" /><path clip-path="url(#clip630)" d="M2517.57 1057.04 L2692.43 1057.04 L2692.43 1015.56 L2517.57 1015.56 L2517.57 1057.04  Z" fill="#ff0000" fill-rule="evenodd" fill-opacity="0.5"/>
<polyline clip-path="url(#clip630)" style="stroke:#ff0000; stroke-linecap:round; stroke-linejoin:round; stroke-width:4; stroke-opacity:1; fill:none" points="2517.57,1015.56 2692.43,1015.56 "/>
<path clip-path="url(#clip630)" d="M2721.57 1038.7 L2734.05 1038.7 L2734.05 1042.49 L2721.57 1042.49 L2721.57 1038.7 Z" fill="#000000" fill-rule="nonzero" fill-opacity="1" /><path clip-path="url(#clip630)" d="M2756.09 1019.02 L2763.05 1019.02 L2771.87 1042.54 L2780.74 1019.02 L2787.71 1019.02 L2787.71 1053.58 L2783.15 1053.58 L2783.15 1023.23 L2774.23 1046.94 L2769.53 1046.94 L2760.62 1023.23 L2760.62 1053.58 L2756.09 1053.58 L2756.09 1019.02 Z" fill="#000000" fill-rule="nonzero" fill-opacity="1" /></svg>
