<?xml version="1.0" encoding="utf-8"?>
<svg xmlns="http://www.w3.org/2000/svg" xmlns:xlink="http://www.w3.org/1999/xlink" width="721" height="400" viewBox="0 0 2884 1600">
<defs>
  <clipPath id="clip870">
    <rect x="0" y="0" width="2884" height="1600"/>
  </clipPath>
</defs>
<path clip-path="url(#clip870)" d="M0 1600 L2884 1600 L2884 0 L0 0  Z" fill="#ffffff" fill-rule="evenodd" fill-opacity="1"/>
<defs>
  <clipPath id="clip871">
    <rect x="576" y="0" width="2020" height="1600"/>
  </clipPath>
</defs>
<path clip-path="url(#clip870)" d="M213.869 692.248 L2405.23 692.248 L2405.23 113.322 L213.869 113.322  Z" fill="#ffffff" fill-rule="evenodd" fill-opacity="1"/>
<defs>
  <clipPath id="clip872">
    <rect x="213" y="113" width="2192" height="580"/>
  </clipPath>
</defs>
<polyline clip-path="url(#clip872)" style="stroke:#000000; stroke-linecap:round; stroke-linejoin:round; stroke-width:2; stroke-opacity:0.1; fill:none" points="275.888,692.248 275.888,113.322 "/>
<polyline clip-path="url(#clip872)" style="stroke:#000000; stroke-linecap:round; stroke-linejoin:round; stroke-width:2; stroke-opacity:0.1; fill:none" points="745.735,692.248 745.735,113.322 "/>
<polyline clip-path="url(#clip872)" style="stroke:#000000; stroke-linecap:round; stroke-linejoin:round; stroke-width:2; stroke-opacity:0.1; fill:none" points="1215.58,692.248 1215.58,113.322 "/>
<polyline clip-path="url(#clip872)" style="stroke:#000000; stroke-linecap:round; stroke-linejoin:round; stroke-width:2; stroke-opacity:0.1; fill:none" points="1685.43,692.248 1685.43,113.322 "/>
<polyline clip-path="url(#clip872)" style="stroke:#000000; stroke-linecap:round; stroke-linejoin:round; stroke-width:2; stroke-opacity:0.1; fill:none" points="2155.27,692.248 2155.27,113.322 "/>
<polyline clip-path="url(#clip872)" style="stroke:#000000; stroke-linecap:round; stroke-linejoin:round; stroke-width:2; stroke-opacity:0.1; fill:none" points="213.869,670.634 2405.23,670.634 "/>
<polyline clip-path="url(#clip872)" style="stroke:#000000; stroke-linecap:round; stroke-linejoin:round; stroke-width:2; stroke-opacity:0.1; fill:none" points="213.869,536.71 2405.23,536.71 "/>
<polyline clip-path="url(#clip872)" style="stroke:#000000; stroke-linecap:round; stroke-linejoin:round; stroke-width:2; stroke-opacity:0.1; fill:none" points="213.869,402.785 2405.23,402.785 "/>
<polyline clip-path="url(#clip872)" style="stroke:#000000; stroke-linecap:round; stroke-linejoin:round; stroke-width:2; stroke-opacity:0.1; fill:none" points="213.869,268.86 2405.23,268.86 "/>
<polyline clip-path="url(#clip872)" style="stroke:#000000; stroke-linecap:round; stroke-linejoin:round; stroke-width:2; stroke-opacity:0.1; fill:none" points="213.869,134.936 2405.23,134.936 "/>
<polyline clip-path="url(#clip870)" style="stroke:#000000; stroke-linecap:round; stroke-linejoin:round; stroke-width:4; stroke-opacity:1; fill:none" points="213.869,692.248 2405.23,692.248 "/>
<polyline clip-path="url(#clip870)" style="stroke:#000000; stroke-linecap:round; stroke-linejoin:round; stroke-width:4; stroke-opacity:1; fill:none" points="275.888,692.248 275.888,673.35 "/>
<polyline clip-path="url(#clip870)" style="stroke:#000000; stroke-linecap:round; stroke-linejoin:round; stroke-width:4; stroke-opacity:1; fill:none" points="745.735,692.248 745.735,673.35 "/>
<polyline clip-path="url(#clip870)" style="stroke:#000000; stroke-linecap:round; stroke-linejoin:round; stroke-width:4; stroke-opacity:1; fill:none" points="1215.58,692.248 1215.58,673.35 "/>
<polyline clip-path="url(#clip870)" style="stroke:#000000; stroke-linecap:round; stroke-linejoin:round; stroke-width:4; stroke-opacity:1; fill:none" points="1685.43,692.248 1685.43,673.35 "/>
<polyline clip-path="url(#clip870)" style="stroke:#000000; stroke-linecap:round; stroke-linejoin:round; stroke-width:4; stroke-opacity:1; fill:none" points="2155.27,692.248 2155.27,673.35 "/>
<path clip-path="url(#clip870)" d="M275.888 727.039 Q272.277 727.039 270.448 730.603 Q268.643 734.145 268.643 741.275 Q268.643 748.381 270.448 751.946 Q272.277 755.487 275.888 755.487 Q279.522 755.487 281.328 751.946 Q283.157 748.381 283.157 741.275 Q283.157 734.145 281.328 730.603 Q279.522 727.039 275.888 727.039 M275.888 723.335 Q281.698 723.335 284.754 727.941 Q287.833 732.525 287.833 741.275 Q287.833 750.001 284.754 754.608 Q281.698 759.191 275.888 759.191 Q270.078 759.191 266.999 754.608 Q263.944 750.001 263.944 741.275 Q263.944 732.525 266.999 727.941 Q270.078 723.335 275.888 723.335 Z" fill="#000000" fill-rule="nonzero" fill-opacity="1" /><path clip-path="url(#clip870)" d="M720.422 754.585 L728.061 754.585 L728.061 728.219 L719.751 729.886 L719.751 725.626 L728.015 723.96 L732.691 723.96 L732.691 754.585 L740.33 754.585 L740.33 758.52 L720.422 758.52 L720.422 754.585 Z" fill="#000000" fill-rule="nonzero" fill-opacity="1" /><path clip-path="url(#clip870)" d="M759.774 727.039 Q756.163 727.039 754.334 730.603 Q752.529 734.145 752.529 741.275 Q752.529 748.381 754.334 751.946 Q756.163 755.487 759.774 755.487 Q763.408 755.487 765.214 751.946 Q767.042 748.381 767.042 741.275 Q767.042 734.145 765.214 730.603 Q763.408 727.039 759.774 727.039 M759.774 723.335 Q765.584 723.335 768.64 727.941 Q771.718 732.525 771.718 741.275 Q771.718 750.001 768.64 754.608 Q765.584 759.191 759.774 759.191 Q753.964 759.191 750.885 754.608 Q747.83 750.001 747.83 741.275 Q747.83 732.525 750.885 727.941 Q753.964 723.335 759.774 723.335 Z" fill="#000000" fill-rule="nonzero" fill-opacity="1" /><path clip-path="url(#clip870)" d="M1194.35 754.585 L1210.67 754.585 L1210.67 758.52 L1188.73 758.52 L1188.73 754.585 Q1191.39 751.83 1195.97 747.2 Q1200.58 742.548 1201.76 741.205 Q1204.01 738.682 1204.89 736.946 Q1205.79 735.187 1205.79 733.497 Q1205.79 730.742 1203.85 729.006 Q1201.92 727.27 1198.82 727.27 Q1196.62 727.27 1194.17 728.034 Q1191.74 728.798 1188.96 730.349 L1188.96 725.626 Q1191.79 724.492 1194.24 723.914 Q1196.69 723.335 1198.73 723.335 Q1204.1 723.335 1207.29 726.02 Q1210.49 728.705 1210.49 733.196 Q1210.49 735.325 1209.68 737.247 Q1208.89 739.145 1206.78 741.738 Q1206.21 742.409 1203.1 745.626 Q1200 748.821 1194.35 754.585 Z" fill="#000000" fill-rule="nonzero" fill-opacity="1" /><path clip-path="url(#clip870)" d="M1230.49 727.039 Q1226.88 727.039 1225.05 730.603 Q1223.24 734.145 1223.24 741.275 Q1223.24 748.381 1225.05 751.946 Q1226.88 755.487 1230.49 755.487 Q1234.12 755.487 1235.93 751.946 Q1237.76 748.381 1237.76 741.275 Q1237.76 734.145 1235.93 730.603 Q1234.12 727.039 1230.49 727.039 M1230.49 723.335 Q1236.3 723.335 1239.35 727.941 Q1242.43 732.525 1242.43 741.275 Q1242.43 750.001 1239.35 754.608 Q1236.3 759.191 1230.49 759.191 Q1224.68 759.191 1221.6 754.608 Q1218.54 750.001 1218.54 741.275 Q1218.54 732.525 1221.6 727.941 Q1224.68 723.335 1230.49 723.335 Z" fill="#000000" fill-rule="nonzero" fill-opacity="1" /><path clip-path="url(#clip870)" d="M1674.27 739.886 Q1677.63 740.603 1679.5 742.872 Q1681.4 745.14 1681.4 748.474 Q1681.4 753.589 1677.88 756.39 Q1674.36 759.191 1667.88 759.191 Q1665.71 759.191 1663.39 758.751 Q1661.1 758.335 1658.65 757.478 L1658.65 752.964 Q1660.59 754.099 1662.9 754.677 Q1665.22 755.256 1667.74 755.256 Q1672.14 755.256 1674.43 753.52 Q1676.75 751.784 1676.75 748.474 Q1676.75 745.418 1674.59 743.705 Q1672.46 741.969 1668.65 741.969 L1664.62 741.969 L1664.62 738.126 L1668.83 738.126 Q1672.28 738.126 1674.11 736.761 Q1675.94 735.372 1675.94 732.779 Q1675.94 730.117 1674.04 728.705 Q1672.16 727.27 1668.65 727.27 Q1666.72 727.27 1664.53 727.687 Q1662.33 728.103 1659.69 728.983 L1659.69 724.816 Q1662.35 724.076 1664.66 723.705 Q1667 723.335 1669.06 723.335 Q1674.39 723.335 1677.49 725.765 Q1680.59 728.173 1680.59 732.293 Q1680.59 735.163 1678.95 737.154 Q1677.3 739.122 1674.27 739.886 Z" fill="#000000" fill-rule="nonzero" fill-opacity="1" /><path clip-path="url(#clip870)" d="M1700.27 727.039 Q1696.65 727.039 1694.83 730.603 Q1693.02 734.145 1693.02 741.275 Q1693.02 748.381 1694.83 751.946 Q1696.65 755.487 1700.27 755.487 Q1703.9 755.487 1705.71 751.946 Q1707.53 748.381 1707.53 741.275 Q1707.53 734.145 1705.71 730.603 Q1703.9 727.039 1700.27 727.039 M1700.27 723.335 Q1706.08 723.335 1709.13 727.941 Q1712.21 732.525 1712.21 741.275 Q1712.21 750.001 1709.13 754.608 Q1706.08 759.191 1700.27 759.191 Q1694.46 759.191 1691.38 754.608 Q1688.32 750.001 1688.32 741.275 Q1688.32 732.525 1691.38 727.941 Q1694.46 723.335 1700.27 723.335 Z" fill="#000000" fill-rule="nonzero" fill-opacity="1" /><path clip-path="url(#clip870)" d="M2143.45 728.034 L2131.64 746.483 L2143.45 746.483 L2143.45 728.034 M2142.22 723.96 L2148.1 723.96 L2148.1 746.483 L2153.03 746.483 L2153.03 750.372 L2148.1 750.372 L2148.1 758.52 L2143.45 758.52 L2143.45 750.372 L2127.84 750.372 L2127.84 745.858 L2142.22 723.96 Z" fill="#000000" fill-rule="nonzero" fill-opacity="1" /><path clip-path="url(#clip870)" d="M2170.76 727.039 Q2167.15 727.039 2165.32 730.603 Q2163.51 734.145 2163.51 741.275 Q2163.51 748.381 2165.32 751.946 Q2167.15 755.487 2170.76 755.487 Q2174.39 755.487 2176.2 751.946 Q2178.03 748.381 2178.03 741.275 Q2178.03 734.145 2176.2 730.603 Q2174.39 727.039 2170.76 727.039 M2170.76 723.335 Q2176.57 723.335 2179.63 727.941 Q2182.7 732.525 2182.7 741.275 Q2182.7 750.001 2179.63 754.608 Q2176.57 759.191 2170.76 759.191 Q2164.95 759.191 2161.87 754.608 Q2158.82 750.001 2158.82 741.275 Q2158.82 732.525 2161.87 727.941 Q2164.95 723.335 2170.76 723.335 Z" fill="#000000" fill-rule="nonzero" fill-opacity="1" /><polyline clip-path="url(#clip870)" style="stroke:#000000; stroke-linecap:round; stroke-linejoin:round; stroke-width:4; stroke-opacity:1; fill:none" points="213.869,692.248 213.869,113.322 "/>
<polyline clip-path="url(#clip870)" style="stroke:#000000; stroke-linecap:round; stroke-linejoin:round; stroke-width:4; stroke-opacity:1; fill:none" points="213.869,670.634 229.657,670.634 "/>
<polyline clip-path="url(#clip870)" style="stroke:#000000; stroke-linecap:round; stroke-linejoin:round; stroke-width:4; stroke-opacity:1; fill:none" points="213.869,536.71 229.657,536.71 "/>
<polyline clip-path="url(#clip870)" style="stroke:#000000; stroke-linecap:round; stroke-linejoin:round; stroke-width:4; stroke-opacity:1; fill:none" points="213.869,402.785 229.657,402.785 "/>
<polyline clip-path="url(#clip870)" style="stroke:#000000; stroke-linecap:round; stroke-linejoin:round; stroke-width:4; stroke-opacity:1; fill:none" points="213.869,268.86 229.657,268.86 "/>
<polyline clip-path="url(#clip870)" style="stroke:#000000; stroke-linecap:round; stroke-linejoin:round; stroke-width:4; stroke-opacity:1; fill:none" points="213.869,134.936 229.657,134.936 "/>
<path clip-path="url(#clip870)" d="M48.5721 671.086 L78.2479 671.086 L78.2479 675.021 L48.5721 675.021 L48.5721 671.086 Z" fill="#000000" fill-rule="nonzero" fill-opacity="1" /><path clip-path="url(#clip870)" d="M92.3682 683.979 L108.688 683.979 L108.688 687.914 L86.7432 687.914 L86.7432 683.979 Q89.4052 681.225 93.9885 676.595 Q98.595 671.942 99.7756 670.6 Q102.021 668.077 102.901 666.34 Q103.803 664.581 103.803 662.891 Q103.803 660.137 101.859 658.401 Q99.9376 656.665 96.8358 656.665 Q94.6367 656.665 92.183 657.429 Q89.7525 658.192 86.9747 659.743 L86.9747 655.021 Q89.7988 653.887 92.2524 653.308 Q94.7061 652.729 96.7432 652.729 Q102.114 652.729 105.308 655.415 Q108.502 658.1 108.502 662.591 Q108.502 664.72 107.692 666.641 Q106.905 668.54 104.799 671.132 Q104.22 671.803 101.118 675.021 Q98.0163 678.215 92.3682 683.979 Z" fill="#000000" fill-rule="nonzero" fill-opacity="1" /><path clip-path="url(#clip870)" d="M128.502 656.433 Q124.891 656.433 123.062 659.998 Q121.257 663.54 121.257 670.669 Q121.257 677.776 123.062 681.34 Q124.891 684.882 128.502 684.882 Q132.136 684.882 133.942 681.34 Q135.771 677.776 135.771 670.669 Q135.771 663.54 133.942 659.998 Q132.136 656.433 128.502 656.433 M128.502 652.729 Q134.312 652.729 137.368 657.336 Q140.447 661.919 140.447 670.669 Q140.447 679.396 137.368 684.002 Q134.312 688.586 128.502 688.586 Q122.692 688.586 119.613 684.002 Q116.558 679.396 116.558 670.669 Q116.558 661.919 119.613 657.336 Q122.692 652.729 128.502 652.729 Z" fill="#000000" fill-rule="nonzero" fill-opacity="1" /><path clip-path="url(#clip870)" d="M158.664 656.433 Q155.053 656.433 153.224 659.998 Q151.419 663.54 151.419 670.669 Q151.419 677.776 153.224 681.34 Q155.053 684.882 158.664 684.882 Q162.298 684.882 164.104 681.34 Q165.933 677.776 165.933 670.669 Q165.933 663.54 164.104 659.998 Q162.298 656.433 158.664 656.433 M158.664 652.729 Q164.474 652.729 167.53 657.336 Q170.609 661.919 170.609 670.669 Q170.609 679.396 167.53 684.002 Q164.474 688.586 158.664 688.586 Q152.854 688.586 149.775 684.002 Q146.72 679.396 146.72 670.669 Q146.72 661.919 149.775 657.336 Q152.854 652.729 158.664 652.729 Z" fill="#000000" fill-rule="nonzero" fill-opacity="1" /><path clip-path="url(#clip870)" d="M48.5721 537.161 L78.2479 537.161 L78.2479 541.096 L48.5721 541.096 L48.5721 537.161 Z" fill="#000000" fill-rule="nonzero" fill-opacity="1" /><path clip-path="url(#clip870)" d="M89.1506 550.055 L96.7895 550.055 L96.7895 523.689 L88.4793 525.356 L88.4793 521.096 L96.7432 519.43 L101.419 519.43 L101.419 550.055 L109.058 550.055 L109.058 553.99 L89.1506 553.99 L89.1506 550.055 Z" fill="#000000" fill-rule="nonzero" fill-opacity="1" /><path clip-path="url(#clip870)" d="M128.502 522.508 Q124.891 522.508 123.062 526.073 Q121.257 529.615 121.257 536.744 Q121.257 543.851 123.062 547.416 Q124.891 550.957 128.502 550.957 Q132.136 550.957 133.942 547.416 Q135.771 543.851 135.771 536.744 Q135.771 529.615 133.942 526.073 Q132.136 522.508 128.502 522.508 M128.502 518.805 Q134.312 518.805 137.368 523.411 Q140.447 527.995 140.447 536.744 Q140.447 545.471 137.368 550.078 Q134.312 554.661 128.502 554.661 Q122.692 554.661 119.613 550.078 Q116.558 545.471 116.558 536.744 Q116.558 527.995 119.613 523.411 Q122.692 518.805 128.502 518.805 Z" fill="#000000" fill-rule="nonzero" fill-opacity="1" /><path clip-path="url(#clip870)" d="M158.664 522.508 Q155.053 522.508 153.224 526.073 Q151.419 529.615 151.419 536.744 Q151.419 543.851 153.224 547.416 Q155.053 550.957 158.664 550.957 Q162.298 550.957 164.104 547.416 Q165.933 543.851 165.933 536.744 Q165.933 529.615 164.104 526.073 Q162.298 522.508 158.664 522.508 M158.664 518.805 Q164.474 518.805 167.53 523.411 Q170.609 527.995 170.609 536.744 Q170.609 545.471 167.53 550.078 Q164.474 554.661 158.664 554.661 Q152.854 554.661 149.775 550.078 Q146.72 545.471 146.72 536.744 Q146.72 527.995 149.775 523.411 Q152.854 518.805 158.664 518.805 Z" fill="#000000" fill-rule="nonzero" fill-opacity="1" /><path clip-path="url(#clip870)" d="M158.664 388.584 Q155.053 388.584 153.224 392.149 Q151.419 395.69 151.419 402.82 Q151.419 409.926 153.224 413.491 Q155.053 417.033 158.664 417.033 Q162.298 417.033 164.104 413.491 Q165.933 409.926 165.933 402.82 Q165.933 395.69 164.104 392.149 Q162.298 388.584 158.664 388.584 M158.664 384.88 Q164.474 384.88 167.53 389.486 Q170.609 394.07 170.609 402.82 Q170.609 411.547 167.53 416.153 Q164.474 420.736 158.664 420.736 Q152.854 420.736 149.775 416.153 Q146.72 411.547 146.72 402.82 Q146.72 394.07 149.775 389.486 Q152.854 384.88 158.664 384.88 Z" fill="#000000" fill-rule="nonzero" fill-opacity="1" /><path clip-path="url(#clip870)" d="M89.1506 282.205 L96.7895 282.205 L96.7895 255.84 L88.4793 257.506 L88.4793 253.247 L96.7432 251.58 L101.419 251.58 L101.419 282.205 L109.058 282.205 L109.058 286.14 L89.1506 286.14 L89.1506 282.205 Z" fill="#000000" fill-rule="nonzero" fill-opacity="1" /><path clip-path="url(#clip870)" d="M128.502 254.659 Q124.891 254.659 123.062 258.224 Q121.257 261.765 121.257 268.895 Q121.257 276.001 123.062 279.566 Q124.891 283.108 128.502 283.108 Q132.136 283.108 133.942 279.566 Q135.771 276.001 135.771 268.895 Q135.771 261.765 133.942 258.224 Q132.136 254.659 128.502 254.659 M128.502 250.955 Q134.312 250.955 137.368 255.562 Q140.447 260.145 140.447 268.895 Q140.447 277.622 137.368 282.228 Q134.312 286.812 128.502 286.812 Q122.692 286.812 119.613 282.228 Q116.558 277.622 116.558 268.895 Q116.558 260.145 119.613 255.562 Q122.692 250.955 128.502 250.955 Z" fill="#000000" fill-rule="nonzero" fill-opacity="1" /><path clip-path="url(#clip870)" d="M158.664 254.659 Q155.053 254.659 153.224 258.224 Q151.419 261.765 151.419 268.895 Q151.419 276.001 153.224 279.566 Q155.053 283.108 158.664 283.108 Q162.298 283.108 164.104 279.566 Q165.933 276.001 165.933 268.895 Q165.933 261.765 164.104 258.224 Q162.298 254.659 158.664 254.659 M158.664 250.955 Q164.474 250.955 167.53 255.562 Q170.609 260.145 170.609 268.895 Q170.609 277.622 167.53 282.228 Q164.474 286.812 158.664 286.812 Q152.854 286.812 149.775 282.228 Q146.72 277.622 146.72 268.895 Q146.72 260.145 149.775 255.562 Q152.854 250.955 158.664 250.955 Z" fill="#000000" fill-rule="nonzero" fill-opacity="1" /><path clip-path="url(#clip870)" d="M92.3682 148.28 L108.688 148.28 L108.688 152.216 L86.7432 152.216 L86.7432 148.28 Q89.4052 145.526 93.9885 140.896 Q98.595 136.243 99.7756 134.901 Q102.021 132.378 102.901 130.642 Q103.803 128.882 103.803 127.193 Q103.803 124.438 101.859 122.702 Q99.9376 120.966 96.8358 120.966 Q94.6367 120.966 92.183 121.73 Q89.7525 122.494 86.9747 124.044 L86.9747 119.322 Q89.7988 118.188 92.2524 117.609 Q94.7061 117.031 96.7432 117.031 Q102.114 117.031 105.308 119.716 Q108.502 122.401 108.502 126.892 Q108.502 129.021 107.692 130.943 Q106.905 132.841 104.799 135.433 Q104.22 136.105 101.118 139.322 Q98.0163 142.517 92.3682 148.28 Z" fill="#000000" fill-rule="nonzero" fill-opacity="1" /><path clip-path="url(#clip870)" d="M128.502 120.734 Q124.891 120.734 123.062 124.299 Q121.257 127.841 121.257 134.97 Q121.257 142.077 123.062 145.642 Q124.891 149.183 128.502 149.183 Q132.136 149.183 133.942 145.642 Q135.771 142.077 135.771 134.97 Q135.771 127.841 133.942 124.299 Q132.136 120.734 128.502 120.734 M128.502 117.031 Q134.312 117.031 137.368 121.637 Q140.447 126.22 140.447 134.97 Q140.447 143.697 137.368 148.304 Q134.312 152.887 128.502 152.887 Q122.692 152.887 119.613 148.304 Q116.558 143.697 116.558 134.97 Q116.558 126.22 119.613 121.637 Q122.692 117.031 128.502 117.031 Z" fill="#000000" fill-rule="nonzero" fill-opacity="1" /><path clip-path="url(#clip870)" d="M158.664 120.734 Q155.053 120.734 153.224 124.299 Q151.419 127.841 151.419 134.97 Q151.419 142.077 153.224 145.642 Q155.053 149.183 158.664 149.183 Q162.298 149.183 164.104 145.642 Q165.933 142.077 165.933 134.97 Q165.933 127.841 164.104 124.299 Q162.298 120.734 158.664 120.734 M158.664 117.031 Q164.474 117.031 167.53 121.637 Q170.609 126.22 170.609 134.97 Q170.609 143.697 167.53 148.304 Q164.474 152.887 158.664 152.887 Q152.854 152.887 149.775 148.304 Q146.72 143.697 146.72 134.97 Q146.72 126.22 149.775 121.637 Q152.854 117.031 158.664 117.031 Z" fill="#000000" fill-rule="nonzero" fill-opacity="1" /><path clip-path="url(#clip870)" d="M800.635 14.0809 L800.635 22.0612 Q795.977 19.8332 791.845 18.7395 Q787.713 17.6457 783.865 17.6457 Q777.181 17.6457 773.535 20.2383 Q769.93 22.8309 769.93 27.611 Q769.93 31.6214 772.32 33.6873 Q774.75 35.7128 781.475 36.9686 L786.417 37.9813 Q795.572 39.7232 799.906 44.1387 Q804.281 48.5136 804.281 55.8863 Q804.281 64.6767 798.367 69.2137 Q792.493 73.7508 781.11 73.7508 Q776.816 73.7508 771.955 72.7785 Q767.134 71.8063 761.949 69.9024 L761.949 61.4765 Q766.932 64.2716 771.712 65.6895 Q776.492 67.1073 781.11 67.1073 Q788.118 67.1073 791.926 64.3527 Q795.734 61.598 795.734 56.4939 Q795.734 52.0379 792.979 49.5264 Q790.265 47.0148 784.027 45.759 L779.044 44.7868 Q769.889 42.9639 765.798 39.075 Q761.706 35.1862 761.706 28.2591 Q761.706 20.2383 767.337 15.6203 Q773.008 11.0023 782.933 11.0023 Q787.186 11.0023 791.602 11.7719 Q796.017 12.5416 800.635 14.0809 Z" fill="#000000" fill-rule="nonzero" fill-opacity="1" /><path clip-path="url(#clip870)" d="M854.431 45.1919 L854.431 72.576 L846.978 72.576 L846.978 45.4349 Q846.978 38.994 844.466 35.7938 Q841.955 32.5936 836.931 32.5936 Q830.896 32.5936 827.412 36.4419 Q823.928 40.2903 823.928 46.9338 L823.928 72.576 L816.434 72.576 L816.434 9.54393 L823.928 9.54393 L823.928 34.2544 Q826.602 30.163 830.207 28.1376 Q833.853 26.1121 838.592 26.1121 Q846.411 26.1121 850.421 30.9732 Q854.431 35.7938 854.431 45.1919 Z" fill="#000000" fill-rule="nonzero" fill-opacity="1" /><path clip-path="url(#clip870)" d="M908.106 48.0275 L908.106 51.6733 L873.835 51.6733 Q874.321 59.3701 878.453 63.421 Q882.626 67.4314 890.039 67.4314 Q894.333 67.4314 898.343 66.3781 Q902.394 65.3249 906.364 63.2184 L906.364 70.267 Q902.354 71.9684 898.141 72.8596 Q893.928 73.7508 889.593 73.7508 Q878.737 73.7508 872.377 67.4314 Q866.057 61.1119 866.057 50.3365 Q866.057 39.1965 872.053 32.6746 Q878.089 26.1121 888.297 26.1121 Q897.452 26.1121 902.759 32.0264 Q908.106 37.9003 908.106 48.0275 M900.652 45.84 Q900.571 39.7232 897.209 36.0774 Q893.887 32.4315 888.378 32.4315 Q882.14 32.4315 878.372 35.9558 Q874.645 39.4801 874.078 45.8805 L900.652 45.84 Z" fill="#000000" fill-rule="nonzero" fill-opacity="1" /><path clip-path="url(#clip870)" d="M940.959 49.7694 Q931.925 49.7694 928.441 51.8354 Q924.958 53.9013 924.958 58.8839 Q924.958 62.8538 927.55 65.2034 Q930.183 67.5124 934.68 67.5124 Q940.878 67.5124 944.605 63.1374 Q948.372 58.7219 948.372 51.4303 L948.372 49.7694 L940.959 49.7694 M955.826 46.6907 L955.826 72.576 L948.372 72.576 L948.372 65.6895 Q945.82 69.8214 942.012 71.8063 Q938.204 73.7508 932.695 73.7508 Q925.727 73.7508 921.595 69.8619 Q917.504 65.9325 917.504 59.3701 Q917.504 51.7138 922.608 47.825 Q927.753 43.9361 937.921 43.9361 L948.372 43.9361 L948.372 43.2069 Q948.372 38.0623 944.969 35.2672 Q941.607 32.4315 935.49 32.4315 Q931.601 32.4315 927.915 33.3632 Q924.228 34.295 920.826 36.1584 L920.826 29.2718 Q924.917 27.692 928.765 26.9223 Q932.614 26.1121 936.26 26.1121 Q946.103 26.1121 950.964 31.2163 Q955.826 36.3204 955.826 46.6907 Z" fill="#000000" fill-rule="nonzero" fill-opacity="1" /><path clip-path="url(#clip870)" d="M997.469 34.1734 Q996.213 33.4443 994.714 33.1202 Q993.256 32.7556 991.473 32.7556 Q985.154 32.7556 981.751 36.8875 Q978.389 40.9789 978.389 48.6757 L978.389 72.576 L970.895 72.576 L970.895 27.2059 L978.389 27.2059 L978.389 34.2544 Q980.739 30.1225 984.506 28.1376 Q988.273 26.1121 993.661 26.1121 Q994.431 26.1121 995.362 26.2337 Q996.294 26.3147 997.428 26.5172 L997.469 34.1734 Z" fill="#000000" fill-rule="nonzero" fill-opacity="1" /><path clip-path="url(#clip870)" d="M1031.98 12.096 L1070.22 12.096 L1070.22 18.9825 L1040.17 18.9825 L1040.17 36.8875 L1068.97 36.8875 L1068.97 43.7741 L1040.17 43.7741 L1040.17 65.6895 L1070.95 65.6895 L1070.95 72.576 L1031.98 72.576 L1031.98 12.096 Z" fill="#000000" fill-rule="nonzero" fill-opacity="1" /><path clip-path="url(#clip870)" d="M1121.79 45.1919 L1121.79 72.576 L1114.34 72.576 L1114.34 45.4349 Q1114.34 38.994 1111.83 35.7938 Q1109.31 32.5936 1104.29 32.5936 Q1098.26 32.5936 1094.77 36.4419 Q1091.29 40.2903 1091.29 46.9338 L1091.29 72.576 L1083.79 72.576 L1083.79 27.2059 L1091.29 27.2059 L1091.29 34.2544 Q1093.96 30.163 1097.57 28.1376 Q1101.21 26.1121 1105.95 26.1121 Q1113.77 26.1121 1117.78 30.9732 Q1121.79 35.7938 1121.79 45.1919 Z" fill="#000000" fill-rule="nonzero" fill-opacity="1" /><path clip-path="url(#clip870)" d="M1131.31 27.2059 L1139.21 27.2059 L1153.39 65.2844 L1167.57 27.2059 L1175.47 27.2059 L1158.45 72.576 L1148.32 72.576 L1131.31 27.2059 Z" fill="#000000" fill-rule="nonzero" fill-opacity="1" /><path clip-path="url(#clip870)" d="M1224.56 48.0275 L1224.56 51.6733 L1190.29 51.6733 Q1190.78 59.3701 1194.91 63.421 Q1199.08 67.4314 1206.5 67.4314 Q1210.79 67.4314 1214.8 66.3781 Q1218.85 65.3249 1222.82 63.2184 L1222.82 70.267 Q1218.81 71.9684 1214.6 72.8596 Q1210.38 73.7508 1206.05 73.7508 Q1195.19 73.7508 1188.83 67.4314 Q1182.51 61.1119 1182.51 50.3365 Q1182.51 39.1965 1188.51 32.6746 Q1194.55 26.1121 1204.75 26.1121 Q1213.91 26.1121 1219.22 32.0264 Q1224.56 37.9003 1224.56 48.0275 M1217.11 45.84 Q1217.03 39.7232 1213.67 36.0774 Q1210.34 32.4315 1204.83 32.4315 Q1198.6 32.4315 1194.83 35.9558 Q1191.1 39.4801 1190.53 45.8805 L1217.11 45.84 Z" fill="#000000" fill-rule="nonzero" fill-opacity="1" /><path clip-path="url(#clip870)" d="M1236.8 9.54393 L1244.25 9.54393 L1244.25 72.576 L1236.8 72.576 L1236.8 9.54393 Z" fill="#000000" fill-rule="nonzero" fill-opacity="1" /><path clip-path="url(#clip870)" d="M1277.43 32.4315 Q1271.43 32.4315 1267.95 37.1306 Q1264.46 41.7891 1264.46 49.9314 Q1264.46 58.0738 1267.91 62.7728 Q1271.39 67.4314 1277.43 67.4314 Q1283.38 67.4314 1286.87 62.7323 Q1290.35 58.0333 1290.35 49.9314 Q1290.35 41.8701 1286.87 37.1711 Q1283.38 32.4315 1277.43 32.4315 M1277.43 26.1121 Q1287.15 26.1121 1292.7 32.4315 Q1298.25 38.7509 1298.25 49.9314 Q1298.25 61.0714 1292.7 67.4314 Q1287.15 73.7508 1277.43 73.7508 Q1267.66 73.7508 1262.11 67.4314 Q1256.61 61.0714 1256.61 49.9314 Q1256.61 38.7509 1262.11 32.4315 Q1267.66 26.1121 1277.43 26.1121 Z" fill="#000000" fill-rule="nonzero" fill-opacity="1" /><path clip-path="url(#clip870)" d="M1317.81 65.7705 L1317.81 89.8329 L1310.32 89.8329 L1310.32 27.2059 L1317.81 27.2059 L1317.81 34.0924 Q1320.16 30.0415 1323.73 28.0971 Q1327.33 26.1121 1332.32 26.1121 Q1340.58 26.1121 1345.73 32.6746 Q1350.91 39.2371 1350.91 49.9314 Q1350.91 60.6258 1345.73 67.1883 Q1340.58 73.7508 1332.32 73.7508 Q1327.33 73.7508 1323.73 71.8063 Q1320.16 69.8214 1317.81 65.7705 M1343.17 49.9314 Q1343.17 41.7081 1339.77 37.0496 Q1336.41 32.3505 1330.49 32.3505 Q1324.58 32.3505 1321.18 37.0496 Q1317.81 41.7081 1317.81 49.9314 Q1317.81 58.1548 1321.18 62.8538 Q1324.58 67.5124 1330.49 67.5124 Q1336.41 67.5124 1339.77 62.8538 Q1343.17 58.1548 1343.17 49.9314 Z" fill="#000000" fill-rule="nonzero" fill-opacity="1" /><path clip-path="url(#clip870)" d="M1402.07 48.0275 L1402.07 51.6733 L1367.8 51.6733 Q1368.29 59.3701 1372.42 63.421 Q1376.59 67.4314 1384.01 67.4314 Q1388.3 67.4314 1392.31 66.3781 Q1396.36 65.3249 1400.33 63.2184 L1400.33 70.267 Q1396.32 71.9684 1392.11 72.8596 Q1387.89 73.7508 1383.56 73.7508 Q1372.7 73.7508 1366.34 67.4314 Q1360.02 61.1119 1360.02 50.3365 Q1360.02 39.1965 1366.02 32.6746 Q1372.06 26.1121 1382.26 26.1121 Q1391.42 26.1121 1396.73 32.0264 Q1402.07 37.9003 1402.07 48.0275 M1394.62 45.84 Q1394.54 39.7232 1391.18 36.0774 Q1387.85 32.4315 1382.35 32.4315 Q1376.11 32.4315 1372.34 35.9558 Q1368.61 39.4801 1368.05 45.8805 L1394.62 45.84 Z" fill="#000000" fill-rule="nonzero" fill-opacity="1" /><path clip-path="url(#clip870)" d="M1449.19 18.8205 L1449.19 65.8515 L1459.07 65.8515 Q1471.59 65.8515 1477.38 60.1802 Q1483.21 54.509 1483.21 42.2752 Q1483.21 30.1225 1477.38 24.4918 Q1471.59 18.8205 1459.07 18.8205 L1449.19 18.8205 M1441 12.096 L1457.81 12.096 Q1475.39 12.096 1483.62 19.4281 Q1491.84 26.7198 1491.84 42.2752 Q1491.84 57.9117 1483.58 65.2439 Q1475.31 72.576 1457.81 72.576 L1441 72.576 L1441 12.096 Z" fill="#000000" fill-rule="nonzero" fill-opacity="1" /><path clip-path="url(#clip870)" d="M1504.56 27.2059 L1512.01 27.2059 L1512.01 72.576 L1504.56 72.576 L1504.56 27.2059 M1504.56 9.54393 L1512.01 9.54393 L1512.01 18.9825 L1504.56 18.9825 L1504.56 9.54393 Z" fill="#000000" fill-rule="nonzero" fill-opacity="1" /><path clip-path="url(#clip870)" d="M1550.58 9.54393 L1550.58 15.7418 L1543.45 15.7418 Q1539.44 15.7418 1537.86 17.3622 Q1536.32 18.9825 1536.32 23.1955 L1536.32 27.2059 L1548.59 27.2059 L1548.59 32.9987 L1536.32 32.9987 L1536.32 72.576 L1528.83 72.576 L1528.83 32.9987 L1521.7 32.9987 L1521.7 27.2059 L1528.83 27.2059 L1528.83 24.0462 Q1528.83 16.471 1532.35 13.0277 Q1535.87 9.54393 1543.53 9.54393 L1550.58 9.54393 Z" fill="#000000" fill-rule="nonzero" fill-opacity="1" /><path clip-path="url(#clip870)" d="M1579.79 9.54393 L1579.79 15.7418 L1572.66 15.7418 Q1568.65 15.7418 1567.07 17.3622 Q1565.53 18.9825 1565.53 23.1955 L1565.53 27.2059 L1577.8 27.2059 L1577.8 32.9987 L1565.53 32.9987 L1565.53 72.576 L1558.03 72.576 L1558.03 32.9987 L1550.9 32.9987 L1550.9 27.2059 L1558.03 27.2059 L1558.03 24.0462 Q1558.03 16.471 1561.56 13.0277 Q1565.08 9.54393 1572.74 9.54393 L1579.79 9.54393 Z" fill="#000000" fill-rule="nonzero" fill-opacity="1" /><path clip-path="url(#clip870)" d="M1624.83 48.0275 L1624.83 51.6733 L1590.56 51.6733 Q1591.05 59.3701 1595.18 63.421 Q1599.35 67.4314 1606.77 67.4314 Q1611.06 67.4314 1615.07 66.3781 Q1619.12 65.3249 1623.09 63.2184 L1623.09 70.267 Q1619.08 71.9684 1614.87 72.8596 Q1610.65 73.7508 1606.32 73.7508 Q1595.46 73.7508 1589.1 67.4314 Q1582.78 61.1119 1582.78 50.3365 Q1582.78 39.1965 1588.78 32.6746 Q1594.82 26.1121 1605.02 26.1121 Q1614.18 26.1121 1619.49 32.0264 Q1624.83 37.9003 1624.83 48.0275 M1617.38 45.84 Q1617.3 39.7232 1613.94 36.0774 Q1610.61 32.4315 1605.1 32.4315 Q1598.87 32.4315 1595.1 35.9558 Q1591.37 39.4801 1590.8 45.8805 L1617.38 45.84 Z" fill="#000000" fill-rule="nonzero" fill-opacity="1" /><path clip-path="url(#clip870)" d="M1663.36 34.1734 Q1662.1 33.4443 1660.6 33.1202 Q1659.14 32.7556 1657.36 32.7556 Q1651.04 32.7556 1647.64 36.8875 Q1644.28 40.9789 1644.28 48.6757 L1644.28 72.576 L1636.78 72.576 L1636.78 27.2059 L1644.28 27.2059 L1644.28 34.2544 Q1646.63 30.1225 1650.39 28.1376 Q1654.16 26.1121 1659.55 26.1121 Q1660.32 26.1121 1661.25 26.2337 Q1662.18 26.3147 1663.32 26.5172 L1663.36 34.1734 Z" fill="#000000" fill-rule="nonzero" fill-opacity="1" /><path clip-path="url(#clip870)" d="M1708.16 48.0275 L1708.16 51.6733 L1673.89 51.6733 Q1674.37 59.3701 1678.51 63.421 Q1682.68 67.4314 1690.09 67.4314 Q1694.39 67.4314 1698.4 66.3781 Q1702.45 65.3249 1706.42 63.2184 L1706.42 70.267 Q1702.41 71.9684 1698.19 72.8596 Q1693.98 73.7508 1689.65 73.7508 Q1678.79 73.7508 1672.43 67.4314 Q1666.11 61.1119 1666.11 50.3365 Q1666.11 39.1965 1672.11 32.6746 Q1678.14 26.1121 1688.35 26.1121 Q1697.51 26.1121 1702.81 32.0264 Q1708.16 37.9003 1708.16 48.0275 M1700.71 45.84 Q1700.62 39.7232 1697.26 36.0774 Q1693.94 32.4315 1688.43 32.4315 Q1682.19 32.4315 1678.43 35.9558 Q1674.7 39.4801 1674.13 45.8805 L1700.71 45.84 Z" fill="#000000" fill-rule="nonzero" fill-opacity="1" /><path clip-path="url(#clip870)" d="M1758.11 45.1919 L1758.11 72.576 L1750.65 72.576 L1750.65 45.4349 Q1750.65 38.994 1748.14 35.7938 Q1745.63 32.5936 1740.61 32.5936 Q1734.57 32.5936 1731.09 36.4419 Q1727.6 40.2903 1727.6 46.9338 L1727.6 72.576 L1720.11 72.576 L1720.11 27.2059 L1727.6 27.2059 L1727.6 34.2544 Q1730.28 30.163 1733.88 28.1376 Q1737.53 26.1121 1742.27 26.1121 Q1750.09 26.1121 1754.1 30.9732 Q1758.11 35.7938 1758.11 45.1919 Z" fill="#000000" fill-rule="nonzero" fill-opacity="1" /><path clip-path="url(#clip870)" d="M1805.62 28.9478 L1805.62 35.9153 Q1802.46 34.1734 1799.26 33.3227 Q1796.1 32.4315 1792.86 32.4315 Q1785.61 32.4315 1781.6 37.0496 Q1777.59 41.6271 1777.59 49.9314 Q1777.59 58.2358 1781.6 62.8538 Q1785.61 67.4314 1792.86 67.4314 Q1796.1 67.4314 1799.26 66.5807 Q1802.46 65.6895 1805.62 63.9476 L1805.62 70.8341 Q1802.51 72.2924 1799.14 73.0216 Q1795.82 73.7508 1792.05 73.7508 Q1781.8 73.7508 1775.77 67.3098 Q1769.73 60.8689 1769.73 49.9314 Q1769.73 38.832 1775.81 32.472 Q1781.93 26.1121 1792.54 26.1121 Q1795.98 26.1121 1799.26 26.8413 Q1802.55 27.5299 1805.62 28.9478 Z" fill="#000000" fill-rule="nonzero" fill-opacity="1" /><path clip-path="url(#clip870)" d="M1857.39 48.0275 L1857.39 51.6733 L1823.12 51.6733 Q1823.61 59.3701 1827.74 63.421 Q1831.91 67.4314 1839.33 67.4314 Q1843.62 67.4314 1847.63 66.3781 Q1851.68 65.3249 1855.65 63.2184 L1855.65 70.267 Q1851.64 71.9684 1847.43 72.8596 Q1843.22 73.7508 1838.88 73.7508 Q1828.03 73.7508 1821.67 67.4314 Q1815.35 61.1119 1815.35 50.3365 Q1815.35 39.1965 1821.34 32.6746 Q1827.38 26.1121 1837.59 26.1121 Q1846.74 26.1121 1852.05 32.0264 Q1857.39 37.9003 1857.39 48.0275 M1849.94 45.84 Q1849.86 39.7232 1846.5 36.0774 Q1843.18 32.4315 1837.67 32.4315 Q1831.43 32.4315 1827.66 35.9558 Q1823.93 39.4801 1823.37 45.8805 L1849.94 45.84 Z" fill="#000000" fill-rule="nonzero" fill-opacity="1" /><path clip-path="url(#clip872)" d="M275.888 403.187 L299.381 402.76 L322.873 402.735 L346.365 402.843 L369.858 493.887 L393.35 402.842 L416.842 402.816 L440.335 402.791 L463.827 613.809 L487.319 404.996 L510.811 404.97 L534.304 404.945 L557.796 404.92 L581.288 405.029 L604.781 405.004 L628.273 404.978 L651.765 404.953 L675.258 404.928 L698.75 404.903 L722.242 405.012 L745.735 570.25 L769.227 401.918 L792.719 402.027 L816.212 402.002 L839.704 401.977 L863.196 401.952 L886.689 401.926 L910.181 402.035 L933.673 402.01 L957.166 401.985 L980.658 401.96 L1004.15 401.934 L1027.64 675.863 L1051.13 405.98 L1074.63 406.088 L1098.12 406.063 L1121.61 588.176 L1145.1 408.309 L1168.6 408.284 L1192.09 408.259 L1215.58 408.233 L1239.07 408.342 L1262.57 408.317 L1286.06 408.292 L1309.55 408.267 L1333.04 408.241 L1356.54 408.35 L1380.03 408.325 L1403.52 408.3 L1427.01 408.275 L1450.5 408.249 L1474 408.358 L1497.49 512.794 L1520.98 400.773 L1544.47 400.748 L1567.97 400.857 L1591.46 638.31 L1614.95 400.167 L1638.44 400.142 L1661.94 400.116 L1685.43 400.091 L1708.92 400.066 L1732.41 400.175 L1755.9 400.15 L1779.4 400.124 L1802.89 400.099 L1826.38 400.074 L1849.87 400.183 L1873.37 576.938 L1896.86 402.425 L1920.35 402.4 L1943.84 402.374 L1967.34 402.349 L1990.83 402.324 L2014.32 402.299 L2037.81 402.408 L2061.3 402.382 L2084.8 402.357 L2108.29 402.332 L2131.78 402.307 L2155.27 656.062 L2178.77 403.991 L2202.26 403.965 L2225.75 403.94 L2249.24 553.777 L2272.74 402.727 L2296.23 402.835 L2319.72 402.81 L2343.21 402.383 L2343.21 402.785 L2319.72 402.785 L2296.23 402.785 L2272.74 402.785 L2249.24 402.785 L2225.75 402.785 L2202.26 402.785 L2178.77 402.785 L2155.27 402.785 L2131.78 402.785 L2108.29 402.785 L2084.8 402.785 L2061.3 402.785 L2037.81 402.785 L2014.32 402.785 L1990.83 402.785 L1967.34 402.785 L1943.84 402.785 L1920.35 402.785 L1896.86 402.785 L1873.37 402.785 L1849.87 402.785 L1826.38 402.785 L1802.89 402.785 L1779.4 402.785 L1755.9 402.785 L1732.41 402.785 L1708.92 402.785 L1685.43 402.785 L1661.94 402.785 L1638.44 402.785 L1614.95 402.785 L1591.46 402.785 L1567.97 402.785 L1544.47 402.785 L1520.98 402.785 L1497.49 402.785 L1474 402.785 L1450.5 402.785 L1427.01 402.785 L1403.52 402.785 L1380.03 402.785 L1356.54 402.785 L1333.04 402.785 L1309.55 402.785 L1286.06 402.785 L1262.57 402.785 L1239.07 402.785 L1215.58 402.785 L1192.09 402.785 L1168.6 402.785 L1145.1 402.785 L1121.61 402.785 L1098.12 402.785 L1074.63 402.785 L1051.13 402.785 L1027.64 402.785 L1004.15 402.785 L980.658 402.785 L957.166 402.785 L933.673 402.785 L910.181 402.785 L886.689 402.785 L863.196 402.785 L839.704 402.785 L816.212 402.785 L792.719 402.785 L769.227 402.785 L745.735 402.785 L722.242 402.785 L698.75 402.785 L675.258 402.785 L651.765 402.785 L628.273 402.785 L604.781 402.785 L581.288 402.785 L557.796 402.785 L534.304 402.785 L510.811 402.785 L487.319 402.785 L463.827 402.785 L440.335 402.785 L416.842 402.785 L393.35 402.785 L369.858 402.785 L346.365 402.785 L322.873 402.785 L299.381 402.785 L275.888 402.785  Z" fill="#0000ff" fill-rule="evenodd" fill-opacity="0.5"/>
<polyline clip-path="url(#clip872)" style="stroke:#0000ff; stroke-linecap:round; stroke-linejoin:round; stroke-width:4; stroke-opacity:1; fill:none" points="275.888,403.187 299.381,402.76 322.873,402.735 346.365,402.843 369.858,493.887 393.35,402.842 416.842,402.816 440.335,402.791 463.827,613.809 487.319,404.996 510.811,404.97 534.304,404.945 557.796,404.92 581.288,405.029 604.781,405.004 628.273,404.978 651.765,404.953 675.258,404.928 698.75,404.903 722.242,405.012 745.735,570.25 769.227,401.918 792.719,402.027 816.212,402.002 839.704,401.977 863.196,401.952 886.689,401.926 910.181,402.035 933.673,402.01 957.166,401.985 980.658,401.96 1004.15,401.934 1027.64,675.863 1051.13,405.98 1074.63,406.088 1098.12,406.063 1121.61,588.176 1145.1,408.309 1168.6,408.284 1192.09,408.259 1215.58,408.233 1239.07,408.342 1262.57,408.317 1286.06,408.292 1309.55,408.267 1333.04,408.241 1356.54,408.35 1380.03,408.325 1403.52,408.3 1427.01,408.275 1450.5,408.249 1474,408.358 1497.49,512.794 1520.98,400.773 1544.47,400.748 1567.97,400.857 1591.46,638.31 1614.95,400.167 1638.44,400.142 1661.94,400.116 1685.43,400.091 1708.92,400.066 1732.41,400.175 1755.9,400.15 1779.4,400.124 1802.89,400.099 1826.38,400.074 1849.87,400.183 1873.37,576.938 1896.86,402.425 1920.35,402.4 1943.84,402.374 1967.34,402.349 1990.83,402.324 2014.32,402.299 2037.81,402.408 2061.3,402.382 2084.8,402.357 2108.29,402.332 2131.78,402.307 2155.27,656.062 2178.77,403.991 2202.26,403.965 2225.75,403.94 2249.24,553.777 2272.74,402.727 2296.23,402.835 2319.72,402.81 2343.21,402.383 "/>
<path clip-path="url(#clip872)" d="M275.888 403.187 L299.381 402.76 L322.873 402.735 L346.365 402.843 L369.858 252.243 L393.35 402.08 L416.842 402.055 L440.335 402.029 L463.827 149.958 L487.319 403.259 L510.811 403.234 L534.304 403.209 L557.796 403.184 L581.288 403.159 L604.781 403.267 L628.273 403.242 L651.765 403.217 L675.258 403.192 L698.75 403.167 L722.242 403.142 L745.735 228.632 L769.227 405.387 L792.719 405.496 L816.212 405.471 L839.704 405.446 L863.196 405.42 L886.689 405.395 L910.181 405.504 L933.673 405.479 L957.166 405.454 L980.658 405.429 L1004.15 405.403 L1027.64 167.26 L1051.13 404.713 L1074.63 404.822 L1098.12 404.797 L1121.61 292.773 L1145.1 397.209 L1168.6 397.318 L1192.09 397.292 L1215.58 397.267 L1239.07 397.242 L1262.57 397.217 L1286.06 397.326 L1309.55 397.3 L1333.04 397.275 L1356.54 397.25 L1380.03 397.225 L1403.52 397.334 L1427.01 397.308 L1450.5 397.283 L1474 397.258 L1497.49 217.394 L1520.98 399.507 L1544.47 399.482 L1567.97 399.59 L1591.46 129.707 L1614.95 403.636 L1638.44 403.611 L1661.94 403.586 L1685.43 403.56 L1708.92 403.535 L1732.41 403.644 L1755.9 403.619 L1779.4 403.594 L1802.89 403.568 L1826.38 403.543 L1849.87 403.652 L1873.37 235.174 L1896.86 400.412 L1920.35 400.521 L1943.84 400.496 L1967.34 400.47 L1990.83 400.445 L2014.32 400.42 L2037.81 400.395 L2061.3 400.504 L2084.8 400.478 L2108.29 400.453 L2131.78 400.428 L2155.27 191.614 L2178.77 402.779 L2202.26 402.754 L2225.75 402.728 L2249.24 311.683 L2272.74 402.727 L2296.23 402.835 L2319.72 402.81 L2343.21 402.383 L2343.21 402.785 L2319.72 402.785 L2296.23 402.785 L2272.74 402.785 L2249.24 402.785 L2225.75 402.785 L2202.26 402.785 L2178.77 402.785 L2155.27 402.785 L2131.78 402.785 L2108.29 402.785 L2084.8 402.785 L2061.3 402.785 L2037.81 402.785 L2014.32 402.785 L1990.83 402.785 L1967.34 402.785 L1943.84 402.785 L1920.35 402.785 L1896.86 402.785 L1873.37 402.785 L1849.87 402.785 L1826.38 402.785 L1802.89 402.785 L1779.4 402.785 L1755.9 402.785 L1732.41 402.785 L1708.92 402.785 L1685.43 402.785 L1661.94 402.785 L1638.44 402.785 L1614.95 402.785 L1591.46 402.785 L1567.97 402.785 L1544.47 402.785 L1520.98 402.785 L1497.49 402.785 L1474 402.785 L1450.5 402.785 L1427.01 402.785 L1403.52 402.785 L1380.03 402.785 L1356.54 402.785 L1333.04 402.785 L1309.55 402.785 L1286.06 402.785 L1262.57 402.785 L1239.07 402.785 L1215.58 402.785 L1192.09 402.785 L1168.6 402.785 L1145.1 402.785 L1121.61 402.785 L1098.12 402.785 L1074.63 402.785 L1051.13 402.785 L1027.64 402.785 L1004.15 402.785 L980.658 402.785 L957.166 402.785 L933.673 402.785 L910.181 402.785 L886.689 402.785 L863.196 402.785 L839.704 402.785 L816.212 402.785 L792.719 402.785 L769.227 402.785 L745.735 402.785 L722.242 402.785 L698.75 402.785 L675.258 402.785 L651.765 402.785 L628.273 402.785 L604.781 402.785 L581.288 402.785 L557.796 402.785 L534.304 402.785 L510.811 402.785 L487.319 402.785 L463.827 402.785 L440.335 402.785 L416.842 402.785 L393.35 402.785 L369.858 402.785 L346.365 402.785 L322.873 402.785 L299.381 402.785 L275.888 402.785  Z" fill="#ff0000" fill-rule="evenodd" fill-opacity="0.5"/>
<polyline clip-path="url(#clip872)" style="stroke:#ff0000; stroke-linecap:round; stroke-linejoin:round; stroke-width:4; stroke-opacity:1; fill:none" points="275.888,403.187 299.381,402.76 322.873,402.735 346.365,402.843 369.858,252.243 393.35,402.08 416.842,402.055 440.335,402.029 463.827,149.958 487.319,403.259 510.811,403.234 534.304,403.209 557.796,403.184 581.288,403.159 604.781,403.267 628.273,403.242 651.765,403.217 675.258,403.192 698.75,403.167 722.242,403.142 745.735,228.632 769.227,405.387 792.719,405.496 816.212,405.471 839.704,405.446 863.196,405.42 886.689,405.395 910.181,405.504 933.673,405.479 957.166,405.454 980.658,405.429 1004.15,405.403 1027.64,167.26 1051.13,404.713 1074.63,404.822 1098.12,404.797 1121.61,292.773 1145.1,397.209 1168.6,397.318 1192.09,397.292 1215.58,397.267 1239.07,397.242 1262.57,397.217 1286.06,397.326 1309.55,397.3 1333.04,397.275 1356.54,397.25 1380.03,397.225 1403.52,397.334 1427.01,397.308 1450.5,397.283 1474,397.258 1497.49,217.394 1520.98,399.507 1544.47,399.482 1567.97,399.59 1591.46,129.707 1614.95,403.636 1638.44,403.611 1661.94,403.586 1685.43,403.56 1708.92,403.535 1732.41,403.644 1755.9,403.619 1779.4,403.594 1802.89,403.568 1826.38,403.543 1849.87,403.652 1873.37,235.174 1896.86,400.412 1920.35,400.521 1943.84,400.496 1967.34,400.47 1990.83,400.445 2014.32,400.42 2037.81,400.395 2061.3,400.504 2084.8,400.478 2108.29,400.453 2131.78,400.428 2155.27,191.614 2178.77,402.779 2202.26,402.754 2225.75,402.728 2249.24,311.683 2272.74,402.727 2296.23,402.835 2319.72,402.81 2343.21,402.383 "/>
<path clip-path="url(#clip870)" d="M2492.66 288.14 L2836.76 288.14 L2836.76 132.62 L2492.66 132.62  Z" fill="#ffffff" fill-rule="evenodd" fill-opacity="1"/>
<polyline clip-path="url(#clip870)" style="stroke:#000000; stroke-linecap:round; stroke-linejoin:round; stroke-width:4; stroke-opacity:1; fill:none" points="2492.66,288.14 2836.76,288.14 2836.76,132.62 2492.66,132.62 2492.66,288.14 "/>
<path clip-path="url(#clip870)" d="M2521.81 205.196 L2696.66 205.196 L2696.66 163.724 L2521.81 163.724 L2521.81 205.196  Z" fill="#0000ff" fill-rule="evenodd" fill-opacity="0.5"/>
<polyline clip-path="url(#clip870)" style="stroke:#0000ff; stroke-linecap:round; stroke-linejoin:round; stroke-width:4; stroke-opacity:1; fill:none" points="2521.81,163.724 2696.66,163.724 "/>
<path clip-path="url(#clip870)" d="M2742.59 172.018 L2742.59 184.911 L2755.48 184.911 L2755.48 188.846 L2742.59 188.846 L2742.59 201.74 L2738.7 201.74 L2738.7 188.846 L2725.81 188.846 L2725.81 184.911 L2738.7 184.911 L2738.7 172.018 L2742.59 172.018 Z" fill="#000000" fill-rule="nonzero" fill-opacity="1" /><path clip-path="url(#clip870)" d="M2789.14 201.74 L2775.95 167.18 L2780.83 167.18 L2791.78 196.277 L2802.75 167.18 L2807.61 167.18 L2794.44 201.74 L2789.14 201.74 Z" fill="#000000" fill-rule="nonzero" fill-opacity="1" /><path clip-path="url(#clip870)" d="M2521.81 257.036 L2696.66 257.036 L2696.66 215.564 L2521.81 215.564 L2521.81 257.036  Z" fill="#ff0000" fill-rule="evenodd" fill-opacity="0.5"/>
<polyline clip-path="url(#clip870)" style="stroke:#ff0000; stroke-linecap:round; stroke-linejoin:round; stroke-width:4; stroke-opacity:1; fill:none" points="2521.81,215.564 2696.66,215.564 "/>
<path clip-path="url(#clip870)" d="M2725.81 238.696 L2738.28 238.696 L2738.28 242.492 L2725.81 242.492 L2725.81 238.696 Z" fill="#000000" fill-rule="nonzero" fill-opacity="1" /><path clip-path="url(#clip870)" d="M2769.23 253.58 L2756.04 219.02 L2760.92 219.02 L2771.87 248.117 L2782.84 219.02 L2787.71 219.02 L2774.53 253.58 L2769.23 253.58 Z" fill="#000000" fill-rule="nonzero" fill-opacity="1" /><path clip-path="url(#clip870)" d="M213.869 1492.25 L2401 1492.25 L2401 913.322 L213.869 913.322  Z" fill="#ffffff" fill-rule="evenodd" fill-opacity="1"/>
<defs>
  <clipPath id="clip873">
    <rect x="213" y="913" width="2188" height="580"/>
  </clipPath>
</defs>
<polyline clip-path="url(#clip873)" style="stroke:#000000; stroke-linecap:round; stroke-linejoin:round; stroke-width:2; stroke-opacity:0.1; fill:none" points="275.768,1492.25 275.768,913.322 "/>
<polyline clip-path="url(#clip873)" style="stroke:#000000; stroke-linecap:round; stroke-linejoin:round; stroke-width:2; stroke-opacity:0.1; fill:none" points="744.707,1492.25 744.707,913.322 "/>
<polyline clip-path="url(#clip873)" style="stroke:#000000; stroke-linecap:round; stroke-linejoin:round; stroke-width:2; stroke-opacity:0.1; fill:none" points="1213.64,1492.25 1213.64,913.322 "/>
<polyline clip-path="url(#clip873)" style="stroke:#000000; stroke-linecap:round; stroke-linejoin:round; stroke-width:2; stroke-opacity:0.1; fill:none" points="1682.58,1492.25 1682.58,913.322 "/>
<polyline clip-path="url(#clip873)" style="stroke:#000000; stroke-linecap:round; stroke-linejoin:round; stroke-width:2; stroke-opacity:0.1; fill:none" points="2151.52,1492.25 2151.52,913.322 "/>
<polyline clip-path="url(#clip873)" style="stroke:#000000; stroke-linecap:round; stroke-linejoin:round; stroke-width:2; stroke-opacity:0.1; fill:none" points="213.869,1462.44 2401,1462.44 "/>
<polyline clip-path="url(#clip873)" style="stroke:#000000; stroke-linecap:round; stroke-linejoin:round; stroke-width:2; stroke-opacity:0.1; fill:none" points="213.869,1288.49 2401,1288.49 "/>
<polyline clip-path="url(#clip873)" style="stroke:#000000; stroke-linecap:round; stroke-linejoin:round; stroke-width:2; stroke-opacity:0.1; fill:none" points="213.869,1114.54 2401,1114.54 "/>
<polyline clip-path="url(#clip873)" style="stroke:#000000; stroke-linecap:round; stroke-linejoin:round; stroke-width:2; stroke-opacity:0.1; fill:none" points="213.869,940.592 2401,940.592 "/>
<polyline clip-path="url(#clip870)" style="stroke:#000000; stroke-linecap:round; stroke-linejoin:round; stroke-width:4; stroke-opacity:1; fill:none" points="213.869,1492.25 2401,1492.25 "/>
<polyline clip-path="url(#clip870)" style="stroke:#000000; stroke-linecap:round; stroke-linejoin:round; stroke-width:4; stroke-opacity:1; fill:none" points="275.768,1492.25 275.768,1473.35 "/>
<polyline clip-path="url(#clip870)" style="stroke:#000000; stroke-linecap:round; stroke-linejoin:round; stroke-width:4; stroke-opacity:1; fill:none" points="744.707,1492.25 744.707,1473.35 "/>
<polyline clip-path="url(#clip870)" style="stroke:#000000; stroke-linecap:round; stroke-linejoin:round; stroke-width:4; stroke-opacity:1; fill:none" points="1213.64,1492.25 1213.64,1473.35 "/>
<polyline clip-path="url(#clip870)" style="stroke:#000000; stroke-linecap:round; stroke-linejoin:round; stroke-width:4; stroke-opacity:1; fill:none" points="1682.58,1492.25 1682.58,1473.35 "/>
<polyline clip-path="url(#clip870)" style="stroke:#000000; stroke-linecap:round; stroke-linejoin:round; stroke-width:4; stroke-opacity:1; fill:none" points="2151.52,1492.25 2151.52,1473.35 "/>
<path clip-path="url(#clip870)" d="M275.768 1527.04 Q272.157 1527.04 270.329 1530.6 Q268.523 1534.14 268.523 1541.27 Q268.523 1548.38 270.329 1551.95 Q272.157 1555.49 275.768 1555.49 Q279.403 1555.49 281.208 1551.95 Q283.037 1548.38 283.037 1541.27 Q283.037 1534.14 281.208 1530.6 Q279.403 1527.04 275.768 1527.04 M275.768 1523.33 Q281.579 1523.33 284.634 1527.94 Q287.713 1532.52 287.713 1541.27 Q287.713 1550 284.634 1554.61 Q281.579 1559.19 275.768 1559.19 Q269.958 1559.19 266.88 1554.61 Q263.824 1550 263.824 1541.27 Q263.824 1532.52 266.88 1527.94 Q269.958 1523.33 275.768 1523.33 Z" fill="#000000" fill-rule="nonzero" fill-opacity="1" /><path clip-path="url(#clip870)" d="M719.394 1554.58 L727.033 1554.58 L727.033 1528.22 L718.723 1529.89 L718.723 1525.63 L726.987 1523.96 L731.663 1523.96 L731.663 1554.58 L739.302 1554.58 L739.302 1558.52 L719.394 1558.52 L719.394 1554.58 Z" fill="#000000" fill-rule="nonzero" fill-opacity="1" /><path clip-path="url(#clip870)" d="M758.746 1527.04 Q755.135 1527.04 753.306 1530.6 Q751.501 1534.14 751.501 1541.27 Q751.501 1548.38 753.306 1551.95 Q755.135 1555.49 758.746 1555.49 Q762.38 1555.49 764.186 1551.95 Q766.014 1548.38 766.014 1541.27 Q766.014 1534.14 764.186 1530.6 Q762.38 1527.04 758.746 1527.04 M758.746 1523.33 Q764.556 1523.33 767.612 1527.94 Q770.69 1532.52 770.69 1541.27 Q770.69 1550 767.612 1554.61 Q764.556 1559.19 758.746 1559.19 Q752.936 1559.19 749.857 1554.61 Q746.801 1550 746.801 1541.27 Q746.801 1532.52 749.857 1527.94 Q752.936 1523.33 758.746 1523.33 Z" fill="#000000" fill-rule="nonzero" fill-opacity="1" /><path clip-path="url(#clip870)" d="M1192.42 1554.58 L1208.74 1554.58 L1208.74 1558.52 L1186.79 1558.52 L1186.79 1554.58 Q1189.46 1551.83 1194.04 1547.2 Q1198.64 1542.55 1199.83 1541.21 Q1202.07 1538.68 1202.95 1536.95 Q1203.85 1535.19 1203.85 1533.5 Q1203.85 1530.74 1201.91 1529.01 Q1199.99 1527.27 1196.89 1527.27 Q1194.69 1527.27 1192.23 1528.03 Q1189.8 1528.8 1187.02 1530.35 L1187.02 1525.63 Q1189.85 1524.49 1192.3 1523.91 Q1194.76 1523.33 1196.79 1523.33 Q1202.16 1523.33 1205.36 1526.02 Q1208.55 1528.71 1208.55 1533.2 Q1208.55 1535.33 1207.74 1537.25 Q1206.96 1539.14 1204.85 1541.74 Q1204.27 1542.41 1201.17 1545.63 Q1198.07 1548.82 1192.42 1554.58 Z" fill="#000000" fill-rule="nonzero" fill-opacity="1" /><path clip-path="url(#clip870)" d="M1228.55 1527.04 Q1224.94 1527.04 1223.11 1530.6 Q1221.31 1534.14 1221.31 1541.27 Q1221.31 1548.38 1223.11 1551.95 Q1224.94 1555.49 1228.55 1555.49 Q1232.19 1555.49 1233.99 1551.95 Q1235.82 1548.38 1235.82 1541.27 Q1235.82 1534.14 1233.99 1530.6 Q1232.19 1527.04 1228.55 1527.04 M1228.55 1523.33 Q1234.36 1523.33 1237.42 1527.94 Q1240.5 1532.52 1240.5 1541.27 Q1240.5 1550 1237.42 1554.61 Q1234.36 1559.19 1228.55 1559.19 Q1222.74 1559.19 1219.66 1554.61 Q1216.61 1550 1216.61 1541.27 Q1216.61 1532.52 1219.66 1527.94 Q1222.74 1523.33 1228.55 1523.33 Z" fill="#000000" fill-rule="nonzero" fill-opacity="1" /><path clip-path="url(#clip870)" d="M1671.43 1539.89 Q1674.78 1540.6 1676.66 1542.87 Q1678.56 1545.14 1678.56 1548.47 Q1678.56 1553.59 1675.04 1556.39 Q1671.52 1559.19 1665.04 1559.19 Q1662.86 1559.19 1660.55 1558.75 Q1658.25 1558.33 1655.8 1557.48 L1655.8 1552.96 Q1657.75 1554.1 1660.06 1554.68 Q1662.37 1555.26 1664.9 1555.26 Q1669.3 1555.26 1671.59 1553.52 Q1673.9 1551.78 1673.9 1548.47 Q1673.9 1545.42 1671.75 1543.71 Q1669.62 1541.97 1665.8 1541.97 L1661.77 1541.97 L1661.77 1538.13 L1665.99 1538.13 Q1669.43 1538.13 1671.26 1536.76 Q1673.09 1535.37 1673.09 1532.78 Q1673.09 1530.12 1671.19 1528.71 Q1669.32 1527.27 1665.8 1527.27 Q1663.88 1527.27 1661.68 1527.69 Q1659.48 1528.1 1656.84 1528.98 L1656.84 1524.82 Q1659.5 1524.08 1661.82 1523.71 Q1664.16 1523.33 1666.22 1523.33 Q1671.54 1523.33 1674.64 1525.77 Q1677.75 1528.17 1677.75 1532.29 Q1677.75 1535.16 1676.1 1537.15 Q1674.46 1539.12 1671.43 1539.89 Z" fill="#000000" fill-rule="nonzero" fill-opacity="1" /><path clip-path="url(#clip870)" d="M1697.42 1527.04 Q1693.81 1527.04 1691.98 1530.6 Q1690.18 1534.14 1690.18 1541.27 Q1690.18 1548.38 1691.98 1551.95 Q1693.81 1555.49 1697.42 1555.49 Q1701.06 1555.49 1702.86 1551.95 Q1704.69 1548.38 1704.69 1541.27 Q1704.69 1534.14 1702.86 1530.6 Q1701.06 1527.04 1697.42 1527.04 M1697.42 1523.33 Q1703.23 1523.33 1706.29 1527.94 Q1709.37 1532.52 1709.37 1541.27 Q1709.37 1550 1706.29 1554.61 Q1703.23 1559.19 1697.42 1559.19 Q1691.61 1559.19 1688.53 1554.61 Q1685.48 1550 1685.48 1541.27 Q1685.48 1532.52 1688.53 1527.94 Q1691.61 1523.33 1697.42 1523.33 Z" fill="#000000" fill-rule="nonzero" fill-opacity="1" /><path clip-path="url(#clip870)" d="M2139.69 1528.03 L2127.89 1546.48 L2139.69 1546.48 L2139.69 1528.03 M2138.47 1523.96 L2144.35 1523.96 L2144.35 1546.48 L2149.28 1546.48 L2149.28 1550.37 L2144.35 1550.37 L2144.35 1558.52 L2139.69 1558.52 L2139.69 1550.37 L2124.09 1550.37 L2124.09 1545.86 L2138.47 1523.96 Z" fill="#000000" fill-rule="nonzero" fill-opacity="1" /><path clip-path="url(#clip870)" d="M2167.01 1527.04 Q2163.4 1527.04 2161.57 1530.6 Q2159.76 1534.14 2159.76 1541.27 Q2159.76 1548.38 2161.57 1551.95 Q2163.4 1555.49 2167.01 1555.49 Q2170.64 1555.49 2172.45 1551.95 Q2174.28 1548.38 2174.28 1541.27 Q2174.28 1534.14 2172.45 1530.6 Q2170.64 1527.04 2167.01 1527.04 M2167.01 1523.33 Q2172.82 1523.33 2175.87 1527.94 Q2178.95 1532.52 2178.95 1541.27 Q2178.95 1550 2175.87 1554.61 Q2172.82 1559.19 2167.01 1559.19 Q2161.2 1559.19 2158.12 1554.61 Q2155.06 1550 2155.06 1541.27 Q2155.06 1532.52 2158.12 1527.94 Q2161.2 1523.33 2167.01 1523.33 Z" fill="#000000" fill-rule="nonzero" fill-opacity="1" /><polyline clip-path="url(#clip870)" style="stroke:#000000; stroke-linecap:round; stroke-linejoin:round; stroke-width:4; stroke-opacity:1; fill:none" points="213.869,1492.25 213.869,913.322 "/>
<polyline clip-path="url(#clip870)" style="stroke:#000000; stroke-linecap:round; stroke-linejoin:round; stroke-width:4; stroke-opacity:1; fill:none" points="213.869,1462.44 229.627,1462.44 "/>
<polyline clip-path="url(#clip870)" style="stroke:#000000; stroke-linecap:round; stroke-linejoin:round; stroke-width:4; stroke-opacity:1; fill:none" points="213.869,1288.49 229.627,1288.49 "/>
<polyline clip-path="url(#clip870)" style="stroke:#000000; stroke-linecap:round; stroke-linejoin:round; stroke-width:4; stroke-opacity:1; fill:none" points="213.869,1114.54 229.627,1114.54 "/>
<polyline clip-path="url(#clip870)" style="stroke:#000000; stroke-linecap:round; stroke-linejoin:round; stroke-width:4; stroke-opacity:1; fill:none" points="213.869,940.592 229.627,940.592 "/>
<path clip-path="url(#clip870)" d="M78.734 1462.89 L108.41 1462.89 L108.41 1466.83 L78.734 1466.83 L78.734 1462.89 Z" fill="#000000" fill-rule="nonzero" fill-opacity="1" /><path clip-path="url(#clip870)" d="M119.312 1475.78 L126.951 1475.78 L126.951 1449.42 L118.641 1451.08 L118.641 1446.83 L126.905 1445.16 L131.581 1445.16 L131.581 1475.78 L139.22 1475.78 L139.22 1479.72 L119.312 1479.72 L119.312 1475.78 Z" fill="#000000" fill-rule="nonzero" fill-opacity="1" /><path clip-path="url(#clip870)" d="M158.664 1448.24 Q155.053 1448.24 153.224 1451.8 Q151.419 1455.34 151.419 1462.47 Q151.419 1469.58 153.224 1473.15 Q155.053 1476.69 158.664 1476.69 Q162.298 1476.69 164.104 1473.15 Q165.933 1469.58 165.933 1462.47 Q165.933 1455.34 164.104 1451.8 Q162.298 1448.24 158.664 1448.24 M158.664 1444.53 Q164.474 1444.53 167.53 1449.14 Q170.609 1453.72 170.609 1462.47 Q170.609 1471.2 167.53 1475.81 Q164.474 1480.39 158.664 1480.39 Q152.854 1480.39 149.775 1475.81 Q146.72 1471.2 146.72 1462.47 Q146.72 1453.72 149.775 1449.14 Q152.854 1444.53 158.664 1444.53 Z" fill="#000000" fill-rule="nonzero" fill-opacity="1" /><path clip-path="url(#clip870)" d="M158.664 1274.29 Q155.053 1274.29 153.224 1277.85 Q151.419 1281.4 151.419 1288.52 Q151.419 1295.63 153.224 1299.2 Q155.053 1302.74 158.664 1302.74 Q162.298 1302.74 164.104 1299.2 Q165.933 1295.63 165.933 1288.52 Q165.933 1281.4 164.104 1277.85 Q162.298 1274.29 158.664 1274.29 M158.664 1270.59 Q164.474 1270.59 167.53 1275.19 Q170.609 1279.77 170.609 1288.52 Q170.609 1297.25 167.53 1301.86 Q164.474 1306.44 158.664 1306.44 Q152.854 1306.44 149.775 1301.86 Q146.72 1297.25 146.72 1288.52 Q146.72 1279.77 149.775 1275.19 Q152.854 1270.59 158.664 1270.59 Z" fill="#000000" fill-rule="nonzero" fill-opacity="1" /><path clip-path="url(#clip870)" d="M119.312 1127.89 L126.951 1127.89 L126.951 1101.52 L118.641 1103.19 L118.641 1098.93 L126.905 1097.26 L131.581 1097.26 L131.581 1127.89 L139.22 1127.89 L139.22 1131.82 L119.312 1131.82 L119.312 1127.89 Z" fill="#000000" fill-rule="nonzero" fill-opacity="1" /><path clip-path="url(#clip870)" d="M158.664 1100.34 Q155.053 1100.34 153.224 1103.9 Q151.419 1107.45 151.419 1114.58 Q151.419 1121.68 153.224 1125.25 Q155.053 1128.79 158.664 1128.79 Q162.298 1128.79 164.104 1125.25 Q165.933 1121.68 165.933 1114.58 Q165.933 1107.45 164.104 1103.9 Q162.298 1100.34 158.664 1100.34 M158.664 1096.64 Q164.474 1096.64 167.53 1101.24 Q170.609 1105.83 170.609 1114.58 Q170.609 1123.3 167.53 1127.91 Q164.474 1132.49 158.664 1132.49 Q152.854 1132.49 149.775 1127.91 Q146.72 1123.3 146.72 1114.58 Q146.72 1105.83 149.775 1101.24 Q152.854 1096.64 158.664 1096.64 Z" fill="#000000" fill-rule="nonzero" fill-opacity="1" /><path clip-path="url(#clip870)" d="M122.53 953.937 L138.849 953.937 L138.849 957.872 L116.905 957.872 L116.905 953.937 Q119.567 951.182 124.15 946.552 Q128.757 941.9 129.937 940.557 Q132.183 938.034 133.062 936.298 Q133.965 934.539 133.965 932.849 Q133.965 930.094 132.021 928.358 Q130.099 926.622 126.998 926.622 Q124.799 926.622 122.345 927.386 Q119.914 928.15 117.137 929.701 L117.137 924.978 Q119.961 923.844 122.414 923.266 Q124.868 922.687 126.905 922.687 Q132.275 922.687 135.47 925.372 Q138.664 928.057 138.664 932.548 Q138.664 934.678 137.854 936.599 Q137.067 938.497 134.961 941.09 Q134.382 941.761 131.28 944.978 Q128.178 948.173 122.53 953.937 Z" fill="#000000" fill-rule="nonzero" fill-opacity="1" /><path clip-path="url(#clip870)" d="M158.664 926.391 Q155.053 926.391 153.224 929.955 Q151.419 933.497 151.419 940.627 Q151.419 947.733 153.224 951.298 Q155.053 954.839 158.664 954.839 Q162.298 954.839 164.104 951.298 Q165.933 947.733 165.933 940.627 Q165.933 933.497 164.104 929.955 Q162.298 926.391 158.664 926.391 M158.664 922.687 Q164.474 922.687 167.53 927.293 Q170.609 931.877 170.609 940.627 Q170.609 949.353 167.53 953.96 Q164.474 958.543 158.664 958.543 Q152.854 958.543 149.775 953.96 Q146.72 949.353 146.72 940.627 Q146.72 931.877 149.775 927.293 Q152.854 922.687 158.664 922.687 Z" fill="#000000" fill-rule="nonzero" fill-opacity="1" /><path clip-path="url(#clip870)" d="M711.889 812.096 L724.082 812.096 L739.516 853.253 L755.031 812.096 L767.224 812.096 L767.224 872.576 L759.244 872.576 L759.244 819.469 L743.648 860.95 L735.425 860.95 L719.829 819.469 L719.829 872.576 L711.889 872.576 L711.889 812.096 Z" fill="#000000" fill-rule="nonzero" fill-opacity="1" /><path clip-path="url(#clip870)" d="M800.725 832.432 Q794.73 832.432 791.246 837.131 Q787.762 841.789 787.762 849.931 Q787.762 858.074 791.205 862.773 Q794.689 867.431 800.725 867.431 Q806.68 867.431 810.164 862.732 Q813.647 858.033 813.647 849.931 Q813.647 841.87 810.164 837.171 Q806.68 832.432 800.725 832.432 M800.725 826.112 Q810.447 826.112 815.997 832.432 Q821.547 838.751 821.547 849.931 Q821.547 861.071 815.997 867.431 Q810.447 873.751 800.725 873.751 Q790.962 873.751 785.413 867.431 Q779.903 861.071 779.903 849.931 Q779.903 838.751 785.413 832.432 Q790.962 826.112 800.725 826.112 Z" fill="#000000" fill-rule="nonzero" fill-opacity="1" /><path clip-path="url(#clip870)" d="M869.226 835.915 Q872.021 830.892 875.91 828.502 Q879.799 826.112 885.065 826.112 Q892.154 826.112 896.002 831.095 Q899.851 836.037 899.851 845.192 L899.851 872.576 L892.357 872.576 L892.357 845.435 Q892.357 838.913 890.048 835.753 Q887.739 832.594 882.999 832.594 Q877.206 832.594 873.844 836.442 Q870.482 840.29 870.482 846.934 L870.482 872.576 L862.987 872.576 L862.987 845.435 Q862.987 838.872 860.678 835.753 Q858.369 832.594 853.549 832.594 Q847.837 832.594 844.475 836.482 Q841.113 840.331 841.113 846.934 L841.113 872.576 L833.618 872.576 L833.618 827.206 L841.113 827.206 L841.113 834.254 Q843.665 830.082 847.229 828.097 Q850.794 826.112 855.696 826.112 Q860.638 826.112 864.081 828.624 Q867.565 831.135 869.226 835.915 Z" fill="#000000" fill-rule="nonzero" fill-opacity="1" /><path clip-path="url(#clip870)" d="M953.525 848.028 L953.525 851.673 L919.255 851.673 Q919.741 859.37 923.873 863.421 Q928.045 867.431 935.458 867.431 Q939.752 867.431 943.763 866.378 Q947.813 865.325 951.783 863.218 L951.783 870.267 Q947.773 871.968 943.56 872.86 Q939.347 873.751 935.013 873.751 Q924.156 873.751 917.796 867.431 Q911.477 861.112 911.477 850.337 Q911.477 839.197 917.472 832.675 Q923.508 826.112 933.716 826.112 Q942.871 826.112 948.178 832.026 Q953.525 837.9 953.525 848.028 M946.072 845.84 Q945.991 839.723 942.628 836.077 Q939.307 832.432 933.797 832.432 Q927.559 832.432 923.792 835.956 Q920.065 839.48 919.498 845.881 L946.072 845.84 Z" fill="#000000" fill-rule="nonzero" fill-opacity="1" /><path clip-path="url(#clip870)" d="M1003.47 845.192 L1003.47 872.576 L996.019 872.576 L996.019 845.435 Q996.019 838.994 993.508 835.794 Q990.996 832.594 985.973 832.594 Q979.937 832.594 976.453 836.442 Q972.97 840.29 972.97 846.934 L972.97 872.576 L965.475 872.576 L965.475 827.206 L972.97 827.206 L972.97 834.254 Q975.643 830.163 979.248 828.138 Q982.894 826.112 987.634 826.112 Q995.452 826.112 999.462 830.973 Q1003.47 835.794 1003.47 845.192 Z" fill="#000000" fill-rule="nonzero" fill-opacity="1" /><path clip-path="url(#clip870)" d="M1025.71 814.324 L1025.71 827.206 L1041.07 827.206 L1041.07 832.999 L1025.71 832.999 L1025.71 857.628 Q1025.71 863.178 1027.21 864.758 Q1028.75 866.338 1033.41 866.338 L1041.07 866.338 L1041.07 872.576 L1033.41 872.576 Q1024.78 872.576 1021.5 869.376 Q1018.22 866.135 1018.22 857.628 L1018.22 832.999 L1012.75 832.999 L1012.75 827.206 L1018.22 827.206 L1018.22 814.324 L1025.71 814.324 Z" fill="#000000" fill-rule="nonzero" fill-opacity="1" /><path clip-path="url(#clip870)" d="M1077.56 812.096 L1115.8 812.096 L1115.8 818.983 L1085.75 818.983 L1085.75 836.888 L1114.55 836.888 L1114.55 843.774 L1085.75 843.774 L1085.75 865.689 L1116.53 865.689 L1116.53 872.576 L1077.56 872.576 L1077.56 812.096 Z" fill="#000000" fill-rule="nonzero" fill-opacity="1" /><path clip-path="url(#clip870)" d="M1167.37 845.192 L1167.37 872.576 L1159.92 872.576 L1159.92 845.435 Q1159.92 838.994 1157.41 835.794 Q1154.9 832.594 1149.87 832.594 Q1143.84 832.594 1140.35 836.442 Q1136.87 840.29 1136.87 846.934 L1136.87 872.576 L1129.37 872.576 L1129.37 827.206 L1136.87 827.206 L1136.87 834.254 Q1139.54 830.163 1143.15 828.138 Q1146.79 826.112 1151.53 826.112 Q1159.35 826.112 1163.36 830.973 Q1167.37 835.794 1167.37 845.192 Z" fill="#000000" fill-rule="nonzero" fill-opacity="1" /><path clip-path="url(#clip870)" d="M1176.89 827.206 L1184.79 827.206 L1198.97 865.284 L1213.15 827.206 L1221.05 827.206 L1204.03 872.576 L1193.91 872.576 L1176.89 827.206 Z" fill="#000000" fill-rule="nonzero" fill-opacity="1" /><path clip-path="url(#clip870)" d="M1270.14 848.028 L1270.14 851.673 L1235.87 851.673 Q1236.36 859.37 1240.49 863.421 Q1244.66 867.431 1252.08 867.431 Q1256.37 867.431 1260.38 866.378 Q1264.43 865.325 1268.4 863.218 L1268.4 870.267 Q1264.39 871.968 1260.18 872.86 Q1255.97 873.751 1251.63 873.751 Q1240.77 873.751 1234.41 867.431 Q1228.1 861.112 1228.1 850.337 Q1228.1 839.197 1234.09 832.675 Q1240.13 826.112 1250.33 826.112 Q1259.49 826.112 1264.8 832.026 Q1270.14 837.9 1270.14 848.028 M1262.69 845.84 Q1262.61 839.723 1259.25 836.077 Q1255.93 832.432 1250.42 832.432 Q1244.18 832.432 1240.41 835.956 Q1236.68 839.48 1236.12 845.881 L1262.69 845.84 Z" fill="#000000" fill-rule="nonzero" fill-opacity="1" /><path clip-path="url(#clip870)" d="M1282.38 809.544 L1289.83 809.544 L1289.83 872.576 L1282.38 872.576 L1282.38 809.544 Z" fill="#000000" fill-rule="nonzero" fill-opacity="1" /><path clip-path="url(#clip870)" d="M1323.01 832.432 Q1317.01 832.432 1313.53 837.131 Q1310.05 841.789 1310.05 849.931 Q1310.05 858.074 1313.49 862.773 Q1316.97 867.431 1323.01 867.431 Q1328.96 867.431 1332.45 862.732 Q1335.93 858.033 1335.93 849.931 Q1335.93 841.87 1332.45 837.171 Q1328.96 832.432 1323.01 832.432 M1323.01 826.112 Q1332.73 826.112 1338.28 832.432 Q1343.83 838.751 1343.83 849.931 Q1343.83 861.071 1338.28 867.431 Q1332.73 873.751 1323.01 873.751 Q1313.25 873.751 1307.7 867.431 Q1302.19 861.071 1302.19 849.931 Q1302.19 838.751 1307.7 832.432 Q1313.25 826.112 1323.01 826.112 Z" fill="#000000" fill-rule="nonzero" fill-opacity="1" /><path clip-path="url(#clip870)" d="M1363.4 865.77 L1363.4 889.833 L1355.9 889.833 L1355.9 827.206 L1363.4 827.206 L1363.4 834.092 Q1365.75 830.042 1369.31 828.097 Q1372.92 826.112 1377.9 826.112 Q1386.16 826.112 1391.31 832.675 Q1396.49 839.237 1396.49 849.931 Q1396.49 860.626 1391.31 867.188 Q1386.16 873.751 1377.9 873.751 Q1372.92 873.751 1369.31 871.806 Q1365.75 869.821 1363.4 865.77 M1388.75 849.931 Q1388.75 841.708 1385.35 837.05 Q1381.99 832.351 1376.08 832.351 Q1370.16 832.351 1366.76 837.05 Q1363.4 841.708 1363.4 849.931 Q1363.4 858.155 1366.76 862.854 Q1370.16 867.512 1376.08 867.512 Q1381.99 867.512 1385.35 862.854 Q1388.75 858.155 1388.75 849.931 Z" fill="#000000" fill-rule="nonzero" fill-opacity="1" /><path clip-path="url(#clip870)" d="M1447.65 848.028 L1447.65 851.673 L1413.38 851.673 Q1413.87 859.37 1418 863.421 Q1422.17 867.431 1429.59 867.431 Q1433.88 867.431 1437.89 866.378 Q1441.94 865.325 1445.91 863.218 L1445.91 870.267 Q1441.9 871.968 1437.69 872.86 Q1433.48 873.751 1429.14 873.751 Q1418.29 873.751 1411.93 867.431 Q1405.61 861.112 1405.61 850.337 Q1405.61 839.197 1411.6 832.675 Q1417.64 826.112 1427.85 826.112 Q1437 826.112 1442.31 832.026 Q1447.65 837.9 1447.65 848.028 M1440.2 845.84 Q1440.12 839.723 1436.76 836.077 Q1433.44 832.432 1427.93 832.432 Q1421.69 832.432 1417.92 835.956 Q1414.19 839.48 1413.63 845.881 L1440.2 845.84 Z" fill="#000000" fill-rule="nonzero" fill-opacity="1" /><path clip-path="url(#clip870)" d="M1494.77 818.821 L1494.77 865.851 L1504.65 865.851 Q1517.17 865.851 1522.96 860.18 Q1528.79 854.509 1528.79 842.275 Q1528.79 830.123 1522.96 824.492 Q1517.17 818.821 1504.65 818.821 L1494.77 818.821 M1486.58 812.096 L1503.39 812.096 Q1520.98 812.096 1529.2 819.428 Q1537.42 826.72 1537.42 842.275 Q1537.42 857.912 1529.16 865.244 Q1520.89 872.576 1503.39 872.576 L1486.58 872.576 L1486.58 812.096 Z" fill="#000000" fill-rule="nonzero" fill-opacity="1" /><path clip-path="url(#clip870)" d="M1550.14 827.206 L1557.6 827.206 L1557.6 872.576 L1550.14 872.576 L1550.14 827.206 M1550.14 809.544 L1557.6 809.544 L1557.6 818.983 L1550.14 818.983 L1550.14 809.544 Z" fill="#000000" fill-rule="nonzero" fill-opacity="1" /><path clip-path="url(#clip870)" d="M1596.16 809.544 L1596.16 815.742 L1589.03 815.742 Q1585.02 815.742 1583.44 817.362 Q1581.9 818.983 1581.9 823.195 L1581.9 827.206 L1594.18 827.206 L1594.18 832.999 L1581.9 832.999 L1581.9 872.576 L1574.41 872.576 L1574.41 832.999 L1567.28 832.999 L1567.28 827.206 L1574.41 827.206 L1574.41 824.046 Q1574.41 816.471 1577.93 813.028 Q1581.46 809.544 1589.11 809.544 L1596.16 809.544 Z" fill="#000000" fill-rule="nonzero" fill-opacity="1" /><path clip-path="url(#clip870)" d="M1625.37 809.544 L1625.37 815.742 L1618.24 815.742 Q1614.23 815.742 1612.65 817.362 Q1611.11 818.983 1611.11 823.195 L1611.11 827.206 L1623.38 827.206 L1623.38 832.999 L1611.11 832.999 L1611.11 872.576 L1603.61 872.576 L1603.61 832.999 L1596.48 832.999 L1596.48 827.206 L1603.61 827.206 L1603.61 824.046 Q1603.61 816.471 1607.14 813.028 Q1610.66 809.544 1618.32 809.544 L1625.37 809.544 Z" fill="#000000" fill-rule="nonzero" fill-opacity="1" /><path clip-path="url(#clip870)" d="M1670.41 848.028 L1670.41 851.673 L1636.14 851.673 Q1636.63 859.37 1640.76 863.421 Q1644.93 867.431 1652.35 867.431 Q1656.64 867.431 1660.65 866.378 Q1664.7 865.325 1668.67 863.218 L1668.67 870.267 Q1664.66 871.968 1660.45 872.86 Q1656.24 873.751 1651.9 873.751 Q1641.04 873.751 1634.68 867.431 Q1628.37 861.112 1628.37 850.337 Q1628.37 839.197 1634.36 832.675 Q1640.4 826.112 1650.6 826.112 Q1659.76 826.112 1665.07 832.026 Q1670.41 837.9 1670.41 848.028 M1662.96 845.84 Q1662.88 839.723 1659.52 836.077 Q1656.2 832.432 1650.69 832.432 Q1644.45 832.432 1640.68 835.956 Q1636.95 839.48 1636.39 845.881 L1662.96 845.84 Z" fill="#000000" fill-rule="nonzero" fill-opacity="1" /><path clip-path="url(#clip870)" d="M1708.94 834.173 Q1707.68 833.444 1706.18 833.12 Q1704.72 832.756 1702.94 832.756 Q1696.62 832.756 1693.22 836.888 Q1689.86 840.979 1689.86 848.676 L1689.86 872.576 L1682.36 872.576 L1682.36 827.206 L1689.86 827.206 L1689.86 834.254 Q1692.21 830.123 1695.97 828.138 Q1699.74 826.112 1705.13 826.112 Q1705.9 826.112 1706.83 826.234 Q1707.76 826.315 1708.9 826.517 L1708.94 834.173 Z" fill="#000000" fill-rule="nonzero" fill-opacity="1" /><path clip-path="url(#clip870)" d="M1753.74 848.028 L1753.74 851.673 L1719.47 851.673 Q1719.96 859.37 1724.09 863.421 Q1728.26 867.431 1735.67 867.431 Q1739.97 867.431 1743.98 866.378 Q1748.03 865.325 1752 863.218 L1752 870.267 Q1747.99 871.968 1743.78 872.86 Q1739.56 873.751 1735.23 873.751 Q1724.37 873.751 1718.01 867.431 Q1711.69 861.112 1711.69 850.337 Q1711.69 839.197 1717.69 832.675 Q1723.72 826.112 1733.93 826.112 Q1743.09 826.112 1748.39 832.026 Q1753.74 837.9 1753.74 848.028 M1746.29 845.84 Q1746.21 839.723 1742.84 836.077 Q1739.52 832.432 1734.01 832.432 Q1727.77 832.432 1724.01 835.956 Q1720.28 839.48 1719.71 845.881 L1746.29 845.84 Z" fill="#000000" fill-rule="nonzero" fill-opacity="1" /><path clip-path="url(#clip870)" d="M1803.69 845.192 L1803.69 872.576 L1796.23 872.576 L1796.23 845.435 Q1796.23 838.994 1793.72 835.794 Q1791.21 832.594 1786.19 832.594 Q1780.15 832.594 1776.67 836.442 Q1773.19 840.29 1773.19 846.934 L1773.19 872.576 L1765.69 872.576 L1765.69 827.206 L1773.19 827.206 L1773.19 834.254 Q1775.86 830.163 1779.46 828.138 Q1783.11 826.112 1787.85 826.112 Q1795.67 826.112 1799.68 830.973 Q1803.69 835.794 1803.69 845.192 Z" fill="#000000" fill-rule="nonzero" fill-opacity="1" /><path clip-path="url(#clip870)" d="M1851.21 828.948 L1851.21 835.915 Q1848.05 834.173 1844.85 833.323 Q1841.69 832.432 1838.45 832.432 Q1831.19 832.432 1827.18 837.05 Q1823.17 841.627 1823.17 849.931 Q1823.17 858.236 1827.18 862.854 Q1831.19 867.431 1838.45 867.431 Q1841.69 867.431 1844.85 866.581 Q1848.05 865.689 1851.21 863.948 L1851.21 870.834 Q1848.09 872.292 1844.72 873.022 Q1841.4 873.751 1837.64 873.751 Q1827.39 873.751 1821.35 867.31 Q1815.31 860.869 1815.31 849.931 Q1815.31 838.832 1821.39 832.472 Q1827.51 826.112 1838.12 826.112 Q1841.56 826.112 1844.85 826.841 Q1848.13 827.53 1851.21 828.948 Z" fill="#000000" fill-rule="nonzero" fill-opacity="1" /><path clip-path="url(#clip870)" d="M1902.98 848.028 L1902.98 851.673 L1868.71 851.673 Q1869.19 859.37 1873.32 863.421 Q1877.5 867.431 1884.91 867.431 Q1889.2 867.431 1893.21 866.378 Q1897.26 865.325 1901.23 863.218 L1901.23 870.267 Q1897.22 871.968 1893.01 872.86 Q1888.8 873.751 1884.46 873.751 Q1873.61 873.751 1867.25 867.431 Q1860.93 861.112 1860.93 850.337 Q1860.93 839.197 1866.92 832.675 Q1872.96 826.112 1883.17 826.112 Q1892.32 826.112 1897.63 832.026 Q1902.98 837.9 1902.98 848.028 M1895.52 845.84 Q1895.44 839.723 1892.08 836.077 Q1888.76 832.432 1883.25 832.432 Q1877.01 832.432 1873.24 835.956 Q1869.52 839.48 1868.95 845.881 L1895.52 845.84 Z" fill="#000000" fill-rule="nonzero" fill-opacity="1" /><path clip-path="url(#clip873)" d="M275.768 1288.49 L299.215 1289.28 L322.662 1288.16 L346.109 1288.62 L369.556 1288.92 L393.003 1287.63 L416.45 1287.92 L439.897 1288.04 L463.344 1288 L486.791 1274.63 L510.237 1261.58 L533.684 1257.6 L557.131 1267.07 L580.578 1267.69 L604.025 1260.89 L627.472 1254.75 L650.919 1247.34 L674.366 1243.75 L697.813 1233.33 L721.26 1234.81 L744.707 1228.99 L768.153 1246.59 L791.6 1264.26 L815.047 1283.1 L838.494 1302.35 L861.941 1313.26 L885.388 1329.23 L908.835 1398.16 L932.282 1261.94 L955.729 1176.99 L979.176 1172.58 L1002.62 1168.01 L1026.07 1161.53 L1049.52 1174.15 L1072.96 1224.06 L1096.41 1292.99 L1119.86 1275.96 L1143.3 1279.39 L1166.75 1282.37 L1190.2 1286.41 L1213.64 1286.35 L1237.09 1290.5 L1260.54 1294.48 L1283.99 1296.63 L1307.43 1297.04 L1330.88 1296.63 L1354.33 1294.74 L1377.77 1291.01 L1401.22 1287.12 L1424.67 1286.22 L1448.11 1282.33 L1471.56 1279.49 L1495.01 1275.79 L1518.45 1292.91 L1541.9 1223.11 L1565.35 1174.11 L1588.8 1161.49 L1612.24 1167.97 L1635.69 1172.54 L1659.14 1176.95 L1682.58 1262.28 L1706.03 1398.43 L1729.48 1329.17 L1752.92 1313.35 L1776.37 1302.2 L1799.82 1282.73 L1823.26 1264.29 L1846.71 1246.48 L1870.16 1228.75 L1893.61 1234.35 L1917.05 1233.38 L1940.5 1243.55 L1963.95 1246.89 L1987.39 1255.22 L2010.84 1261.03 L2034.29 1267.97 L2057.73 1266.97 L2081.18 1257.11 L2104.63 1261.76 L2128.07 1274.6 L2151.52 1288 L2174.97 1288.04 L2198.42 1287.92 L2221.86 1287.63 L2245.31 1288.92 L2268.76 1288.62 L2292.2 1288.16 L2315.65 1289.28 L2339.1 1288.49 L2339.1 1288.49 L2315.65 1288.49 L2292.2 1288.49 L2268.76 1288.49 L2245.31 1288.49 L2221.86 1288.49 L2198.42 1288.49 L2174.97 1288.49 L2151.52 1288.49 L2128.07 1288.49 L2104.63 1288.49 L2081.18 1288.49 L2057.73 1288.49 L2034.29 1288.49 L2010.84 1288.49 L1987.39 1288.49 L1963.95 1288.49 L1940.5 1288.49 L1917.05 1288.49 L1893.61 1288.49 L1870.16 1288.49 L1846.71 1288.49 L1823.26 1288.49 L1799.82 1288.49 L1776.37 1288.49 L1752.92 1288.49 L1729.48 1288.49 L1706.03 1288.49 L1682.58 1288.49 L1659.14 1288.49 L1635.69 1288.49 L1612.24 1288.49 L1588.8 1288.49 L1565.35 1288.49 L1541.9 1288.49 L1518.45 1288.49 L1495.01 1288.49 L1471.56 1288.49 L1448.11 1288.49 L1424.67 1288.49 L1401.22 1288.49 L1377.77 1288.49 L1354.33 1288.49 L1330.88 1288.49 L1307.43 1288.49 L1283.99 1288.49 L1260.54 1288.49 L1237.09 1288.49 L1213.64 1288.49 L1190.2 1288.49 L1166.75 1288.49 L1143.3 1288.49 L1119.86 1288.49 L1096.41 1288.49 L1072.96 1288.49 L1049.52 1288.49 L1026.07 1288.49 L1002.62 1288.49 L979.176 1288.49 L955.729 1288.49 L932.282 1288.49 L908.835 1288.49 L885.388 1288.49 L861.941 1288.49 L838.494 1288.49 L815.047 1288.49 L791.6 1288.49 L768.153 1288.49 L744.707 1288.49 L721.26 1288.49 L697.813 1288.49 L674.366 1288.49 L650.919 1288.49 L627.472 1288.49 L604.025 1288.49 L580.578 1288.49 L557.131 1288.49 L533.684 1288.49 L510.237 1288.49 L486.791 1288.49 L463.344 1288.49 L439.897 1288.49 L416.45 1288.49 L393.003 1288.49 L369.556 1288.49 L346.109 1288.49 L322.662 1288.49 L299.215 1288.49 L275.768 1288.49  Z" fill="#0000ff" fill-rule="evenodd" fill-opacity="0.5"/>
<polyline clip-path="url(#clip873)" style="stroke:#0000ff; stroke-linecap:round; stroke-linejoin:round; stroke-width:4; stroke-opacity:1; fill:none" points="275.768,1288.49 299.215,1289.28 322.662,1288.16 346.109,1288.62 369.556,1288.92 393.003,1287.63 416.45,1287.92 439.897,1288.04 463.344,1288 486.791,1274.63 510.237,1261.58 533.684,1257.6 557.131,1267.07 580.578,1267.69 604.025,1260.89 627.472,1254.75 650.919,1247.34 674.366,1243.75 697.813,1233.33 721.26,1234.81 744.707,1228.99 768.153,1246.59 791.6,1264.26 815.047,1283.1 838.494,1302.35 861.941,1313.26 885.388,1329.23 908.835,1398.16 932.282,1261.94 955.729,1176.99 979.176,1172.58 1002.62,1168.01 1026.07,1161.53 1049.52,1174.15 1072.96,1224.06 1096.41,1292.99 1119.86,1275.96 1143.3,1279.39 1166.75,1282.37 1190.2,1286.41 1213.64,1286.35 1237.09,1290.5 1260.54,1294.48 1283.99,1296.63 1307.43,1297.04 1330.88,1296.63 1354.33,1294.74 1377.77,1291.01 1401.22,1287.12 1424.67,1286.22 1448.11,1282.33 1471.56,1279.49 1495.01,1275.79 1518.45,1292.91 1541.9,1223.11 1565.35,1174.11 1588.8,1161.49 1612.24,1167.97 1635.69,1172.54 1659.14,1176.95 1682.58,1262.28 1706.03,1398.43 1729.48,1329.17 1752.92,1313.35 1776.37,1302.2 1799.82,1282.73 1823.26,1264.29 1846.71,1246.48 1870.16,1228.75 1893.61,1234.35 1917.05,1233.38 1940.5,1243.55 1963.95,1246.89 1987.39,1255.22 2010.84,1261.03 2034.29,1267.97 2057.73,1266.97 2081.18,1257.11 2104.63,1261.76 2128.07,1274.6 2151.52,1288 2174.97,1288.04 2198.42,1287.92 2221.86,1287.63 2245.31,1288.92 2268.76,1288.62 2292.2,1288.16 2315.65,1289.28 2339.1,1288.49 "/>
<path clip-path="url(#clip873)" d="M275.768 1288.49 L299.215 1289.28 L322.662 1288.16 L346.109 1288.62 L369.556 1288.92 L393.003 1284.42 L416.45 1278.02 L439.897 1273.2 L463.344 1269.95 L486.791 1264.96 L510.237 1261.55 L533.684 1256.24 L557.131 1252.5 L580.578 1146.33 L604.025 1071.52 L627.472 1307.57 L650.919 1310.46 L674.366 1313.19 L697.813 1315.75 L721.26 1318.14 L744.707 1320.38 L768.153 1323.75 L791.6 1326.96 L815.047 1334.11 L838.494 1337.78 L861.941 1343.79 L885.388 1341.56 L908.835 1339.17 L932.282 1172.17 L955.729 1296.04 L979.176 1365.43 L1002.62 1418.2 L1026.07 1457.94 L1049.52 1475.86 L1072.96 1473.51 L1096.41 1446.78 L1119.86 1415.47 L1143.3 1402.89 L1166.75 1390.14 L1190.2 1353.23 L1213.64 1269.8 L1237.09 1186 L1260.54 1103.79 L1283.99 1019.67 L1307.43 937.128 L1330.88 1019.67 L1354.33 1103.79 L1377.77 1186.01 L1401.22 1269.81 L1424.67 1353.33 L1448.11 1390.18 L1471.56 1402.93 L1495.01 1415.51 L1518.45 1446.98 L1541.9 1473.6 L1565.35 1475.86 L1588.8 1457.94 L1612.24 1418.2 L1635.69 1365.43 L1659.14 1296.04 L1682.58 1172.17 L1706.03 1338.86 L1729.48 1341.39 L1752.92 1343.77 L1776.37 1337.9 L1799.82 1334.07 L1823.26 1327.02 L1846.71 1323.93 L1870.16 1320.67 L1893.61 1318.41 L1917.05 1315.99 L1940.5 1313.4 L1963.95 1310.65 L1987.39 1298.9 L2010.84 929.707 L2034.29 1026.53 L2057.73 1135.08 L2081.18 1165.25 L2104.63 1197 L2128.07 1226.84 L2151.52 1258.26 L2174.97 1264.43 L2198.42 1272.18 L2221.86 1281.5 L2245.31 1288.92 L2268.76 1288.62 L2292.2 1288.16 L2315.65 1289.28 L2339.1 1288.49 L2339.1 1288.49 L2315.65 1288.49 L2292.2 1288.49 L2268.76 1288.49 L2245.31 1288.49 L2221.86 1288.49 L2198.42 1288.49 L2174.97 1288.49 L2151.52 1288.49 L2128.07 1288.49 L2104.63 1288.49 L2081.18 1288.49 L2057.73 1288.49 L2034.29 1288.49 L2010.84 1288.49 L1987.39 1288.49 L1963.95 1288.49 L1940.5 1288.49 L1917.05 1288.49 L1893.61 1288.49 L1870.16 1288.49 L1846.71 1288.49 L1823.26 1288.49 L1799.82 1288.49 L1776.37 1288.49 L1752.92 1288.49 L1729.48 1288.49 L1706.03 1288.49 L1682.58 1288.49 L1659.14 1288.49 L1635.69 1288.49 L1612.24 1288.49 L1588.8 1288.49 L1565.35 1288.49 L1541.9 1288.49 L1518.45 1288.49 L1495.01 1288.49 L1471.56 1288.49 L1448.11 1288.49 L1424.67 1288.49 L1401.22 1288.49 L1377.77 1288.49 L1354.33 1288.49 L1330.88 1288.49 L1307.43 1288.49 L1283.99 1288.49 L1260.54 1288.49 L1237.09 1288.49 L1213.64 1288.49 L1190.2 1288.49 L1166.75 1288.49 L1143.3 1288.49 L1119.86 1288.49 L1096.41 1288.49 L1072.96 1288.49 L1049.52 1288.49 L1026.07 1288.49 L1002.62 1288.49 L979.176 1288.49 L955.729 1288.49 L932.282 1288.49 L908.835 1288.49 L885.388 1288.49 L861.941 1288.49 L838.494 1288.49 L815.047 1288.49 L791.6 1288.49 L768.153 1288.49 L744.707 1288.49 L721.26 1288.49 L697.813 1288.49 L674.366 1288.49 L650.919 1288.49 L627.472 1288.49 L604.025 1288.49 L580.578 1288.49 L557.131 1288.49 L533.684 1288.49 L510.237 1288.49 L486.791 1288.49 L463.344 1288.49 L439.897 1288.49 L416.45 1288.49 L393.003 1288.49 L369.556 1288.49 L346.109 1288.49 L322.662 1288.49 L299.215 1288.49 L275.768 1288.49  Z" fill="#ff0000" fill-rule="evenodd" fill-opacity="0.5"/>
<polyline clip-path="url(#clip873)" style="stroke:#ff0000; stroke-linecap:round; stroke-linejoin:round; stroke-width:4; stroke-opacity:1; fill:none" points="275.768,1288.49 299.215,1289.28 322.662,1288.16 346.109,1288.62 369.556,1288.92 393.003,1284.42 416.45,1278.02 439.897,1273.2 463.344,1269.95 486.791,1264.96 510.237,1261.55 533.684,1256.24 557.131,1252.5 580.578,1146.33 604.025,1071.52 627.472,1307.57 650.919,1310.46 674.366,1313.19 697.813,1315.75 721.26,1318.14 744.707,1320.38 768.153,1323.75 791.6,1326.96 815.047,1334.11 838.494,1337.78 861.941,1343.79 885.388,1341.56 908.835,1339.17 932.282,1172.17 955.729,1296.04 979.176,1365.43 1002.62,1418.2 1026.07,1457.94 1049.52,1475.86 1072.96,1473.51 1096.41,1446.78 1119.86,1415.47 1143.3,1402.89 1166.75,1390.14 1190.2,1353.23 1213.64,1269.8 1237.09,1186 1260.54,1103.79 1283.99,1019.67 1307.43,937.128 1330.88,1019.67 1354.33,1103.79 1377.77,1186.01 1401.22,1269.81 1424.67,1353.33 1448.11,1390.18 1471.56,1402.93 1495.01,1415.51 1518.45,1446.98 1541.9,1473.6 1565.35,1475.86 1588.8,1457.94 1612.24,1418.2 1635.69,1365.43 1659.14,1296.04 1682.58,1172.17 1706.03,1338.86 1729.48,1341.39 1752.92,1343.77 1776.37,1337.9 1799.82,1334.07 1823.26,1327.02 1846.71,1323.93 1870.16,1320.67 1893.61,1318.41 1917.05,1315.99 1940.5,1313.4 1963.95,1310.65 1987.39,1298.9 2010.84,929.707 2034.29,1026.53 2057.73,1135.08 2081.18,1165.25 2104.63,1197 2128.07,1226.84 2151.52,1258.26 2174.97,1264.43 2198.42,1272.18 2221.86,1281.5 2245.31,1288.92 2268.76,1288.62 2292.2,1288.16 2315.65,1289.28 2339.1,1288.49 "/>
<path clip-path="url(#clip870)" d="M2488.43 1088.14 L2836.76 1088.14 L2836.76 932.62 L2488.43 932.62  Z" fill="#ffffff" fill-rule="evenodd" fill-opacity="1"/>
<polyline clip-path="url(#clip870)" style="stroke:#000000; stroke-linecap:round; stroke-linejoin:round; stroke-width:4; stroke-opacity:1; fill:none" points="2488.43,1088.14 2836.76,1088.14 2836.76,932.62 2488.43,932.62 2488.43,1088.14 "/>
<path clip-path="url(#clip870)" d="M2517.57 1005.2 L2692.43 1005.2 L2692.43 963.724 L2517.57 963.724 L2517.57 1005.2  Z" fill="#0000ff" fill-rule="evenodd" fill-opacity="0.5"/>
<polyline clip-path="url(#clip870)" style="stroke:#0000ff; stroke-linecap:round; stroke-linejoin:round; stroke-width:4; stroke-opacity:1; fill:none" points="2517.57,963.724 2692.43,963.724 "/>
<path clip-path="url(#clip870)" d="M2738.35 972.018 L2738.35 984.911 L2751.25 984.911 L2751.25 988.846 L2738.35 988.846 L2738.35 1001.74 L2734.46 1001.74 L2734.46 988.846 L2721.57 988.846 L2721.57 984.911 L2734.46 984.911 L2734.46 972.018 L2738.35 972.018 Z" fill="#000000" fill-rule="nonzero" fill-opacity="1" /><path clip-path="url(#clip870)" d="M2775.99 967.18 L2782.96 967.18 L2791.78 990.698 L2800.65 967.18 L2807.61 967.18 L2807.61 1001.74 L2803.05 1001.74 L2803.05 971.393 L2794.14 995.096 L2789.44 995.096 L2780.53 971.393 L2780.53 1001.74 L2775.99 1001.74 L2775.99 967.18 Z" fill="#000000" fill-rule="nonzero" fill-opacity="1" /><path clip-path="url(#clip870)" d="M2517.57 1057.04 L2692.43 1057.04 L2692.43 1015.56 L2517.57 1015.56 L2517.57 1057.04  Z" fill="#ff0000" fill-rule="evenodd" fill-opacity="0.5"/>
<polyline clip-path="url(#clip870)" style="stroke:#ff0000; stroke-linecap:round; stroke-linejoin:round; stroke-width:4; stroke-opacity:1; fill:none" points="2517.57,1015.56 2692.43,1015.56 "/>
<path clip-path="url(#clip870)" d="M2721.57 1038.7 L2734.05 1038.7 L2734.05 1042.49 L2721.57 1042.49 L2721.57 1038.7 Z" fill="#000000" fill-rule="nonzero" fill-opacity="1" /><path clip-path="url(#clip870)" d="M2756.09 1019.02 L2763.05 1019.02 L2771.87 1042.54 L2780.74 1019.02 L2787.71 1019.02 L2787.71 1053.58 L2783.15 1053.58 L2783.15 1023.23 L2774.23 1046.94 L2769.53 1046.94 L2760.62 1023.23 L2760.62 1053.58 L2756.09 1053.58 L2756.09 1019.02 Z" fill="#000000" fill-rule="nonzero" fill-opacity="1" /></svg>
