<?xml version="1.0" encoding="utf-8"?>
<svg xmlns="http://www.w3.org/2000/svg" xmlns:xlink="http://www.w3.org/1999/xlink" width="480" height="384" viewBox="0 0 1920 1536">
<defs>
  <clipPath id="clip510">
    <rect x="0" y="0" width="1920" height="1536"/>
  </clipPath>
</defs>
<path clip-path="url(#clip510)" d="M0 1536 L1920 1536 L1920 0 L0 0  Z" fill="#ffffff" fill-rule="evenodd" fill-opacity="1"/>
<defs>
  <clipPath id="clip511">
    <rect x="384" y="0" width="1345" height="1345"/>
  </clipPath>
</defs>
<path clip-path="url(#clip510)" d="M204.229 648.176 L1872.76 648.176 L1872.76 135.568 L204.229 135.568  Z" fill="#ffffff" fill-rule="evenodd" fill-opacity="1"/>
<defs>
  <clipPath id="clip512">
    <rect x="204" y="135" width="1670" height="514"/>
  </clipPath>
</defs>
<polyline clip-path="url(#clip512)" style="stroke:#000000; stroke-linecap:round; stroke-linejoin:round; stroke-width:2; stroke-opacity:0.1; fill:none" points="251.451,648.176 251.451,135.568 "/>
<polyline clip-path="url(#clip512)" style="stroke:#000000; stroke-linecap:round; stroke-linejoin:round; stroke-width:2; stroke-opacity:0.1; fill:none" points="609.197,648.176 609.197,135.568 "/>
<polyline clip-path="url(#clip512)" style="stroke:#000000; stroke-linecap:round; stroke-linejoin:round; stroke-width:2; stroke-opacity:0.1; fill:none" points="966.943,648.176 966.943,135.568 "/>
<polyline clip-path="url(#clip512)" style="stroke:#000000; stroke-linecap:round; stroke-linejoin:round; stroke-width:2; stroke-opacity:0.1; fill:none" points="1324.69,648.176 1324.69,135.568 "/>
<polyline clip-path="url(#clip512)" style="stroke:#000000; stroke-linecap:round; stroke-linejoin:round; stroke-width:2; stroke-opacity:0.1; fill:none" points="1682.44,648.176 1682.44,135.568 "/>
<polyline clip-path="url(#clip512)" style="stroke:#000000; stroke-linecap:round; stroke-linejoin:round; stroke-width:2; stroke-opacity:0.1; fill:none" points="204.229,608.803 1872.76,608.803 "/>
<polyline clip-path="url(#clip512)" style="stroke:#000000; stroke-linecap:round; stroke-linejoin:round; stroke-width:2; stroke-opacity:0.1; fill:none" points="204.229,536.737 1872.76,536.737 "/>
<polyline clip-path="url(#clip512)" style="stroke:#000000; stroke-linecap:round; stroke-linejoin:round; stroke-width:2; stroke-opacity:0.1; fill:none" points="204.229,464.672 1872.76,464.672 "/>
<polyline clip-path="url(#clip512)" style="stroke:#000000; stroke-linecap:round; stroke-linejoin:round; stroke-width:2; stroke-opacity:0.1; fill:none" points="204.229,392.606 1872.76,392.606 "/>
<polyline clip-path="url(#clip512)" style="stroke:#000000; stroke-linecap:round; stroke-linejoin:round; stroke-width:2; stroke-opacity:0.1; fill:none" points="204.229,320.541 1872.76,320.541 "/>
<polyline clip-path="url(#clip512)" style="stroke:#000000; stroke-linecap:round; stroke-linejoin:round; stroke-width:2; stroke-opacity:0.1; fill:none" points="204.229,248.475 1872.76,248.475 "/>
<polyline clip-path="url(#clip512)" style="stroke:#000000; stroke-linecap:round; stroke-linejoin:round; stroke-width:2; stroke-opacity:0.1; fill:none" points="204.229,176.41 1872.76,176.41 "/>
<polyline clip-path="url(#clip510)" style="stroke:#000000; stroke-linecap:round; stroke-linejoin:round; stroke-width:4; stroke-opacity:1; fill:none" points="204.229,648.176 1872.76,648.176 "/>
<polyline clip-path="url(#clip510)" style="stroke:#000000; stroke-linecap:round; stroke-linejoin:round; stroke-width:4; stroke-opacity:1; fill:none" points="251.451,648.176 251.451,629.278 "/>
<polyline clip-path="url(#clip510)" style="stroke:#000000; stroke-linecap:round; stroke-linejoin:round; stroke-width:4; stroke-opacity:1; fill:none" points="609.197,648.176 609.197,629.278 "/>
<polyline clip-path="url(#clip510)" style="stroke:#000000; stroke-linecap:round; stroke-linejoin:round; stroke-width:4; stroke-opacity:1; fill:none" points="966.943,648.176 966.943,629.278 "/>
<polyline clip-path="url(#clip510)" style="stroke:#000000; stroke-linecap:round; stroke-linejoin:round; stroke-width:4; stroke-opacity:1; fill:none" points="1324.69,648.176 1324.69,629.278 "/>
<polyline clip-path="url(#clip510)" style="stroke:#000000; stroke-linecap:round; stroke-linejoin:round; stroke-width:4; stroke-opacity:1; fill:none" points="1682.44,648.176 1682.44,629.278 "/>
<path clip-path="url(#clip510)" d="M251.451 675.255 Q247.84 675.255 246.011 678.819 Q244.206 682.361 244.206 689.491 Q244.206 696.597 246.011 700.162 Q247.84 703.703 251.451 703.703 Q255.085 703.703 256.891 700.162 Q258.719 696.597 258.719 689.491 Q258.719 682.361 256.891 678.819 Q255.085 675.255 251.451 675.255 M251.451 671.551 Q257.261 671.551 260.317 676.157 Q263.395 680.741 263.395 689.491 Q263.395 698.217 260.317 702.824 Q257.261 707.407 251.451 707.407 Q245.641 707.407 242.562 702.824 Q239.507 698.217 239.507 689.491 Q239.507 680.741 242.562 676.157 Q245.641 671.551 251.451 671.551 Z" fill="#000000" fill-rule="nonzero" fill-opacity="1" /><path clip-path="url(#clip510)" d="M583.885 702.801 L591.523 702.801 L591.523 676.435 L583.213 678.102 L583.213 673.843 L591.477 672.176 L596.153 672.176 L596.153 702.801 L603.792 702.801 L603.792 706.736 L583.885 706.736 L583.885 702.801 Z" fill="#000000" fill-rule="nonzero" fill-opacity="1" /><path clip-path="url(#clip510)" d="M623.236 675.255 Q619.625 675.255 617.796 678.819 Q615.991 682.361 615.991 689.491 Q615.991 696.597 617.796 700.162 Q619.625 703.703 623.236 703.703 Q626.871 703.703 628.676 700.162 Q630.505 696.597 630.505 689.491 Q630.505 682.361 628.676 678.819 Q626.871 675.255 623.236 675.255 M623.236 671.551 Q629.046 671.551 632.102 676.157 Q635.181 680.741 635.181 689.491 Q635.181 698.217 632.102 702.824 Q629.046 707.407 623.236 707.407 Q617.426 707.407 614.347 702.824 Q611.292 698.217 611.292 689.491 Q611.292 680.741 614.347 676.157 Q617.426 671.551 623.236 671.551 Z" fill="#000000" fill-rule="nonzero" fill-opacity="1" /><path clip-path="url(#clip510)" d="M945.716 702.801 L962.036 702.801 L962.036 706.736 L940.091 706.736 L940.091 702.801 Q942.753 700.046 947.337 695.416 Q951.943 690.764 953.124 689.421 Q955.369 686.898 956.249 685.162 Q957.151 683.403 957.151 681.713 Q957.151 678.958 955.207 677.222 Q953.286 675.486 950.184 675.486 Q947.985 675.486 945.531 676.25 Q943.101 677.014 940.323 678.565 L940.323 673.843 Q943.147 672.708 945.601 672.13 Q948.054 671.551 950.091 671.551 Q955.462 671.551 958.656 674.236 Q961.85 676.921 961.85 681.412 Q961.85 683.542 961.04 685.463 Q960.253 687.361 958.147 689.954 Q957.568 690.625 954.466 693.842 Q951.364 697.037 945.716 702.801 Z" fill="#000000" fill-rule="nonzero" fill-opacity="1" /><path clip-path="url(#clip510)" d="M981.85 675.255 Q978.239 675.255 976.411 678.819 Q974.605 682.361 974.605 689.491 Q974.605 696.597 976.411 700.162 Q978.239 703.703 981.85 703.703 Q985.485 703.703 987.29 700.162 Q989.119 696.597 989.119 689.491 Q989.119 682.361 987.29 678.819 Q985.485 675.255 981.85 675.255 M981.85 671.551 Q987.66 671.551 990.716 676.157 Q993.795 680.741 993.795 689.491 Q993.795 698.217 990.716 702.824 Q987.66 707.407 981.85 707.407 Q976.04 707.407 972.961 702.824 Q969.906 698.217 969.906 689.491 Q969.906 680.741 972.961 676.157 Q976.04 671.551 981.85 671.551 Z" fill="#000000" fill-rule="nonzero" fill-opacity="1" /><path clip-path="url(#clip510)" d="M1313.53 688.102 Q1316.89 688.819 1318.76 691.088 Q1320.66 693.356 1320.66 696.69 Q1320.66 701.805 1317.14 704.606 Q1313.62 707.407 1307.14 707.407 Q1304.97 707.407 1302.65 706.967 Q1300.36 706.551 1297.91 705.694 L1297.91 701.18 Q1299.85 702.315 1302.17 702.893 Q1304.48 703.472 1307 703.472 Q1311.4 703.472 1313.69 701.736 Q1316.01 700 1316.01 696.69 Q1316.01 693.634 1313.86 691.921 Q1311.73 690.185 1307.91 690.185 L1303.88 690.185 L1303.88 686.342 L1308.09 686.342 Q1311.54 686.342 1313.37 684.977 Q1315.2 683.588 1315.2 680.995 Q1315.2 678.333 1313.3 676.921 Q1311.43 675.486 1307.91 675.486 Q1305.99 675.486 1303.79 675.903 Q1301.59 676.319 1298.95 677.199 L1298.95 673.032 Q1301.61 672.292 1303.93 671.921 Q1306.26 671.551 1308.32 671.551 Q1313.65 671.551 1316.75 673.981 Q1319.85 676.389 1319.85 680.509 Q1319.85 683.38 1318.21 685.37 Q1316.56 687.338 1313.53 688.102 Z" fill="#000000" fill-rule="nonzero" fill-opacity="1" /><path clip-path="url(#clip510)" d="M1339.53 675.255 Q1335.92 675.255 1334.09 678.819 Q1332.28 682.361 1332.28 689.491 Q1332.28 696.597 1334.09 700.162 Q1335.92 703.703 1339.53 703.703 Q1343.16 703.703 1344.97 700.162 Q1346.8 696.597 1346.8 689.491 Q1346.8 682.361 1344.97 678.819 Q1343.16 675.255 1339.53 675.255 M1339.53 671.551 Q1345.34 671.551 1348.39 676.157 Q1351.47 680.741 1351.47 689.491 Q1351.47 698.217 1348.39 702.824 Q1345.34 707.407 1339.53 707.407 Q1333.72 707.407 1330.64 702.824 Q1327.58 698.217 1327.58 689.491 Q1327.58 680.741 1330.64 676.157 Q1333.72 671.551 1339.53 671.551 Z" fill="#000000" fill-rule="nonzero" fill-opacity="1" /><path clip-path="url(#clip510)" d="M1670.61 676.25 L1658.8 694.699 L1670.61 694.699 L1670.61 676.25 M1669.38 672.176 L1675.26 672.176 L1675.26 694.699 L1680.19 694.699 L1680.19 698.588 L1675.26 698.588 L1675.26 706.736 L1670.61 706.736 L1670.61 698.588 L1655 698.588 L1655 694.074 L1669.38 672.176 Z" fill="#000000" fill-rule="nonzero" fill-opacity="1" /><path clip-path="url(#clip510)" d="M1697.92 675.255 Q1694.31 675.255 1692.48 678.819 Q1690.68 682.361 1690.68 689.491 Q1690.68 696.597 1692.48 700.162 Q1694.31 703.703 1697.92 703.703 Q1701.56 703.703 1703.36 700.162 Q1705.19 696.597 1705.19 689.491 Q1705.19 682.361 1703.36 678.819 Q1701.56 675.255 1697.92 675.255 M1697.92 671.551 Q1703.73 671.551 1706.79 676.157 Q1709.87 680.741 1709.87 689.491 Q1709.87 698.217 1706.79 702.824 Q1703.73 707.407 1697.92 707.407 Q1692.11 707.407 1689.03 702.824 Q1685.98 698.217 1685.98 689.491 Q1685.98 680.741 1689.03 676.157 Q1692.11 671.551 1697.92 671.551 Z" fill="#000000" fill-rule="nonzero" fill-opacity="1" /><polyline clip-path="url(#clip510)" style="stroke:#000000; stroke-linecap:round; stroke-linejoin:round; stroke-width:4; stroke-opacity:1; fill:none" points="204.229,648.176 204.229,135.568 "/>
<polyline clip-path="url(#clip510)" style="stroke:#000000; stroke-linecap:round; stroke-linejoin:round; stroke-width:4; stroke-opacity:1; fill:none" points="204.229,608.803 223.126,608.803 "/>
<polyline clip-path="url(#clip510)" style="stroke:#000000; stroke-linecap:round; stroke-linejoin:round; stroke-width:4; stroke-opacity:1; fill:none" points="204.229,536.737 223.126,536.737 "/>
<polyline clip-path="url(#clip510)" style="stroke:#000000; stroke-linecap:round; stroke-linejoin:round; stroke-width:4; stroke-opacity:1; fill:none" points="204.229,464.672 223.126,464.672 "/>
<polyline clip-path="url(#clip510)" style="stroke:#000000; stroke-linecap:round; stroke-linejoin:round; stroke-width:4; stroke-opacity:1; fill:none" points="204.229,392.606 223.126,392.606 "/>
<polyline clip-path="url(#clip510)" style="stroke:#000000; stroke-linecap:round; stroke-linejoin:round; stroke-width:4; stroke-opacity:1; fill:none" points="204.229,320.541 223.126,320.541 "/>
<polyline clip-path="url(#clip510)" style="stroke:#000000; stroke-linecap:round; stroke-linejoin:round; stroke-width:4; stroke-opacity:1; fill:none" points="204.229,248.475 223.126,248.475 "/>
<polyline clip-path="url(#clip510)" style="stroke:#000000; stroke-linecap:round; stroke-linejoin:round; stroke-width:4; stroke-opacity:1; fill:none" points="204.229,176.41 223.126,176.41 "/>
<path clip-path="url(#clip510)" d="M53.3921 609.254 L83.0679 609.254 L83.0679 613.189 L53.3921 613.189 L53.3921 609.254 Z" fill="#000000" fill-rule="nonzero" fill-opacity="1" /><path clip-path="url(#clip510)" d="M93.9706 622.148 L101.609 622.148 L101.609 595.782 L93.2993 597.449 L93.2993 593.19 L101.563 591.523 L106.239 591.523 L106.239 622.148 L113.878 622.148 L113.878 626.083 L93.9706 626.083 L93.9706 622.148 Z" fill="#000000" fill-rule="nonzero" fill-opacity="1" /><path clip-path="url(#clip510)" d="M123.369 591.523 L141.725 591.523 L141.725 595.458 L127.651 595.458 L127.651 603.93 Q128.67 603.583 129.688 603.421 Q130.707 603.236 131.725 603.236 Q137.512 603.236 140.892 606.407 Q144.271 609.578 144.271 614.995 Q144.271 620.574 140.799 623.676 Q137.327 626.754 131.007 626.754 Q128.832 626.754 126.563 626.384 Q124.318 626.013 121.91 625.273 L121.91 620.574 Q123.994 621.708 126.216 622.263 Q128.438 622.819 130.915 622.819 Q134.919 622.819 137.257 620.713 Q139.595 618.606 139.595 614.995 Q139.595 611.384 137.257 609.277 Q134.919 607.171 130.915 607.171 Q129.04 607.171 127.165 607.588 Q125.313 608.004 123.369 608.884 L123.369 591.523 Z" fill="#000000" fill-rule="nonzero" fill-opacity="1" /><path clip-path="url(#clip510)" d="M163.484 594.602 Q159.873 594.602 158.044 598.166 Q156.239 601.708 156.239 608.838 Q156.239 615.944 158.044 619.509 Q159.873 623.051 163.484 623.051 Q167.118 623.051 168.924 619.509 Q170.753 615.944 170.753 608.838 Q170.753 601.708 168.924 598.166 Q167.118 594.602 163.484 594.602 M163.484 590.898 Q169.294 590.898 172.35 595.504 Q175.429 600.088 175.429 608.838 Q175.429 617.564 172.35 622.171 Q169.294 626.754 163.484 626.754 Q157.674 626.754 154.595 622.171 Q151.54 617.564 151.54 608.838 Q151.54 600.088 154.595 595.504 Q157.674 590.898 163.484 590.898 Z" fill="#000000" fill-rule="nonzero" fill-opacity="1" /><path clip-path="url(#clip510)" d="M53.3921 537.189 L83.0679 537.189 L83.0679 541.124 L53.3921 541.124 L53.3921 537.189 Z" fill="#000000" fill-rule="nonzero" fill-opacity="1" /><path clip-path="url(#clip510)" d="M93.9706 550.082 L101.609 550.082 L101.609 523.717 L93.2993 525.383 L93.2993 521.124 L101.563 519.457 L106.239 519.457 L106.239 550.082 L113.878 550.082 L113.878 554.017 L93.9706 554.017 L93.9706 550.082 Z" fill="#000000" fill-rule="nonzero" fill-opacity="1" /><path clip-path="url(#clip510)" d="M133.322 522.536 Q129.711 522.536 127.882 526.101 Q126.077 529.642 126.077 536.772 Q126.077 543.878 127.882 547.443 Q129.711 550.985 133.322 550.985 Q136.956 550.985 138.762 547.443 Q140.591 543.878 140.591 536.772 Q140.591 529.642 138.762 526.101 Q136.956 522.536 133.322 522.536 M133.322 518.832 Q139.132 518.832 142.188 523.439 Q145.267 528.022 145.267 536.772 Q145.267 545.499 142.188 550.105 Q139.132 554.689 133.322 554.689 Q127.512 554.689 124.433 550.105 Q121.378 545.499 121.378 536.772 Q121.378 528.022 124.433 523.439 Q127.512 518.832 133.322 518.832 Z" fill="#000000" fill-rule="nonzero" fill-opacity="1" /><path clip-path="url(#clip510)" d="M163.484 522.536 Q159.873 522.536 158.044 526.101 Q156.239 529.642 156.239 536.772 Q156.239 543.878 158.044 547.443 Q159.873 550.985 163.484 550.985 Q167.118 550.985 168.924 547.443 Q170.753 543.878 170.753 536.772 Q170.753 529.642 168.924 526.101 Q167.118 522.536 163.484 522.536 M163.484 518.832 Q169.294 518.832 172.35 523.439 Q175.429 528.022 175.429 536.772 Q175.429 545.499 172.35 550.105 Q169.294 554.689 163.484 554.689 Q157.674 554.689 154.595 550.105 Q151.54 545.499 151.54 536.772 Q151.54 528.022 154.595 523.439 Q157.674 518.832 163.484 518.832 Z" fill="#000000" fill-rule="nonzero" fill-opacity="1" /><path clip-path="url(#clip510)" d="M83.554 465.123 L113.23 465.123 L113.23 469.058 L83.554 469.058 L83.554 465.123 Z" fill="#000000" fill-rule="nonzero" fill-opacity="1" /><path clip-path="url(#clip510)" d="M123.369 447.392 L141.725 447.392 L141.725 451.327 L127.651 451.327 L127.651 459.799 Q128.67 459.452 129.688 459.29 Q130.707 459.105 131.725 459.105 Q137.512 459.105 140.892 462.276 Q144.271 465.447 144.271 470.864 Q144.271 476.443 140.799 479.544 Q137.327 482.623 131.007 482.623 Q128.832 482.623 126.563 482.253 Q124.318 481.882 121.91 481.142 L121.91 476.443 Q123.994 477.577 126.216 478.132 Q128.438 478.688 130.915 478.688 Q134.919 478.688 137.257 476.581 Q139.595 474.475 139.595 470.864 Q139.595 467.253 137.257 465.146 Q134.919 463.04 130.915 463.04 Q129.04 463.04 127.165 463.456 Q125.313 463.873 123.369 464.753 L123.369 447.392 Z" fill="#000000" fill-rule="nonzero" fill-opacity="1" /><path clip-path="url(#clip510)" d="M163.484 450.47 Q159.873 450.47 158.044 454.035 Q156.239 457.577 156.239 464.706 Q156.239 471.813 158.044 475.378 Q159.873 478.919 163.484 478.919 Q167.118 478.919 168.924 475.378 Q170.753 471.813 170.753 464.706 Q170.753 457.577 168.924 454.035 Q167.118 450.47 163.484 450.47 M163.484 446.767 Q169.294 446.767 172.35 451.373 Q175.429 455.957 175.429 464.706 Q175.429 473.433 172.35 478.04 Q169.294 482.623 163.484 482.623 Q157.674 482.623 154.595 478.04 Q151.54 473.433 151.54 464.706 Q151.54 455.957 154.595 451.373 Q157.674 446.767 163.484 446.767 Z" fill="#000000" fill-rule="nonzero" fill-opacity="1" /><path clip-path="url(#clip510)" d="M163.484 378.405 Q159.873 378.405 158.044 381.97 Q156.239 385.511 156.239 392.641 Q156.239 399.747 158.044 403.312 Q159.873 406.854 163.484 406.854 Q167.118 406.854 168.924 403.312 Q170.753 399.747 170.753 392.641 Q170.753 385.511 168.924 381.97 Q167.118 378.405 163.484 378.405 M163.484 374.701 Q169.294 374.701 172.35 379.308 Q175.429 383.891 175.429 392.641 Q175.429 401.368 172.35 405.974 Q169.294 410.557 163.484 410.557 Q157.674 410.557 154.595 405.974 Q151.54 401.368 151.54 392.641 Q151.54 383.891 154.595 379.308 Q157.674 374.701 163.484 374.701 Z" fill="#000000" fill-rule="nonzero" fill-opacity="1" /><path clip-path="url(#clip510)" d="M123.369 303.261 L141.725 303.261 L141.725 307.196 L127.651 307.196 L127.651 315.668 Q128.67 315.321 129.688 315.159 Q130.707 314.974 131.725 314.974 Q137.512 314.974 140.892 318.145 Q144.271 321.316 144.271 326.733 Q144.271 332.311 140.799 335.413 Q137.327 338.492 131.007 338.492 Q128.832 338.492 126.563 338.122 Q124.318 337.751 121.91 337.01 L121.91 332.311 Q123.994 333.446 126.216 334.001 Q128.438 334.557 130.915 334.557 Q134.919 334.557 137.257 332.45 Q139.595 330.344 139.595 326.733 Q139.595 323.122 137.257 321.015 Q134.919 318.909 130.915 318.909 Q129.04 318.909 127.165 319.325 Q125.313 319.742 123.369 320.622 L123.369 303.261 Z" fill="#000000" fill-rule="nonzero" fill-opacity="1" /><path clip-path="url(#clip510)" d="M163.484 306.339 Q159.873 306.339 158.044 309.904 Q156.239 313.446 156.239 320.575 Q156.239 327.682 158.044 331.247 Q159.873 334.788 163.484 334.788 Q167.118 334.788 168.924 331.247 Q170.753 327.682 170.753 320.575 Q170.753 313.446 168.924 309.904 Q167.118 306.339 163.484 306.339 M163.484 302.636 Q169.294 302.636 172.35 307.242 Q175.429 311.825 175.429 320.575 Q175.429 329.302 172.35 333.909 Q169.294 338.492 163.484 338.492 Q157.674 338.492 154.595 333.909 Q151.54 329.302 151.54 320.575 Q151.54 311.825 154.595 307.242 Q157.674 302.636 163.484 302.636 Z" fill="#000000" fill-rule="nonzero" fill-opacity="1" /><path clip-path="url(#clip510)" d="M93.9706 261.82 L101.609 261.82 L101.609 235.454 L93.2993 237.121 L93.2993 232.862 L101.563 231.195 L106.239 231.195 L106.239 261.82 L113.878 261.82 L113.878 265.755 L93.9706 265.755 L93.9706 261.82 Z" fill="#000000" fill-rule="nonzero" fill-opacity="1" /><path clip-path="url(#clip510)" d="M133.322 234.274 Q129.711 234.274 127.882 237.839 Q126.077 241.38 126.077 248.51 Q126.077 255.616 127.882 259.181 Q129.711 262.723 133.322 262.723 Q136.956 262.723 138.762 259.181 Q140.591 255.616 140.591 248.51 Q140.591 241.38 138.762 237.839 Q136.956 234.274 133.322 234.274 M133.322 230.57 Q139.132 230.57 142.188 235.177 Q145.267 239.76 145.267 248.51 Q145.267 257.237 142.188 261.843 Q139.132 266.426 133.322 266.426 Q127.512 266.426 124.433 261.843 Q121.378 257.237 121.378 248.51 Q121.378 239.76 124.433 235.177 Q127.512 230.57 133.322 230.57 Z" fill="#000000" fill-rule="nonzero" fill-opacity="1" /><path clip-path="url(#clip510)" d="M163.484 234.274 Q159.873 234.274 158.044 237.839 Q156.239 241.38 156.239 248.51 Q156.239 255.616 158.044 259.181 Q159.873 262.723 163.484 262.723 Q167.118 262.723 168.924 259.181 Q170.753 255.616 170.753 248.51 Q170.753 241.38 168.924 237.839 Q167.118 234.274 163.484 234.274 M163.484 230.57 Q169.294 230.57 172.35 235.177 Q175.429 239.76 175.429 248.51 Q175.429 257.237 172.35 261.843 Q169.294 266.426 163.484 266.426 Q157.674 266.426 154.595 261.843 Q151.54 257.237 151.54 248.51 Q151.54 239.76 154.595 235.177 Q157.674 230.57 163.484 230.57 Z" fill="#000000" fill-rule="nonzero" fill-opacity="1" /><path clip-path="url(#clip510)" d="M93.9706 189.754 L101.609 189.754 L101.609 163.389 L93.2993 165.055 L93.2993 160.796 L101.563 159.13 L106.239 159.13 L106.239 189.754 L113.878 189.754 L113.878 193.69 L93.9706 193.69 L93.9706 189.754 Z" fill="#000000" fill-rule="nonzero" fill-opacity="1" /><path clip-path="url(#clip510)" d="M123.369 159.13 L141.725 159.13 L141.725 163.065 L127.651 163.065 L127.651 171.537 Q128.67 171.19 129.688 171.028 Q130.707 170.842 131.725 170.842 Q137.512 170.842 140.892 174.014 Q144.271 177.185 144.271 182.602 Q144.271 188.18 140.799 191.282 Q137.327 194.361 131.007 194.361 Q128.832 194.361 126.563 193.99 Q124.318 193.62 121.91 192.879 L121.91 188.18 Q123.994 189.315 126.216 189.87 Q128.438 190.426 130.915 190.426 Q134.919 190.426 137.257 188.319 Q139.595 186.213 139.595 182.602 Q139.595 178.991 137.257 176.884 Q134.919 174.778 130.915 174.778 Q129.04 174.778 127.165 175.194 Q125.313 175.611 123.369 176.491 L123.369 159.13 Z" fill="#000000" fill-rule="nonzero" fill-opacity="1" /><path clip-path="url(#clip510)" d="M163.484 162.208 Q159.873 162.208 158.044 165.773 Q156.239 169.315 156.239 176.444 Q156.239 183.551 158.044 187.115 Q159.873 190.657 163.484 190.657 Q167.118 190.657 168.924 187.115 Q170.753 183.551 170.753 176.444 Q170.753 169.315 168.924 165.773 Q167.118 162.208 163.484 162.208 M163.484 158.505 Q169.294 158.505 172.35 163.111 Q175.429 167.694 175.429 176.444 Q175.429 185.171 172.35 189.777 Q169.294 194.361 163.484 194.361 Q157.674 194.361 154.595 189.777 Q151.54 185.171 151.54 176.444 Q151.54 167.694 154.595 163.111 Q157.674 158.505 163.484 158.505 Z" fill="#000000" fill-rule="nonzero" fill-opacity="1" /><path clip-path="url(#clip510)" d="M861.893 18.8205 L861.893 65.8515 L871.777 65.8515 Q884.295 65.8515 890.087 60.1802 Q895.921 54.509 895.921 42.2752 Q895.921 30.1225 890.087 24.4918 Q884.295 18.8205 871.777 18.8205 L861.893 18.8205 M853.71 12.096 L870.521 12.096 Q888.102 12.096 896.326 19.4281 Q904.549 26.7198 904.549 42.2752 Q904.549 57.9117 896.285 65.2439 Q888.021 72.576 870.521 72.576 L853.71 72.576 L853.71 12.096 Z" fill="#000000" fill-rule="nonzero" fill-opacity="1" /><path clip-path="url(#clip510)" d="M917.593 12.096 L925.776 12.096 L925.776 65.6895 L955.226 65.6895 L955.226 72.576 L917.593 72.576 L917.593 12.096 Z" fill="#000000" fill-rule="nonzero" fill-opacity="1" /><path clip-path="url(#clip510)" d="M1026.44 14.0809 L1026.44 22.0612 Q1021.78 19.8332 1017.65 18.7395 Q1013.52 17.6457 1009.67 17.6457 Q1002.99 17.6457 999.34 20.2383 Q995.735 22.8309 995.735 27.611 Q995.735 31.6214 998.125 33.6873 Q1000.56 35.7128 1007.28 36.9686 L1012.22 37.9813 Q1021.38 39.7232 1025.71 44.1387 Q1030.09 48.5136 1030.09 55.8863 Q1030.09 64.6767 1024.17 69.2137 Q1018.3 73.7508 1006.92 73.7508 Q1002.62 73.7508 997.76 72.7785 Q992.94 71.8063 987.755 69.9024 L987.755 61.4765 Q992.737 64.2716 997.517 65.6895 Q1002.3 67.1073 1006.92 67.1073 Q1013.92 67.1073 1017.73 64.3527 Q1021.54 61.598 1021.54 56.4939 Q1021.54 52.0379 1018.78 49.5264 Q1016.07 47.0148 1009.83 45.759 L1004.85 44.7868 Q995.694 42.9639 991.603 39.075 Q987.512 35.1862 987.512 28.2591 Q987.512 20.2383 993.142 15.6203 Q998.814 11.0023 1008.74 11.0023 Q1012.99 11.0023 1017.41 11.7719 Q1021.82 12.5416 1026.44 14.0809 Z" fill="#000000" fill-rule="nonzero" fill-opacity="1" /><path clip-path="url(#clip510)" d="M1080.24 45.1919 L1080.24 72.576 L1072.78 72.576 L1072.78 45.4349 Q1072.78 38.994 1070.27 35.7938 Q1067.76 32.5936 1062.74 32.5936 Q1056.7 32.5936 1053.22 36.4419 Q1049.73 40.2903 1049.73 46.9338 L1049.73 72.576 L1042.24 72.576 L1042.24 9.54393 L1049.73 9.54393 L1049.73 34.2544 Q1052.41 30.163 1056.01 28.1376 Q1059.66 26.1121 1064.4 26.1121 Q1072.22 26.1121 1076.23 30.9732 Q1080.24 35.7938 1080.24 45.1919 Z" fill="#000000" fill-rule="nonzero" fill-opacity="1" /><path clip-path="url(#clip510)" d="M1133.91 48.0275 L1133.91 51.6733 L1099.64 51.6733 Q1100.13 59.3701 1104.26 63.421 Q1108.43 67.4314 1115.84 67.4314 Q1120.14 67.4314 1124.15 66.3781 Q1128.2 65.3249 1132.17 63.2184 L1132.17 70.267 Q1128.16 71.9684 1123.95 72.8596 Q1119.73 73.7508 1115.4 73.7508 Q1104.54 73.7508 1098.18 67.4314 Q1091.86 61.1119 1091.86 50.3365 Q1091.86 39.1965 1097.86 32.6746 Q1103.89 26.1121 1114.1 26.1121 Q1123.26 26.1121 1128.56 32.0264 Q1133.91 37.9003 1133.91 48.0275 M1126.46 45.84 Q1126.38 39.7232 1123.01 36.0774 Q1119.69 32.4315 1114.18 32.4315 Q1107.94 32.4315 1104.18 35.9558 Q1100.45 39.4801 1099.88 45.8805 L1126.46 45.84 Z" fill="#000000" fill-rule="nonzero" fill-opacity="1" /><path clip-path="url(#clip510)" d="M1166.76 49.7694 Q1157.73 49.7694 1154.25 51.8354 Q1150.76 53.9013 1150.76 58.8839 Q1150.76 62.8538 1153.36 65.2034 Q1155.99 67.5124 1160.49 67.5124 Q1166.68 67.5124 1170.41 63.1374 Q1174.18 58.7219 1174.18 51.4303 L1174.18 49.7694 L1166.76 49.7694 M1181.63 46.6907 L1181.63 72.576 L1174.18 72.576 L1174.18 65.6895 Q1171.63 69.8214 1167.82 71.8063 Q1164.01 73.7508 1158.5 73.7508 Q1151.53 73.7508 1147.4 69.8619 Q1143.31 65.9325 1143.31 59.3701 Q1143.31 51.7138 1148.41 47.825 Q1153.56 43.9361 1163.73 43.9361 L1174.18 43.9361 L1174.18 43.2069 Q1174.18 38.0623 1170.77 35.2672 Q1167.41 32.4315 1161.3 32.4315 Q1157.41 32.4315 1153.72 33.3632 Q1150.03 34.295 1146.63 36.1584 L1146.63 29.2718 Q1150.72 27.692 1154.57 26.9223 Q1158.42 26.1121 1162.07 26.1121 Q1171.91 26.1121 1176.77 31.2163 Q1181.63 36.3204 1181.63 46.6907 Z" fill="#000000" fill-rule="nonzero" fill-opacity="1" /><path clip-path="url(#clip510)" d="M1223.27 34.1734 Q1222.02 33.4443 1220.52 33.1202 Q1219.06 32.7556 1217.28 32.7556 Q1210.96 32.7556 1207.56 36.8875 Q1204.19 40.9789 1204.19 48.6757 L1204.19 72.576 L1196.7 72.576 L1196.7 27.2059 L1204.19 27.2059 L1204.19 34.2544 Q1206.54 30.1225 1210.31 28.1376 Q1214.08 26.1121 1219.47 26.1121 Q1220.24 26.1121 1221.17 26.2337 Q1222.1 26.3147 1223.23 26.5172 L1223.27 34.1734 Z" fill="#000000" fill-rule="nonzero" fill-opacity="1" /><path clip-path="url(#clip512)" d="M251.451 392.606 L269.338 394.075 L287.226 395.543 L305.113 397.011 L323 398.48 L340.887 595.914 L358.775 597.383 L376.662 598.851 L394.549 260.179 L412.437 261.647 L430.324 263.116 L448.211 264.584 L466.099 266.053 L483.986 267.521 L501.873 268.989 L519.76 270.458 L537.648 271.926 L555.535 273.395 L573.422 274.863 L591.31 276.331 L609.197 277.8 L627.084 504.178 L644.972 505.646 L662.859 507.114 L680.746 508.583 L698.633 510.051 L716.521 511.52 L734.408 512.988 L752.295 514.457 L770.183 515.925 L788.07 517.393 L805.957 518.862 L823.845 150.076 L841.732 151.544 L859.619 153.013 L877.507 154.481 L895.394 155.95 L913.281 382.327 L931.168 383.796 L949.056 385.264 L966.943 386.733 L984.83 388.201 L1002.72 389.669 L1020.6 391.138 L1038.49 392.606 L1056.38 394.075 L1074.27 395.543 L1092.15 397.011 L1110.04 398.48 L1127.93 399.948 L1145.82 401.417 L1163.7 402.885 L1181.59 404.353 L1199.48 630.731 L1217.37 632.2 L1235.25 633.668 L1253.14 264.882 L1271.03 266.351 L1288.91 267.819 L1306.8 269.287 L1324.69 270.756 L1342.58 272.224 L1360.46 273.693 L1378.35 275.161 L1396.24 276.63 L1414.13 278.098 L1432.01 279.566 L1449.9 281.035 L1467.79 282.503 L1485.67 508.881 L1503.56 510.349 L1521.45 511.818 L1539.34 513.286 L1557.22 514.755 L1575.11 516.223 L1593 517.691 L1610.89 519.16 L1628.77 520.628 L1646.66 522.097 L1664.55 523.565 L1682.44 184.893 L1700.32 186.361 L1718.21 187.83 L1736.1 189.298 L1753.98 190.766 L1771.87 388.201 L1789.76 389.669 L1807.65 391.138 L1825.53 392.606 L1825.53 392.606 L1807.65 392.606 L1789.76 392.606 L1771.87 392.606 L1753.98 392.606 L1736.1 392.606 L1718.21 392.606 L1700.32 392.606 L1682.44 392.606 L1664.55 392.606 L1646.66 392.606 L1628.77 392.606 L1610.89 392.606 L1593 392.606 L1575.11 392.606 L1557.22 392.606 L1539.34 392.606 L1521.45 392.606 L1503.56 392.606 L1485.67 392.606 L1467.79 392.606 L1449.9 392.606 L1432.01 392.606 L1414.13 392.606 L1396.24 392.606 L1378.35 392.606 L1360.46 392.606 L1342.58 392.606 L1324.69 392.606 L1306.8 392.606 L1288.91 392.606 L1271.03 392.606 L1253.14 392.606 L1235.25 392.606 L1217.37 392.606 L1199.48 392.606 L1181.59 392.606 L1163.7 392.606 L1145.82 392.606 L1127.93 392.606 L1110.04 392.606 L1092.15 392.606 L1074.27 392.606 L1056.38 392.606 L1038.49 392.606 L1020.6 392.606 L1002.72 392.606 L984.83 392.606 L966.943 392.606 L949.056 392.606 L931.168 392.606 L913.281 392.606 L895.394 392.606 L877.507 392.606 L859.619 392.606 L841.732 392.606 L823.845 392.606 L805.957 392.606 L788.07 392.606 L770.183 392.606 L752.295 392.606 L734.408 392.606 L716.521 392.606 L698.633 392.606 L680.746 392.606 L662.859 392.606 L644.972 392.606 L627.084 392.606 L609.197 392.606 L591.31 392.606 L573.422 392.606 L555.535 392.606 L537.648 392.606 L519.76 392.606 L501.873 392.606 L483.986 392.606 L466.099 392.606 L448.211 392.606 L430.324 392.606 L412.437 392.606 L394.549 392.606 L376.662 392.606 L358.775 392.606 L340.887 392.606 L323 392.606 L305.113 392.606 L287.226 392.606 L269.338 392.606 L251.451 392.606  Z" fill="#0000ff" fill-rule="evenodd" fill-opacity="0.5"/>
<polyline clip-path="url(#clip512)" style="stroke:#0000ff; stroke-linecap:round; stroke-linejoin:round; stroke-width:4; stroke-opacity:1; fill:none" points="251.451,392.606 269.338,394.075 287.226,395.543 305.113,397.011 323,398.48 340.887,595.914 358.775,597.383 376.662,598.851 394.549,260.179 412.437,261.647 430.324,263.116 448.211,264.584 466.099,266.053 483.986,267.521 501.873,268.989 519.76,270.458 537.648,271.926 555.535,273.395 573.422,274.863 591.31,276.331 609.197,277.8 627.084,504.178 644.972,505.646 662.859,507.114 680.746,508.583 698.633,510.051 716.521,511.52 734.408,512.988 752.295,514.457 770.183,515.925 788.07,517.393 805.957,518.862 823.845,150.076 841.732,151.544 859.619,153.013 877.507,154.481 895.394,155.95 913.281,382.327 931.168,383.796 949.056,385.264 966.943,386.733 984.83,388.201 1002.72,389.669 1020.6,391.138 1038.49,392.606 1056.38,394.075 1074.27,395.543 1092.15,397.011 1110.04,398.48 1127.93,399.948 1145.82,401.417 1163.7,402.885 1181.59,404.353 1199.48,630.731 1217.37,632.2 1235.25,633.668 1253.14,264.882 1271.03,266.351 1288.91,267.819 1306.8,269.287 1324.69,270.756 1342.58,272.224 1360.46,273.693 1378.35,275.161 1396.24,276.63 1414.13,278.098 1432.01,279.566 1449.9,281.035 1467.79,282.503 1485.67,508.881 1503.56,510.349 1521.45,511.818 1539.34,513.286 1557.22,514.755 1575.11,516.223 1593,517.691 1610.89,519.16 1628.77,520.628 1646.66,522.097 1664.55,523.565 1682.44,184.893 1700.32,186.361 1718.21,187.83 1736.1,189.298 1753.98,190.766 1771.87,388.201 1789.76,389.669 1807.65,391.138 1825.53,392.606 "/>
<path clip-path="url(#clip510)" d="M204.229 1416.18 L1872.76 1416.18 L1872.76 903.568 L204.229 903.568  Z" fill="#ffffff" fill-rule="evenodd" fill-opacity="1"/>
<defs>
  <clipPath id="clip513">
    <rect x="204" y="903" width="1670" height="514"/>
  </clipPath>
</defs>
<polyline clip-path="url(#clip513)" style="stroke:#000000; stroke-linecap:round; stroke-linejoin:round; stroke-width:2; stroke-opacity:0.1; fill:none" points="251.451,1416.18 251.451,903.568 "/>
<polyline clip-path="url(#clip513)" style="stroke:#000000; stroke-linecap:round; stroke-linejoin:round; stroke-width:2; stroke-opacity:0.1; fill:none" points="609.197,1416.18 609.197,903.568 "/>
<polyline clip-path="url(#clip513)" style="stroke:#000000; stroke-linecap:round; stroke-linejoin:round; stroke-width:2; stroke-opacity:0.1; fill:none" points="966.943,1416.18 966.943,903.568 "/>
<polyline clip-path="url(#clip513)" style="stroke:#000000; stroke-linecap:round; stroke-linejoin:round; stroke-width:2; stroke-opacity:0.1; fill:none" points="1324.69,1416.18 1324.69,903.568 "/>
<polyline clip-path="url(#clip513)" style="stroke:#000000; stroke-linecap:round; stroke-linejoin:round; stroke-width:2; stroke-opacity:0.1; fill:none" points="1682.44,1416.18 1682.44,903.568 "/>
<polyline clip-path="url(#clip513)" style="stroke:#000000; stroke-linecap:round; stroke-linejoin:round; stroke-width:2; stroke-opacity:0.1; fill:none" points="204.229,1412.73 1872.76,1412.73 "/>
<polyline clip-path="url(#clip513)" style="stroke:#000000; stroke-linecap:round; stroke-linejoin:round; stroke-width:2; stroke-opacity:0.1; fill:none" points="204.229,1318.76 1872.76,1318.76 "/>
<polyline clip-path="url(#clip513)" style="stroke:#000000; stroke-linecap:round; stroke-linejoin:round; stroke-width:2; stroke-opacity:0.1; fill:none" points="204.229,1224.78 1872.76,1224.78 "/>
<polyline clip-path="url(#clip513)" style="stroke:#000000; stroke-linecap:round; stroke-linejoin:round; stroke-width:2; stroke-opacity:0.1; fill:none" points="204.229,1130.81 1872.76,1130.81 "/>
<polyline clip-path="url(#clip513)" style="stroke:#000000; stroke-linecap:round; stroke-linejoin:round; stroke-width:2; stroke-opacity:0.1; fill:none" points="204.229,1036.83 1872.76,1036.83 "/>
<polyline clip-path="url(#clip513)" style="stroke:#000000; stroke-linecap:round; stroke-linejoin:round; stroke-width:2; stroke-opacity:0.1; fill:none" points="204.229,942.86 1872.76,942.86 "/>
<polyline clip-path="url(#clip510)" style="stroke:#000000; stroke-linecap:round; stroke-linejoin:round; stroke-width:4; stroke-opacity:1; fill:none" points="204.229,1416.18 1872.76,1416.18 "/>
<polyline clip-path="url(#clip510)" style="stroke:#000000; stroke-linecap:round; stroke-linejoin:round; stroke-width:4; stroke-opacity:1; fill:none" points="251.451,1416.18 251.451,1397.28 "/>
<polyline clip-path="url(#clip510)" style="stroke:#000000; stroke-linecap:round; stroke-linejoin:round; stroke-width:4; stroke-opacity:1; fill:none" points="609.197,1416.18 609.197,1397.28 "/>
<polyline clip-path="url(#clip510)" style="stroke:#000000; stroke-linecap:round; stroke-linejoin:round; stroke-width:4; stroke-opacity:1; fill:none" points="966.943,1416.18 966.943,1397.28 "/>
<polyline clip-path="url(#clip510)" style="stroke:#000000; stroke-linecap:round; stroke-linejoin:round; stroke-width:4; stroke-opacity:1; fill:none" points="1324.69,1416.18 1324.69,1397.28 "/>
<polyline clip-path="url(#clip510)" style="stroke:#000000; stroke-linecap:round; stroke-linejoin:round; stroke-width:4; stroke-opacity:1; fill:none" points="1682.44,1416.18 1682.44,1397.28 "/>
<path clip-path="url(#clip510)" d="M251.451 1443.25 Q247.84 1443.25 246.011 1446.82 Q244.206 1450.36 244.206 1457.49 Q244.206 1464.6 246.011 1468.16 Q247.84 1471.7 251.451 1471.7 Q255.085 1471.7 256.891 1468.16 Q258.719 1464.6 258.719 1457.49 Q258.719 1450.36 256.891 1446.82 Q255.085 1443.25 251.451 1443.25 M251.451 1439.55 Q257.261 1439.55 260.317 1444.16 Q263.395 1448.74 263.395 1457.49 Q263.395 1466.22 260.317 1470.82 Q257.261 1475.41 251.451 1475.41 Q245.641 1475.41 242.562 1470.82 Q239.507 1466.22 239.507 1457.49 Q239.507 1448.74 242.562 1444.16 Q245.641 1439.55 251.451 1439.55 Z" fill="#000000" fill-rule="nonzero" fill-opacity="1" /><path clip-path="url(#clip510)" d="M583.885 1470.8 L591.523 1470.8 L591.523 1444.44 L583.213 1446.1 L583.213 1441.84 L591.477 1440.18 L596.153 1440.18 L596.153 1470.8 L603.792 1470.8 L603.792 1474.74 L583.885 1474.74 L583.885 1470.8 Z" fill="#000000" fill-rule="nonzero" fill-opacity="1" /><path clip-path="url(#clip510)" d="M623.236 1443.25 Q619.625 1443.25 617.796 1446.82 Q615.991 1450.36 615.991 1457.49 Q615.991 1464.6 617.796 1468.16 Q619.625 1471.7 623.236 1471.7 Q626.871 1471.7 628.676 1468.16 Q630.505 1464.6 630.505 1457.49 Q630.505 1450.36 628.676 1446.82 Q626.871 1443.25 623.236 1443.25 M623.236 1439.55 Q629.046 1439.55 632.102 1444.16 Q635.181 1448.74 635.181 1457.49 Q635.181 1466.22 632.102 1470.82 Q629.046 1475.41 623.236 1475.41 Q617.426 1475.41 614.347 1470.82 Q611.292 1466.22 611.292 1457.49 Q611.292 1448.74 614.347 1444.16 Q617.426 1439.55 623.236 1439.55 Z" fill="#000000" fill-rule="nonzero" fill-opacity="1" /><path clip-path="url(#clip510)" d="M945.716 1470.8 L962.036 1470.8 L962.036 1474.74 L940.091 1474.74 L940.091 1470.8 Q942.753 1468.05 947.337 1463.42 Q951.943 1458.76 953.124 1457.42 Q955.369 1454.9 956.249 1453.16 Q957.151 1451.4 957.151 1449.71 Q957.151 1446.96 955.207 1445.22 Q953.286 1443.49 950.184 1443.49 Q947.985 1443.49 945.531 1444.25 Q943.101 1445.01 940.323 1446.56 L940.323 1441.84 Q943.147 1440.71 945.601 1440.13 Q948.054 1439.55 950.091 1439.55 Q955.462 1439.55 958.656 1442.24 Q961.85 1444.92 961.85 1449.41 Q961.85 1451.54 961.04 1453.46 Q960.253 1455.36 958.147 1457.95 Q957.568 1458.62 954.466 1461.84 Q951.364 1465.04 945.716 1470.8 Z" fill="#000000" fill-rule="nonzero" fill-opacity="1" /><path clip-path="url(#clip510)" d="M981.85 1443.25 Q978.239 1443.25 976.411 1446.82 Q974.605 1450.36 974.605 1457.49 Q974.605 1464.6 976.411 1468.16 Q978.239 1471.7 981.85 1471.7 Q985.485 1471.7 987.29 1468.16 Q989.119 1464.6 989.119 1457.49 Q989.119 1450.36 987.29 1446.82 Q985.485 1443.25 981.85 1443.25 M981.85 1439.55 Q987.66 1439.55 990.716 1444.16 Q993.795 1448.74 993.795 1457.49 Q993.795 1466.22 990.716 1470.82 Q987.66 1475.41 981.85 1475.41 Q976.04 1475.41 972.961 1470.82 Q969.906 1466.22 969.906 1457.49 Q969.906 1448.74 972.961 1444.16 Q976.04 1439.55 981.85 1439.55 Z" fill="#000000" fill-rule="nonzero" fill-opacity="1" /><path clip-path="url(#clip510)" d="M1313.53 1456.1 Q1316.89 1456.82 1318.76 1459.09 Q1320.66 1461.36 1320.66 1464.69 Q1320.66 1469.81 1317.14 1472.61 Q1313.62 1475.41 1307.14 1475.41 Q1304.97 1475.41 1302.65 1474.97 Q1300.36 1474.55 1297.91 1473.69 L1297.91 1469.18 Q1299.85 1470.31 1302.17 1470.89 Q1304.48 1471.47 1307 1471.47 Q1311.4 1471.47 1313.69 1469.74 Q1316.01 1468 1316.01 1464.69 Q1316.01 1461.63 1313.86 1459.92 Q1311.73 1458.19 1307.91 1458.19 L1303.88 1458.19 L1303.88 1454.34 L1308.09 1454.34 Q1311.54 1454.34 1313.37 1452.98 Q1315.2 1451.59 1315.2 1449 Q1315.2 1446.33 1313.3 1444.92 Q1311.43 1443.49 1307.91 1443.49 Q1305.99 1443.49 1303.79 1443.9 Q1301.59 1444.32 1298.95 1445.2 L1298.95 1441.03 Q1301.61 1440.29 1303.93 1439.92 Q1306.26 1439.55 1308.32 1439.55 Q1313.65 1439.55 1316.75 1441.98 Q1319.85 1444.39 1319.85 1448.51 Q1319.85 1451.38 1318.21 1453.37 Q1316.56 1455.34 1313.53 1456.1 Z" fill="#000000" fill-rule="nonzero" fill-opacity="1" /><path clip-path="url(#clip510)" d="M1339.53 1443.25 Q1335.92 1443.25 1334.09 1446.82 Q1332.28 1450.36 1332.28 1457.49 Q1332.28 1464.6 1334.09 1468.16 Q1335.92 1471.7 1339.53 1471.7 Q1343.16 1471.7 1344.97 1468.16 Q1346.8 1464.6 1346.8 1457.49 Q1346.8 1450.36 1344.97 1446.82 Q1343.16 1443.25 1339.53 1443.25 M1339.53 1439.55 Q1345.34 1439.55 1348.39 1444.16 Q1351.47 1448.74 1351.47 1457.49 Q1351.47 1466.22 1348.39 1470.82 Q1345.34 1475.41 1339.53 1475.41 Q1333.72 1475.41 1330.64 1470.82 Q1327.58 1466.22 1327.58 1457.49 Q1327.58 1448.74 1330.64 1444.16 Q1333.72 1439.55 1339.53 1439.55 Z" fill="#000000" fill-rule="nonzero" fill-opacity="1" /><path clip-path="url(#clip510)" d="M1670.61 1444.25 L1658.8 1462.7 L1670.61 1462.7 L1670.61 1444.25 M1669.38 1440.18 L1675.26 1440.18 L1675.26 1462.7 L1680.19 1462.7 L1680.19 1466.59 L1675.26 1466.59 L1675.26 1474.74 L1670.61 1474.74 L1670.61 1466.59 L1655 1466.59 L1655 1462.07 L1669.38 1440.18 Z" fill="#000000" fill-rule="nonzero" fill-opacity="1" /><path clip-path="url(#clip510)" d="M1697.92 1443.25 Q1694.31 1443.25 1692.48 1446.82 Q1690.68 1450.36 1690.68 1457.49 Q1690.68 1464.6 1692.48 1468.16 Q1694.31 1471.7 1697.92 1471.7 Q1701.56 1471.7 1703.36 1468.16 Q1705.19 1464.6 1705.19 1457.49 Q1705.19 1450.36 1703.36 1446.82 Q1701.56 1443.25 1697.92 1443.25 M1697.92 1439.55 Q1703.73 1439.55 1706.79 1444.16 Q1709.87 1448.74 1709.87 1457.49 Q1709.87 1466.22 1706.79 1470.82 Q1703.73 1475.41 1697.92 1475.41 Q1692.11 1475.41 1689.03 1470.82 Q1685.98 1466.22 1685.98 1457.49 Q1685.98 1448.74 1689.03 1444.16 Q1692.11 1439.55 1697.92 1439.55 Z" fill="#000000" fill-rule="nonzero" fill-opacity="1" /><polyline clip-path="url(#clip510)" style="stroke:#000000; stroke-linecap:round; stroke-linejoin:round; stroke-width:4; stroke-opacity:1; fill:none" points="204.229,1416.18 204.229,903.568 "/>
<polyline clip-path="url(#clip510)" style="stroke:#000000; stroke-linecap:round; stroke-linejoin:round; stroke-width:4; stroke-opacity:1; fill:none" points="204.229,1412.73 223.126,1412.73 "/>
<polyline clip-path="url(#clip510)" style="stroke:#000000; stroke-linecap:round; stroke-linejoin:round; stroke-width:4; stroke-opacity:1; fill:none" points="204.229,1318.76 223.126,1318.76 "/>
<polyline clip-path="url(#clip510)" style="stroke:#000000; stroke-linecap:round; stroke-linejoin:round; stroke-width:4; stroke-opacity:1; fill:none" points="204.229,1224.78 223.126,1224.78 "/>
<polyline clip-path="url(#clip510)" style="stroke:#000000; stroke-linecap:round; stroke-linejoin:round; stroke-width:4; stroke-opacity:1; fill:none" points="204.229,1130.81 223.126,1130.81 "/>
<polyline clip-path="url(#clip510)" style="stroke:#000000; stroke-linecap:round; stroke-linejoin:round; stroke-width:4; stroke-opacity:1; fill:none" points="204.229,1036.83 223.126,1036.83 "/>
<polyline clip-path="url(#clip510)" style="stroke:#000000; stroke-linecap:round; stroke-linejoin:round; stroke-width:4; stroke-opacity:1; fill:none" points="204.229,942.86 223.126,942.86 "/>
<path clip-path="url(#clip510)" d="M53.3921 1413.18 L83.0679 1413.18 L83.0679 1417.12 L53.3921 1417.12 L53.3921 1413.18 Z" fill="#000000" fill-rule="nonzero" fill-opacity="1" /><path clip-path="url(#clip510)" d="M107.327 1411.38 Q110.683 1412.09 112.558 1414.36 Q114.457 1416.63 114.457 1419.96 Q114.457 1425.08 110.938 1427.88 Q107.42 1430.68 100.938 1430.68 Q98.7623 1430.68 96.4475 1430.24 Q94.1558 1429.83 91.7021 1428.97 L91.7021 1424.45 Q93.6465 1425.59 95.9613 1426.17 Q98.2761 1426.75 100.799 1426.75 Q105.197 1426.75 107.489 1425.01 Q109.804 1423.27 109.804 1419.96 Q109.804 1416.91 107.651 1415.2 Q105.521 1413.46 101.702 1413.46 L97.6743 1413.46 L97.6743 1409.62 L101.887 1409.62 Q105.336 1409.62 107.165 1408.25 Q108.994 1406.86 108.994 1404.27 Q108.994 1401.61 107.096 1400.2 Q105.221 1398.76 101.702 1398.76 Q99.7808 1398.76 97.5817 1399.18 Q95.3826 1399.59 92.7438 1400.47 L92.7438 1396.31 Q95.4058 1395.57 97.7206 1395.2 Q100.059 1394.83 102.119 1394.83 Q107.443 1394.83 110.545 1397.26 Q113.646 1399.66 113.646 1403.78 Q113.646 1406.65 112.003 1408.64 Q110.359 1410.61 107.327 1411.38 Z" fill="#000000" fill-rule="nonzero" fill-opacity="1" /><path clip-path="url(#clip510)" d="M133.322 1398.53 Q129.711 1398.53 127.882 1402.09 Q126.077 1405.64 126.077 1412.77 Q126.077 1419.87 127.882 1423.44 Q129.711 1426.98 133.322 1426.98 Q136.956 1426.98 138.762 1423.44 Q140.591 1419.87 140.591 1412.77 Q140.591 1405.64 138.762 1402.09 Q136.956 1398.53 133.322 1398.53 M133.322 1394.83 Q139.132 1394.83 142.188 1399.43 Q145.267 1404.02 145.267 1412.77 Q145.267 1421.49 142.188 1426.1 Q139.132 1430.68 133.322 1430.68 Q127.512 1430.68 124.433 1426.1 Q121.378 1421.49 121.378 1412.77 Q121.378 1404.02 124.433 1399.43 Q127.512 1394.83 133.322 1394.83 Z" fill="#000000" fill-rule="nonzero" fill-opacity="1" /><path clip-path="url(#clip510)" d="M163.484 1398.53 Q159.873 1398.53 158.044 1402.09 Q156.239 1405.64 156.239 1412.77 Q156.239 1419.87 158.044 1423.44 Q159.873 1426.98 163.484 1426.98 Q167.118 1426.98 168.924 1423.44 Q170.753 1419.87 170.753 1412.77 Q170.753 1405.64 168.924 1402.09 Q167.118 1398.53 163.484 1398.53 M163.484 1394.83 Q169.294 1394.83 172.35 1399.43 Q175.429 1404.02 175.429 1412.77 Q175.429 1421.49 172.35 1426.1 Q169.294 1430.68 163.484 1430.68 Q157.674 1430.68 154.595 1426.1 Q151.54 1421.49 151.54 1412.77 Q151.54 1404.02 154.595 1399.43 Q157.674 1394.83 163.484 1394.83 Z" fill="#000000" fill-rule="nonzero" fill-opacity="1" /><path clip-path="url(#clip510)" d="M53.3921 1319.21 L83.0679 1319.21 L83.0679 1323.14 L53.3921 1323.14 L53.3921 1319.21 Z" fill="#000000" fill-rule="nonzero" fill-opacity="1" /><path clip-path="url(#clip510)" d="M97.1882 1332.1 L113.508 1332.1 L113.508 1336.04 L91.5632 1336.04 L91.5632 1332.1 Q94.2252 1329.35 98.8085 1324.72 Q103.415 1320.06 104.596 1318.72 Q106.841 1316.2 107.721 1314.46 Q108.623 1312.7 108.623 1311.01 Q108.623 1308.26 106.679 1306.52 Q104.758 1304.79 101.656 1304.79 Q99.4567 1304.79 97.003 1305.55 Q94.5725 1306.31 91.7947 1307.87 L91.7947 1303.14 Q94.6188 1302.01 97.0724 1301.43 Q99.5261 1300.85 101.563 1300.85 Q106.934 1300.85 110.128 1303.54 Q113.322 1306.22 113.322 1310.71 Q113.322 1312.84 112.512 1314.76 Q111.725 1316.66 109.619 1319.25 Q109.04 1319.93 105.938 1323.14 Q102.836 1326.34 97.1882 1332.1 Z" fill="#000000" fill-rule="nonzero" fill-opacity="1" /><path clip-path="url(#clip510)" d="M133.322 1304.56 Q129.711 1304.56 127.882 1308.12 Q126.077 1311.66 126.077 1318.79 Q126.077 1325.9 127.882 1329.46 Q129.711 1333 133.322 1333 Q136.956 1333 138.762 1329.46 Q140.591 1325.9 140.591 1318.79 Q140.591 1311.66 138.762 1308.12 Q136.956 1304.56 133.322 1304.56 M133.322 1300.85 Q139.132 1300.85 142.188 1305.46 Q145.267 1310.04 145.267 1318.79 Q145.267 1327.52 142.188 1332.12 Q139.132 1336.71 133.322 1336.71 Q127.512 1336.71 124.433 1332.12 Q121.378 1327.52 121.378 1318.79 Q121.378 1310.04 124.433 1305.46 Q127.512 1300.85 133.322 1300.85 Z" fill="#000000" fill-rule="nonzero" fill-opacity="1" /><path clip-path="url(#clip510)" d="M163.484 1304.56 Q159.873 1304.56 158.044 1308.12 Q156.239 1311.66 156.239 1318.79 Q156.239 1325.9 158.044 1329.46 Q159.873 1333 163.484 1333 Q167.118 1333 168.924 1329.46 Q170.753 1325.9 170.753 1318.79 Q170.753 1311.66 168.924 1308.12 Q167.118 1304.56 163.484 1304.56 M163.484 1300.85 Q169.294 1300.85 172.35 1305.46 Q175.429 1310.04 175.429 1318.79 Q175.429 1327.52 172.35 1332.12 Q169.294 1336.71 163.484 1336.71 Q157.674 1336.71 154.595 1332.12 Q151.54 1327.52 151.54 1318.79 Q151.54 1310.04 154.595 1305.46 Q157.674 1300.85 163.484 1300.85 Z" fill="#000000" fill-rule="nonzero" fill-opacity="1" /><path clip-path="url(#clip510)" d="M53.3921 1225.23 L83.0679 1225.23 L83.0679 1229.17 L53.3921 1229.17 L53.3921 1225.23 Z" fill="#000000" fill-rule="nonzero" fill-opacity="1" /><path clip-path="url(#clip510)" d="M93.9706 1238.13 L101.609 1238.13 L101.609 1211.76 L93.2993 1213.43 L93.2993 1209.17 L101.563 1207.5 L106.239 1207.5 L106.239 1238.13 L113.878 1238.13 L113.878 1242.06 L93.9706 1242.06 L93.9706 1238.13 Z" fill="#000000" fill-rule="nonzero" fill-opacity="1" /><path clip-path="url(#clip510)" d="M133.322 1210.58 Q129.711 1210.58 127.882 1214.15 Q126.077 1217.69 126.077 1224.82 Q126.077 1231.92 127.882 1235.49 Q129.711 1239.03 133.322 1239.03 Q136.956 1239.03 138.762 1235.49 Q140.591 1231.92 140.591 1224.82 Q140.591 1217.69 138.762 1214.15 Q136.956 1210.58 133.322 1210.58 M133.322 1206.88 Q139.132 1206.88 142.188 1211.48 Q145.267 1216.07 145.267 1224.82 Q145.267 1233.54 142.188 1238.15 Q139.132 1242.73 133.322 1242.73 Q127.512 1242.73 124.433 1238.15 Q121.378 1233.54 121.378 1224.82 Q121.378 1216.07 124.433 1211.48 Q127.512 1206.88 133.322 1206.88 Z" fill="#000000" fill-rule="nonzero" fill-opacity="1" /><path clip-path="url(#clip510)" d="M163.484 1210.58 Q159.873 1210.58 158.044 1214.15 Q156.239 1217.69 156.239 1224.82 Q156.239 1231.92 158.044 1235.49 Q159.873 1239.03 163.484 1239.03 Q167.118 1239.03 168.924 1235.49 Q170.753 1231.92 170.753 1224.82 Q170.753 1217.69 168.924 1214.15 Q167.118 1210.58 163.484 1210.58 M163.484 1206.88 Q169.294 1206.88 172.35 1211.48 Q175.429 1216.07 175.429 1224.82 Q175.429 1233.54 172.35 1238.15 Q169.294 1242.73 163.484 1242.73 Q157.674 1242.73 154.595 1238.15 Q151.54 1233.54 151.54 1224.82 Q151.54 1216.07 154.595 1211.48 Q157.674 1206.88 163.484 1206.88 Z" fill="#000000" fill-rule="nonzero" fill-opacity="1" /><path clip-path="url(#clip510)" d="M163.484 1116.61 Q159.873 1116.61 158.044 1120.17 Q156.239 1123.71 156.239 1130.84 Q156.239 1137.95 158.044 1141.51 Q159.873 1145.06 163.484 1145.06 Q167.118 1145.06 168.924 1141.51 Q170.753 1137.95 170.753 1130.84 Q170.753 1123.71 168.924 1120.17 Q167.118 1116.61 163.484 1116.61 M163.484 1112.9 Q169.294 1112.9 172.35 1117.51 Q175.429 1122.09 175.429 1130.84 Q175.429 1139.57 172.35 1144.18 Q169.294 1148.76 163.484 1148.76 Q157.674 1148.76 154.595 1144.18 Q151.54 1139.57 151.54 1130.84 Q151.54 1122.09 154.595 1117.51 Q157.674 1112.9 163.484 1112.9 Z" fill="#000000" fill-rule="nonzero" fill-opacity="1" /><path clip-path="url(#clip510)" d="M93.9706 1050.18 L101.609 1050.18 L101.609 1023.81 L93.2993 1025.48 L93.2993 1021.22 L101.563 1019.55 L106.239 1019.55 L106.239 1050.18 L113.878 1050.18 L113.878 1054.11 L93.9706 1054.11 L93.9706 1050.18 Z" fill="#000000" fill-rule="nonzero" fill-opacity="1" /><path clip-path="url(#clip510)" d="M133.322 1022.63 Q129.711 1022.63 127.882 1026.2 Q126.077 1029.74 126.077 1036.87 Q126.077 1043.98 127.882 1047.54 Q129.711 1051.08 133.322 1051.08 Q136.956 1051.08 138.762 1047.54 Q140.591 1043.98 140.591 1036.87 Q140.591 1029.74 138.762 1026.2 Q136.956 1022.63 133.322 1022.63 M133.322 1018.93 Q139.132 1018.93 142.188 1023.54 Q145.267 1028.12 145.267 1036.87 Q145.267 1045.6 142.188 1050.2 Q139.132 1054.79 133.322 1054.79 Q127.512 1054.79 124.433 1050.2 Q121.378 1045.6 121.378 1036.87 Q121.378 1028.12 124.433 1023.54 Q127.512 1018.93 133.322 1018.93 Z" fill="#000000" fill-rule="nonzero" fill-opacity="1" /><path clip-path="url(#clip510)" d="M163.484 1022.63 Q159.873 1022.63 158.044 1026.2 Q156.239 1029.74 156.239 1036.87 Q156.239 1043.98 158.044 1047.54 Q159.873 1051.08 163.484 1051.08 Q167.118 1051.08 168.924 1047.54 Q170.753 1043.98 170.753 1036.87 Q170.753 1029.74 168.924 1026.2 Q167.118 1022.63 163.484 1022.63 M163.484 1018.93 Q169.294 1018.93 172.35 1023.54 Q175.429 1028.12 175.429 1036.87 Q175.429 1045.6 172.35 1050.2 Q169.294 1054.79 163.484 1054.79 Q157.674 1054.79 154.595 1050.2 Q151.54 1045.6 151.54 1036.87 Q151.54 1028.12 154.595 1023.54 Q157.674 1018.93 163.484 1018.93 Z" fill="#000000" fill-rule="nonzero" fill-opacity="1" /><path clip-path="url(#clip510)" d="M97.1882 956.205 L113.508 956.205 L113.508 960.14 L91.5632 960.14 L91.5632 956.205 Q94.2252 953.45 98.8085 948.821 Q103.415 944.168 104.596 942.825 Q106.841 940.302 107.721 938.566 Q108.623 936.807 108.623 935.117 Q108.623 932.362 106.679 930.626 Q104.758 928.89 101.656 928.89 Q99.4567 928.89 97.003 929.654 Q94.5725 930.418 91.7947 931.969 L91.7947 927.247 Q94.6188 926.112 97.0724 925.534 Q99.5261 924.955 101.563 924.955 Q106.934 924.955 110.128 927.64 Q113.322 930.325 113.322 934.816 Q113.322 936.946 112.512 938.867 Q111.725 940.765 109.619 943.358 Q109.04 944.029 105.938 947.246 Q102.836 950.441 97.1882 956.205 Z" fill="#000000" fill-rule="nonzero" fill-opacity="1" /><path clip-path="url(#clip510)" d="M133.322 928.659 Q129.711 928.659 127.882 932.223 Q126.077 935.765 126.077 942.895 Q126.077 950.001 127.882 953.566 Q129.711 957.107 133.322 957.107 Q136.956 957.107 138.762 953.566 Q140.591 950.001 140.591 942.895 Q140.591 935.765 138.762 932.223 Q136.956 928.659 133.322 928.659 M133.322 924.955 Q139.132 924.955 142.188 929.561 Q145.267 934.145 145.267 942.895 Q145.267 951.621 142.188 956.228 Q139.132 960.811 133.322 960.811 Q127.512 960.811 124.433 956.228 Q121.378 951.621 121.378 942.895 Q121.378 934.145 124.433 929.561 Q127.512 924.955 133.322 924.955 Z" fill="#000000" fill-rule="nonzero" fill-opacity="1" /><path clip-path="url(#clip510)" d="M163.484 928.659 Q159.873 928.659 158.044 932.223 Q156.239 935.765 156.239 942.895 Q156.239 950.001 158.044 953.566 Q159.873 957.107 163.484 957.107 Q167.118 957.107 168.924 953.566 Q170.753 950.001 170.753 942.895 Q170.753 935.765 168.924 932.223 Q167.118 928.659 163.484 928.659 M163.484 924.955 Q169.294 924.955 172.35 929.561 Q175.429 934.145 175.429 942.895 Q175.429 951.621 172.35 956.228 Q169.294 960.811 163.484 960.811 Q157.674 960.811 154.595 956.228 Q151.54 951.621 151.54 942.895 Q151.54 934.145 154.595 929.561 Q157.674 924.955 163.484 924.955 Z" fill="#000000" fill-rule="nonzero" fill-opacity="1" /><path clip-path="url(#clip510)" d="M813.849 786.821 L813.849 833.851 L823.734 833.851 Q836.251 833.851 842.044 828.18 Q847.877 822.509 847.877 810.275 Q847.877 798.123 842.044 792.492 Q836.251 786.821 823.734 786.821 L813.849 786.821 M805.666 780.096 L822.478 780.096 Q840.059 780.096 848.282 787.428 Q856.505 794.72 856.505 810.275 Q856.505 825.912 848.241 833.244 Q839.978 840.576 822.478 840.576 L805.666 840.576 L805.666 780.096 Z" fill="#000000" fill-rule="nonzero" fill-opacity="1" /><path clip-path="url(#clip510)" d="M869.549 780.096 L877.732 780.096 L877.732 833.689 L907.182 833.689 L907.182 840.576 L869.549 840.576 L869.549 780.096 Z" fill="#000000" fill-rule="nonzero" fill-opacity="1" /><path clip-path="url(#clip510)" d="M942.141 780.096 L954.335 780.096 L969.769 821.253 L985.284 780.096 L997.477 780.096 L997.477 840.576 L989.497 840.576 L989.497 787.469 L973.901 828.95 L965.677 828.95 L950.081 787.469 L950.081 840.576 L942.141 840.576 L942.141 780.096 Z" fill="#000000" fill-rule="nonzero" fill-opacity="1" /><path clip-path="url(#clip510)" d="M1030.98 800.432 Q1024.98 800.432 1021.5 805.131 Q1018.01 809.789 1018.01 817.931 Q1018.01 826.074 1021.46 830.773 Q1024.94 835.431 1030.98 835.431 Q1036.93 835.431 1040.42 830.732 Q1043.9 826.033 1043.9 817.931 Q1043.9 809.87 1040.42 805.171 Q1036.93 800.432 1030.98 800.432 M1030.98 794.112 Q1040.7 794.112 1046.25 800.432 Q1051.8 806.751 1051.8 817.931 Q1051.8 829.071 1046.25 835.431 Q1040.7 841.751 1030.98 841.751 Q1021.22 841.751 1015.67 835.431 Q1010.16 829.071 1010.16 817.931 Q1010.16 806.751 1015.67 800.432 Q1021.22 794.112 1030.98 794.112 Z" fill="#000000" fill-rule="nonzero" fill-opacity="1" /><path clip-path="url(#clip510)" d="M1099.48 803.915 Q1102.27 798.892 1106.16 796.502 Q1110.05 794.112 1115.32 794.112 Q1122.41 794.112 1126.26 799.095 Q1130.1 804.037 1130.1 813.192 L1130.1 840.576 L1122.61 840.576 L1122.61 813.435 Q1122.61 806.913 1120.3 803.753 Q1117.99 800.594 1113.25 800.594 Q1107.46 800.594 1104.1 804.442 Q1100.73 808.29 1100.73 814.934 L1100.73 840.576 L1093.24 840.576 L1093.24 813.435 Q1093.24 806.872 1090.93 803.753 Q1088.62 800.594 1083.8 800.594 Q1078.09 800.594 1074.73 804.482 Q1071.37 808.331 1071.37 814.934 L1071.37 840.576 L1063.87 840.576 L1063.87 795.206 L1071.37 795.206 L1071.37 802.254 Q1073.92 798.082 1077.48 796.097 Q1081.05 794.112 1085.95 794.112 Q1090.89 794.112 1094.33 796.624 Q1097.82 799.135 1099.48 803.915 Z" fill="#000000" fill-rule="nonzero" fill-opacity="1" /><path clip-path="url(#clip510)" d="M1183.78 816.028 L1183.78 819.673 L1149.51 819.673 Q1149.99 827.37 1154.13 831.421 Q1158.3 835.431 1165.71 835.431 Q1170 835.431 1174.02 834.378 Q1178.07 833.325 1182.04 831.218 L1182.04 838.267 Q1178.03 839.968 1173.81 840.86 Q1169.6 841.751 1165.27 841.751 Q1154.41 841.751 1148.05 835.431 Q1141.73 829.112 1141.73 818.337 Q1141.73 807.197 1147.72 800.675 Q1153.76 794.112 1163.97 794.112 Q1173.12 794.112 1178.43 800.026 Q1183.78 805.9 1183.78 816.028 M1176.32 813.84 Q1176.24 807.723 1172.88 804.077 Q1169.56 800.432 1164.05 800.432 Q1157.81 800.432 1154.04 803.956 Q1150.32 807.48 1149.75 813.881 L1176.32 813.84 Z" fill="#000000" fill-rule="nonzero" fill-opacity="1" /><path clip-path="url(#clip510)" d="M1233.73 813.192 L1233.73 840.576 L1226.27 840.576 L1226.27 813.435 Q1226.27 806.994 1223.76 803.794 Q1221.25 800.594 1216.23 800.594 Q1210.19 800.594 1206.71 804.442 Q1203.22 808.29 1203.22 814.934 L1203.22 840.576 L1195.73 840.576 L1195.73 795.206 L1203.22 795.206 L1203.22 802.254 Q1205.9 798.163 1209.5 796.138 Q1213.15 794.112 1217.89 794.112 Q1225.7 794.112 1229.72 798.973 Q1233.73 803.794 1233.73 813.192 Z" fill="#000000" fill-rule="nonzero" fill-opacity="1" /><path clip-path="url(#clip510)" d="M1255.97 782.324 L1255.97 795.206 L1271.32 795.206 L1271.32 800.999 L1255.97 800.999 L1255.97 825.628 Q1255.97 831.178 1257.46 832.758 Q1259 834.338 1263.66 834.338 L1271.32 834.338 L1271.32 840.576 L1263.66 840.576 Q1255.03 840.576 1251.75 837.376 Q1248.47 834.135 1248.47 825.628 L1248.47 800.999 L1243 800.999 L1243 795.206 L1248.47 795.206 L1248.47 782.324 L1255.97 782.324 Z" fill="#000000" fill-rule="nonzero" fill-opacity="1" /><path clip-path="url(#clip513)" d="M251.451 1130.81 L269.338 1131.05 L287.226 1131.77 L305.113 1132.96 L323 1134.64 L340.887 1200.68 L358.775 1267.2 L376.662 1334.19 L394.549 1401.67 L412.437 1358.74 L430.324 1316.28 L448.211 1274.31 L466.099 1232.81 L483.986 1191.79 L501.873 1151.26 L519.76 1111.2 L537.648 1071.61 L555.535 1032.51 L573.422 993.888 L591.31 955.742 L609.197 918.076 L627.084 954.209 L644.972 990.821 L662.859 1027.91 L680.746 1065.48 L698.633 1103.53 L716.521 1142.06 L734.408 1181.06 L752.295 1220.55 L770.183 1260.51 L788.07 1300.95 L805.957 1341.87 L823.845 1383.27 L841.732 1304.44 L859.619 1226.1 L877.507 1148.23 L895.394 1070.84 L913.281 1067.25 L931.168 1064.13 L949.056 1061.5 L966.943 1059.35 L984.83 1057.67 L1002.72 1056.48 L1020.6 1055.76 L1038.49 1055.52 L1056.38 1055.76 L1074.27 1056.48 L1092.15 1057.67 L1110.04 1059.35 L1127.93 1061.5 L1145.82 1064.13 L1163.7 1067.25 L1181.59 1070.84 L1199.48 1148.23 L1217.37 1226.1 L1235.25 1304.44 L1253.14 1383.27 L1271.03 1341.87 L1288.91 1300.95 L1306.8 1260.51 L1324.69 1220.55 L1342.58 1181.06 L1360.46 1142.06 L1378.35 1103.53 L1396.24 1065.48 L1414.13 1027.91 L1432.01 990.821 L1449.9 954.209 L1467.79 918.076 L1485.67 955.742 L1503.56 993.888 L1521.45 1032.51 L1539.34 1071.61 L1557.22 1111.2 L1575.11 1151.26 L1593 1191.79 L1610.89 1232.81 L1628.77 1274.31 L1646.66 1316.28 L1664.55 1358.74 L1682.44 1401.67 L1700.32 1334.19 L1718.21 1267.2 L1736.1 1200.68 L1753.98 1134.64 L1771.87 1132.96 L1789.76 1131.77 L1807.65 1131.05 L1825.53 1130.81 L1825.53 1130.81 L1807.65 1130.81 L1789.76 1130.81 L1771.87 1130.81 L1753.98 1130.81 L1736.1 1130.81 L1718.21 1130.81 L1700.32 1130.81 L1682.44 1130.81 L1664.55 1130.81 L1646.66 1130.81 L1628.77 1130.81 L1610.89 1130.81 L1593 1130.81 L1575.11 1130.81 L1557.22 1130.81 L1539.34 1130.81 L1521.45 1130.81 L1503.56 1130.81 L1485.67 1130.81 L1467.79 1130.81 L1449.9 1130.81 L1432.01 1130.81 L1414.13 1130.81 L1396.24 1130.81 L1378.35 1130.81 L1360.46 1130.81 L1342.58 1130.81 L1324.69 1130.81 L1306.8 1130.81 L1288.91 1130.81 L1271.03 1130.81 L1253.14 1130.81 L1235.25 1130.81 L1217.37 1130.81 L1199.48 1130.81 L1181.59 1130.81 L1163.7 1130.81 L1145.82 1130.81 L1127.93 1130.81 L1110.04 1130.81 L1092.15 1130.81 L1074.27 1130.81 L1056.38 1130.81 L1038.49 1130.81 L1020.6 1130.81 L1002.72 1130.81 L984.83 1130.81 L966.943 1130.81 L949.056 1130.81 L931.168 1130.81 L913.281 1130.81 L895.394 1130.81 L877.507 1130.81 L859.619 1130.81 L841.732 1130.81 L823.845 1130.81 L805.957 1130.81 L788.07 1130.81 L770.183 1130.81 L752.295 1130.81 L734.408 1130.81 L716.521 1130.81 L698.633 1130.81 L680.746 1130.81 L662.859 1130.81 L644.972 1130.81 L627.084 1130.81 L609.197 1130.81 L591.31 1130.81 L573.422 1130.81 L555.535 1130.81 L537.648 1130.81 L519.76 1130.81 L501.873 1130.81 L483.986 1130.81 L466.099 1130.81 L448.211 1130.81 L430.324 1130.81 L412.437 1130.81 L394.549 1130.81 L376.662 1130.81 L358.775 1130.81 L340.887 1130.81 L323 1130.81 L305.113 1130.81 L287.226 1130.81 L269.338 1130.81 L251.451 1130.81  Z" fill="#0000ff" fill-rule="evenodd" fill-opacity="0.5"/>
<polyline clip-path="url(#clip513)" style="stroke:#0000ff; stroke-linecap:round; stroke-linejoin:round; stroke-width:4; stroke-opacity:1; fill:none" points="251.451,1130.81 269.338,1131.05 287.226,1131.77 305.113,1132.96 323,1134.64 340.887,1200.68 358.775,1267.2 376.662,1334.19 394.549,1401.67 412.437,1358.74 430.324,1316.28 448.211,1274.31 466.099,1232.81 483.986,1191.79 501.873,1151.26 519.76,1111.2 537.648,1071.61 555.535,1032.51 573.422,993.888 591.31,955.742 609.197,918.076 627.084,954.209 644.972,990.821 662.859,1027.91 680.746,1065.48 698.633,1103.53 716.521,1142.06 734.408,1181.06 752.295,1220.55 770.183,1260.51 788.07,1300.95 805.957,1341.87 823.845,1383.27 841.732,1304.44 859.619,1226.1 877.507,1148.23 895.394,1070.84 913.281,1067.25 931.168,1064.13 949.056,1061.5 966.943,1059.35 984.83,1057.67 1002.72,1056.48 1020.6,1055.76 1038.49,1055.52 1056.38,1055.76 1074.27,1056.48 1092.15,1057.67 1110.04,1059.35 1127.93,1061.5 1145.82,1064.13 1163.7,1067.25 1181.59,1070.84 1199.48,1148.23 1217.37,1226.1 1235.25,1304.44 1253.14,1383.27 1271.03,1341.87 1288.91,1300.95 1306.8,1260.51 1324.69,1220.55 1342.58,1181.06 1360.46,1142.06 1378.35,1103.53 1396.24,1065.48 1414.13,1027.91 1432.01,990.821 1449.9,954.209 1467.79,918.076 1485.67,955.742 1503.56,993.888 1521.45,1032.51 1539.34,1071.61 1557.22,1111.2 1575.11,1151.26 1593,1191.79 1610.89,1232.81 1628.77,1274.31 1646.66,1316.28 1664.55,1358.74 1682.44,1401.67 1700.32,1334.19 1718.21,1267.2 1736.1,1200.68 1753.98,1134.64 1771.87,1132.96 1789.76,1131.77 1807.65,1131.05 1825.53,1130.81 "/>
</svg>
