<?xml version="1.0" encoding="utf-8"?>
<svg xmlns="http://www.w3.org/2000/svg" xmlns:xlink="http://www.w3.org/1999/xlink" width="721" height="400" viewBox="0 0 2884 1600">
<defs>
  <clipPath id="clip750">
    <rect x="0" y="0" width="2884" height="1600"/>
  </clipPath>
</defs>
<path clip-path="url(#clip750)" d="M0 1600 L2884 1600 L2884 0 L0 0  Z" fill="#ffffff" fill-rule="evenodd" fill-opacity="1"/>
<defs>
  <clipPath id="clip751">
    <rect x="576" y="0" width="2020" height="1600"/>
  </clipPath>
</defs>
<path clip-path="url(#clip750)" d="M213.869 692.248 L2462.71 692.248 L2462.71 113.322 L213.869 113.322  Z" fill="#ffffff" fill-rule="evenodd" fill-opacity="1"/>
<defs>
  <clipPath id="clip752">
    <rect x="213" y="113" width="2250" height="580"/>
  </clipPath>
</defs>
<polyline clip-path="url(#clip752)" style="stroke:#000000; stroke-linecap:round; stroke-linejoin:round; stroke-width:2; stroke-opacity:0.1; fill:none" points="277.515,692.248 277.515,113.322 "/>
<polyline clip-path="url(#clip752)" style="stroke:#000000; stroke-linecap:round; stroke-linejoin:round; stroke-width:2; stroke-opacity:0.1; fill:none" points="759.685,692.248 759.685,113.322 "/>
<polyline clip-path="url(#clip752)" style="stroke:#000000; stroke-linecap:round; stroke-linejoin:round; stroke-width:2; stroke-opacity:0.1; fill:none" points="1241.85,692.248 1241.85,113.322 "/>
<polyline clip-path="url(#clip752)" style="stroke:#000000; stroke-linecap:round; stroke-linejoin:round; stroke-width:2; stroke-opacity:0.1; fill:none" points="1724.02,692.248 1724.02,113.322 "/>
<polyline clip-path="url(#clip752)" style="stroke:#000000; stroke-linecap:round; stroke-linejoin:round; stroke-width:2; stroke-opacity:0.1; fill:none" points="2206.19,692.248 2206.19,113.322 "/>
<polyline clip-path="url(#clip752)" style="stroke:#000000; stroke-linecap:round; stroke-linejoin:round; stroke-width:2; stroke-opacity:0.1; fill:none" points="213.869,639.937 2462.71,639.937 "/>
<polyline clip-path="url(#clip752)" style="stroke:#000000; stroke-linecap:round; stroke-linejoin:round; stroke-width:2; stroke-opacity:0.1; fill:none" points="213.869,555.11 2462.71,555.11 "/>
<polyline clip-path="url(#clip752)" style="stroke:#000000; stroke-linecap:round; stroke-linejoin:round; stroke-width:2; stroke-opacity:0.1; fill:none" points="213.869,470.284 2462.71,470.284 "/>
<polyline clip-path="url(#clip752)" style="stroke:#000000; stroke-linecap:round; stroke-linejoin:round; stroke-width:2; stroke-opacity:0.1; fill:none" points="213.869,385.458 2462.71,385.458 "/>
<polyline clip-path="url(#clip752)" style="stroke:#000000; stroke-linecap:round; stroke-linejoin:round; stroke-width:2; stroke-opacity:0.1; fill:none" points="213.869,300.632 2462.71,300.632 "/>
<polyline clip-path="url(#clip752)" style="stroke:#000000; stroke-linecap:round; stroke-linejoin:round; stroke-width:2; stroke-opacity:0.1; fill:none" points="213.869,215.806 2462.71,215.806 "/>
<polyline clip-path="url(#clip752)" style="stroke:#000000; stroke-linecap:round; stroke-linejoin:round; stroke-width:2; stroke-opacity:0.1; fill:none" points="213.869,130.979 2462.71,130.979 "/>
<polyline clip-path="url(#clip750)" style="stroke:#000000; stroke-linecap:round; stroke-linejoin:round; stroke-width:4; stroke-opacity:1; fill:none" points="213.869,692.248 2462.71,692.248 "/>
<polyline clip-path="url(#clip750)" style="stroke:#000000; stroke-linecap:round; stroke-linejoin:round; stroke-width:4; stroke-opacity:1; fill:none" points="277.515,692.248 277.515,673.35 "/>
<polyline clip-path="url(#clip750)" style="stroke:#000000; stroke-linecap:round; stroke-linejoin:round; stroke-width:4; stroke-opacity:1; fill:none" points="759.685,692.248 759.685,673.35 "/>
<polyline clip-path="url(#clip750)" style="stroke:#000000; stroke-linecap:round; stroke-linejoin:round; stroke-width:4; stroke-opacity:1; fill:none" points="1241.85,692.248 1241.85,673.35 "/>
<polyline clip-path="url(#clip750)" style="stroke:#000000; stroke-linecap:round; stroke-linejoin:round; stroke-width:4; stroke-opacity:1; fill:none" points="1724.02,692.248 1724.02,673.35 "/>
<polyline clip-path="url(#clip750)" style="stroke:#000000; stroke-linecap:round; stroke-linejoin:round; stroke-width:4; stroke-opacity:1; fill:none" points="2206.19,692.248 2206.19,673.35 "/>
<path clip-path="url(#clip750)" d="M277.515 727.039 Q273.904 727.039 272.075 730.603 Q270.27 734.145 270.27 741.275 Q270.27 748.381 272.075 751.946 Q273.904 755.487 277.515 755.487 Q281.149 755.487 282.955 751.946 Q284.783 748.381 284.783 741.275 Q284.783 734.145 282.955 730.603 Q281.149 727.039 277.515 727.039 M277.515 723.335 Q283.325 723.335 286.381 727.941 Q289.459 732.525 289.459 741.275 Q289.459 750.001 286.381 754.608 Q283.325 759.191 277.515 759.191 Q271.705 759.191 268.626 754.608 Q265.571 750.001 265.571 741.275 Q265.571 732.525 268.626 727.941 Q271.705 723.335 277.515 723.335 Z" fill="#000000" fill-rule="nonzero" fill-opacity="1" /><path clip-path="url(#clip750)" d="M734.372 754.585 L742.011 754.585 L742.011 728.219 L733.701 729.886 L733.701 725.626 L741.965 723.96 L746.641 723.96 L746.641 754.585 L754.28 754.585 L754.28 758.52 L734.372 758.52 L734.372 754.585 Z" fill="#000000" fill-rule="nonzero" fill-opacity="1" /><path clip-path="url(#clip750)" d="M773.724 727.039 Q770.113 727.039 768.284 730.603 Q766.479 734.145 766.479 741.275 Q766.479 748.381 768.284 751.946 Q770.113 755.487 773.724 755.487 Q777.358 755.487 779.164 751.946 Q780.993 748.381 780.993 741.275 Q780.993 734.145 779.164 730.603 Q777.358 727.039 773.724 727.039 M773.724 723.335 Q779.534 723.335 782.59 727.941 Q785.669 732.525 785.669 741.275 Q785.669 750.001 782.59 754.608 Q779.534 759.191 773.724 759.191 Q767.914 759.191 764.835 754.608 Q761.78 750.001 761.78 741.275 Q761.78 732.525 764.835 727.941 Q767.914 723.335 773.724 723.335 Z" fill="#000000" fill-rule="nonzero" fill-opacity="1" /><path clip-path="url(#clip750)" d="M1220.63 754.585 L1236.95 754.585 L1236.95 758.52 L1215 758.52 L1215 754.585 Q1217.67 751.83 1222.25 747.2 Q1226.85 742.548 1228.04 741.205 Q1230.28 738.682 1231.16 736.946 Q1232.06 735.187 1232.06 733.497 Q1232.06 730.742 1230.12 729.006 Q1228.2 727.27 1225.1 727.27 Q1222.9 727.27 1220.44 728.034 Q1218.01 728.798 1215.23 730.349 L1215.23 725.626 Q1218.06 724.492 1220.51 723.914 Q1222.97 723.335 1225 723.335 Q1230.37 723.335 1233.57 726.02 Q1236.76 728.705 1236.76 733.196 Q1236.76 735.325 1235.95 737.247 Q1235.16 739.145 1233.06 741.738 Q1232.48 742.409 1229.38 745.626 Q1226.28 748.821 1220.63 754.585 Z" fill="#000000" fill-rule="nonzero" fill-opacity="1" /><path clip-path="url(#clip750)" d="M1256.76 727.039 Q1253.15 727.039 1251.32 730.603 Q1249.52 734.145 1249.52 741.275 Q1249.52 748.381 1251.32 751.946 Q1253.15 755.487 1256.76 755.487 Q1260.4 755.487 1262.2 751.946 Q1264.03 748.381 1264.03 741.275 Q1264.03 734.145 1262.2 730.603 Q1260.4 727.039 1256.76 727.039 M1256.76 723.335 Q1262.57 723.335 1265.63 727.941 Q1268.71 732.525 1268.71 741.275 Q1268.71 750.001 1265.63 754.608 Q1262.57 759.191 1256.76 759.191 Q1250.95 759.191 1247.87 754.608 Q1244.82 750.001 1244.82 741.275 Q1244.82 732.525 1247.87 727.941 Q1250.95 723.335 1256.76 723.335 Z" fill="#000000" fill-rule="nonzero" fill-opacity="1" /><path clip-path="url(#clip750)" d="M1712.87 739.886 Q1716.22 740.603 1718.1 742.872 Q1720 745.14 1720 748.474 Q1720 753.589 1716.48 756.39 Q1712.96 759.191 1706.48 759.191 Q1704.3 759.191 1701.99 758.751 Q1699.7 758.335 1697.24 757.478 L1697.24 752.964 Q1699.19 754.099 1701.5 754.677 Q1703.82 755.256 1706.34 755.256 Q1710.74 755.256 1713.03 753.52 Q1715.34 751.784 1715.34 748.474 Q1715.34 745.418 1713.19 743.705 Q1711.06 741.969 1707.24 741.969 L1703.21 741.969 L1703.21 738.126 L1707.43 738.126 Q1710.88 738.126 1712.71 736.761 Q1714.53 735.372 1714.53 732.779 Q1714.53 730.117 1712.64 728.705 Q1710.76 727.27 1707.24 727.27 Q1705.32 727.27 1703.12 727.687 Q1700.92 728.103 1698.28 728.983 L1698.28 724.816 Q1700.95 724.076 1703.26 723.705 Q1705.6 723.335 1707.66 723.335 Q1712.98 723.335 1716.08 725.765 Q1719.19 728.173 1719.19 732.293 Q1719.19 735.163 1717.54 737.154 Q1715.9 739.122 1712.87 739.886 Z" fill="#000000" fill-rule="nonzero" fill-opacity="1" /><path clip-path="url(#clip750)" d="M1738.86 727.039 Q1735.25 727.039 1733.42 730.603 Q1731.62 734.145 1731.62 741.275 Q1731.62 748.381 1733.42 751.946 Q1735.25 755.487 1738.86 755.487 Q1742.5 755.487 1744.3 751.946 Q1746.13 748.381 1746.13 741.275 Q1746.13 734.145 1744.3 730.603 Q1742.5 727.039 1738.86 727.039 M1738.86 723.335 Q1744.67 723.335 1747.73 727.941 Q1750.81 732.525 1750.81 741.275 Q1750.81 750.001 1747.73 754.608 Q1744.67 759.191 1738.86 759.191 Q1733.05 759.191 1729.97 754.608 Q1726.92 750.001 1726.92 741.275 Q1726.92 732.525 1729.97 727.941 Q1733.05 723.335 1738.86 723.335 Z" fill="#000000" fill-rule="nonzero" fill-opacity="1" /><path clip-path="url(#clip750)" d="M2194.37 728.034 L2182.56 746.483 L2194.37 746.483 L2194.37 728.034 M2193.14 723.96 L2199.02 723.96 L2199.02 746.483 L2203.95 746.483 L2203.95 750.372 L2199.02 750.372 L2199.02 758.52 L2194.37 758.52 L2194.37 750.372 L2178.76 750.372 L2178.76 745.858 L2193.14 723.96 Z" fill="#000000" fill-rule="nonzero" fill-opacity="1" /><path clip-path="url(#clip750)" d="M2221.68 727.039 Q2218.07 727.039 2216.24 730.603 Q2214.44 734.145 2214.44 741.275 Q2214.44 748.381 2216.24 751.946 Q2218.07 755.487 2221.68 755.487 Q2225.31 755.487 2227.12 751.946 Q2228.95 748.381 2228.95 741.275 Q2228.95 734.145 2227.12 730.603 Q2225.31 727.039 2221.68 727.039 M2221.68 723.335 Q2227.49 723.335 2230.55 727.941 Q2233.63 732.525 2233.63 741.275 Q2233.63 750.001 2230.55 754.608 Q2227.49 759.191 2221.68 759.191 Q2215.87 759.191 2212.79 754.608 Q2209.74 750.001 2209.74 741.275 Q2209.74 732.525 2212.79 727.941 Q2215.87 723.335 2221.68 723.335 Z" fill="#000000" fill-rule="nonzero" fill-opacity="1" /><polyline clip-path="url(#clip750)" style="stroke:#000000; stroke-linecap:round; stroke-linejoin:round; stroke-width:4; stroke-opacity:1; fill:none" points="213.869,692.248 213.869,113.322 "/>
<polyline clip-path="url(#clip750)" style="stroke:#000000; stroke-linecap:round; stroke-linejoin:round; stroke-width:4; stroke-opacity:1; fill:none" points="213.869,639.937 230.071,639.937 "/>
<polyline clip-path="url(#clip750)" style="stroke:#000000; stroke-linecap:round; stroke-linejoin:round; stroke-width:4; stroke-opacity:1; fill:none" points="213.869,555.11 230.071,555.11 "/>
<polyline clip-path="url(#clip750)" style="stroke:#000000; stroke-linecap:round; stroke-linejoin:round; stroke-width:4; stroke-opacity:1; fill:none" points="213.869,470.284 230.071,470.284 "/>
<polyline clip-path="url(#clip750)" style="stroke:#000000; stroke-linecap:round; stroke-linejoin:round; stroke-width:4; stroke-opacity:1; fill:none" points="213.869,385.458 230.071,385.458 "/>
<polyline clip-path="url(#clip750)" style="stroke:#000000; stroke-linecap:round; stroke-linejoin:round; stroke-width:4; stroke-opacity:1; fill:none" points="213.869,300.632 230.071,300.632 "/>
<polyline clip-path="url(#clip750)" style="stroke:#000000; stroke-linecap:round; stroke-linejoin:round; stroke-width:4; stroke-opacity:1; fill:none" points="213.869,215.806 230.071,215.806 "/>
<polyline clip-path="url(#clip750)" style="stroke:#000000; stroke-linecap:round; stroke-linejoin:round; stroke-width:4; stroke-opacity:1; fill:none" points="213.869,130.979 230.071,130.979 "/>
<path clip-path="url(#clip750)" d="M48.5721 640.388 L78.2479 640.388 L78.2479 644.323 L48.5721 644.323 L48.5721 640.388 Z" fill="#000000" fill-rule="nonzero" fill-opacity="1" /><path clip-path="url(#clip750)" d="M89.1506 653.282 L96.7895 653.282 L96.7895 626.916 L88.4793 628.583 L88.4793 624.323 L96.7432 622.657 L101.419 622.657 L101.419 653.282 L109.058 653.282 L109.058 657.217 L89.1506 657.217 L89.1506 653.282 Z" fill="#000000" fill-rule="nonzero" fill-opacity="1" /><path clip-path="url(#clip750)" d="M122.53 653.282 L138.849 653.282 L138.849 657.217 L116.905 657.217 L116.905 653.282 Q119.567 650.527 124.15 645.897 Q128.757 641.245 129.937 639.902 Q132.183 637.379 133.062 635.643 Q133.965 633.883 133.965 632.194 Q133.965 629.439 132.021 627.703 Q130.099 625.967 126.998 625.967 Q124.799 625.967 122.345 626.731 Q119.914 627.495 117.137 629.046 L117.137 624.323 Q119.961 623.189 122.414 622.61 Q124.868 622.032 126.905 622.032 Q132.275 622.032 135.47 624.717 Q138.664 627.402 138.664 631.893 Q138.664 634.022 137.854 635.944 Q137.067 637.842 134.961 640.434 Q134.382 641.106 131.28 644.323 Q128.178 647.518 122.53 653.282 Z" fill="#000000" fill-rule="nonzero" fill-opacity="1" /><path clip-path="url(#clip750)" d="M158.664 625.735 Q155.053 625.735 153.224 629.3 Q151.419 632.842 151.419 639.971 Q151.419 647.078 153.224 650.643 Q155.053 654.184 158.664 654.184 Q162.298 654.184 164.104 650.643 Q165.933 647.078 165.933 639.971 Q165.933 632.842 164.104 629.3 Q162.298 625.735 158.664 625.735 M158.664 622.032 Q164.474 622.032 167.53 626.638 Q170.609 631.221 170.609 639.971 Q170.609 648.698 167.53 653.305 Q164.474 657.888 158.664 657.888 Q152.854 657.888 149.775 653.305 Q146.72 648.698 146.72 639.971 Q146.72 631.221 149.775 626.638 Q152.854 622.032 158.664 622.032 Z" fill="#000000" fill-rule="nonzero" fill-opacity="1" /><path clip-path="url(#clip750)" d="M48.5721 555.562 L78.2479 555.562 L78.2479 559.497 L48.5721 559.497 L48.5721 555.562 Z" fill="#000000" fill-rule="nonzero" fill-opacity="1" /><path clip-path="url(#clip750)" d="M89.1506 568.455 L96.7895 568.455 L96.7895 542.09 L88.4793 543.756 L88.4793 539.497 L96.7432 537.83 L101.419 537.83 L101.419 568.455 L109.058 568.455 L109.058 572.39 L89.1506 572.39 L89.1506 568.455 Z" fill="#000000" fill-rule="nonzero" fill-opacity="1" /><path clip-path="url(#clip750)" d="M128.502 540.909 Q124.891 540.909 123.062 544.474 Q121.257 548.016 121.257 555.145 Q121.257 562.252 123.062 565.816 Q124.891 569.358 128.502 569.358 Q132.136 569.358 133.942 565.816 Q135.771 562.252 135.771 555.145 Q135.771 548.016 133.942 544.474 Q132.136 540.909 128.502 540.909 M128.502 537.205 Q134.312 537.205 137.368 541.812 Q140.447 546.395 140.447 555.145 Q140.447 563.872 137.368 568.478 Q134.312 573.062 128.502 573.062 Q122.692 573.062 119.613 568.478 Q116.558 563.872 116.558 555.145 Q116.558 546.395 119.613 541.812 Q122.692 537.205 128.502 537.205 Z" fill="#000000" fill-rule="nonzero" fill-opacity="1" /><path clip-path="url(#clip750)" d="M158.664 540.909 Q155.053 540.909 153.224 544.474 Q151.419 548.016 151.419 555.145 Q151.419 562.252 153.224 565.816 Q155.053 569.358 158.664 569.358 Q162.298 569.358 164.104 565.816 Q165.933 562.252 165.933 555.145 Q165.933 548.016 164.104 544.474 Q162.298 540.909 158.664 540.909 M158.664 537.205 Q164.474 537.205 167.53 541.812 Q170.609 546.395 170.609 555.145 Q170.609 563.872 167.53 568.478 Q164.474 573.062 158.664 573.062 Q152.854 573.062 149.775 568.478 Q146.72 563.872 146.72 555.145 Q146.72 546.395 149.775 541.812 Q152.854 537.205 158.664 537.205 Z" fill="#000000" fill-rule="nonzero" fill-opacity="1" /><path clip-path="url(#clip750)" d="M78.734 470.736 L108.41 470.736 L108.41 474.671 L78.734 474.671 L78.734 470.736 Z" fill="#000000" fill-rule="nonzero" fill-opacity="1" /><path clip-path="url(#clip750)" d="M128.502 471.152 Q125.169 471.152 123.248 472.935 Q121.35 474.717 121.35 477.842 Q121.35 480.967 123.248 482.749 Q125.169 484.532 128.502 484.532 Q131.836 484.532 133.757 482.749 Q135.678 480.944 135.678 477.842 Q135.678 474.717 133.757 472.935 Q131.859 471.152 128.502 471.152 M123.826 469.162 Q120.817 468.421 119.127 466.361 Q117.461 464.3 117.461 461.338 Q117.461 457.194 120.4 454.787 Q123.363 452.379 128.502 452.379 Q133.664 452.379 136.604 454.787 Q139.544 457.194 139.544 461.338 Q139.544 464.3 137.854 466.361 Q136.187 468.421 133.201 469.162 Q136.581 469.949 138.456 472.24 Q140.354 474.532 140.354 477.842 Q140.354 482.865 137.275 485.55 Q134.22 488.236 128.502 488.236 Q122.785 488.236 119.706 485.55 Q116.65 482.865 116.65 477.842 Q116.65 474.532 118.549 472.24 Q120.447 469.949 123.826 469.162 M122.113 461.777 Q122.113 464.462 123.78 465.967 Q125.47 467.472 128.502 467.472 Q131.511 467.472 133.201 465.967 Q134.914 464.462 134.914 461.777 Q134.914 459.092 133.201 457.588 Q131.511 456.083 128.502 456.083 Q125.47 456.083 123.78 457.588 Q122.113 459.092 122.113 461.777 Z" fill="#000000" fill-rule="nonzero" fill-opacity="1" /><path clip-path="url(#clip750)" d="M158.664 456.083 Q155.053 456.083 153.224 459.648 Q151.419 463.189 151.419 470.319 Q151.419 477.425 153.224 480.99 Q155.053 484.532 158.664 484.532 Q162.298 484.532 164.104 480.99 Q165.933 477.425 165.933 470.319 Q165.933 463.189 164.104 459.648 Q162.298 456.083 158.664 456.083 M158.664 452.379 Q164.474 452.379 167.53 456.986 Q170.609 461.569 170.609 470.319 Q170.609 479.046 167.53 483.652 Q164.474 488.236 158.664 488.236 Q152.854 488.236 149.775 483.652 Q146.72 479.046 146.72 470.319 Q146.72 461.569 149.775 456.986 Q152.854 452.379 158.664 452.379 Z" fill="#000000" fill-rule="nonzero" fill-opacity="1" /><path clip-path="url(#clip750)" d="M78.734 385.909 L108.41 385.909 L108.41 389.845 L78.734 389.845 L78.734 385.909 Z" fill="#000000" fill-rule="nonzero" fill-opacity="1" /><path clip-path="url(#clip750)" d="M129.081 383.595 Q125.933 383.595 124.081 385.747 Q122.252 387.9 122.252 391.65 Q122.252 395.377 124.081 397.553 Q125.933 399.706 129.081 399.706 Q132.229 399.706 134.058 397.553 Q135.91 395.377 135.91 391.65 Q135.91 387.9 134.058 385.747 Q132.229 383.595 129.081 383.595 M138.363 368.942 L138.363 373.201 Q136.604 372.368 134.799 371.928 Q133.016 371.488 131.257 371.488 Q126.627 371.488 124.174 374.613 Q121.743 377.738 121.396 384.058 Q122.762 382.044 124.822 380.979 Q126.882 379.891 129.359 379.891 Q134.567 379.891 137.576 383.062 Q140.609 386.21 140.609 391.65 Q140.609 396.974 137.461 400.192 Q134.312 403.409 129.081 403.409 Q123.086 403.409 119.914 398.826 Q116.743 394.22 116.743 385.493 Q116.743 377.298 120.632 372.437 Q124.521 367.553 131.072 367.553 Q132.831 367.553 134.613 367.9 Q136.419 368.247 138.363 368.942 Z" fill="#000000" fill-rule="nonzero" fill-opacity="1" /><path clip-path="url(#clip750)" d="M158.664 371.257 Q155.053 371.257 153.224 374.821 Q151.419 378.363 151.419 385.493 Q151.419 392.599 153.224 396.164 Q155.053 399.706 158.664 399.706 Q162.298 399.706 164.104 396.164 Q165.933 392.599 165.933 385.493 Q165.933 378.363 164.104 374.821 Q162.298 371.257 158.664 371.257 M158.664 367.553 Q164.474 367.553 167.53 372.159 Q170.609 376.743 170.609 385.493 Q170.609 394.22 167.53 398.826 Q164.474 403.409 158.664 403.409 Q152.854 403.409 149.775 398.826 Q146.72 394.22 146.72 385.493 Q146.72 376.743 149.775 372.159 Q152.854 367.553 158.664 367.553 Z" fill="#000000" fill-rule="nonzero" fill-opacity="1" /><path clip-path="url(#clip750)" d="M78.734 301.083 L108.41 301.083 L108.41 305.018 L78.734 305.018 L78.734 301.083 Z" fill="#000000" fill-rule="nonzero" fill-opacity="1" /><path clip-path="url(#clip750)" d="M131.349 287.426 L119.544 305.875 L131.349 305.875 L131.349 287.426 M130.123 283.352 L136.002 283.352 L136.002 305.875 L140.933 305.875 L140.933 309.764 L136.002 309.764 L136.002 317.912 L131.349 317.912 L131.349 309.764 L115.748 309.764 L115.748 305.25 L130.123 283.352 Z" fill="#000000" fill-rule="nonzero" fill-opacity="1" /><path clip-path="url(#clip750)" d="M158.664 286.43 Q155.053 286.43 153.224 289.995 Q151.419 293.537 151.419 300.666 Q151.419 307.773 153.224 311.338 Q155.053 314.879 158.664 314.879 Q162.298 314.879 164.104 311.338 Q165.933 307.773 165.933 300.666 Q165.933 293.537 164.104 289.995 Q162.298 286.43 158.664 286.43 M158.664 282.727 Q164.474 282.727 167.53 287.333 Q170.609 291.917 170.609 300.666 Q170.609 309.393 167.53 314 Q164.474 318.583 158.664 318.583 Q152.854 318.583 149.775 314 Q146.72 309.393 146.72 300.666 Q146.72 291.917 149.775 287.333 Q152.854 282.727 158.664 282.727 Z" fill="#000000" fill-rule="nonzero" fill-opacity="1" /><path clip-path="url(#clip750)" d="M78.734 216.257 L108.41 216.257 L108.41 220.192 L78.734 220.192 L78.734 216.257 Z" fill="#000000" fill-rule="nonzero" fill-opacity="1" /><path clip-path="url(#clip750)" d="M122.53 229.15 L138.849 229.15 L138.849 233.086 L116.905 233.086 L116.905 229.15 Q119.567 226.396 124.15 221.766 Q128.757 217.113 129.937 215.771 Q132.183 213.248 133.062 211.512 Q133.965 209.752 133.965 208.063 Q133.965 205.308 132.021 203.572 Q130.099 201.836 126.998 201.836 Q124.799 201.836 122.345 202.6 Q119.914 203.363 117.137 204.914 L117.137 200.192 Q119.961 199.058 122.414 198.479 Q124.868 197.901 126.905 197.901 Q132.275 197.901 135.47 200.586 Q138.664 203.271 138.664 207.762 Q138.664 209.891 137.854 211.812 Q137.067 213.711 134.961 216.303 Q134.382 216.975 131.28 220.192 Q128.178 223.387 122.53 229.15 Z" fill="#000000" fill-rule="nonzero" fill-opacity="1" /><path clip-path="url(#clip750)" d="M158.664 201.604 Q155.053 201.604 153.224 205.169 Q151.419 208.711 151.419 215.84 Q151.419 222.947 153.224 226.511 Q155.053 230.053 158.664 230.053 Q162.298 230.053 164.104 226.511 Q165.933 222.947 165.933 215.84 Q165.933 208.711 164.104 205.169 Q162.298 201.604 158.664 201.604 M158.664 197.901 Q164.474 197.901 167.53 202.507 Q170.609 207.09 170.609 215.84 Q170.609 224.567 167.53 229.174 Q164.474 233.757 158.664 233.757 Q152.854 233.757 149.775 229.174 Q146.72 224.567 146.72 215.84 Q146.72 207.09 149.775 202.507 Q152.854 197.901 158.664 197.901 Z" fill="#000000" fill-rule="nonzero" fill-opacity="1" /><path clip-path="url(#clip750)" d="M158.664 116.778 Q155.053 116.778 153.224 120.343 Q151.419 123.884 151.419 131.014 Q151.419 138.12 153.224 141.685 Q155.053 145.227 158.664 145.227 Q162.298 145.227 164.104 141.685 Q165.933 138.12 165.933 131.014 Q165.933 123.884 164.104 120.343 Q162.298 116.778 158.664 116.778 M158.664 113.074 Q164.474 113.074 167.53 117.681 Q170.609 122.264 170.609 131.014 Q170.609 139.741 167.53 144.347 Q164.474 148.931 158.664 148.931 Q152.854 148.931 149.775 144.347 Q146.72 139.741 146.72 131.014 Q146.72 122.264 149.775 117.681 Q152.854 113.074 158.664 113.074 Z" fill="#000000" fill-rule="nonzero" fill-opacity="1" /><path clip-path="url(#clip750)" d="M936.237 18.8205 L936.237 65.8515 L946.121 65.8515 Q958.638 65.8515 964.431 60.1802 Q970.264 54.509 970.264 42.2752 Q970.264 30.1225 964.431 24.4918 Q958.638 18.8205 946.121 18.8205 L936.237 18.8205 M928.054 12.096 L944.865 12.096 Q962.446 12.096 970.669 19.4281 Q978.893 26.7198 978.893 42.2752 Q978.893 57.9117 970.629 65.2439 Q962.365 72.576 944.865 72.576 L928.054 72.576 L928.054 12.096 Z" fill="#000000" fill-rule="nonzero" fill-opacity="1" /><path clip-path="url(#clip750)" d="M991.936 12.096 L1000.12 12.096 L1000.12 65.6895 L1029.57 65.6895 L1029.57 72.576 L991.936 72.576 L991.936 12.096 Z" fill="#000000" fill-rule="nonzero" fill-opacity="1" /><path clip-path="url(#clip750)" d="M1100.78 14.0809 L1100.78 22.0612 Q1096.13 19.8332 1091.99 18.7395 Q1087.86 17.6457 1084.01 17.6457 Q1077.33 17.6457 1073.68 20.2383 Q1070.08 22.8309 1070.08 27.611 Q1070.08 31.6214 1072.47 33.6873 Q1074.9 35.7128 1081.62 36.9686 L1086.57 37.9813 Q1095.72 39.7232 1100.06 44.1387 Q1104.43 48.5136 1104.43 55.8863 Q1104.43 64.6767 1098.52 69.2137 Q1092.64 73.7508 1081.26 73.7508 Q1076.96 73.7508 1072.1 72.7785 Q1067.28 71.8063 1062.1 69.9024 L1062.1 61.4765 Q1067.08 64.2716 1071.86 65.6895 Q1076.64 67.1073 1081.26 67.1073 Q1088.27 67.1073 1092.07 64.3527 Q1095.88 61.598 1095.88 56.4939 Q1095.88 52.0379 1093.13 49.5264 Q1090.41 47.0148 1084.18 45.759 L1079.19 44.7868 Q1070.04 42.9639 1065.95 39.075 Q1061.86 35.1862 1061.86 28.2591 Q1061.86 20.2383 1067.49 15.6203 Q1073.16 11.0023 1083.08 11.0023 Q1087.34 11.0023 1091.75 11.7719 Q1096.17 12.5416 1100.78 14.0809 Z" fill="#000000" fill-rule="nonzero" fill-opacity="1" /><path clip-path="url(#clip750)" d="M1154.58 45.1919 L1154.58 72.576 L1147.13 72.576 L1147.13 45.4349 Q1147.13 38.994 1144.62 35.7938 Q1142.1 32.5936 1137.08 32.5936 Q1131.04 32.5936 1127.56 36.4419 Q1124.08 40.2903 1124.08 46.9338 L1124.08 72.576 L1116.58 72.576 L1116.58 9.54393 L1124.08 9.54393 L1124.08 34.2544 Q1126.75 30.163 1130.36 28.1376 Q1134 26.1121 1138.74 26.1121 Q1146.56 26.1121 1150.57 30.9732 Q1154.58 35.7938 1154.58 45.1919 Z" fill="#000000" fill-rule="nonzero" fill-opacity="1" /><path clip-path="url(#clip750)" d="M1208.25 48.0275 L1208.25 51.6733 L1173.98 51.6733 Q1174.47 59.3701 1178.6 63.421 Q1182.77 67.4314 1190.19 67.4314 Q1194.48 67.4314 1198.49 66.3781 Q1202.54 65.3249 1206.51 63.2184 L1206.51 70.267 Q1202.5 71.9684 1198.29 72.8596 Q1194.08 73.7508 1189.74 73.7508 Q1178.89 73.7508 1172.53 67.4314 Q1166.21 61.1119 1166.21 50.3365 Q1166.21 39.1965 1172.2 32.6746 Q1178.24 26.1121 1188.45 26.1121 Q1197.6 26.1121 1202.91 32.0264 Q1208.25 37.9003 1208.25 48.0275 M1200.8 45.84 Q1200.72 39.7232 1197.36 36.0774 Q1194.04 32.4315 1188.53 32.4315 Q1182.29 32.4315 1178.52 35.9558 Q1174.79 39.4801 1174.23 45.8805 L1200.8 45.84 Z" fill="#000000" fill-rule="nonzero" fill-opacity="1" /><path clip-path="url(#clip750)" d="M1241.11 49.7694 Q1232.07 49.7694 1228.59 51.8354 Q1225.11 53.9013 1225.11 58.8839 Q1225.11 62.8538 1227.7 65.2034 Q1230.33 67.5124 1234.83 67.5124 Q1241.03 67.5124 1244.75 63.1374 Q1248.52 58.7219 1248.52 51.4303 L1248.52 49.7694 L1241.11 49.7694 M1255.97 46.6907 L1255.97 72.576 L1248.52 72.576 L1248.52 65.6895 Q1245.97 69.8214 1242.16 71.8063 Q1238.35 73.7508 1232.84 73.7508 Q1225.88 73.7508 1221.74 69.8619 Q1217.65 65.9325 1217.65 59.3701 Q1217.65 51.7138 1222.76 47.825 Q1227.9 43.9361 1238.07 43.9361 L1248.52 43.9361 L1248.52 43.2069 Q1248.52 38.0623 1245.12 35.2672 Q1241.76 32.4315 1235.64 32.4315 Q1231.75 32.4315 1228.06 33.3632 Q1224.38 34.295 1220.97 36.1584 L1220.97 29.2718 Q1225.07 27.692 1228.91 26.9223 Q1232.76 26.1121 1236.41 26.1121 Q1246.25 26.1121 1251.11 31.2163 Q1255.97 36.3204 1255.97 46.6907 Z" fill="#000000" fill-rule="nonzero" fill-opacity="1" /><path clip-path="url(#clip750)" d="M1297.62 34.1734 Q1296.36 33.4443 1294.86 33.1202 Q1293.4 32.7556 1291.62 32.7556 Q1285.3 32.7556 1281.9 36.8875 Q1278.54 40.9789 1278.54 48.6757 L1278.54 72.576 L1271.04 72.576 L1271.04 27.2059 L1278.54 27.2059 L1278.54 34.2544 Q1280.89 30.1225 1284.65 28.1376 Q1288.42 26.1121 1293.81 26.1121 Q1294.58 26.1121 1295.51 26.2337 Q1296.44 26.3147 1297.58 26.5172 L1297.62 34.1734 Z" fill="#000000" fill-rule="nonzero" fill-opacity="1" /><path clip-path="url(#clip750)" d="M1340.31 18.8205 L1340.31 65.8515 L1350.2 65.8515 Q1362.72 65.8515 1368.51 60.1802 Q1374.34 54.509 1374.34 42.2752 Q1374.34 30.1225 1368.51 24.4918 Q1362.72 18.8205 1350.2 18.8205 L1340.31 18.8205 M1332.13 12.096 L1348.94 12.096 Q1366.52 12.096 1374.75 19.4281 Q1382.97 26.7198 1382.97 42.2752 Q1382.97 57.9117 1374.71 65.2439 Q1366.44 72.576 1348.94 72.576 L1332.13 72.576 L1332.13 12.096 Z" fill="#000000" fill-rule="nonzero" fill-opacity="1" /><path clip-path="url(#clip750)" d="M1395.69 27.2059 L1403.14 27.2059 L1403.14 72.576 L1395.69 72.576 L1395.69 27.2059 M1395.69 9.54393 L1403.14 9.54393 L1403.14 18.9825 L1395.69 18.9825 L1395.69 9.54393 Z" fill="#000000" fill-rule="nonzero" fill-opacity="1" /><path clip-path="url(#clip750)" d="M1441.71 9.54393 L1441.71 15.7418 L1434.58 15.7418 Q1430.57 15.7418 1428.99 17.3622 Q1427.45 18.9825 1427.45 23.1955 L1427.45 27.2059 L1439.72 27.2059 L1439.72 32.9987 L1427.45 32.9987 L1427.45 72.576 L1419.95 72.576 L1419.95 32.9987 L1412.83 32.9987 L1412.83 27.2059 L1419.95 27.2059 L1419.95 24.0462 Q1419.95 16.471 1423.48 13.0277 Q1427 9.54393 1434.66 9.54393 L1441.71 9.54393 Z" fill="#000000" fill-rule="nonzero" fill-opacity="1" /><path clip-path="url(#clip750)" d="M1470.92 9.54393 L1470.92 15.7418 L1463.79 15.7418 Q1459.78 15.7418 1458.2 17.3622 Q1456.66 18.9825 1456.66 23.1955 L1456.66 27.2059 L1468.93 27.2059 L1468.93 32.9987 L1456.66 32.9987 L1456.66 72.576 L1449.16 72.576 L1449.16 32.9987 L1442.03 32.9987 L1442.03 27.2059 L1449.16 27.2059 L1449.16 24.0462 Q1449.16 16.471 1452.69 13.0277 Q1456.21 9.54393 1463.87 9.54393 L1470.92 9.54393 Z" fill="#000000" fill-rule="nonzero" fill-opacity="1" /><path clip-path="url(#clip750)" d="M1515.96 48.0275 L1515.96 51.6733 L1481.69 51.6733 Q1482.18 59.3701 1486.31 63.421 Q1490.48 67.4314 1497.89 67.4314 Q1502.19 67.4314 1506.2 66.3781 Q1510.25 65.3249 1514.22 63.2184 L1514.22 70.267 Q1510.21 71.9684 1506 72.8596 Q1501.78 73.7508 1497.45 73.7508 Q1486.59 73.7508 1480.23 67.4314 Q1473.91 61.1119 1473.91 50.3365 Q1473.91 39.1965 1479.91 32.6746 Q1485.94 26.1121 1496.15 26.1121 Q1505.31 26.1121 1510.61 32.0264 Q1515.96 37.9003 1515.96 48.0275 M1508.51 45.84 Q1508.43 39.7232 1505.06 36.0774 Q1501.74 32.4315 1496.23 32.4315 Q1490 32.4315 1486.23 35.9558 Q1482.5 39.4801 1481.93 45.8805 L1508.51 45.84 Z" fill="#000000" fill-rule="nonzero" fill-opacity="1" /><path clip-path="url(#clip750)" d="M1554.49 34.1734 Q1553.23 33.4443 1551.73 33.1202 Q1550.27 32.7556 1548.49 32.7556 Q1542.17 32.7556 1538.77 36.8875 Q1535.41 40.9789 1535.41 48.6757 L1535.41 72.576 L1527.91 72.576 L1527.91 27.2059 L1535.41 27.2059 L1535.41 34.2544 Q1537.76 30.1225 1541.52 28.1376 Q1545.29 26.1121 1550.68 26.1121 Q1551.45 26.1121 1552.38 26.2337 Q1553.31 26.3147 1554.45 26.5172 L1554.49 34.1734 Z" fill="#000000" fill-rule="nonzero" fill-opacity="1" /><path clip-path="url(#clip750)" d="M1599.29 48.0275 L1599.29 51.6733 L1565.02 51.6733 Q1565.5 59.3701 1569.64 63.421 Q1573.81 67.4314 1581.22 67.4314 Q1585.52 67.4314 1589.53 66.3781 Q1593.58 65.3249 1597.55 63.2184 L1597.55 70.267 Q1593.54 71.9684 1589.32 72.8596 Q1585.11 73.7508 1580.78 73.7508 Q1569.92 73.7508 1563.56 67.4314 Q1557.24 61.1119 1557.24 50.3365 Q1557.24 39.1965 1563.24 32.6746 Q1569.27 26.1121 1579.48 26.1121 Q1588.63 26.1121 1593.94 32.0264 Q1599.29 37.9003 1599.29 48.0275 M1591.83 45.84 Q1591.75 39.7232 1588.39 36.0774 Q1585.07 32.4315 1579.56 32.4315 Q1573.32 32.4315 1569.55 35.9558 Q1565.83 39.4801 1565.26 45.8805 L1591.83 45.84 Z" fill="#000000" fill-rule="nonzero" fill-opacity="1" /><path clip-path="url(#clip750)" d="M1649.24 45.1919 L1649.24 72.576 L1641.78 72.576 L1641.78 45.4349 Q1641.78 38.994 1639.27 35.7938 Q1636.76 32.5936 1631.74 32.5936 Q1625.7 32.5936 1622.22 36.4419 Q1618.73 40.2903 1618.73 46.9338 L1618.73 72.576 L1611.24 72.576 L1611.24 27.2059 L1618.73 27.2059 L1618.73 34.2544 Q1621.41 30.163 1625.01 28.1376 Q1628.66 26.1121 1633.4 26.1121 Q1641.22 26.1121 1645.23 30.9732 Q1649.24 35.7938 1649.24 45.1919 Z" fill="#000000" fill-rule="nonzero" fill-opacity="1" /><path clip-path="url(#clip750)" d="M1696.75 28.9478 L1696.75 35.9153 Q1693.59 34.1734 1690.39 33.3227 Q1687.23 32.4315 1683.99 32.4315 Q1676.74 32.4315 1672.73 37.0496 Q1668.72 41.6271 1668.72 49.9314 Q1668.72 58.2358 1672.73 62.8538 Q1676.74 67.4314 1683.99 67.4314 Q1687.23 67.4314 1690.39 66.5807 Q1693.59 65.6895 1696.75 63.9476 L1696.75 70.8341 Q1693.63 72.2924 1690.27 73.0216 Q1686.95 73.7508 1683.18 73.7508 Q1672.93 73.7508 1666.9 67.3098 Q1660.86 60.8689 1660.86 49.9314 Q1660.86 38.832 1666.94 32.472 Q1673.06 26.1121 1683.67 26.1121 Q1687.11 26.1121 1690.39 26.8413 Q1693.67 27.5299 1696.75 28.9478 Z" fill="#000000" fill-rule="nonzero" fill-opacity="1" /><path clip-path="url(#clip750)" d="M1748.52 48.0275 L1748.52 51.6733 L1714.25 51.6733 Q1714.74 59.3701 1718.87 63.421 Q1723.04 67.4314 1730.46 67.4314 Q1734.75 67.4314 1738.76 66.3781 Q1742.81 65.3249 1746.78 63.2184 L1746.78 70.267 Q1742.77 71.9684 1738.56 72.8596 Q1734.35 73.7508 1730.01 73.7508 Q1719.15 73.7508 1712.79 67.4314 Q1706.48 61.1119 1706.48 50.3365 Q1706.48 39.1965 1712.47 32.6746 Q1718.51 26.1121 1728.71 26.1121 Q1737.87 26.1121 1743.18 32.0264 Q1748.52 37.9003 1748.52 48.0275 M1741.07 45.84 Q1740.99 39.7232 1737.63 36.0774 Q1734.31 32.4315 1728.8 32.4315 Q1722.56 32.4315 1718.79 35.9558 Q1715.06 39.4801 1714.5 45.8805 L1741.07 45.84 Z" fill="#000000" fill-rule="nonzero" fill-opacity="1" /><path clip-path="url(#clip752)" d="M277.515 132.252 L301.623 130.9 L325.732 130.82 L349.84 131.164 L373.949 419.494 L398.057 131.159 L422.166 131.079 L446.274 130.999 L470.383 631.368 L494.491 130.814 L518.6 130.734 L542.708 130.654 L566.817 130.998 L590.925 130.919 L615.034 130.839 L639.142 130.759 L663.251 130.68 L687.359 130.6 L711.468 130.944 L735.576 130.864 L759.685 461.607 L783.793 130.938 L807.902 130.859 L832.01 130.779 L856.119 130.699 L880.227 130.619 L904.336 130.964 L928.444 130.884 L952.553 130.804 L976.661 130.724 L1000.77 130.645 L1024.88 130.989 L1048.99 675.863 L1073.1 131.199 L1097.2 131.119 L1121.31 131.04 L1145.42 461.782 L1169.53 131.113 L1193.64 131.034 L1217.75 130.954 L1241.85 130.874 L1265.96 130.794 L1290.07 131.139 L1314.18 131.059 L1338.29 130.979 L1362.4 130.9 L1386.51 130.82 L1410.61 131.164 L1434.72 131.084 L1458.83 131.005 L1482.94 130.925 L1507.05 130.845 L1531.16 462.012 L1555.27 130.919 L1579.37 130.839 L1603.48 130.76 L1627.59 675.634 L1651.7 130.969 L1675.81 131.314 L1699.92 131.234 L1724.02 131.154 L1748.13 131.075 L1772.24 130.995 L1796.35 131.339 L1820.46 131.26 L1844.57 131.18 L1868.68 131.1 L1892.78 131.02 L1916.89 462.187 L1941 131.094 L1965.11 131.014 L1989.22 131.359 L2013.33 131.279 L2037.44 131.199 L2061.54 131.12 L2085.65 131.04 L2109.76 130.96 L2133.87 131.305 L2157.98 131.225 L2182.09 131.145 L2206.19 631.514 L2230.3 130.96 L2254.41 130.88 L2278.52 130.8 L2302.63 419.13 L2326.74 130.794 L2350.85 131.139 L2374.95 131.059 L2399.06 129.707 L2399.06 130.979 L2374.95 130.979 L2350.85 130.979 L2326.74 130.979 L2302.63 130.979 L2278.52 130.979 L2254.41 130.979 L2230.3 130.979 L2206.19 130.979 L2182.09 130.979 L2157.98 130.979 L2133.87 130.979 L2109.76 130.979 L2085.65 130.979 L2061.54 130.979 L2037.44 130.979 L2013.33 130.979 L1989.22 130.979 L1965.11 130.979 L1941 130.979 L1916.89 130.979 L1892.78 130.979 L1868.68 130.979 L1844.57 130.979 L1820.46 130.979 L1796.35 130.979 L1772.24 130.979 L1748.13 130.979 L1724.02 130.979 L1699.92 130.979 L1675.81 130.979 L1651.7 130.979 L1627.59 130.979 L1603.48 130.979 L1579.37 130.979 L1555.27 130.979 L1531.16 130.979 L1507.05 130.979 L1482.94 130.979 L1458.83 130.979 L1434.72 130.979 L1410.61 130.979 L1386.51 130.979 L1362.4 130.979 L1338.29 130.979 L1314.18 130.979 L1290.07 130.979 L1265.96 130.979 L1241.85 130.979 L1217.75 130.979 L1193.64 130.979 L1169.53 130.979 L1145.42 130.979 L1121.31 130.979 L1097.2 130.979 L1073.1 130.979 L1048.99 130.979 L1024.88 130.979 L1000.77 130.979 L976.661 130.979 L952.553 130.979 L928.444 130.979 L904.336 130.979 L880.227 130.979 L856.119 130.979 L832.01 130.979 L807.902 130.979 L783.793 130.979 L759.685 130.979 L735.576 130.979 L711.468 130.979 L687.359 130.979 L663.251 130.979 L639.142 130.979 L615.034 130.979 L590.925 130.979 L566.817 130.979 L542.708 130.979 L518.6 130.979 L494.491 130.979 L470.383 130.979 L446.274 130.979 L422.166 130.979 L398.057 130.979 L373.949 130.979 L349.84 130.979 L325.732 130.979 L301.623 130.979 L277.515 130.979  Z" fill="#0000ff" fill-rule="evenodd" fill-opacity="0.5"/>
<polyline clip-path="url(#clip752)" style="stroke:#0000ff; stroke-linecap:round; stroke-linejoin:round; stroke-width:4; stroke-opacity:1; fill:none" points="277.515,132.252 301.623,130.9 325.732,130.82 349.84,131.164 373.949,419.494 398.057,131.159 422.166,131.079 446.274,130.999 470.383,631.368 494.491,130.814 518.6,130.734 542.708,130.654 566.817,130.998 590.925,130.919 615.034,130.839 639.142,130.759 663.251,130.68 687.359,130.6 711.468,130.944 735.576,130.864 759.685,461.607 783.793,130.938 807.902,130.859 832.01,130.779 856.119,130.699 880.227,130.619 904.336,130.964 928.444,130.884 952.553,130.804 976.661,130.724 1000.77,130.645 1024.88,130.989 1048.99,675.863 1073.1,131.199 1097.2,131.119 1121.31,131.04 1145.42,461.782 1169.53,131.113 1193.64,131.034 1217.75,130.954 1241.85,130.874 1265.96,130.794 1290.07,131.139 1314.18,131.059 1338.29,130.979 1362.4,130.9 1386.51,130.82 1410.61,131.164 1434.72,131.084 1458.83,131.005 1482.94,130.925 1507.05,130.845 1531.16,462.012 1555.27,130.919 1579.37,130.839 1603.48,130.76 1627.59,675.634 1651.7,130.969 1675.81,131.314 1699.92,131.234 1724.02,131.154 1748.13,131.075 1772.24,130.995 1796.35,131.339 1820.46,131.26 1844.57,131.18 1868.68,131.1 1892.78,131.02 1916.89,462.187 1941,131.094 1965.11,131.014 1989.22,131.359 2013.33,131.279 2037.44,131.199 2061.54,131.12 2085.65,131.04 2109.76,130.96 2133.87,131.305 2157.98,131.225 2182.09,131.145 2206.19,631.514 2230.3,130.96 2254.41,130.88 2278.52,130.8 2302.63,419.13 2326.74,130.794 2350.85,131.139 2374.95,131.059 2399.06,129.707 "/>
<path clip-path="url(#clip750)" d="M2550.14 236.3 L2836.76 236.3 L2836.76 132.62 L2550.14 132.62  Z" fill="#ffffff" fill-rule="evenodd" fill-opacity="1"/>
<polyline clip-path="url(#clip750)" style="stroke:#000000; stroke-linecap:round; stroke-linejoin:round; stroke-width:4; stroke-opacity:1; fill:none" points="2550.14,236.3 2836.76,236.3 2836.76,132.62 2550.14,132.62 2550.14,236.3 "/>
<path clip-path="url(#clip750)" d="M2579.28 205.196 L2754.14 205.196 L2754.14 163.724 L2579.28 163.724 L2579.28 205.196  Z" fill="#0000ff" fill-rule="evenodd" fill-opacity="0.5"/>
<polyline clip-path="url(#clip750)" style="stroke:#0000ff; stroke-linecap:round; stroke-linejoin:round; stroke-width:4; stroke-opacity:1; fill:none" points="2579.28,163.724 2754.14,163.724 "/>
<path clip-path="url(#clip750)" d="M2805.53 168.314 L2805.53 172.874 Q2802.87 171.601 2800.51 170.976 Q2798.15 170.351 2795.95 170.351 Q2792.13 170.351 2790.04 171.832 Q2787.98 173.314 2787.98 176.045 Q2787.98 178.337 2789.35 179.518 Q2790.74 180.675 2794.58 181.393 L2797.4 181.971 Q2802.64 182.967 2805.11 185.49 Q2807.61 187.99 2807.61 192.203 Q2807.61 197.226 2804.23 199.818 Q2800.88 202.411 2794.37 202.411 Q2791.92 202.411 2789.14 201.855 Q2786.39 201.3 2783.42 200.212 L2783.42 195.397 Q2786.27 196.994 2789 197.805 Q2791.73 198.615 2794.37 198.615 Q2798.38 198.615 2800.55 197.041 Q2802.73 195.467 2802.73 192.55 Q2802.73 190.004 2801.15 188.569 Q2799.6 187.133 2796.04 186.416 L2793.19 185.86 Q2787.96 184.819 2785.62 182.596 Q2783.28 180.374 2783.28 176.416 Q2783.28 171.832 2786.5 169.194 Q2789.74 166.555 2795.41 166.555 Q2797.84 166.555 2800.37 166.995 Q2802.89 167.434 2805.53 168.314 Z" fill="#000000" fill-rule="nonzero" fill-opacity="1" /><path clip-path="url(#clip750)" d="M213.869 1492.25 L2455.42 1492.25 L2455.42 913.322 L213.869 913.322  Z" fill="#ffffff" fill-rule="evenodd" fill-opacity="1"/>
<defs>
  <clipPath id="clip753">
    <rect x="213" y="913" width="2243" height="580"/>
  </clipPath>
</defs>
<polyline clip-path="url(#clip753)" style="stroke:#000000; stroke-linecap:round; stroke-linejoin:round; stroke-width:2; stroke-opacity:0.1; fill:none" points="277.309,1492.25 277.309,913.322 "/>
<polyline clip-path="url(#clip753)" style="stroke:#000000; stroke-linecap:round; stroke-linejoin:round; stroke-width:2; stroke-opacity:0.1; fill:none" points="757.915,1492.25 757.915,913.322 "/>
<polyline clip-path="url(#clip753)" style="stroke:#000000; stroke-linecap:round; stroke-linejoin:round; stroke-width:2; stroke-opacity:0.1; fill:none" points="1238.52,1492.25 1238.52,913.322 "/>
<polyline clip-path="url(#clip753)" style="stroke:#000000; stroke-linecap:round; stroke-linejoin:round; stroke-width:2; stroke-opacity:0.1; fill:none" points="1719.13,1492.25 1719.13,913.322 "/>
<polyline clip-path="url(#clip753)" style="stroke:#000000; stroke-linecap:round; stroke-linejoin:round; stroke-width:2; stroke-opacity:0.1; fill:none" points="2199.73,1492.25 2199.73,913.322 "/>
<polyline clip-path="url(#clip753)" style="stroke:#000000; stroke-linecap:round; stroke-linejoin:round; stroke-width:2; stroke-opacity:0.1; fill:none" points="213.869,1434.8 2455.42,1434.8 "/>
<polyline clip-path="url(#clip753)" style="stroke:#000000; stroke-linecap:round; stroke-linejoin:round; stroke-width:2; stroke-opacity:0.1; fill:none" points="213.869,1344.16 2455.42,1344.16 "/>
<polyline clip-path="url(#clip753)" style="stroke:#000000; stroke-linecap:round; stroke-linejoin:round; stroke-width:2; stroke-opacity:0.1; fill:none" points="213.869,1253.53 2455.42,1253.53 "/>
<polyline clip-path="url(#clip753)" style="stroke:#000000; stroke-linecap:round; stroke-linejoin:round; stroke-width:2; stroke-opacity:0.1; fill:none" points="213.869,1162.89 2455.42,1162.89 "/>
<polyline clip-path="url(#clip753)" style="stroke:#000000; stroke-linecap:round; stroke-linejoin:round; stroke-width:2; stroke-opacity:0.1; fill:none" points="213.869,1072.25 2455.42,1072.25 "/>
<polyline clip-path="url(#clip753)" style="stroke:#000000; stroke-linecap:round; stroke-linejoin:round; stroke-width:2; stroke-opacity:0.1; fill:none" points="213.869,981.608 2455.42,981.608 "/>
<polyline clip-path="url(#clip750)" style="stroke:#000000; stroke-linecap:round; stroke-linejoin:round; stroke-width:4; stroke-opacity:1; fill:none" points="213.869,1492.25 2455.42,1492.25 "/>
<polyline clip-path="url(#clip750)" style="stroke:#000000; stroke-linecap:round; stroke-linejoin:round; stroke-width:4; stroke-opacity:1; fill:none" points="277.309,1492.25 277.309,1473.35 "/>
<polyline clip-path="url(#clip750)" style="stroke:#000000; stroke-linecap:round; stroke-linejoin:round; stroke-width:4; stroke-opacity:1; fill:none" points="757.915,1492.25 757.915,1473.35 "/>
<polyline clip-path="url(#clip750)" style="stroke:#000000; stroke-linecap:round; stroke-linejoin:round; stroke-width:4; stroke-opacity:1; fill:none" points="1238.52,1492.25 1238.52,1473.35 "/>
<polyline clip-path="url(#clip750)" style="stroke:#000000; stroke-linecap:round; stroke-linejoin:round; stroke-width:4; stroke-opacity:1; fill:none" points="1719.13,1492.25 1719.13,1473.35 "/>
<polyline clip-path="url(#clip750)" style="stroke:#000000; stroke-linecap:round; stroke-linejoin:round; stroke-width:4; stroke-opacity:1; fill:none" points="2199.73,1492.25 2199.73,1473.35 "/>
<path clip-path="url(#clip750)" d="M277.309 1527.04 Q273.697 1527.04 271.869 1530.6 Q270.063 1534.14 270.063 1541.27 Q270.063 1548.38 271.869 1551.95 Q273.697 1555.49 277.309 1555.49 Q280.943 1555.49 282.748 1551.95 Q284.577 1548.38 284.577 1541.27 Q284.577 1534.14 282.748 1530.6 Q280.943 1527.04 277.309 1527.04 M277.309 1523.33 Q283.119 1523.33 286.174 1527.94 Q289.253 1532.52 289.253 1541.27 Q289.253 1550 286.174 1554.61 Q283.119 1559.19 277.309 1559.19 Q271.498 1559.19 268.42 1554.61 Q265.364 1550 265.364 1541.27 Q265.364 1532.52 268.42 1527.94 Q271.498 1523.33 277.309 1523.33 Z" fill="#000000" fill-rule="nonzero" fill-opacity="1" /><path clip-path="url(#clip750)" d="M732.603 1554.58 L740.242 1554.58 L740.242 1528.22 L731.931 1529.89 L731.931 1525.63 L740.195 1523.96 L744.871 1523.96 L744.871 1554.58 L752.51 1554.58 L752.51 1558.52 L732.603 1558.52 L732.603 1554.58 Z" fill="#000000" fill-rule="nonzero" fill-opacity="1" /><path clip-path="url(#clip750)" d="M771.954 1527.04 Q768.343 1527.04 766.515 1530.6 Q764.709 1534.14 764.709 1541.27 Q764.709 1548.38 766.515 1551.95 Q768.343 1555.49 771.954 1555.49 Q775.589 1555.49 777.394 1551.95 Q779.223 1548.38 779.223 1541.27 Q779.223 1534.14 777.394 1530.6 Q775.589 1527.04 771.954 1527.04 M771.954 1523.33 Q777.765 1523.33 780.82 1527.94 Q783.899 1532.52 783.899 1541.27 Q783.899 1550 780.82 1554.61 Q777.765 1559.19 771.954 1559.19 Q766.144 1559.19 763.066 1554.61 Q760.01 1550 760.01 1541.27 Q760.01 1532.52 763.066 1527.94 Q766.144 1523.33 771.954 1523.33 Z" fill="#000000" fill-rule="nonzero" fill-opacity="1" /><path clip-path="url(#clip750)" d="M1217.29 1554.58 L1233.61 1554.58 L1233.61 1558.52 L1211.67 1558.52 L1211.67 1554.58 Q1214.33 1551.83 1218.92 1547.2 Q1223.52 1542.55 1224.7 1541.21 Q1226.95 1538.68 1227.83 1536.95 Q1228.73 1535.19 1228.73 1533.5 Q1228.73 1530.74 1226.79 1529.01 Q1224.86 1527.27 1221.76 1527.27 Q1219.56 1527.27 1217.11 1528.03 Q1214.68 1528.8 1211.9 1530.35 L1211.9 1525.63 Q1214.73 1524.49 1217.18 1523.91 Q1219.63 1523.33 1221.67 1523.33 Q1227.04 1523.33 1230.23 1526.02 Q1233.43 1528.71 1233.43 1533.2 Q1233.43 1535.33 1232.62 1537.25 Q1231.83 1539.14 1229.73 1541.74 Q1229.15 1542.41 1226.04 1545.63 Q1222.94 1548.82 1217.29 1554.58 Z" fill="#000000" fill-rule="nonzero" fill-opacity="1" /><path clip-path="url(#clip750)" d="M1253.43 1527.04 Q1249.82 1527.04 1247.99 1530.6 Q1246.18 1534.14 1246.18 1541.27 Q1246.18 1548.38 1247.99 1551.95 Q1249.82 1555.49 1253.43 1555.49 Q1257.06 1555.49 1258.87 1551.95 Q1260.7 1548.38 1260.7 1541.27 Q1260.7 1534.14 1258.87 1530.6 Q1257.06 1527.04 1253.43 1527.04 M1253.43 1523.33 Q1259.24 1523.33 1262.29 1527.94 Q1265.37 1532.52 1265.37 1541.27 Q1265.37 1550 1262.29 1554.61 Q1259.24 1559.19 1253.43 1559.19 Q1247.62 1559.19 1244.54 1554.61 Q1241.48 1550 1241.48 1541.27 Q1241.48 1532.52 1244.54 1527.94 Q1247.62 1523.33 1253.43 1523.33 Z" fill="#000000" fill-rule="nonzero" fill-opacity="1" /><path clip-path="url(#clip750)" d="M1707.97 1539.89 Q1711.33 1540.6 1713.2 1542.87 Q1715.1 1545.14 1715.1 1548.47 Q1715.1 1553.59 1711.58 1556.39 Q1708.06 1559.19 1701.58 1559.19 Q1699.41 1559.19 1697.09 1558.75 Q1694.8 1558.33 1692.35 1557.48 L1692.35 1552.96 Q1694.29 1554.1 1696.61 1554.68 Q1698.92 1555.26 1701.44 1555.26 Q1705.84 1555.26 1708.13 1553.52 Q1710.45 1551.78 1710.45 1548.47 Q1710.45 1545.42 1708.29 1543.71 Q1706.17 1541.97 1702.35 1541.97 L1698.32 1541.97 L1698.32 1538.13 L1702.53 1538.13 Q1705.98 1538.13 1707.81 1536.76 Q1709.64 1535.37 1709.64 1532.78 Q1709.64 1530.12 1707.74 1528.71 Q1705.86 1527.27 1702.35 1527.27 Q1700.42 1527.27 1698.23 1527.69 Q1696.03 1528.1 1693.39 1528.98 L1693.39 1524.82 Q1696.05 1524.08 1698.36 1523.71 Q1700.7 1523.33 1702.76 1523.33 Q1708.09 1523.33 1711.19 1525.77 Q1714.29 1528.17 1714.29 1532.29 Q1714.29 1535.16 1712.65 1537.15 Q1711 1539.12 1707.97 1539.89 Z" fill="#000000" fill-rule="nonzero" fill-opacity="1" /><path clip-path="url(#clip750)" d="M1733.97 1527.04 Q1730.35 1527.04 1728.53 1530.6 Q1726.72 1534.14 1726.72 1541.27 Q1726.72 1548.38 1728.53 1551.95 Q1730.35 1555.49 1733.97 1555.49 Q1737.6 1555.49 1739.41 1551.95 Q1741.23 1548.38 1741.23 1541.27 Q1741.23 1534.14 1739.41 1530.6 Q1737.6 1527.04 1733.97 1527.04 M1733.97 1523.33 Q1739.78 1523.33 1742.83 1527.94 Q1745.91 1532.52 1745.91 1541.27 Q1745.91 1550 1742.83 1554.61 Q1739.78 1559.19 1733.97 1559.19 Q1728.16 1559.19 1725.08 1554.61 Q1722.02 1550 1722.02 1541.27 Q1722.02 1532.52 1725.08 1527.94 Q1728.16 1523.33 1733.97 1523.33 Z" fill="#000000" fill-rule="nonzero" fill-opacity="1" /><path clip-path="url(#clip750)" d="M2187.91 1528.03 L2176.1 1546.48 L2187.91 1546.48 L2187.91 1528.03 M2186.68 1523.96 L2192.56 1523.96 L2192.56 1546.48 L2197.49 1546.48 L2197.49 1550.37 L2192.56 1550.37 L2192.56 1558.52 L2187.91 1558.52 L2187.91 1550.37 L2172.3 1550.37 L2172.3 1545.86 L2186.68 1523.96 Z" fill="#000000" fill-rule="nonzero" fill-opacity="1" /><path clip-path="url(#clip750)" d="M2215.22 1527.04 Q2211.61 1527.04 2209.78 1530.6 Q2207.98 1534.14 2207.98 1541.27 Q2207.98 1548.38 2209.78 1551.95 Q2211.61 1555.49 2215.22 1555.49 Q2218.85 1555.49 2220.66 1551.95 Q2222.49 1548.38 2222.49 1541.27 Q2222.49 1534.14 2220.66 1530.6 Q2218.85 1527.04 2215.22 1527.04 M2215.22 1523.33 Q2221.03 1523.33 2224.09 1527.94 Q2227.17 1532.52 2227.17 1541.27 Q2227.17 1550 2224.09 1554.61 Q2221.03 1559.19 2215.22 1559.19 Q2209.41 1559.19 2206.33 1554.61 Q2203.28 1550 2203.28 1541.27 Q2203.28 1532.52 2206.33 1527.94 Q2209.41 1523.33 2215.22 1523.33 Z" fill="#000000" fill-rule="nonzero" fill-opacity="1" /><polyline clip-path="url(#clip750)" style="stroke:#000000; stroke-linecap:round; stroke-linejoin:round; stroke-width:4; stroke-opacity:1; fill:none" points="213.869,1492.25 213.869,913.322 "/>
<polyline clip-path="url(#clip750)" style="stroke:#000000; stroke-linecap:round; stroke-linejoin:round; stroke-width:4; stroke-opacity:1; fill:none" points="213.869,1434.8 230.019,1434.8 "/>
<polyline clip-path="url(#clip750)" style="stroke:#000000; stroke-linecap:round; stroke-linejoin:round; stroke-width:4; stroke-opacity:1; fill:none" points="213.869,1344.16 230.019,1344.16 "/>
<polyline clip-path="url(#clip750)" style="stroke:#000000; stroke-linecap:round; stroke-linejoin:round; stroke-width:4; stroke-opacity:1; fill:none" points="213.869,1253.53 230.019,1253.53 "/>
<polyline clip-path="url(#clip750)" style="stroke:#000000; stroke-linecap:round; stroke-linejoin:round; stroke-width:4; stroke-opacity:1; fill:none" points="213.869,1162.89 230.019,1162.89 "/>
<polyline clip-path="url(#clip750)" style="stroke:#000000; stroke-linecap:round; stroke-linejoin:round; stroke-width:4; stroke-opacity:1; fill:none" points="213.869,1072.25 230.019,1072.25 "/>
<polyline clip-path="url(#clip750)" style="stroke:#000000; stroke-linecap:round; stroke-linejoin:round; stroke-width:4; stroke-opacity:1; fill:none" points="213.869,981.608 230.019,981.608 "/>
<path clip-path="url(#clip750)" d="M113.433 1420.6 Q109.822 1420.6 107.993 1424.17 Q106.188 1427.71 106.188 1434.84 Q106.188 1441.94 107.993 1445.51 Q109.822 1449.05 113.433 1449.05 Q117.067 1449.05 118.873 1445.51 Q120.701 1441.94 120.701 1434.84 Q120.701 1427.71 118.873 1424.17 Q117.067 1420.6 113.433 1420.6 M113.433 1416.9 Q119.243 1416.9 122.299 1421.51 Q125.377 1426.09 125.377 1434.84 Q125.377 1443.57 122.299 1448.17 Q119.243 1452.75 113.433 1452.75 Q107.623 1452.75 104.544 1448.17 Q101.489 1443.57 101.489 1434.84 Q101.489 1426.09 104.544 1421.51 Q107.623 1416.9 113.433 1416.9 Z" fill="#000000" fill-rule="nonzero" fill-opacity="1" /><path clip-path="url(#clip750)" d="M133.595 1446.2 L138.479 1446.2 L138.479 1452.08 L133.595 1452.08 L133.595 1446.2 Z" fill="#000000" fill-rule="nonzero" fill-opacity="1" /><path clip-path="url(#clip750)" d="M158.664 1420.6 Q155.053 1420.6 153.224 1424.17 Q151.419 1427.71 151.419 1434.84 Q151.419 1441.94 153.224 1445.51 Q155.053 1449.05 158.664 1449.05 Q162.298 1449.05 164.104 1445.51 Q165.933 1441.94 165.933 1434.84 Q165.933 1427.71 164.104 1424.17 Q162.298 1420.6 158.664 1420.6 M158.664 1416.9 Q164.474 1416.9 167.53 1421.51 Q170.609 1426.09 170.609 1434.84 Q170.609 1443.57 167.53 1448.17 Q164.474 1452.75 158.664 1452.75 Q152.854 1452.75 149.775 1448.17 Q146.72 1443.57 146.72 1434.84 Q146.72 1426.09 149.775 1421.51 Q152.854 1416.9 158.664 1416.9 Z" fill="#000000" fill-rule="nonzero" fill-opacity="1" /><path clip-path="url(#clip750)" d="M114.66 1329.96 Q111.049 1329.96 109.22 1333.53 Q107.414 1337.07 107.414 1344.2 Q107.414 1351.31 109.22 1354.87 Q111.049 1358.41 114.66 1358.41 Q118.294 1358.41 120.1 1354.87 Q121.928 1351.31 121.928 1344.2 Q121.928 1337.07 120.1 1333.53 Q118.294 1329.96 114.66 1329.96 M114.66 1326.26 Q120.47 1326.26 123.525 1330.87 Q126.604 1335.45 126.604 1344.2 Q126.604 1352.93 123.525 1357.53 Q120.47 1362.12 114.66 1362.12 Q108.85 1362.12 105.771 1357.53 Q102.715 1352.93 102.715 1344.2 Q102.715 1335.45 105.771 1330.87 Q108.85 1326.26 114.66 1326.26 Z" fill="#000000" fill-rule="nonzero" fill-opacity="1" /><path clip-path="url(#clip750)" d="M134.822 1355.56 L139.706 1355.56 L139.706 1361.44 L134.822 1361.44 L134.822 1355.56 Z" fill="#000000" fill-rule="nonzero" fill-opacity="1" /><path clip-path="url(#clip750)" d="M150.701 1357.51 L158.34 1357.51 L158.34 1331.14 L150.03 1332.81 L150.03 1328.55 L158.294 1326.88 L162.97 1326.88 L162.97 1357.51 L170.609 1357.51 L170.609 1361.44 L150.701 1361.44 L150.701 1357.51 Z" fill="#000000" fill-rule="nonzero" fill-opacity="1" /><path clip-path="url(#clip750)" d="M115.03 1239.32 Q111.419 1239.32 109.59 1242.89 Q107.785 1246.43 107.785 1253.56 Q107.785 1260.67 109.59 1264.23 Q111.419 1267.77 115.03 1267.77 Q118.664 1267.77 120.47 1264.23 Q122.299 1260.67 122.299 1253.56 Q122.299 1246.43 120.47 1242.89 Q118.664 1239.32 115.03 1239.32 M115.03 1235.62 Q120.84 1235.62 123.896 1240.23 Q126.974 1244.81 126.974 1253.56 Q126.974 1262.29 123.896 1266.89 Q120.84 1271.48 115.03 1271.48 Q109.22 1271.48 106.141 1266.89 Q103.086 1262.29 103.086 1253.56 Q103.086 1244.81 106.141 1240.23 Q109.22 1235.62 115.03 1235.62 Z" fill="#000000" fill-rule="nonzero" fill-opacity="1" /><path clip-path="url(#clip750)" d="M135.192 1264.93 L140.076 1264.93 L140.076 1270.81 L135.192 1270.81 L135.192 1264.93 Z" fill="#000000" fill-rule="nonzero" fill-opacity="1" /><path clip-path="url(#clip750)" d="M154.289 1266.87 L170.609 1266.87 L170.609 1270.81 L148.664 1270.81 L148.664 1266.87 Q151.326 1264.12 155.91 1259.49 Q160.516 1254.83 161.697 1253.49 Q163.942 1250.97 164.822 1249.23 Q165.724 1247.47 165.724 1245.78 Q165.724 1243.03 163.78 1241.29 Q161.859 1239.56 158.757 1239.56 Q156.558 1239.56 154.104 1240.32 Q151.673 1241.08 148.896 1242.63 L148.896 1237.91 Q151.72 1236.78 154.173 1236.2 Q156.627 1235.62 158.664 1235.62 Q164.034 1235.62 167.229 1238.31 Q170.423 1240.99 170.423 1245.48 Q170.423 1247.61 169.613 1249.53 Q168.826 1251.43 166.72 1254.02 Q166.141 1254.69 163.039 1257.91 Q159.937 1261.11 154.289 1266.87 Z" fill="#000000" fill-rule="nonzero" fill-opacity="1" /><path clip-path="url(#clip750)" d="M114.081 1148.68 Q110.47 1148.68 108.641 1152.25 Q106.836 1155.79 106.836 1162.92 Q106.836 1170.03 108.641 1173.59 Q110.47 1177.13 114.081 1177.13 Q117.715 1177.13 119.521 1173.59 Q121.35 1170.03 121.35 1162.92 Q121.35 1155.79 119.521 1152.25 Q117.715 1148.68 114.081 1148.68 M114.081 1144.98 Q119.891 1144.98 122.947 1149.59 Q126.025 1154.17 126.025 1162.92 Q126.025 1171.65 122.947 1176.25 Q119.891 1180.84 114.081 1180.84 Q108.271 1180.84 105.192 1176.25 Q102.137 1171.65 102.137 1162.92 Q102.137 1154.17 105.192 1149.59 Q108.271 1144.98 114.081 1144.98 Z" fill="#000000" fill-rule="nonzero" fill-opacity="1" /><path clip-path="url(#clip750)" d="M134.243 1174.29 L139.127 1174.29 L139.127 1180.17 L134.243 1180.17 L134.243 1174.29 Z" fill="#000000" fill-rule="nonzero" fill-opacity="1" /><path clip-path="url(#clip750)" d="M163.479 1161.53 Q166.835 1162.25 168.71 1164.52 Q170.609 1166.79 170.609 1170.12 Q170.609 1175.24 167.09 1178.04 Q163.572 1180.84 157.09 1180.84 Q154.914 1180.84 152.599 1180.4 Q150.308 1179.98 147.854 1179.12 L147.854 1174.61 Q149.798 1175.74 152.113 1176.32 Q154.428 1176.9 156.951 1176.9 Q161.349 1176.9 163.641 1175.17 Q165.956 1173.43 165.956 1170.12 Q165.956 1167.06 163.803 1165.35 Q161.673 1163.62 157.854 1163.62 L153.826 1163.62 L153.826 1159.77 L158.039 1159.77 Q161.488 1159.77 163.317 1158.41 Q165.146 1157.02 165.146 1154.43 Q165.146 1151.76 163.247 1150.35 Q161.372 1148.92 157.854 1148.92 Q155.933 1148.92 153.734 1149.33 Q151.535 1149.75 148.896 1150.63 L148.896 1146.46 Q151.558 1145.72 153.872 1145.35 Q156.21 1144.98 158.271 1144.98 Q163.595 1144.98 166.696 1147.41 Q169.798 1149.82 169.798 1153.94 Q169.798 1156.81 168.155 1158.8 Q166.511 1160.77 163.479 1161.53 Z" fill="#000000" fill-rule="nonzero" fill-opacity="1" /><path clip-path="url(#clip750)" d="M112.947 1058.05 Q109.336 1058.05 107.507 1061.61 Q105.701 1065.15 105.701 1072.28 Q105.701 1079.39 107.507 1082.95 Q109.336 1086.49 112.947 1086.49 Q116.581 1086.49 118.387 1082.95 Q120.215 1079.39 120.215 1072.28 Q120.215 1065.15 118.387 1061.61 Q116.581 1058.05 112.947 1058.05 M112.947 1054.34 Q118.757 1054.34 121.812 1058.95 Q124.891 1063.53 124.891 1072.28 Q124.891 1081.01 121.812 1085.61 Q118.757 1090.2 112.947 1090.2 Q107.137 1090.2 104.058 1085.61 Q101.002 1081.01 101.002 1072.28 Q101.002 1063.53 104.058 1058.95 Q107.137 1054.34 112.947 1054.34 Z" fill="#000000" fill-rule="nonzero" fill-opacity="1" /><path clip-path="url(#clip750)" d="M133.109 1083.65 L137.993 1083.65 L137.993 1089.53 L133.109 1089.53 L133.109 1083.65 Z" fill="#000000" fill-rule="nonzero" fill-opacity="1" /><path clip-path="url(#clip750)" d="M161.025 1059.04 L149.22 1077.49 L161.025 1077.49 L161.025 1059.04 M159.798 1054.97 L165.678 1054.97 L165.678 1077.49 L170.609 1077.49 L170.609 1081.38 L165.678 1081.38 L165.678 1089.53 L161.025 1089.53 L161.025 1081.38 L145.423 1081.38 L145.423 1076.87 L159.798 1054.97 Z" fill="#000000" fill-rule="nonzero" fill-opacity="1" /><path clip-path="url(#clip750)" d="M114.428 967.407 Q110.817 967.407 108.988 970.971 Q107.183 974.513 107.183 981.643 Q107.183 988.749 108.988 992.314 Q110.817 995.855 114.428 995.855 Q118.062 995.855 119.868 992.314 Q121.697 988.749 121.697 981.643 Q121.697 974.513 119.868 970.971 Q118.062 967.407 114.428 967.407 M114.428 963.703 Q120.238 963.703 123.294 968.309 Q126.373 972.893 126.373 981.643 Q126.373 990.369 123.294 994.976 Q120.238 999.559 114.428 999.559 Q108.618 999.559 105.539 994.976 Q102.484 990.369 102.484 981.643 Q102.484 972.893 105.539 968.309 Q108.618 963.703 114.428 963.703 Z" fill="#000000" fill-rule="nonzero" fill-opacity="1" /><path clip-path="url(#clip750)" d="M134.59 993.008 L139.474 993.008 L139.474 998.888 L134.59 998.888 L134.59 993.008 Z" fill="#000000" fill-rule="nonzero" fill-opacity="1" /><path clip-path="url(#clip750)" d="M149.706 964.328 L168.062 964.328 L168.062 968.263 L153.988 968.263 L153.988 976.735 Q155.007 976.388 156.025 976.226 Q157.044 976.041 158.062 976.041 Q163.849 976.041 167.229 979.212 Q170.609 982.383 170.609 987.8 Q170.609 993.379 167.136 996.48 Q163.664 999.559 157.345 999.559 Q155.169 999.559 152.9 999.189 Q150.655 998.818 148.248 998.078 L148.248 993.379 Q150.331 994.513 152.553 995.068 Q154.775 995.624 157.252 995.624 Q161.257 995.624 163.595 993.518 Q165.933 991.411 165.933 987.8 Q165.933 984.189 163.595 982.082 Q161.257 979.976 157.252 979.976 Q155.377 979.976 153.502 980.393 Q151.65 980.809 149.706 981.689 L149.706 964.328 Z" fill="#000000" fill-rule="nonzero" fill-opacity="1" /><path clip-path="url(#clip750)" d="M883.555 818.821 L883.555 865.851 L893.439 865.851 Q905.956 865.851 911.749 860.18 Q917.582 854.509 917.582 842.275 Q917.582 830.123 911.749 824.492 Q905.956 818.821 893.439 818.821 L883.555 818.821 M875.372 812.096 L892.183 812.096 Q909.764 812.096 917.987 819.428 Q926.211 826.72 926.211 842.275 Q926.211 857.912 917.947 865.244 Q909.683 872.576 892.183 872.576 L875.372 872.576 L875.372 812.096 Z" fill="#000000" fill-rule="nonzero" fill-opacity="1" /><path clip-path="url(#clip750)" d="M939.254 812.096 L947.437 812.096 L947.437 865.689 L976.887 865.689 L976.887 872.576 L939.254 872.576 L939.254 812.096 Z" fill="#000000" fill-rule="nonzero" fill-opacity="1" /><path clip-path="url(#clip750)" d="M1011.85 812.096 L1024.04 812.096 L1039.47 853.253 L1054.99 812.096 L1067.18 812.096 L1067.18 872.576 L1059.2 872.576 L1059.2 819.469 L1043.61 860.95 L1035.38 860.95 L1019.79 819.469 L1019.79 872.576 L1011.85 872.576 L1011.85 812.096 Z" fill="#000000" fill-rule="nonzero" fill-opacity="1" /><path clip-path="url(#clip750)" d="M1100.68 832.432 Q1094.69 832.432 1091.2 837.131 Q1087.72 841.789 1087.72 849.931 Q1087.72 858.074 1091.16 862.773 Q1094.65 867.431 1100.68 867.431 Q1106.64 867.431 1110.12 862.732 Q1113.61 858.033 1113.61 849.931 Q1113.61 841.87 1110.12 837.171 Q1106.64 832.432 1100.68 832.432 M1100.68 826.112 Q1110.41 826.112 1115.95 832.432 Q1121.5 838.751 1121.5 849.931 Q1121.5 861.071 1115.95 867.431 Q1110.41 873.751 1100.68 873.751 Q1090.92 873.751 1085.37 867.431 Q1079.86 861.071 1079.86 849.931 Q1079.86 838.751 1085.37 832.432 Q1090.92 826.112 1100.68 826.112 Z" fill="#000000" fill-rule="nonzero" fill-opacity="1" /><path clip-path="url(#clip750)" d="M1169.18 835.915 Q1171.98 830.892 1175.87 828.502 Q1179.76 826.112 1185.02 826.112 Q1192.11 826.112 1195.96 831.095 Q1199.81 836.037 1199.81 845.192 L1199.81 872.576 L1192.31 872.576 L1192.31 845.435 Q1192.31 838.913 1190.01 835.753 Q1187.7 832.594 1182.96 832.594 Q1177.16 832.594 1173.8 836.442 Q1170.44 840.29 1170.44 846.934 L1170.44 872.576 L1162.95 872.576 L1162.95 845.435 Q1162.95 838.872 1160.64 835.753 Q1158.33 832.594 1153.51 832.594 Q1147.79 832.594 1144.43 836.482 Q1141.07 840.331 1141.07 846.934 L1141.07 872.576 L1133.58 872.576 L1133.58 827.206 L1141.07 827.206 L1141.07 834.254 Q1143.62 830.082 1147.19 828.097 Q1150.75 826.112 1155.65 826.112 Q1160.6 826.112 1164.04 828.624 Q1167.52 831.135 1169.18 835.915 Z" fill="#000000" fill-rule="nonzero" fill-opacity="1" /><path clip-path="url(#clip750)" d="M1253.48 848.028 L1253.48 851.673 L1219.21 851.673 Q1219.7 859.37 1223.83 863.421 Q1228 867.431 1235.42 867.431 Q1239.71 867.431 1243.72 866.378 Q1247.77 865.325 1251.74 863.218 L1251.74 870.267 Q1247.73 871.968 1243.52 872.86 Q1239.3 873.751 1234.97 873.751 Q1224.11 873.751 1217.75 867.431 Q1211.43 861.112 1211.43 850.337 Q1211.43 839.197 1217.43 832.675 Q1223.47 826.112 1233.67 826.112 Q1242.83 826.112 1248.14 832.026 Q1253.48 837.9 1253.48 848.028 M1246.03 845.84 Q1245.95 839.723 1242.59 836.077 Q1239.26 832.432 1233.76 832.432 Q1227.52 832.432 1223.75 835.956 Q1220.02 839.48 1219.46 845.881 L1246.03 845.84 Z" fill="#000000" fill-rule="nonzero" fill-opacity="1" /><path clip-path="url(#clip750)" d="M1303.43 845.192 L1303.43 872.576 L1295.98 872.576 L1295.98 845.435 Q1295.98 838.994 1293.47 835.794 Q1290.95 832.594 1285.93 832.594 Q1279.89 832.594 1276.41 836.442 Q1272.93 840.29 1272.93 846.934 L1272.93 872.576 L1265.43 872.576 L1265.43 827.206 L1272.93 827.206 L1272.93 834.254 Q1275.6 830.163 1279.21 828.138 Q1282.85 826.112 1287.59 826.112 Q1295.41 826.112 1299.42 830.973 Q1303.43 835.794 1303.43 845.192 Z" fill="#000000" fill-rule="nonzero" fill-opacity="1" /><path clip-path="url(#clip750)" d="M1325.67 814.324 L1325.67 827.206 L1341.02 827.206 L1341.02 832.999 L1325.67 832.999 L1325.67 857.628 Q1325.67 863.178 1327.17 864.758 Q1328.71 866.338 1333.37 866.338 L1341.02 866.338 L1341.02 872.576 L1333.37 872.576 Q1324.74 872.576 1321.46 869.376 Q1318.18 866.135 1318.18 857.628 L1318.18 832.999 L1312.71 832.999 L1312.71 827.206 L1318.18 827.206 L1318.18 814.324 L1325.67 814.324 Z" fill="#000000" fill-rule="nonzero" fill-opacity="1" /><path clip-path="url(#clip750)" d="M1385.7 818.821 L1385.7 865.851 L1395.59 865.851 Q1408.11 865.851 1413.9 860.18 Q1419.73 854.509 1419.73 842.275 Q1419.73 830.123 1413.9 824.492 Q1408.11 818.821 1395.59 818.821 L1385.7 818.821 M1377.52 812.096 L1394.33 812.096 Q1411.91 812.096 1420.14 819.428 Q1428.36 826.72 1428.36 842.275 Q1428.36 857.912 1420.1 865.244 Q1411.83 872.576 1394.33 872.576 L1377.52 872.576 L1377.52 812.096 Z" fill="#000000" fill-rule="nonzero" fill-opacity="1" /><path clip-path="url(#clip750)" d="M1441.08 827.206 L1448.53 827.206 L1448.53 872.576 L1441.08 872.576 L1441.08 827.206 M1441.08 809.544 L1448.53 809.544 L1448.53 818.983 L1441.08 818.983 L1441.08 809.544 Z" fill="#000000" fill-rule="nonzero" fill-opacity="1" /><path clip-path="url(#clip750)" d="M1487.1 809.544 L1487.1 815.742 L1479.97 815.742 Q1475.96 815.742 1474.38 817.362 Q1472.84 818.983 1472.84 823.195 L1472.84 827.206 L1485.11 827.206 L1485.11 832.999 L1472.84 832.999 L1472.84 872.576 L1465.35 872.576 L1465.35 832.999 L1458.22 832.999 L1458.22 827.206 L1465.35 827.206 L1465.35 824.046 Q1465.35 816.471 1468.87 813.028 Q1472.39 809.544 1480.05 809.544 L1487.1 809.544 Z" fill="#000000" fill-rule="nonzero" fill-opacity="1" /><path clip-path="url(#clip750)" d="M1516.31 809.544 L1516.31 815.742 L1509.18 815.742 Q1505.17 815.742 1503.59 817.362 Q1502.05 818.983 1502.05 823.195 L1502.05 827.206 L1514.32 827.206 L1514.32 832.999 L1502.05 832.999 L1502.05 872.576 L1494.55 872.576 L1494.55 832.999 L1487.42 832.999 L1487.42 827.206 L1494.55 827.206 L1494.55 824.046 Q1494.55 816.471 1498.08 813.028 Q1501.6 809.544 1509.26 809.544 L1516.31 809.544 Z" fill="#000000" fill-rule="nonzero" fill-opacity="1" /><path clip-path="url(#clip750)" d="M1561.35 848.028 L1561.35 851.673 L1527.08 851.673 Q1527.57 859.37 1531.7 863.421 Q1535.87 867.431 1543.28 867.431 Q1547.58 867.431 1551.59 866.378 Q1555.64 865.325 1559.61 863.218 L1559.61 870.267 Q1555.6 871.968 1551.39 872.86 Q1547.17 873.751 1542.84 873.751 Q1531.98 873.751 1525.62 867.431 Q1519.3 861.112 1519.3 850.337 Q1519.3 839.197 1525.3 832.675 Q1531.33 826.112 1541.54 826.112 Q1550.7 826.112 1556 832.026 Q1561.35 837.9 1561.35 848.028 M1553.9 845.84 Q1553.82 839.723 1550.45 836.077 Q1547.13 832.432 1541.62 832.432 Q1535.39 832.432 1531.62 835.956 Q1527.89 839.48 1527.32 845.881 L1553.9 845.84 Z" fill="#000000" fill-rule="nonzero" fill-opacity="1" /><path clip-path="url(#clip750)" d="M1599.88 834.173 Q1598.62 833.444 1597.12 833.12 Q1595.66 832.756 1593.88 832.756 Q1587.56 832.756 1584.16 836.888 Q1580.8 840.979 1580.8 848.676 L1580.8 872.576 L1573.3 872.576 L1573.3 827.206 L1580.8 827.206 L1580.8 834.254 Q1583.15 830.123 1586.91 828.138 Q1590.68 826.112 1596.07 826.112 Q1596.84 826.112 1597.77 826.234 Q1598.7 826.315 1599.84 826.517 L1599.88 834.173 Z" fill="#000000" fill-rule="nonzero" fill-opacity="1" /><path clip-path="url(#clip750)" d="M1644.68 848.028 L1644.68 851.673 L1610.41 851.673 Q1610.89 859.37 1615.03 863.421 Q1619.2 867.431 1626.61 867.431 Q1630.91 867.431 1634.92 866.378 Q1638.97 865.325 1642.94 863.218 L1642.94 870.267 Q1638.93 871.968 1634.71 872.86 Q1630.5 873.751 1626.17 873.751 Q1615.31 873.751 1608.95 867.431 Q1602.63 861.112 1602.63 850.337 Q1602.63 839.197 1608.63 832.675 Q1614.66 826.112 1624.87 826.112 Q1634.03 826.112 1639.33 832.026 Q1644.68 837.9 1644.68 848.028 M1637.23 845.84 Q1637.14 839.723 1633.78 836.077 Q1630.46 832.432 1624.95 832.432 Q1618.71 832.432 1614.95 835.956 Q1611.22 839.48 1610.65 845.881 L1637.23 845.84 Z" fill="#000000" fill-rule="nonzero" fill-opacity="1" /><path clip-path="url(#clip750)" d="M1694.63 845.192 L1694.63 872.576 L1687.17 872.576 L1687.17 845.435 Q1687.17 838.994 1684.66 835.794 Q1682.15 832.594 1677.13 832.594 Q1671.09 832.594 1667.61 836.442 Q1664.12 840.29 1664.12 846.934 L1664.12 872.576 L1656.63 872.576 L1656.63 827.206 L1664.12 827.206 L1664.12 834.254 Q1666.8 830.163 1670.4 828.138 Q1674.05 826.112 1678.79 826.112 Q1686.61 826.112 1690.62 830.973 Q1694.63 835.794 1694.63 845.192 Z" fill="#000000" fill-rule="nonzero" fill-opacity="1" /><path clip-path="url(#clip750)" d="M1742.14 828.948 L1742.14 835.915 Q1738.98 834.173 1735.78 833.323 Q1732.62 832.432 1729.38 832.432 Q1722.13 832.432 1718.12 837.05 Q1714.11 841.627 1714.11 849.931 Q1714.11 858.236 1718.12 862.854 Q1722.13 867.431 1729.38 867.431 Q1732.62 867.431 1735.78 866.581 Q1738.98 865.689 1742.14 863.948 L1742.14 870.834 Q1739.02 872.292 1735.66 873.022 Q1732.34 873.751 1728.57 873.751 Q1718.32 873.751 1712.29 867.31 Q1706.25 860.869 1706.25 849.931 Q1706.25 838.832 1712.33 832.472 Q1718.45 826.112 1729.06 826.112 Q1732.5 826.112 1735.78 826.841 Q1739.06 827.53 1742.14 828.948 Z" fill="#000000" fill-rule="nonzero" fill-opacity="1" /><path clip-path="url(#clip750)" d="M1793.91 848.028 L1793.91 851.673 L1759.64 851.673 Q1760.13 859.37 1764.26 863.421 Q1768.43 867.431 1775.85 867.431 Q1780.14 867.431 1784.15 866.378 Q1788.2 865.325 1792.17 863.218 L1792.17 870.267 Q1788.16 871.968 1783.95 872.86 Q1779.74 873.751 1775.4 873.751 Q1764.55 873.751 1758.19 867.431 Q1751.87 861.112 1751.87 850.337 Q1751.87 839.197 1757.86 832.675 Q1763.9 826.112 1774.11 826.112 Q1783.26 826.112 1788.57 832.026 Q1793.91 837.9 1793.91 848.028 M1786.46 845.84 Q1786.38 839.723 1783.02 836.077 Q1779.7 832.432 1774.19 832.432 Q1767.95 832.432 1764.18 835.956 Q1760.45 839.48 1759.89 845.881 L1786.46 845.84 Z" fill="#000000" fill-rule="nonzero" fill-opacity="1" /><path clip-path="url(#clip753)" d="M277.309 1434.8 L301.339 1475.86 L325.369 1417.76 L349.4 1441.78 L373.43 1457.28 L397.46 1390.05 L421.491 1404.94 L445.521 1411.31 L469.551 1409.16 L493.582 1395.7 L517.612 1373.73 L541.642 1343.24 L565.672 1394.87 L589.703 1347.34 L613.733 1291.28 L637.763 1317.35 L661.794 1244.26 L685.824 1253.29 L709.854 1253.79 L733.885 1245.79 L757.915 1229.25 L781.945 1183.8 L805.976 1129.83 L830.006 1157.99 L854.036 1086.99 L878.067 1098.1 L902.097 1100.69 L926.127 1094.76 L950.158 1080.31 L974.188 1057.35 L998.218 1025.86 L1022.25 985.852 L1046.28 937.324 L1070.31 1010.37 L1094.34 984.273 L1118.37 949.647 L1142.4 997.142 L1166.43 1015.72 L1190.46 935.145 L1214.49 936.686 L1238.52 929.707 L1262.55 1004.85 L1286.58 980.827 L1310.61 948.287 L1334.64 997.868 L1358.67 948.287 L1382.7 980.827 L1406.73 1004.85 L1430.76 929.707 L1454.79 936.686 L1478.82 935.145 L1502.86 1015.72 L1526.89 997.142 L1550.92 949.647 L1574.95 984.273 L1598.98 1010.37 L1623.01 937.324 L1647.04 985.852 L1671.07 1025.86 L1695.1 1057.35 L1719.13 1080.31 L1743.16 1094.76 L1767.19 1100.69 L1791.22 1098.1 L1815.25 1086.99 L1839.28 1157.99 L1863.31 1129.83 L1887.34 1183.8 L1911.37 1229.25 L1935.4 1245.79 L1959.43 1253.79 L1983.46 1253.29 L2007.49 1244.26 L2031.52 1317.35 L2055.55 1291.28 L2079.58 1347.34 L2103.61 1394.87 L2127.64 1343.24 L2151.67 1373.73 L2175.7 1395.7 L2199.73 1409.16 L2223.77 1411.31 L2247.8 1404.94 L2271.83 1390.05 L2295.86 1457.28 L2319.89 1441.78 L2343.92 1417.76 L2367.95 1475.86 L2391.98 1434.8 L2391.98 1434.8 L2367.95 1434.8 L2343.92 1434.8 L2319.89 1434.8 L2295.86 1434.8 L2271.83 1434.8 L2247.8 1434.8 L2223.77 1434.8 L2199.73 1434.8 L2175.7 1434.8 L2151.67 1434.8 L2127.64 1434.8 L2103.61 1434.8 L2079.58 1434.8 L2055.55 1434.8 L2031.52 1434.8 L2007.49 1434.8 L1983.46 1434.8 L1959.43 1434.8 L1935.4 1434.8 L1911.37 1434.8 L1887.34 1434.8 L1863.31 1434.8 L1839.28 1434.8 L1815.25 1434.8 L1791.22 1434.8 L1767.19 1434.8 L1743.16 1434.8 L1719.13 1434.8 L1695.1 1434.8 L1671.07 1434.8 L1647.04 1434.8 L1623.01 1434.8 L1598.98 1434.8 L1574.95 1434.8 L1550.92 1434.8 L1526.89 1434.8 L1502.86 1434.8 L1478.82 1434.8 L1454.79 1434.8 L1430.76 1434.8 L1406.73 1434.8 L1382.7 1434.8 L1358.67 1434.8 L1334.64 1434.8 L1310.61 1434.8 L1286.58 1434.8 L1262.55 1434.8 L1238.52 1434.8 L1214.49 1434.8 L1190.46 1434.8 L1166.43 1434.8 L1142.4 1434.8 L1118.37 1434.8 L1094.34 1434.8 L1070.31 1434.8 L1046.28 1434.8 L1022.25 1434.8 L998.218 1434.8 L974.188 1434.8 L950.158 1434.8 L926.127 1434.8 L902.097 1434.8 L878.067 1434.8 L854.036 1434.8 L830.006 1434.8 L805.976 1434.8 L781.945 1434.8 L757.915 1434.8 L733.885 1434.8 L709.854 1434.8 L685.824 1434.8 L661.794 1434.8 L637.763 1434.8 L613.733 1434.8 L589.703 1434.8 L565.672 1434.8 L541.642 1434.8 L517.612 1434.8 L493.582 1434.8 L469.551 1434.8 L445.521 1434.8 L421.491 1434.8 L397.46 1434.8 L373.43 1434.8 L349.4 1434.8 L325.369 1434.8 L301.339 1434.8 L277.309 1434.8  Z" fill="#0000ff" fill-rule="evenodd" fill-opacity="0.5"/>
<polyline clip-path="url(#clip753)" style="stroke:#0000ff; stroke-linecap:round; stroke-linejoin:round; stroke-width:4; stroke-opacity:1; fill:none" points="277.309,1434.8 301.339,1475.86 325.369,1417.76 349.4,1441.78 373.43,1457.28 397.46,1390.05 421.491,1404.94 445.521,1411.31 469.551,1409.16 493.582,1395.7 517.612,1373.73 541.642,1343.24 565.672,1394.87 589.703,1347.34 613.733,1291.28 637.763,1317.35 661.794,1244.26 685.824,1253.29 709.854,1253.79 733.885,1245.79 757.915,1229.25 781.945,1183.8 805.976,1129.83 830.006,1157.99 854.036,1086.99 878.067,1098.1 902.097,1100.69 926.127,1094.76 950.158,1080.31 974.188,1057.35 998.218,1025.86 1022.25,985.852 1046.28,937.324 1070.31,1010.37 1094.34,984.273 1118.37,949.647 1142.4,997.142 1166.43,1015.72 1190.46,935.145 1214.49,936.686 1238.52,929.707 1262.55,1004.85 1286.58,980.827 1310.61,948.287 1334.64,997.868 1358.67,948.287 1382.7,980.827 1406.73,1004.85 1430.76,929.707 1454.79,936.686 1478.82,935.145 1502.86,1015.72 1526.89,997.142 1550.92,949.647 1574.95,984.273 1598.98,1010.37 1623.01,937.324 1647.04,985.852 1671.07,1025.86 1695.1,1057.35 1719.13,1080.31 1743.16,1094.76 1767.19,1100.69 1791.22,1098.1 1815.25,1086.99 1839.28,1157.99 1863.31,1129.83 1887.34,1183.8 1911.37,1229.25 1935.4,1245.79 1959.43,1253.79 1983.46,1253.29 2007.49,1244.26 2031.52,1317.35 2055.55,1291.28 2079.58,1347.34 2103.61,1394.87 2127.64,1343.24 2151.67,1373.73 2175.7,1395.7 2199.73,1409.16 2223.77,1411.31 2247.8,1404.94 2271.83,1390.05 2295.86,1457.28 2319.89,1441.78 2343.92,1417.76 2367.95,1475.86 2391.98,1434.8 "/>
<path clip-path="url(#clip750)" d="M2542.85 1036.3 L2836.76 1036.3 L2836.76 932.62 L2542.85 932.62  Z" fill="#ffffff" fill-rule="evenodd" fill-opacity="1"/>
<polyline clip-path="url(#clip750)" style="stroke:#000000; stroke-linecap:round; stroke-linejoin:round; stroke-width:4; stroke-opacity:1; fill:none" points="2542.85,1036.3 2836.76,1036.3 2836.76,932.62 2542.85,932.62 2542.85,1036.3 "/>
<path clip-path="url(#clip750)" d="M2571.99 1005.2 L2746.85 1005.2 L2746.85 963.724 L2571.99 963.724 L2571.99 1005.2  Z" fill="#0000ff" fill-rule="evenodd" fill-opacity="0.5"/>
<polyline clip-path="url(#clip750)" style="stroke:#0000ff; stroke-linecap:round; stroke-linejoin:round; stroke-width:4; stroke-opacity:1; fill:none" points="2571.99,963.724 2746.85,963.724 "/>
<path clip-path="url(#clip750)" d="M2775.99 967.18 L2782.96 967.18 L2791.78 990.698 L2800.65 967.18 L2807.61 967.18 L2807.61 1001.74 L2803.05 1001.74 L2803.05 971.393 L2794.14 995.096 L2789.44 995.096 L2780.53 971.393 L2780.53 1001.74 L2775.99 1001.74 L2775.99 967.18 Z" fill="#000000" fill-rule="nonzero" fill-opacity="1" /></svg>
