<?xml version="1.0" encoding="utf-8"?>
<svg xmlns="http://www.w3.org/2000/svg" xmlns:xlink="http://www.w3.org/1999/xlink" width="600" height="400" viewBox="0 0 2400 1600">
<defs>
  <clipPath id="clip990">
    <rect x="0" y="0" width="2400" height="1600"/>
  </clipPath>
</defs>
<path clip-path="url(#clip990)" d="M0 1600 L2400 1600 L2400 0 L0 0  Z" fill="#ffffff" fill-rule="evenodd" fill-opacity="1"/>
<defs>
  <clipPath id="clip991">
    <rect x="480" y="0" width="1681" height="1600"/>
  </clipPath>
</defs>
<path clip-path="url(#clip990)" d="M240.537 1423.18 L2352.76 1423.18 L2352.76 123.472 L240.537 123.472  Z" fill="#ffffff" fill-rule="evenodd" fill-opacity="1"/>
<defs>
  <clipPath id="clip992">
    <rect x="240" y="123" width="2113" height="1301"/>
  </clipPath>
</defs>
<polyline clip-path="url(#clip992)" style="stroke:#000000; stroke-linecap:round; stroke-linejoin:round; stroke-width:2; stroke-opacity:0.1; fill:none" points="300.317,1423.18 300.317,123.472 "/>
<polyline clip-path="url(#clip992)" style="stroke:#000000; stroke-linecap:round; stroke-linejoin:round; stroke-width:2; stroke-opacity:0.1; fill:none" points="811.255,1423.18 811.255,123.472 "/>
<polyline clip-path="url(#clip992)" style="stroke:#000000; stroke-linecap:round; stroke-linejoin:round; stroke-width:2; stroke-opacity:0.1; fill:none" points="1322.19,1423.18 1322.19,123.472 "/>
<polyline clip-path="url(#clip992)" style="stroke:#000000; stroke-linecap:round; stroke-linejoin:round; stroke-width:2; stroke-opacity:0.1; fill:none" points="1833.13,1423.18 1833.13,123.472 "/>
<polyline clip-path="url(#clip992)" style="stroke:#000000; stroke-linecap:round; stroke-linejoin:round; stroke-width:2; stroke-opacity:0.1; fill:none" points="2344.07,1423.18 2344.07,123.472 "/>
<polyline clip-path="url(#clip992)" style="stroke:#000000; stroke-linecap:round; stroke-linejoin:round; stroke-width:2; stroke-opacity:0.1; fill:none" points="240.537,1369.95 2352.76,1369.95 "/>
<polyline clip-path="url(#clip992)" style="stroke:#000000; stroke-linecap:round; stroke-linejoin:round; stroke-width:2; stroke-opacity:0.1; fill:none" points="240.537,1114.48 2352.76,1114.48 "/>
<polyline clip-path="url(#clip992)" style="stroke:#000000; stroke-linecap:round; stroke-linejoin:round; stroke-width:2; stroke-opacity:0.1; fill:none" points="240.537,859.015 2352.76,859.015 "/>
<polyline clip-path="url(#clip992)" style="stroke:#000000; stroke-linecap:round; stroke-linejoin:round; stroke-width:2; stroke-opacity:0.1; fill:none" points="240.537,603.545 2352.76,603.545 "/>
<polyline clip-path="url(#clip992)" style="stroke:#000000; stroke-linecap:round; stroke-linejoin:round; stroke-width:2; stroke-opacity:0.1; fill:none" points="240.537,348.076 2352.76,348.076 "/>
<polyline clip-path="url(#clip990)" style="stroke:#000000; stroke-linecap:round; stroke-linejoin:round; stroke-width:4; stroke-opacity:1; fill:none" points="240.537,1423.18 2352.76,1423.18 "/>
<polyline clip-path="url(#clip990)" style="stroke:#000000; stroke-linecap:round; stroke-linejoin:round; stroke-width:4; stroke-opacity:1; fill:none" points="300.317,1423.18 300.317,1404.28 "/>
<polyline clip-path="url(#clip990)" style="stroke:#000000; stroke-linecap:round; stroke-linejoin:round; stroke-width:4; stroke-opacity:1; fill:none" points="811.255,1423.18 811.255,1404.28 "/>
<polyline clip-path="url(#clip990)" style="stroke:#000000; stroke-linecap:round; stroke-linejoin:round; stroke-width:4; stroke-opacity:1; fill:none" points="1322.19,1423.18 1322.19,1404.28 "/>
<polyline clip-path="url(#clip990)" style="stroke:#000000; stroke-linecap:round; stroke-linejoin:round; stroke-width:4; stroke-opacity:1; fill:none" points="1833.13,1423.18 1833.13,1404.28 "/>
<polyline clip-path="url(#clip990)" style="stroke:#000000; stroke-linecap:round; stroke-linejoin:round; stroke-width:4; stroke-opacity:1; fill:none" points="2344.07,1423.18 2344.07,1404.28 "/>
<path clip-path="url(#clip990)" d="M300.317 1454.1 Q296.706 1454.1 294.877 1457.66 Q293.072 1461.2 293.072 1468.33 Q293.072 1475.44 294.877 1479.01 Q296.706 1482.55 300.317 1482.55 Q303.951 1482.55 305.757 1479.01 Q307.586 1475.44 307.586 1468.33 Q307.586 1461.2 305.757 1457.66 Q303.951 1454.1 300.317 1454.1 M300.317 1450.39 Q306.127 1450.39 309.183 1455 Q312.262 1459.58 312.262 1468.33 Q312.262 1477.06 309.183 1481.67 Q306.127 1486.25 300.317 1486.25 Q294.507 1486.25 291.428 1481.67 Q288.373 1477.06 288.373 1468.33 Q288.373 1459.58 291.428 1455 Q294.507 1450.39 300.317 1450.39 Z" fill="#000000" fill-rule="nonzero" fill-opacity="1" /><path clip-path="url(#clip990)" d="M790.029 1481.64 L806.348 1481.64 L806.348 1485.58 L784.404 1485.58 L784.404 1481.64 Q787.066 1478.89 791.649 1474.26 Q796.255 1469.61 797.436 1468.27 Q799.681 1465.74 800.561 1464.01 Q801.464 1462.25 801.464 1460.56 Q801.464 1457.8 799.519 1456.07 Q797.598 1454.33 794.496 1454.33 Q792.297 1454.33 789.843 1455.09 Q787.413 1455.86 784.635 1457.41 L784.635 1452.69 Q787.459 1451.55 789.913 1450.97 Q792.367 1450.39 794.404 1450.39 Q799.774 1450.39 802.968 1453.08 Q806.163 1455.77 806.163 1460.26 Q806.163 1462.39 805.353 1464.31 Q804.566 1466.2 802.459 1468.8 Q801.88 1469.47 798.779 1472.69 Q795.677 1475.88 790.029 1481.64 Z" fill="#000000" fill-rule="nonzero" fill-opacity="1" /><path clip-path="url(#clip990)" d="M826.163 1454.1 Q822.552 1454.1 820.723 1457.66 Q818.917 1461.2 818.917 1468.33 Q818.917 1475.44 820.723 1479.01 Q822.552 1482.55 826.163 1482.55 Q829.797 1482.55 831.603 1479.01 Q833.431 1475.44 833.431 1468.33 Q833.431 1461.2 831.603 1457.66 Q829.797 1454.1 826.163 1454.1 M826.163 1450.39 Q831.973 1450.39 835.028 1455 Q838.107 1459.58 838.107 1468.33 Q838.107 1477.06 835.028 1481.67 Q831.973 1486.25 826.163 1486.25 Q820.353 1486.25 817.274 1481.67 Q814.218 1477.06 814.218 1468.33 Q814.218 1459.58 817.274 1455 Q820.353 1450.39 826.163 1450.39 Z" fill="#000000" fill-rule="nonzero" fill-opacity="1" /><path clip-path="url(#clip990)" d="M1310.36 1455.09 L1298.56 1473.54 L1310.36 1473.54 L1310.36 1455.09 M1309.14 1451.02 L1315.02 1451.02 L1315.02 1473.54 L1319.95 1473.54 L1319.95 1477.43 L1315.02 1477.43 L1315.02 1485.58 L1310.36 1485.58 L1310.36 1477.43 L1294.76 1477.43 L1294.76 1472.92 L1309.14 1451.02 Z" fill="#000000" fill-rule="nonzero" fill-opacity="1" /><path clip-path="url(#clip990)" d="M1337.68 1454.1 Q1334.07 1454.1 1332.24 1457.66 Q1330.43 1461.2 1330.43 1468.33 Q1330.43 1475.44 1332.24 1479.01 Q1334.07 1482.55 1337.68 1482.55 Q1341.31 1482.55 1343.12 1479.01 Q1344.95 1475.44 1344.95 1468.33 Q1344.95 1461.2 1343.12 1457.66 Q1341.31 1454.1 1337.68 1454.1 M1337.68 1450.39 Q1343.49 1450.39 1346.55 1455 Q1349.62 1459.58 1349.62 1468.33 Q1349.62 1477.06 1346.55 1481.67 Q1343.49 1486.25 1337.68 1486.25 Q1331.87 1486.25 1328.79 1481.67 Q1325.74 1477.06 1325.74 1468.33 Q1325.74 1459.58 1328.79 1455 Q1331.87 1450.39 1337.68 1450.39 Z" fill="#000000" fill-rule="nonzero" fill-opacity="1" /><path clip-path="url(#clip990)" d="M1818.54 1466.44 Q1815.39 1466.44 1813.54 1468.59 Q1811.71 1470.74 1811.71 1474.49 Q1811.71 1478.22 1813.54 1480.39 Q1815.39 1482.55 1818.54 1482.55 Q1821.69 1482.55 1823.51 1480.39 Q1825.37 1478.22 1825.37 1474.49 Q1825.37 1470.74 1823.51 1468.59 Q1821.69 1466.44 1818.54 1466.44 M1827.82 1451.78 L1827.82 1456.04 Q1826.06 1455.21 1824.25 1454.77 Q1822.47 1454.33 1820.71 1454.33 Q1816.08 1454.33 1813.63 1457.45 Q1811.2 1460.58 1810.85 1466.9 Q1812.22 1464.89 1814.28 1463.82 Q1816.34 1462.73 1818.81 1462.73 Q1824.02 1462.73 1827.03 1465.9 Q1830.06 1469.05 1830.06 1474.49 Q1830.06 1479.82 1826.92 1483.03 Q1823.77 1486.25 1818.54 1486.25 Q1812.54 1486.25 1809.37 1481.67 Q1806.2 1477.06 1806.2 1468.33 Q1806.2 1460.14 1810.09 1455.28 Q1813.98 1450.39 1820.53 1450.39 Q1822.29 1450.39 1824.07 1450.74 Q1825.87 1451.09 1827.82 1451.78 Z" fill="#000000" fill-rule="nonzero" fill-opacity="1" /><path clip-path="url(#clip990)" d="M1848.12 1454.1 Q1844.51 1454.1 1842.68 1457.66 Q1840.87 1461.2 1840.87 1468.33 Q1840.87 1475.44 1842.68 1479.01 Q1844.51 1482.55 1848.12 1482.55 Q1851.75 1482.55 1853.56 1479.01 Q1855.39 1475.44 1855.39 1468.33 Q1855.39 1461.2 1853.56 1457.66 Q1851.75 1454.1 1848.12 1454.1 M1848.12 1450.39 Q1853.93 1450.39 1856.99 1455 Q1860.06 1459.58 1860.06 1468.33 Q1860.06 1477.06 1856.99 1481.67 Q1853.93 1486.25 1848.12 1486.25 Q1842.31 1486.25 1839.23 1481.67 Q1836.18 1477.06 1836.18 1468.33 Q1836.18 1459.58 1839.23 1455 Q1842.31 1450.39 1848.12 1450.39 Z" fill="#000000" fill-rule="nonzero" fill-opacity="1" /><path clip-path="url(#clip990)" d="M2328.94 1469.17 Q2325.61 1469.17 2323.69 1470.95 Q2321.79 1472.73 2321.79 1475.86 Q2321.79 1478.98 2323.69 1480.77 Q2325.61 1482.55 2328.94 1482.55 Q2332.28 1482.55 2334.2 1480.77 Q2336.12 1478.96 2336.12 1475.86 Q2336.12 1472.73 2334.2 1470.95 Q2332.3 1469.17 2328.94 1469.17 M2324.27 1467.18 Q2321.26 1466.44 2319.57 1464.38 Q2317.9 1462.32 2317.9 1459.35 Q2317.9 1455.21 2320.84 1452.8 Q2323.8 1450.39 2328.94 1450.39 Q2334.1 1450.39 2337.04 1452.8 Q2339.98 1455.21 2339.98 1459.35 Q2339.98 1462.32 2338.29 1464.38 Q2336.63 1466.44 2333.64 1467.18 Q2337.02 1467.96 2338.9 1470.26 Q2340.79 1472.55 2340.79 1475.86 Q2340.79 1480.88 2337.72 1483.57 Q2334.66 1486.25 2328.94 1486.25 Q2323.23 1486.25 2320.15 1483.57 Q2317.09 1480.88 2317.09 1475.86 Q2317.09 1472.55 2318.99 1470.26 Q2320.89 1467.96 2324.27 1467.18 M2322.55 1459.79 Q2322.55 1462.48 2324.22 1463.98 Q2325.91 1465.49 2328.94 1465.49 Q2331.95 1465.49 2333.64 1463.98 Q2335.35 1462.48 2335.35 1459.79 Q2335.35 1457.11 2333.64 1455.6 Q2331.95 1454.1 2328.94 1454.1 Q2325.91 1454.1 2324.22 1455.6 Q2322.55 1457.11 2322.55 1459.79 Z" fill="#000000" fill-rule="nonzero" fill-opacity="1" /><path clip-path="url(#clip990)" d="M2359.1 1454.1 Q2355.49 1454.1 2353.66 1457.66 Q2351.86 1461.2 2351.86 1468.33 Q2351.86 1475.44 2353.66 1479.01 Q2355.49 1482.55 2359.1 1482.55 Q2362.74 1482.55 2364.54 1479.01 Q2366.37 1475.44 2366.37 1468.33 Q2366.37 1461.2 2364.54 1457.66 Q2362.74 1454.1 2359.1 1454.1 M2359.1 1450.39 Q2364.91 1450.39 2367.97 1455 Q2371.05 1459.58 2371.05 1468.33 Q2371.05 1477.06 2367.97 1481.67 Q2364.91 1486.25 2359.1 1486.25 Q2353.29 1486.25 2350.22 1481.67 Q2347.16 1477.06 2347.16 1468.33 Q2347.16 1459.58 2350.22 1455 Q2353.29 1450.39 2359.1 1450.39 Z" fill="#000000" fill-rule="nonzero" fill-opacity="1" /><path clip-path="url(#clip990)" d="M1107.09 1525.81 L1107.09 1562.76 L1114.86 1562.76 Q1124.69 1562.76 1129.24 1558.3 Q1133.83 1553.85 1133.83 1544.24 Q1133.83 1534.69 1129.24 1530.26 Q1124.69 1525.81 1114.86 1525.81 L1107.09 1525.81 M1100.66 1520.52 L1113.87 1520.52 Q1127.68 1520.52 1134.15 1526.28 Q1140.61 1532.01 1140.61 1544.24 Q1140.61 1556.52 1134.11 1562.28 Q1127.62 1568.04 1113.87 1568.04 L1100.66 1568.04 L1100.66 1520.52 Z" fill="#000000" fill-rule="nonzero" fill-opacity="1" /><path clip-path="url(#clip990)" d="M1150.6 1532.4 L1156.46 1532.4 L1156.46 1568.04 L1150.6 1568.04 L1150.6 1532.4 M1150.6 1518.52 L1156.46 1518.52 L1156.46 1525.93 L1150.6 1525.93 L1150.6 1518.52 Z" fill="#000000" fill-rule="nonzero" fill-opacity="1" /><path clip-path="url(#clip990)" d="M1191.44 1533.45 L1191.44 1538.98 Q1188.95 1537.71 1186.28 1537.07 Q1183.61 1536.44 1180.74 1536.44 Q1176.38 1536.44 1174.19 1537.77 Q1172.02 1539.11 1172.02 1541.79 Q1172.02 1543.82 1173.58 1545 Q1175.14 1546.15 1179.85 1547.2 L1181.86 1547.64 Q1188.1 1548.98 1190.71 1551.43 Q1193.35 1553.85 1193.35 1558.21 Q1193.35 1563.17 1189.4 1566.07 Q1185.49 1568.97 1178.61 1568.97 Q1175.75 1568.97 1172.63 1568.39 Q1169.54 1567.85 1166.1 1566.74 L1166.1 1560.69 Q1169.35 1562.38 1172.5 1563.24 Q1175.65 1564.07 1178.74 1564.07 Q1182.88 1564.07 1185.1 1562.66 Q1187.33 1561.23 1187.33 1558.65 Q1187.33 1556.27 1185.71 1554.99 Q1184.12 1553.72 1178.67 1552.54 L1176.64 1552.07 Q1171.19 1550.92 1168.78 1548.56 Q1166.36 1546.18 1166.36 1542.04 Q1166.36 1537.01 1169.92 1534.27 Q1173.49 1531.54 1180.04 1531.54 Q1183.29 1531.54 1186.15 1532.01 Q1189.02 1532.49 1191.44 1533.45 Z" fill="#000000" fill-rule="nonzero" fill-opacity="1" /><path clip-path="url(#clip990)" d="M1208.47 1522.27 L1208.47 1532.4 L1220.53 1532.4 L1220.53 1536.95 L1208.47 1536.95 L1208.47 1556.3 Q1208.47 1560.66 1209.64 1561.9 Q1210.85 1563.14 1214.51 1563.14 L1220.53 1563.14 L1220.53 1568.04 L1214.51 1568.04 Q1207.73 1568.04 1205.16 1565.53 Q1202.58 1562.98 1202.58 1556.3 L1202.58 1536.95 L1198.28 1536.95 L1198.28 1532.4 L1202.58 1532.4 L1202.58 1522.27 L1208.47 1522.27 Z" fill="#000000" fill-rule="nonzero" fill-opacity="1" /><path clip-path="url(#clip990)" d="M1244.43 1550.12 Q1237.33 1550.12 1234.6 1551.75 Q1231.86 1553.37 1231.86 1557.29 Q1231.86 1560.4 1233.9 1562.25 Q1235.97 1564.07 1239.5 1564.07 Q1244.37 1564.07 1247.3 1560.63 Q1250.26 1557.16 1250.26 1551.43 L1250.26 1550.12 L1244.43 1550.12 M1256.11 1547.71 L1256.11 1568.04 L1250.26 1568.04 L1250.26 1562.63 Q1248.25 1565.88 1245.26 1567.44 Q1242.27 1568.97 1237.94 1568.97 Q1232.46 1568.97 1229.22 1565.91 Q1226 1562.82 1226 1557.67 Q1226 1551.65 1230.01 1548.6 Q1234.06 1545.54 1242.04 1545.54 L1250.26 1545.54 L1250.26 1544.97 Q1250.26 1540.93 1247.58 1538.73 Q1244.94 1536.5 1240.14 1536.5 Q1237.08 1536.5 1234.18 1537.23 Q1231.29 1537.97 1228.61 1539.43 L1228.61 1534.02 Q1231.83 1532.78 1234.85 1532.17 Q1237.88 1531.54 1240.74 1531.54 Q1248.47 1531.54 1252.29 1535.55 Q1256.11 1539.56 1256.11 1547.71 Z" fill="#000000" fill-rule="nonzero" fill-opacity="1" /><path clip-path="url(#clip990)" d="M1297.81 1546.53 L1297.81 1568.04 L1291.95 1568.04 L1291.95 1546.72 Q1291.95 1541.66 1289.98 1539.14 Q1288.01 1536.63 1284.06 1536.63 Q1279.32 1536.63 1276.58 1539.65 Q1273.84 1542.68 1273.84 1547.9 L1273.84 1568.04 L1267.95 1568.04 L1267.95 1532.4 L1273.84 1532.4 L1273.84 1537.93 Q1275.94 1534.72 1278.77 1533.13 Q1281.64 1531.54 1285.36 1531.54 Q1291.51 1531.54 1294.66 1535.36 Q1297.81 1539.14 1297.81 1546.53 Z" fill="#000000" fill-rule="nonzero" fill-opacity="1" /><path clip-path="url(#clip990)" d="M1335.14 1533.76 L1335.14 1539.24 Q1332.66 1537.87 1330.15 1537.2 Q1327.66 1536.5 1325.12 1536.5 Q1319.42 1536.5 1316.27 1540.13 Q1313.12 1543.73 1313.12 1550.25 Q1313.12 1556.78 1316.27 1560.4 Q1319.42 1564 1325.12 1564 Q1327.66 1564 1330.15 1563.33 Q1332.66 1562.63 1335.14 1561.26 L1335.14 1566.68 Q1332.69 1567.82 1330.05 1568.39 Q1327.44 1568.97 1324.48 1568.97 Q1316.43 1568.97 1311.69 1563.91 Q1306.94 1558.85 1306.94 1550.25 Q1306.94 1541.53 1311.72 1536.53 Q1316.52 1531.54 1324.86 1531.54 Q1327.57 1531.54 1330.15 1532.11 Q1332.72 1532.65 1335.14 1533.76 Z" fill="#000000" fill-rule="nonzero" fill-opacity="1" /><path clip-path="url(#clip990)" d="M1375.82 1548.76 L1375.82 1551.62 L1348.89 1551.62 Q1349.28 1557.67 1352.52 1560.85 Q1355.8 1564 1361.62 1564 Q1365 1564 1368.15 1563.17 Q1371.33 1562.35 1374.45 1560.69 L1374.45 1566.23 Q1371.3 1567.57 1367.99 1568.27 Q1364.68 1568.97 1361.27 1568.97 Q1352.74 1568.97 1347.75 1564 Q1342.78 1559.04 1342.78 1550.57 Q1342.78 1541.82 1347.49 1536.69 Q1352.24 1531.54 1360.26 1531.54 Q1367.45 1531.54 1371.62 1536.18 Q1375.82 1540.8 1375.82 1548.76 M1369.96 1547.04 Q1369.9 1542.23 1367.26 1539.37 Q1364.65 1536.5 1360.32 1536.5 Q1355.42 1536.5 1352.46 1539.27 Q1349.53 1542.04 1349.08 1547.07 L1369.96 1547.04 Z" fill="#000000" fill-rule="nonzero" fill-opacity="1" /><path clip-path="url(#clip990)" d="M1420.22 1518.58 Q1415.96 1525.9 1413.89 1533.06 Q1411.82 1540.23 1411.82 1547.58 Q1411.82 1554.93 1413.89 1562.16 Q1415.99 1569.35 1420.22 1576.64 L1415.13 1576.64 Q1410.35 1569.16 1407.97 1561.93 Q1405.61 1554.71 1405.61 1547.58 Q1405.61 1540.48 1407.97 1533.29 Q1410.32 1526.09 1415.13 1518.58 L1420.22 1518.58 Z" fill="#000000" fill-rule="nonzero" fill-opacity="1" /><path clip-path="url(#clip990)" d="M1449.63 1518.52 L1449.63 1523.39 L1444.03 1523.39 Q1440.88 1523.39 1439.64 1524.66 Q1438.43 1525.93 1438.43 1529.24 L1438.43 1532.4 L1448.07 1532.4 L1448.07 1536.95 L1438.43 1536.95 L1438.43 1568.04 L1432.54 1568.04 L1432.54 1536.95 L1426.94 1536.95 L1426.94 1532.4 L1432.54 1532.4 L1432.54 1529.91 Q1432.54 1523.96 1435.31 1521.26 Q1438.08 1518.52 1444.09 1518.52 L1449.63 1518.52 Z" fill="#000000" fill-rule="nonzero" fill-opacity="1" /><path clip-path="url(#clip990)" d="M1459.18 1522.27 L1459.18 1532.4 L1471.24 1532.4 L1471.24 1536.95 L1459.18 1536.95 L1459.18 1556.3 Q1459.18 1560.66 1460.36 1561.9 Q1461.57 1563.14 1465.23 1563.14 L1471.24 1563.14 L1471.24 1568.04 L1465.23 1568.04 Q1458.45 1568.04 1455.87 1565.53 Q1453.29 1562.98 1453.29 1556.3 L1453.29 1536.95 L1448.99 1536.95 L1448.99 1532.4 L1453.29 1532.4 L1453.29 1522.27 L1459.18 1522.27 Z" fill="#000000" fill-rule="nonzero" fill-opacity="1" /><path clip-path="url(#clip990)" d="M1478.02 1518.58 L1483.11 1518.58 Q1487.89 1526.09 1490.24 1533.29 Q1492.63 1540.48 1492.63 1547.58 Q1492.63 1554.71 1490.24 1561.93 Q1487.89 1569.16 1483.11 1576.64 L1478.02 1576.64 Q1482.25 1569.35 1484.32 1562.16 Q1486.42 1554.93 1486.42 1547.58 Q1486.42 1540.23 1484.32 1533.06 Q1482.25 1525.9 1478.02 1518.58 Z" fill="#000000" fill-rule="nonzero" fill-opacity="1" /><polyline clip-path="url(#clip990)" style="stroke:#000000; stroke-linecap:round; stroke-linejoin:round; stroke-width:4; stroke-opacity:1; fill:none" points="240.537,1423.18 240.537,123.472 "/>
<polyline clip-path="url(#clip990)" style="stroke:#000000; stroke-linecap:round; stroke-linejoin:round; stroke-width:4; stroke-opacity:1; fill:none" points="240.537,1369.95 259.435,1369.95 "/>
<polyline clip-path="url(#clip990)" style="stroke:#000000; stroke-linecap:round; stroke-linejoin:round; stroke-width:4; stroke-opacity:1; fill:none" points="240.537,1114.48 259.435,1114.48 "/>
<polyline clip-path="url(#clip990)" style="stroke:#000000; stroke-linecap:round; stroke-linejoin:round; stroke-width:4; stroke-opacity:1; fill:none" points="240.537,859.015 259.435,859.015 "/>
<polyline clip-path="url(#clip990)" style="stroke:#000000; stroke-linecap:round; stroke-linejoin:round; stroke-width:4; stroke-opacity:1; fill:none" points="240.537,603.545 259.435,603.545 "/>
<polyline clip-path="url(#clip990)" style="stroke:#000000; stroke-linecap:round; stroke-linejoin:round; stroke-width:4; stroke-opacity:1; fill:none" points="240.537,348.076 259.435,348.076 "/>
<path clip-path="url(#clip990)" d="M112.663 1370.4 L142.339 1370.4 L142.339 1374.34 L112.663 1374.34 L112.663 1370.4 Z" fill="#000000" fill-rule="nonzero" fill-opacity="1" /><path clip-path="url(#clip990)" d="M166.598 1368.6 Q169.954 1369.32 171.829 1371.58 Q173.727 1373.85 173.727 1377.19 Q173.727 1382.3 170.209 1385.1 Q166.69 1387.9 160.209 1387.9 Q158.033 1387.9 155.718 1387.46 Q153.427 1387.05 150.973 1386.19 L150.973 1381.68 Q152.917 1382.81 155.232 1383.39 Q157.547 1383.97 160.07 1383.97 Q164.468 1383.97 166.76 1382.23 Q169.075 1380.5 169.075 1377.19 Q169.075 1374.13 166.922 1372.42 Q164.792 1370.68 160.973 1370.68 L156.945 1370.68 L156.945 1366.84 L161.158 1366.84 Q164.607 1366.84 166.436 1365.47 Q168.264 1364.08 168.264 1361.49 Q168.264 1358.83 166.366 1357.42 Q164.491 1355.98 160.973 1355.98 Q159.052 1355.98 156.853 1356.4 Q154.653 1356.82 152.015 1357.7 L152.015 1353.53 Q154.677 1352.79 156.991 1352.42 Q159.329 1352.05 161.39 1352.05 Q166.714 1352.05 169.815 1354.48 Q172.917 1356.89 172.917 1361.01 Q172.917 1363.88 171.274 1365.87 Q169.63 1367.83 166.598 1368.6 Z" fill="#000000" fill-rule="nonzero" fill-opacity="1" /><path clip-path="url(#clip990)" d="M192.593 1355.75 Q188.982 1355.75 187.153 1359.32 Q185.348 1362.86 185.348 1369.99 Q185.348 1377.09 187.153 1380.66 Q188.982 1384.2 192.593 1384.2 Q196.227 1384.2 198.033 1380.66 Q199.862 1377.09 199.862 1369.99 Q199.862 1362.86 198.033 1359.32 Q196.227 1355.75 192.593 1355.75 M192.593 1352.05 Q198.403 1352.05 201.459 1356.65 Q204.537 1361.24 204.537 1369.99 Q204.537 1378.71 201.459 1383.32 Q198.403 1387.9 192.593 1387.9 Q186.783 1387.9 183.704 1383.32 Q180.649 1378.71 180.649 1369.99 Q180.649 1361.24 183.704 1356.65 Q186.783 1352.05 192.593 1352.05 Z" fill="#000000" fill-rule="nonzero" fill-opacity="1" /><path clip-path="url(#clip990)" d="M112.663 1114.94 L142.339 1114.94 L142.339 1118.87 L112.663 1118.87 L112.663 1114.94 Z" fill="#000000" fill-rule="nonzero" fill-opacity="1" /><path clip-path="url(#clip990)" d="M156.459 1127.83 L172.778 1127.83 L172.778 1131.76 L150.834 1131.76 L150.834 1127.83 Q153.496 1125.07 158.079 1120.44 Q162.686 1115.79 163.866 1114.45 Q166.112 1111.93 166.991 1110.19 Q167.894 1108.43 167.894 1106.74 Q167.894 1103.99 165.95 1102.25 Q164.028 1100.51 160.927 1100.51 Q158.728 1100.51 156.274 1101.28 Q153.843 1102.04 151.066 1103.59 L151.066 1098.87 Q153.89 1097.74 156.343 1097.16 Q158.797 1096.58 160.834 1096.58 Q166.204 1096.58 169.399 1099.26 Q172.593 1101.95 172.593 1106.44 Q172.593 1108.57 171.783 1110.49 Q170.996 1112.39 168.889 1114.98 Q168.311 1115.65 165.209 1118.87 Q162.107 1122.06 156.459 1127.83 Z" fill="#000000" fill-rule="nonzero" fill-opacity="1" /><path clip-path="url(#clip990)" d="M192.593 1100.28 Q188.982 1100.28 187.153 1103.85 Q185.348 1107.39 185.348 1114.52 Q185.348 1121.62 187.153 1125.19 Q188.982 1128.73 192.593 1128.73 Q196.227 1128.73 198.033 1125.19 Q199.862 1121.62 199.862 1114.52 Q199.862 1107.39 198.033 1103.85 Q196.227 1100.28 192.593 1100.28 M192.593 1096.58 Q198.403 1096.58 201.459 1101.19 Q204.537 1105.77 204.537 1114.52 Q204.537 1123.25 201.459 1127.85 Q198.403 1132.43 192.593 1132.43 Q186.783 1132.43 183.704 1127.85 Q180.649 1123.25 180.649 1114.52 Q180.649 1105.77 183.704 1101.19 Q186.783 1096.58 192.593 1096.58 Z" fill="#000000" fill-rule="nonzero" fill-opacity="1" /><path clip-path="url(#clip990)" d="M112.663 859.466 L142.339 859.466 L142.339 863.401 L112.663 863.401 L112.663 859.466 Z" fill="#000000" fill-rule="nonzero" fill-opacity="1" /><path clip-path="url(#clip990)" d="M153.241 872.359 L160.88 872.359 L160.88 845.994 L152.57 847.66 L152.57 843.401 L160.834 841.735 L165.51 841.735 L165.51 872.359 L173.149 872.359 L173.149 876.295 L153.241 876.295 L153.241 872.359 Z" fill="#000000" fill-rule="nonzero" fill-opacity="1" /><path clip-path="url(#clip990)" d="M192.593 844.813 Q188.982 844.813 187.153 848.378 Q185.348 851.92 185.348 859.049 Q185.348 866.156 187.153 869.721 Q188.982 873.262 192.593 873.262 Q196.227 873.262 198.033 869.721 Q199.862 866.156 199.862 859.049 Q199.862 851.92 198.033 848.378 Q196.227 844.813 192.593 844.813 M192.593 841.11 Q198.403 841.11 201.459 845.716 Q204.537 850.299 204.537 859.049 Q204.537 867.776 201.459 872.383 Q198.403 876.966 192.593 876.966 Q186.783 876.966 183.704 872.383 Q180.649 867.776 180.649 859.049 Q180.649 850.299 183.704 845.716 Q186.783 841.11 192.593 841.11 Z" fill="#000000" fill-rule="nonzero" fill-opacity="1" /><path clip-path="url(#clip990)" d="M192.593 589.344 Q188.982 589.344 187.153 592.909 Q185.348 596.451 185.348 603.58 Q185.348 610.687 187.153 614.251 Q188.982 617.793 192.593 617.793 Q196.227 617.793 198.033 614.251 Q199.862 610.687 199.862 603.58 Q199.862 596.451 198.033 592.909 Q196.227 589.344 192.593 589.344 M192.593 585.64 Q198.403 585.64 201.459 590.247 Q204.537 594.83 204.537 603.58 Q204.537 612.307 201.459 616.913 Q198.403 621.497 192.593 621.497 Q186.783 621.497 183.704 616.913 Q180.649 612.307 180.649 603.58 Q180.649 594.83 183.704 590.247 Q186.783 585.64 192.593 585.64 Z" fill="#000000" fill-rule="nonzero" fill-opacity="1" /><path clip-path="url(#clip990)" d="M153.241 361.421 L160.88 361.421 L160.88 335.056 L152.57 336.722 L152.57 332.463 L160.834 330.796 L165.51 330.796 L165.51 361.421 L173.149 361.421 L173.149 365.356 L153.241 365.356 L153.241 361.421 Z" fill="#000000" fill-rule="nonzero" fill-opacity="1" /><path clip-path="url(#clip990)" d="M192.593 333.875 Q188.982 333.875 187.153 337.44 Q185.348 340.982 185.348 348.111 Q185.348 355.218 187.153 358.782 Q188.982 362.324 192.593 362.324 Q196.227 362.324 198.033 358.782 Q199.862 355.218 199.862 348.111 Q199.862 340.982 198.033 337.44 Q196.227 333.875 192.593 333.875 M192.593 330.171 Q198.403 330.171 201.459 334.778 Q204.537 339.361 204.537 348.111 Q204.537 356.838 201.459 361.444 Q198.403 366.028 192.593 366.028 Q186.783 366.028 183.704 361.444 Q180.649 356.838 180.649 348.111 Q180.649 339.361 183.704 334.778 Q186.783 330.171 192.593 330.171 Z" fill="#000000" fill-rule="nonzero" fill-opacity="1" /><path clip-path="url(#clip990)" d="M14.8869 934.538 L14.8869 928.108 L34.366 928.108 L34.366 904.746 L14.8869 904.746 L14.8869 898.317 L62.4069 898.317 L62.4069 904.746 L39.7769 904.746 L39.7769 928.108 L62.4069 928.108 L62.4069 934.538 L14.8869 934.538 Z" fill="#000000" fill-rule="nonzero" fill-opacity="1" /><path clip-path="url(#clip990)" d="M43.1189 855.284 L45.9834 855.284 L45.9834 882.211 Q52.0308 881.829 55.2137 878.583 Q58.3647 875.305 58.3647 869.48 Q58.3647 866.106 57.5372 862.955 Q56.7096 859.772 55.0546 856.653 L60.5927 856.653 Q61.9295 859.804 62.6297 863.114 Q63.33 866.424 63.33 869.83 Q63.33 878.36 58.3647 883.357 Q53.3995 888.322 44.9331 888.322 Q36.1802 888.322 31.0558 883.612 Q25.8996 878.869 25.8996 870.849 Q25.8996 863.655 30.5466 859.486 Q35.1617 855.284 43.1189 855.284 M41.4001 861.141 Q36.594 861.205 33.7294 863.846 Q30.8649 866.456 30.8649 870.785 Q30.8649 875.687 33.6339 878.647 Q36.403 881.575 41.4319 882.02 L41.4001 861.141 Z" fill="#000000" fill-rule="nonzero" fill-opacity="1" /><path clip-path="url(#clip990)" d="M26.759 845.672 L26.759 839.816 L62.4069 839.816 L62.4069 845.672 L26.759 845.672 M12.8817 845.672 L12.8817 839.816 L20.2978 839.816 L20.2978 845.672 L12.8817 845.672 Z" fill="#000000" fill-rule="nonzero" fill-opacity="1" /><path clip-path="url(#clip990)" d="M44.1692 804.104 Q37.8035 804.104 34.3023 806.746 Q30.8012 809.356 30.8012 814.098 Q30.8012 818.809 34.3023 821.451 Q37.8035 824.061 44.1692 824.061 Q50.5031 824.061 54.0042 821.451 Q57.5053 818.809 57.5053 814.098 Q57.5053 809.356 54.0042 806.746 Q50.5031 804.104 44.1692 804.104 M57.9828 798.248 Q67.0857 798.248 71.5099 802.29 Q75.9659 806.332 75.9659 814.671 Q75.9659 817.759 75.4885 820.496 Q75.0429 823.233 74.088 825.811 L68.3907 825.811 Q69.7912 823.233 70.4596 820.719 Q71.128 818.204 71.128 815.594 Q71.128 809.833 68.1043 806.969 Q65.1124 804.104 59.0331 804.104 L56.1367 804.104 Q59.2877 805.918 60.8473 808.751 Q62.4069 811.584 62.4069 815.531 Q62.4069 822.087 57.4099 826.098 Q52.4128 830.108 44.1692 830.108 Q35.8938 830.108 30.8967 826.098 Q25.8996 822.087 25.8996 815.531 Q25.8996 811.584 27.4592 808.751 Q29.0188 805.918 32.1698 804.104 L26.759 804.104 L26.759 798.248 L57.9828 798.248 Z" fill="#000000" fill-rule="nonzero" fill-opacity="1" /><path clip-path="url(#clip990)" d="M40.8909 756.552 L62.4069 756.552 L62.4069 762.409 L41.0818 762.409 Q36.0211 762.409 33.5066 764.382 Q30.9922 766.356 30.9922 770.302 Q30.9922 775.045 34.0159 777.782 Q37.0396 780.519 42.2595 780.519 L62.4069 780.519 L62.4069 786.408 L12.8817 786.408 L12.8817 780.519 L32.2972 780.519 Q29.0825 778.419 27.491 775.586 Q25.8996 772.721 25.8996 768.997 Q25.8996 762.854 29.719 759.703 Q33.5066 756.552 40.8909 756.552 Z" fill="#000000" fill-rule="nonzero" fill-opacity="1" /><path clip-path="url(#clip990)" d="M16.6375 739.078 L26.759 739.078 L26.759 727.015 L31.3105 727.015 L31.3105 739.078 L50.6622 739.078 Q55.0227 739.078 56.264 737.901 Q57.5053 736.691 57.5053 733.031 L57.5053 727.015 L62.4069 727.015 L62.4069 733.031 Q62.4069 739.811 59.8925 742.389 Q57.3462 744.967 50.6622 744.967 L31.3105 744.967 L31.3105 749.264 L26.759 749.264 L26.759 744.967 L16.6375 744.967 L16.6375 739.078 Z" fill="#000000" fill-rule="nonzero" fill-opacity="1" /><path clip-path="url(#clip990)" d="M12.9454 684.524 Q20.266 688.789 27.4274 690.858 Q34.5888 692.927 41.9412 692.927 Q49.2936 692.927 56.5187 690.858 Q63.7119 688.758 71.0006 684.524 L71.0006 689.617 Q63.5209 694.391 56.2959 696.778 Q49.0708 699.134 41.9412 699.134 Q34.8434 699.134 27.6502 696.778 Q20.4569 694.423 12.9454 689.617 L12.9454 684.524 Z" fill="#000000" fill-rule="nonzero" fill-opacity="1" /><path clip-path="url(#clip990)" d="M12.8817 655.115 L17.7515 655.115 L17.7515 660.717 Q17.7515 663.868 19.0247 665.109 Q20.2978 666.318 23.608 666.318 L26.759 666.318 L26.759 656.674 L31.3105 656.674 L31.3105 666.318 L62.4069 666.318 L62.4069 672.207 L31.3105 672.207 L31.3105 677.809 L26.759 677.809 L26.759 672.207 L24.2764 672.207 Q18.3244 672.207 15.619 669.438 Q12.8817 666.669 12.8817 660.653 L12.8817 655.115 Z" fill="#000000" fill-rule="nonzero" fill-opacity="1" /><path clip-path="url(#clip990)" d="M16.6375 645.566 L26.759 645.566 L26.759 633.503 L31.3105 633.503 L31.3105 645.566 L50.6622 645.566 Q55.0227 645.566 56.264 644.389 Q57.5053 643.179 57.5053 639.519 L57.5053 633.503 L62.4069 633.503 L62.4069 639.519 Q62.4069 646.298 59.8925 648.876 Q57.3462 651.455 50.6622 651.455 L31.3105 651.455 L31.3105 655.751 L26.759 655.751 L26.759 651.455 L16.6375 651.455 L16.6375 645.566 Z" fill="#000000" fill-rule="nonzero" fill-opacity="1" /><path clip-path="url(#clip990)" d="M12.9454 626.724 L12.9454 621.631 Q20.4569 616.857 27.6502 614.502 Q34.8434 612.114 41.9412 612.114 Q49.0708 612.114 56.2959 614.502 Q63.5209 616.857 71.0006 621.631 L71.0006 626.724 Q63.7119 622.491 56.5187 620.422 Q49.2936 618.321 41.9412 618.321 Q34.5888 618.321 27.4274 620.422 Q20.266 622.491 12.9454 626.724 Z" fill="#000000" fill-rule="nonzero" fill-opacity="1" /><path clip-path="url(#clip990)" d="M1094.16 43.6931 L1094.16 65.8515 L1107.29 65.8515 Q1113.89 65.8515 1117.05 63.1374 Q1120.25 60.3828 1120.25 54.752 Q1120.25 49.0808 1117.05 46.4072 Q1113.89 43.6931 1107.29 43.6931 L1094.16 43.6931 M1094.16 18.8205 L1094.16 37.0496 L1106.27 37.0496 Q1112.27 37.0496 1115.19 34.8216 Q1118.14 32.5531 1118.14 27.935 Q1118.14 23.3575 1115.19 21.089 Q1112.27 18.8205 1106.27 18.8205 L1094.16 18.8205 M1085.98 12.096 L1106.88 12.096 Q1116.24 12.096 1121.3 15.9849 Q1126.37 19.8737 1126.37 27.0438 Q1126.37 32.5936 1123.77 35.8748 Q1121.18 39.156 1116.16 39.9662 Q1122.19 41.2625 1125.52 45.3944 Q1128.88 49.4858 1128.88 55.6432 Q1128.88 63.745 1123.37 68.1605 Q1117.86 72.576 1107.69 72.576 L1085.98 72.576 L1085.98 12.096 Z" fill="#000000" fill-rule="nonzero" fill-opacity="1" /><path clip-path="url(#clip990)" d="M1163.19 49.7694 Q1154.16 49.7694 1150.67 51.8354 Q1147.19 53.9013 1147.19 58.8839 Q1147.19 62.8538 1149.78 65.2034 Q1152.41 67.5124 1156.91 67.5124 Q1163.11 67.5124 1166.84 63.1374 Q1170.6 58.7219 1170.6 51.4303 L1170.6 49.7694 L1163.19 49.7694 M1178.06 46.6907 L1178.06 72.576 L1170.6 72.576 L1170.6 65.6895 Q1168.05 69.8214 1164.24 71.8063 Q1160.44 73.7508 1154.93 73.7508 Q1147.96 73.7508 1143.83 69.8619 Q1139.73 65.9325 1139.73 59.3701 Q1139.73 51.7138 1144.84 47.825 Q1149.98 43.9361 1160.15 43.9361 L1170.6 43.9361 L1170.6 43.2069 Q1170.6 38.0623 1167.2 35.2672 Q1163.84 32.4315 1157.72 32.4315 Q1153.83 32.4315 1150.15 33.3632 Q1146.46 34.295 1143.06 36.1584 L1143.06 29.2718 Q1147.15 27.692 1151 26.9223 Q1154.84 26.1121 1158.49 26.1121 Q1168.33 26.1121 1173.2 31.2163 Q1178.06 36.3204 1178.06 46.6907 Z" fill="#000000" fill-rule="nonzero" fill-opacity="1" /><path clip-path="url(#clip990)" d="M1226.06 28.9478 L1226.06 35.9153 Q1222.9 34.1734 1219.7 33.3227 Q1216.54 32.4315 1213.3 32.4315 Q1206.05 32.4315 1202.04 37.0496 Q1198.03 41.6271 1198.03 49.9314 Q1198.03 58.2358 1202.04 62.8538 Q1206.05 67.4314 1213.3 67.4314 Q1216.54 67.4314 1219.7 66.5807 Q1222.9 65.6895 1226.06 63.9476 L1226.06 70.8341 Q1222.94 72.2924 1219.58 73.0216 Q1216.26 73.7508 1212.49 73.7508 Q1202.24 73.7508 1196.2 67.3098 Q1190.17 60.8689 1190.17 49.9314 Q1190.17 38.832 1196.25 32.472 Q1202.36 26.1121 1212.98 26.1121 Q1216.42 26.1121 1219.7 26.8413 Q1222.98 27.5299 1226.06 28.9478 Z" fill="#000000" fill-rule="nonzero" fill-opacity="1" /><path clip-path="url(#clip990)" d="M1238.74 9.54393 L1246.23 9.54393 L1246.23 46.7717 L1268.47 27.2059 L1277.99 27.2059 L1253.93 48.4326 L1279 72.576 L1269.28 72.576 L1246.23 50.4176 L1246.23 72.576 L1238.74 72.576 L1238.74 9.54393 Z" fill="#000000" fill-rule="nonzero" fill-opacity="1" /><path clip-path="url(#clip990)" d="M1350.02 14.0809 L1350.02 22.0612 Q1345.36 19.8332 1341.23 18.7395 Q1337.09 17.6457 1333.25 17.6457 Q1326.56 17.6457 1322.92 20.2383 Q1319.31 22.8309 1319.31 27.611 Q1319.31 31.6214 1321.7 33.6873 Q1324.13 35.7128 1330.86 36.9686 L1335.8 37.9813 Q1344.95 39.7232 1349.29 44.1387 Q1353.66 48.5136 1353.66 55.8863 Q1353.66 64.6767 1347.75 69.2137 Q1341.88 73.7508 1330.49 73.7508 Q1326.2 73.7508 1321.34 72.7785 Q1316.52 71.8063 1311.33 69.9024 L1311.33 61.4765 Q1316.31 64.2716 1321.09 65.6895 Q1325.87 67.1073 1330.49 67.1073 Q1337.5 67.1073 1341.31 64.3527 Q1345.12 61.598 1345.12 56.4939 Q1345.12 52.0379 1342.36 49.5264 Q1339.65 47.0148 1333.41 45.759 L1328.43 44.7868 Q1319.27 42.9639 1315.18 39.075 Q1311.09 35.1862 1311.09 28.2591 Q1311.09 20.2383 1316.72 15.6203 Q1322.39 11.0023 1332.31 11.0023 Q1336.57 11.0023 1340.98 11.7719 Q1345.4 12.5416 1350.02 14.0809 Z" fill="#000000" fill-rule="nonzero" fill-opacity="1" /><path clip-path="url(#clip990)" d="M1373.31 65.7705 L1373.31 89.8329 L1365.82 89.8329 L1365.82 27.2059 L1373.31 27.2059 L1373.31 34.0924 Q1375.66 30.0415 1379.22 28.0971 Q1382.83 26.1121 1387.81 26.1121 Q1396.08 26.1121 1401.22 32.6746 Q1406.41 39.2371 1406.41 49.9314 Q1406.41 60.6258 1401.22 67.1883 Q1396.08 73.7508 1387.81 73.7508 Q1382.83 73.7508 1379.22 71.8063 Q1375.66 69.8214 1373.31 65.7705 M1398.67 49.9314 Q1398.67 41.7081 1395.27 37.0496 Q1391.9 32.3505 1385.99 32.3505 Q1380.08 32.3505 1376.67 37.0496 Q1373.31 41.7081 1373.31 49.9314 Q1373.31 58.1548 1376.67 62.8538 Q1380.08 67.5124 1385.99 67.5124 Q1391.9 67.5124 1395.27 62.8538 Q1398.67 58.1548 1398.67 49.9314 Z" fill="#000000" fill-rule="nonzero" fill-opacity="1" /><path clip-path="url(#clip990)" d="M1439.38 49.7694 Q1430.35 49.7694 1426.86 51.8354 Q1423.38 53.9013 1423.38 58.8839 Q1423.38 62.8538 1425.97 65.2034 Q1428.6 67.5124 1433.1 67.5124 Q1439.3 67.5124 1443.03 63.1374 Q1446.79 58.7219 1446.79 51.4303 L1446.79 49.7694 L1439.38 49.7694 M1454.25 46.6907 L1454.25 72.576 L1446.79 72.576 L1446.79 65.6895 Q1444.24 69.8214 1440.43 71.8063 Q1436.63 73.7508 1431.12 73.7508 Q1424.15 73.7508 1420.02 69.8619 Q1415.93 65.9325 1415.93 59.3701 Q1415.93 51.7138 1421.03 47.825 Q1426.17 43.9361 1436.34 43.9361 L1446.79 43.9361 L1446.79 43.2069 Q1446.79 38.0623 1443.39 35.2672 Q1440.03 32.4315 1433.91 32.4315 Q1430.02 32.4315 1426.34 33.3632 Q1422.65 34.295 1419.25 36.1584 L1419.25 29.2718 Q1423.34 27.692 1427.19 26.9223 Q1431.04 26.1121 1434.68 26.1121 Q1444.52 26.1121 1449.39 31.2163 Q1454.25 36.3204 1454.25 46.6907 Z" fill="#000000" fill-rule="nonzero" fill-opacity="1" /><path clip-path="url(#clip990)" d="M1507.31 45.1919 L1507.31 72.576 L1499.86 72.576 L1499.86 45.4349 Q1499.86 38.994 1497.35 35.7938 Q1494.84 32.5936 1489.81 32.5936 Q1483.78 32.5936 1480.29 36.4419 Q1476.81 40.2903 1476.81 46.9338 L1476.81 72.576 L1469.32 72.576 L1469.32 27.2059 L1476.81 27.2059 L1476.81 34.2544 Q1479.48 30.163 1483.09 28.1376 Q1486.74 26.1121 1491.47 26.1121 Q1499.29 26.1121 1503.3 30.9732 Q1507.31 35.7938 1507.31 45.1919 Z" fill="#000000" fill-rule="nonzero" fill-opacity="1" /><path clip-path="url(#clip992)" d="M300.317 603.545 L2292.98 603.545 L2292.98 585.45 L300.317 585.45 L300.317 603.545 L300.317 603.545  Z" fill="#d3d3d3" fill-rule="evenodd" fill-opacity="1"/>
<polyline clip-path="url(#clip992)" style="stroke:#000000; stroke-linecap:round; stroke-linejoin:round; stroke-width:4; stroke-opacity:1; fill:none" points="300.317,603.545 2292.98,603.545 2292.98,585.45 300.317,585.45 300.317,603.545 "/>
<path clip-path="url(#clip992)" d="M338.638 609.932 L338.638 617.383 L369.507 625.899 L369.507 689.766 L342.895 706.265 L342.895 724.893 L411.02 724.893 L411.02 706.265 L384.409 689.766 L384.409 625.899 L415.278 617.383 L415.278 609.932 L338.638 609.932 L338.638 609.932  Z" fill="#d3d3d3" fill-rule="evenodd" fill-opacity="1"/>
<polyline clip-path="url(#clip992)" style="stroke:#000000; stroke-linecap:round; stroke-linejoin:round; stroke-width:4; stroke-opacity:1; fill:none" points="338.638,609.932 338.638,617.383 369.507,625.899 369.507,689.766 342.895,706.265 342.895,724.893 411.02,724.893 411.02,706.265 384.409,689.766 384.409,625.899 415.278,617.383 415.278,609.932 338.638,609.932 "/>
<path clip-path="url(#clip992)" d="M568.56 609.932 L568.56 617.383 L599.429 625.899 L599.429 689.766 L572.818 706.265 L572.818 724.893 L640.943 724.893 L640.943 706.265 L614.331 689.766 L614.331 625.899 L645.2 617.383 L645.2 609.932 L568.56 609.932 L568.56 609.932  Z" fill="#d3d3d3" fill-rule="evenodd" fill-opacity="1"/>
<polyline clip-path="url(#clip992)" style="stroke:#000000; stroke-linecap:round; stroke-linejoin:round; stroke-width:4; stroke-opacity:1; fill:none" points="568.56,609.932 568.56,617.383 599.429,625.899 599.429,689.766 572.818,706.265 572.818,724.893 640.943,724.893 640.943,706.265 614.331,689.766 614.331,625.899 645.2,617.383 645.2,609.932 568.56,609.932 "/>
<path clip-path="url(#clip992)" d="M798.482 609.932 L798.482 617.383 L829.351 625.899 L829.351 689.766 L802.74 706.265 L802.74 724.893 L870.865 724.893 L870.865 706.265 L844.253 689.766 L844.253 625.899 L875.123 617.383 L875.123 609.932 L798.482 609.932 L798.482 609.932  Z" fill="#d3d3d3" fill-rule="evenodd" fill-opacity="1"/>
<polyline clip-path="url(#clip992)" style="stroke:#000000; stroke-linecap:round; stroke-linejoin:round; stroke-width:4; stroke-opacity:1; fill:none" points="798.482,609.932 798.482,617.383 829.351,625.899 829.351,689.766 802.74,706.265 802.74,724.893 870.865,724.893 870.865,706.265 844.253,689.766 844.253,625.899 875.123,617.383 875.123,609.932 798.482,609.932 "/>
<path clip-path="url(#clip992)" d="M1015.63 609.932 L1015.63 617.383 L1046.5 625.899 L1046.5 689.766 L1019.89 706.265 L1019.89 724.893 L1088.01 724.893 L1088.01 706.265 L1061.4 689.766 L1061.4 625.899 L1092.27 617.383 L1092.27 609.932 L1015.63 609.932 L1015.63 609.932  Z" fill="#d3d3d3" fill-rule="evenodd" fill-opacity="1"/>
<polyline clip-path="url(#clip992)" style="stroke:#000000; stroke-linecap:round; stroke-linejoin:round; stroke-width:4; stroke-opacity:1; fill:none" points="1015.63,609.932 1015.63,617.383 1046.5,625.899 1046.5,689.766 1019.89,706.265 1019.89,724.893 1088.01,724.893 1088.01,706.265 1061.4,689.766 1061.4,625.899 1092.27,617.383 1092.27,609.932 1015.63,609.932 "/>
<path clip-path="url(#clip992)" d="M1245.55 609.932 L1245.55 617.383 L1276.42 625.899 L1276.42 689.766 L1249.81 706.265 L1249.81 724.893 L1317.94 724.893 L1317.94 706.265 L1291.32 689.766 L1291.32 625.899 L1322.19 617.383 L1322.19 609.932 L1245.55 609.932 L1245.55 609.932  Z" fill="#d3d3d3" fill-rule="evenodd" fill-opacity="1"/>
<polyline clip-path="url(#clip992)" style="stroke:#000000; stroke-linecap:round; stroke-linejoin:round; stroke-width:4; stroke-opacity:1; fill:none" points="1245.55,609.932 1245.55,617.383 1276.42,625.899 1276.42,689.766 1249.81,706.265 1249.81,724.893 1317.94,724.893 1317.94,706.265 1291.32,689.766 1291.32,625.899 1322.19,617.383 1322.19,609.932 1245.55,609.932 "/>
<path clip-path="url(#clip992)" d="M1475.48 609.932 L1475.48 617.383 L1506.34 625.899 L1506.34 689.766 L1479.73 706.265 L1479.73 724.893 L1547.86 724.893 L1547.86 706.265 L1521.25 689.766 L1521.25 625.899 L1552.12 617.383 L1552.12 609.932 L1475.48 609.932 L1475.48 609.932  Z" fill="#d3d3d3" fill-rule="evenodd" fill-opacity="1"/>
<polyline clip-path="url(#clip992)" style="stroke:#000000; stroke-linecap:round; stroke-linejoin:round; stroke-width:4; stroke-opacity:1; fill:none" points="1475.48,609.932 1475.48,617.383 1506.34,625.899 1506.34,689.766 1479.73,706.265 1479.73,724.893 1547.86,724.893 1547.86,706.265 1521.25,689.766 1521.25,625.899 1552.12,617.383 1552.12,609.932 1475.48,609.932 "/>
<path clip-path="url(#clip992)" d="M1705.4 609.932 L1705.4 617.383 L1736.27 625.899 L1736.27 689.766 L1709.66 706.265 L1709.66 724.893 L1777.78 724.893 L1777.78 706.265 L1751.17 689.766 L1751.17 625.899 L1782.04 617.383 L1782.04 609.932 L1705.4 609.932 L1705.4 609.932  Z" fill="#d3d3d3" fill-rule="evenodd" fill-opacity="1"/>
<polyline clip-path="url(#clip992)" style="stroke:#000000; stroke-linecap:round; stroke-linejoin:round; stroke-width:4; stroke-opacity:1; fill:none" points="1705.4,609.932 1705.4,617.383 1736.27,625.899 1736.27,689.766 1709.66,706.265 1709.66,724.893 1777.78,724.893 1777.78,706.265 1751.17,689.766 1751.17,625.899 1782.04,617.383 1782.04,609.932 1705.4,609.932 "/>
<path clip-path="url(#clip992)" d="M1935.32 609.932 L1935.32 617.383 L1966.19 625.899 L1966.19 689.766 L1939.58 706.265 L1939.58 724.893 L2007.7 724.893 L2007.7 706.265 L1981.09 689.766 L1981.09 625.899 L2011.96 617.383 L2011.96 609.932 L1935.32 609.932 L1935.32 609.932  Z" fill="#d3d3d3" fill-rule="evenodd" fill-opacity="1"/>
<polyline clip-path="url(#clip992)" style="stroke:#000000; stroke-linecap:round; stroke-linejoin:round; stroke-width:4; stroke-opacity:1; fill:none" points="1935.32,609.932 1935.32,617.383 1966.19,625.899 1966.19,689.766 1939.58,706.265 1939.58,724.893 2007.7,724.893 2007.7,706.265 1981.09,689.766 1981.09,625.899 2011.96,617.383 2011.96,609.932 1935.32,609.932 "/>
<path clip-path="url(#clip992)" d="M2165.24 609.932 L2165.24 617.383 L2196.11 625.899 L2196.11 689.766 L2169.5 706.265 L2169.5 724.893 L2237.62 724.893 L2237.62 706.265 L2211.01 689.766 L2211.01 625.899 L2241.88 617.383 L2241.88 609.932 L2165.24 609.932 L2165.24 609.932  Z" fill="#d3d3d3" fill-rule="evenodd" fill-opacity="1"/>
<polyline clip-path="url(#clip992)" style="stroke:#000000; stroke-linecap:round; stroke-linejoin:round; stroke-width:4; stroke-opacity:1; fill:none" points="2165.24,609.932 2165.24,617.383 2196.11,625.899 2196.11,689.766 2169.5,706.265 2169.5,724.893 2237.62,724.893 2237.62,706.265 2211.01,689.766 2211.01,625.899 2241.88,617.383 2241.88,609.932 2165.24,609.932 "/>
<polyline clip-path="url(#clip992)" style="stroke:#000000; stroke-linecap:round; stroke-linejoin:round; stroke-width:4; stroke-opacity:1; fill:none" points="376.958,667.413 606.88,667.413 836.802,667.413 1053.95,667.413 1283.87,667.413 1513.8,667.413 1743.72,667.413 1973.64,667.413 2203.56,667.413 "/>
<polyline clip-path="url(#clip992)" style="stroke:#000000; stroke-linecap:round; stroke-linejoin:round; stroke-width:4; stroke-opacity:1; fill:none" points="376.958,673.799 376.958,661.026 "/>
<polyline clip-path="url(#clip992)" style="stroke:#000000; stroke-linecap:round; stroke-linejoin:round; stroke-width:4; stroke-opacity:1; fill:none" points="606.88,673.799 606.88,661.026 "/>
<polyline clip-path="url(#clip992)" style="stroke:#000000; stroke-linecap:round; stroke-linejoin:round; stroke-width:4; stroke-opacity:1; fill:none" points="836.802,673.799 836.802,661.026 "/>
<polyline clip-path="url(#clip992)" style="stroke:#000000; stroke-linecap:round; stroke-linejoin:round; stroke-width:4; stroke-opacity:1; fill:none" points="1053.95,673.799 1053.95,661.026 "/>
<polyline clip-path="url(#clip992)" style="stroke:#000000; stroke-linecap:round; stroke-linejoin:round; stroke-width:4; stroke-opacity:1; fill:none" points="1283.87,673.799 1283.87,661.026 "/>
<polyline clip-path="url(#clip992)" style="stroke:#000000; stroke-linecap:round; stroke-linejoin:round; stroke-width:4; stroke-opacity:1; fill:none" points="1513.8,673.799 1513.8,661.026 "/>
<polyline clip-path="url(#clip992)" style="stroke:#000000; stroke-linecap:round; stroke-linejoin:round; stroke-width:4; stroke-opacity:1; fill:none" points="1743.72,673.799 1743.72,661.026 "/>
<polyline clip-path="url(#clip992)" style="stroke:#000000; stroke-linecap:round; stroke-linejoin:round; stroke-width:4; stroke-opacity:1; fill:none" points="1973.64,673.799 1973.64,661.026 "/>
<polyline clip-path="url(#clip992)" style="stroke:#000000; stroke-linecap:round; stroke-linejoin:round; stroke-width:4; stroke-opacity:1; fill:none" points="2203.56,673.799 2203.56,661.026 "/>
<circle clip-path="url(#clip992)" style="fill:#000000; stroke:none; fill-opacity:1" cx="376.958" cy="673.799" r="2"/>
<circle clip-path="url(#clip992)" style="fill:#000000; stroke:none; fill-opacity:1" cx="376.958" cy="661.026" r="2"/>
<circle clip-path="url(#clip992)" style="fill:#000000; stroke:none; fill-opacity:1" cx="606.88" cy="673.799" r="2"/>
<circle clip-path="url(#clip992)" style="fill:#000000; stroke:none; fill-opacity:1" cx="606.88" cy="661.026" r="2"/>
<circle clip-path="url(#clip992)" style="fill:#000000; stroke:none; fill-opacity:1" cx="836.802" cy="673.799" r="2"/>
<circle clip-path="url(#clip992)" style="fill:#000000; stroke:none; fill-opacity:1" cx="836.802" cy="661.026" r="2"/>
<circle clip-path="url(#clip992)" style="fill:#000000; stroke:none; fill-opacity:1" cx="1053.95" cy="673.799" r="2"/>
<circle clip-path="url(#clip992)" style="fill:#000000; stroke:none; fill-opacity:1" cx="1053.95" cy="661.026" r="2"/>
<circle clip-path="url(#clip992)" style="fill:#000000; stroke:none; fill-opacity:1" cx="1283.87" cy="673.799" r="2"/>
<circle clip-path="url(#clip992)" style="fill:#000000; stroke:none; fill-opacity:1" cx="1283.87" cy="661.026" r="2"/>
<circle clip-path="url(#clip992)" style="fill:#000000; stroke:none; fill-opacity:1" cx="1513.8" cy="673.799" r="2"/>
<circle clip-path="url(#clip992)" style="fill:#000000; stroke:none; fill-opacity:1" cx="1513.8" cy="661.026" r="2"/>
<circle clip-path="url(#clip992)" style="fill:#000000; stroke:none; fill-opacity:1" cx="1743.72" cy="673.799" r="2"/>
<circle clip-path="url(#clip992)" style="fill:#000000; stroke:none; fill-opacity:1" cx="1743.72" cy="661.026" r="2"/>
<circle clip-path="url(#clip992)" style="fill:#000000; stroke:none; fill-opacity:1" cx="1973.64" cy="673.799" r="2"/>
<circle clip-path="url(#clip992)" style="fill:#000000; stroke:none; fill-opacity:1" cx="1973.64" cy="661.026" r="2"/>
<circle clip-path="url(#clip992)" style="fill:#000000; stroke:none; fill-opacity:1" cx="2203.56" cy="673.799" r="2"/>
<circle clip-path="url(#clip992)" style="fill:#000000; stroke:none; fill-opacity:1" cx="2203.56" cy="661.026" r="2"/>
<circle clip-path="url(#clip992)" style="fill:#9b7fe8; stroke:none; fill-opacity:1" cx="491.919" cy="667.413" r="2"/>
<circle clip-path="url(#clip992)" style="fill:#9b7fe8; stroke:none; fill-opacity:1" cx="721.841" cy="667.413" r="2"/>
<circle clip-path="url(#clip992)" style="fill:#9b7fe8; stroke:none; fill-opacity:1" cx="945.377" cy="667.413" r="2"/>
<circle clip-path="url(#clip992)" style="fill:#9b7fe8; stroke:none; fill-opacity:1" cx="1168.91" cy="667.413" r="2"/>
<circle clip-path="url(#clip992)" style="fill:#9b7fe8; stroke:none; fill-opacity:1" cx="1398.83" cy="667.413" r="2"/>
<circle clip-path="url(#clip992)" style="fill:#9b7fe8; stroke:none; fill-opacity:1" cx="1628.76" cy="667.413" r="2"/>
<circle clip-path="url(#clip992)" style="fill:#9b7fe8; stroke:none; fill-opacity:1" cx="1858.68" cy="667.413" r="2"/>
<circle clip-path="url(#clip992)" style="fill:#9b7fe8; stroke:none; fill-opacity:1" cx="2088.6" cy="667.413" r="2"/>
<circle clip-path="url(#clip992)" style="fill:#9b7fe8; stroke:none; fill-opacity:1" cx="491.919" cy="667.413" r="2"/>
<circle clip-path="url(#clip992)" style="fill:#9b7fe8; stroke:none; fill-opacity:1" cx="721.841" cy="667.413" r="2"/>
<circle clip-path="url(#clip992)" style="fill:#9b7fe8; stroke:none; fill-opacity:1" cx="945.377" cy="667.413" r="2"/>
<circle clip-path="url(#clip992)" style="fill:#9b7fe8; stroke:none; fill-opacity:1" cx="1168.91" cy="667.413" r="2"/>
<circle clip-path="url(#clip992)" style="fill:#9b7fe8; stroke:none; fill-opacity:1" cx="1398.83" cy="667.413" r="2"/>
<circle clip-path="url(#clip992)" style="fill:#9b7fe8; stroke:none; fill-opacity:1" cx="1628.76" cy="667.413" r="2"/>
<circle clip-path="url(#clip992)" style="fill:#9b7fe8; stroke:none; fill-opacity:1" cx="1858.68" cy="667.413" r="2"/>
<circle clip-path="url(#clip992)" style="fill:#9b7fe8; stroke:none; fill-opacity:1" cx="2088.6" cy="667.413" r="2"/>
<path clip-path="url(#clip992)" d="M300.317 731.28 L2292.98 731.28 L2292.98 833.468 L300.317 833.468 L300.317 731.28 L300.317 731.28  Z" fill="#d3d3d3" fill-rule="evenodd" fill-opacity="1"/>
<polyline clip-path="url(#clip992)" style="stroke:#000000; stroke-linecap:round; stroke-linejoin:round; stroke-width:4; stroke-opacity:1; fill:none" points="300.317,731.28 2292.98,731.28 2292.98,833.468 300.317,833.468 300.317,731.28 "/>
<path clip-path="url(#clip992)" d="M357.798 833.468 L447.212 833.468 L447.212 961.202 L357.798 961.202 L357.798 833.468 L357.798 833.468  Z" fill="#d3d3d3" fill-rule="evenodd" fill-opacity="1"/>
<polyline clip-path="url(#clip992)" style="stroke:#000000; stroke-linecap:round; stroke-linejoin:round; stroke-width:4; stroke-opacity:1; fill:none" points="357.798,833.468 447.212,833.468 447.212,961.202 357.798,961.202 357.798,833.468 "/>
<path clip-path="url(#clip992)" d="M715.454 833.468 L804.869 833.468 L804.869 961.202 L715.454 961.202 L715.454 833.468 L715.454 833.468  Z" fill="#d3d3d3" fill-rule="evenodd" fill-opacity="1"/>
<polyline clip-path="url(#clip992)" style="stroke:#000000; stroke-linecap:round; stroke-linejoin:round; stroke-width:4; stroke-opacity:1; fill:none" points="715.454,833.468 804.869,833.468 804.869,961.202 715.454,961.202 715.454,833.468 "/>
<path clip-path="url(#clip992)" d="M1073.11 833.468 L1162.53 833.468 L1162.53 961.202 L1073.11 961.202 L1073.11 833.468 L1073.11 833.468  Z" fill="#d3d3d3" fill-rule="evenodd" fill-opacity="1"/>
<polyline clip-path="url(#clip992)" style="stroke:#000000; stroke-linecap:round; stroke-linejoin:round; stroke-width:4; stroke-opacity:1; fill:none" points="1073.11,833.468 1162.53,833.468 1162.53,961.202 1073.11,961.202 1073.11,833.468 "/>
<path clip-path="url(#clip992)" d="M1430.77 833.468 L1520.18 833.468 L1520.18 961.202 L1430.77 961.202 L1430.77 833.468 L1430.77 833.468  Z" fill="#d3d3d3" fill-rule="evenodd" fill-opacity="1"/>
<polyline clip-path="url(#clip992)" style="stroke:#000000; stroke-linecap:round; stroke-linejoin:round; stroke-width:4; stroke-opacity:1; fill:none" points="1430.77,833.468 1520.18,833.468 1520.18,961.202 1430.77,961.202 1430.77,833.468 "/>
<path clip-path="url(#clip992)" d="M1788.42 833.468 L1877.84 833.468 L1877.84 961.202 L1788.42 961.202 L1788.42 833.468 L1788.42 833.468  Z" fill="#d3d3d3" fill-rule="evenodd" fill-opacity="1"/>
<polyline clip-path="url(#clip992)" style="stroke:#000000; stroke-linecap:round; stroke-linejoin:round; stroke-width:4; stroke-opacity:1; fill:none" points="1788.42,833.468 1877.84,833.468 1877.84,961.202 1788.42,961.202 1788.42,833.468 "/>
<path clip-path="url(#clip992)" d="M2146.08 833.468 L2235.5 833.468 L2235.5 961.202 L2146.08 961.202 L2146.08 833.468 L2146.08 833.468  Z" fill="#d3d3d3" fill-rule="evenodd" fill-opacity="1"/>
<polyline clip-path="url(#clip992)" style="stroke:#000000; stroke-linecap:round; stroke-linejoin:round; stroke-width:4; stroke-opacity:1; fill:none" points="2146.08,833.468 2235.5,833.468 2235.5,961.202 2146.08,961.202 2146.08,833.468 "/>
<path clip-path="url(#clip990)" d="M423.271 685.62 L423.271 650.421 L446.636 650.421 L446.636 685.62 L423.271 685.62 Z" fill="#ffffff" fill-rule="nonzero" fill-opacity="1" /><path clip-path="url(#clip990)" d="M446.057 685.62 L446.057 650.421 L469.422 650.421 L469.422 685.62 L446.057 685.62 Z" fill="#ffffff" fill-rule="nonzero" fill-opacity="1" /><path clip-path="url(#clip990)" d="M468.843 685.62 L468.843 650.421 L492.208 650.421 L492.208 685.62 L468.843 685.62 Z" fill="#ffffff" fill-rule="nonzero" fill-opacity="1" /><path clip-path="url(#clip990)" d="M491.63 685.62 L491.63 650.421 L514.995 650.421 L514.995 685.62 L491.63 685.62 Z" fill="#ffffff" fill-rule="nonzero" fill-opacity="1" /><path clip-path="url(#clip990)" d="M514.416 685.62 L514.416 650.421 L537.781 650.421 L537.781 685.62 L514.416 685.62 Z" fill="#ffffff" fill-rule="nonzero" fill-opacity="1" /><path clip-path="url(#clip990)" d="M537.202 685.62 L537.202 650.421 L560.567 650.421 L560.567 685.62 L537.202 685.62 Z" fill="#ffffff" fill-rule="nonzero" fill-opacity="1" /><path clip-path="url(#clip990)" d="M653.193 685.62 L653.193 650.421 L676.558 650.421 L676.558 685.62 L653.193 685.62 Z" fill="#ffffff" fill-rule="nonzero" fill-opacity="1" /><path clip-path="url(#clip990)" d="M675.979 685.62 L675.979 650.421 L699.344 650.421 L699.344 685.62 L675.979 685.62 Z" fill="#ffffff" fill-rule="nonzero" fill-opacity="1" /><path clip-path="url(#clip990)" d="M698.766 685.62 L698.766 650.421 L722.131 650.421 L722.131 685.62 L698.766 685.62 Z" fill="#ffffff" fill-rule="nonzero" fill-opacity="1" /><path clip-path="url(#clip990)" d="M721.552 685.62 L721.552 650.421 L744.917 650.421 L744.917 685.62 L721.552 685.62 Z" fill="#ffffff" fill-rule="nonzero" fill-opacity="1" /><path clip-path="url(#clip990)" d="M744.338 685.62 L744.338 650.421 L767.703 650.421 L767.703 685.62 L744.338 685.62 Z" fill="#ffffff" fill-rule="nonzero" fill-opacity="1" /><path clip-path="url(#clip990)" d="M767.125 685.62 L767.125 650.421 L790.49 650.421 L790.49 685.62 L767.125 685.62 Z" fill="#ffffff" fill-rule="nonzero" fill-opacity="1" /><path clip-path="url(#clip990)" d="M876.728 685.62 L876.728 650.421 L900.093 650.421 L900.093 685.62 L876.728 685.62 Z" fill="#ffffff" fill-rule="nonzero" fill-opacity="1" /><path clip-path="url(#clip990)" d="M899.515 685.62 L899.515 650.421 L922.88 650.421 L922.88 685.62 L899.515 685.62 Z" fill="#ffffff" fill-rule="nonzero" fill-opacity="1" /><path clip-path="url(#clip990)" d="M922.301 685.62 L922.301 650.421 L945.666 650.421 L945.666 685.62 L922.301 685.62 Z" fill="#ffffff" fill-rule="nonzero" fill-opacity="1" /><path clip-path="url(#clip990)" d="M945.087 685.62 L945.087 650.421 L968.452 650.421 L968.452 685.62 L945.087 685.62 Z" fill="#ffffff" fill-rule="nonzero" fill-opacity="1" /><path clip-path="url(#clip990)" d="M967.874 685.62 L967.874 650.421 L991.239 650.421 L991.239 685.62 L967.874 685.62 Z" fill="#ffffff" fill-rule="nonzero" fill-opacity="1" /><path clip-path="url(#clip990)" d="M990.66 685.62 L990.66 650.421 L1014.03 650.421 L1014.03 685.62 L990.66 685.62 Z" fill="#ffffff" fill-rule="nonzero" fill-opacity="1" /><path clip-path="url(#clip990)" d="M1100.26 685.62 L1100.26 650.421 L1123.63 650.421 L1123.63 685.62 L1100.26 685.62 Z" fill="#ffffff" fill-rule="nonzero" fill-opacity="1" /><path clip-path="url(#clip990)" d="M1123.05 685.62 L1123.05 650.421 L1146.42 650.421 L1146.42 685.62 L1123.05 685.62 Z" fill="#ffffff" fill-rule="nonzero" fill-opacity="1" /><path clip-path="url(#clip990)" d="M1145.84 685.62 L1145.84 650.421 L1169.2 650.421 L1169.2 685.62 L1145.84 685.62 Z" fill="#ffffff" fill-rule="nonzero" fill-opacity="1" /><path clip-path="url(#clip990)" d="M1168.62 685.62 L1168.62 650.421 L1191.99 650.421 L1191.99 685.62 L1168.62 685.62 Z" fill="#ffffff" fill-rule="nonzero" fill-opacity="1" /><path clip-path="url(#clip990)" d="M1191.41 685.62 L1191.41 650.421 L1214.77 650.421 L1214.77 685.62 L1191.41 685.62 Z" fill="#ffffff" fill-rule="nonzero" fill-opacity="1" /><path clip-path="url(#clip990)" d="M1214.2 685.62 L1214.2 650.421 L1237.56 650.421 L1237.56 685.62 L1214.2 685.62 Z" fill="#ffffff" fill-rule="nonzero" fill-opacity="1" /><path clip-path="url(#clip990)" d="M1330.19 685.62 L1330.19 650.421 L1353.55 650.421 L1353.55 685.62 L1330.19 685.62 Z" fill="#ffffff" fill-rule="nonzero" fill-opacity="1" /><path clip-path="url(#clip990)" d="M1352.97 685.62 L1352.97 650.421 L1376.34 650.421 L1376.34 685.62 L1352.97 685.62 Z" fill="#ffffff" fill-rule="nonzero" fill-opacity="1" /><path clip-path="url(#clip990)" d="M1375.76 685.62 L1375.76 650.421 L1399.12 650.421 L1399.12 685.62 L1375.76 685.62 Z" fill="#ffffff" fill-rule="nonzero" fill-opacity="1" /><path clip-path="url(#clip990)" d="M1398.54 685.62 L1398.54 650.421 L1421.91 650.421 L1421.91 685.62 L1398.54 685.62 Z" fill="#ffffff" fill-rule="nonzero" fill-opacity="1" /><path clip-path="url(#clip990)" d="M1421.33 685.62 L1421.33 650.421 L1444.7 650.421 L1444.7 685.62 L1421.33 685.62 Z" fill="#ffffff" fill-rule="nonzero" fill-opacity="1" /><path clip-path="url(#clip990)" d="M1444.12 685.62 L1444.12 650.421 L1467.48 650.421 L1467.48 685.62 L1444.12 685.62 Z" fill="#ffffff" fill-rule="nonzero" fill-opacity="1" /><path clip-path="url(#clip990)" d="M1560.11 685.62 L1560.11 650.421 L1583.47 650.421 L1583.47 685.62 L1560.11 685.62 Z" fill="#ffffff" fill-rule="nonzero" fill-opacity="1" /><path clip-path="url(#clip990)" d="M1582.89 685.62 L1582.89 650.421 L1606.26 650.421 L1606.26 685.62 L1582.89 685.62 Z" fill="#ffffff" fill-rule="nonzero" fill-opacity="1" /><path clip-path="url(#clip990)" d="M1605.68 685.62 L1605.68 650.421 L1629.05 650.421 L1629.05 685.62 L1605.68 685.62 Z" fill="#ffffff" fill-rule="nonzero" fill-opacity="1" /><path clip-path="url(#clip990)" d="M1628.47 685.62 L1628.47 650.421 L1651.83 650.421 L1651.83 685.62 L1628.47 685.62 Z" fill="#ffffff" fill-rule="nonzero" fill-opacity="1" /><path clip-path="url(#clip990)" d="M1651.25 685.62 L1651.25 650.421 L1674.62 650.421 L1674.62 685.62 L1651.25 685.62 Z" fill="#ffffff" fill-rule="nonzero" fill-opacity="1" /><path clip-path="url(#clip990)" d="M1674.04 685.62 L1674.04 650.421 L1697.4 650.421 L1697.4 685.62 L1674.04 685.62 Z" fill="#ffffff" fill-rule="nonzero" fill-opacity="1" /><path clip-path="url(#clip990)" d="M1790.03 685.62 L1790.03 650.421 L1813.4 650.421 L1813.4 685.62 L1790.03 685.62 Z" fill="#ffffff" fill-rule="nonzero" fill-opacity="1" /><path clip-path="url(#clip990)" d="M1812.82 685.62 L1812.82 650.421 L1836.18 650.421 L1836.18 685.62 L1812.82 685.62 Z" fill="#ffffff" fill-rule="nonzero" fill-opacity="1" /><path clip-path="url(#clip990)" d="M1835.6 685.62 L1835.6 650.421 L1858.97 650.421 L1858.97 685.62 L1835.6 685.62 Z" fill="#ffffff" fill-rule="nonzero" fill-opacity="1" /><path clip-path="url(#clip990)" d="M1858.39 685.62 L1858.39 650.421 L1881.75 650.421 L1881.75 685.62 L1858.39 685.62 Z" fill="#ffffff" fill-rule="nonzero" fill-opacity="1" /><path clip-path="url(#clip990)" d="M1881.18 685.62 L1881.18 650.421 L1904.54 650.421 L1904.54 685.62 L1881.18 685.62 Z" fill="#ffffff" fill-rule="nonzero" fill-opacity="1" /><path clip-path="url(#clip990)" d="M1903.96 685.62 L1903.96 650.421 L1927.33 650.421 L1927.33 685.62 L1903.96 685.62 Z" fill="#ffffff" fill-rule="nonzero" fill-opacity="1" /><path clip-path="url(#clip990)" d="M2019.95 685.62 L2019.95 650.421 L2043.32 650.421 L2043.32 685.62 L2019.95 685.62 Z" fill="#ffffff" fill-rule="nonzero" fill-opacity="1" /><path clip-path="url(#clip990)" d="M2042.74 685.62 L2042.74 650.421 L2066.1 650.421 L2066.1 685.62 L2042.74 685.62 Z" fill="#ffffff" fill-rule="nonzero" fill-opacity="1" /><path clip-path="url(#clip990)" d="M2065.53 685.62 L2065.53 650.421 L2088.89 650.421 L2088.89 685.62 L2065.53 685.62 Z" fill="#ffffff" fill-rule="nonzero" fill-opacity="1" /><path clip-path="url(#clip990)" d="M2088.31 685.62 L2088.31 650.421 L2111.68 650.421 L2111.68 685.62 L2088.31 685.62 Z" fill="#ffffff" fill-rule="nonzero" fill-opacity="1" /><path clip-path="url(#clip990)" d="M2111.1 685.62 L2111.1 650.421 L2134.46 650.421 L2134.46 685.62 L2111.1 685.62 Z" fill="#ffffff" fill-rule="nonzero" fill-opacity="1" /><path clip-path="url(#clip990)" d="M2133.88 685.62 L2133.88 650.421 L2157.25 650.421 L2157.25 685.62 L2133.88 685.62 Z" fill="#ffffff" fill-rule="nonzero" fill-opacity="1" /><path clip-path="url(#clip990)" d="M455.562 677.764 L455.562 675.102 Q456.662 675.623 457.79 675.898 Q458.919 676.173 460.004 676.173 Q462.897 676.173 464.416 674.234 Q465.95 672.281 466.167 668.317 Q465.328 669.561 464.04 670.227 Q462.753 670.892 461.19 670.892 Q457.949 670.892 456.054 668.939 Q454.173 666.971 454.173 663.572 Q454.173 660.244 456.141 658.233 Q458.108 656.222 461.378 656.222 Q465.125 656.222 467.093 659.101 Q469.075 661.966 469.075 667.434 Q469.075 672.541 466.644 675.594 Q464.228 678.632 460.134 678.632 Q459.034 678.632 457.906 678.415 Q456.777 678.198 455.562 677.764 M461.378 668.606 Q463.346 668.606 464.489 667.261 Q465.646 665.915 465.646 663.572 Q465.646 661.242 464.489 659.897 Q463.346 658.537 461.378 658.537 Q459.411 658.537 458.253 659.897 Q457.11 661.242 457.11 663.572 Q457.11 665.915 458.253 667.261 Q459.411 668.606 461.378 668.606 Z" fill="#000000" fill-rule="nonzero" fill-opacity="1" /><path clip-path="url(#clip990)" d="M474.327 674.538 L477.379 674.538 L477.379 678.213 L474.327 678.213 L474.327 674.538 Z" fill="#000000" fill-rule="nonzero" fill-opacity="1" /><path clip-path="url(#clip990)" d="M489.995 658.537 Q487.738 658.537 486.595 660.765 Q485.467 662.978 485.467 667.434 Q485.467 671.876 486.595 674.104 Q487.738 676.318 489.995 676.318 Q492.266 676.318 493.395 674.104 Q494.538 671.876 494.538 667.434 Q494.538 662.978 493.395 660.765 Q492.266 658.537 489.995 658.537 M489.995 656.222 Q493.626 656.222 495.536 659.101 Q497.46 661.966 497.46 667.434 Q497.46 672.889 495.536 675.768 Q493.626 678.632 489.995 678.632 Q486.364 678.632 484.439 675.768 Q482.53 672.889 482.53 667.434 Q482.53 661.966 484.439 659.101 Q486.364 656.222 489.995 656.222 Z" fill="#000000" fill-rule="nonzero" fill-opacity="1" /><path clip-path="url(#clip990)" d="M519.841 655.701 L519.841 657.915 L517.295 657.915 Q515.863 657.915 515.299 658.494 Q514.749 659.072 514.749 660.577 L514.749 662.009 L519.132 662.009 L519.132 664.078 L514.749 664.078 L514.749 678.213 L512.072 678.213 L512.072 664.078 L509.526 664.078 L509.526 662.009 L512.072 662.009 L512.072 660.881 Q512.072 658.175 513.331 656.946 Q514.59 655.701 517.324 655.701 L519.841 655.701 Z" fill="#000000" fill-rule="nonzero" fill-opacity="1" /><path clip-path="url(#clip990)" d="M524.182 657.408 L524.182 662.009 L529.665 662.009 L529.665 664.078 L524.182 664.078 L524.182 672.874 Q524.182 674.856 524.717 675.421 Q525.267 675.985 526.93 675.985 L529.665 675.985 L529.665 678.213 L526.93 678.213 Q523.849 678.213 522.677 677.07 Q521.505 675.912 521.505 672.874 L521.505 664.078 L519.552 664.078 L519.552 662.009 L521.505 662.009 L521.505 657.408 L524.182 657.408 Z" fill="#000000" fill-rule="nonzero" fill-opacity="1" /><path clip-path="url(#clip990)" d="M685.484 677.764 L685.484 675.102 Q686.584 675.623 687.712 675.898 Q688.841 676.173 689.926 676.173 Q692.819 676.173 694.338 674.234 Q695.872 672.281 696.089 668.317 Q695.25 669.561 693.962 670.227 Q692.675 670.892 691.112 670.892 Q687.871 670.892 685.976 668.939 Q684.095 666.971 684.095 663.572 Q684.095 660.244 686.063 658.233 Q688.031 656.222 691.3 656.222 Q695.047 656.222 697.015 659.101 Q698.997 661.966 698.997 667.434 Q698.997 672.541 696.566 675.594 Q694.15 678.632 690.056 678.632 Q688.957 678.632 687.828 678.415 Q686.7 678.198 685.484 677.764 M691.3 668.606 Q693.268 668.606 694.411 667.261 Q695.568 665.915 695.568 663.572 Q695.568 661.242 694.411 659.897 Q693.268 658.537 691.3 658.537 Q689.333 658.537 688.175 659.897 Q687.032 661.242 687.032 663.572 Q687.032 665.915 688.175 667.261 Q689.333 668.606 691.3 668.606 Z" fill="#000000" fill-rule="nonzero" fill-opacity="1" /><path clip-path="url(#clip990)" d="M704.249 674.538 L707.301 674.538 L707.301 678.213 L704.249 678.213 L704.249 674.538 Z" fill="#000000" fill-rule="nonzero" fill-opacity="1" /><path clip-path="url(#clip990)" d="M719.917 658.537 Q717.66 658.537 716.517 660.765 Q715.389 662.978 715.389 667.434 Q715.389 671.876 716.517 674.104 Q717.66 676.318 719.917 676.318 Q722.188 676.318 723.317 674.104 Q724.46 671.876 724.46 667.434 Q724.46 662.978 723.317 660.765 Q722.188 658.537 719.917 658.537 M719.917 656.222 Q723.548 656.222 725.458 659.101 Q727.382 661.966 727.382 667.434 Q727.382 672.889 725.458 675.768 Q723.548 678.632 719.917 678.632 Q716.286 678.632 714.362 675.768 Q712.452 672.889 712.452 667.434 Q712.452 661.966 714.362 659.101 Q716.286 656.222 719.917 656.222 Z" fill="#000000" fill-rule="nonzero" fill-opacity="1" /><path clip-path="url(#clip990)" d="M749.764 655.701 L749.764 657.915 L747.217 657.915 Q745.785 657.915 745.221 658.494 Q744.671 659.072 744.671 660.577 L744.671 662.009 L749.055 662.009 L749.055 664.078 L744.671 664.078 L744.671 678.213 L741.994 678.213 L741.994 664.078 L739.448 664.078 L739.448 662.009 L741.994 662.009 L741.994 660.881 Q741.994 658.175 743.253 656.946 Q744.512 655.701 747.246 655.701 L749.764 655.701 Z" fill="#000000" fill-rule="nonzero" fill-opacity="1" /><path clip-path="url(#clip990)" d="M754.104 657.408 L754.104 662.009 L759.587 662.009 L759.587 664.078 L754.104 664.078 L754.104 672.874 Q754.104 674.856 754.639 675.421 Q755.189 675.985 756.853 675.985 L759.587 675.985 L759.587 678.213 L756.853 678.213 Q753.771 678.213 752.599 677.07 Q751.427 675.912 751.427 672.874 L751.427 664.078 L749.474 664.078 L749.474 662.009 L751.427 662.009 L751.427 657.408 L754.104 657.408 Z" fill="#000000" fill-rule="nonzero" fill-opacity="1" /><path clip-path="url(#clip990)" d="M915.111 667.955 Q913.027 667.955 911.827 669.069 Q910.64 670.183 910.64 672.136 Q910.64 674.09 911.827 675.204 Q913.027 676.318 915.111 676.318 Q917.194 676.318 918.395 675.204 Q919.596 674.075 919.596 672.136 Q919.596 670.183 918.395 669.069 Q917.208 667.955 915.111 667.955 M912.188 666.711 Q910.307 666.248 909.251 664.961 Q908.21 663.673 908.21 661.821 Q908.21 659.231 910.047 657.727 Q911.899 656.222 915.111 656.222 Q918.337 656.222 920.174 657.727 Q922.012 659.231 922.012 661.821 Q922.012 663.673 920.956 664.961 Q919.914 666.248 918.048 666.711 Q920.16 667.203 921.332 668.635 Q922.518 670.068 922.518 672.136 Q922.518 675.276 920.594 676.954 Q918.684 678.632 915.111 678.632 Q911.537 678.632 909.613 676.954 Q907.703 675.276 907.703 672.136 Q907.703 670.068 908.89 668.635 Q910.076 667.203 912.188 666.711 M911.118 662.096 Q911.118 663.774 912.159 664.715 Q913.215 665.655 915.111 665.655 Q916.991 665.655 918.048 664.715 Q919.118 663.774 919.118 662.096 Q919.118 660.418 918.048 659.477 Q916.991 658.537 915.111 658.537 Q913.215 658.537 912.159 659.477 Q911.118 660.418 911.118 662.096 Z" fill="#000000" fill-rule="nonzero" fill-opacity="1" /><path clip-path="url(#clip990)" d="M927.712 674.538 L930.764 674.538 L930.764 678.213 L927.712 678.213 L927.712 674.538 Z" fill="#000000" fill-rule="nonzero" fill-opacity="1" /><path clip-path="url(#clip990)" d="M937.159 656.613 L948.632 656.613 L948.632 659.072 L939.836 659.072 L939.836 664.367 Q940.472 664.15 941.109 664.049 Q941.745 663.933 942.382 663.933 Q945.999 663.933 948.111 665.915 Q950.223 667.897 950.223 671.283 Q950.223 674.769 948.053 676.708 Q945.883 678.632 941.933 678.632 Q940.573 678.632 939.156 678.401 Q937.752 678.169 936.248 677.706 L936.248 674.769 Q937.55 675.478 938.939 675.826 Q940.328 676.173 941.876 676.173 Q944.378 676.173 945.84 674.856 Q947.301 673.54 947.301 671.283 Q947.301 669.026 945.84 667.709 Q944.378 666.393 941.876 666.393 Q940.704 666.393 939.532 666.653 Q938.374 666.914 937.159 667.463 L937.159 656.613 Z" fill="#000000" fill-rule="nonzero" fill-opacity="1" /><path clip-path="url(#clip990)" d="M973.227 655.701 L973.227 657.915 L970.68 657.915 Q969.248 657.915 968.684 658.494 Q968.134 659.072 968.134 660.577 L968.134 662.009 L972.518 662.009 L972.518 664.078 L968.134 664.078 L968.134 678.213 L965.458 678.213 L965.458 664.078 L962.911 664.078 L962.911 662.009 L965.458 662.009 L965.458 660.881 Q965.458 658.175 966.716 656.946 Q967.975 655.701 970.709 655.701 L973.227 655.701 Z" fill="#000000" fill-rule="nonzero" fill-opacity="1" /><path clip-path="url(#clip990)" d="M977.567 657.408 L977.567 662.009 L983.05 662.009 L983.05 664.078 L977.567 664.078 L977.567 672.874 Q977.567 674.856 978.102 675.421 Q978.652 675.985 980.316 675.985 L983.05 675.985 L983.05 678.213 L980.316 678.213 Q977.234 678.213 976.062 677.07 Q974.89 675.912 974.89 672.874 L974.89 664.078 L972.937 664.078 L972.937 662.009 L974.89 662.009 L974.89 657.408 L977.567 657.408 Z" fill="#000000" fill-rule="nonzero" fill-opacity="1" /><path clip-path="url(#clip990)" d="M1132.56 677.764 L1132.56 675.102 Q1133.65 675.623 1134.78 675.898 Q1135.91 676.173 1137 676.173 Q1139.89 676.173 1141.41 674.234 Q1142.94 672.281 1143.16 668.317 Q1142.32 669.561 1141.03 670.227 Q1139.75 670.892 1138.18 670.892 Q1134.94 670.892 1133.05 668.939 Q1131.17 666.971 1131.17 663.572 Q1131.17 660.244 1133.13 658.233 Q1135.1 656.222 1138.37 656.222 Q1142.12 656.222 1144.09 659.101 Q1146.07 661.966 1146.07 667.434 Q1146.07 672.541 1143.64 675.594 Q1141.22 678.632 1137.13 678.632 Q1136.03 678.632 1134.9 678.415 Q1133.77 678.198 1132.56 677.764 M1138.37 668.606 Q1140.34 668.606 1141.48 667.261 Q1142.64 665.915 1142.64 663.572 Q1142.64 661.242 1141.48 659.897 Q1140.34 658.537 1138.37 658.537 Q1136.4 658.537 1135.25 659.897 Q1134.1 661.242 1134.1 663.572 Q1134.1 665.915 1135.25 667.261 Q1136.4 668.606 1138.37 668.606 Z" fill="#000000" fill-rule="nonzero" fill-opacity="1" /><path clip-path="url(#clip990)" d="M1151.32 674.538 L1154.37 674.538 L1154.37 678.213 L1151.32 678.213 L1151.32 674.538 Z" fill="#000000" fill-rule="nonzero" fill-opacity="1" /><path clip-path="url(#clip990)" d="M1166.99 658.537 Q1164.73 658.537 1163.59 660.765 Q1162.46 662.978 1162.46 667.434 Q1162.46 671.876 1163.59 674.104 Q1164.73 676.318 1166.99 676.318 Q1169.26 676.318 1170.39 674.104 Q1171.53 671.876 1171.53 667.434 Q1171.53 662.978 1170.39 660.765 Q1169.26 658.537 1166.99 658.537 M1166.99 656.222 Q1170.62 656.222 1172.53 659.101 Q1174.45 661.966 1174.45 667.434 Q1174.45 672.889 1172.53 675.768 Q1170.62 678.632 1166.99 678.632 Q1163.36 678.632 1161.43 675.768 Q1159.52 672.889 1159.52 667.434 Q1159.52 661.966 1161.43 659.101 Q1163.36 656.222 1166.99 656.222 Z" fill="#000000" fill-rule="nonzero" fill-opacity="1" /><path clip-path="url(#clip990)" d="M1196.83 655.701 L1196.83 657.915 L1194.29 657.915 Q1192.86 657.915 1192.29 658.494 Q1191.74 659.072 1191.74 660.577 L1191.74 662.009 L1196.13 662.009 L1196.13 664.078 L1191.74 664.078 L1191.74 678.213 L1189.07 678.213 L1189.07 664.078 L1186.52 664.078 L1186.52 662.009 L1189.07 662.009 L1189.07 660.881 Q1189.07 658.175 1190.32 656.946 Q1191.58 655.701 1194.32 655.701 L1196.83 655.701 Z" fill="#000000" fill-rule="nonzero" fill-opacity="1" /><path clip-path="url(#clip990)" d="M1201.17 657.408 L1201.17 662.009 L1206.66 662.009 L1206.66 664.078 L1201.17 664.078 L1201.17 672.874 Q1201.17 674.856 1201.71 675.421 Q1202.26 675.985 1203.92 675.985 L1206.66 675.985 L1206.66 678.213 L1203.92 678.213 Q1200.84 678.213 1199.67 677.07 Q1198.5 675.912 1198.5 672.874 L1198.5 664.078 L1196.55 664.078 L1196.55 662.009 L1198.5 662.009 L1198.5 657.408 L1201.17 657.408 Z" fill="#000000" fill-rule="nonzero" fill-opacity="1" /><path clip-path="url(#clip990)" d="M1362.48 677.764 L1362.48 675.102 Q1363.58 675.623 1364.71 675.898 Q1365.83 676.173 1366.92 676.173 Q1369.81 676.173 1371.33 674.234 Q1372.87 672.281 1373.08 668.317 Q1372.24 669.561 1370.96 670.227 Q1369.67 670.892 1368.11 670.892 Q1364.86 670.892 1362.97 668.939 Q1361.09 666.971 1361.09 663.572 Q1361.09 660.244 1363.06 658.233 Q1365.02 656.222 1368.29 656.222 Q1372.04 656.222 1374.01 659.101 Q1375.99 661.966 1375.99 667.434 Q1375.99 672.541 1373.56 675.594 Q1371.14 678.632 1367.05 678.632 Q1365.95 678.632 1364.82 678.415 Q1363.69 678.198 1362.48 677.764 M1368.29 668.606 Q1370.26 668.606 1371.4 667.261 Q1372.56 665.915 1372.56 663.572 Q1372.56 661.242 1371.4 659.897 Q1370.26 658.537 1368.29 658.537 Q1366.33 658.537 1365.17 659.897 Q1364.03 661.242 1364.03 663.572 Q1364.03 665.915 1365.17 667.261 Q1366.33 668.606 1368.29 668.606 Z" fill="#000000" fill-rule="nonzero" fill-opacity="1" /><path clip-path="url(#clip990)" d="M1381.24 674.538 L1384.29 674.538 L1384.29 678.213 L1381.24 678.213 L1381.24 674.538 Z" fill="#000000" fill-rule="nonzero" fill-opacity="1" /><path clip-path="url(#clip990)" d="M1396.91 658.537 Q1394.65 658.537 1393.51 660.765 Q1392.38 662.978 1392.38 667.434 Q1392.38 671.876 1393.51 674.104 Q1394.65 676.318 1396.91 676.318 Q1399.18 676.318 1400.31 674.104 Q1401.45 671.876 1401.45 667.434 Q1401.45 662.978 1400.31 660.765 Q1399.18 658.537 1396.91 658.537 M1396.91 656.222 Q1400.54 656.222 1402.45 659.101 Q1404.38 661.966 1404.38 667.434 Q1404.38 672.889 1402.45 675.768 Q1400.54 678.632 1396.91 678.632 Q1393.28 678.632 1391.35 675.768 Q1389.44 672.889 1389.44 667.434 Q1389.44 661.966 1391.35 659.101 Q1393.28 656.222 1396.91 656.222 Z" fill="#000000" fill-rule="nonzero" fill-opacity="1" /><path clip-path="url(#clip990)" d="M1426.76 655.701 L1426.76 657.915 L1424.21 657.915 Q1422.78 657.915 1422.21 658.494 Q1421.66 659.072 1421.66 660.577 L1421.66 662.009 L1426.05 662.009 L1426.05 664.078 L1421.66 664.078 L1421.66 678.213 L1418.99 678.213 L1418.99 664.078 L1416.44 664.078 L1416.44 662.009 L1418.99 662.009 L1418.99 660.881 Q1418.99 658.175 1420.25 656.946 Q1421.5 655.701 1424.24 655.701 L1426.76 655.701 Z" fill="#000000" fill-rule="nonzero" fill-opacity="1" /><path clip-path="url(#clip990)" d="M1431.1 657.408 L1431.1 662.009 L1436.58 662.009 L1436.58 664.078 L1431.1 664.078 L1431.1 672.874 Q1431.1 674.856 1431.63 675.421 Q1432.18 675.985 1433.85 675.985 L1436.58 675.985 L1436.58 678.213 L1433.85 678.213 Q1430.76 678.213 1429.59 677.07 Q1428.42 675.912 1428.42 672.874 L1428.42 664.078 L1426.47 664.078 L1426.47 662.009 L1428.42 662.009 L1428.42 657.408 L1431.1 657.408 Z" fill="#000000" fill-rule="nonzero" fill-opacity="1" /><path clip-path="url(#clip990)" d="M1592.4 677.764 L1592.4 675.102 Q1593.5 675.623 1594.63 675.898 Q1595.76 676.173 1596.84 676.173 Q1599.73 676.173 1601.25 674.234 Q1602.79 672.281 1603 668.317 Q1602.17 669.561 1600.88 670.227 Q1599.59 670.892 1598.03 670.892 Q1594.79 670.892 1592.89 668.939 Q1591.01 666.971 1591.01 663.572 Q1591.01 660.244 1592.98 658.233 Q1594.95 656.222 1598.22 656.222 Q1601.96 656.222 1603.93 659.101 Q1605.91 661.966 1605.91 667.434 Q1605.91 672.541 1603.48 675.594 Q1601.07 678.632 1596.97 678.632 Q1595.87 678.632 1594.74 678.415 Q1593.61 678.198 1592.4 677.764 M1598.22 668.606 Q1600.18 668.606 1601.33 667.261 Q1602.48 665.915 1602.48 663.572 Q1602.48 661.242 1601.33 659.897 Q1600.18 658.537 1598.22 658.537 Q1596.25 658.537 1595.09 659.897 Q1593.95 661.242 1593.95 663.572 Q1593.95 665.915 1595.09 667.261 Q1596.25 668.606 1598.22 668.606 Z" fill="#000000" fill-rule="nonzero" fill-opacity="1" /><path clip-path="url(#clip990)" d="M1611.16 674.538 L1614.22 674.538 L1614.22 678.213 L1611.16 678.213 L1611.16 674.538 Z" fill="#000000" fill-rule="nonzero" fill-opacity="1" /><path clip-path="url(#clip990)" d="M1626.83 658.537 Q1624.58 658.537 1623.43 660.765 Q1622.3 662.978 1622.3 667.434 Q1622.3 671.876 1623.43 674.104 Q1624.58 676.318 1626.83 676.318 Q1629.1 676.318 1630.23 674.104 Q1631.38 671.876 1631.38 667.434 Q1631.38 662.978 1630.23 660.765 Q1629.1 658.537 1626.83 658.537 M1626.83 656.222 Q1630.46 656.222 1632.37 659.101 Q1634.3 661.966 1634.3 667.434 Q1634.3 672.889 1632.37 675.768 Q1630.46 678.632 1626.83 678.632 Q1623.2 678.632 1621.28 675.768 Q1619.37 672.889 1619.37 667.434 Q1619.37 661.966 1621.28 659.101 Q1623.2 656.222 1626.83 656.222 Z" fill="#000000" fill-rule="nonzero" fill-opacity="1" /><path clip-path="url(#clip990)" d="M1656.68 655.701 L1656.68 657.915 L1654.13 657.915 Q1652.7 657.915 1652.14 658.494 Q1651.59 659.072 1651.59 660.577 L1651.59 662.009 L1655.97 662.009 L1655.97 664.078 L1651.59 664.078 L1651.59 678.213 L1648.91 678.213 L1648.91 664.078 L1646.36 664.078 L1646.36 662.009 L1648.91 662.009 L1648.91 660.881 Q1648.91 658.175 1650.17 656.946 Q1651.43 655.701 1654.16 655.701 L1656.68 655.701 Z" fill="#000000" fill-rule="nonzero" fill-opacity="1" /><path clip-path="url(#clip990)" d="M1661.02 657.408 L1661.02 662.009 L1666.5 662.009 L1666.5 664.078 L1661.02 664.078 L1661.02 672.874 Q1661.02 674.856 1661.55 675.421 Q1662.1 675.985 1663.77 675.985 L1666.5 675.985 L1666.5 678.213 L1663.77 678.213 Q1660.69 678.213 1659.51 677.07 Q1658.34 675.912 1658.34 672.874 L1658.34 664.078 L1656.39 664.078 L1656.39 662.009 L1658.34 662.009 L1658.34 657.408 L1661.02 657.408 Z" fill="#000000" fill-rule="nonzero" fill-opacity="1" /><path clip-path="url(#clip990)" d="M1822.32 677.764 L1822.32 675.102 Q1823.42 675.623 1824.55 675.898 Q1825.68 676.173 1826.76 676.173 Q1829.66 676.173 1831.18 674.234 Q1832.71 672.281 1832.93 668.317 Q1832.09 669.561 1830.8 670.227 Q1829.51 670.892 1827.95 670.892 Q1824.71 670.892 1822.81 668.939 Q1820.93 666.971 1820.93 663.572 Q1820.93 660.244 1822.9 658.233 Q1824.87 656.222 1828.14 656.222 Q1831.88 656.222 1833.85 659.101 Q1835.83 661.966 1835.83 667.434 Q1835.83 672.541 1833.4 675.594 Q1830.99 678.632 1826.89 678.632 Q1825.79 678.632 1824.67 678.415 Q1823.54 678.198 1822.32 677.764 M1828.14 668.606 Q1830.11 668.606 1831.25 667.261 Q1832.41 665.915 1832.41 663.572 Q1832.41 661.242 1831.25 659.897 Q1830.11 658.537 1828.14 658.537 Q1826.17 658.537 1825.01 659.897 Q1823.87 661.242 1823.87 663.572 Q1823.87 665.915 1825.01 667.261 Q1826.17 668.606 1828.14 668.606 Z" fill="#000000" fill-rule="nonzero" fill-opacity="1" /><path clip-path="url(#clip990)" d="M1841.09 674.538 L1844.14 674.538 L1844.14 678.213 L1841.09 678.213 L1841.09 674.538 Z" fill="#000000" fill-rule="nonzero" fill-opacity="1" /><path clip-path="url(#clip990)" d="M1856.75 658.537 Q1854.5 658.537 1853.35 660.765 Q1852.23 662.978 1852.23 667.434 Q1852.23 671.876 1853.35 674.104 Q1854.5 676.318 1856.75 676.318 Q1859.03 676.318 1860.15 674.104 Q1861.3 671.876 1861.3 667.434 Q1861.3 662.978 1860.15 660.765 Q1859.03 658.537 1856.75 658.537 M1856.75 656.222 Q1860.39 656.222 1862.3 659.101 Q1864.22 661.966 1864.22 667.434 Q1864.22 672.889 1862.3 675.768 Q1860.39 678.632 1856.75 678.632 Q1853.12 678.632 1851.2 675.768 Q1849.29 672.889 1849.29 667.434 Q1849.29 661.966 1851.2 659.101 Q1853.12 656.222 1856.75 656.222 Z" fill="#000000" fill-rule="nonzero" fill-opacity="1" /><path clip-path="url(#clip990)" d="M1886.6 655.701 L1886.6 657.915 L1884.05 657.915 Q1882.62 657.915 1882.06 658.494 Q1881.51 659.072 1881.51 660.577 L1881.51 662.009 L1885.89 662.009 L1885.89 664.078 L1881.51 664.078 L1881.51 678.213 L1878.83 678.213 L1878.83 664.078 L1876.29 664.078 L1876.29 662.009 L1878.83 662.009 L1878.83 660.881 Q1878.83 658.175 1880.09 656.946 Q1881.35 655.701 1884.08 655.701 L1886.6 655.701 Z" fill="#000000" fill-rule="nonzero" fill-opacity="1" /><path clip-path="url(#clip990)" d="M1890.94 657.408 L1890.94 662.009 L1896.42 662.009 L1896.42 664.078 L1890.94 664.078 L1890.94 672.874 Q1890.94 674.856 1891.48 675.421 Q1892.03 675.985 1893.69 675.985 L1896.42 675.985 L1896.42 678.213 L1893.69 678.213 Q1890.61 678.213 1889.44 677.07 Q1888.26 675.912 1888.26 672.874 L1888.26 664.078 L1886.31 664.078 L1886.31 662.009 L1888.26 662.009 L1888.26 657.408 L1890.94 657.408 Z" fill="#000000" fill-rule="nonzero" fill-opacity="1" /><path clip-path="url(#clip990)" d="M2052.24 677.764 L2052.24 675.102 Q2053.34 675.623 2054.47 675.898 Q2055.6 676.173 2056.69 676.173 Q2059.58 676.173 2061.1 674.234 Q2062.63 672.281 2062.85 668.317 Q2062.01 669.561 2060.72 670.227 Q2059.43 670.892 2057.87 670.892 Q2054.63 670.892 2052.74 668.939 Q2050.86 666.971 2050.86 663.572 Q2050.86 660.244 2052.82 658.233 Q2054.79 656.222 2058.06 656.222 Q2061.81 656.222 2063.77 659.101 Q2065.76 661.966 2065.76 667.434 Q2065.76 672.541 2063.33 675.594 Q2060.91 678.632 2056.82 678.632 Q2055.72 678.632 2054.59 678.415 Q2053.46 678.198 2052.24 677.764 M2058.06 668.606 Q2060.03 668.606 2061.17 667.261 Q2062.33 665.915 2062.33 663.572 Q2062.33 661.242 2061.17 659.897 Q2060.03 658.537 2058.06 658.537 Q2056.09 658.537 2054.93 659.897 Q2053.79 661.242 2053.79 663.572 Q2053.79 665.915 2054.93 667.261 Q2056.09 668.606 2058.06 668.606 Z" fill="#000000" fill-rule="nonzero" fill-opacity="1" /><path clip-path="url(#clip990)" d="M2071.01 674.538 L2074.06 674.538 L2074.06 678.213 L2071.01 678.213 L2071.01 674.538 Z" fill="#000000" fill-rule="nonzero" fill-opacity="1" /><path clip-path="url(#clip990)" d="M2086.68 658.537 Q2084.42 658.537 2083.28 660.765 Q2082.15 662.978 2082.15 667.434 Q2082.15 671.876 2083.28 674.104 Q2084.42 676.318 2086.68 676.318 Q2088.95 676.318 2090.08 674.104 Q2091.22 671.876 2091.22 667.434 Q2091.22 662.978 2090.08 660.765 Q2088.95 658.537 2086.68 658.537 M2086.68 656.222 Q2090.31 656.222 2092.22 659.101 Q2094.14 661.966 2094.14 667.434 Q2094.14 672.889 2092.22 675.768 Q2090.31 678.632 2086.68 678.632 Q2083.05 678.632 2081.12 675.768 Q2079.21 672.889 2079.21 667.434 Q2079.21 661.966 2081.12 659.101 Q2083.05 656.222 2086.68 656.222 Z" fill="#000000" fill-rule="nonzero" fill-opacity="1" /><path clip-path="url(#clip990)" d="M2116.52 655.701 L2116.52 657.915 L2113.98 657.915 Q2112.54 657.915 2111.98 658.494 Q2111.43 659.072 2111.43 660.577 L2111.43 662.009 L2115.81 662.009 L2115.81 664.078 L2111.43 664.078 L2111.43 678.213 L2108.75 678.213 L2108.75 664.078 L2106.21 664.078 L2106.21 662.009 L2108.75 662.009 L2108.75 660.881 Q2108.75 658.175 2110.01 656.946 Q2111.27 655.701 2114.01 655.701 L2116.52 655.701 Z" fill="#000000" fill-rule="nonzero" fill-opacity="1" /><path clip-path="url(#clip990)" d="M2120.86 657.408 L2120.86 662.009 L2126.35 662.009 L2126.35 664.078 L2120.86 664.078 L2120.86 672.874 Q2120.86 674.856 2121.4 675.421 Q2121.95 675.985 2123.61 675.985 L2126.35 675.985 L2126.35 678.213 L2123.61 678.213 Q2120.53 678.213 2119.36 677.07 Q2118.19 675.912 2118.19 672.874 L2118.19 664.078 L2116.23 664.078 L2116.23 662.009 L2118.19 662.009 L2118.19 657.408 L2120.86 657.408 Z" fill="#000000" fill-rule="nonzero" fill-opacity="1" /></svg>
