<?xml version="1.0" encoding="utf-8"?>
<svg xmlns="http://www.w3.org/2000/svg" xmlns:xlink="http://www.w3.org/1999/xlink" width="600" height="400" viewBox="0 0 2400 1600">
<defs>
  <clipPath id="clip080">
    <rect x="0" y="0" width="2400" height="1600"/>
  </clipPath>
</defs>
<path clip-path="url(#clip080)" d="M0 1600 L2400 1600 L2400 0 L0 0  Z" fill="#ffffff" fill-rule="evenodd" fill-opacity="1"/>
<defs>
  <clipPath id="clip081">
    <rect x="480" y="0" width="1681" height="1600"/>
  </clipPath>
</defs>
<path clip-path="url(#clip080)" d="M240.537 1423.18 L2352.76 1423.18 L2352.76 123.472 L240.537 123.472  Z" fill="#ffffff" fill-rule="evenodd" fill-opacity="1"/>
<defs>
  <clipPath id="clip082">
    <rect x="240" y="123" width="2113" height="1301"/>
  </clipPath>
</defs>
<polyline clip-path="url(#clip082)" style="stroke:#000000; stroke-linecap:round; stroke-linejoin:round; stroke-width:2; stroke-opacity:0.1; fill:none" points="300.317,1423.18 300.317,123.472 "/>
<polyline clip-path="url(#clip082)" style="stroke:#000000; stroke-linecap:round; stroke-linejoin:round; stroke-width:2; stroke-opacity:0.1; fill:none" points="811.255,1423.18 811.255,123.472 "/>
<polyline clip-path="url(#clip082)" style="stroke:#000000; stroke-linecap:round; stroke-linejoin:round; stroke-width:2; stroke-opacity:0.1; fill:none" points="1322.19,1423.18 1322.19,123.472 "/>
<polyline clip-path="url(#clip082)" style="stroke:#000000; stroke-linecap:round; stroke-linejoin:round; stroke-width:2; stroke-opacity:0.1; fill:none" points="1833.13,1423.18 1833.13,123.472 "/>
<polyline clip-path="url(#clip082)" style="stroke:#000000; stroke-linecap:round; stroke-linejoin:round; stroke-width:2; stroke-opacity:0.1; fill:none" points="2344.07,1423.18 2344.07,123.472 "/>
<polyline clip-path="url(#clip082)" style="stroke:#000000; stroke-linecap:round; stroke-linejoin:round; stroke-width:2; stroke-opacity:0.1; fill:none" points="240.537,1369.95 2352.76,1369.95 "/>
<polyline clip-path="url(#clip082)" style="stroke:#000000; stroke-linecap:round; stroke-linejoin:round; stroke-width:2; stroke-opacity:0.1; fill:none" points="240.537,1114.48 2352.76,1114.48 "/>
<polyline clip-path="url(#clip082)" style="stroke:#000000; stroke-linecap:round; stroke-linejoin:round; stroke-width:2; stroke-opacity:0.1; fill:none" points="240.537,859.015 2352.76,859.015 "/>
<polyline clip-path="url(#clip082)" style="stroke:#000000; stroke-linecap:round; stroke-linejoin:round; stroke-width:2; stroke-opacity:0.1; fill:none" points="240.537,603.545 2352.76,603.545 "/>
<polyline clip-path="url(#clip082)" style="stroke:#000000; stroke-linecap:round; stroke-linejoin:round; stroke-width:2; stroke-opacity:0.1; fill:none" points="240.537,348.076 2352.76,348.076 "/>
<polyline clip-path="url(#clip080)" style="stroke:#000000; stroke-linecap:round; stroke-linejoin:round; stroke-width:4; stroke-opacity:1; fill:none" points="240.537,1423.18 2352.76,1423.18 "/>
<polyline clip-path="url(#clip080)" style="stroke:#000000; stroke-linecap:round; stroke-linejoin:round; stroke-width:4; stroke-opacity:1; fill:none" points="300.317,1423.18 300.317,1404.28 "/>
<polyline clip-path="url(#clip080)" style="stroke:#000000; stroke-linecap:round; stroke-linejoin:round; stroke-width:4; stroke-opacity:1; fill:none" points="811.255,1423.18 811.255,1404.28 "/>
<polyline clip-path="url(#clip080)" style="stroke:#000000; stroke-linecap:round; stroke-linejoin:round; stroke-width:4; stroke-opacity:1; fill:none" points="1322.19,1423.18 1322.19,1404.28 "/>
<polyline clip-path="url(#clip080)" style="stroke:#000000; stroke-linecap:round; stroke-linejoin:round; stroke-width:4; stroke-opacity:1; fill:none" points="1833.13,1423.18 1833.13,1404.28 "/>
<polyline clip-path="url(#clip080)" style="stroke:#000000; stroke-linecap:round; stroke-linejoin:round; stroke-width:4; stroke-opacity:1; fill:none" points="2344.07,1423.18 2344.07,1404.28 "/>
<path clip-path="url(#clip080)" d="M300.317 1454.1 Q296.706 1454.1 294.877 1457.66 Q293.072 1461.2 293.072 1468.33 Q293.072 1475.44 294.877 1479.01 Q296.706 1482.55 300.317 1482.55 Q303.951 1482.55 305.757 1479.01 Q307.586 1475.44 307.586 1468.33 Q307.586 1461.2 305.757 1457.66 Q303.951 1454.1 300.317 1454.1 M300.317 1450.39 Q306.127 1450.39 309.183 1455 Q312.262 1459.58 312.262 1468.33 Q312.262 1477.06 309.183 1481.67 Q306.127 1486.25 300.317 1486.25 Q294.507 1486.25 291.428 1481.67 Q288.373 1477.06 288.373 1468.33 Q288.373 1459.58 291.428 1455 Q294.507 1450.39 300.317 1450.39 Z" fill="#000000" fill-rule="nonzero" fill-opacity="1" /><path clip-path="url(#clip080)" d="M790.029 1481.64 L806.348 1481.64 L806.348 1485.58 L784.404 1485.58 L784.404 1481.64 Q787.066 1478.89 791.649 1474.26 Q796.255 1469.61 797.436 1468.27 Q799.681 1465.74 800.561 1464.01 Q801.464 1462.25 801.464 1460.56 Q801.464 1457.8 799.519 1456.07 Q797.598 1454.33 794.496 1454.33 Q792.297 1454.33 789.843 1455.09 Q787.413 1455.86 784.635 1457.41 L784.635 1452.69 Q787.459 1451.55 789.913 1450.97 Q792.367 1450.39 794.404 1450.39 Q799.774 1450.39 802.968 1453.08 Q806.163 1455.77 806.163 1460.26 Q806.163 1462.39 805.353 1464.31 Q804.566 1466.2 802.459 1468.8 Q801.88 1469.47 798.779 1472.69 Q795.677 1475.88 790.029 1481.64 Z" fill="#000000" fill-rule="nonzero" fill-opacity="1" /><path clip-path="url(#clip080)" d="M826.163 1454.1 Q822.552 1454.1 820.723 1457.66 Q818.917 1461.2 818.917 1468.33 Q818.917 1475.44 820.723 1479.01 Q822.552 1482.55 826.163 1482.55 Q829.797 1482.55 831.603 1479.01 Q833.431 1475.44 833.431 1468.33 Q833.431 1461.2 831.603 1457.66 Q829.797 1454.1 826.163 1454.1 M826.163 1450.39 Q831.973 1450.39 835.028 1455 Q838.107 1459.58 838.107 1468.33 Q838.107 1477.06 835.028 1481.67 Q831.973 1486.25 826.163 1486.25 Q820.353 1486.25 817.274 1481.67 Q814.218 1477.06 814.218 1468.33 Q814.218 1459.58 817.274 1455 Q820.353 1450.39 826.163 1450.39 Z" fill="#000000" fill-rule="nonzero" fill-opacity="1" /><path clip-path="url(#clip080)" d="M1310.36 1455.09 L1298.56 1473.54 L1310.36 1473.54 L1310.36 1455.09 M1309.14 1451.02 L1315.02 1451.02 L1315.02 1473.54 L1319.95 1473.54 L1319.95 1477.43 L1315.02 1477.43 L1315.02 1485.58 L1310.36 1485.58 L1310.36 1477.43 L1294.76 1477.43 L1294.76 1472.92 L1309.14 1451.02 Z" fill="#000000" fill-rule="nonzero" fill-opacity="1" /><path clip-path="url(#clip080)" d="M1337.68 1454.1 Q1334.07 1454.1 1332.24 1457.66 Q1330.43 1461.2 1330.43 1468.33 Q1330.43 1475.44 1332.24 1479.01 Q1334.07 1482.55 1337.68 1482.55 Q1341.31 1482.55 1343.12 1479.01 Q1344.95 1475.44 1344.95 1468.33 Q1344.95 1461.2 1343.12 1457.66 Q1341.31 1454.1 1337.68 1454.1 M1337.68 1450.39 Q1343.49 1450.39 1346.55 1455 Q1349.62 1459.58 1349.62 1468.33 Q1349.62 1477.06 1346.55 1481.67 Q1343.49 1486.25 1337.68 1486.25 Q1331.87 1486.25 1328.79 1481.67 Q1325.74 1477.06 1325.74 1468.33 Q1325.74 1459.58 1328.79 1455 Q1331.87 1450.39 1337.68 1450.39 Z" fill="#000000" fill-rule="nonzero" fill-opacity="1" /><path clip-path="url(#clip080)" d="M1818.54 1466.44 Q1815.39 1466.44 1813.54 1468.59 Q1811.71 1470.74 1811.71 1474.49 Q1811.71 1478.22 1813.54 1480.39 Q1815.39 1482.55 1818.54 1482.55 Q1821.69 1482.55 1823.51 1480.39 Q1825.37 1478.22 1825.37 1474.49 Q1825.37 1470.74 1823.51 1468.59 Q1821.69 1466.44 1818.54 1466.44 M1827.82 1451.78 L1827.82 1456.04 Q1826.06 1455.21 1824.25 1454.77 Q1822.47 1454.33 1820.71 1454.33 Q1816.08 1454.33 1813.63 1457.45 Q1811.2 1460.58 1810.85 1466.9 Q1812.22 1464.89 1814.28 1463.82 Q1816.34 1462.73 1818.81 1462.73 Q1824.02 1462.73 1827.03 1465.9 Q1830.06 1469.05 1830.06 1474.49 Q1830.06 1479.82 1826.92 1483.03 Q1823.77 1486.25 1818.54 1486.25 Q1812.54 1486.25 1809.37 1481.67 Q1806.2 1477.06 1806.2 1468.33 Q1806.2 1460.14 1810.09 1455.28 Q1813.98 1450.39 1820.53 1450.39 Q1822.29 1450.39 1824.07 1450.74 Q1825.87 1451.09 1827.82 1451.78 Z" fill="#000000" fill-rule="nonzero" fill-opacity="1" /><path clip-path="url(#clip080)" d="M1848.12 1454.1 Q1844.51 1454.1 1842.68 1457.66 Q1840.87 1461.2 1840.87 1468.33 Q1840.87 1475.44 1842.68 1479.01 Q1844.51 1482.55 1848.12 1482.55 Q1851.75 1482.55 1853.56 1479.01 Q1855.39 1475.44 1855.39 1468.33 Q1855.39 1461.2 1853.56 1457.66 Q1851.75 1454.1 1848.12 1454.1 M1848.12 1450.39 Q1853.93 1450.39 1856.99 1455 Q1860.06 1459.58 1860.06 1468.33 Q1860.06 1477.06 1856.99 1481.67 Q1853.93 1486.25 1848.12 1486.25 Q1842.31 1486.25 1839.23 1481.67 Q1836.18 1477.06 1836.18 1468.33 Q1836.18 1459.58 1839.23 1455 Q1842.31 1450.39 1848.12 1450.39 Z" fill="#000000" fill-rule="nonzero" fill-opacity="1" /><path clip-path="url(#clip080)" d="M2328.94 1469.17 Q2325.61 1469.17 2323.69 1470.95 Q2321.79 1472.73 2321.79 1475.86 Q2321.79 1478.98 2323.69 1480.77 Q2325.61 1482.55 2328.94 1482.55 Q2332.28 1482.55 2334.2 1480.77 Q2336.12 1478.96 2336.12 1475.86 Q2336.12 1472.73 2334.2 1470.95 Q2332.3 1469.17 2328.94 1469.17 M2324.27 1467.18 Q2321.26 1466.44 2319.57 1464.38 Q2317.9 1462.32 2317.9 1459.35 Q2317.9 1455.21 2320.84 1452.8 Q2323.8 1450.39 2328.94 1450.39 Q2334.1 1450.39 2337.04 1452.8 Q2339.98 1455.21 2339.98 1459.35 Q2339.98 1462.32 2338.29 1464.38 Q2336.63 1466.44 2333.64 1467.18 Q2337.02 1467.96 2338.9 1470.26 Q2340.79 1472.55 2340.79 1475.86 Q2340.79 1480.88 2337.72 1483.57 Q2334.66 1486.25 2328.94 1486.25 Q2323.23 1486.25 2320.15 1483.57 Q2317.09 1480.88 2317.09 1475.86 Q2317.09 1472.55 2318.99 1470.26 Q2320.89 1467.96 2324.27 1467.18 M2322.55 1459.79 Q2322.55 1462.48 2324.22 1463.98 Q2325.91 1465.49 2328.94 1465.49 Q2331.95 1465.49 2333.64 1463.98 Q2335.35 1462.48 2335.35 1459.79 Q2335.35 1457.11 2333.64 1455.6 Q2331.95 1454.1 2328.94 1454.1 Q2325.91 1454.1 2324.22 1455.6 Q2322.55 1457.11 2322.55 1459.79 Z" fill="#000000" fill-rule="nonzero" fill-opacity="1" /><path clip-path="url(#clip080)" d="M2359.1 1454.1 Q2355.49 1454.1 2353.66 1457.66 Q2351.86 1461.2 2351.86 1468.33 Q2351.86 1475.44 2353.66 1479.01 Q2355.49 1482.55 2359.1 1482.55 Q2362.74 1482.55 2364.54 1479.01 Q2366.37 1475.44 2366.37 1468.33 Q2366.37 1461.2 2364.54 1457.66 Q2362.74 1454.1 2359.1 1454.1 M2359.1 1450.39 Q2364.91 1450.39 2367.97 1455 Q2371.05 1459.58 2371.05 1468.33 Q2371.05 1477.06 2367.97 1481.67 Q2364.91 1486.25 2359.1 1486.25 Q2353.29 1486.25 2350.22 1481.67 Q2347.16 1477.06 2347.16 1468.33 Q2347.16 1459.58 2350.22 1455 Q2353.29 1450.39 2359.1 1450.39 Z" fill="#000000" fill-rule="nonzero" fill-opacity="1" /><path clip-path="url(#clip080)" d="M1107.09 1525.81 L1107.09 1562.76 L1114.86 1562.76 Q1124.69 1562.76 1129.24 1558.3 Q1133.83 1553.85 1133.83 1544.24 Q1133.83 1534.69 1129.24 1530.26 Q1124.69 1525.81 1114.86 1525.81 L1107.09 1525.81 M1100.66 1520.52 L1113.87 1520.52 Q1127.68 1520.52 1134.15 1526.28 Q1140.61 1532.01 1140.61 1544.24 Q1140.61 1556.52 1134.11 1562.28 Q1127.62 1568.04 1113.87 1568.04 L1100.66 1568.04 L1100.66 1520.52 Z" fill="#000000" fill-rule="nonzero" fill-opacity="1" /><path clip-path="url(#clip080)" d="M1150.6 1532.4 L1156.46 1532.4 L1156.46 1568.04 L1150.6 1568.04 L1150.6 1532.4 M1150.6 1518.52 L1156.46 1518.52 L1156.46 1525.93 L1150.6 1525.93 L1150.6 1518.52 Z" fill="#000000" fill-rule="nonzero" fill-opacity="1" /><path clip-path="url(#clip080)" d="M1191.44 1533.45 L1191.44 1538.98 Q1188.95 1537.71 1186.28 1537.07 Q1183.61 1536.44 1180.74 1536.44 Q1176.38 1536.44 1174.19 1537.77 Q1172.02 1539.11 1172.02 1541.79 Q1172.02 1543.82 1173.58 1545 Q1175.14 1546.15 1179.85 1547.2 L1181.86 1547.64 Q1188.1 1548.98 1190.71 1551.43 Q1193.35 1553.85 1193.35 1558.21 Q1193.35 1563.17 1189.4 1566.07 Q1185.49 1568.97 1178.61 1568.97 Q1175.75 1568.97 1172.63 1568.39 Q1169.54 1567.85 1166.1 1566.74 L1166.1 1560.69 Q1169.35 1562.38 1172.5 1563.24 Q1175.65 1564.07 1178.74 1564.07 Q1182.88 1564.07 1185.1 1562.66 Q1187.33 1561.23 1187.33 1558.65 Q1187.33 1556.27 1185.71 1554.99 Q1184.12 1553.72 1178.67 1552.54 L1176.64 1552.07 Q1171.19 1550.92 1168.78 1548.56 Q1166.36 1546.18 1166.36 1542.04 Q1166.36 1537.01 1169.92 1534.27 Q1173.49 1531.54 1180.04 1531.54 Q1183.29 1531.54 1186.15 1532.01 Q1189.02 1532.49 1191.44 1533.45 Z" fill="#000000" fill-rule="nonzero" fill-opacity="1" /><path clip-path="url(#clip080)" d="M1208.47 1522.27 L1208.47 1532.4 L1220.53 1532.4 L1220.53 1536.95 L1208.47 1536.95 L1208.47 1556.3 Q1208.47 1560.66 1209.64 1561.9 Q1210.85 1563.14 1214.51 1563.14 L1220.53 1563.14 L1220.53 1568.04 L1214.51 1568.04 Q1207.73 1568.04 1205.16 1565.53 Q1202.58 1562.98 1202.58 1556.3 L1202.58 1536.95 L1198.28 1536.95 L1198.28 1532.4 L1202.58 1532.4 L1202.58 1522.27 L1208.47 1522.27 Z" fill="#000000" fill-rule="nonzero" fill-opacity="1" /><path clip-path="url(#clip080)" d="M1244.43 1550.12 Q1237.33 1550.12 1234.6 1551.75 Q1231.86 1553.37 1231.86 1557.29 Q1231.86 1560.4 1233.9 1562.25 Q1235.97 1564.07 1239.5 1564.07 Q1244.37 1564.07 1247.3 1560.63 Q1250.26 1557.16 1250.26 1551.43 L1250.26 1550.12 L1244.43 1550.12 M1256.11 1547.71 L1256.11 1568.04 L1250.26 1568.04 L1250.26 1562.63 Q1248.25 1565.88 1245.26 1567.44 Q1242.27 1568.97 1237.94 1568.97 Q1232.46 1568.97 1229.22 1565.91 Q1226 1562.82 1226 1557.67 Q1226 1551.65 1230.01 1548.6 Q1234.06 1545.54 1242.04 1545.54 L1250.26 1545.54 L1250.26 1544.97 Q1250.26 1540.93 1247.58 1538.73 Q1244.94 1536.5 1240.14 1536.5 Q1237.08 1536.5 1234.18 1537.23 Q1231.29 1537.97 1228.61 1539.43 L1228.61 1534.02 Q1231.83 1532.78 1234.85 1532.17 Q1237.88 1531.54 1240.74 1531.54 Q1248.47 1531.54 1252.29 1535.55 Q1256.11 1539.56 1256.11 1547.71 Z" fill="#000000" fill-rule="nonzero" fill-opacity="1" /><path clip-path="url(#clip080)" d="M1297.81 1546.53 L1297.81 1568.04 L1291.95 1568.04 L1291.95 1546.72 Q1291.95 1541.66 1289.98 1539.14 Q1288.01 1536.63 1284.06 1536.63 Q1279.32 1536.63 1276.58 1539.65 Q1273.84 1542.68 1273.84 1547.9 L1273.84 1568.04 L1267.95 1568.04 L1267.95 1532.4 L1273.84 1532.4 L1273.84 1537.93 Q1275.94 1534.72 1278.77 1533.13 Q1281.64 1531.54 1285.36 1531.54 Q1291.51 1531.54 1294.66 1535.36 Q1297.81 1539.14 1297.81 1546.53 Z" fill="#000000" fill-rule="nonzero" fill-opacity="1" /><path clip-path="url(#clip080)" d="M1335.14 1533.76 L1335.14 1539.24 Q1332.66 1537.87 1330.15 1537.2 Q1327.66 1536.5 1325.12 1536.5 Q1319.42 1536.5 1316.27 1540.13 Q1313.12 1543.73 1313.12 1550.25 Q1313.12 1556.78 1316.27 1560.4 Q1319.42 1564 1325.12 1564 Q1327.66 1564 1330.15 1563.33 Q1332.66 1562.63 1335.14 1561.26 L1335.14 1566.68 Q1332.69 1567.82 1330.05 1568.39 Q1327.44 1568.97 1324.48 1568.97 Q1316.43 1568.97 1311.69 1563.91 Q1306.94 1558.85 1306.94 1550.25 Q1306.94 1541.53 1311.72 1536.53 Q1316.52 1531.54 1324.86 1531.54 Q1327.57 1531.54 1330.15 1532.11 Q1332.72 1532.65 1335.14 1533.76 Z" fill="#000000" fill-rule="nonzero" fill-opacity="1" /><path clip-path="url(#clip080)" d="M1375.82 1548.76 L1375.82 1551.62 L1348.89 1551.62 Q1349.28 1557.67 1352.52 1560.85 Q1355.8 1564 1361.62 1564 Q1365 1564 1368.15 1563.17 Q1371.33 1562.35 1374.45 1560.69 L1374.45 1566.23 Q1371.3 1567.57 1367.99 1568.27 Q1364.68 1568.97 1361.27 1568.97 Q1352.74 1568.97 1347.75 1564 Q1342.78 1559.04 1342.78 1550.57 Q1342.78 1541.82 1347.49 1536.69 Q1352.24 1531.54 1360.26 1531.54 Q1367.45 1531.54 1371.62 1536.18 Q1375.82 1540.8 1375.82 1548.76 M1369.96 1547.04 Q1369.9 1542.23 1367.26 1539.37 Q1364.65 1536.5 1360.32 1536.5 Q1355.42 1536.5 1352.46 1539.27 Q1349.53 1542.04 1349.08 1547.07 L1369.96 1547.04 Z" fill="#000000" fill-rule="nonzero" fill-opacity="1" /><path clip-path="url(#clip080)" d="M1420.22 1518.58 Q1415.96 1525.9 1413.89 1533.06 Q1411.82 1540.23 1411.82 1547.58 Q1411.82 1554.93 1413.89 1562.16 Q1415.99 1569.35 1420.22 1576.64 L1415.13 1576.64 Q1410.35 1569.16 1407.97 1561.93 Q1405.61 1554.71 1405.61 1547.58 Q1405.61 1540.48 1407.97 1533.29 Q1410.32 1526.09 1415.13 1518.58 L1420.22 1518.58 Z" fill="#000000" fill-rule="nonzero" fill-opacity="1" /><path clip-path="url(#clip080)" d="M1449.63 1518.52 L1449.63 1523.39 L1444.03 1523.39 Q1440.88 1523.39 1439.64 1524.66 Q1438.43 1525.93 1438.43 1529.24 L1438.43 1532.4 L1448.07 1532.4 L1448.07 1536.95 L1438.43 1536.95 L1438.43 1568.04 L1432.54 1568.04 L1432.54 1536.95 L1426.94 1536.95 L1426.94 1532.4 L1432.54 1532.4 L1432.54 1529.91 Q1432.54 1523.96 1435.31 1521.26 Q1438.08 1518.52 1444.09 1518.52 L1449.63 1518.52 Z" fill="#000000" fill-rule="nonzero" fill-opacity="1" /><path clip-path="url(#clip080)" d="M1459.18 1522.27 L1459.18 1532.4 L1471.24 1532.4 L1471.24 1536.95 L1459.18 1536.95 L1459.18 1556.3 Q1459.18 1560.66 1460.36 1561.9 Q1461.57 1563.14 1465.23 1563.14 L1471.24 1563.14 L1471.24 1568.04 L1465.23 1568.04 Q1458.45 1568.04 1455.87 1565.53 Q1453.29 1562.98 1453.29 1556.3 L1453.29 1536.95 L1448.99 1536.95 L1448.99 1532.4 L1453.29 1532.4 L1453.29 1522.27 L1459.18 1522.27 Z" fill="#000000" fill-rule="nonzero" fill-opacity="1" /><path clip-path="url(#clip080)" d="M1478.02 1518.58 L1483.11 1518.58 Q1487.89 1526.09 1490.24 1533.29 Q1492.63 1540.48 1492.63 1547.58 Q1492.63 1554.71 1490.24 1561.93 Q1487.89 1569.16 1483.11 1576.64 L1478.02 1576.64 Q1482.25 1569.35 1484.32 1562.16 Q1486.42 1554.93 1486.42 1547.58 Q1486.42 1540.23 1484.32 1533.06 Q1482.25 1525.9 1478.02 1518.58 Z" fill="#000000" fill-rule="nonzero" fill-opacity="1" /><polyline clip-path="url(#clip080)" style="stroke:#000000; stroke-linecap:round; stroke-linejoin:round; stroke-width:4; stroke-opacity:1; fill:none" points="240.537,1423.18 240.537,123.472 "/>
<polyline clip-path="url(#clip080)" style="stroke:#000000; stroke-linecap:round; stroke-linejoin:round; stroke-width:4; stroke-opacity:1; fill:none" points="240.537,1369.95 259.435,1369.95 "/>
<polyline clip-path="url(#clip080)" style="stroke:#000000; stroke-linecap:round; stroke-linejoin:round; stroke-width:4; stroke-opacity:1; fill:none" points="240.537,1114.48 259.435,1114.48 "/>
<polyline clip-path="url(#clip080)" style="stroke:#000000; stroke-linecap:round; stroke-linejoin:round; stroke-width:4; stroke-opacity:1; fill:none" points="240.537,859.015 259.435,859.015 "/>
<polyline clip-path="url(#clip080)" style="stroke:#000000; stroke-linecap:round; stroke-linejoin:round; stroke-width:4; stroke-opacity:1; fill:none" points="240.537,603.545 259.435,603.545 "/>
<polyline clip-path="url(#clip080)" style="stroke:#000000; stroke-linecap:round; stroke-linejoin:round; stroke-width:4; stroke-opacity:1; fill:none" points="240.537,348.076 259.435,348.076 "/>
<path clip-path="url(#clip080)" d="M112.663 1370.4 L142.339 1370.4 L142.339 1374.34 L112.663 1374.34 L112.663 1370.4 Z" fill="#000000" fill-rule="nonzero" fill-opacity="1" /><path clip-path="url(#clip080)" d="M166.598 1368.6 Q169.954 1369.32 171.829 1371.58 Q173.727 1373.85 173.727 1377.19 Q173.727 1382.3 170.209 1385.1 Q166.69 1387.9 160.209 1387.9 Q158.033 1387.9 155.718 1387.46 Q153.427 1387.05 150.973 1386.19 L150.973 1381.68 Q152.917 1382.81 155.232 1383.39 Q157.547 1383.97 160.07 1383.97 Q164.468 1383.97 166.76 1382.23 Q169.075 1380.5 169.075 1377.19 Q169.075 1374.13 166.922 1372.42 Q164.792 1370.68 160.973 1370.68 L156.945 1370.68 L156.945 1366.84 L161.158 1366.84 Q164.607 1366.84 166.436 1365.47 Q168.264 1364.08 168.264 1361.49 Q168.264 1358.83 166.366 1357.42 Q164.491 1355.98 160.973 1355.98 Q159.052 1355.98 156.853 1356.4 Q154.653 1356.82 152.015 1357.7 L152.015 1353.53 Q154.677 1352.79 156.991 1352.42 Q159.329 1352.05 161.39 1352.05 Q166.714 1352.05 169.815 1354.48 Q172.917 1356.89 172.917 1361.01 Q172.917 1363.88 171.274 1365.87 Q169.63 1367.83 166.598 1368.6 Z" fill="#000000" fill-rule="nonzero" fill-opacity="1" /><path clip-path="url(#clip080)" d="M192.593 1355.75 Q188.982 1355.75 187.153 1359.32 Q185.348 1362.86 185.348 1369.99 Q185.348 1377.09 187.153 1380.66 Q188.982 1384.2 192.593 1384.2 Q196.227 1384.2 198.033 1380.66 Q199.862 1377.09 199.862 1369.99 Q199.862 1362.86 198.033 1359.32 Q196.227 1355.75 192.593 1355.75 M192.593 1352.05 Q198.403 1352.05 201.459 1356.65 Q204.537 1361.24 204.537 1369.99 Q204.537 1378.71 201.459 1383.32 Q198.403 1387.9 192.593 1387.9 Q186.783 1387.9 183.704 1383.32 Q180.649 1378.71 180.649 1369.99 Q180.649 1361.24 183.704 1356.65 Q186.783 1352.05 192.593 1352.05 Z" fill="#000000" fill-rule="nonzero" fill-opacity="1" /><path clip-path="url(#clip080)" d="M112.663 1114.94 L142.339 1114.94 L142.339 1118.87 L112.663 1118.87 L112.663 1114.94 Z" fill="#000000" fill-rule="nonzero" fill-opacity="1" /><path clip-path="url(#clip080)" d="M156.459 1127.83 L172.778 1127.83 L172.778 1131.76 L150.834 1131.76 L150.834 1127.83 Q153.496 1125.07 158.079 1120.44 Q162.686 1115.79 163.866 1114.45 Q166.112 1111.93 166.991 1110.19 Q167.894 1108.43 167.894 1106.74 Q167.894 1103.99 165.95 1102.25 Q164.028 1100.51 160.927 1100.51 Q158.728 1100.51 156.274 1101.28 Q153.843 1102.04 151.066 1103.59 L151.066 1098.87 Q153.89 1097.74 156.343 1097.16 Q158.797 1096.58 160.834 1096.58 Q166.204 1096.58 169.399 1099.26 Q172.593 1101.95 172.593 1106.44 Q172.593 1108.57 171.783 1110.49 Q170.996 1112.39 168.889 1114.98 Q168.311 1115.65 165.209 1118.87 Q162.107 1122.06 156.459 1127.83 Z" fill="#000000" fill-rule="nonzero" fill-opacity="1" /><path clip-path="url(#clip080)" d="M192.593 1100.28 Q188.982 1100.28 187.153 1103.85 Q185.348 1107.39 185.348 1114.52 Q185.348 1121.62 187.153 1125.19 Q188.982 1128.73 192.593 1128.73 Q196.227 1128.73 198.033 1125.19 Q199.862 1121.62 199.862 1114.52 Q199.862 1107.39 198.033 1103.85 Q196.227 1100.28 192.593 1100.28 M192.593 1096.58 Q198.403 1096.58 201.459 1101.19 Q204.537 1105.77 204.537 1114.52 Q204.537 1123.25 201.459 1127.85 Q198.403 1132.43 192.593 1132.43 Q186.783 1132.43 183.704 1127.85 Q180.649 1123.25 180.649 1114.52 Q180.649 1105.77 183.704 1101.19 Q186.783 1096.58 192.593 1096.58 Z" fill="#000000" fill-rule="nonzero" fill-opacity="1" /><path clip-path="url(#clip080)" d="M112.663 859.466 L142.339 859.466 L142.339 863.401 L112.663 863.401 L112.663 859.466 Z" fill="#000000" fill-rule="nonzero" fill-opacity="1" /><path clip-path="url(#clip080)" d="M153.241 872.359 L160.88 872.359 L160.88 845.994 L152.57 847.66 L152.57 843.401 L160.834 841.735 L165.51 841.735 L165.51 872.359 L173.149 872.359 L173.149 876.295 L153.241 876.295 L153.241 872.359 Z" fill="#000000" fill-rule="nonzero" fill-opacity="1" /><path clip-path="url(#clip080)" d="M192.593 844.813 Q188.982 844.813 187.153 848.378 Q185.348 851.92 185.348 859.049 Q185.348 866.156 187.153 869.721 Q188.982 873.262 192.593 873.262 Q196.227 873.262 198.033 869.721 Q199.862 866.156 199.862 859.049 Q199.862 851.92 198.033 848.378 Q196.227 844.813 192.593 844.813 M192.593 841.11 Q198.403 841.11 201.459 845.716 Q204.537 850.299 204.537 859.049 Q204.537 867.776 201.459 872.383 Q198.403 876.966 192.593 876.966 Q186.783 876.966 183.704 872.383 Q180.649 867.776 180.649 859.049 Q180.649 850.299 183.704 845.716 Q186.783 841.11 192.593 841.11 Z" fill="#000000" fill-rule="nonzero" fill-opacity="1" /><path clip-path="url(#clip080)" d="M192.593 589.344 Q188.982 589.344 187.153 592.909 Q185.348 596.451 185.348 603.58 Q185.348 610.687 187.153 614.251 Q188.982 617.793 192.593 617.793 Q196.227 617.793 198.033 614.251 Q199.862 610.687 199.862 603.58 Q199.862 596.451 198.033 592.909 Q196.227 589.344 192.593 589.344 M192.593 585.64 Q198.403 585.64 201.459 590.247 Q204.537 594.83 204.537 603.58 Q204.537 612.307 201.459 616.913 Q198.403 621.497 192.593 621.497 Q186.783 621.497 183.704 616.913 Q180.649 612.307 180.649 603.58 Q180.649 594.83 183.704 590.247 Q186.783 585.64 192.593 585.64 Z" fill="#000000" fill-rule="nonzero" fill-opacity="1" /><path clip-path="url(#clip080)" d="M153.241 361.421 L160.88 361.421 L160.88 335.056 L152.57 336.722 L152.57 332.463 L160.834 330.796 L165.51 330.796 L165.51 361.421 L173.149 361.421 L173.149 365.356 L153.241 365.356 L153.241 361.421 Z" fill="#000000" fill-rule="nonzero" fill-opacity="1" /><path clip-path="url(#clip080)" d="M192.593 333.875 Q188.982 333.875 187.153 337.44 Q185.348 340.982 185.348 348.111 Q185.348 355.218 187.153 358.782 Q188.982 362.324 192.593 362.324 Q196.227 362.324 198.033 358.782 Q199.862 355.218 199.862 348.111 Q199.862 340.982 198.033 337.44 Q196.227 333.875 192.593 333.875 M192.593 330.171 Q198.403 330.171 201.459 334.778 Q204.537 339.361 204.537 348.111 Q204.537 356.838 201.459 361.444 Q198.403 366.028 192.593 366.028 Q186.783 366.028 183.704 361.444 Q180.649 356.838 180.649 348.111 Q180.649 339.361 183.704 334.778 Q186.783 330.171 192.593 330.171 Z" fill="#000000" fill-rule="nonzero" fill-opacity="1" /><path clip-path="url(#clip080)" d="M14.8869 934.538 L14.8869 928.108 L34.366 928.108 L34.366 904.746 L14.8869 904.746 L14.8869 898.317 L62.4069 898.317 L62.4069 904.746 L39.7769 904.746 L39.7769 928.108 L62.4069 928.108 L62.4069 934.538 L14.8869 934.538 Z" fill="#000000" fill-rule="nonzero" fill-opacity="1" /><path clip-path="url(#clip080)" d="M43.1189 855.284 L45.9834 855.284 L45.9834 882.211 Q52.0308 881.829 55.2137 878.583 Q58.3647 875.305 58.3647 869.48 Q58.3647 866.106 57.5372 862.955 Q56.7096 859.772 55.0546 856.653 L60.5927 856.653 Q61.9295 859.804 62.6297 863.114 Q63.33 866.424 63.33 869.83 Q63.33 878.36 58.3647 883.357 Q53.3995 888.322 44.9331 888.322 Q36.1802 888.322 31.0558 883.612 Q25.8996 878.869 25.8996 870.849 Q25.8996 863.655 30.5466 859.486 Q35.1617 855.284 43.1189 855.284 M41.4001 861.141 Q36.594 861.205 33.7294 863.846 Q30.8649 866.456 30.8649 870.785 Q30.8649 875.687 33.6339 878.647 Q36.403 881.575 41.4319 882.02 L41.4001 861.141 Z" fill="#000000" fill-rule="nonzero" fill-opacity="1" /><path clip-path="url(#clip080)" d="M26.759 845.672 L26.759 839.816 L62.4069 839.816 L62.4069 845.672 L26.759 845.672 M12.8817 845.672 L12.8817 839.816 L20.2978 839.816 L20.2978 845.672 L12.8817 845.672 Z" fill="#000000" fill-rule="nonzero" fill-opacity="1" /><path clip-path="url(#clip080)" d="M44.1692 804.104 Q37.8035 804.104 34.3023 806.746 Q30.8012 809.356 30.8012 814.098 Q30.8012 818.809 34.3023 821.451 Q37.8035 824.061 44.1692 824.061 Q50.5031 824.061 54.0042 821.451 Q57.5053 818.809 57.5053 814.098 Q57.5053 809.356 54.0042 806.746 Q50.5031 804.104 44.1692 804.104 M57.9828 798.248 Q67.0857 798.248 71.5099 802.29 Q75.9659 806.332 75.9659 814.671 Q75.9659 817.759 75.4885 820.496 Q75.0429 823.233 74.088 825.811 L68.3907 825.811 Q69.7912 823.233 70.4596 820.719 Q71.128 818.204 71.128 815.594 Q71.128 809.833 68.1043 806.969 Q65.1124 804.104 59.0331 804.104 L56.1367 804.104 Q59.2877 805.918 60.8473 808.751 Q62.4069 811.584 62.4069 815.531 Q62.4069 822.087 57.4099 826.098 Q52.4128 830.108 44.1692 830.108 Q35.8938 830.108 30.8967 826.098 Q25.8996 822.087 25.8996 815.531 Q25.8996 811.584 27.4592 808.751 Q29.0188 805.918 32.1698 804.104 L26.759 804.104 L26.759 798.248 L57.9828 798.248 Z" fill="#000000" fill-rule="nonzero" fill-opacity="1" /><path clip-path="url(#clip080)" d="M40.8909 756.552 L62.4069 756.552 L62.4069 762.409 L41.0818 762.409 Q36.0211 762.409 33.5066 764.382 Q30.9922 766.356 30.9922 770.302 Q30.9922 775.045 34.0159 777.782 Q37.0396 780.519 42.2595 780.519 L62.4069 780.519 L62.4069 786.408 L12.8817 786.408 L12.8817 780.519 L32.2972 780.519 Q29.0825 778.419 27.491 775.586 Q25.8996 772.721 25.8996 768.997 Q25.8996 762.854 29.719 759.703 Q33.5066 756.552 40.8909 756.552 Z" fill="#000000" fill-rule="nonzero" fill-opacity="1" /><path clip-path="url(#clip080)" d="M16.6375 739.078 L26.759 739.078 L26.759 727.015 L31.3105 727.015 L31.3105 739.078 L50.6622 739.078 Q55.0227 739.078 56.264 737.901 Q57.5053 736.691 57.5053 733.031 L57.5053 727.015 L62.4069 727.015 L62.4069 733.031 Q62.4069 739.811 59.8925 742.389 Q57.3462 744.967 50.6622 744.967 L31.3105 744.967 L31.3105 749.264 L26.759 749.264 L26.759 744.967 L16.6375 744.967 L16.6375 739.078 Z" fill="#000000" fill-rule="nonzero" fill-opacity="1" /><path clip-path="url(#clip080)" d="M12.9454 684.524 Q20.266 688.789 27.4274 690.858 Q34.5888 692.927 41.9412 692.927 Q49.2936 692.927 56.5187 690.858 Q63.7119 688.758 71.0006 684.524 L71.0006 689.617 Q63.5209 694.391 56.2959 696.778 Q49.0708 699.134 41.9412 699.134 Q34.8434 699.134 27.6502 696.778 Q20.4569 694.423 12.9454 689.617 L12.9454 684.524 Z" fill="#000000" fill-rule="nonzero" fill-opacity="1" /><path clip-path="url(#clip080)" d="M12.8817 655.115 L17.7515 655.115 L17.7515 660.717 Q17.7515 663.868 19.0247 665.109 Q20.2978 666.318 23.608 666.318 L26.759 666.318 L26.759 656.674 L31.3105 656.674 L31.3105 666.318 L62.4069 666.318 L62.4069 672.207 L31.3105 672.207 L31.3105 677.809 L26.759 677.809 L26.759 672.207 L24.2764 672.207 Q18.3244 672.207 15.619 669.438 Q12.8817 666.669 12.8817 660.653 L12.8817 655.115 Z" fill="#000000" fill-rule="nonzero" fill-opacity="1" /><path clip-path="url(#clip080)" d="M16.6375 645.566 L26.759 645.566 L26.759 633.503 L31.3105 633.503 L31.3105 645.566 L50.6622 645.566 Q55.0227 645.566 56.264 644.389 Q57.5053 643.179 57.5053 639.519 L57.5053 633.503 L62.4069 633.503 L62.4069 639.519 Q62.4069 646.298 59.8925 648.876 Q57.3462 651.455 50.6622 651.455 L31.3105 651.455 L31.3105 655.751 L26.759 655.751 L26.759 651.455 L16.6375 651.455 L16.6375 645.566 Z" fill="#000000" fill-rule="nonzero" fill-opacity="1" /><path clip-path="url(#clip080)" d="M12.9454 626.724 L12.9454 621.631 Q20.4569 616.857 27.6502 614.502 Q34.8434 612.114 41.9412 612.114 Q49.0708 612.114 56.2959 614.502 Q63.5209 616.857 71.0006 621.631 L71.0006 626.724 Q63.7119 622.491 56.5187 620.422 Q49.2936 618.321 41.9412 618.321 Q34.5888 618.321 27.4274 620.422 Q20.266 622.491 12.9454 626.724 Z" fill="#000000" fill-rule="nonzero" fill-opacity="1" /><path clip-path="url(#clip080)" d="M1019.87 12.096 L1054.63 12.096 L1054.63 18.9825 L1028.05 18.9825 L1028.05 36.8065 L1052.03 36.8065 L1052.03 43.6931 L1028.05 43.6931 L1028.05 72.576 L1019.87 72.576 L1019.87 12.096 Z" fill="#000000" fill-rule="nonzero" fill-opacity="1" /><path clip-path="url(#clip080)" d="M1081.89 32.4315 Q1075.89 32.4315 1072.41 37.1306 Q1068.93 41.7891 1068.93 49.9314 Q1068.93 58.0738 1072.37 62.7728 Q1075.85 67.4314 1081.89 67.4314 Q1087.84 67.4314 1091.33 62.7323 Q1094.81 58.0333 1094.81 49.9314 Q1094.81 41.8701 1091.33 37.1711 Q1087.84 32.4315 1081.89 32.4315 M1081.89 26.1121 Q1091.61 26.1121 1097.16 32.4315 Q1102.71 38.7509 1102.71 49.9314 Q1102.71 61.0714 1097.16 67.4314 Q1091.61 73.7508 1081.89 73.7508 Q1072.13 73.7508 1066.58 67.4314 Q1061.07 61.0714 1061.07 49.9314 Q1061.07 38.7509 1066.58 32.4315 Q1072.13 26.1121 1081.89 26.1121 Z" fill="#000000" fill-rule="nonzero" fill-opacity="1" /><path clip-path="url(#clip080)" d="M1141.36 34.1734 Q1140.1 33.4443 1138.6 33.1202 Q1137.14 32.7556 1135.36 32.7556 Q1129.04 32.7556 1125.64 36.8875 Q1122.28 40.9789 1122.28 48.6757 L1122.28 72.576 L1114.78 72.576 L1114.78 27.2059 L1122.28 27.2059 L1122.28 34.2544 Q1124.63 30.1225 1128.39 28.1376 Q1132.16 26.1121 1137.55 26.1121 Q1138.32 26.1121 1139.25 26.2337 Q1140.18 26.3147 1141.31 26.5172 L1141.36 34.1734 Z" fill="#000000" fill-rule="nonzero" fill-opacity="1" /><path clip-path="url(#clip080)" d="M1144.84 27.2059 L1152.29 27.2059 L1161.61 62.6108 L1170.89 27.2059 L1179.68 27.2059 L1188.99 62.6108 L1198.27 27.2059 L1205.72 27.2059 L1193.85 72.576 L1185.06 72.576 L1175.3 35.3887 L1165.5 72.576 L1156.71 72.576 L1144.84 27.2059 Z" fill="#000000" fill-rule="nonzero" fill-opacity="1" /><path clip-path="url(#clip080)" d="M1237.65 49.7694 Q1228.61 49.7694 1225.13 51.8354 Q1221.64 53.9013 1221.64 58.8839 Q1221.64 62.8538 1224.24 65.2034 Q1226.87 67.5124 1231.37 67.5124 Q1237.56 67.5124 1241.29 63.1374 Q1245.06 58.7219 1245.06 51.4303 L1245.06 49.7694 L1237.65 49.7694 M1252.51 46.6907 L1252.51 72.576 L1245.06 72.576 L1245.06 65.6895 Q1242.51 69.8214 1238.7 71.8063 Q1234.89 73.7508 1229.38 73.7508 Q1222.41 73.7508 1218.28 69.8619 Q1214.19 65.9325 1214.19 59.3701 Q1214.19 51.7138 1219.29 47.825 Q1224.44 43.9361 1234.61 43.9361 L1245.06 43.9361 L1245.06 43.2069 Q1245.06 38.0623 1241.66 35.2672 Q1238.29 32.4315 1232.18 32.4315 Q1228.29 32.4315 1224.6 33.3632 Q1220.92 34.295 1217.51 36.1584 L1217.51 29.2718 Q1221.6 27.692 1225.45 26.9223 Q1229.3 26.1121 1232.95 26.1121 Q1242.79 26.1121 1247.65 31.2163 Q1252.51 36.3204 1252.51 46.6907 Z" fill="#000000" fill-rule="nonzero" fill-opacity="1" /><path clip-path="url(#clip080)" d="M1294.16 34.1734 Q1292.9 33.4443 1291.4 33.1202 Q1289.94 32.7556 1288.16 32.7556 Q1281.84 32.7556 1278.44 36.8875 Q1275.08 40.9789 1275.08 48.6757 L1275.08 72.576 L1267.58 72.576 L1267.58 27.2059 L1275.08 27.2059 L1275.08 34.2544 Q1277.43 30.1225 1281.19 28.1376 Q1284.96 26.1121 1290.35 26.1121 Q1291.12 26.1121 1292.05 26.2337 Q1292.98 26.3147 1294.11 26.5172 L1294.16 34.1734 Z" fill="#000000" fill-rule="nonzero" fill-opacity="1" /><path clip-path="url(#clip080)" d="M1330.37 34.0924 L1330.37 9.54393 L1337.82 9.54393 L1337.82 72.576 L1330.37 72.576 L1330.37 65.7705 Q1328.02 69.8214 1324.42 71.8063 Q1320.85 73.7508 1315.83 73.7508 Q1307.6 73.7508 1302.42 67.1883 Q1297.27 60.6258 1297.27 49.9314 Q1297.27 39.2371 1302.42 32.6746 Q1307.6 26.1121 1315.83 26.1121 Q1320.85 26.1121 1324.42 28.0971 Q1328.02 30.0415 1330.37 34.0924 M1304.97 49.9314 Q1304.97 58.1548 1308.33 62.8538 Q1311.74 67.5124 1317.65 67.5124 Q1323.56 67.5124 1326.97 62.8538 Q1330.37 58.1548 1330.37 49.9314 Q1330.37 41.7081 1326.97 37.0496 Q1323.56 32.3505 1317.65 32.3505 Q1311.74 32.3505 1308.33 37.0496 Q1304.97 41.7081 1304.97 49.9314 Z" fill="#000000" fill-rule="nonzero" fill-opacity="1" /><path clip-path="url(#clip080)" d="M1416.13 14.0809 L1416.13 22.0612 Q1411.47 19.8332 1407.34 18.7395 Q1403.21 17.6457 1399.36 17.6457 Q1392.67 17.6457 1389.03 20.2383 Q1385.42 22.8309 1385.42 27.611 Q1385.42 31.6214 1387.81 33.6873 Q1390.24 35.7128 1396.97 36.9686 L1401.91 37.9813 Q1411.06 39.7232 1415.4 44.1387 Q1419.77 48.5136 1419.77 55.8863 Q1419.77 64.6767 1413.86 69.2137 Q1407.99 73.7508 1396.6 73.7508 Q1392.31 73.7508 1387.45 72.7785 Q1382.63 71.8063 1377.44 69.9024 L1377.44 61.4765 Q1382.42 64.2716 1387.2 65.6895 Q1391.98 67.1073 1396.6 67.1073 Q1403.61 67.1073 1407.42 64.3527 Q1411.23 61.598 1411.23 56.4939 Q1411.23 52.0379 1408.47 49.5264 Q1405.76 47.0148 1399.52 45.759 L1394.54 44.7868 Q1385.38 42.9639 1381.29 39.075 Q1377.2 35.1862 1377.2 28.2591 Q1377.2 20.2383 1382.83 15.6203 Q1388.5 11.0023 1398.43 11.0023 Q1402.68 11.0023 1407.09 11.7719 Q1411.51 12.5416 1416.13 14.0809 Z" fill="#000000" fill-rule="nonzero" fill-opacity="1" /><path clip-path="url(#clip080)" d="M1439.42 65.7705 L1439.42 89.8329 L1431.93 89.8329 L1431.93 27.2059 L1439.42 27.2059 L1439.42 34.0924 Q1441.77 30.0415 1445.34 28.0971 Q1448.94 26.1121 1453.92 26.1121 Q1462.19 26.1121 1467.33 32.6746 Q1472.52 39.2371 1472.52 49.9314 Q1472.52 60.6258 1467.33 67.1883 Q1462.19 73.7508 1453.92 73.7508 Q1448.94 73.7508 1445.34 71.8063 Q1441.77 69.8214 1439.42 65.7705 M1464.78 49.9314 Q1464.78 41.7081 1461.38 37.0496 Q1458.01 32.3505 1452.1 32.3505 Q1446.19 32.3505 1442.78 37.0496 Q1439.42 41.7081 1439.42 49.9314 Q1439.42 58.1548 1442.78 62.8538 Q1446.19 67.5124 1452.1 67.5124 Q1458.01 67.5124 1461.38 62.8538 Q1464.78 58.1548 1464.78 49.9314 Z" fill="#000000" fill-rule="nonzero" fill-opacity="1" /><path clip-path="url(#clip080)" d="M1505.49 49.7694 Q1496.46 49.7694 1492.97 51.8354 Q1489.49 53.9013 1489.49 58.8839 Q1489.49 62.8538 1492.08 65.2034 Q1494.72 67.5124 1499.21 67.5124 Q1505.41 67.5124 1509.14 63.1374 Q1512.9 58.7219 1512.9 51.4303 L1512.9 49.7694 L1505.49 49.7694 M1520.36 46.6907 L1520.36 72.576 L1512.9 72.576 L1512.9 65.6895 Q1510.35 69.8214 1506.54 71.8063 Q1502.74 73.7508 1497.23 73.7508 Q1490.26 73.7508 1486.13 69.8619 Q1482.04 65.9325 1482.04 59.3701 Q1482.04 51.7138 1487.14 47.825 Q1492.29 43.9361 1502.45 43.9361 L1512.9 43.9361 L1512.9 43.2069 Q1512.9 38.0623 1509.5 35.2672 Q1506.14 32.4315 1500.02 32.4315 Q1496.13 32.4315 1492.45 33.3632 Q1488.76 34.295 1485.36 36.1584 L1485.36 29.2718 Q1489.45 27.692 1493.3 26.9223 Q1497.15 26.1121 1500.79 26.1121 Q1510.64 26.1121 1515.5 31.2163 Q1520.36 36.3204 1520.36 46.6907 Z" fill="#000000" fill-rule="nonzero" fill-opacity="1" /><path clip-path="url(#clip080)" d="M1573.42 45.1919 L1573.42 72.576 L1565.97 72.576 L1565.97 45.4349 Q1565.97 38.994 1563.46 35.7938 Q1560.95 32.5936 1555.92 32.5936 Q1549.89 32.5936 1546.41 36.4419 Q1542.92 40.2903 1542.92 46.9338 L1542.92 72.576 L1535.43 72.576 L1535.43 27.2059 L1542.92 27.2059 L1542.92 34.2544 Q1545.59 30.163 1549.2 28.1376 Q1552.85 26.1121 1557.59 26.1121 Q1565.4 26.1121 1569.41 30.9732 Q1573.42 35.7938 1573.42 45.1919 Z" fill="#000000" fill-rule="nonzero" fill-opacity="1" /><path clip-path="url(#clip082)" d="M300.317 603.545 L2292.98 603.545 L2292.98 585.45 L300.317 585.45 L300.317 603.545 L300.317 603.545  Z" fill="#d3d3d3" fill-rule="evenodd" fill-opacity="1"/>
<polyline clip-path="url(#clip082)" style="stroke:#000000; stroke-linecap:round; stroke-linejoin:round; stroke-width:4; stroke-opacity:1; fill:none" points="300.317,603.545 2292.98,603.545 2292.98,585.45 300.317,585.45 300.317,603.545 "/>
<path clip-path="url(#clip082)" d="M364.184 609.932 L364.184 617.383 L395.054 625.899 L395.054 689.766 L368.442 706.265 L368.442 724.893 L436.567 724.893 L436.567 706.265 L409.956 689.766 L409.956 625.899 L440.825 617.383 L440.825 609.932 L364.184 609.932 L364.184 609.932  Z" fill="#d3d3d3" fill-rule="evenodd" fill-opacity="1"/>
<polyline clip-path="url(#clip082)" style="stroke:#000000; stroke-linecap:round; stroke-linejoin:round; stroke-width:4; stroke-opacity:1; fill:none" points="364.184,609.932 364.184,617.383 395.054,625.899 395.054,689.766 368.442,706.265 368.442,724.893 436.567,724.893 436.567,706.265 409.956,689.766 409.956,625.899 440.825,617.383 440.825,609.932 364.184,609.932 "/>
<path clip-path="url(#clip082)" d="M568.56 609.932 L568.56 617.383 L599.429 625.899 L599.429 689.766 L572.818 706.265 L572.818 724.893 L640.943 724.893 L640.943 706.265 L614.331 689.766 L614.331 625.899 L645.2 617.383 L645.2 609.932 L568.56 609.932 L568.56 609.932  Z" fill="#d3d3d3" fill-rule="evenodd" fill-opacity="1"/>
<polyline clip-path="url(#clip082)" style="stroke:#000000; stroke-linecap:round; stroke-linejoin:round; stroke-width:4; stroke-opacity:1; fill:none" points="568.56,609.932 568.56,617.383 599.429,625.899 599.429,689.766 572.818,706.265 572.818,724.893 640.943,724.893 640.943,706.265 614.331,689.766 614.331,625.899 645.2,617.383 645.2,609.932 568.56,609.932 "/>
<path clip-path="url(#clip082)" d="M772.935 609.932 L772.935 617.383 L803.804 625.899 L803.804 689.766 L777.193 706.265 L777.193 724.893 L845.318 724.893 L845.318 706.265 L818.707 689.766 L818.707 625.899 L849.576 617.383 L849.576 609.932 L772.935 609.932 L772.935 609.932  Z" fill="#d3d3d3" fill-rule="evenodd" fill-opacity="1"/>
<polyline clip-path="url(#clip082)" style="stroke:#000000; stroke-linecap:round; stroke-linejoin:round; stroke-width:4; stroke-opacity:1; fill:none" points="772.935,609.932 772.935,617.383 803.804,625.899 803.804,689.766 777.193,706.265 777.193,724.893 845.318,724.893 845.318,706.265 818.707,689.766 818.707,625.899 849.576,617.383 849.576,609.932 772.935,609.932 "/>
<path clip-path="url(#clip082)" d="M977.31 609.932 L977.31 617.383 L1008.18 625.899 L1008.18 689.766 L981.568 706.265 L981.568 724.893 L1049.69 724.893 L1049.69 706.265 L1023.08 689.766 L1023.08 625.899 L1053.95 617.383 L1053.95 609.932 L977.31 609.932 L977.31 609.932  Z" fill="#d3d3d3" fill-rule="evenodd" fill-opacity="1"/>
<polyline clip-path="url(#clip082)" style="stroke:#000000; stroke-linecap:round; stroke-linejoin:round; stroke-width:4; stroke-opacity:1; fill:none" points="977.31,609.932 977.31,617.383 1008.18,625.899 1008.18,689.766 981.568,706.265 981.568,724.893 1049.69,724.893 1049.69,706.265 1023.08,689.766 1023.08,625.899 1053.95,617.383 1053.95,609.932 977.31,609.932 "/>
<path clip-path="url(#clip082)" d="M1181.69 609.932 L1181.69 617.383 L1212.55 625.899 L1212.55 689.766 L1185.94 706.265 L1185.94 724.893 L1254.07 724.893 L1254.07 706.265 L1227.46 689.766 L1227.46 625.899 L1258.33 617.383 L1258.33 609.932 L1181.69 609.932 L1181.69 609.932  Z" fill="#d3d3d3" fill-rule="evenodd" fill-opacity="1"/>
<polyline clip-path="url(#clip082)" style="stroke:#000000; stroke-linecap:round; stroke-linejoin:round; stroke-width:4; stroke-opacity:1; fill:none" points="1181.69,609.932 1181.69,617.383 1212.55,625.899 1212.55,689.766 1185.94,706.265 1185.94,724.893 1254.07,724.893 1254.07,706.265 1227.46,689.766 1227.46,625.899 1258.33,617.383 1258.33,609.932 1181.69,609.932 "/>
<path clip-path="url(#clip082)" d="M1386.06 609.932 L1386.06 617.383 L1416.93 625.899 L1416.93 689.766 L1390.32 706.265 L1390.32 724.893 L1458.44 724.893 L1458.44 706.265 L1431.83 689.766 L1431.83 625.899 L1462.7 617.383 L1462.7 609.932 L1386.06 609.932 L1386.06 609.932  Z" fill="#d3d3d3" fill-rule="evenodd" fill-opacity="1"/>
<polyline clip-path="url(#clip082)" style="stroke:#000000; stroke-linecap:round; stroke-linejoin:round; stroke-width:4; stroke-opacity:1; fill:none" points="1386.06,609.932 1386.06,617.383 1416.93,625.899 1416.93,689.766 1390.32,706.265 1390.32,724.893 1458.44,724.893 1458.44,706.265 1431.83,689.766 1431.83,625.899 1462.7,617.383 1462.7,609.932 1386.06,609.932 "/>
<path clip-path="url(#clip082)" d="M1590.44 609.932 L1590.44 617.383 L1621.31 625.899 L1621.31 689.766 L1594.69 706.265 L1594.69 724.893 L1662.82 724.893 L1662.82 706.265 L1636.21 689.766 L1636.21 625.899 L1667.08 617.383 L1667.08 609.932 L1590.44 609.932 L1590.44 609.932  Z" fill="#d3d3d3" fill-rule="evenodd" fill-opacity="1"/>
<polyline clip-path="url(#clip082)" style="stroke:#000000; stroke-linecap:round; stroke-linejoin:round; stroke-width:4; stroke-opacity:1; fill:none" points="1590.44,609.932 1590.44,617.383 1621.31,625.899 1621.31,689.766 1594.69,706.265 1594.69,724.893 1662.82,724.893 1662.82,706.265 1636.21,689.766 1636.21,625.899 1667.08,617.383 1667.08,609.932 1590.44,609.932 "/>
<path clip-path="url(#clip082)" d="M1782.04 609.932 L1782.04 617.383 L1812.91 625.899 L1812.91 689.766 L1786.3 706.265 L1786.3 724.893 L1854.42 724.893 L1854.42 706.265 L1827.81 689.766 L1827.81 625.899 L1858.68 617.383 L1858.68 609.932 L1782.04 609.932 L1782.04 609.932  Z" fill="#d3d3d3" fill-rule="evenodd" fill-opacity="1"/>
<polyline clip-path="url(#clip082)" style="stroke:#000000; stroke-linecap:round; stroke-linejoin:round; stroke-width:4; stroke-opacity:1; fill:none" points="1782.04,609.932 1782.04,617.383 1812.91,625.899 1812.91,689.766 1786.3,706.265 1786.3,724.893 1854.42,724.893 1854.42,706.265 1827.81,689.766 1827.81,625.899 1858.68,617.383 1858.68,609.932 1782.04,609.932 "/>
<path clip-path="url(#clip082)" d="M1986.41 609.932 L1986.41 617.383 L2017.28 625.899 L2017.28 689.766 L1990.67 706.265 L1990.67 724.893 L2058.8 724.893 L2058.8 706.265 L2032.18 689.766 L2032.18 625.899 L2063.05 617.383 L2063.05 609.932 L1986.41 609.932 L1986.41 609.932  Z" fill="#d3d3d3" fill-rule="evenodd" fill-opacity="1"/>
<polyline clip-path="url(#clip082)" style="stroke:#000000; stroke-linecap:round; stroke-linejoin:round; stroke-width:4; stroke-opacity:1; fill:none" points="1986.41,609.932 1986.41,617.383 2017.28,625.899 2017.28,689.766 1990.67,706.265 1990.67,724.893 2058.8,724.893 2058.8,706.265 2032.18,689.766 2032.18,625.899 2063.05,617.383 2063.05,609.932 1986.41,609.932 "/>
<path clip-path="url(#clip082)" d="M2190.79 609.932 L2190.79 617.383 L2221.66 625.899 L2221.66 689.766 L2195.05 706.265 L2195.05 724.893 L2263.17 724.893 L2263.17 706.265 L2236.56 689.766 L2236.56 625.899 L2267.43 617.383 L2267.43 609.932 L2190.79 609.932 L2190.79 609.932  Z" fill="#d3d3d3" fill-rule="evenodd" fill-opacity="1"/>
<polyline clip-path="url(#clip082)" style="stroke:#000000; stroke-linecap:round; stroke-linejoin:round; stroke-width:4; stroke-opacity:1; fill:none" points="2190.79,609.932 2190.79,617.383 2221.66,625.899 2221.66,689.766 2195.05,706.265 2195.05,724.893 2263.17,724.893 2263.17,706.265 2236.56,689.766 2236.56,625.899 2267.43,617.383 2267.43,609.932 2190.79,609.932 "/>
<polyline clip-path="url(#clip082)" style="stroke:#000000; stroke-linecap:round; stroke-linejoin:round; stroke-width:4; stroke-opacity:1; fill:none" points="402.505,667.413 606.88,667.413 811.255,667.413 1015.63,667.413 1220.01,667.413 1424.38,667.413 1628.76,667.413 1820.36,667.413 2024.73,667.413 2229.11,667.413 "/>
<polyline clip-path="url(#clip082)" style="stroke:#000000; stroke-linecap:round; stroke-linejoin:round; stroke-width:4; stroke-opacity:1; fill:none" points="402.505,673.799 402.505,661.026 "/>
<polyline clip-path="url(#clip082)" style="stroke:#000000; stroke-linecap:round; stroke-linejoin:round; stroke-width:4; stroke-opacity:1; fill:none" points="606.88,673.799 606.88,661.026 "/>
<polyline clip-path="url(#clip082)" style="stroke:#000000; stroke-linecap:round; stroke-linejoin:round; stroke-width:4; stroke-opacity:1; fill:none" points="811.255,673.799 811.255,661.026 "/>
<polyline clip-path="url(#clip082)" style="stroke:#000000; stroke-linecap:round; stroke-linejoin:round; stroke-width:4; stroke-opacity:1; fill:none" points="1015.63,673.799 1015.63,661.026 "/>
<polyline clip-path="url(#clip082)" style="stroke:#000000; stroke-linecap:round; stroke-linejoin:round; stroke-width:4; stroke-opacity:1; fill:none" points="1220.01,673.799 1220.01,661.026 "/>
<polyline clip-path="url(#clip082)" style="stroke:#000000; stroke-linecap:round; stroke-linejoin:round; stroke-width:4; stroke-opacity:1; fill:none" points="1424.38,673.799 1424.38,661.026 "/>
<polyline clip-path="url(#clip082)" style="stroke:#000000; stroke-linecap:round; stroke-linejoin:round; stroke-width:4; stroke-opacity:1; fill:none" points="1628.76,673.799 1628.76,661.026 "/>
<polyline clip-path="url(#clip082)" style="stroke:#000000; stroke-linecap:round; stroke-linejoin:round; stroke-width:4; stroke-opacity:1; fill:none" points="1820.36,673.799 1820.36,661.026 "/>
<polyline clip-path="url(#clip082)" style="stroke:#000000; stroke-linecap:round; stroke-linejoin:round; stroke-width:4; stroke-opacity:1; fill:none" points="2024.73,673.799 2024.73,661.026 "/>
<polyline clip-path="url(#clip082)" style="stroke:#000000; stroke-linecap:round; stroke-linejoin:round; stroke-width:4; stroke-opacity:1; fill:none" points="2229.11,673.799 2229.11,661.026 "/>
<circle clip-path="url(#clip082)" style="fill:#000000; stroke:none; fill-opacity:1" cx="402.505" cy="673.799" r="2"/>
<circle clip-path="url(#clip082)" style="fill:#000000; stroke:none; fill-opacity:1" cx="402.505" cy="661.026" r="2"/>
<circle clip-path="url(#clip082)" style="fill:#000000; stroke:none; fill-opacity:1" cx="606.88" cy="673.799" r="2"/>
<circle clip-path="url(#clip082)" style="fill:#000000; stroke:none; fill-opacity:1" cx="606.88" cy="661.026" r="2"/>
<circle clip-path="url(#clip082)" style="fill:#000000; stroke:none; fill-opacity:1" cx="811.255" cy="673.799" r="2"/>
<circle clip-path="url(#clip082)" style="fill:#000000; stroke:none; fill-opacity:1" cx="811.255" cy="661.026" r="2"/>
<circle clip-path="url(#clip082)" style="fill:#000000; stroke:none; fill-opacity:1" cx="1015.63" cy="673.799" r="2"/>
<circle clip-path="url(#clip082)" style="fill:#000000; stroke:none; fill-opacity:1" cx="1015.63" cy="661.026" r="2"/>
<circle clip-path="url(#clip082)" style="fill:#000000; stroke:none; fill-opacity:1" cx="1220.01" cy="673.799" r="2"/>
<circle clip-path="url(#clip082)" style="fill:#000000; stroke:none; fill-opacity:1" cx="1220.01" cy="661.026" r="2"/>
<circle clip-path="url(#clip082)" style="fill:#000000; stroke:none; fill-opacity:1" cx="1424.38" cy="673.799" r="2"/>
<circle clip-path="url(#clip082)" style="fill:#000000; stroke:none; fill-opacity:1" cx="1424.38" cy="661.026" r="2"/>
<circle clip-path="url(#clip082)" style="fill:#000000; stroke:none; fill-opacity:1" cx="1628.76" cy="673.799" r="2"/>
<circle clip-path="url(#clip082)" style="fill:#000000; stroke:none; fill-opacity:1" cx="1628.76" cy="661.026" r="2"/>
<circle clip-path="url(#clip082)" style="fill:#000000; stroke:none; fill-opacity:1" cx="1820.36" cy="673.799" r="2"/>
<circle clip-path="url(#clip082)" style="fill:#000000; stroke:none; fill-opacity:1" cx="1820.36" cy="661.026" r="2"/>
<circle clip-path="url(#clip082)" style="fill:#000000; stroke:none; fill-opacity:1" cx="2024.73" cy="673.799" r="2"/>
<circle clip-path="url(#clip082)" style="fill:#000000; stroke:none; fill-opacity:1" cx="2024.73" cy="661.026" r="2"/>
<circle clip-path="url(#clip082)" style="fill:#000000; stroke:none; fill-opacity:1" cx="2229.11" cy="673.799" r="2"/>
<circle clip-path="url(#clip082)" style="fill:#000000; stroke:none; fill-opacity:1" cx="2229.11" cy="661.026" r="2"/>
<circle clip-path="url(#clip082)" style="fill:#608cf6; stroke:none; fill-opacity:1" cx="504.692" cy="667.413" r="2"/>
<circle clip-path="url(#clip082)" style="fill:#608cf6; stroke:none; fill-opacity:1" cx="709.068" cy="667.413" r="2"/>
<circle clip-path="url(#clip082)" style="fill:#608cf6; stroke:none; fill-opacity:1" cx="913.443" cy="667.413" r="2"/>
<circle clip-path="url(#clip082)" style="fill:#608cf6; stroke:none; fill-opacity:1" cx="1117.82" cy="667.413" r="2"/>
<circle clip-path="url(#clip082)" style="fill:#608cf6; stroke:none; fill-opacity:1" cx="1322.19" cy="667.413" r="2"/>
<circle clip-path="url(#clip082)" style="fill:#608cf6; stroke:none; fill-opacity:1" cx="1526.57" cy="667.413" r="2"/>
<circle clip-path="url(#clip082)" style="fill:#608cf6; stroke:none; fill-opacity:1" cx="1724.56" cy="667.413" r="2"/>
<circle clip-path="url(#clip082)" style="fill:#608cf6; stroke:none; fill-opacity:1" cx="1922.55" cy="667.413" r="2"/>
<circle clip-path="url(#clip082)" style="fill:#608cf6; stroke:none; fill-opacity:1" cx="2126.92" cy="667.413" r="2"/>
<circle clip-path="url(#clip082)" style="fill:#608cf6; stroke:none; fill-opacity:1" cx="504.692" cy="667.413" r="2"/>
<circle clip-path="url(#clip082)" style="fill:#608cf6; stroke:none; fill-opacity:1" cx="709.068" cy="667.413" r="2"/>
<circle clip-path="url(#clip082)" style="fill:#608cf6; stroke:none; fill-opacity:1" cx="913.443" cy="667.413" r="2"/>
<circle clip-path="url(#clip082)" style="fill:#608cf6; stroke:none; fill-opacity:1" cx="1117.82" cy="667.413" r="2"/>
<circle clip-path="url(#clip082)" style="fill:#608cf6; stroke:none; fill-opacity:1" cx="1322.19" cy="667.413" r="2"/>
<circle clip-path="url(#clip082)" style="fill:#608cf6; stroke:none; fill-opacity:1" cx="1526.57" cy="667.413" r="2"/>
<circle clip-path="url(#clip082)" style="fill:#608cf6; stroke:none; fill-opacity:1" cx="1724.56" cy="667.413" r="2"/>
<circle clip-path="url(#clip082)" style="fill:#608cf6; stroke:none; fill-opacity:1" cx="1922.55" cy="667.413" r="2"/>
<circle clip-path="url(#clip082)" style="fill:#608cf6; stroke:none; fill-opacity:1" cx="2126.92" cy="667.413" r="2"/>
<path clip-path="url(#clip082)" d="M300.317 731.28 L2292.98 731.28 L2292.98 833.468 L300.317 833.468 L300.317 731.28 L300.317 731.28  Z" fill="#d3d3d3" fill-rule="evenodd" fill-opacity="1"/>
<polyline clip-path="url(#clip082)" style="stroke:#000000; stroke-linecap:round; stroke-linejoin:round; stroke-width:4; stroke-opacity:1; fill:none" points="300.317,731.28 2292.98,731.28 2292.98,833.468 300.317,833.468 300.317,731.28 "/>
<path clip-path="url(#clip082)" d="M357.798 833.468 L447.212 833.468 L447.212 961.202 L357.798 961.202 L357.798 833.468 L357.798 833.468  Z" fill="#d3d3d3" fill-rule="evenodd" fill-opacity="1"/>
<polyline clip-path="url(#clip082)" style="stroke:#000000; stroke-linecap:round; stroke-linejoin:round; stroke-width:4; stroke-opacity:1; fill:none" points="357.798,833.468 447.212,833.468 447.212,961.202 357.798,961.202 357.798,833.468 "/>
<path clip-path="url(#clip082)" d="M715.454 833.468 L804.869 833.468 L804.869 961.202 L715.454 961.202 L715.454 833.468 L715.454 833.468  Z" fill="#d3d3d3" fill-rule="evenodd" fill-opacity="1"/>
<polyline clip-path="url(#clip082)" style="stroke:#000000; stroke-linecap:round; stroke-linejoin:round; stroke-width:4; stroke-opacity:1; fill:none" points="715.454,833.468 804.869,833.468 804.869,961.202 715.454,961.202 715.454,833.468 "/>
<path clip-path="url(#clip082)" d="M1073.11 833.468 L1162.53 833.468 L1162.53 961.202 L1073.11 961.202 L1073.11 833.468 L1073.11 833.468  Z" fill="#d3d3d3" fill-rule="evenodd" fill-opacity="1"/>
<polyline clip-path="url(#clip082)" style="stroke:#000000; stroke-linecap:round; stroke-linejoin:round; stroke-width:4; stroke-opacity:1; fill:none" points="1073.11,833.468 1162.53,833.468 1162.53,961.202 1073.11,961.202 1073.11,833.468 "/>
<path clip-path="url(#clip082)" d="M1430.77 833.468 L1520.18 833.468 L1520.18 961.202 L1430.77 961.202 L1430.77 833.468 L1430.77 833.468  Z" fill="#d3d3d3" fill-rule="evenodd" fill-opacity="1"/>
<polyline clip-path="url(#clip082)" style="stroke:#000000; stroke-linecap:round; stroke-linejoin:round; stroke-width:4; stroke-opacity:1; fill:none" points="1430.77,833.468 1520.18,833.468 1520.18,961.202 1430.77,961.202 1430.77,833.468 "/>
<path clip-path="url(#clip082)" d="M1788.42 833.468 L1877.84 833.468 L1877.84 961.202 L1788.42 961.202 L1788.42 833.468 L1788.42 833.468  Z" fill="#d3d3d3" fill-rule="evenodd" fill-opacity="1"/>
<polyline clip-path="url(#clip082)" style="stroke:#000000; stroke-linecap:round; stroke-linejoin:round; stroke-width:4; stroke-opacity:1; fill:none" points="1788.42,833.468 1877.84,833.468 1877.84,961.202 1788.42,961.202 1788.42,833.468 "/>
<path clip-path="url(#clip082)" d="M2146.08 833.468 L2235.5 833.468 L2235.5 961.202 L2146.08 961.202 L2146.08 833.468 L2146.08 833.468  Z" fill="#d3d3d3" fill-rule="evenodd" fill-opacity="1"/>
<polyline clip-path="url(#clip082)" style="stroke:#000000; stroke-linecap:round; stroke-linejoin:round; stroke-width:4; stroke-opacity:1; fill:none" points="2146.08,833.468 2235.5,833.468 2235.5,961.202 2146.08,961.202 2146.08,833.468 "/>
<path clip-path="url(#clip080)" d="M436.044 685.62 L436.044 650.421 L459.409 650.421 L459.409 685.62 L436.044 685.62 Z" fill="#ffffff" fill-rule="nonzero" fill-opacity="1" /><path clip-path="url(#clip080)" d="M458.83 685.62 L458.83 650.421 L482.196 650.421 L482.196 685.62 L458.83 685.62 Z" fill="#ffffff" fill-rule="nonzero" fill-opacity="1" /><path clip-path="url(#clip080)" d="M481.617 685.62 L481.617 650.421 L504.982 650.421 L504.982 685.62 L481.617 685.62 Z" fill="#ffffff" fill-rule="nonzero" fill-opacity="1" /><path clip-path="url(#clip080)" d="M504.403 685.62 L504.403 650.421 L527.768 650.421 L527.768 685.62 L504.403 685.62 Z" fill="#ffffff" fill-rule="nonzero" fill-opacity="1" /><path clip-path="url(#clip080)" d="M527.189 685.62 L527.189 650.421 L550.555 650.421 L550.555 685.62 L527.189 685.62 Z" fill="#ffffff" fill-rule="nonzero" fill-opacity="1" /><path clip-path="url(#clip080)" d="M549.976 685.62 L549.976 650.421 L573.341 650.421 L573.341 685.62 L549.976 685.62 Z" fill="#ffffff" fill-rule="nonzero" fill-opacity="1" /><path clip-path="url(#clip080)" d="M640.419 685.62 L640.419 650.421 L663.784 650.421 L663.784 685.62 L640.419 685.62 Z" fill="#ffffff" fill-rule="nonzero" fill-opacity="1" /><path clip-path="url(#clip080)" d="M663.206 685.62 L663.206 650.421 L686.571 650.421 L686.571 685.62 L663.206 685.62 Z" fill="#ffffff" fill-rule="nonzero" fill-opacity="1" /><path clip-path="url(#clip080)" d="M685.992 685.62 L685.992 650.421 L709.357 650.421 L709.357 685.62 L685.992 685.62 Z" fill="#ffffff" fill-rule="nonzero" fill-opacity="1" /><path clip-path="url(#clip080)" d="M708.778 685.62 L708.778 650.421 L732.143 650.421 L732.143 685.62 L708.778 685.62 Z" fill="#ffffff" fill-rule="nonzero" fill-opacity="1" /><path clip-path="url(#clip080)" d="M731.565 685.62 L731.565 650.421 L754.93 650.421 L754.93 685.62 L731.565 685.62 Z" fill="#ffffff" fill-rule="nonzero" fill-opacity="1" /><path clip-path="url(#clip080)" d="M754.351 685.62 L754.351 650.421 L777.716 650.421 L777.716 685.62 L754.351 685.62 Z" fill="#ffffff" fill-rule="nonzero" fill-opacity="1" /><path clip-path="url(#clip080)" d="M844.795 685.62 L844.795 650.421 L868.16 650.421 L868.16 685.62 L844.795 685.62 Z" fill="#ffffff" fill-rule="nonzero" fill-opacity="1" /><path clip-path="url(#clip080)" d="M867.581 685.62 L867.581 650.421 L890.946 650.421 L890.946 685.62 L867.581 685.62 Z" fill="#ffffff" fill-rule="nonzero" fill-opacity="1" /><path clip-path="url(#clip080)" d="M890.367 685.62 L890.367 650.421 L913.732 650.421 L913.732 685.62 L890.367 685.62 Z" fill="#ffffff" fill-rule="nonzero" fill-opacity="1" /><path clip-path="url(#clip080)" d="M913.154 685.62 L913.154 650.421 L936.519 650.421 L936.519 685.62 L913.154 685.62 Z" fill="#ffffff" fill-rule="nonzero" fill-opacity="1" /><path clip-path="url(#clip080)" d="M935.94 685.62 L935.94 650.421 L959.305 650.421 L959.305 685.62 L935.94 685.62 Z" fill="#ffffff" fill-rule="nonzero" fill-opacity="1" /><path clip-path="url(#clip080)" d="M958.726 685.62 L958.726 650.421 L982.091 650.421 L982.091 685.62 L958.726 685.62 Z" fill="#ffffff" fill-rule="nonzero" fill-opacity="1" /><path clip-path="url(#clip080)" d="M1049.17 685.62 L1049.17 650.421 L1072.53 650.421 L1072.53 685.62 L1049.17 685.62 Z" fill="#ffffff" fill-rule="nonzero" fill-opacity="1" /><path clip-path="url(#clip080)" d="M1071.96 685.62 L1071.96 650.421 L1095.32 650.421 L1095.32 685.62 L1071.96 685.62 Z" fill="#ffffff" fill-rule="nonzero" fill-opacity="1" /><path clip-path="url(#clip080)" d="M1094.74 685.62 L1094.74 650.421 L1118.11 650.421 L1118.11 685.62 L1094.74 685.62 Z" fill="#ffffff" fill-rule="nonzero" fill-opacity="1" /><path clip-path="url(#clip080)" d="M1117.53 685.62 L1117.53 650.421 L1140.89 650.421 L1140.89 685.62 L1117.53 685.62 Z" fill="#ffffff" fill-rule="nonzero" fill-opacity="1" /><path clip-path="url(#clip080)" d="M1140.32 685.62 L1140.32 650.421 L1163.68 650.421 L1163.68 685.62 L1140.32 685.62 Z" fill="#ffffff" fill-rule="nonzero" fill-opacity="1" /><path clip-path="url(#clip080)" d="M1163.1 685.62 L1163.1 650.421 L1186.47 650.421 L1186.47 685.62 L1163.1 685.62 Z" fill="#ffffff" fill-rule="nonzero" fill-opacity="1" /><path clip-path="url(#clip080)" d="M1253.55 685.62 L1253.55 650.421 L1276.91 650.421 L1276.91 685.62 L1253.55 685.62 Z" fill="#ffffff" fill-rule="nonzero" fill-opacity="1" /><path clip-path="url(#clip080)" d="M1276.33 685.62 L1276.33 650.421 L1299.7 650.421 L1299.7 685.62 L1276.33 685.62 Z" fill="#ffffff" fill-rule="nonzero" fill-opacity="1" /><path clip-path="url(#clip080)" d="M1299.12 685.62 L1299.12 650.421 L1322.48 650.421 L1322.48 685.62 L1299.12 685.62 Z" fill="#ffffff" fill-rule="nonzero" fill-opacity="1" /><path clip-path="url(#clip080)" d="M1321.9 685.62 L1321.9 650.421 L1345.27 650.421 L1345.27 685.62 L1321.9 685.62 Z" fill="#ffffff" fill-rule="nonzero" fill-opacity="1" /><path clip-path="url(#clip080)" d="M1344.69 685.62 L1344.69 650.421 L1368.06 650.421 L1368.06 685.62 L1344.69 685.62 Z" fill="#ffffff" fill-rule="nonzero" fill-opacity="1" /><path clip-path="url(#clip080)" d="M1367.48 685.62 L1367.48 650.421 L1390.84 650.421 L1390.84 685.62 L1367.48 685.62 Z" fill="#ffffff" fill-rule="nonzero" fill-opacity="1" /><path clip-path="url(#clip080)" d="M1457.92 685.62 L1457.92 650.421 L1481.29 650.421 L1481.29 685.62 L1457.92 685.62 Z" fill="#ffffff" fill-rule="nonzero" fill-opacity="1" /><path clip-path="url(#clip080)" d="M1480.71 685.62 L1480.71 650.421 L1504.07 650.421 L1504.07 685.62 L1480.71 685.62 Z" fill="#ffffff" fill-rule="nonzero" fill-opacity="1" /><path clip-path="url(#clip080)" d="M1503.49 685.62 L1503.49 650.421 L1526.86 650.421 L1526.86 685.62 L1503.49 685.62 Z" fill="#ffffff" fill-rule="nonzero" fill-opacity="1" /><path clip-path="url(#clip080)" d="M1526.28 685.62 L1526.28 650.421 L1549.64 650.421 L1549.64 685.62 L1526.28 685.62 Z" fill="#ffffff" fill-rule="nonzero" fill-opacity="1" /><path clip-path="url(#clip080)" d="M1549.07 685.62 L1549.07 650.421 L1572.43 650.421 L1572.43 685.62 L1549.07 685.62 Z" fill="#ffffff" fill-rule="nonzero" fill-opacity="1" /><path clip-path="url(#clip080)" d="M1571.85 685.62 L1571.85 650.421 L1595.22 650.421 L1595.22 685.62 L1571.85 685.62 Z" fill="#ffffff" fill-rule="nonzero" fill-opacity="1" /><path clip-path="url(#clip080)" d="M1655.91 685.62 L1655.91 650.421 L1679.27 650.421 L1679.27 685.62 L1655.91 685.62 Z" fill="#ffffff" fill-rule="nonzero" fill-opacity="1" /><path clip-path="url(#clip080)" d="M1678.7 685.62 L1678.7 650.421 L1702.06 650.421 L1702.06 685.62 L1678.7 685.62 Z" fill="#ffffff" fill-rule="nonzero" fill-opacity="1" /><path clip-path="url(#clip080)" d="M1701.48 685.62 L1701.48 650.421 L1724.85 650.421 L1724.85 685.62 L1701.48 685.62 Z" fill="#ffffff" fill-rule="nonzero" fill-opacity="1" /><path clip-path="url(#clip080)" d="M1724.27 685.62 L1724.27 650.421 L1747.63 650.421 L1747.63 685.62 L1724.27 685.62 Z" fill="#ffffff" fill-rule="nonzero" fill-opacity="1" /><path clip-path="url(#clip080)" d="M1747.05 685.62 L1747.05 650.421 L1770.42 650.421 L1770.42 685.62 L1747.05 685.62 Z" fill="#ffffff" fill-rule="nonzero" fill-opacity="1" /><path clip-path="url(#clip080)" d="M1769.84 685.62 L1769.84 650.421 L1793.21 650.421 L1793.21 685.62 L1769.84 685.62 Z" fill="#ffffff" fill-rule="nonzero" fill-opacity="1" /><path clip-path="url(#clip080)" d="M1853.9 685.62 L1853.9 650.421 L1877.26 650.421 L1877.26 685.62 L1853.9 685.62 Z" fill="#ffffff" fill-rule="nonzero" fill-opacity="1" /><path clip-path="url(#clip080)" d="M1876.68 685.62 L1876.68 650.421 L1900.05 650.421 L1900.05 685.62 L1876.68 685.62 Z" fill="#ffffff" fill-rule="nonzero" fill-opacity="1" /><path clip-path="url(#clip080)" d="M1899.47 685.62 L1899.47 650.421 L1922.84 650.421 L1922.84 685.62 L1899.47 685.62 Z" fill="#ffffff" fill-rule="nonzero" fill-opacity="1" /><path clip-path="url(#clip080)" d="M1922.26 685.62 L1922.26 650.421 L1945.62 650.421 L1945.62 685.62 L1922.26 685.62 Z" fill="#ffffff" fill-rule="nonzero" fill-opacity="1" /><path clip-path="url(#clip080)" d="M1945.04 685.62 L1945.04 650.421 L1968.41 650.421 L1968.41 685.62 L1945.04 685.62 Z" fill="#ffffff" fill-rule="nonzero" fill-opacity="1" /><path clip-path="url(#clip080)" d="M1967.83 685.62 L1967.83 650.421 L1991.19 650.421 L1991.19 685.62 L1967.83 685.62 Z" fill="#ffffff" fill-rule="nonzero" fill-opacity="1" /><path clip-path="url(#clip080)" d="M2058.27 685.62 L2058.27 650.421 L2081.64 650.421 L2081.64 685.62 L2058.27 685.62 Z" fill="#ffffff" fill-rule="nonzero" fill-opacity="1" /><path clip-path="url(#clip080)" d="M2081.06 685.62 L2081.06 650.421 L2104.42 650.421 L2104.42 685.62 L2081.06 685.62 Z" fill="#ffffff" fill-rule="nonzero" fill-opacity="1" /><path clip-path="url(#clip080)" d="M2103.85 685.62 L2103.85 650.421 L2127.21 650.421 L2127.21 685.62 L2103.85 685.62 Z" fill="#ffffff" fill-rule="nonzero" fill-opacity="1" /><path clip-path="url(#clip080)" d="M2126.63 685.62 L2126.63 650.421 L2150 650.421 L2150 685.62 L2126.63 685.62 Z" fill="#ffffff" fill-rule="nonzero" fill-opacity="1" /><path clip-path="url(#clip080)" d="M2149.42 685.62 L2149.42 650.421 L2172.78 650.421 L2172.78 685.62 L2149.42 685.62 Z" fill="#ffffff" fill-rule="nonzero" fill-opacity="1" /><path clip-path="url(#clip080)" d="M2172.2 685.62 L2172.2 650.421 L2195.57 650.421 L2195.57 685.62 L2172.2 685.62 Z" fill="#ffffff" fill-rule="nonzero" fill-opacity="1" /><path clip-path="url(#clip080)" d="M474.426 667.955 Q472.343 667.955 471.142 669.069 Q469.956 670.183 469.956 672.136 Q469.956 674.09 471.142 675.204 Q472.343 676.318 474.426 676.318 Q476.51 676.318 477.711 675.204 Q478.911 674.075 478.911 672.136 Q478.911 670.183 477.711 669.069 Q476.524 667.955 474.426 667.955 M471.504 666.711 Q469.623 666.248 468.567 664.961 Q467.525 663.673 467.525 661.821 Q467.525 659.231 469.363 657.727 Q471.215 656.222 474.426 656.222 Q477.653 656.222 479.49 657.727 Q481.327 659.231 481.327 661.821 Q481.327 663.673 480.271 664.961 Q479.23 666.248 477.363 666.711 Q479.476 667.203 480.647 668.635 Q481.834 670.068 481.834 672.136 Q481.834 675.276 479.91 676.954 Q478 678.632 474.426 678.632 Q470.853 678.632 468.929 676.954 Q467.019 675.276 467.019 672.136 Q467.019 670.068 468.205 668.635 Q469.392 667.203 471.504 666.711 M470.433 662.096 Q470.433 663.774 471.475 664.715 Q472.531 665.655 474.426 665.655 Q476.307 665.655 477.363 664.715 Q478.434 663.774 478.434 662.096 Q478.434 660.418 477.363 659.477 Q476.307 658.537 474.426 658.537 Q472.531 658.537 471.475 659.477 Q470.433 660.418 470.433 662.096 Z" fill="#000000" fill-rule="nonzero" fill-opacity="1" /><path clip-path="url(#clip080)" d="M487.028 674.538 L490.08 674.538 L490.08 678.213 L487.028 678.213 L487.028 674.538 Z" fill="#000000" fill-rule="nonzero" fill-opacity="1" /><path clip-path="url(#clip080)" d="M502.696 658.537 Q500.439 658.537 499.296 660.765 Q498.168 662.978 498.168 667.434 Q498.168 671.876 499.296 674.104 Q500.439 676.318 502.696 676.318 Q504.967 676.318 506.096 674.104 Q507.239 671.876 507.239 667.434 Q507.239 662.978 506.096 660.765 Q504.967 658.537 502.696 658.537 M502.696 656.222 Q506.327 656.222 508.237 659.101 Q510.161 661.966 510.161 667.434 Q510.161 672.889 508.237 675.768 Q506.327 678.632 502.696 678.632 Q499.065 678.632 497.14 675.768 Q495.231 672.889 495.231 667.434 Q495.231 661.966 497.14 659.101 Q499.065 656.222 502.696 656.222 Z" fill="#000000" fill-rule="nonzero" fill-opacity="1" /><path clip-path="url(#clip080)" d="M532.542 655.701 L532.542 657.915 L529.996 657.915 Q528.564 657.915 528 658.494 Q527.45 659.072 527.45 660.577 L527.45 662.009 L531.834 662.009 L531.834 664.078 L527.45 664.078 L527.45 678.213 L524.773 678.213 L524.773 664.078 L522.227 664.078 L522.227 662.009 L524.773 662.009 L524.773 660.881 Q524.773 658.175 526.032 656.946 Q527.291 655.701 530.025 655.701 L532.542 655.701 Z" fill="#000000" fill-rule="nonzero" fill-opacity="1" /><path clip-path="url(#clip080)" d="M536.883 657.408 L536.883 662.009 L542.366 662.009 L542.366 664.078 L536.883 664.078 L536.883 672.874 Q536.883 674.856 537.418 675.421 Q537.968 675.985 539.632 675.985 L542.366 675.985 L542.366 678.213 L539.632 678.213 Q536.55 678.213 535.378 677.07 Q534.206 675.912 534.206 672.874 L534.206 664.078 L532.253 664.078 L532.253 662.009 L534.206 662.009 L534.206 657.408 L536.883 657.408 Z" fill="#000000" fill-rule="nonzero" fill-opacity="1" /><path clip-path="url(#clip080)" d="M678.802 667.955 Q676.718 667.955 675.518 669.069 Q674.331 670.183 674.331 672.136 Q674.331 674.09 675.518 675.204 Q676.718 676.318 678.802 676.318 Q680.885 676.318 682.086 675.204 Q683.287 674.075 683.287 672.136 Q683.287 670.183 682.086 669.069 Q680.9 667.955 678.802 667.955 M675.879 666.711 Q673.999 666.248 672.942 664.961 Q671.901 663.673 671.901 661.821 Q671.901 659.231 673.738 657.727 Q675.59 656.222 678.802 656.222 Q682.028 656.222 683.865 657.727 Q685.703 659.231 685.703 661.821 Q685.703 663.673 684.647 664.961 Q683.605 666.248 681.739 666.711 Q683.851 667.203 685.023 668.635 Q686.209 670.068 686.209 672.136 Q686.209 675.276 684.285 676.954 Q682.375 678.632 678.802 678.632 Q675.228 678.632 673.304 676.954 Q671.394 675.276 671.394 672.136 Q671.394 670.068 672.581 668.635 Q673.767 667.203 675.879 666.711 M674.809 662.096 Q674.809 663.774 675.85 664.715 Q676.906 665.655 678.802 665.655 Q680.683 665.655 681.739 664.715 Q682.809 663.774 682.809 662.096 Q682.809 660.418 681.739 659.477 Q680.683 658.537 678.802 658.537 Q676.906 658.537 675.85 659.477 Q674.809 660.418 674.809 662.096 Z" fill="#000000" fill-rule="nonzero" fill-opacity="1" /><path clip-path="url(#clip080)" d="M691.403 674.538 L694.456 674.538 L694.456 678.213 L691.403 678.213 L691.403 674.538 Z" fill="#000000" fill-rule="nonzero" fill-opacity="1" /><path clip-path="url(#clip080)" d="M707.071 658.537 Q704.814 658.537 703.671 660.765 Q702.543 662.978 702.543 667.434 Q702.543 671.876 703.671 674.104 Q704.814 676.318 707.071 676.318 Q709.343 676.318 710.471 674.104 Q711.614 671.876 711.614 667.434 Q711.614 662.978 710.471 660.765 Q709.343 658.537 707.071 658.537 M707.071 656.222 Q710.703 656.222 712.612 659.101 Q714.536 661.966 714.536 667.434 Q714.536 672.889 712.612 675.768 Q710.703 678.632 707.071 678.632 Q703.44 678.632 701.516 675.768 Q699.606 672.889 699.606 667.434 Q699.606 661.966 701.516 659.101 Q703.44 656.222 707.071 656.222 Z" fill="#000000" fill-rule="nonzero" fill-opacity="1" /><path clip-path="url(#clip080)" d="M736.918 655.701 L736.918 657.915 L734.371 657.915 Q732.939 657.915 732.375 658.494 Q731.825 659.072 731.825 660.577 L731.825 662.009 L736.209 662.009 L736.209 664.078 L731.825 664.078 L731.825 678.213 L729.149 678.213 L729.149 664.078 L726.602 664.078 L726.602 662.009 L729.149 662.009 L729.149 660.881 Q729.149 658.175 730.407 656.946 Q731.666 655.701 734.4 655.701 L736.918 655.701 Z" fill="#000000" fill-rule="nonzero" fill-opacity="1" /><path clip-path="url(#clip080)" d="M741.258 657.408 L741.258 662.009 L746.741 662.009 L746.741 664.078 L741.258 664.078 L741.258 672.874 Q741.258 674.856 741.793 675.421 Q742.343 675.985 744.007 675.985 L746.741 675.985 L746.741 678.213 L744.007 678.213 Q740.925 678.213 739.753 677.07 Q738.581 675.912 738.581 672.874 L738.581 664.078 L736.628 664.078 L736.628 662.009 L738.581 662.009 L738.581 657.408 L741.258 657.408 Z" fill="#000000" fill-rule="nonzero" fill-opacity="1" /><path clip-path="url(#clip080)" d="M883.177 667.955 Q881.094 667.955 879.893 669.069 Q878.707 670.183 878.707 672.136 Q878.707 674.09 879.893 675.204 Q881.094 676.318 883.177 676.318 Q885.26 676.318 886.461 675.204 Q887.662 674.075 887.662 672.136 Q887.662 670.183 886.461 669.069 Q885.275 667.955 883.177 667.955 M880.255 666.711 Q878.374 666.248 877.318 664.961 Q876.276 663.673 876.276 661.821 Q876.276 659.231 878.113 657.727 Q879.965 656.222 883.177 656.222 Q886.403 656.222 888.241 657.727 Q890.078 659.231 890.078 661.821 Q890.078 663.673 889.022 664.961 Q887.98 666.248 886.114 666.711 Q888.226 667.203 889.398 668.635 Q890.584 670.068 890.584 672.136 Q890.584 675.276 888.66 676.954 Q886.75 678.632 883.177 678.632 Q879.604 678.632 877.679 676.954 Q875.77 675.276 875.77 672.136 Q875.77 670.068 876.956 668.635 Q878.142 667.203 880.255 666.711 M879.184 662.096 Q879.184 663.774 880.226 664.715 Q881.282 665.655 883.177 665.655 Q885.058 665.655 886.114 664.715 Q887.185 663.774 887.185 662.096 Q887.185 660.418 886.114 659.477 Q885.058 658.537 883.177 658.537 Q881.282 658.537 880.226 659.477 Q879.184 660.418 879.184 662.096 Z" fill="#000000" fill-rule="nonzero" fill-opacity="1" /><path clip-path="url(#clip080)" d="M895.778 674.538 L898.831 674.538 L898.831 678.213 L895.778 678.213 L895.778 674.538 Z" fill="#000000" fill-rule="nonzero" fill-opacity="1" /><path clip-path="url(#clip080)" d="M911.447 658.537 Q909.19 658.537 908.047 660.765 Q906.918 662.978 906.918 667.434 Q906.918 671.876 908.047 674.104 Q909.19 676.318 911.447 676.318 Q913.718 676.318 914.846 674.104 Q915.989 671.876 915.989 667.434 Q915.989 662.978 914.846 660.765 Q913.718 658.537 911.447 658.537 M911.447 656.222 Q915.078 656.222 916.988 659.101 Q918.912 661.966 918.912 667.434 Q918.912 672.889 916.988 675.768 Q915.078 678.632 911.447 678.632 Q907.815 678.632 905.891 675.768 Q903.981 672.889 903.981 667.434 Q903.981 661.966 905.891 659.101 Q907.815 656.222 911.447 656.222 Z" fill="#000000" fill-rule="nonzero" fill-opacity="1" /><path clip-path="url(#clip080)" d="M941.293 655.701 L941.293 657.915 L938.747 657.915 Q937.314 657.915 936.75 658.494 Q936.2 659.072 936.2 660.577 L936.2 662.009 L940.584 662.009 L940.584 664.078 L936.2 664.078 L936.2 678.213 L933.524 678.213 L933.524 664.078 L930.978 664.078 L930.978 662.009 L933.524 662.009 L933.524 660.881 Q933.524 658.175 934.783 656.946 Q936.041 655.701 938.776 655.701 L941.293 655.701 Z" fill="#000000" fill-rule="nonzero" fill-opacity="1" /><path clip-path="url(#clip080)" d="M945.633 657.408 L945.633 662.009 L951.116 662.009 L951.116 664.078 L945.633 664.078 L945.633 672.874 Q945.633 674.856 946.169 675.421 Q946.718 675.985 948.382 675.985 L951.116 675.985 L951.116 678.213 L948.382 678.213 Q945.301 678.213 944.129 677.07 Q942.957 675.912 942.957 672.874 L942.957 664.078 L941.004 664.078 L941.004 662.009 L942.957 662.009 L942.957 657.408 L945.633 657.408 Z" fill="#000000" fill-rule="nonzero" fill-opacity="1" /><path clip-path="url(#clip080)" d="M1087.55 667.955 Q1085.47 667.955 1084.27 669.069 Q1083.08 670.183 1083.08 672.136 Q1083.08 674.09 1084.27 675.204 Q1085.47 676.318 1087.55 676.318 Q1089.64 676.318 1090.84 675.204 Q1092.04 674.075 1092.04 672.136 Q1092.04 670.183 1090.84 669.069 Q1089.65 667.955 1087.55 667.955 M1084.63 666.711 Q1082.75 666.248 1081.69 664.961 Q1080.65 663.673 1080.65 661.821 Q1080.65 659.231 1082.49 657.727 Q1084.34 656.222 1087.55 656.222 Q1090.78 656.222 1092.62 657.727 Q1094.45 659.231 1094.45 661.821 Q1094.45 663.673 1093.4 664.961 Q1092.36 666.248 1090.49 666.711 Q1092.6 667.203 1093.77 668.635 Q1094.96 670.068 1094.96 672.136 Q1094.96 675.276 1093.04 676.954 Q1091.13 678.632 1087.55 678.632 Q1083.98 678.632 1082.05 676.954 Q1080.14 675.276 1080.14 672.136 Q1080.14 670.068 1081.33 668.635 Q1082.52 667.203 1084.63 666.711 M1083.56 662.096 Q1083.56 663.774 1084.6 664.715 Q1085.66 665.655 1087.55 665.655 Q1089.43 665.655 1090.49 664.715 Q1091.56 663.774 1091.56 662.096 Q1091.56 660.418 1090.49 659.477 Q1089.43 658.537 1087.55 658.537 Q1085.66 658.537 1084.6 659.477 Q1083.56 660.418 1083.56 662.096 Z" fill="#000000" fill-rule="nonzero" fill-opacity="1" /><path clip-path="url(#clip080)" d="M1100.15 674.538 L1103.21 674.538 L1103.21 678.213 L1100.15 678.213 L1100.15 674.538 Z" fill="#000000" fill-rule="nonzero" fill-opacity="1" /><path clip-path="url(#clip080)" d="M1115.82 658.537 Q1113.56 658.537 1112.42 660.765 Q1111.29 662.978 1111.29 667.434 Q1111.29 671.876 1112.42 674.104 Q1113.56 676.318 1115.82 676.318 Q1118.09 676.318 1119.22 674.104 Q1120.36 671.876 1120.36 667.434 Q1120.36 662.978 1119.22 660.765 Q1118.09 658.537 1115.82 658.537 M1115.82 656.222 Q1119.45 656.222 1121.36 659.101 Q1123.29 661.966 1123.29 667.434 Q1123.29 672.889 1121.36 675.768 Q1119.45 678.632 1115.82 678.632 Q1112.19 678.632 1110.27 675.768 Q1108.36 672.889 1108.36 667.434 Q1108.36 661.966 1110.27 659.101 Q1112.19 656.222 1115.82 656.222 Z" fill="#000000" fill-rule="nonzero" fill-opacity="1" /><path clip-path="url(#clip080)" d="M1145.67 655.701 L1145.67 657.915 L1143.12 657.915 Q1141.69 657.915 1141.13 658.494 Q1140.58 659.072 1140.58 660.577 L1140.58 662.009 L1144.96 662.009 L1144.96 664.078 L1140.58 664.078 L1140.58 678.213 L1137.9 678.213 L1137.9 664.078 L1135.35 664.078 L1135.35 662.009 L1137.9 662.009 L1137.9 660.881 Q1137.9 658.175 1139.16 656.946 Q1140.42 655.701 1143.15 655.701 L1145.67 655.701 Z" fill="#000000" fill-rule="nonzero" fill-opacity="1" /><path clip-path="url(#clip080)" d="M1150.01 657.408 L1150.01 662.009 L1155.49 662.009 L1155.49 664.078 L1150.01 664.078 L1150.01 672.874 Q1150.01 674.856 1150.54 675.421 Q1151.09 675.985 1152.76 675.985 L1155.49 675.985 L1155.49 678.213 L1152.76 678.213 Q1149.68 678.213 1148.5 677.07 Q1147.33 675.912 1147.33 672.874 L1147.33 664.078 L1145.38 664.078 L1145.38 662.009 L1147.33 662.009 L1147.33 657.408 L1150.01 657.408 Z" fill="#000000" fill-rule="nonzero" fill-opacity="1" /><path clip-path="url(#clip080)" d="M1291.93 667.955 Q1289.84 667.955 1288.64 669.069 Q1287.46 670.183 1287.46 672.136 Q1287.46 674.09 1288.64 675.204 Q1289.84 676.318 1291.93 676.318 Q1294.01 676.318 1295.21 675.204 Q1296.41 674.075 1296.41 672.136 Q1296.41 670.183 1295.21 669.069 Q1294.03 667.955 1291.93 667.955 M1289.01 666.711 Q1287.12 666.248 1286.07 664.961 Q1285.03 663.673 1285.03 661.821 Q1285.03 659.231 1286.86 657.727 Q1288.72 656.222 1291.93 656.222 Q1295.15 656.222 1296.99 657.727 Q1298.83 659.231 1298.83 661.821 Q1298.83 663.673 1297.77 664.961 Q1296.73 666.248 1294.86 666.711 Q1296.98 667.203 1298.15 668.635 Q1299.33 670.068 1299.33 672.136 Q1299.33 675.276 1297.41 676.954 Q1295.5 678.632 1291.93 678.632 Q1288.35 678.632 1286.43 676.954 Q1284.52 675.276 1284.52 672.136 Q1284.52 670.068 1285.71 668.635 Q1286.89 667.203 1289.01 666.711 M1287.93 662.096 Q1287.93 663.774 1288.98 664.715 Q1290.03 665.655 1291.93 665.655 Q1293.81 665.655 1294.86 664.715 Q1295.94 663.774 1295.94 662.096 Q1295.94 660.418 1294.86 659.477 Q1293.81 658.537 1291.93 658.537 Q1290.03 658.537 1288.98 659.477 Q1287.93 660.418 1287.93 662.096 Z" fill="#000000" fill-rule="nonzero" fill-opacity="1" /><path clip-path="url(#clip080)" d="M1304.53 674.538 L1307.58 674.538 L1307.58 678.213 L1304.53 678.213 L1304.53 674.538 Z" fill="#000000" fill-rule="nonzero" fill-opacity="1" /><path clip-path="url(#clip080)" d="M1320.2 658.537 Q1317.94 658.537 1316.8 660.765 Q1315.67 662.978 1315.67 667.434 Q1315.67 671.876 1316.8 674.104 Q1317.94 676.318 1320.2 676.318 Q1322.47 676.318 1323.6 674.104 Q1324.74 671.876 1324.74 667.434 Q1324.74 662.978 1323.6 660.765 Q1322.47 658.537 1320.2 658.537 M1320.2 656.222 Q1323.83 656.222 1325.74 659.101 Q1327.66 661.966 1327.66 667.434 Q1327.66 672.889 1325.74 675.768 Q1323.83 678.632 1320.2 678.632 Q1316.57 678.632 1314.64 675.768 Q1312.73 672.889 1312.73 667.434 Q1312.73 661.966 1314.64 659.101 Q1316.57 656.222 1320.2 656.222 Z" fill="#000000" fill-rule="nonzero" fill-opacity="1" /><path clip-path="url(#clip080)" d="M1350.04 655.701 L1350.04 657.915 L1347.5 657.915 Q1346.06 657.915 1345.5 658.494 Q1344.95 659.072 1344.95 660.577 L1344.95 662.009 L1349.33 662.009 L1349.33 664.078 L1344.95 664.078 L1344.95 678.213 L1342.27 678.213 L1342.27 664.078 L1339.73 664.078 L1339.73 662.009 L1342.27 662.009 L1342.27 660.881 Q1342.27 658.175 1343.53 656.946 Q1344.79 655.701 1347.53 655.701 L1350.04 655.701 Z" fill="#000000" fill-rule="nonzero" fill-opacity="1" /><path clip-path="url(#clip080)" d="M1354.38 657.408 L1354.38 662.009 L1359.87 662.009 L1359.87 664.078 L1354.38 664.078 L1354.38 672.874 Q1354.38 674.856 1354.92 675.421 Q1355.47 675.985 1357.13 675.985 L1359.87 675.985 L1359.87 678.213 L1357.13 678.213 Q1354.05 678.213 1352.88 677.07 Q1351.71 675.912 1351.71 672.874 L1351.71 664.078 L1349.75 664.078 L1349.75 662.009 L1351.71 662.009 L1351.71 657.408 L1354.38 657.408 Z" fill="#000000" fill-rule="nonzero" fill-opacity="1" /><path clip-path="url(#clip080)" d="M1496.3 667.955 Q1494.22 667.955 1493.02 669.069 Q1491.83 670.183 1491.83 672.136 Q1491.83 674.09 1493.02 675.204 Q1494.22 676.318 1496.3 676.318 Q1498.39 676.318 1499.59 675.204 Q1500.79 674.075 1500.79 672.136 Q1500.79 670.183 1499.59 669.069 Q1498.4 667.955 1496.3 667.955 M1493.38 666.711 Q1491.5 666.248 1490.44 664.961 Q1489.4 663.673 1489.4 661.821 Q1489.4 659.231 1491.24 657.727 Q1493.09 656.222 1496.3 656.222 Q1499.53 656.222 1501.37 657.727 Q1503.2 659.231 1503.2 661.821 Q1503.2 663.673 1502.15 664.961 Q1501.11 666.248 1499.24 666.711 Q1501.35 667.203 1502.52 668.635 Q1503.71 670.068 1503.71 672.136 Q1503.71 675.276 1501.79 676.954 Q1499.88 678.632 1496.3 678.632 Q1492.73 678.632 1490.81 676.954 Q1488.9 675.276 1488.9 672.136 Q1488.9 670.068 1490.08 668.635 Q1491.27 667.203 1493.38 666.711 M1492.31 662.096 Q1492.31 663.774 1493.35 664.715 Q1494.41 665.655 1496.3 665.655 Q1498.18 665.655 1499.24 664.715 Q1500.31 663.774 1500.31 662.096 Q1500.31 660.418 1499.24 659.477 Q1498.18 658.537 1496.3 658.537 Q1494.41 658.537 1493.35 659.477 Q1492.31 660.418 1492.31 662.096 Z" fill="#000000" fill-rule="nonzero" fill-opacity="1" /><path clip-path="url(#clip080)" d="M1508.9 674.538 L1511.96 674.538 L1511.96 678.213 L1508.9 678.213 L1508.9 674.538 Z" fill="#000000" fill-rule="nonzero" fill-opacity="1" /><path clip-path="url(#clip080)" d="M1524.57 658.537 Q1522.32 658.537 1521.17 660.765 Q1520.04 662.978 1520.04 667.434 Q1520.04 671.876 1521.17 674.104 Q1522.32 676.318 1524.57 676.318 Q1526.84 676.318 1527.97 674.104 Q1529.12 671.876 1529.12 667.434 Q1529.12 662.978 1527.97 660.765 Q1526.84 658.537 1524.57 658.537 M1524.57 656.222 Q1528.2 656.222 1530.11 659.101 Q1532.04 661.966 1532.04 667.434 Q1532.04 672.889 1530.11 675.768 Q1528.2 678.632 1524.57 678.632 Q1520.94 678.632 1519.02 675.768 Q1517.11 672.889 1517.11 667.434 Q1517.11 661.966 1519.02 659.101 Q1520.94 656.222 1524.57 656.222 Z" fill="#000000" fill-rule="nonzero" fill-opacity="1" /><path clip-path="url(#clip080)" d="M1554.42 655.701 L1554.42 657.915 L1551.87 657.915 Q1550.44 657.915 1549.88 658.494 Q1549.33 659.072 1549.33 660.577 L1549.33 662.009 L1553.71 662.009 L1553.71 664.078 L1549.33 664.078 L1549.33 678.213 L1546.65 678.213 L1546.65 664.078 L1544.1 664.078 L1544.1 662.009 L1546.65 662.009 L1546.65 660.881 Q1546.65 658.175 1547.91 656.946 Q1549.17 655.701 1551.9 655.701 L1554.42 655.701 Z" fill="#000000" fill-rule="nonzero" fill-opacity="1" /><path clip-path="url(#clip080)" d="M1558.76 657.408 L1558.76 662.009 L1564.24 662.009 L1564.24 664.078 L1558.76 664.078 L1558.76 672.874 Q1558.76 674.856 1559.29 675.421 Q1559.84 675.985 1561.51 675.985 L1564.24 675.985 L1564.24 678.213 L1561.51 678.213 Q1558.43 678.213 1557.25 677.07 Q1556.08 675.912 1556.08 672.874 L1556.08 664.078 L1554.13 664.078 L1554.13 662.009 L1556.08 662.009 L1556.08 657.408 L1558.76 657.408 Z" fill="#000000" fill-rule="nonzero" fill-opacity="1" /><path clip-path="url(#clip080)" d="M1687.09 656.613 L1700.98 656.613 L1700.98 657.857 L1693.14 678.213 L1690.09 678.213 L1697.47 659.072 L1687.09 659.072 L1687.09 656.613 Z" fill="#000000" fill-rule="nonzero" fill-opacity="1" /><path clip-path="url(#clip080)" d="M1706.68 674.538 L1709.74 674.538 L1709.74 678.213 L1706.68 678.213 L1706.68 674.538 Z" fill="#000000" fill-rule="nonzero" fill-opacity="1" /><path clip-path="url(#clip080)" d="M1716.13 656.613 L1727.6 656.613 L1727.6 659.072 L1718.81 659.072 L1718.81 664.367 Q1719.44 664.15 1720.08 664.049 Q1720.72 663.933 1721.35 663.933 Q1724.97 663.933 1727.08 665.915 Q1729.19 667.897 1729.19 671.283 Q1729.19 674.769 1727.02 676.708 Q1724.85 678.632 1720.9 678.632 Q1719.54 678.632 1718.13 678.401 Q1716.72 678.169 1715.22 677.706 L1715.22 674.769 Q1716.52 675.478 1717.91 675.826 Q1719.3 676.173 1720.85 676.173 Q1723.35 676.173 1724.81 674.856 Q1726.27 673.54 1726.27 671.283 Q1726.27 669.026 1724.81 667.709 Q1723.35 666.393 1720.85 666.393 Q1719.67 666.393 1718.5 666.653 Q1717.35 666.914 1716.13 667.463 L1716.13 656.613 Z" fill="#000000" fill-rule="nonzero" fill-opacity="1" /><path clip-path="url(#clip080)" d="M1752.2 655.701 L1752.2 657.915 L1749.65 657.915 Q1748.22 657.915 1747.65 658.494 Q1747.11 659.072 1747.11 660.577 L1747.11 662.009 L1751.49 662.009 L1751.49 664.078 L1747.11 664.078 L1747.11 678.213 L1744.43 678.213 L1744.43 664.078 L1741.88 664.078 L1741.88 662.009 L1744.43 662.009 L1744.43 660.881 Q1744.43 658.175 1745.69 656.946 Q1746.95 655.701 1749.68 655.701 L1752.2 655.701 Z" fill="#000000" fill-rule="nonzero" fill-opacity="1" /><path clip-path="url(#clip080)" d="M1756.54 657.408 L1756.54 662.009 L1762.02 662.009 L1762.02 664.078 L1756.54 664.078 L1756.54 672.874 Q1756.54 674.856 1757.07 675.421 Q1757.62 675.985 1759.29 675.985 L1762.02 675.985 L1762.02 678.213 L1759.29 678.213 Q1756.21 678.213 1755.03 677.07 Q1753.86 675.912 1753.86 672.874 L1753.86 664.078 L1751.91 664.078 L1751.91 662.009 L1753.86 662.009 L1753.86 657.408 L1756.54 657.408 Z" fill="#000000" fill-rule="nonzero" fill-opacity="1" /><path clip-path="url(#clip080)" d="M1892.28 667.955 Q1890.2 667.955 1889 669.069 Q1887.81 670.183 1887.81 672.136 Q1887.81 674.09 1889 675.204 Q1890.2 676.318 1892.28 676.318 Q1894.36 676.318 1895.56 675.204 Q1896.76 674.075 1896.76 672.136 Q1896.76 670.183 1895.56 669.069 Q1894.38 667.955 1892.28 667.955 M1889.36 666.711 Q1887.48 666.248 1886.42 664.961 Q1885.38 663.673 1885.38 661.821 Q1885.38 659.231 1887.22 657.727 Q1889.07 656.222 1892.28 656.222 Q1895.51 656.222 1897.34 657.727 Q1899.18 659.231 1899.18 661.821 Q1899.18 663.673 1898.12 664.961 Q1897.08 666.248 1895.22 666.711 Q1897.33 667.203 1898.5 668.635 Q1899.69 670.068 1899.69 672.136 Q1899.69 675.276 1897.76 676.954 Q1895.85 678.632 1892.28 678.632 Q1888.71 678.632 1886.78 676.954 Q1884.87 675.276 1884.87 672.136 Q1884.87 670.068 1886.06 668.635 Q1887.25 667.203 1889.36 666.711 M1888.29 662.096 Q1888.29 663.774 1889.33 664.715 Q1890.38 665.655 1892.28 665.655 Q1894.16 665.655 1895.22 664.715 Q1896.29 663.774 1896.29 662.096 Q1896.29 660.418 1895.22 659.477 Q1894.16 658.537 1892.28 658.537 Q1890.38 658.537 1889.33 659.477 Q1888.29 660.418 1888.29 662.096 Z" fill="#000000" fill-rule="nonzero" fill-opacity="1" /><path clip-path="url(#clip080)" d="M1904.88 674.538 L1907.93 674.538 L1907.93 678.213 L1904.88 678.213 L1904.88 674.538 Z" fill="#000000" fill-rule="nonzero" fill-opacity="1" /><path clip-path="url(#clip080)" d="M1920.55 658.537 Q1918.29 658.537 1917.15 660.765 Q1916.02 662.978 1916.02 667.434 Q1916.02 671.876 1917.15 674.104 Q1918.29 676.318 1920.55 676.318 Q1922.82 676.318 1923.95 674.104 Q1925.09 671.876 1925.09 667.434 Q1925.09 662.978 1923.95 660.765 Q1922.82 658.537 1920.55 658.537 M1920.55 656.222 Q1924.18 656.222 1926.09 659.101 Q1928.01 661.966 1928.01 667.434 Q1928.01 672.889 1926.09 675.768 Q1924.18 678.632 1920.55 678.632 Q1916.92 678.632 1914.99 675.768 Q1913.08 672.889 1913.08 667.434 Q1913.08 661.966 1914.99 659.101 Q1916.92 656.222 1920.55 656.222 Z" fill="#000000" fill-rule="nonzero" fill-opacity="1" /><path clip-path="url(#clip080)" d="M1950.4 655.701 L1950.4 657.915 L1947.85 657.915 Q1946.42 657.915 1945.85 658.494 Q1945.3 659.072 1945.3 660.577 L1945.3 662.009 L1949.69 662.009 L1949.69 664.078 L1945.3 664.078 L1945.3 678.213 L1942.63 678.213 L1942.63 664.078 L1940.08 664.078 L1940.08 662.009 L1942.63 662.009 L1942.63 660.881 Q1942.63 658.175 1943.89 656.946 Q1945.14 655.701 1947.88 655.701 L1950.4 655.701 Z" fill="#000000" fill-rule="nonzero" fill-opacity="1" /><path clip-path="url(#clip080)" d="M1954.74 657.408 L1954.74 662.009 L1960.22 662.009 L1960.22 664.078 L1954.74 664.078 L1954.74 672.874 Q1954.74 674.856 1955.27 675.421 Q1955.82 675.985 1957.49 675.985 L1960.22 675.985 L1960.22 678.213 L1957.49 678.213 Q1954.4 678.213 1953.23 677.07 Q1952.06 675.912 1952.06 672.874 L1952.06 664.078 L1950.11 664.078 L1950.11 662.009 L1952.06 662.009 L1952.06 657.408 L1954.74 657.408 Z" fill="#000000" fill-rule="nonzero" fill-opacity="1" /><path clip-path="url(#clip080)" d="M2096.66 667.955 Q2094.57 667.955 2093.37 669.069 Q2092.18 670.183 2092.18 672.136 Q2092.18 674.09 2093.37 675.204 Q2094.57 676.318 2096.66 676.318 Q2098.74 676.318 2099.94 675.204 Q2101.14 674.075 2101.14 672.136 Q2101.14 670.183 2099.94 669.069 Q2098.75 667.955 2096.66 667.955 M2093.73 666.711 Q2091.85 666.248 2090.8 664.961 Q2089.75 663.673 2089.75 661.821 Q2089.75 659.231 2091.59 657.727 Q2093.44 656.222 2096.66 656.222 Q2099.88 656.222 2101.72 657.727 Q2103.56 659.231 2103.56 661.821 Q2103.56 663.673 2102.5 664.961 Q2101.46 666.248 2099.59 666.711 Q2101.7 667.203 2102.88 668.635 Q2104.06 670.068 2104.06 672.136 Q2104.06 675.276 2102.14 676.954 Q2100.23 678.632 2096.66 678.632 Q2093.08 678.632 2091.16 676.954 Q2089.25 675.276 2089.25 672.136 Q2089.25 670.068 2090.43 668.635 Q2091.62 667.203 2093.73 666.711 M2092.66 662.096 Q2092.66 663.774 2093.7 664.715 Q2094.76 665.655 2096.66 665.655 Q2098.54 665.655 2099.59 664.715 Q2100.66 663.774 2100.66 662.096 Q2100.66 660.418 2099.59 659.477 Q2098.54 658.537 2096.66 658.537 Q2094.76 658.537 2093.7 659.477 Q2092.66 660.418 2092.66 662.096 Z" fill="#000000" fill-rule="nonzero" fill-opacity="1" /><path clip-path="url(#clip080)" d="M2109.26 674.538 L2112.31 674.538 L2112.31 678.213 L2109.26 678.213 L2109.26 674.538 Z" fill="#000000" fill-rule="nonzero" fill-opacity="1" /><path clip-path="url(#clip080)" d="M2124.92 658.537 Q2122.67 658.537 2121.52 660.765 Q2120.4 662.978 2120.4 667.434 Q2120.4 671.876 2121.52 674.104 Q2122.67 676.318 2124.92 676.318 Q2127.2 676.318 2128.32 674.104 Q2129.47 671.876 2129.47 667.434 Q2129.47 662.978 2128.32 660.765 Q2127.2 658.537 2124.92 658.537 M2124.92 656.222 Q2128.56 656.222 2130.47 659.101 Q2132.39 661.966 2132.39 667.434 Q2132.39 672.889 2130.47 675.768 Q2128.56 678.632 2124.92 678.632 Q2121.29 678.632 2119.37 675.768 Q2117.46 672.889 2117.46 667.434 Q2117.46 661.966 2119.37 659.101 Q2121.29 656.222 2124.92 656.222 Z" fill="#000000" fill-rule="nonzero" fill-opacity="1" /><path clip-path="url(#clip080)" d="M2154.77 655.701 L2154.77 657.915 L2152.22 657.915 Q2150.79 657.915 2150.23 658.494 Q2149.68 659.072 2149.68 660.577 L2149.68 662.009 L2154.06 662.009 L2154.06 664.078 L2149.68 664.078 L2149.68 678.213 L2147 678.213 L2147 664.078 L2144.46 664.078 L2144.46 662.009 L2147 662.009 L2147 660.881 Q2147 658.175 2148.26 656.946 Q2149.52 655.701 2152.25 655.701 L2154.77 655.701 Z" fill="#000000" fill-rule="nonzero" fill-opacity="1" /><path clip-path="url(#clip080)" d="M2159.11 657.408 L2159.11 662.009 L2164.59 662.009 L2164.59 664.078 L2159.11 664.078 L2159.11 672.874 Q2159.11 674.856 2159.65 675.421 Q2160.2 675.985 2161.86 675.985 L2164.59 675.985 L2164.59 678.213 L2161.86 678.213 Q2158.78 678.213 2157.61 677.07 Q2156.43 675.912 2156.43 672.874 L2156.43 664.078 L2154.48 664.078 L2154.48 662.009 L2156.43 662.009 L2156.43 657.408 L2159.11 657.408 Z" fill="#000000" fill-rule="nonzero" fill-opacity="1" /></svg>
