<?xml version="1.0" encoding="utf-8"?>
<svg xmlns="http://www.w3.org/2000/svg" xmlns:xlink="http://www.w3.org/1999/xlink" width="721" height="400" viewBox="0 0 2884 1600">
<defs>
  <clipPath id="clip450">
    <rect x="0" y="0" width="2884" height="1600"/>
  </clipPath>
</defs>
<path clip-path="url(#clip450)" d="M0 1600 L2884 1600 L2884 0 L0 0  Z" fill="#ffffff" fill-rule="evenodd" fill-opacity="1"/>
<defs>
  <clipPath id="clip451">
    <rect x="576" y="0" width="2020" height="1600"/>
  </clipPath>
</defs>
<path clip-path="url(#clip450)" d="M213.869 692.248 L2405.23 692.248 L2405.23 113.322 L213.869 113.322  Z" fill="#ffffff" fill-rule="evenodd" fill-opacity="1"/>
<defs>
  <clipPath id="clip452">
    <rect x="213" y="113" width="2192" height="580"/>
  </clipPath>
</defs>
<polyline clip-path="url(#clip452)" style="stroke:#000000; stroke-linecap:round; stroke-linejoin:round; stroke-width:2; stroke-opacity:0.1; fill:none" points="275.888,692.248 275.888,113.322 "/>
<polyline clip-path="url(#clip452)" style="stroke:#000000; stroke-linecap:round; stroke-linejoin:round; stroke-width:2; stroke-opacity:0.1; fill:none" points="745.735,692.248 745.735,113.322 "/>
<polyline clip-path="url(#clip452)" style="stroke:#000000; stroke-linecap:round; stroke-linejoin:round; stroke-width:2; stroke-opacity:0.1; fill:none" points="1215.58,692.248 1215.58,113.322 "/>
<polyline clip-path="url(#clip452)" style="stroke:#000000; stroke-linecap:round; stroke-linejoin:round; stroke-width:2; stroke-opacity:0.1; fill:none" points="1685.43,692.248 1685.43,113.322 "/>
<polyline clip-path="url(#clip452)" style="stroke:#000000; stroke-linecap:round; stroke-linejoin:round; stroke-width:2; stroke-opacity:0.1; fill:none" points="2155.27,692.248 2155.27,113.322 "/>
<polyline clip-path="url(#clip452)" style="stroke:#000000; stroke-linecap:round; stroke-linejoin:round; stroke-width:2; stroke-opacity:0.1; fill:none" points="213.869,665.486 2405.23,665.486 "/>
<polyline clip-path="url(#clip452)" style="stroke:#000000; stroke-linecap:round; stroke-linejoin:round; stroke-width:2; stroke-opacity:0.1; fill:none" points="213.869,534.136 2405.23,534.136 "/>
<polyline clip-path="url(#clip452)" style="stroke:#000000; stroke-linecap:round; stroke-linejoin:round; stroke-width:2; stroke-opacity:0.1; fill:none" points="213.869,402.785 2405.23,402.785 "/>
<polyline clip-path="url(#clip452)" style="stroke:#000000; stroke-linecap:round; stroke-linejoin:round; stroke-width:2; stroke-opacity:0.1; fill:none" points="213.869,271.434 2405.23,271.434 "/>
<polyline clip-path="url(#clip452)" style="stroke:#000000; stroke-linecap:round; stroke-linejoin:round; stroke-width:2; stroke-opacity:0.1; fill:none" points="213.869,140.084 2405.23,140.084 "/>
<polyline clip-path="url(#clip450)" style="stroke:#000000; stroke-linecap:round; stroke-linejoin:round; stroke-width:4; stroke-opacity:1; fill:none" points="213.869,692.248 2405.23,692.248 "/>
<polyline clip-path="url(#clip450)" style="stroke:#000000; stroke-linecap:round; stroke-linejoin:round; stroke-width:4; stroke-opacity:1; fill:none" points="275.888,692.248 275.888,673.35 "/>
<polyline clip-path="url(#clip450)" style="stroke:#000000; stroke-linecap:round; stroke-linejoin:round; stroke-width:4; stroke-opacity:1; fill:none" points="745.735,692.248 745.735,673.35 "/>
<polyline clip-path="url(#clip450)" style="stroke:#000000; stroke-linecap:round; stroke-linejoin:round; stroke-width:4; stroke-opacity:1; fill:none" points="1215.58,692.248 1215.58,673.35 "/>
<polyline clip-path="url(#clip450)" style="stroke:#000000; stroke-linecap:round; stroke-linejoin:round; stroke-width:4; stroke-opacity:1; fill:none" points="1685.43,692.248 1685.43,673.35 "/>
<polyline clip-path="url(#clip450)" style="stroke:#000000; stroke-linecap:round; stroke-linejoin:round; stroke-width:4; stroke-opacity:1; fill:none" points="2155.27,692.248 2155.27,673.35 "/>
<path clip-path="url(#clip450)" d="M275.888 727.039 Q272.277 727.039 270.448 730.603 Q268.643 734.145 268.643 741.275 Q268.643 748.381 270.448 751.946 Q272.277 755.487 275.888 755.487 Q279.522 755.487 281.328 751.946 Q283.157 748.381 283.157 741.275 Q283.157 734.145 281.328 730.603 Q279.522 727.039 275.888 727.039 M275.888 723.335 Q281.698 723.335 284.754 727.941 Q287.833 732.525 287.833 741.275 Q287.833 750.001 284.754 754.608 Q281.698 759.191 275.888 759.191 Q270.078 759.191 266.999 754.608 Q263.944 750.001 263.944 741.275 Q263.944 732.525 266.999 727.941 Q270.078 723.335 275.888 723.335 Z" fill="#000000" fill-rule="nonzero" fill-opacity="1" /><path clip-path="url(#clip450)" d="M720.422 754.585 L728.061 754.585 L728.061 728.219 L719.751 729.886 L719.751 725.626 L728.015 723.96 L732.691 723.96 L732.691 754.585 L740.33 754.585 L740.33 758.52 L720.422 758.52 L720.422 754.585 Z" fill="#000000" fill-rule="nonzero" fill-opacity="1" /><path clip-path="url(#clip450)" d="M759.774 727.039 Q756.163 727.039 754.334 730.603 Q752.529 734.145 752.529 741.275 Q752.529 748.381 754.334 751.946 Q756.163 755.487 759.774 755.487 Q763.408 755.487 765.214 751.946 Q767.042 748.381 767.042 741.275 Q767.042 734.145 765.214 730.603 Q763.408 727.039 759.774 727.039 M759.774 723.335 Q765.584 723.335 768.64 727.941 Q771.718 732.525 771.718 741.275 Q771.718 750.001 768.64 754.608 Q765.584 759.191 759.774 759.191 Q753.964 759.191 750.885 754.608 Q747.83 750.001 747.83 741.275 Q747.83 732.525 750.885 727.941 Q753.964 723.335 759.774 723.335 Z" fill="#000000" fill-rule="nonzero" fill-opacity="1" /><path clip-path="url(#clip450)" d="M1194.35 754.585 L1210.67 754.585 L1210.67 758.52 L1188.73 758.52 L1188.73 754.585 Q1191.39 751.83 1195.97 747.2 Q1200.58 742.548 1201.76 741.205 Q1204.01 738.682 1204.89 736.946 Q1205.79 735.187 1205.79 733.497 Q1205.79 730.742 1203.85 729.006 Q1201.92 727.27 1198.82 727.27 Q1196.62 727.27 1194.17 728.034 Q1191.74 728.798 1188.96 730.349 L1188.96 725.626 Q1191.79 724.492 1194.24 723.914 Q1196.69 723.335 1198.73 723.335 Q1204.1 723.335 1207.29 726.02 Q1210.49 728.705 1210.49 733.196 Q1210.49 735.325 1209.68 737.247 Q1208.89 739.145 1206.78 741.738 Q1206.21 742.409 1203.1 745.626 Q1200 748.821 1194.35 754.585 Z" fill="#000000" fill-rule="nonzero" fill-opacity="1" /><path clip-path="url(#clip450)" d="M1230.49 727.039 Q1226.88 727.039 1225.05 730.603 Q1223.24 734.145 1223.24 741.275 Q1223.24 748.381 1225.05 751.946 Q1226.88 755.487 1230.49 755.487 Q1234.12 755.487 1235.93 751.946 Q1237.76 748.381 1237.76 741.275 Q1237.76 734.145 1235.93 730.603 Q1234.12 727.039 1230.49 727.039 M1230.49 723.335 Q1236.3 723.335 1239.35 727.941 Q1242.43 732.525 1242.43 741.275 Q1242.43 750.001 1239.35 754.608 Q1236.3 759.191 1230.49 759.191 Q1224.68 759.191 1221.6 754.608 Q1218.54 750.001 1218.54 741.275 Q1218.54 732.525 1221.6 727.941 Q1224.68 723.335 1230.49 723.335 Z" fill="#000000" fill-rule="nonzero" fill-opacity="1" /><path clip-path="url(#clip450)" d="M1674.27 739.886 Q1677.63 740.603 1679.5 742.872 Q1681.4 745.14 1681.4 748.474 Q1681.4 753.589 1677.88 756.39 Q1674.36 759.191 1667.88 759.191 Q1665.71 759.191 1663.39 758.751 Q1661.1 758.335 1658.65 757.478 L1658.65 752.964 Q1660.59 754.099 1662.9 754.677 Q1665.22 755.256 1667.74 755.256 Q1672.14 755.256 1674.43 753.52 Q1676.75 751.784 1676.75 748.474 Q1676.75 745.418 1674.59 743.705 Q1672.46 741.969 1668.65 741.969 L1664.62 741.969 L1664.62 738.126 L1668.83 738.126 Q1672.28 738.126 1674.11 736.761 Q1675.94 735.372 1675.94 732.779 Q1675.94 730.117 1674.04 728.705 Q1672.16 727.27 1668.65 727.27 Q1666.72 727.27 1664.53 727.687 Q1662.33 728.103 1659.69 728.983 L1659.69 724.816 Q1662.35 724.076 1664.66 723.705 Q1667 723.335 1669.06 723.335 Q1674.39 723.335 1677.49 725.765 Q1680.59 728.173 1680.59 732.293 Q1680.59 735.163 1678.95 737.154 Q1677.3 739.122 1674.27 739.886 Z" fill="#000000" fill-rule="nonzero" fill-opacity="1" /><path clip-path="url(#clip450)" d="M1700.27 727.039 Q1696.65 727.039 1694.83 730.603 Q1693.02 734.145 1693.02 741.275 Q1693.02 748.381 1694.83 751.946 Q1696.65 755.487 1700.27 755.487 Q1703.9 755.487 1705.71 751.946 Q1707.53 748.381 1707.53 741.275 Q1707.53 734.145 1705.71 730.603 Q1703.9 727.039 1700.27 727.039 M1700.27 723.335 Q1706.08 723.335 1709.13 727.941 Q1712.21 732.525 1712.21 741.275 Q1712.21 750.001 1709.13 754.608 Q1706.08 759.191 1700.27 759.191 Q1694.46 759.191 1691.38 754.608 Q1688.32 750.001 1688.32 741.275 Q1688.32 732.525 1691.38 727.941 Q1694.46 723.335 1700.27 723.335 Z" fill="#000000" fill-rule="nonzero" fill-opacity="1" /><path clip-path="url(#clip450)" d="M2143.45 728.034 L2131.64 746.483 L2143.45 746.483 L2143.45 728.034 M2142.22 723.96 L2148.1 723.96 L2148.1 746.483 L2153.03 746.483 L2153.03 750.372 L2148.1 750.372 L2148.1 758.52 L2143.45 758.52 L2143.45 750.372 L2127.84 750.372 L2127.84 745.858 L2142.22 723.96 Z" fill="#000000" fill-rule="nonzero" fill-opacity="1" /><path clip-path="url(#clip450)" d="M2170.76 727.039 Q2167.15 727.039 2165.32 730.603 Q2163.51 734.145 2163.51 741.275 Q2163.51 748.381 2165.32 751.946 Q2167.15 755.487 2170.76 755.487 Q2174.39 755.487 2176.2 751.946 Q2178.03 748.381 2178.03 741.275 Q2178.03 734.145 2176.2 730.603 Q2174.39 727.039 2170.76 727.039 M2170.76 723.335 Q2176.57 723.335 2179.63 727.941 Q2182.7 732.525 2182.7 741.275 Q2182.7 750.001 2179.63 754.608 Q2176.57 759.191 2170.76 759.191 Q2164.95 759.191 2161.87 754.608 Q2158.82 750.001 2158.82 741.275 Q2158.82 732.525 2161.87 727.941 Q2164.95 723.335 2170.76 723.335 Z" fill="#000000" fill-rule="nonzero" fill-opacity="1" /><polyline clip-path="url(#clip450)" style="stroke:#000000; stroke-linecap:round; stroke-linejoin:round; stroke-width:4; stroke-opacity:1; fill:none" points="213.869,692.248 213.869,113.322 "/>
<polyline clip-path="url(#clip450)" style="stroke:#000000; stroke-linecap:round; stroke-linejoin:round; stroke-width:4; stroke-opacity:1; fill:none" points="213.869,665.486 229.657,665.486 "/>
<polyline clip-path="url(#clip450)" style="stroke:#000000; stroke-linecap:round; stroke-linejoin:round; stroke-width:4; stroke-opacity:1; fill:none" points="213.869,534.136 229.657,534.136 "/>
<polyline clip-path="url(#clip450)" style="stroke:#000000; stroke-linecap:round; stroke-linejoin:round; stroke-width:4; stroke-opacity:1; fill:none" points="213.869,402.785 229.657,402.785 "/>
<polyline clip-path="url(#clip450)" style="stroke:#000000; stroke-linecap:round; stroke-linejoin:round; stroke-width:4; stroke-opacity:1; fill:none" points="213.869,271.434 229.657,271.434 "/>
<polyline clip-path="url(#clip450)" style="stroke:#000000; stroke-linecap:round; stroke-linejoin:round; stroke-width:4; stroke-opacity:1; fill:none" points="213.869,140.084 229.657,140.084 "/>
<path clip-path="url(#clip450)" d="M48.5721 665.938 L78.2479 665.938 L78.2479 669.873 L48.5721 669.873 L48.5721 665.938 Z" fill="#000000" fill-rule="nonzero" fill-opacity="1" /><path clip-path="url(#clip450)" d="M101.188 652.28 L89.3821 670.729 L101.188 670.729 L101.188 652.28 M99.9607 648.206 L105.84 648.206 L105.84 670.729 L110.771 670.729 L110.771 674.618 L105.84 674.618 L105.84 682.766 L101.188 682.766 L101.188 674.618 L85.5858 674.618 L85.5858 670.104 L99.9607 648.206 Z" fill="#000000" fill-rule="nonzero" fill-opacity="1" /><path clip-path="url(#clip450)" d="M128.502 651.285 Q124.891 651.285 123.062 654.85 Q121.257 658.392 121.257 665.521 Q121.257 672.628 123.062 676.192 Q124.891 679.734 128.502 679.734 Q132.136 679.734 133.942 676.192 Q135.771 672.628 135.771 665.521 Q135.771 658.392 133.942 654.85 Q132.136 651.285 128.502 651.285 M128.502 647.581 Q134.312 647.581 137.368 652.188 Q140.447 656.771 140.447 665.521 Q140.447 674.248 137.368 678.854 Q134.312 683.438 128.502 683.438 Q122.692 683.438 119.613 678.854 Q116.558 674.248 116.558 665.521 Q116.558 656.771 119.613 652.188 Q122.692 647.581 128.502 647.581 Z" fill="#000000" fill-rule="nonzero" fill-opacity="1" /><path clip-path="url(#clip450)" d="M158.664 651.285 Q155.053 651.285 153.224 654.85 Q151.419 658.392 151.419 665.521 Q151.419 672.628 153.224 676.192 Q155.053 679.734 158.664 679.734 Q162.298 679.734 164.104 676.192 Q165.933 672.628 165.933 665.521 Q165.933 658.392 164.104 654.85 Q162.298 651.285 158.664 651.285 M158.664 647.581 Q164.474 647.581 167.53 652.188 Q170.609 656.771 170.609 665.521 Q170.609 674.248 167.53 678.854 Q164.474 683.438 158.664 683.438 Q152.854 683.438 149.775 678.854 Q146.72 674.248 146.72 665.521 Q146.72 656.771 149.775 652.188 Q152.854 647.581 158.664 647.581 Z" fill="#000000" fill-rule="nonzero" fill-opacity="1" /><path clip-path="url(#clip450)" d="M48.5721 534.587 L78.2479 534.587 L78.2479 538.522 L48.5721 538.522 L48.5721 534.587 Z" fill="#000000" fill-rule="nonzero" fill-opacity="1" /><path clip-path="url(#clip450)" d="M92.3682 547.481 L108.688 547.481 L108.688 551.416 L86.7432 551.416 L86.7432 547.481 Q89.4052 544.726 93.9885 540.096 Q98.595 535.444 99.7756 534.101 Q102.021 531.578 102.901 529.842 Q103.803 528.083 103.803 526.393 Q103.803 523.638 101.859 521.902 Q99.9376 520.166 96.8358 520.166 Q94.6367 520.166 92.183 520.93 Q89.7525 521.694 86.9747 523.245 L86.9747 518.522 Q89.7988 517.388 92.2524 516.809 Q94.7061 516.231 96.7432 516.231 Q102.114 516.231 105.308 518.916 Q108.502 521.601 108.502 526.092 Q108.502 528.221 107.692 530.143 Q106.905 532.041 104.799 534.633 Q104.22 535.305 101.118 538.522 Q98.0163 541.717 92.3682 547.481 Z" fill="#000000" fill-rule="nonzero" fill-opacity="1" /><path clip-path="url(#clip450)" d="M128.502 519.934 Q124.891 519.934 123.062 523.499 Q121.257 527.041 121.257 534.17 Q121.257 541.277 123.062 544.842 Q124.891 548.383 128.502 548.383 Q132.136 548.383 133.942 544.842 Q135.771 541.277 135.771 534.17 Q135.771 527.041 133.942 523.499 Q132.136 519.934 128.502 519.934 M128.502 516.231 Q134.312 516.231 137.368 520.837 Q140.447 525.42 140.447 534.17 Q140.447 542.897 137.368 547.504 Q134.312 552.087 128.502 552.087 Q122.692 552.087 119.613 547.504 Q116.558 542.897 116.558 534.17 Q116.558 525.42 119.613 520.837 Q122.692 516.231 128.502 516.231 Z" fill="#000000" fill-rule="nonzero" fill-opacity="1" /><path clip-path="url(#clip450)" d="M158.664 519.934 Q155.053 519.934 153.224 523.499 Q151.419 527.041 151.419 534.17 Q151.419 541.277 153.224 544.842 Q155.053 548.383 158.664 548.383 Q162.298 548.383 164.104 544.842 Q165.933 541.277 165.933 534.17 Q165.933 527.041 164.104 523.499 Q162.298 519.934 158.664 519.934 M158.664 516.231 Q164.474 516.231 167.53 520.837 Q170.609 525.42 170.609 534.17 Q170.609 542.897 167.53 547.504 Q164.474 552.087 158.664 552.087 Q152.854 552.087 149.775 547.504 Q146.72 542.897 146.72 534.17 Q146.72 525.42 149.775 520.837 Q152.854 516.231 158.664 516.231 Z" fill="#000000" fill-rule="nonzero" fill-opacity="1" /><path clip-path="url(#clip450)" d="M158.664 388.584 Q155.053 388.584 153.224 392.149 Q151.419 395.69 151.419 402.82 Q151.419 409.926 153.224 413.491 Q155.053 417.033 158.664 417.033 Q162.298 417.033 164.104 413.491 Q165.933 409.926 165.933 402.82 Q165.933 395.69 164.104 392.149 Q162.298 388.584 158.664 388.584 M158.664 384.88 Q164.474 384.88 167.53 389.486 Q170.609 394.07 170.609 402.82 Q170.609 411.547 167.53 416.153 Q164.474 420.736 158.664 420.736 Q152.854 420.736 149.775 416.153 Q146.72 411.547 146.72 402.82 Q146.72 394.07 149.775 389.486 Q152.854 384.88 158.664 384.88 Z" fill="#000000" fill-rule="nonzero" fill-opacity="1" /><path clip-path="url(#clip450)" d="M92.3682 284.779 L108.688 284.779 L108.688 288.714 L86.7432 288.714 L86.7432 284.779 Q89.4052 282.025 93.9885 277.395 Q98.595 272.742 99.7756 271.4 Q102.021 268.876 102.901 267.14 Q103.803 265.381 103.803 263.691 Q103.803 260.937 101.859 259.201 Q99.9376 257.464 96.8358 257.464 Q94.6367 257.464 92.183 258.228 Q89.7525 258.992 86.9747 260.543 L86.9747 255.821 Q89.7988 254.687 92.2524 254.108 Q94.7061 253.529 96.7432 253.529 Q102.114 253.529 105.308 256.214 Q108.502 258.9 108.502 263.39 Q108.502 265.52 107.692 267.441 Q106.905 269.339 104.799 271.932 Q104.22 272.603 101.118 275.821 Q98.0163 279.015 92.3682 284.779 Z" fill="#000000" fill-rule="nonzero" fill-opacity="1" /><path clip-path="url(#clip450)" d="M128.502 257.233 Q124.891 257.233 123.062 260.798 Q121.257 264.339 121.257 271.469 Q121.257 278.575 123.062 282.14 Q124.891 285.682 128.502 285.682 Q132.136 285.682 133.942 282.14 Q135.771 278.575 135.771 271.469 Q135.771 264.339 133.942 260.798 Q132.136 257.233 128.502 257.233 M128.502 253.529 Q134.312 253.529 137.368 258.136 Q140.447 262.719 140.447 271.469 Q140.447 280.196 137.368 284.802 Q134.312 289.386 128.502 289.386 Q122.692 289.386 119.613 284.802 Q116.558 280.196 116.558 271.469 Q116.558 262.719 119.613 258.136 Q122.692 253.529 128.502 253.529 Z" fill="#000000" fill-rule="nonzero" fill-opacity="1" /><path clip-path="url(#clip450)" d="M158.664 257.233 Q155.053 257.233 153.224 260.798 Q151.419 264.339 151.419 271.469 Q151.419 278.575 153.224 282.14 Q155.053 285.682 158.664 285.682 Q162.298 285.682 164.104 282.14 Q165.933 278.575 165.933 271.469 Q165.933 264.339 164.104 260.798 Q162.298 257.233 158.664 257.233 M158.664 253.529 Q164.474 253.529 167.53 258.136 Q170.609 262.719 170.609 271.469 Q170.609 280.196 167.53 284.802 Q164.474 289.386 158.664 289.386 Q152.854 289.386 149.775 284.802 Q146.72 280.196 146.72 271.469 Q146.72 262.719 149.775 258.136 Q152.854 253.529 158.664 253.529 Z" fill="#000000" fill-rule="nonzero" fill-opacity="1" /><path clip-path="url(#clip450)" d="M101.188 126.878 L89.3821 145.327 L101.188 145.327 L101.188 126.878 M99.9607 122.804 L105.84 122.804 L105.84 145.327 L110.771 145.327 L110.771 149.216 L105.84 149.216 L105.84 157.364 L101.188 157.364 L101.188 149.216 L85.5858 149.216 L85.5858 144.702 L99.9607 122.804 Z" fill="#000000" fill-rule="nonzero" fill-opacity="1" /><path clip-path="url(#clip450)" d="M128.502 125.882 Q124.891 125.882 123.062 129.447 Q121.257 132.989 121.257 140.118 Q121.257 147.225 123.062 150.79 Q124.891 154.331 128.502 154.331 Q132.136 154.331 133.942 150.79 Q135.771 147.225 135.771 140.118 Q135.771 132.989 133.942 129.447 Q132.136 125.882 128.502 125.882 M128.502 122.179 Q134.312 122.179 137.368 126.785 Q140.447 131.368 140.447 140.118 Q140.447 148.845 137.368 153.452 Q134.312 158.035 128.502 158.035 Q122.692 158.035 119.613 153.452 Q116.558 148.845 116.558 140.118 Q116.558 131.368 119.613 126.785 Q122.692 122.179 128.502 122.179 Z" fill="#000000" fill-rule="nonzero" fill-opacity="1" /><path clip-path="url(#clip450)" d="M158.664 125.882 Q155.053 125.882 153.224 129.447 Q151.419 132.989 151.419 140.118 Q151.419 147.225 153.224 150.79 Q155.053 154.331 158.664 154.331 Q162.298 154.331 164.104 150.79 Q165.933 147.225 165.933 140.118 Q165.933 132.989 164.104 129.447 Q162.298 125.882 158.664 125.882 M158.664 122.179 Q164.474 122.179 167.53 126.785 Q170.609 131.368 170.609 140.118 Q170.609 148.845 167.53 153.452 Q164.474 158.035 158.664 158.035 Q152.854 158.035 149.775 153.452 Q146.72 148.845 146.72 140.118 Q146.72 131.368 149.775 126.785 Q152.854 122.179 158.664 122.179 Z" fill="#000000" fill-rule="nonzero" fill-opacity="1" /><path clip-path="url(#clip450)" d="M767.074 12.096 L779.267 12.096 L794.701 53.2532 L810.216 12.096 L822.409 12.096 L822.409 72.576 L814.429 72.576 L814.429 19.4686 L798.833 60.9499 L790.609 60.9499 L775.013 19.4686 L775.013 72.576 L767.074 72.576 L767.074 12.096 Z" fill="#000000" fill-rule="nonzero" fill-opacity="1" /><path clip-path="url(#clip450)" d="M858.948 49.7694 Q849.915 49.7694 846.431 51.8354 Q842.947 53.9013 842.947 58.8839 Q842.947 62.8538 845.54 65.2034 Q848.173 67.5124 852.669 67.5124 Q858.867 67.5124 862.594 63.1374 Q866.361 58.7219 866.361 51.4303 L866.361 49.7694 L858.948 49.7694 M873.815 46.6907 L873.815 72.576 L866.361 72.576 L866.361 65.6895 Q863.809 69.8214 860.001 71.8063 Q856.194 73.7508 850.684 73.7508 Q843.717 73.7508 839.585 69.8619 Q835.493 65.9325 835.493 59.3701 Q835.493 51.7138 840.598 47.825 Q845.742 43.9361 855.91 43.9361 L866.361 43.9361 L866.361 43.2069 Q866.361 38.0623 862.959 35.2672 Q859.596 32.4315 853.479 32.4315 Q849.591 32.4315 845.904 33.3632 Q842.218 34.295 838.815 36.1584 L838.815 29.2718 Q842.907 27.692 846.755 26.9223 Q850.603 26.1121 854.249 26.1121 Q864.093 26.1121 868.954 31.2163 Q873.815 36.3204 873.815 46.6907 Z" fill="#000000" fill-rule="nonzero" fill-opacity="1" /><path clip-path="url(#clip450)" d="M926.882 27.2059 L910.476 49.2833 L927.733 72.576 L918.942 72.576 L905.736 54.752 L892.53 72.576 L883.74 72.576 L901.361 48.8377 L885.239 27.2059 L894.029 27.2059 L906.06 43.369 L918.091 27.2059 L926.882 27.2059 Z" fill="#000000" fill-rule="nonzero" fill-opacity="1" /><path clip-path="url(#clip450)" d="M1001.22 14.0809 L1001.22 22.0612 Q996.557 19.8332 992.425 18.7395 Q988.294 17.6457 984.445 17.6457 Q977.761 17.6457 974.115 20.2383 Q970.51 22.8309 970.51 27.611 Q970.51 31.6214 972.9 33.6873 Q975.331 35.7128 982.055 36.9686 L986.997 37.9813 Q996.152 39.7232 1000.49 44.1387 Q1004.86 48.5136 1004.86 55.8863 Q1004.86 64.6767 998.947 69.2137 Q993.074 73.7508 981.691 73.7508 Q977.397 73.7508 972.536 72.7785 Q967.715 71.8063 962.53 69.9024 L962.53 61.4765 Q967.512 64.2716 972.292 65.6895 Q977.073 67.1073 981.691 67.1073 Q988.699 67.1073 992.506 64.3527 Q996.314 61.598 996.314 56.4939 Q996.314 52.0379 993.56 49.5264 Q990.846 47.0148 984.607 45.759 L979.625 44.7868 Q970.47 42.9639 966.378 39.075 Q962.287 35.1862 962.287 28.2591 Q962.287 20.2383 967.917 15.6203 Q973.589 11.0023 983.513 11.0023 Q987.767 11.0023 992.182 11.7719 Q996.598 12.5416 1001.22 14.0809 Z" fill="#000000" fill-rule="nonzero" fill-opacity="1" /><path clip-path="url(#clip450)" d="M1055.01 45.1919 L1055.01 72.576 L1047.56 72.576 L1047.56 45.4349 Q1047.56 38.994 1045.05 35.7938 Q1042.54 32.5936 1037.51 32.5936 Q1031.48 32.5936 1027.99 36.4419 Q1024.51 40.2903 1024.51 46.9338 L1024.51 72.576 L1017.01 72.576 L1017.01 9.54393 L1024.51 9.54393 L1024.51 34.2544 Q1027.18 30.163 1030.79 28.1376 Q1034.43 26.1121 1039.17 26.1121 Q1046.99 26.1121 1051 30.9732 Q1055.01 35.7938 1055.01 45.1919 Z" fill="#000000" fill-rule="nonzero" fill-opacity="1" /><path clip-path="url(#clip450)" d="M1108.69 48.0275 L1108.69 51.6733 L1074.42 51.6733 Q1074.9 59.3701 1079.03 63.421 Q1083.21 67.4314 1090.62 67.4314 Q1094.91 67.4314 1098.92 66.3781 Q1102.97 65.3249 1106.94 63.2184 L1106.94 70.267 Q1102.93 71.9684 1098.72 72.8596 Q1094.51 73.7508 1090.17 73.7508 Q1079.32 73.7508 1072.96 67.4314 Q1066.64 61.1119 1066.64 50.3365 Q1066.64 39.1965 1072.63 32.6746 Q1078.67 26.1121 1088.88 26.1121 Q1098.03 26.1121 1103.34 32.0264 Q1108.69 37.9003 1108.69 48.0275 M1101.23 45.84 Q1101.15 39.7232 1097.79 36.0774 Q1094.47 32.4315 1088.96 32.4315 Q1082.72 32.4315 1078.95 35.9558 Q1075.23 39.4801 1074.66 45.8805 L1101.23 45.84 Z" fill="#000000" fill-rule="nonzero" fill-opacity="1" /><path clip-path="url(#clip450)" d="M1141.54 49.7694 Q1132.51 49.7694 1129.02 51.8354 Q1125.54 53.9013 1125.54 58.8839 Q1125.54 62.8538 1128.13 65.2034 Q1130.76 67.5124 1135.26 67.5124 Q1141.46 67.5124 1145.19 63.1374 Q1148.95 58.7219 1148.95 51.4303 L1148.95 49.7694 L1141.54 49.7694 M1156.41 46.6907 L1156.41 72.576 L1148.95 72.576 L1148.95 65.6895 Q1146.4 69.8214 1142.59 71.8063 Q1138.78 73.7508 1133.28 73.7508 Q1126.31 73.7508 1122.18 69.8619 Q1118.08 65.9325 1118.08 59.3701 Q1118.08 51.7138 1123.19 47.825 Q1128.33 43.9361 1138.5 43.9361 L1148.95 43.9361 L1148.95 43.2069 Q1148.95 38.0623 1145.55 35.2672 Q1142.19 32.4315 1136.07 32.4315 Q1132.18 32.4315 1128.5 33.3632 Q1124.81 34.295 1121.41 36.1584 L1121.41 29.2718 Q1125.5 27.692 1129.35 26.9223 Q1133.19 26.1121 1136.84 26.1121 Q1146.68 26.1121 1151.54 31.2163 Q1156.41 36.3204 1156.41 46.6907 Z" fill="#000000" fill-rule="nonzero" fill-opacity="1" /><path clip-path="url(#clip450)" d="M1198.05 34.1734 Q1196.79 33.4443 1195.29 33.1202 Q1193.84 32.7556 1192.05 32.7556 Q1185.73 32.7556 1182.33 36.8875 Q1178.97 40.9789 1178.97 48.6757 L1178.97 72.576 L1171.48 72.576 L1171.48 27.2059 L1178.97 27.2059 L1178.97 34.2544 Q1181.32 30.1225 1185.09 28.1376 Q1188.85 26.1121 1194.24 26.1121 Q1195.01 26.1121 1195.94 26.2337 Q1196.87 26.3147 1198.01 26.5172 L1198.05 34.1734 Z" fill="#000000" fill-rule="nonzero" fill-opacity="1" /><path clip-path="url(#clip450)" d="M1232.56 12.096 L1270.8 12.096 L1270.8 18.9825 L1240.75 18.9825 L1240.75 36.8875 L1269.55 36.8875 L1269.55 43.7741 L1240.75 43.7741 L1240.75 65.6895 L1271.53 65.6895 L1271.53 72.576 L1232.56 72.576 L1232.56 12.096 Z" fill="#000000" fill-rule="nonzero" fill-opacity="1" /><path clip-path="url(#clip450)" d="M1322.37 45.1919 L1322.37 72.576 L1314.92 72.576 L1314.92 45.4349 Q1314.92 38.994 1312.41 35.7938 Q1309.89 32.5936 1304.87 32.5936 Q1298.84 32.5936 1295.35 36.4419 Q1291.87 40.2903 1291.87 46.9338 L1291.87 72.576 L1284.37 72.576 L1284.37 27.2059 L1291.87 27.2059 L1291.87 34.2544 Q1294.54 30.163 1298.15 28.1376 Q1301.79 26.1121 1306.53 26.1121 Q1314.35 26.1121 1318.36 30.9732 Q1322.37 35.7938 1322.37 45.1919 Z" fill="#000000" fill-rule="nonzero" fill-opacity="1" /><path clip-path="url(#clip450)" d="M1331.89 27.2059 L1339.79 27.2059 L1353.97 65.2844 L1368.15 27.2059 L1376.05 27.2059 L1359.03 72.576 L1348.91 72.576 L1331.89 27.2059 Z" fill="#000000" fill-rule="nonzero" fill-opacity="1" /><path clip-path="url(#clip450)" d="M1425.14 48.0275 L1425.14 51.6733 L1390.87 51.6733 Q1391.36 59.3701 1395.49 63.421 Q1399.66 67.4314 1407.08 67.4314 Q1411.37 67.4314 1415.38 66.3781 Q1419.43 65.3249 1423.4 63.2184 L1423.4 70.267 Q1419.39 71.9684 1415.18 72.8596 Q1410.96 73.7508 1406.63 73.7508 Q1395.77 73.7508 1389.41 67.4314 Q1383.09 61.1119 1383.09 50.3365 Q1383.09 39.1965 1389.09 32.6746 Q1395.13 26.1121 1405.33 26.1121 Q1414.49 26.1121 1419.8 32.0264 Q1425.14 37.9003 1425.14 48.0275 M1417.69 45.84 Q1417.61 39.7232 1414.25 36.0774 Q1410.92 32.4315 1405.42 32.4315 Q1399.18 32.4315 1395.41 35.9558 Q1391.68 39.4801 1391.12 45.8805 L1417.69 45.84 Z" fill="#000000" fill-rule="nonzero" fill-opacity="1" /><path clip-path="url(#clip450)" d="M1437.38 9.54393 L1444.83 9.54393 L1444.83 72.576 L1437.38 72.576 L1437.38 9.54393 Z" fill="#000000" fill-rule="nonzero" fill-opacity="1" /><path clip-path="url(#clip450)" d="M1478.01 32.4315 Q1472.01 32.4315 1468.53 37.1306 Q1465.04 41.7891 1465.04 49.9314 Q1465.04 58.0738 1468.49 62.7728 Q1471.97 67.4314 1478.01 67.4314 Q1483.96 67.4314 1487.45 62.7323 Q1490.93 58.0333 1490.93 49.9314 Q1490.93 41.8701 1487.45 37.1711 Q1483.96 32.4315 1478.01 32.4315 M1478.01 26.1121 Q1487.73 26.1121 1493.28 32.4315 Q1498.83 38.7509 1498.83 49.9314 Q1498.83 61.0714 1493.28 67.4314 Q1487.73 73.7508 1478.01 73.7508 Q1468.24 73.7508 1462.69 67.4314 Q1457.19 61.0714 1457.19 49.9314 Q1457.19 38.7509 1462.69 32.4315 Q1468.24 26.1121 1478.01 26.1121 Z" fill="#000000" fill-rule="nonzero" fill-opacity="1" /><path clip-path="url(#clip450)" d="M1518.39 65.7705 L1518.39 89.8329 L1510.9 89.8329 L1510.9 27.2059 L1518.39 27.2059 L1518.39 34.0924 Q1520.74 30.0415 1524.31 28.0971 Q1527.91 26.1121 1532.9 26.1121 Q1541.16 26.1121 1546.31 32.6746 Q1551.49 39.2371 1551.49 49.9314 Q1551.49 60.6258 1546.31 67.1883 Q1541.16 73.7508 1532.9 73.7508 Q1527.91 73.7508 1524.31 71.8063 Q1520.74 69.8214 1518.39 65.7705 M1543.75 49.9314 Q1543.75 41.7081 1540.35 37.0496 Q1536.99 32.3505 1531.07 32.3505 Q1525.16 32.3505 1521.76 37.0496 Q1518.39 41.7081 1518.39 49.9314 Q1518.39 58.1548 1521.76 62.8538 Q1525.16 67.5124 1531.07 67.5124 Q1536.99 67.5124 1540.35 62.8538 Q1543.75 58.1548 1543.75 49.9314 Z" fill="#000000" fill-rule="nonzero" fill-opacity="1" /><path clip-path="url(#clip450)" d="M1602.65 48.0275 L1602.65 51.6733 L1568.38 51.6733 Q1568.87 59.3701 1573 63.421 Q1577.17 67.4314 1584.59 67.4314 Q1588.88 67.4314 1592.89 66.3781 Q1596.94 65.3249 1600.91 63.2184 L1600.91 70.267 Q1596.9 71.9684 1592.69 72.8596 Q1588.48 73.7508 1584.14 73.7508 Q1573.28 73.7508 1566.92 67.4314 Q1560.61 61.1119 1560.61 50.3365 Q1560.61 39.1965 1566.6 32.6746 Q1572.64 26.1121 1582.84 26.1121 Q1592 26.1121 1597.31 32.0264 Q1602.65 37.9003 1602.65 48.0275 M1595.2 45.84 Q1595.12 39.7232 1591.76 36.0774 Q1588.43 32.4315 1582.93 32.4315 Q1576.69 32.4315 1572.92 35.9558 Q1569.19 39.4801 1568.63 45.8805 L1595.2 45.84 Z" fill="#000000" fill-rule="nonzero" fill-opacity="1" /><path clip-path="url(#clip450)" d="M1659.16 9.62495 Q1653.74 18.942 1651.1 28.0566 Q1648.47 37.1711 1648.47 46.5287 Q1648.47 55.8863 1651.1 65.0818 Q1653.78 74.2369 1659.16 83.5134 L1652.68 83.5134 Q1646.61 73.9938 1643.57 64.7983 Q1640.57 55.6027 1640.57 46.5287 Q1640.57 37.4952 1643.57 28.3401 Q1646.57 19.1851 1652.68 9.62495 L1659.16 9.62495 Z" fill="#000000" fill-rule="nonzero" fill-opacity="1" /><path clip-path="url(#clip450)" d="M1710.21 14.0809 L1710.21 22.0612 Q1705.55 19.8332 1701.41 18.7395 Q1697.28 17.6457 1693.43 17.6457 Q1686.75 17.6457 1683.1 20.2383 Q1679.5 22.8309 1679.5 27.611 Q1679.5 31.6214 1681.89 33.6873 Q1684.32 35.7128 1691.04 36.9686 L1695.99 37.9813 Q1705.14 39.7232 1709.48 44.1387 Q1713.85 48.5136 1713.85 55.8863 Q1713.85 64.6767 1707.94 69.2137 Q1702.06 73.7508 1690.68 73.7508 Q1686.39 73.7508 1681.52 72.7785 Q1676.7 71.8063 1671.52 69.9024 L1671.52 61.4765 Q1676.5 64.2716 1681.28 65.6895 Q1686.06 67.1073 1690.68 67.1073 Q1697.69 67.1073 1701.5 64.3527 Q1705.3 61.598 1705.3 56.4939 Q1705.3 52.0379 1702.55 49.5264 Q1699.83 47.0148 1693.6 45.759 L1688.61 44.7868 Q1679.46 42.9639 1675.37 39.075 Q1671.28 35.1862 1671.28 28.2591 Q1671.28 20.2383 1676.91 15.6203 Q1682.58 11.0023 1692.5 11.0023 Q1696.76 11.0023 1701.17 11.7719 Q1705.59 12.5416 1710.21 14.0809 Z" fill="#000000" fill-rule="nonzero" fill-opacity="1" /><path clip-path="url(#clip450)" d="M1718.23 12.096 L1769.39 12.096 L1769.39 18.9825 L1747.92 18.9825 L1747.92 72.576 L1739.7 72.576 L1739.7 18.9825 L1718.23 18.9825 L1718.23 12.096 Z" fill="#000000" fill-rule="nonzero" fill-opacity="1" /><path clip-path="url(#clip450)" d="M1805.97 44.2197 Q1808.6 45.1109 1811.07 48.0275 Q1813.58 50.9442 1816.1 56.0483 L1824.4 72.576 L1815.61 72.576 L1807.87 57.061 Q1804.87 50.9847 1802.04 48.9997 Q1799.24 47.0148 1794.38 47.0148 L1785.47 47.0148 L1785.47 72.576 L1777.29 72.576 L1777.29 12.096 L1795.76 12.096 Q1806.13 12.096 1811.23 16.4305 Q1816.34 20.7649 1816.34 29.5149 Q1816.34 35.2267 1813.67 38.994 Q1811.03 42.7613 1805.97 44.2197 M1785.47 18.8205 L1785.47 40.2903 L1795.76 40.2903 Q1801.67 40.2903 1804.67 37.5762 Q1807.71 34.8216 1807.71 29.5149 Q1807.71 24.2082 1804.67 21.5346 Q1801.67 18.8205 1795.76 18.8205 L1785.47 18.8205 Z" fill="#000000" fill-rule="nonzero" fill-opacity="1" /><path clip-path="url(#clip450)" d="M1833.43 9.62495 L1839.92 9.62495 Q1845.99 19.1851 1848.99 28.3401 Q1852.03 37.4952 1852.03 46.5287 Q1852.03 55.6027 1848.99 64.7983 Q1845.99 73.9938 1839.92 83.5134 L1833.43 83.5134 Q1838.82 74.2369 1841.45 65.0818 Q1844.13 55.8863 1844.13 46.5287 Q1844.13 37.1711 1841.45 28.0566 Q1838.82 18.942 1833.43 9.62495 Z" fill="#000000" fill-rule="nonzero" fill-opacity="1" /><path clip-path="url(#clip452)" d="M275.888 402.982 L299.381 403.639 L322.873 404.427 L346.365 405.281 L369.858 461.959 L393.35 518.571 L416.842 519.424 L440.335 520.278 L463.827 404.23 L487.319 264.604 L510.811 265.392 L534.304 266.246 L557.796 267.1 L581.288 267.954 L604.781 268.742 L628.273 269.595 L651.765 270.449 L675.258 271.237 L698.75 272.091 L722.242 272.945 L745.735 389.978 L769.227 464.06 L792.719 464.914 L816.212 465.768 L839.704 466.621 L863.196 467.41 L886.689 468.263 L910.181 469.117 L933.673 469.971 L957.166 470.759 L980.658 471.613 L1004.15 472.467 L1027.64 318.261 L1051.13 129.707 L1074.63 130.561 L1098.12 131.414 L1121.61 262.962 L1145.1 385.906 L1168.6 386.76 L1192.09 387.614 L1215.58 388.402 L1239.07 389.256 L1262.57 390.11 L1286.06 390.963 L1309.55 391.752 L1333.04 392.605 L1356.54 393.459 L1380.03 394.313 L1403.52 395.101 L1427.01 395.955 L1450.5 396.809 L1474 397.597 L1497.49 462.484 L1520.98 527.371 L1544.47 528.225 L1567.97 529.079 L1591.46 414.738 L1614.95 253.374 L1638.44 254.162 L1661.94 255.015 L1685.43 255.869 L1708.92 256.723 L1732.41 257.511 L1755.9 258.365 L1779.4 259.219 L1802.89 260.007 L1826.38 260.861 L1849.87 261.714 L1873.37 388.599 L1896.86 461.17 L1920.35 462.024 L1943.84 462.812 L1967.34 463.666 L1990.83 464.52 L2014.32 465.374 L2037.81 466.162 L2061.3 467.016 L2084.8 467.869 L2108.29 468.657 L2131.78 469.511 L2155.27 361.213 L2178.77 184.414 L2202.26 185.203 L2225.75 186.056 L2249.24 293.173 L2272.74 400.289 L2296.23 401.143 L2319.72 401.931 L2343.21 402.588 L2343.21 402.785 L2319.72 402.785 L2296.23 402.785 L2272.74 402.785 L2249.24 402.785 L2225.75 402.785 L2202.26 402.785 L2178.77 402.785 L2155.27 402.785 L2131.78 402.785 L2108.29 402.785 L2084.8 402.785 L2061.3 402.785 L2037.81 402.785 L2014.32 402.785 L1990.83 402.785 L1967.34 402.785 L1943.84 402.785 L1920.35 402.785 L1896.86 402.785 L1873.37 402.785 L1849.87 402.785 L1826.38 402.785 L1802.89 402.785 L1779.4 402.785 L1755.9 402.785 L1732.41 402.785 L1708.92 402.785 L1685.43 402.785 L1661.94 402.785 L1638.44 402.785 L1614.95 402.785 L1591.46 402.785 L1567.97 402.785 L1544.47 402.785 L1520.98 402.785 L1497.49 402.785 L1474 402.785 L1450.5 402.785 L1427.01 402.785 L1403.52 402.785 L1380.03 402.785 L1356.54 402.785 L1333.04 402.785 L1309.55 402.785 L1286.06 402.785 L1262.57 402.785 L1239.07 402.785 L1215.58 402.785 L1192.09 402.785 L1168.6 402.785 L1145.1 402.785 L1121.61 402.785 L1098.12 402.785 L1074.63 402.785 L1051.13 402.785 L1027.64 402.785 L1004.15 402.785 L980.658 402.785 L957.166 402.785 L933.673 402.785 L910.181 402.785 L886.689 402.785 L863.196 402.785 L839.704 402.785 L816.212 402.785 L792.719 402.785 L769.227 402.785 L745.735 402.785 L722.242 402.785 L698.75 402.785 L675.258 402.785 L651.765 402.785 L628.273 402.785 L604.781 402.785 L581.288 402.785 L557.796 402.785 L534.304 402.785 L510.811 402.785 L487.319 402.785 L463.827 402.785 L440.335 402.785 L416.842 402.785 L393.35 402.785 L369.858 402.785 L346.365 402.785 L322.873 402.785 L299.381 402.785 L275.888 402.785  Z" fill="#0000ff" fill-rule="evenodd" fill-opacity="0.5"/>
<polyline clip-path="url(#clip452)" style="stroke:#0000ff; stroke-linecap:round; stroke-linejoin:round; stroke-width:4; stroke-opacity:1; fill:none" points="275.888,402.982 299.381,403.639 322.873,404.427 346.365,405.281 369.858,461.959 393.35,518.571 416.842,519.424 440.335,520.278 463.827,404.23 487.319,264.604 510.811,265.392 534.304,266.246 557.796,267.1 581.288,267.954 604.781,268.742 628.273,269.595 651.765,270.449 675.258,271.237 698.75,272.091 722.242,272.945 745.735,389.978 769.227,464.06 792.719,464.914 816.212,465.768 839.704,466.621 863.196,467.41 886.689,468.263 910.181,469.117 933.673,469.971 957.166,470.759 980.658,471.613 1004.15,472.467 1027.64,318.261 1051.13,129.707 1074.63,130.561 1098.12,131.414 1121.61,262.962 1145.1,385.906 1168.6,386.76 1192.09,387.614 1215.58,388.402 1239.07,389.256 1262.57,390.11 1286.06,390.963 1309.55,391.752 1333.04,392.605 1356.54,393.459 1380.03,394.313 1403.52,395.101 1427.01,395.955 1450.5,396.809 1474,397.597 1497.49,462.484 1520.98,527.371 1544.47,528.225 1567.97,529.079 1591.46,414.738 1614.95,253.374 1638.44,254.162 1661.94,255.015 1685.43,255.869 1708.92,256.723 1732.41,257.511 1755.9,258.365 1779.4,259.219 1802.89,260.007 1826.38,260.861 1849.87,261.714 1873.37,388.599 1896.86,461.17 1920.35,462.024 1943.84,462.812 1967.34,463.666 1990.83,464.52 2014.32,465.374 2037.81,466.162 2061.3,467.016 2084.8,467.869 2108.29,468.657 2131.78,469.511 2155.27,361.213 2178.77,184.414 2202.26,185.203 2225.75,186.056 2249.24,293.173 2272.74,400.289 2296.23,401.143 2319.72,401.931 2343.21,402.588 "/>
<path clip-path="url(#clip452)" d="M275.888 402.982 L299.381 403.639 L322.873 404.427 L346.365 405.281 L369.858 512.397 L393.35 619.514 L416.842 620.367 L440.335 621.156 L463.827 444.358 L487.319 336.059 L510.811 336.913 L534.304 337.701 L557.796 338.555 L581.288 339.408 L604.781 340.196 L628.273 341.05 L651.765 341.904 L675.258 342.758 L698.75 343.546 L722.242 344.4 L745.735 416.971 L769.227 543.856 L792.719 544.709 L816.212 545.563 L839.704 546.351 L863.196 547.205 L886.689 548.059 L910.181 548.847 L933.673 549.701 L957.166 550.555 L980.658 551.408 L1004.15 552.196 L1027.64 390.832 L1051.13 276.491 L1074.63 277.345 L1098.12 278.199 L1121.61 343.086 L1145.1 407.973 L1168.6 408.761 L1192.09 409.615 L1215.58 410.469 L1239.07 411.257 L1262.57 412.111 L1286.06 412.965 L1309.55 413.818 L1333.04 414.607 L1356.54 415.46 L1380.03 416.314 L1403.52 417.168 L1427.01 417.956 L1450.5 418.81 L1474 419.664 L1497.49 542.608 L1520.98 674.156 L1544.47 675.009 L1567.97 675.863 L1591.46 487.309 L1614.95 333.103 L1638.44 333.957 L1661.94 334.811 L1685.43 335.599 L1708.92 336.453 L1732.41 337.307 L1755.9 338.16 L1779.4 338.949 L1802.89 339.802 L1826.38 340.656 L1849.87 341.51 L1873.37 415.592 L1896.86 532.625 L1920.35 533.479 L1943.84 534.333 L1967.34 535.121 L1990.83 535.975 L2014.32 536.828 L2037.81 537.617 L2061.3 538.47 L2084.8 539.324 L2108.29 540.178 L2131.78 540.966 L2155.27 401.34 L2178.77 285.292 L2202.26 286.146 L2225.75 286.999 L2249.24 343.612 L2272.74 400.289 L2296.23 401.143 L2319.72 401.931 L2343.21 402.588 L2343.21 402.785 L2319.72 402.785 L2296.23 402.785 L2272.74 402.785 L2249.24 402.785 L2225.75 402.785 L2202.26 402.785 L2178.77 402.785 L2155.27 402.785 L2131.78 402.785 L2108.29 402.785 L2084.8 402.785 L2061.3 402.785 L2037.81 402.785 L2014.32 402.785 L1990.83 402.785 L1967.34 402.785 L1943.84 402.785 L1920.35 402.785 L1896.86 402.785 L1873.37 402.785 L1849.87 402.785 L1826.38 402.785 L1802.89 402.785 L1779.4 402.785 L1755.9 402.785 L1732.41 402.785 L1708.92 402.785 L1685.43 402.785 L1661.94 402.785 L1638.44 402.785 L1614.95 402.785 L1591.46 402.785 L1567.97 402.785 L1544.47 402.785 L1520.98 402.785 L1497.49 402.785 L1474 402.785 L1450.5 402.785 L1427.01 402.785 L1403.52 402.785 L1380.03 402.785 L1356.54 402.785 L1333.04 402.785 L1309.55 402.785 L1286.06 402.785 L1262.57 402.785 L1239.07 402.785 L1215.58 402.785 L1192.09 402.785 L1168.6 402.785 L1145.1 402.785 L1121.61 402.785 L1098.12 402.785 L1074.63 402.785 L1051.13 402.785 L1027.64 402.785 L1004.15 402.785 L980.658 402.785 L957.166 402.785 L933.673 402.785 L910.181 402.785 L886.689 402.785 L863.196 402.785 L839.704 402.785 L816.212 402.785 L792.719 402.785 L769.227 402.785 L745.735 402.785 L722.242 402.785 L698.75 402.785 L675.258 402.785 L651.765 402.785 L628.273 402.785 L604.781 402.785 L581.288 402.785 L557.796 402.785 L534.304 402.785 L510.811 402.785 L487.319 402.785 L463.827 402.785 L440.335 402.785 L416.842 402.785 L393.35 402.785 L369.858 402.785 L346.365 402.785 L322.873 402.785 L299.381 402.785 L275.888 402.785  Z" fill="#ff0000" fill-rule="evenodd" fill-opacity="0.5"/>
<polyline clip-path="url(#clip452)" style="stroke:#ff0000; stroke-linecap:round; stroke-linejoin:round; stroke-width:4; stroke-opacity:1; fill:none" points="275.888,402.982 299.381,403.639 322.873,404.427 346.365,405.281 369.858,512.397 393.35,619.514 416.842,620.367 440.335,621.156 463.827,444.358 487.319,336.059 510.811,336.913 534.304,337.701 557.796,338.555 581.288,339.408 604.781,340.196 628.273,341.05 651.765,341.904 675.258,342.758 698.75,343.546 722.242,344.4 745.735,416.971 769.227,543.856 792.719,544.709 816.212,545.563 839.704,546.351 863.196,547.205 886.689,548.059 910.181,548.847 933.673,549.701 957.166,550.555 980.658,551.408 1004.15,552.196 1027.64,390.832 1051.13,276.491 1074.63,277.345 1098.12,278.199 1121.61,343.086 1145.1,407.973 1168.6,408.761 1192.09,409.615 1215.58,410.469 1239.07,411.257 1262.57,412.111 1286.06,412.965 1309.55,413.818 1333.04,414.607 1356.54,415.46 1380.03,416.314 1403.52,417.168 1427.01,417.956 1450.5,418.81 1474,419.664 1497.49,542.608 1520.98,674.156 1544.47,675.009 1567.97,675.863 1591.46,487.309 1614.95,333.103 1638.44,333.957 1661.94,334.811 1685.43,335.599 1708.92,336.453 1732.41,337.307 1755.9,338.16 1779.4,338.949 1802.89,339.802 1826.38,340.656 1849.87,341.51 1873.37,415.592 1896.86,532.625 1920.35,533.479 1943.84,534.333 1967.34,535.121 1990.83,535.975 2014.32,536.828 2037.81,537.617 2061.3,538.47 2084.8,539.324 2108.29,540.178 2131.78,540.966 2155.27,401.34 2178.77,285.292 2202.26,286.146 2225.75,286.999 2249.24,343.612 2272.74,400.289 2296.23,401.143 2319.72,401.931 2343.21,402.588 "/>
<path clip-path="url(#clip450)" d="M2492.66 288.14 L2836.76 288.14 L2836.76 132.62 L2492.66 132.62  Z" fill="#ffffff" fill-rule="evenodd" fill-opacity="1"/>
<polyline clip-path="url(#clip450)" style="stroke:#000000; stroke-linecap:round; stroke-linejoin:round; stroke-width:4; stroke-opacity:1; fill:none" points="2492.66,288.14 2836.76,288.14 2836.76,132.62 2492.66,132.62 2492.66,288.14 "/>
<path clip-path="url(#clip450)" d="M2521.81 205.196 L2696.66 205.196 L2696.66 163.724 L2521.81 163.724 L2521.81 205.196  Z" fill="#0000ff" fill-rule="evenodd" fill-opacity="0.5"/>
<polyline clip-path="url(#clip450)" style="stroke:#0000ff; stroke-linecap:round; stroke-linejoin:round; stroke-width:4; stroke-opacity:1; fill:none" points="2521.81,163.724 2696.66,163.724 "/>
<path clip-path="url(#clip450)" d="M2742.59 172.018 L2742.59 184.911 L2755.48 184.911 L2755.48 188.846 L2742.59 188.846 L2742.59 201.74 L2738.7 201.74 L2738.7 188.846 L2725.81 188.846 L2725.81 184.911 L2738.7 184.911 L2738.7 172.018 L2742.59 172.018 Z" fill="#000000" fill-rule="nonzero" fill-opacity="1" /><path clip-path="url(#clip450)" d="M2789.14 201.74 L2775.95 167.18 L2780.83 167.18 L2791.78 196.277 L2802.75 167.18 L2807.61 167.18 L2794.44 201.74 L2789.14 201.74 Z" fill="#000000" fill-rule="nonzero" fill-opacity="1" /><path clip-path="url(#clip450)" d="M2521.81 257.036 L2696.66 257.036 L2696.66 215.564 L2521.81 215.564 L2521.81 257.036  Z" fill="#ff0000" fill-rule="evenodd" fill-opacity="0.5"/>
<polyline clip-path="url(#clip450)" style="stroke:#ff0000; stroke-linecap:round; stroke-linejoin:round; stroke-width:4; stroke-opacity:1; fill:none" points="2521.81,215.564 2696.66,215.564 "/>
<path clip-path="url(#clip450)" d="M2725.81 238.696 L2738.28 238.696 L2738.28 242.492 L2725.81 242.492 L2725.81 238.696 Z" fill="#000000" fill-rule="nonzero" fill-opacity="1" /><path clip-path="url(#clip450)" d="M2769.23 253.58 L2756.04 219.02 L2760.92 219.02 L2771.87 248.117 L2782.84 219.02 L2787.71 219.02 L2774.53 253.58 L2769.23 253.58 Z" fill="#000000" fill-rule="nonzero" fill-opacity="1" /><path clip-path="url(#clip450)" d="M213.869 1492.25 L2401 1492.25 L2401 913.322 L213.869 913.322  Z" fill="#ffffff" fill-rule="evenodd" fill-opacity="1"/>
<defs>
  <clipPath id="clip453">
    <rect x="213" y="913" width="2188" height="580"/>
  </clipPath>
</defs>
<polyline clip-path="url(#clip453)" style="stroke:#000000; stroke-linecap:round; stroke-linejoin:round; stroke-width:2; stroke-opacity:0.1; fill:none" points="275.768,1492.25 275.768,913.322 "/>
<polyline clip-path="url(#clip453)" style="stroke:#000000; stroke-linecap:round; stroke-linejoin:round; stroke-width:2; stroke-opacity:0.1; fill:none" points="744.707,1492.25 744.707,913.322 "/>
<polyline clip-path="url(#clip453)" style="stroke:#000000; stroke-linecap:round; stroke-linejoin:round; stroke-width:2; stroke-opacity:0.1; fill:none" points="1213.64,1492.25 1213.64,913.322 "/>
<polyline clip-path="url(#clip453)" style="stroke:#000000; stroke-linecap:round; stroke-linejoin:round; stroke-width:2; stroke-opacity:0.1; fill:none" points="1682.58,1492.25 1682.58,913.322 "/>
<polyline clip-path="url(#clip453)" style="stroke:#000000; stroke-linecap:round; stroke-linejoin:round; stroke-width:2; stroke-opacity:0.1; fill:none" points="2151.52,1492.25 2151.52,913.322 "/>
<polyline clip-path="url(#clip453)" style="stroke:#000000; stroke-linecap:round; stroke-linejoin:round; stroke-width:2; stroke-opacity:0.1; fill:none" points="213.869,1438.23 2401,1438.23 "/>
<polyline clip-path="url(#clip453)" style="stroke:#000000; stroke-linecap:round; stroke-linejoin:round; stroke-width:2; stroke-opacity:0.1; fill:none" points="213.869,1361.19 2401,1361.19 "/>
<polyline clip-path="url(#clip453)" style="stroke:#000000; stroke-linecap:round; stroke-linejoin:round; stroke-width:2; stroke-opacity:0.1; fill:none" points="213.869,1284.16 2401,1284.16 "/>
<polyline clip-path="url(#clip453)" style="stroke:#000000; stroke-linecap:round; stroke-linejoin:round; stroke-width:2; stroke-opacity:0.1; fill:none" points="213.869,1207.12 2401,1207.12 "/>
<polyline clip-path="url(#clip453)" style="stroke:#000000; stroke-linecap:round; stroke-linejoin:round; stroke-width:2; stroke-opacity:0.1; fill:none" points="213.869,1130.08 2401,1130.08 "/>
<polyline clip-path="url(#clip453)" style="stroke:#000000; stroke-linecap:round; stroke-linejoin:round; stroke-width:2; stroke-opacity:0.1; fill:none" points="213.869,1053.04 2401,1053.04 "/>
<polyline clip-path="url(#clip453)" style="stroke:#000000; stroke-linecap:round; stroke-linejoin:round; stroke-width:2; stroke-opacity:0.1; fill:none" points="213.869,976.006 2401,976.006 "/>
<polyline clip-path="url(#clip450)" style="stroke:#000000; stroke-linecap:round; stroke-linejoin:round; stroke-width:4; stroke-opacity:1; fill:none" points="213.869,1492.25 2401,1492.25 "/>
<polyline clip-path="url(#clip450)" style="stroke:#000000; stroke-linecap:round; stroke-linejoin:round; stroke-width:4; stroke-opacity:1; fill:none" points="275.768,1492.25 275.768,1473.35 "/>
<polyline clip-path="url(#clip450)" style="stroke:#000000; stroke-linecap:round; stroke-linejoin:round; stroke-width:4; stroke-opacity:1; fill:none" points="744.707,1492.25 744.707,1473.35 "/>
<polyline clip-path="url(#clip450)" style="stroke:#000000; stroke-linecap:round; stroke-linejoin:round; stroke-width:4; stroke-opacity:1; fill:none" points="1213.64,1492.25 1213.64,1473.35 "/>
<polyline clip-path="url(#clip450)" style="stroke:#000000; stroke-linecap:round; stroke-linejoin:round; stroke-width:4; stroke-opacity:1; fill:none" points="1682.58,1492.25 1682.58,1473.35 "/>
<polyline clip-path="url(#clip450)" style="stroke:#000000; stroke-linecap:round; stroke-linejoin:round; stroke-width:4; stroke-opacity:1; fill:none" points="2151.52,1492.25 2151.52,1473.35 "/>
<path clip-path="url(#clip450)" d="M275.768 1527.04 Q272.157 1527.04 270.329 1530.6 Q268.523 1534.14 268.523 1541.27 Q268.523 1548.38 270.329 1551.95 Q272.157 1555.49 275.768 1555.49 Q279.403 1555.49 281.208 1551.95 Q283.037 1548.38 283.037 1541.27 Q283.037 1534.14 281.208 1530.6 Q279.403 1527.04 275.768 1527.04 M275.768 1523.33 Q281.579 1523.33 284.634 1527.94 Q287.713 1532.52 287.713 1541.27 Q287.713 1550 284.634 1554.61 Q281.579 1559.19 275.768 1559.19 Q269.958 1559.19 266.88 1554.61 Q263.824 1550 263.824 1541.27 Q263.824 1532.52 266.88 1527.94 Q269.958 1523.33 275.768 1523.33 Z" fill="#000000" fill-rule="nonzero" fill-opacity="1" /><path clip-path="url(#clip450)" d="M719.394 1554.58 L727.033 1554.58 L727.033 1528.22 L718.723 1529.89 L718.723 1525.63 L726.987 1523.96 L731.663 1523.96 L731.663 1554.58 L739.302 1554.58 L739.302 1558.52 L719.394 1558.52 L719.394 1554.58 Z" fill="#000000" fill-rule="nonzero" fill-opacity="1" /><path clip-path="url(#clip450)" d="M758.746 1527.04 Q755.135 1527.04 753.306 1530.6 Q751.501 1534.14 751.501 1541.27 Q751.501 1548.38 753.306 1551.95 Q755.135 1555.49 758.746 1555.49 Q762.38 1555.49 764.186 1551.95 Q766.014 1548.38 766.014 1541.27 Q766.014 1534.14 764.186 1530.6 Q762.38 1527.04 758.746 1527.04 M758.746 1523.33 Q764.556 1523.33 767.612 1527.94 Q770.69 1532.52 770.69 1541.27 Q770.69 1550 767.612 1554.61 Q764.556 1559.19 758.746 1559.19 Q752.936 1559.19 749.857 1554.61 Q746.801 1550 746.801 1541.27 Q746.801 1532.52 749.857 1527.94 Q752.936 1523.33 758.746 1523.33 Z" fill="#000000" fill-rule="nonzero" fill-opacity="1" /><path clip-path="url(#clip450)" d="M1192.42 1554.58 L1208.74 1554.58 L1208.74 1558.52 L1186.79 1558.52 L1186.79 1554.58 Q1189.46 1551.83 1194.04 1547.2 Q1198.64 1542.55 1199.83 1541.21 Q1202.07 1538.68 1202.95 1536.95 Q1203.85 1535.19 1203.85 1533.5 Q1203.85 1530.74 1201.91 1529.01 Q1199.99 1527.27 1196.89 1527.27 Q1194.69 1527.27 1192.23 1528.03 Q1189.8 1528.8 1187.02 1530.35 L1187.02 1525.63 Q1189.85 1524.49 1192.3 1523.91 Q1194.76 1523.33 1196.79 1523.33 Q1202.16 1523.33 1205.36 1526.02 Q1208.55 1528.71 1208.55 1533.2 Q1208.55 1535.33 1207.74 1537.25 Q1206.96 1539.14 1204.85 1541.74 Q1204.27 1542.41 1201.17 1545.63 Q1198.07 1548.82 1192.42 1554.58 Z" fill="#000000" fill-rule="nonzero" fill-opacity="1" /><path clip-path="url(#clip450)" d="M1228.55 1527.04 Q1224.94 1527.04 1223.11 1530.6 Q1221.31 1534.14 1221.31 1541.27 Q1221.31 1548.38 1223.11 1551.95 Q1224.94 1555.49 1228.55 1555.49 Q1232.19 1555.49 1233.99 1551.95 Q1235.82 1548.38 1235.82 1541.27 Q1235.82 1534.14 1233.99 1530.6 Q1232.19 1527.04 1228.55 1527.04 M1228.55 1523.33 Q1234.36 1523.33 1237.42 1527.94 Q1240.5 1532.52 1240.5 1541.27 Q1240.5 1550 1237.42 1554.61 Q1234.36 1559.19 1228.55 1559.19 Q1222.74 1559.19 1219.66 1554.61 Q1216.61 1550 1216.61 1541.27 Q1216.61 1532.52 1219.66 1527.94 Q1222.74 1523.33 1228.55 1523.33 Z" fill="#000000" fill-rule="nonzero" fill-opacity="1" /><path clip-path="url(#clip450)" d="M1671.43 1539.89 Q1674.78 1540.6 1676.66 1542.87 Q1678.56 1545.14 1678.56 1548.47 Q1678.56 1553.59 1675.04 1556.39 Q1671.52 1559.19 1665.04 1559.19 Q1662.86 1559.19 1660.55 1558.75 Q1658.25 1558.33 1655.8 1557.48 L1655.8 1552.96 Q1657.75 1554.1 1660.06 1554.68 Q1662.37 1555.26 1664.9 1555.26 Q1669.3 1555.26 1671.59 1553.52 Q1673.9 1551.78 1673.9 1548.47 Q1673.9 1545.42 1671.75 1543.71 Q1669.62 1541.97 1665.8 1541.97 L1661.77 1541.97 L1661.77 1538.13 L1665.99 1538.13 Q1669.43 1538.13 1671.26 1536.76 Q1673.09 1535.37 1673.09 1532.78 Q1673.09 1530.12 1671.19 1528.71 Q1669.32 1527.27 1665.8 1527.27 Q1663.88 1527.27 1661.68 1527.69 Q1659.48 1528.1 1656.84 1528.98 L1656.84 1524.82 Q1659.5 1524.08 1661.82 1523.71 Q1664.16 1523.33 1666.22 1523.33 Q1671.54 1523.33 1674.64 1525.77 Q1677.75 1528.17 1677.75 1532.29 Q1677.75 1535.16 1676.1 1537.15 Q1674.46 1539.12 1671.43 1539.89 Z" fill="#000000" fill-rule="nonzero" fill-opacity="1" /><path clip-path="url(#clip450)" d="M1697.42 1527.04 Q1693.81 1527.04 1691.98 1530.6 Q1690.18 1534.14 1690.18 1541.27 Q1690.18 1548.38 1691.98 1551.95 Q1693.81 1555.49 1697.42 1555.49 Q1701.06 1555.49 1702.86 1551.95 Q1704.69 1548.38 1704.69 1541.27 Q1704.69 1534.14 1702.86 1530.6 Q1701.06 1527.04 1697.42 1527.04 M1697.42 1523.33 Q1703.23 1523.33 1706.29 1527.94 Q1709.37 1532.52 1709.37 1541.27 Q1709.37 1550 1706.29 1554.61 Q1703.23 1559.19 1697.42 1559.19 Q1691.61 1559.19 1688.53 1554.61 Q1685.48 1550 1685.48 1541.27 Q1685.48 1532.52 1688.53 1527.94 Q1691.61 1523.33 1697.42 1523.33 Z" fill="#000000" fill-rule="nonzero" fill-opacity="1" /><path clip-path="url(#clip450)" d="M2139.69 1528.03 L2127.89 1546.48 L2139.69 1546.48 L2139.69 1528.03 M2138.47 1523.96 L2144.35 1523.96 L2144.35 1546.48 L2149.28 1546.48 L2149.28 1550.37 L2144.35 1550.37 L2144.35 1558.52 L2139.69 1558.52 L2139.69 1550.37 L2124.09 1550.37 L2124.09 1545.86 L2138.47 1523.96 Z" fill="#000000" fill-rule="nonzero" fill-opacity="1" /><path clip-path="url(#clip450)" d="M2167.01 1527.04 Q2163.4 1527.04 2161.57 1530.6 Q2159.76 1534.14 2159.76 1541.27 Q2159.76 1548.38 2161.57 1551.95 Q2163.4 1555.49 2167.01 1555.49 Q2170.64 1555.49 2172.45 1551.95 Q2174.28 1548.38 2174.28 1541.27 Q2174.28 1534.14 2172.45 1530.6 Q2170.64 1527.04 2167.01 1527.04 M2167.01 1523.33 Q2172.82 1523.33 2175.87 1527.94 Q2178.95 1532.52 2178.95 1541.27 Q2178.95 1550 2175.87 1554.61 Q2172.82 1559.19 2167.01 1559.19 Q2161.2 1559.19 2158.12 1554.61 Q2155.06 1550 2155.06 1541.27 Q2155.06 1532.52 2158.12 1527.94 Q2161.2 1523.33 2167.01 1523.33 Z" fill="#000000" fill-rule="nonzero" fill-opacity="1" /><polyline clip-path="url(#clip450)" style="stroke:#000000; stroke-linecap:round; stroke-linejoin:round; stroke-width:4; stroke-opacity:1; fill:none" points="213.869,1492.25 213.869,913.322 "/>
<polyline clip-path="url(#clip450)" style="stroke:#000000; stroke-linecap:round; stroke-linejoin:round; stroke-width:4; stroke-opacity:1; fill:none" points="213.869,1438.23 229.627,1438.23 "/>
<polyline clip-path="url(#clip450)" style="stroke:#000000; stroke-linecap:round; stroke-linejoin:round; stroke-width:4; stroke-opacity:1; fill:none" points="213.869,1361.19 229.627,1361.19 "/>
<polyline clip-path="url(#clip450)" style="stroke:#000000; stroke-linecap:round; stroke-linejoin:round; stroke-width:4; stroke-opacity:1; fill:none" points="213.869,1284.16 229.627,1284.16 "/>
<polyline clip-path="url(#clip450)" style="stroke:#000000; stroke-linecap:round; stroke-linejoin:round; stroke-width:4; stroke-opacity:1; fill:none" points="213.869,1207.12 229.627,1207.12 "/>
<polyline clip-path="url(#clip450)" style="stroke:#000000; stroke-linecap:round; stroke-linejoin:round; stroke-width:4; stroke-opacity:1; fill:none" points="213.869,1130.08 229.627,1130.08 "/>
<polyline clip-path="url(#clip450)" style="stroke:#000000; stroke-linecap:round; stroke-linejoin:round; stroke-width:4; stroke-opacity:1; fill:none" points="213.869,1053.04 229.627,1053.04 "/>
<polyline clip-path="url(#clip450)" style="stroke:#000000; stroke-linecap:round; stroke-linejoin:round; stroke-width:4; stroke-opacity:1; fill:none" points="213.869,976.006 229.627,976.006 "/>
<path clip-path="url(#clip450)" d="M48.5721 1438.68 L78.2479 1438.68 L78.2479 1442.62 L48.5721 1442.62 L48.5721 1438.68 Z" fill="#000000" fill-rule="nonzero" fill-opacity="1" /><path clip-path="url(#clip450)" d="M98.9191 1436.37 Q95.7709 1436.37 93.9191 1438.52 Q92.0904 1440.67 92.0904 1444.42 Q92.0904 1448.15 93.9191 1450.33 Q95.7709 1452.48 98.9191 1452.48 Q102.067 1452.48 103.896 1450.33 Q105.748 1448.15 105.748 1444.42 Q105.748 1440.67 103.896 1438.52 Q102.067 1436.37 98.9191 1436.37 M108.201 1421.71 L108.201 1425.97 Q106.442 1425.14 104.637 1424.7 Q102.854 1424.26 101.095 1424.26 Q96.4654 1424.26 94.0117 1427.39 Q91.5812 1430.51 91.2339 1436.83 Q92.5997 1434.82 94.6598 1433.75 Q96.72 1432.66 99.1969 1432.66 Q104.405 1432.66 107.414 1435.83 Q110.447 1438.98 110.447 1444.42 Q110.447 1449.75 107.299 1452.96 Q104.151 1456.18 98.9191 1456.18 Q92.9237 1456.18 89.7525 1451.6 Q86.5812 1446.99 86.5812 1438.27 Q86.5812 1430.07 90.47 1425.21 Q94.3589 1420.33 100.91 1420.33 Q102.669 1420.33 104.451 1420.67 Q106.257 1421.02 108.201 1421.71 Z" fill="#000000" fill-rule="nonzero" fill-opacity="1" /><path clip-path="url(#clip450)" d="M128.502 1424.03 Q124.891 1424.03 123.062 1427.59 Q121.257 1431.14 121.257 1438.27 Q121.257 1445.37 123.062 1448.94 Q124.891 1452.48 128.502 1452.48 Q132.136 1452.48 133.942 1448.94 Q135.771 1445.37 135.771 1438.27 Q135.771 1431.14 133.942 1427.59 Q132.136 1424.03 128.502 1424.03 M128.502 1420.33 Q134.312 1420.33 137.368 1424.93 Q140.447 1429.52 140.447 1438.27 Q140.447 1446.99 137.368 1451.6 Q134.312 1456.18 128.502 1456.18 Q122.692 1456.18 119.613 1451.6 Q116.558 1446.99 116.558 1438.27 Q116.558 1429.52 119.613 1424.93 Q122.692 1420.33 128.502 1420.33 Z" fill="#000000" fill-rule="nonzero" fill-opacity="1" /><path clip-path="url(#clip450)" d="M158.664 1424.03 Q155.053 1424.03 153.224 1427.59 Q151.419 1431.14 151.419 1438.27 Q151.419 1445.37 153.224 1448.94 Q155.053 1452.48 158.664 1452.48 Q162.298 1452.48 164.104 1448.94 Q165.933 1445.37 165.933 1438.27 Q165.933 1431.14 164.104 1427.59 Q162.298 1424.03 158.664 1424.03 M158.664 1420.33 Q164.474 1420.33 167.53 1424.93 Q170.609 1429.52 170.609 1438.27 Q170.609 1446.99 167.53 1451.6 Q164.474 1456.18 158.664 1456.18 Q152.854 1456.18 149.775 1451.6 Q146.72 1446.99 146.72 1438.27 Q146.72 1429.52 149.775 1424.93 Q152.854 1420.33 158.664 1420.33 Z" fill="#000000" fill-rule="nonzero" fill-opacity="1" /><path clip-path="url(#clip450)" d="M48.5721 1361.64 L78.2479 1361.64 L78.2479 1365.58 L48.5721 1365.58 L48.5721 1361.64 Z" fill="#000000" fill-rule="nonzero" fill-opacity="1" /><path clip-path="url(#clip450)" d="M101.188 1347.99 L89.3821 1366.44 L101.188 1366.44 L101.188 1347.99 M99.9607 1343.91 L105.84 1343.91 L105.84 1366.44 L110.771 1366.44 L110.771 1370.32 L105.84 1370.32 L105.84 1378.47 L101.188 1378.47 L101.188 1370.32 L85.5858 1370.32 L85.5858 1365.81 L99.9607 1343.91 Z" fill="#000000" fill-rule="nonzero" fill-opacity="1" /><path clip-path="url(#clip450)" d="M128.502 1346.99 Q124.891 1346.99 123.062 1350.56 Q121.257 1354.1 121.257 1361.23 Q121.257 1368.33 123.062 1371.9 Q124.891 1375.44 128.502 1375.44 Q132.136 1375.44 133.942 1371.9 Q135.771 1368.33 135.771 1361.23 Q135.771 1354.1 133.942 1350.56 Q132.136 1346.99 128.502 1346.99 M128.502 1343.29 Q134.312 1343.29 137.368 1347.89 Q140.447 1352.48 140.447 1361.23 Q140.447 1369.95 137.368 1374.56 Q134.312 1379.14 128.502 1379.14 Q122.692 1379.14 119.613 1374.56 Q116.558 1369.95 116.558 1361.23 Q116.558 1352.48 119.613 1347.89 Q122.692 1343.29 128.502 1343.29 Z" fill="#000000" fill-rule="nonzero" fill-opacity="1" /><path clip-path="url(#clip450)" d="M158.664 1346.99 Q155.053 1346.99 153.224 1350.56 Q151.419 1354.1 151.419 1361.23 Q151.419 1368.33 153.224 1371.9 Q155.053 1375.44 158.664 1375.44 Q162.298 1375.44 164.104 1371.9 Q165.933 1368.33 165.933 1361.23 Q165.933 1354.1 164.104 1350.56 Q162.298 1346.99 158.664 1346.99 M158.664 1343.29 Q164.474 1343.29 167.53 1347.89 Q170.609 1352.48 170.609 1361.23 Q170.609 1369.95 167.53 1374.56 Q164.474 1379.14 158.664 1379.14 Q152.854 1379.14 149.775 1374.56 Q146.72 1369.95 146.72 1361.23 Q146.72 1352.48 149.775 1347.89 Q152.854 1343.29 158.664 1343.29 Z" fill="#000000" fill-rule="nonzero" fill-opacity="1" /><path clip-path="url(#clip450)" d="M48.5721 1284.61 L78.2479 1284.61 L78.2479 1288.54 L48.5721 1288.54 L48.5721 1284.61 Z" fill="#000000" fill-rule="nonzero" fill-opacity="1" /><path clip-path="url(#clip450)" d="M92.3682 1297.5 L108.688 1297.5 L108.688 1301.44 L86.7432 1301.44 L86.7432 1297.5 Q89.4052 1294.75 93.9885 1290.12 Q98.595 1285.46 99.7756 1284.12 Q102.021 1281.6 102.901 1279.86 Q103.803 1278.1 103.803 1276.41 Q103.803 1273.66 101.859 1271.92 Q99.9376 1270.19 96.8358 1270.19 Q94.6367 1270.19 92.183 1270.95 Q89.7525 1271.71 86.9747 1273.26 L86.9747 1268.54 Q89.7988 1267.41 92.2524 1266.83 Q94.7061 1266.25 96.7432 1266.25 Q102.114 1266.25 105.308 1268.94 Q108.502 1271.62 108.502 1276.11 Q108.502 1278.24 107.692 1280.16 Q106.905 1282.06 104.799 1284.65 Q104.22 1285.32 101.118 1288.54 Q98.0163 1291.74 92.3682 1297.5 Z" fill="#000000" fill-rule="nonzero" fill-opacity="1" /><path clip-path="url(#clip450)" d="M128.502 1269.95 Q124.891 1269.95 123.062 1273.52 Q121.257 1277.06 121.257 1284.19 Q121.257 1291.3 123.062 1294.86 Q124.891 1298.4 128.502 1298.4 Q132.136 1298.4 133.942 1294.86 Q135.771 1291.3 135.771 1284.19 Q135.771 1277.06 133.942 1273.52 Q132.136 1269.95 128.502 1269.95 M128.502 1266.25 Q134.312 1266.25 137.368 1270.86 Q140.447 1275.44 140.447 1284.19 Q140.447 1292.92 137.368 1297.52 Q134.312 1302.11 128.502 1302.11 Q122.692 1302.11 119.613 1297.52 Q116.558 1292.92 116.558 1284.19 Q116.558 1275.44 119.613 1270.86 Q122.692 1266.25 128.502 1266.25 Z" fill="#000000" fill-rule="nonzero" fill-opacity="1" /><path clip-path="url(#clip450)" d="M158.664 1269.95 Q155.053 1269.95 153.224 1273.52 Q151.419 1277.06 151.419 1284.19 Q151.419 1291.3 153.224 1294.86 Q155.053 1298.4 158.664 1298.4 Q162.298 1298.4 164.104 1294.86 Q165.933 1291.3 165.933 1284.19 Q165.933 1277.06 164.104 1273.52 Q162.298 1269.95 158.664 1269.95 M158.664 1266.25 Q164.474 1266.25 167.53 1270.86 Q170.609 1275.44 170.609 1284.19 Q170.609 1292.92 167.53 1297.52 Q164.474 1302.11 158.664 1302.11 Q152.854 1302.11 149.775 1297.52 Q146.72 1292.92 146.72 1284.19 Q146.72 1275.44 149.775 1270.86 Q152.854 1266.25 158.664 1266.25 Z" fill="#000000" fill-rule="nonzero" fill-opacity="1" /><path clip-path="url(#clip450)" d="M158.664 1192.92 Q155.053 1192.92 153.224 1196.48 Q151.419 1200.02 151.419 1207.15 Q151.419 1214.26 153.224 1217.82 Q155.053 1221.37 158.664 1221.37 Q162.298 1221.37 164.104 1217.82 Q165.933 1214.26 165.933 1207.15 Q165.933 1200.02 164.104 1196.48 Q162.298 1192.92 158.664 1192.92 M158.664 1189.21 Q164.474 1189.21 167.53 1193.82 Q170.609 1198.4 170.609 1207.15 Q170.609 1215.88 167.53 1220.49 Q164.474 1225.07 158.664 1225.07 Q152.854 1225.07 149.775 1220.49 Q146.72 1215.88 146.72 1207.15 Q146.72 1198.4 149.775 1193.82 Q152.854 1189.21 158.664 1189.21 Z" fill="#000000" fill-rule="nonzero" fill-opacity="1" /><path clip-path="url(#clip450)" d="M92.3682 1143.43 L108.688 1143.43 L108.688 1147.36 L86.7432 1147.36 L86.7432 1143.43 Q89.4052 1140.67 93.9885 1136.04 Q98.595 1131.39 99.7756 1130.05 Q102.021 1127.52 102.901 1125.79 Q103.803 1124.03 103.803 1122.34 Q103.803 1119.58 101.859 1117.85 Q99.9376 1116.11 96.8358 1116.11 Q94.6367 1116.11 92.183 1116.88 Q89.7525 1117.64 86.9747 1119.19 L86.9747 1114.47 Q89.7988 1113.33 92.2524 1112.75 Q94.7061 1112.18 96.7432 1112.18 Q102.114 1112.18 105.308 1114.86 Q108.502 1117.55 108.502 1122.04 Q108.502 1124.17 107.692 1126.09 Q106.905 1127.99 104.799 1130.58 Q104.22 1131.25 101.118 1134.47 Q98.0163 1137.66 92.3682 1143.43 Z" fill="#000000" fill-rule="nonzero" fill-opacity="1" /><path clip-path="url(#clip450)" d="M128.502 1115.88 Q124.891 1115.88 123.062 1119.44 Q121.257 1122.99 121.257 1130.12 Q121.257 1137.22 123.062 1140.79 Q124.891 1144.33 128.502 1144.33 Q132.136 1144.33 133.942 1140.79 Q135.771 1137.22 135.771 1130.12 Q135.771 1122.99 133.942 1119.44 Q132.136 1115.88 128.502 1115.88 M128.502 1112.18 Q134.312 1112.18 137.368 1116.78 Q140.447 1121.37 140.447 1130.12 Q140.447 1138.84 137.368 1143.45 Q134.312 1148.03 128.502 1148.03 Q122.692 1148.03 119.613 1143.45 Q116.558 1138.84 116.558 1130.12 Q116.558 1121.37 119.613 1116.78 Q122.692 1112.18 128.502 1112.18 Z" fill="#000000" fill-rule="nonzero" fill-opacity="1" /><path clip-path="url(#clip450)" d="M158.664 1115.88 Q155.053 1115.88 153.224 1119.44 Q151.419 1122.99 151.419 1130.12 Q151.419 1137.22 153.224 1140.79 Q155.053 1144.33 158.664 1144.33 Q162.298 1144.33 164.104 1140.79 Q165.933 1137.22 165.933 1130.12 Q165.933 1122.99 164.104 1119.44 Q162.298 1115.88 158.664 1115.88 M158.664 1112.18 Q164.474 1112.18 167.53 1116.78 Q170.609 1121.37 170.609 1130.12 Q170.609 1138.84 167.53 1143.45 Q164.474 1148.03 158.664 1148.03 Q152.854 1148.03 149.775 1143.45 Q146.72 1138.84 146.72 1130.12 Q146.72 1121.37 149.775 1116.78 Q152.854 1112.18 158.664 1112.18 Z" fill="#000000" fill-rule="nonzero" fill-opacity="1" /><path clip-path="url(#clip450)" d="M101.188 1039.84 L89.3821 1058.29 L101.188 1058.29 L101.188 1039.84 M99.9607 1035.76 L105.84 1035.76 L105.84 1058.29 L110.771 1058.29 L110.771 1062.18 L105.84 1062.18 L105.84 1070.32 L101.188 1070.32 L101.188 1062.18 L85.5858 1062.18 L85.5858 1057.66 L99.9607 1035.76 Z" fill="#000000" fill-rule="nonzero" fill-opacity="1" /><path clip-path="url(#clip450)" d="M128.502 1038.84 Q124.891 1038.84 123.062 1042.41 Q121.257 1045.95 121.257 1053.08 Q121.257 1060.18 123.062 1063.75 Q124.891 1067.29 128.502 1067.29 Q132.136 1067.29 133.942 1063.75 Q135.771 1060.18 135.771 1053.08 Q135.771 1045.95 133.942 1042.41 Q132.136 1038.84 128.502 1038.84 M128.502 1035.14 Q134.312 1035.14 137.368 1039.75 Q140.447 1044.33 140.447 1053.08 Q140.447 1061.81 137.368 1066.41 Q134.312 1070.99 128.502 1070.99 Q122.692 1070.99 119.613 1066.41 Q116.558 1061.81 116.558 1053.08 Q116.558 1044.33 119.613 1039.75 Q122.692 1035.14 128.502 1035.14 Z" fill="#000000" fill-rule="nonzero" fill-opacity="1" /><path clip-path="url(#clip450)" d="M158.664 1038.84 Q155.053 1038.84 153.224 1042.41 Q151.419 1045.95 151.419 1053.08 Q151.419 1060.18 153.224 1063.75 Q155.053 1067.29 158.664 1067.29 Q162.298 1067.29 164.104 1063.75 Q165.933 1060.18 165.933 1053.08 Q165.933 1045.95 164.104 1042.41 Q162.298 1038.84 158.664 1038.84 M158.664 1035.14 Q164.474 1035.14 167.53 1039.75 Q170.609 1044.33 170.609 1053.08 Q170.609 1061.81 167.53 1066.41 Q164.474 1070.99 158.664 1070.99 Q152.854 1070.99 149.775 1066.41 Q146.72 1061.81 146.72 1053.08 Q146.72 1044.33 149.775 1039.75 Q152.854 1035.14 158.664 1035.14 Z" fill="#000000" fill-rule="nonzero" fill-opacity="1" /><path clip-path="url(#clip450)" d="M98.9191 974.143 Q95.7709 974.143 93.9191 976.296 Q92.0904 978.448 92.0904 982.198 Q92.0904 985.925 93.9191 988.101 Q95.7709 990.254 98.9191 990.254 Q102.067 990.254 103.896 988.101 Q105.748 985.925 105.748 982.198 Q105.748 978.448 103.896 976.296 Q102.067 974.143 98.9191 974.143 M108.201 959.49 L108.201 963.749 Q106.442 962.916 104.637 962.476 Q102.854 962.037 101.095 962.037 Q96.4654 962.037 94.0117 965.162 Q91.5812 968.286 91.2339 974.606 Q92.5997 972.592 94.6598 971.527 Q96.72 970.439 99.1969 970.439 Q104.405 970.439 107.414 973.611 Q110.447 976.759 110.447 982.198 Q110.447 987.522 107.299 990.74 Q104.151 993.958 98.9191 993.958 Q92.9237 993.958 89.7525 989.374 Q86.5812 984.768 86.5812 976.041 Q86.5812 967.847 90.47 962.986 Q94.3589 958.101 100.91 958.101 Q102.669 958.101 104.451 958.449 Q106.257 958.796 108.201 959.49 Z" fill="#000000" fill-rule="nonzero" fill-opacity="1" /><path clip-path="url(#clip450)" d="M128.502 961.805 Q124.891 961.805 123.062 965.37 Q121.257 968.911 121.257 976.041 Q121.257 983.148 123.062 986.712 Q124.891 990.254 128.502 990.254 Q132.136 990.254 133.942 986.712 Q135.771 983.148 135.771 976.041 Q135.771 968.911 133.942 965.37 Q132.136 961.805 128.502 961.805 M128.502 958.101 Q134.312 958.101 137.368 962.708 Q140.447 967.291 140.447 976.041 Q140.447 984.768 137.368 989.374 Q134.312 993.958 128.502 993.958 Q122.692 993.958 119.613 989.374 Q116.558 984.768 116.558 976.041 Q116.558 967.291 119.613 962.708 Q122.692 958.101 128.502 958.101 Z" fill="#000000" fill-rule="nonzero" fill-opacity="1" /><path clip-path="url(#clip450)" d="M158.664 961.805 Q155.053 961.805 153.224 965.37 Q151.419 968.911 151.419 976.041 Q151.419 983.148 153.224 986.712 Q155.053 990.254 158.664 990.254 Q162.298 990.254 164.104 986.712 Q165.933 983.148 165.933 976.041 Q165.933 968.911 164.104 965.37 Q162.298 961.805 158.664 961.805 M158.664 958.101 Q164.474 958.101 167.53 962.708 Q170.609 967.291 170.609 976.041 Q170.609 984.768 167.53 989.374 Q164.474 993.958 158.664 993.958 Q152.854 993.958 149.775 989.374 Q146.72 984.768 146.72 976.041 Q146.72 967.291 149.775 962.708 Q152.854 958.101 158.664 958.101 Z" fill="#000000" fill-rule="nonzero" fill-opacity="1" /><path clip-path="url(#clip450)" d="M715.919 812.096 L728.113 812.096 L743.547 853.253 L759.062 812.096 L771.255 812.096 L771.255 872.576 L763.274 872.576 L763.274 819.469 L747.678 860.95 L739.455 860.95 L723.859 819.469 L723.859 872.576 L715.919 872.576 L715.919 812.096 Z" fill="#000000" fill-rule="nonzero" fill-opacity="1" /><path clip-path="url(#clip450)" d="M807.794 849.769 Q798.76 849.769 795.277 851.835 Q791.793 853.901 791.793 858.884 Q791.793 862.854 794.385 865.203 Q797.019 867.512 801.515 867.512 Q807.713 867.512 811.44 863.137 Q815.207 858.722 815.207 851.43 L815.207 849.769 L807.794 849.769 M822.661 846.691 L822.661 872.576 L815.207 872.576 L815.207 865.689 Q812.655 869.821 808.847 871.806 Q805.039 873.751 799.53 873.751 Q792.563 873.751 788.431 869.862 Q784.339 865.933 784.339 859.37 Q784.339 851.714 789.443 847.825 Q794.588 843.936 804.756 843.936 L815.207 843.936 L815.207 843.207 Q815.207 838.062 811.804 835.267 Q808.442 832.432 802.325 832.432 Q798.436 832.432 794.75 833.363 Q791.064 834.295 787.661 836.158 L787.661 829.272 Q791.752 827.692 795.601 826.922 Q799.449 826.112 803.095 826.112 Q812.939 826.112 817.8 831.216 Q822.661 836.32 822.661 846.691 Z" fill="#000000" fill-rule="nonzero" fill-opacity="1" /><path clip-path="url(#clip450)" d="M875.728 827.206 L859.321 849.283 L876.578 872.576 L867.788 872.576 L854.582 854.752 L841.376 872.576 L832.585 872.576 L850.207 848.838 L834.084 827.206 L842.875 827.206 L854.906 843.369 L866.937 827.206 L875.728 827.206 Z" fill="#000000" fill-rule="nonzero" fill-opacity="1" /><path clip-path="url(#clip450)" d="M913.806 812.096 L925.999 812.096 L941.433 853.253 L956.948 812.096 L969.141 812.096 L969.141 872.576 L961.161 872.576 L961.161 819.469 L945.565 860.95 L937.342 860.95 L921.746 819.469 L921.746 872.576 L913.806 872.576 L913.806 812.096 Z" fill="#000000" fill-rule="nonzero" fill-opacity="1" /><path clip-path="url(#clip450)" d="M1002.64 832.432 Q996.647 832.432 993.163 837.131 Q989.68 841.789 989.68 849.931 Q989.68 858.074 993.123 862.773 Q996.607 867.431 1002.64 867.431 Q1008.6 867.431 1012.08 862.732 Q1015.56 858.033 1015.56 849.931 Q1015.56 841.87 1012.08 837.171 Q1008.6 832.432 1002.64 832.432 M1002.64 826.112 Q1012.36 826.112 1017.91 832.432 Q1023.46 838.751 1023.46 849.931 Q1023.46 861.071 1017.91 867.431 Q1012.36 873.751 1002.64 873.751 Q992.88 873.751 987.33 867.431 Q981.821 861.071 981.821 849.931 Q981.821 838.751 987.33 832.432 Q992.88 826.112 1002.64 826.112 Z" fill="#000000" fill-rule="nonzero" fill-opacity="1" /><path clip-path="url(#clip450)" d="M1071.14 835.915 Q1073.94 830.892 1077.83 828.502 Q1081.72 826.112 1086.98 826.112 Q1094.07 826.112 1097.92 831.095 Q1101.77 836.037 1101.77 845.192 L1101.77 872.576 L1094.27 872.576 L1094.27 845.435 Q1094.27 838.913 1091.96 835.753 Q1089.66 832.594 1084.92 832.594 Q1079.12 832.594 1075.76 836.442 Q1072.4 840.29 1072.4 846.934 L1072.4 872.576 L1064.9 872.576 L1064.9 845.435 Q1064.9 838.872 1062.6 835.753 Q1060.29 832.594 1055.47 832.594 Q1049.75 832.594 1046.39 836.482 Q1043.03 840.331 1043.03 846.934 L1043.03 872.576 L1035.54 872.576 L1035.54 827.206 L1043.03 827.206 L1043.03 834.254 Q1045.58 830.082 1049.15 828.097 Q1052.71 826.112 1057.61 826.112 Q1062.56 826.112 1066 828.624 Q1069.48 831.135 1071.14 835.915 Z" fill="#000000" fill-rule="nonzero" fill-opacity="1" /><path clip-path="url(#clip450)" d="M1155.44 848.028 L1155.44 851.673 L1121.17 851.673 Q1121.66 859.37 1125.79 863.421 Q1129.96 867.431 1137.38 867.431 Q1141.67 867.431 1145.68 866.378 Q1149.73 865.325 1153.7 863.218 L1153.7 870.267 Q1149.69 871.968 1145.48 872.86 Q1141.26 873.751 1136.93 873.751 Q1126.07 873.751 1119.71 867.431 Q1113.39 861.112 1113.39 850.337 Q1113.39 839.197 1119.39 832.675 Q1125.43 826.112 1135.63 826.112 Q1144.79 826.112 1150.1 832.026 Q1155.44 837.9 1155.44 848.028 M1147.99 845.84 Q1147.91 839.723 1144.55 836.077 Q1141.22 832.432 1135.71 832.432 Q1129.48 832.432 1125.71 835.956 Q1121.98 839.48 1121.41 845.881 L1147.99 845.84 Z" fill="#000000" fill-rule="nonzero" fill-opacity="1" /><path clip-path="url(#clip450)" d="M1205.39 845.192 L1205.39 872.576 L1197.94 872.576 L1197.94 845.435 Q1197.94 838.994 1195.42 835.794 Q1192.91 832.594 1187.89 832.594 Q1181.85 832.594 1178.37 836.442 Q1174.89 840.29 1174.89 846.934 L1174.89 872.576 L1167.39 872.576 L1167.39 827.206 L1174.89 827.206 L1174.89 834.254 Q1177.56 830.163 1181.17 828.138 Q1184.81 826.112 1189.55 826.112 Q1197.37 826.112 1201.38 830.973 Q1205.39 835.794 1205.39 845.192 Z" fill="#000000" fill-rule="nonzero" fill-opacity="1" /><path clip-path="url(#clip450)" d="M1227.63 814.324 L1227.63 827.206 L1242.98 827.206 L1242.98 832.999 L1227.63 832.999 L1227.63 857.628 Q1227.63 863.178 1229.13 864.758 Q1230.67 866.338 1235.33 866.338 L1242.98 866.338 L1242.98 872.576 L1235.33 872.576 Q1226.7 872.576 1223.42 869.376 Q1220.14 866.135 1220.14 857.628 L1220.14 832.999 L1214.67 832.999 L1214.67 827.206 L1220.14 827.206 L1220.14 814.324 L1227.63 814.324 Z" fill="#000000" fill-rule="nonzero" fill-opacity="1" /><path clip-path="url(#clip450)" d="M1279.48 812.096 L1317.72 812.096 L1317.72 818.983 L1287.66 818.983 L1287.66 836.888 L1316.47 836.888 L1316.47 843.774 L1287.66 843.774 L1287.66 865.689 L1318.45 865.689 L1318.45 872.576 L1279.48 872.576 L1279.48 812.096 Z" fill="#000000" fill-rule="nonzero" fill-opacity="1" /><path clip-path="url(#clip450)" d="M1369.29 845.192 L1369.29 872.576 L1361.84 872.576 L1361.84 845.435 Q1361.84 838.994 1359.32 835.794 Q1356.81 832.594 1351.79 832.594 Q1345.75 832.594 1342.27 836.442 Q1338.79 840.29 1338.79 846.934 L1338.79 872.576 L1331.29 872.576 L1331.29 827.206 L1338.79 827.206 L1338.79 834.254 Q1341.46 830.163 1345.07 828.138 Q1348.71 826.112 1353.45 826.112 Q1361.27 826.112 1365.28 830.973 Q1369.29 835.794 1369.29 845.192 Z" fill="#000000" fill-rule="nonzero" fill-opacity="1" /><path clip-path="url(#clip450)" d="M1378.81 827.206 L1386.71 827.206 L1400.89 865.284 L1415.06 827.206 L1422.96 827.206 L1405.95 872.576 L1395.82 872.576 L1378.81 827.206 Z" fill="#000000" fill-rule="nonzero" fill-opacity="1" /><path clip-path="url(#clip450)" d="M1472.06 848.028 L1472.06 851.673 L1437.79 851.673 Q1438.28 859.37 1442.41 863.421 Q1446.58 867.431 1453.99 867.431 Q1458.29 867.431 1462.3 866.378 Q1466.35 865.325 1470.32 863.218 L1470.32 870.267 Q1466.31 871.968 1462.1 872.86 Q1457.88 873.751 1453.55 873.751 Q1442.69 873.751 1436.33 867.431 Q1430.01 861.112 1430.01 850.337 Q1430.01 839.197 1436.01 832.675 Q1442.04 826.112 1452.25 826.112 Q1461.41 826.112 1466.71 832.026 Q1472.06 837.9 1472.06 848.028 M1464.61 845.84 Q1464.53 839.723 1461.16 836.077 Q1457.84 832.432 1452.33 832.432 Q1446.09 832.432 1442.33 835.956 Q1438.6 839.48 1438.03 845.881 L1464.61 845.84 Z" fill="#000000" fill-rule="nonzero" fill-opacity="1" /><path clip-path="url(#clip450)" d="M1484.29 809.544 L1491.75 809.544 L1491.75 872.576 L1484.29 872.576 L1484.29 809.544 Z" fill="#000000" fill-rule="nonzero" fill-opacity="1" /><path clip-path="url(#clip450)" d="M1524.93 832.432 Q1518.93 832.432 1515.45 837.131 Q1511.96 841.789 1511.96 849.931 Q1511.96 858.074 1515.41 862.773 Q1518.89 867.431 1524.93 867.431 Q1530.88 867.431 1534.36 862.732 Q1537.85 858.033 1537.85 849.931 Q1537.85 841.87 1534.36 837.171 Q1530.88 832.432 1524.93 832.432 M1524.93 826.112 Q1534.65 826.112 1540.2 832.432 Q1545.75 838.751 1545.75 849.931 Q1545.75 861.071 1540.2 867.431 Q1534.65 873.751 1524.93 873.751 Q1515.16 873.751 1509.61 867.431 Q1504.1 861.071 1504.1 849.931 Q1504.1 838.751 1509.61 832.432 Q1515.16 826.112 1524.93 826.112 Z" fill="#000000" fill-rule="nonzero" fill-opacity="1" /><path clip-path="url(#clip450)" d="M1565.31 865.77 L1565.31 889.833 L1557.82 889.833 L1557.82 827.206 L1565.31 827.206 L1565.31 834.092 Q1567.66 830.042 1571.23 828.097 Q1574.83 826.112 1579.82 826.112 Q1588.08 826.112 1593.22 832.675 Q1598.41 839.237 1598.41 849.931 Q1598.41 860.626 1593.22 867.188 Q1588.08 873.751 1579.82 873.751 Q1574.83 873.751 1571.23 871.806 Q1567.66 869.821 1565.31 865.77 M1590.67 849.931 Q1590.67 841.708 1587.27 837.05 Q1583.91 832.351 1577.99 832.351 Q1572.08 832.351 1568.68 837.05 Q1565.31 841.708 1565.31 849.931 Q1565.31 858.155 1568.68 862.854 Q1572.08 867.512 1577.99 867.512 Q1583.91 867.512 1587.27 862.854 Q1590.67 858.155 1590.67 849.931 Z" fill="#000000" fill-rule="nonzero" fill-opacity="1" /><path clip-path="url(#clip450)" d="M1649.57 848.028 L1649.57 851.673 L1615.3 851.673 Q1615.79 859.37 1619.92 863.421 Q1624.09 867.431 1631.5 867.431 Q1635.8 867.431 1639.81 866.378 Q1643.86 865.325 1647.83 863.218 L1647.83 870.267 Q1643.82 871.968 1639.61 872.86 Q1635.39 873.751 1631.06 873.751 Q1620.2 873.751 1613.84 867.431 Q1607.52 861.112 1607.52 850.337 Q1607.52 839.197 1613.52 832.675 Q1619.55 826.112 1629.76 826.112 Q1638.92 826.112 1644.22 832.026 Q1649.57 837.9 1649.57 848.028 M1642.12 845.84 Q1642.04 839.723 1638.67 836.077 Q1635.35 832.432 1629.84 832.432 Q1623.61 832.432 1619.84 835.956 Q1616.11 839.48 1615.54 845.881 L1642.12 845.84 Z" fill="#000000" fill-rule="nonzero" fill-opacity="1" /><path clip-path="url(#clip450)" d="M1706.08 809.625 Q1700.65 818.942 1698.02 828.057 Q1695.39 837.171 1695.39 846.529 Q1695.39 855.886 1698.02 865.082 Q1700.69 874.237 1706.08 883.513 L1699.6 883.513 Q1693.52 873.994 1690.49 864.798 Q1687.49 855.603 1687.49 846.529 Q1687.49 837.495 1690.49 828.34 Q1693.48 819.185 1699.6 809.625 L1706.08 809.625 Z" fill="#000000" fill-rule="nonzero" fill-opacity="1" /><path clip-path="url(#clip450)" d="M1757.12 814.081 L1757.12 822.061 Q1752.46 819.833 1748.33 818.739 Q1744.2 817.646 1740.35 817.646 Q1733.67 817.646 1730.02 820.238 Q1726.42 822.831 1726.42 827.611 Q1726.42 831.621 1728.81 833.687 Q1731.24 835.713 1737.96 836.969 L1742.9 837.981 Q1752.06 839.723 1756.39 844.139 Q1760.77 848.514 1760.77 855.886 Q1760.77 864.677 1754.85 869.214 Q1748.98 873.751 1737.6 873.751 Q1733.3 873.751 1728.44 872.779 Q1723.62 871.806 1718.44 869.902 L1718.44 861.477 Q1723.42 864.272 1728.2 865.689 Q1732.98 867.107 1737.6 867.107 Q1744.61 867.107 1748.41 864.353 Q1752.22 861.598 1752.22 856.494 Q1752.22 852.038 1749.47 849.526 Q1746.75 847.015 1740.51 845.759 L1735.53 844.787 Q1726.38 842.964 1722.29 839.075 Q1718.19 835.186 1718.19 828.259 Q1718.19 820.238 1723.82 815.62 Q1729.5 811.002 1739.42 811.002 Q1743.67 811.002 1748.09 811.772 Q1752.51 812.542 1757.12 814.081 Z" fill="#000000" fill-rule="nonzero" fill-opacity="1" /><path clip-path="url(#clip450)" d="M1765.14 812.096 L1816.31 812.096 L1816.31 818.983 L1794.84 818.983 L1794.84 872.576 L1786.61 872.576 L1786.61 818.983 L1765.14 818.983 L1765.14 812.096 Z" fill="#000000" fill-rule="nonzero" fill-opacity="1" /><path clip-path="url(#clip450)" d="M1852.89 844.22 Q1855.52 845.111 1857.99 848.028 Q1860.5 850.944 1863.01 856.048 L1871.32 872.576 L1862.53 872.576 L1854.79 857.061 Q1851.79 850.985 1848.96 849 Q1846.16 847.015 1841.3 847.015 L1832.39 847.015 L1832.39 872.576 L1824.21 872.576 L1824.21 812.096 L1842.68 812.096 Q1853.05 812.096 1858.15 816.43 Q1863.26 820.765 1863.26 829.515 Q1863.26 835.227 1860.58 838.994 Q1857.95 842.761 1852.89 844.22 M1832.39 818.821 L1832.39 840.29 L1842.68 840.29 Q1848.59 840.29 1851.59 837.576 Q1854.63 834.822 1854.63 829.515 Q1854.63 824.208 1851.59 821.535 Q1848.59 818.821 1842.68 818.821 L1832.39 818.821 Z" fill="#000000" fill-rule="nonzero" fill-opacity="1" /><path clip-path="url(#clip450)" d="M1880.35 809.625 L1886.83 809.625 Q1892.91 819.185 1895.91 828.34 Q1898.95 837.495 1898.95 846.529 Q1898.95 855.603 1895.91 864.798 Q1892.91 873.994 1886.83 883.513 L1880.35 883.513 Q1885.74 874.237 1888.37 865.082 Q1891.05 855.886 1891.05 846.529 Q1891.05 837.171 1888.37 828.057 Q1885.74 818.942 1880.35 809.625 Z" fill="#000000" fill-rule="nonzero" fill-opacity="1" /><path clip-path="url(#clip453)" d="M275.768 1207.12 L299.215 1207.23 L322.662 1207.62 L346.109 1208.24 L369.556 1209.08 L393.003 1242.9 L416.45 1276.99 L439.897 1311.31 L463.344 1345.9 L486.791 1314.82 L510.237 1280.77 L533.684 1246.52 L557.131 1212.47 L580.578 1178.46 L604.025 1143.76 L627.472 1108.66 L650.919 1073.03 L674.366 1037.37 L697.813 1001.51 L721.26 965.683 L744.707 929.707 L768.153 970.652 L791.6 1011.75 L815.047 1052.81 L838.494 1093.99 L861.941 1134.9 L885.388 1174.99 L908.835 1212.74 L932.282 1239.9 L955.729 1259.73 L979.176 1279.8 L1002.62 1300.1 L1026.07 1320.63 L1049.52 1283.46 L1072.96 1246.56 L1096.41 1180.66 L1119.86 1106.55 L1143.3 1106.82 L1166.75 1107.09 L1190.2 1107.43 L1213.64 1107.78 L1237.09 1108.36 L1260.54 1109.17 L1283.99 1110.24 L1307.43 1110.59 L1330.88 1110.24 L1354.33 1109.17 L1377.77 1108.36 L1401.22 1107.78 L1424.67 1107.43 L1448.11 1107.09 L1471.56 1106.82 L1495.01 1106.55 L1518.45 1180.66 L1541.9 1246.56 L1565.35 1283.46 L1588.8 1320.63 L1612.24 1300.1 L1635.69 1279.8 L1659.14 1259.73 L1682.58 1239.9 L1706.03 1212.74 L1729.48 1174.99 L1752.92 1134.9 L1776.37 1093.99 L1799.82 1052.81 L1823.26 1011.75 L1846.71 970.652 L1870.16 929.707 L1893.61 965.683 L1917.05 1001.51 L1940.5 1037.37 L1963.95 1073.03 L1987.39 1108.66 L2010.84 1143.76 L2034.29 1178.46 L2057.73 1212.47 L2081.18 1246.52 L2104.63 1280.77 L2128.07 1314.82 L2151.52 1345.9 L2174.97 1311.31 L2198.42 1276.99 L2221.86 1242.9 L2245.31 1209.08 L2268.76 1208.24 L2292.2 1207.62 L2315.65 1207.23 L2339.1 1207.12 L2339.1 1207.12 L2315.65 1207.12 L2292.2 1207.12 L2268.76 1207.12 L2245.31 1207.12 L2221.86 1207.12 L2198.42 1207.12 L2174.97 1207.12 L2151.52 1207.12 L2128.07 1207.12 L2104.63 1207.12 L2081.18 1207.12 L2057.73 1207.12 L2034.29 1207.12 L2010.84 1207.12 L1987.39 1207.12 L1963.95 1207.12 L1940.5 1207.12 L1917.05 1207.12 L1893.61 1207.12 L1870.16 1207.12 L1846.71 1207.12 L1823.26 1207.12 L1799.82 1207.12 L1776.37 1207.12 L1752.92 1207.12 L1729.48 1207.12 L1706.03 1207.12 L1682.58 1207.12 L1659.14 1207.12 L1635.69 1207.12 L1612.24 1207.12 L1588.8 1207.12 L1565.35 1207.12 L1541.9 1207.12 L1518.45 1207.12 L1495.01 1207.12 L1471.56 1207.12 L1448.11 1207.12 L1424.67 1207.12 L1401.22 1207.12 L1377.77 1207.12 L1354.33 1207.12 L1330.88 1207.12 L1307.43 1207.12 L1283.99 1207.12 L1260.54 1207.12 L1237.09 1207.12 L1213.64 1207.12 L1190.2 1207.12 L1166.75 1207.12 L1143.3 1207.12 L1119.86 1207.12 L1096.41 1207.12 L1072.96 1207.12 L1049.52 1207.12 L1026.07 1207.12 L1002.62 1207.12 L979.176 1207.12 L955.729 1207.12 L932.282 1207.12 L908.835 1207.12 L885.388 1207.12 L861.941 1207.12 L838.494 1207.12 L815.047 1207.12 L791.6 1207.12 L768.153 1207.12 L744.707 1207.12 L721.26 1207.12 L697.813 1207.12 L674.366 1207.12 L650.919 1207.12 L627.472 1207.12 L604.025 1207.12 L580.578 1207.12 L557.131 1207.12 L533.684 1207.12 L510.237 1207.12 L486.791 1207.12 L463.344 1207.12 L439.897 1207.12 L416.45 1207.12 L393.003 1207.12 L369.556 1207.12 L346.109 1207.12 L322.662 1207.12 L299.215 1207.12 L275.768 1207.12  Z" fill="#0000ff" fill-rule="evenodd" fill-opacity="0.5"/>
<polyline clip-path="url(#clip453)" style="stroke:#0000ff; stroke-linecap:round; stroke-linejoin:round; stroke-width:4; stroke-opacity:1; fill:none" points="275.768,1207.12 299.215,1207.23 322.662,1207.62 346.109,1208.24 369.556,1209.08 393.003,1242.9 416.45,1276.99 439.897,1311.31 463.344,1345.9 486.791,1314.82 510.237,1280.77 533.684,1246.52 557.131,1212.47 580.578,1178.46 604.025,1143.76 627.472,1108.66 650.919,1073.03 674.366,1037.37 697.813,1001.51 721.26,965.683 744.707,929.707 768.153,970.652 791.6,1011.75 815.047,1052.81 838.494,1093.99 861.941,1134.9 885.388,1174.99 908.835,1212.74 932.282,1239.9 955.729,1259.73 979.176,1279.8 1002.62,1300.1 1026.07,1320.63 1049.52,1283.46 1072.96,1246.56 1096.41,1180.66 1119.86,1106.55 1143.3,1106.82 1166.75,1107.09 1190.2,1107.43 1213.64,1107.78 1237.09,1108.36 1260.54,1109.17 1283.99,1110.24 1307.43,1110.59 1330.88,1110.24 1354.33,1109.17 1377.77,1108.36 1401.22,1107.78 1424.67,1107.43 1448.11,1107.09 1471.56,1106.82 1495.01,1106.55 1518.45,1180.66 1541.9,1246.56 1565.35,1283.46 1588.8,1320.63 1612.24,1300.1 1635.69,1279.8 1659.14,1259.73 1682.58,1239.9 1706.03,1212.74 1729.48,1174.99 1752.92,1134.9 1776.37,1093.99 1799.82,1052.81 1823.26,1011.75 1846.71,970.652 1870.16,929.707 1893.61,965.683 1917.05,1001.51 1940.5,1037.37 1963.95,1073.03 1987.39,1108.66 2010.84,1143.76 2034.29,1178.46 2057.73,1212.47 2081.18,1246.52 2104.63,1280.77 2128.07,1314.82 2151.52,1345.9 2174.97,1311.31 2198.42,1276.99 2221.86,1242.9 2245.31,1209.08 2268.76,1208.24 2292.2,1207.62 2315.65,1207.23 2339.1,1207.12 "/>
<path clip-path="url(#clip453)" d="M275.768 1207.12 L299.215 1207.23 L322.662 1207.62 L346.109 1208.24 L369.556 1209.08 L393.003 1272.52 L416.45 1336.19 L439.897 1400.1 L463.344 1464.27 L486.791 1424.52 L510.237 1385 L533.684 1345.71 L557.131 1306.69 L580.578 1267.9 L604.025 1231.42 L627.472 1213.17 L650.919 1195.22 L674.366 1177.46 L697.813 1159.97 L721.26 1142.75 L744.707 1125.77 L768.153 1146.84 L791.6 1168.21 L815.047 1190.05 L838.494 1212.24 L861.941 1234.93 L885.388 1257.89 L908.835 1281.04 L932.282 1304.8 L955.729 1346.25 L979.176 1389.2 L1002.62 1432.41 L1026.07 1475.86 L1049.52 1395.67 L1072.96 1327.99 L1096.41 1274.83 L1119.86 1225.18 L1143.3 1220.1 L1166.75 1215.28 L1190.2 1210.7 L1213.64 1206.35 L1237.09 1202.27 L1260.54 1198.41 L1283.99 1194.83 L1307.43 1191.48 L1330.88 1194.83 L1354.33 1198.41 L1377.77 1202.27 L1401.22 1206.35 L1424.67 1210.7 L1448.11 1215.28 L1471.56 1220.1 L1495.01 1225.18 L1518.45 1274.83 L1541.9 1327.99 L1565.35 1395.67 L1588.8 1475.86 L1612.24 1432.41 L1635.69 1389.2 L1659.14 1346.25 L1682.58 1304.8 L1706.03 1281.04 L1729.48 1257.89 L1752.92 1234.93 L1776.37 1212.24 L1799.82 1190.05 L1823.26 1168.21 L1846.71 1146.84 L1870.16 1125.77 L1893.61 1142.75 L1917.05 1159.97 L1940.5 1177.46 L1963.95 1195.22 L1987.39 1213.17 L2010.84 1231.42 L2034.29 1267.9 L2057.73 1306.69 L2081.18 1345.71 L2104.63 1385 L2128.07 1424.52 L2151.52 1464.27 L2174.97 1400.1 L2198.42 1336.19 L2221.86 1272.52 L2245.31 1209.08 L2268.76 1208.24 L2292.2 1207.62 L2315.65 1207.23 L2339.1 1207.12 L2339.1 1207.12 L2315.65 1207.12 L2292.2 1207.12 L2268.76 1207.12 L2245.31 1207.12 L2221.86 1207.12 L2198.42 1207.12 L2174.97 1207.12 L2151.52 1207.12 L2128.07 1207.12 L2104.63 1207.12 L2081.18 1207.12 L2057.73 1207.12 L2034.29 1207.12 L2010.84 1207.12 L1987.39 1207.12 L1963.95 1207.12 L1940.5 1207.12 L1917.05 1207.12 L1893.61 1207.12 L1870.16 1207.12 L1846.71 1207.12 L1823.26 1207.12 L1799.82 1207.12 L1776.37 1207.12 L1752.92 1207.12 L1729.48 1207.12 L1706.03 1207.12 L1682.58 1207.12 L1659.14 1207.12 L1635.69 1207.12 L1612.24 1207.12 L1588.8 1207.12 L1565.35 1207.12 L1541.9 1207.12 L1518.45 1207.12 L1495.01 1207.12 L1471.56 1207.12 L1448.11 1207.12 L1424.67 1207.12 L1401.22 1207.12 L1377.77 1207.12 L1354.33 1207.12 L1330.88 1207.12 L1307.43 1207.12 L1283.99 1207.12 L1260.54 1207.12 L1237.09 1207.12 L1213.64 1207.12 L1190.2 1207.12 L1166.75 1207.12 L1143.3 1207.12 L1119.86 1207.12 L1096.41 1207.12 L1072.96 1207.12 L1049.52 1207.12 L1026.07 1207.12 L1002.62 1207.12 L979.176 1207.12 L955.729 1207.12 L932.282 1207.12 L908.835 1207.12 L885.388 1207.12 L861.941 1207.12 L838.494 1207.12 L815.047 1207.12 L791.6 1207.12 L768.153 1207.12 L744.707 1207.12 L721.26 1207.12 L697.813 1207.12 L674.366 1207.12 L650.919 1207.12 L627.472 1207.12 L604.025 1207.12 L580.578 1207.12 L557.131 1207.12 L533.684 1207.12 L510.237 1207.12 L486.791 1207.12 L463.344 1207.12 L439.897 1207.12 L416.45 1207.12 L393.003 1207.12 L369.556 1207.12 L346.109 1207.12 L322.662 1207.12 L299.215 1207.12 L275.768 1207.12  Z" fill="#ff0000" fill-rule="evenodd" fill-opacity="0.5"/>
<polyline clip-path="url(#clip453)" style="stroke:#ff0000; stroke-linecap:round; stroke-linejoin:round; stroke-width:4; stroke-opacity:1; fill:none" points="275.768,1207.12 299.215,1207.23 322.662,1207.62 346.109,1208.24 369.556,1209.08 393.003,1272.52 416.45,1336.19 439.897,1400.1 463.344,1464.27 486.791,1424.52 510.237,1385 533.684,1345.71 557.131,1306.69 580.578,1267.9 604.025,1231.42 627.472,1213.17 650.919,1195.22 674.366,1177.46 697.813,1159.97 721.26,1142.75 744.707,1125.77 768.153,1146.84 791.6,1168.21 815.047,1190.05 838.494,1212.24 861.941,1234.93 885.388,1257.89 908.835,1281.04 932.282,1304.8 955.729,1346.25 979.176,1389.2 1002.62,1432.41 1026.07,1475.86 1049.52,1395.67 1072.96,1327.99 1096.41,1274.83 1119.86,1225.18 1143.3,1220.1 1166.75,1215.28 1190.2,1210.7 1213.64,1206.35 1237.09,1202.27 1260.54,1198.41 1283.99,1194.83 1307.43,1191.48 1330.88,1194.83 1354.33,1198.41 1377.77,1202.27 1401.22,1206.35 1424.67,1210.7 1448.11,1215.28 1471.56,1220.1 1495.01,1225.18 1518.45,1274.83 1541.9,1327.99 1565.35,1395.67 1588.8,1475.86 1612.24,1432.41 1635.69,1389.2 1659.14,1346.25 1682.58,1304.8 1706.03,1281.04 1729.48,1257.89 1752.92,1234.93 1776.37,1212.24 1799.82,1190.05 1823.26,1168.21 1846.71,1146.84 1870.16,1125.77 1893.61,1142.75 1917.05,1159.97 1940.5,1177.46 1963.95,1195.22 1987.39,1213.17 2010.84,1231.42 2034.29,1267.9 2057.73,1306.69 2081.18,1345.71 2104.63,1385 2128.07,1424.52 2151.52,1464.27 2174.97,1400.1 2198.42,1336.19 2221.86,1272.52 2245.31,1209.08 2268.76,1208.24 2292.2,1207.62 2315.65,1207.23 2339.1,1207.12 "/>
<path clip-path="url(#clip450)" d="M2488.43 1088.14 L2836.76 1088.14 L2836.76 932.62 L2488.43 932.62  Z" fill="#ffffff" fill-rule="evenodd" fill-opacity="1"/>
<polyline clip-path="url(#clip450)" style="stroke:#000000; stroke-linecap:round; stroke-linejoin:round; stroke-width:4; stroke-opacity:1; fill:none" points="2488.43,1088.14 2836.76,1088.14 2836.76,932.62 2488.43,932.62 2488.43,1088.14 "/>
<path clip-path="url(#clip450)" d="M2517.57 1005.2 L2692.43 1005.2 L2692.43 963.724 L2517.57 963.724 L2517.57 1005.2  Z" fill="#0000ff" fill-rule="evenodd" fill-opacity="0.5"/>
<polyline clip-path="url(#clip450)" style="stroke:#0000ff; stroke-linecap:round; stroke-linejoin:round; stroke-width:4; stroke-opacity:1; fill:none" points="2517.57,963.724 2692.43,963.724 "/>
<path clip-path="url(#clip450)" d="M2738.35 972.018 L2738.35 984.911 L2751.25 984.911 L2751.25 988.846 L2738.35 988.846 L2738.35 1001.74 L2734.46 1001.74 L2734.46 988.846 L2721.57 988.846 L2721.57 984.911 L2734.46 984.911 L2734.46 972.018 L2738.35 972.018 Z" fill="#000000" fill-rule="nonzero" fill-opacity="1" /><path clip-path="url(#clip450)" d="M2775.99 967.18 L2782.96 967.18 L2791.78 990.698 L2800.65 967.18 L2807.61 967.18 L2807.61 1001.74 L2803.05 1001.74 L2803.05 971.393 L2794.14 995.096 L2789.44 995.096 L2780.53 971.393 L2780.53 1001.74 L2775.99 1001.74 L2775.99 967.18 Z" fill="#000000" fill-rule="nonzero" fill-opacity="1" /><path clip-path="url(#clip450)" d="M2517.57 1057.04 L2692.43 1057.04 L2692.43 1015.56 L2517.57 1015.56 L2517.57 1057.04  Z" fill="#ff0000" fill-rule="evenodd" fill-opacity="0.5"/>
<polyline clip-path="url(#clip450)" style="stroke:#ff0000; stroke-linecap:round; stroke-linejoin:round; stroke-width:4; stroke-opacity:1; fill:none" points="2517.57,1015.56 2692.43,1015.56 "/>
<path clip-path="url(#clip450)" d="M2721.57 1038.7 L2734.05 1038.7 L2734.05 1042.49 L2721.57 1042.49 L2721.57 1038.7 Z" fill="#000000" fill-rule="nonzero" fill-opacity="1" /><path clip-path="url(#clip450)" d="M2756.09 1019.02 L2763.05 1019.02 L2771.87 1042.54 L2780.74 1019.02 L2787.71 1019.02 L2787.71 1053.58 L2783.15 1053.58 L2783.15 1023.23 L2774.23 1046.94 L2769.53 1046.94 L2760.62 1023.23 L2760.62 1053.58 L2756.09 1053.58 L2756.09 1019.02 Z" fill="#000000" fill-rule="nonzero" fill-opacity="1" /></svg>
