<?xml version="1.0" encoding="utf-8"?>
<svg xmlns="http://www.w3.org/2000/svg" xmlns:xlink="http://www.w3.org/1999/xlink" width="480" height="384" viewBox="0 0 1920 1536">
<defs>
  <clipPath id="clip570">
    <rect x="0" y="0" width="1920" height="1536"/>
  </clipPath>
</defs>
<path clip-path="url(#clip570)" d="M0 1536 L1920 1536 L1920 0 L0 0  Z" fill="#ffffff" fill-rule="evenodd" fill-opacity="1"/>
<defs>
  <clipPath id="clip571">
    <rect x="384" y="0" width="1345" height="1345"/>
  </clipPath>
</defs>
<path clip-path="url(#clip570)" d="M204.229 423.729 L1872.76 423.729 L1872.76 135.568 L204.229 135.568  Z" fill="#ffffff" fill-rule="evenodd" fill-opacity="1"/>
<defs>
  <clipPath id="clip572">
    <rect x="204" y="135" width="1670" height="289"/>
  </clipPath>
</defs>
<polyline clip-path="url(#clip572)" style="stroke:#000000; stroke-linecap:round; stroke-linejoin:round; stroke-width:2; stroke-opacity:0.1; fill:none" points="251.451,423.729 251.451,135.568 "/>
<polyline clip-path="url(#clip572)" style="stroke:#000000; stroke-linecap:round; stroke-linejoin:round; stroke-width:2; stroke-opacity:0.1; fill:none" points="609.197,423.729 609.197,135.568 "/>
<polyline clip-path="url(#clip572)" style="stroke:#000000; stroke-linecap:round; stroke-linejoin:round; stroke-width:2; stroke-opacity:0.1; fill:none" points="966.943,423.729 966.943,135.568 "/>
<polyline clip-path="url(#clip572)" style="stroke:#000000; stroke-linecap:round; stroke-linejoin:round; stroke-width:2; stroke-opacity:0.1; fill:none" points="1324.69,423.729 1324.69,135.568 "/>
<polyline clip-path="url(#clip572)" style="stroke:#000000; stroke-linecap:round; stroke-linejoin:round; stroke-width:2; stroke-opacity:0.1; fill:none" points="1682.44,423.729 1682.44,135.568 "/>
<polyline clip-path="url(#clip572)" style="stroke:#000000; stroke-linecap:round; stroke-linejoin:round; stroke-width:2; stroke-opacity:0.1; fill:none" points="204.229,420.843 1872.76,420.843 "/>
<polyline clip-path="url(#clip572)" style="stroke:#000000; stroke-linecap:round; stroke-linejoin:round; stroke-width:2; stroke-opacity:0.1; fill:none" points="204.229,373.778 1872.76,373.778 "/>
<polyline clip-path="url(#clip572)" style="stroke:#000000; stroke-linecap:round; stroke-linejoin:round; stroke-width:2; stroke-opacity:0.1; fill:none" points="204.229,326.713 1872.76,326.713 "/>
<polyline clip-path="url(#clip572)" style="stroke:#000000; stroke-linecap:round; stroke-linejoin:round; stroke-width:2; stroke-opacity:0.1; fill:none" points="204.229,279.649 1872.76,279.649 "/>
<polyline clip-path="url(#clip572)" style="stroke:#000000; stroke-linecap:round; stroke-linejoin:round; stroke-width:2; stroke-opacity:0.1; fill:none" points="204.229,232.584 1872.76,232.584 "/>
<polyline clip-path="url(#clip572)" style="stroke:#000000; stroke-linecap:round; stroke-linejoin:round; stroke-width:2; stroke-opacity:0.1; fill:none" points="204.229,185.519 1872.76,185.519 "/>
<polyline clip-path="url(#clip572)" style="stroke:#000000; stroke-linecap:round; stroke-linejoin:round; stroke-width:2; stroke-opacity:0.1; fill:none" points="204.229,138.454 1872.76,138.454 "/>
<polyline clip-path="url(#clip570)" style="stroke:#000000; stroke-linecap:round; stroke-linejoin:round; stroke-width:4; stroke-opacity:1; fill:none" points="204.229,423.729 1872.76,423.729 "/>
<polyline clip-path="url(#clip570)" style="stroke:#000000; stroke-linecap:round; stroke-linejoin:round; stroke-width:4; stroke-opacity:1; fill:none" points="251.451,423.729 251.451,413.106 "/>
<polyline clip-path="url(#clip570)" style="stroke:#000000; stroke-linecap:round; stroke-linejoin:round; stroke-width:4; stroke-opacity:1; fill:none" points="609.197,423.729 609.197,413.106 "/>
<polyline clip-path="url(#clip570)" style="stroke:#000000; stroke-linecap:round; stroke-linejoin:round; stroke-width:4; stroke-opacity:1; fill:none" points="966.943,423.729 966.943,413.106 "/>
<polyline clip-path="url(#clip570)" style="stroke:#000000; stroke-linecap:round; stroke-linejoin:round; stroke-width:4; stroke-opacity:1; fill:none" points="1324.69,423.729 1324.69,413.106 "/>
<polyline clip-path="url(#clip570)" style="stroke:#000000; stroke-linecap:round; stroke-linejoin:round; stroke-width:4; stroke-opacity:1; fill:none" points="1682.44,423.729 1682.44,413.106 "/>
<path clip-path="url(#clip570)" d="M251.451 450.808 Q247.84 450.808 246.011 454.372 Q244.206 457.914 244.206 465.044 Q244.206 472.15 246.011 475.715 Q247.84 479.257 251.451 479.257 Q255.085 479.257 256.891 475.715 Q258.719 472.15 258.719 465.044 Q258.719 457.914 256.891 454.372 Q255.085 450.808 251.451 450.808 M251.451 447.104 Q257.261 447.104 260.317 451.71 Q263.395 456.294 263.395 465.044 Q263.395 473.77 260.317 478.377 Q257.261 482.96 251.451 482.96 Q245.641 482.96 242.562 478.377 Q239.507 473.77 239.507 465.044 Q239.507 456.294 242.562 451.71 Q245.641 447.104 251.451 447.104 Z" fill="#000000" fill-rule="nonzero" fill-opacity="1" /><path clip-path="url(#clip570)" d="M583.885 478.354 L591.523 478.354 L591.523 451.988 L583.213 453.655 L583.213 449.396 L591.477 447.729 L596.153 447.729 L596.153 478.354 L603.792 478.354 L603.792 482.289 L583.885 482.289 L583.885 478.354 Z" fill="#000000" fill-rule="nonzero" fill-opacity="1" /><path clip-path="url(#clip570)" d="M623.236 450.808 Q619.625 450.808 617.796 454.372 Q615.991 457.914 615.991 465.044 Q615.991 472.15 617.796 475.715 Q619.625 479.257 623.236 479.257 Q626.871 479.257 628.676 475.715 Q630.505 472.15 630.505 465.044 Q630.505 457.914 628.676 454.372 Q626.871 450.808 623.236 450.808 M623.236 447.104 Q629.046 447.104 632.102 451.71 Q635.181 456.294 635.181 465.044 Q635.181 473.77 632.102 478.377 Q629.046 482.96 623.236 482.96 Q617.426 482.96 614.347 478.377 Q611.292 473.77 611.292 465.044 Q611.292 456.294 614.347 451.71 Q617.426 447.104 623.236 447.104 Z" fill="#000000" fill-rule="nonzero" fill-opacity="1" /><path clip-path="url(#clip570)" d="M945.716 478.354 L962.036 478.354 L962.036 482.289 L940.091 482.289 L940.091 478.354 Q942.753 475.599 947.337 470.97 Q951.943 466.317 953.124 464.974 Q955.369 462.451 956.249 460.715 Q957.151 458.956 957.151 457.266 Q957.151 454.511 955.207 452.775 Q953.286 451.039 950.184 451.039 Q947.985 451.039 945.531 451.803 Q943.101 452.567 940.323 454.118 L940.323 449.396 Q943.147 448.261 945.601 447.683 Q948.054 447.104 950.091 447.104 Q955.462 447.104 958.656 449.789 Q961.85 452.474 961.85 456.965 Q961.85 459.095 961.04 461.016 Q960.253 462.914 958.147 465.507 Q957.568 466.178 954.466 469.395 Q951.364 472.59 945.716 478.354 Z" fill="#000000" fill-rule="nonzero" fill-opacity="1" /><path clip-path="url(#clip570)" d="M981.85 450.808 Q978.239 450.808 976.411 454.372 Q974.605 457.914 974.605 465.044 Q974.605 472.15 976.411 475.715 Q978.239 479.257 981.85 479.257 Q985.485 479.257 987.29 475.715 Q989.119 472.15 989.119 465.044 Q989.119 457.914 987.29 454.372 Q985.485 450.808 981.85 450.808 M981.85 447.104 Q987.66 447.104 990.716 451.71 Q993.795 456.294 993.795 465.044 Q993.795 473.77 990.716 478.377 Q987.66 482.96 981.85 482.96 Q976.04 482.96 972.961 478.377 Q969.906 473.77 969.906 465.044 Q969.906 456.294 972.961 451.71 Q976.04 447.104 981.85 447.104 Z" fill="#000000" fill-rule="nonzero" fill-opacity="1" /><path clip-path="url(#clip570)" d="M1313.53 463.655 Q1316.89 464.372 1318.76 466.641 Q1320.66 468.909 1320.66 472.243 Q1320.66 477.358 1317.14 480.159 Q1313.62 482.96 1307.14 482.96 Q1304.97 482.96 1302.65 482.52 Q1300.36 482.104 1297.91 481.247 L1297.91 476.733 Q1299.85 477.868 1302.17 478.446 Q1304.48 479.025 1307 479.025 Q1311.4 479.025 1313.69 477.289 Q1316.01 475.553 1316.01 472.243 Q1316.01 469.187 1313.86 467.474 Q1311.73 465.738 1307.91 465.738 L1303.88 465.738 L1303.88 461.896 L1308.09 461.896 Q1311.54 461.896 1313.37 460.53 Q1315.2 459.141 1315.2 456.548 Q1315.2 453.886 1313.3 452.474 Q1311.43 451.039 1307.91 451.039 Q1305.99 451.039 1303.79 451.456 Q1301.59 451.872 1298.95 452.752 L1298.95 448.585 Q1301.61 447.845 1303.93 447.474 Q1306.26 447.104 1308.32 447.104 Q1313.65 447.104 1316.75 449.534 Q1319.85 451.942 1319.85 456.062 Q1319.85 458.933 1318.21 460.923 Q1316.56 462.891 1313.53 463.655 Z" fill="#000000" fill-rule="nonzero" fill-opacity="1" /><path clip-path="url(#clip570)" d="M1339.53 450.808 Q1335.92 450.808 1334.09 454.372 Q1332.28 457.914 1332.28 465.044 Q1332.28 472.15 1334.09 475.715 Q1335.92 479.257 1339.53 479.257 Q1343.16 479.257 1344.97 475.715 Q1346.8 472.15 1346.8 465.044 Q1346.8 457.914 1344.97 454.372 Q1343.16 450.808 1339.53 450.808 M1339.53 447.104 Q1345.34 447.104 1348.39 451.71 Q1351.47 456.294 1351.47 465.044 Q1351.47 473.77 1348.39 478.377 Q1345.34 482.96 1339.53 482.96 Q1333.72 482.96 1330.64 478.377 Q1327.58 473.77 1327.58 465.044 Q1327.58 456.294 1330.64 451.71 Q1333.72 447.104 1339.53 447.104 Z" fill="#000000" fill-rule="nonzero" fill-opacity="1" /><path clip-path="url(#clip570)" d="M1670.61 451.803 L1658.8 470.252 L1670.61 470.252 L1670.61 451.803 M1669.38 447.729 L1675.26 447.729 L1675.26 470.252 L1680.19 470.252 L1680.19 474.141 L1675.26 474.141 L1675.26 482.289 L1670.61 482.289 L1670.61 474.141 L1655 474.141 L1655 469.627 L1669.38 447.729 Z" fill="#000000" fill-rule="nonzero" fill-opacity="1" /><path clip-path="url(#clip570)" d="M1697.92 450.808 Q1694.31 450.808 1692.48 454.372 Q1690.68 457.914 1690.68 465.044 Q1690.68 472.15 1692.48 475.715 Q1694.31 479.257 1697.92 479.257 Q1701.56 479.257 1703.36 475.715 Q1705.19 472.15 1705.19 465.044 Q1705.19 457.914 1703.36 454.372 Q1701.56 450.808 1697.92 450.808 M1697.92 447.104 Q1703.73 447.104 1706.79 451.71 Q1709.87 456.294 1709.87 465.044 Q1709.87 473.77 1706.79 478.377 Q1703.73 482.96 1697.92 482.96 Q1692.11 482.96 1689.03 478.377 Q1685.98 473.77 1685.98 465.044 Q1685.98 456.294 1689.03 451.71 Q1692.11 447.104 1697.92 447.104 Z" fill="#000000" fill-rule="nonzero" fill-opacity="1" /><polyline clip-path="url(#clip570)" style="stroke:#000000; stroke-linecap:round; stroke-linejoin:round; stroke-width:4; stroke-opacity:1; fill:none" points="204.229,423.729 204.229,135.568 "/>
<polyline clip-path="url(#clip570)" style="stroke:#000000; stroke-linecap:round; stroke-linejoin:round; stroke-width:4; stroke-opacity:1; fill:none" points="204.229,420.843 223.126,420.843 "/>
<polyline clip-path="url(#clip570)" style="stroke:#000000; stroke-linecap:round; stroke-linejoin:round; stroke-width:4; stroke-opacity:1; fill:none" points="204.229,373.778 223.126,373.778 "/>
<polyline clip-path="url(#clip570)" style="stroke:#000000; stroke-linecap:round; stroke-linejoin:round; stroke-width:4; stroke-opacity:1; fill:none" points="204.229,326.713 223.126,326.713 "/>
<polyline clip-path="url(#clip570)" style="stroke:#000000; stroke-linecap:round; stroke-linejoin:round; stroke-width:4; stroke-opacity:1; fill:none" points="204.229,279.649 223.126,279.649 "/>
<polyline clip-path="url(#clip570)" style="stroke:#000000; stroke-linecap:round; stroke-linejoin:round; stroke-width:4; stroke-opacity:1; fill:none" points="204.229,232.584 223.126,232.584 "/>
<polyline clip-path="url(#clip570)" style="stroke:#000000; stroke-linecap:round; stroke-linejoin:round; stroke-width:4; stroke-opacity:1; fill:none" points="204.229,185.519 223.126,185.519 "/>
<polyline clip-path="url(#clip570)" style="stroke:#000000; stroke-linecap:round; stroke-linejoin:round; stroke-width:4; stroke-opacity:1; fill:none" points="204.229,138.454 223.126,138.454 "/>
<path clip-path="url(#clip570)" d="M53.3921 421.294 L83.0679 421.294 L83.0679 425.229 L53.3921 425.229 L53.3921 421.294 Z" fill="#000000" fill-rule="nonzero" fill-opacity="1" /><path clip-path="url(#clip570)" d="M107.327 419.489 Q110.683 420.206 112.558 422.475 Q114.457 424.743 114.457 428.076 Q114.457 433.192 110.938 435.993 Q107.42 438.794 100.938 438.794 Q98.7623 438.794 96.4475 438.354 Q94.1558 437.938 91.7021 437.081 L91.7021 432.567 Q93.6465 433.701 95.9613 434.28 Q98.2761 434.859 100.799 434.859 Q105.197 434.859 107.489 433.123 Q109.804 431.387 109.804 428.076 Q109.804 425.021 107.651 423.308 Q105.521 421.572 101.702 421.572 L97.6743 421.572 L97.6743 417.729 L101.887 417.729 Q105.336 417.729 107.165 416.364 Q108.994 414.975 108.994 412.382 Q108.994 409.72 107.096 408.308 Q105.221 406.873 101.702 406.873 Q99.7808 406.873 97.5817 407.29 Q95.3826 407.706 92.7438 408.586 L92.7438 404.419 Q95.4058 403.678 97.7206 403.308 Q100.059 402.938 102.119 402.938 Q107.443 402.938 110.545 405.368 Q113.646 407.776 113.646 411.896 Q113.646 414.766 112.003 416.757 Q110.359 418.725 107.327 419.489 Z" fill="#000000" fill-rule="nonzero" fill-opacity="1" /><path clip-path="url(#clip570)" d="M133.322 406.641 Q129.711 406.641 127.882 410.206 Q126.077 413.748 126.077 420.877 Q126.077 427.984 127.882 431.549 Q129.711 435.09 133.322 435.09 Q136.956 435.09 138.762 431.549 Q140.591 427.984 140.591 420.877 Q140.591 413.748 138.762 410.206 Q136.956 406.641 133.322 406.641 M133.322 402.938 Q139.132 402.938 142.188 407.544 Q145.267 412.128 145.267 420.877 Q145.267 429.604 142.188 434.211 Q139.132 438.794 133.322 438.794 Q127.512 438.794 124.433 434.211 Q121.378 429.604 121.378 420.877 Q121.378 412.128 124.433 407.544 Q127.512 402.938 133.322 402.938 Z" fill="#000000" fill-rule="nonzero" fill-opacity="1" /><path clip-path="url(#clip570)" d="M163.484 406.641 Q159.873 406.641 158.044 410.206 Q156.239 413.748 156.239 420.877 Q156.239 427.984 158.044 431.549 Q159.873 435.09 163.484 435.09 Q167.118 435.09 168.924 431.549 Q170.753 427.984 170.753 420.877 Q170.753 413.748 168.924 410.206 Q167.118 406.641 163.484 406.641 M163.484 402.938 Q169.294 402.938 172.35 407.544 Q175.429 412.128 175.429 420.877 Q175.429 429.604 172.35 434.211 Q169.294 438.794 163.484 438.794 Q157.674 438.794 154.595 434.211 Q151.54 429.604 151.54 420.877 Q151.54 412.128 154.595 407.544 Q157.674 402.938 163.484 402.938 Z" fill="#000000" fill-rule="nonzero" fill-opacity="1" /><path clip-path="url(#clip570)" d="M53.3921 374.229 L83.0679 374.229 L83.0679 378.165 L53.3921 378.165 L53.3921 374.229 Z" fill="#000000" fill-rule="nonzero" fill-opacity="1" /><path clip-path="url(#clip570)" d="M97.1882 387.123 L113.508 387.123 L113.508 391.058 L91.5632 391.058 L91.5632 387.123 Q94.2252 384.368 98.8085 379.739 Q103.415 375.086 104.596 373.743 Q106.841 371.22 107.721 369.484 Q108.623 367.725 108.623 366.035 Q108.623 363.28 106.679 361.544 Q104.758 359.808 101.656 359.808 Q99.4567 359.808 97.003 360.572 Q94.5725 361.336 91.7947 362.887 L91.7947 358.165 Q94.6188 357.03 97.0724 356.452 Q99.5261 355.873 101.563 355.873 Q106.934 355.873 110.128 358.558 Q113.322 361.243 113.322 365.734 Q113.322 367.864 112.512 369.785 Q111.725 371.683 109.619 374.276 Q109.04 374.947 105.938 378.165 Q102.836 381.359 97.1882 387.123 Z" fill="#000000" fill-rule="nonzero" fill-opacity="1" /><path clip-path="url(#clip570)" d="M133.322 359.577 Q129.711 359.577 127.882 363.141 Q126.077 366.683 126.077 373.813 Q126.077 380.919 127.882 384.484 Q129.711 388.026 133.322 388.026 Q136.956 388.026 138.762 384.484 Q140.591 380.919 140.591 373.813 Q140.591 366.683 138.762 363.141 Q136.956 359.577 133.322 359.577 M133.322 355.873 Q139.132 355.873 142.188 360.479 Q145.267 365.063 145.267 373.813 Q145.267 382.54 142.188 387.146 Q139.132 391.729 133.322 391.729 Q127.512 391.729 124.433 387.146 Q121.378 382.54 121.378 373.813 Q121.378 365.063 124.433 360.479 Q127.512 355.873 133.322 355.873 Z" fill="#000000" fill-rule="nonzero" fill-opacity="1" /><path clip-path="url(#clip570)" d="M163.484 359.577 Q159.873 359.577 158.044 363.141 Q156.239 366.683 156.239 373.813 Q156.239 380.919 158.044 384.484 Q159.873 388.026 163.484 388.026 Q167.118 388.026 168.924 384.484 Q170.753 380.919 170.753 373.813 Q170.753 366.683 168.924 363.141 Q167.118 359.577 163.484 359.577 M163.484 355.873 Q169.294 355.873 172.35 360.479 Q175.429 365.063 175.429 373.813 Q175.429 382.54 172.35 387.146 Q169.294 391.729 163.484 391.729 Q157.674 391.729 154.595 387.146 Q151.54 382.54 151.54 373.813 Q151.54 365.063 154.595 360.479 Q157.674 355.873 163.484 355.873 Z" fill="#000000" fill-rule="nonzero" fill-opacity="1" /><path clip-path="url(#clip570)" d="M53.3921 327.165 L83.0679 327.165 L83.0679 331.1 L53.3921 331.1 L53.3921 327.165 Z" fill="#000000" fill-rule="nonzero" fill-opacity="1" /><path clip-path="url(#clip570)" d="M93.9706 340.058 L101.609 340.058 L101.609 313.693 L93.2993 315.359 L93.2993 311.1 L101.563 309.433 L106.239 309.433 L106.239 340.058 L113.878 340.058 L113.878 343.993 L93.9706 343.993 L93.9706 340.058 Z" fill="#000000" fill-rule="nonzero" fill-opacity="1" /><path clip-path="url(#clip570)" d="M133.322 312.512 Q129.711 312.512 127.882 316.077 Q126.077 319.618 126.077 326.748 Q126.077 333.854 127.882 337.419 Q129.711 340.961 133.322 340.961 Q136.956 340.961 138.762 337.419 Q140.591 333.854 140.591 326.748 Q140.591 319.618 138.762 316.077 Q136.956 312.512 133.322 312.512 M133.322 308.808 Q139.132 308.808 142.188 313.415 Q145.267 317.998 145.267 326.748 Q145.267 335.475 142.188 340.081 Q139.132 344.665 133.322 344.665 Q127.512 344.665 124.433 340.081 Q121.378 335.475 121.378 326.748 Q121.378 317.998 124.433 313.415 Q127.512 308.808 133.322 308.808 Z" fill="#000000" fill-rule="nonzero" fill-opacity="1" /><path clip-path="url(#clip570)" d="M163.484 312.512 Q159.873 312.512 158.044 316.077 Q156.239 319.618 156.239 326.748 Q156.239 333.854 158.044 337.419 Q159.873 340.961 163.484 340.961 Q167.118 340.961 168.924 337.419 Q170.753 333.854 170.753 326.748 Q170.753 319.618 168.924 316.077 Q167.118 312.512 163.484 312.512 M163.484 308.808 Q169.294 308.808 172.35 313.415 Q175.429 317.998 175.429 326.748 Q175.429 335.475 172.35 340.081 Q169.294 344.665 163.484 344.665 Q157.674 344.665 154.595 340.081 Q151.54 335.475 151.54 326.748 Q151.54 317.998 154.595 313.415 Q157.674 308.808 163.484 308.808 Z" fill="#000000" fill-rule="nonzero" fill-opacity="1" /><path clip-path="url(#clip570)" d="M163.484 265.447 Q159.873 265.447 158.044 269.012 Q156.239 272.554 156.239 279.683 Q156.239 286.79 158.044 290.354 Q159.873 293.896 163.484 293.896 Q167.118 293.896 168.924 290.354 Q170.753 286.79 170.753 279.683 Q170.753 272.554 168.924 269.012 Q167.118 265.447 163.484 265.447 M163.484 261.744 Q169.294 261.744 172.35 266.35 Q175.429 270.933 175.429 279.683 Q175.429 288.41 172.35 293.017 Q169.294 297.6 163.484 297.6 Q157.674 297.6 154.595 293.017 Q151.54 288.41 151.54 279.683 Q151.54 270.933 154.595 266.35 Q157.674 261.744 163.484 261.744 Z" fill="#000000" fill-rule="nonzero" fill-opacity="1" /><path clip-path="url(#clip570)" d="M93.9706 245.929 L101.609 245.929 L101.609 219.563 L93.2993 221.23 L93.2993 216.97 L101.563 215.304 L106.239 215.304 L106.239 245.929 L113.878 245.929 L113.878 249.864 L93.9706 249.864 L93.9706 245.929 Z" fill="#000000" fill-rule="nonzero" fill-opacity="1" /><path clip-path="url(#clip570)" d="M133.322 218.382 Q129.711 218.382 127.882 221.947 Q126.077 225.489 126.077 232.619 Q126.077 239.725 127.882 243.29 Q129.711 246.831 133.322 246.831 Q136.956 246.831 138.762 243.29 Q140.591 239.725 140.591 232.619 Q140.591 225.489 138.762 221.947 Q136.956 218.382 133.322 218.382 M133.322 214.679 Q139.132 214.679 142.188 219.285 Q145.267 223.869 145.267 232.619 Q145.267 241.345 142.188 245.952 Q139.132 250.535 133.322 250.535 Q127.512 250.535 124.433 245.952 Q121.378 241.345 121.378 232.619 Q121.378 223.869 124.433 219.285 Q127.512 214.679 133.322 214.679 Z" fill="#000000" fill-rule="nonzero" fill-opacity="1" /><path clip-path="url(#clip570)" d="M163.484 218.382 Q159.873 218.382 158.044 221.947 Q156.239 225.489 156.239 232.619 Q156.239 239.725 158.044 243.29 Q159.873 246.831 163.484 246.831 Q167.118 246.831 168.924 243.29 Q170.753 239.725 170.753 232.619 Q170.753 225.489 168.924 221.947 Q167.118 218.382 163.484 218.382 M163.484 214.679 Q169.294 214.679 172.35 219.285 Q175.429 223.869 175.429 232.619 Q175.429 241.345 172.35 245.952 Q169.294 250.535 163.484 250.535 Q157.674 250.535 154.595 245.952 Q151.54 241.345 151.54 232.619 Q151.54 223.869 154.595 219.285 Q157.674 214.679 163.484 214.679 Z" fill="#000000" fill-rule="nonzero" fill-opacity="1" /><path clip-path="url(#clip570)" d="M97.1882 198.864 L113.508 198.864 L113.508 202.799 L91.5632 202.799 L91.5632 198.864 Q94.2252 196.109 98.8085 191.48 Q103.415 186.827 104.596 185.484 Q106.841 182.961 107.721 181.225 Q108.623 179.466 108.623 177.776 Q108.623 175.021 106.679 173.285 Q104.758 171.549 101.656 171.549 Q99.4567 171.549 97.003 172.313 Q94.5725 173.077 91.7947 174.628 L91.7947 169.906 Q94.6188 168.771 97.0724 168.193 Q99.5261 167.614 101.563 167.614 Q106.934 167.614 110.128 170.299 Q113.322 172.984 113.322 177.475 Q113.322 179.605 112.512 181.526 Q111.725 183.424 109.619 186.017 Q109.04 186.688 105.938 189.906 Q102.836 193.1 97.1882 198.864 Z" fill="#000000" fill-rule="nonzero" fill-opacity="1" /><path clip-path="url(#clip570)" d="M133.322 171.318 Q129.711 171.318 127.882 174.883 Q126.077 178.424 126.077 185.554 Q126.077 192.66 127.882 196.225 Q129.711 199.767 133.322 199.767 Q136.956 199.767 138.762 196.225 Q140.591 192.66 140.591 185.554 Q140.591 178.424 138.762 174.883 Q136.956 171.318 133.322 171.318 M133.322 167.614 Q139.132 167.614 142.188 172.221 Q145.267 176.804 145.267 185.554 Q145.267 194.281 142.188 198.887 Q139.132 203.47 133.322 203.47 Q127.512 203.47 124.433 198.887 Q121.378 194.281 121.378 185.554 Q121.378 176.804 124.433 172.221 Q127.512 167.614 133.322 167.614 Z" fill="#000000" fill-rule="nonzero" fill-opacity="1" /><path clip-path="url(#clip570)" d="M163.484 171.318 Q159.873 171.318 158.044 174.883 Q156.239 178.424 156.239 185.554 Q156.239 192.66 158.044 196.225 Q159.873 199.767 163.484 199.767 Q167.118 199.767 168.924 196.225 Q170.753 192.66 170.753 185.554 Q170.753 178.424 168.924 174.883 Q167.118 171.318 163.484 171.318 M163.484 167.614 Q169.294 167.614 172.35 172.221 Q175.429 176.804 175.429 185.554 Q175.429 194.281 172.35 198.887 Q169.294 203.47 163.484 203.47 Q157.674 203.47 154.595 198.887 Q151.54 194.281 151.54 185.554 Q151.54 176.804 154.595 172.221 Q157.674 167.614 163.484 167.614 Z" fill="#000000" fill-rule="nonzero" fill-opacity="1" /><path clip-path="url(#clip570)" d="M107.327 137.1 Q110.683 137.818 112.558 140.086 Q114.457 142.355 114.457 145.688 Q114.457 150.804 110.938 153.605 Q107.42 156.406 100.938 156.406 Q98.7623 156.406 96.4475 155.966 Q94.1558 155.549 91.7021 154.693 L91.7021 150.179 Q93.6465 151.313 95.9613 151.892 Q98.2761 152.47 100.799 152.47 Q105.197 152.47 107.489 150.734 Q109.804 148.998 109.804 145.688 Q109.804 142.633 107.651 140.92 Q105.521 139.184 101.702 139.184 L97.6743 139.184 L97.6743 135.341 L101.887 135.341 Q105.336 135.341 107.165 133.975 Q108.994 132.586 108.994 129.994 Q108.994 127.332 107.096 125.92 Q105.221 124.485 101.702 124.485 Q99.7808 124.485 97.5817 124.901 Q95.3826 125.318 92.7438 126.197 L92.7438 122.031 Q95.4058 121.29 97.7206 120.92 Q100.059 120.549 102.119 120.549 Q107.443 120.549 110.545 122.98 Q113.646 125.387 113.646 129.508 Q113.646 132.378 112.003 134.369 Q110.359 136.336 107.327 137.1 Z" fill="#000000" fill-rule="nonzero" fill-opacity="1" /><path clip-path="url(#clip570)" d="M133.322 124.253 Q129.711 124.253 127.882 127.818 Q126.077 131.359 126.077 138.489 Q126.077 145.596 127.882 149.16 Q129.711 152.702 133.322 152.702 Q136.956 152.702 138.762 149.16 Q140.591 145.596 140.591 138.489 Q140.591 131.359 138.762 127.818 Q136.956 124.253 133.322 124.253 M133.322 120.549 Q139.132 120.549 142.188 125.156 Q145.267 129.739 145.267 138.489 Q145.267 147.216 142.188 151.822 Q139.132 156.406 133.322 156.406 Q127.512 156.406 124.433 151.822 Q121.378 147.216 121.378 138.489 Q121.378 129.739 124.433 125.156 Q127.512 120.549 133.322 120.549 Z" fill="#000000" fill-rule="nonzero" fill-opacity="1" /><path clip-path="url(#clip570)" d="M163.484 124.253 Q159.873 124.253 158.044 127.818 Q156.239 131.359 156.239 138.489 Q156.239 145.596 158.044 149.16 Q159.873 152.702 163.484 152.702 Q167.118 152.702 168.924 149.16 Q170.753 145.596 170.753 138.489 Q170.753 131.359 168.924 127.818 Q167.118 124.253 163.484 124.253 M163.484 120.549 Q169.294 120.549 172.35 125.156 Q175.429 129.739 175.429 138.489 Q175.429 147.216 172.35 151.822 Q169.294 156.406 163.484 156.406 Q157.674 156.406 154.595 151.822 Q151.54 147.216 151.54 138.489 Q151.54 129.739 154.595 125.156 Q157.674 120.549 163.484 120.549 Z" fill="#000000" fill-rule="nonzero" fill-opacity="1" /><path clip-path="url(#clip570)" d="M495.246 12.096 L507.439 12.096 L522.873 53.2532 L538.388 12.096 L550.581 12.096 L550.581 72.576 L542.601 72.576 L542.601 19.4686 L527.005 60.9499 L518.781 60.9499 L503.185 19.4686 L503.185 72.576 L495.246 72.576 L495.246 12.096 Z" fill="#000000" fill-rule="nonzero" fill-opacity="1" /><path clip-path="url(#clip570)" d="M587.12 49.7694 Q578.087 49.7694 574.603 51.8354 Q571.119 53.9013 571.119 58.8839 Q571.119 62.8538 573.712 65.2034 Q576.345 67.5124 580.841 67.5124 Q587.039 67.5124 590.766 63.1374 Q594.533 58.7219 594.533 51.4303 L594.533 49.7694 L587.12 49.7694 M601.987 46.6907 L601.987 72.576 L594.533 72.576 L594.533 65.6895 Q591.981 69.8214 588.173 71.8063 Q584.366 73.7508 578.856 73.7508 Q571.889 73.7508 567.757 69.8619 Q563.665 65.9325 563.665 59.3701 Q563.665 51.7138 568.77 47.825 Q573.914 43.9361 584.082 43.9361 L594.533 43.9361 L594.533 43.2069 Q594.533 38.0623 591.131 35.2672 Q587.768 32.4315 581.651 32.4315 Q577.763 32.4315 574.076 33.3632 Q570.39 34.295 566.987 36.1584 L566.987 29.2718 Q571.079 27.692 574.927 26.9223 Q578.775 26.1121 582.421 26.1121 Q592.265 26.1121 597.126 31.2163 Q601.987 36.3204 601.987 46.6907 Z" fill="#000000" fill-rule="nonzero" fill-opacity="1" /><path clip-path="url(#clip570)" d="M655.054 27.2059 L638.648 49.2833 L655.905 72.576 L647.114 72.576 L633.908 54.752 L620.702 72.576 L611.912 72.576 L629.533 48.8377 L613.411 27.2059 L622.201 27.2059 L634.232 43.369 L646.263 27.2059 L655.054 27.2059 Z" fill="#000000" fill-rule="nonzero" fill-opacity="1" /><path clip-path="url(#clip570)" d="M729.388 14.0809 L729.388 22.0612 Q724.729 19.8332 720.597 18.7395 Q716.466 17.6457 712.617 17.6457 Q705.933 17.6457 702.287 20.2383 Q698.682 22.8309 698.682 27.611 Q698.682 31.6214 701.072 33.6873 Q703.503 35.7128 710.227 36.9686 L715.169 37.9813 Q724.324 39.7232 728.659 44.1387 Q733.034 48.5136 733.034 55.8863 Q733.034 64.6767 727.119 69.2137 Q721.246 73.7508 709.863 73.7508 Q705.569 73.7508 700.708 72.7785 Q695.887 71.8063 690.702 69.9024 L690.702 61.4765 Q695.684 64.2716 700.465 65.6895 Q705.245 67.1073 709.863 67.1073 Q716.871 67.1073 720.679 64.3527 Q724.486 61.598 724.486 56.4939 Q724.486 52.0379 721.732 49.5264 Q719.018 47.0148 712.779 45.759 L707.797 44.7868 Q698.642 42.9639 694.55 39.075 Q690.459 35.1862 690.459 28.2591 Q690.459 20.2383 696.09 15.6203 Q701.761 11.0023 711.686 11.0023 Q715.939 11.0023 720.354 11.7719 Q724.77 12.5416 729.388 14.0809 Z" fill="#000000" fill-rule="nonzero" fill-opacity="1" /><path clip-path="url(#clip570)" d="M783.184 45.1919 L783.184 72.576 L775.73 72.576 L775.73 45.4349 Q775.73 38.994 773.219 35.7938 Q770.707 32.5936 765.684 32.5936 Q759.648 32.5936 756.164 36.4419 Q752.681 40.2903 752.681 46.9338 L752.681 72.576 L745.186 72.576 L745.186 9.54393 L752.681 9.54393 L752.681 34.2544 Q755.354 30.163 758.96 28.1376 Q762.605 26.1121 767.345 26.1121 Q775.163 26.1121 779.174 30.9732 Q783.184 35.7938 783.184 45.1919 Z" fill="#000000" fill-rule="nonzero" fill-opacity="1" /><path clip-path="url(#clip570)" d="M836.858 48.0275 L836.858 51.6733 L802.588 51.6733 Q803.074 59.3701 807.206 63.421 Q811.378 67.4314 818.791 67.4314 Q823.085 67.4314 827.096 66.3781 Q831.147 65.3249 835.117 63.2184 L835.117 70.267 Q831.106 71.9684 826.893 72.8596 Q822.68 73.7508 818.346 73.7508 Q807.489 73.7508 801.129 67.4314 Q794.81 61.1119 794.81 50.3365 Q794.81 39.1965 800.805 32.6746 Q806.841 26.1121 817.05 26.1121 Q826.205 26.1121 831.511 32.0264 Q836.858 37.9003 836.858 48.0275 M829.405 45.84 Q829.324 39.7232 825.962 36.0774 Q822.64 32.4315 817.131 32.4315 Q810.892 32.4315 807.125 35.9558 Q803.398 39.4801 802.831 45.8805 L829.405 45.84 Z" fill="#000000" fill-rule="nonzero" fill-opacity="1" /><path clip-path="url(#clip570)" d="M869.711 49.7694 Q860.678 49.7694 857.194 51.8354 Q853.71 53.9013 853.71 58.8839 Q853.71 62.8538 856.303 65.2034 Q858.936 67.5124 863.432 67.5124 Q869.63 67.5124 873.357 63.1374 Q877.124 58.7219 877.124 51.4303 L877.124 49.7694 L869.711 49.7694 M884.578 46.6907 L884.578 72.576 L877.124 72.576 L877.124 65.6895 Q874.572 69.8214 870.765 71.8063 Q866.957 73.7508 861.447 73.7508 Q854.48 73.7508 850.348 69.8619 Q846.257 65.9325 846.257 59.3701 Q846.257 51.7138 851.361 47.825 Q856.505 43.9361 866.673 43.9361 L877.124 43.9361 L877.124 43.2069 Q877.124 38.0623 873.722 35.2672 Q870.359 32.4315 864.243 32.4315 Q860.354 32.4315 856.667 33.3632 Q852.981 34.295 849.578 36.1584 L849.578 29.2718 Q853.67 27.692 857.518 26.9223 Q861.366 26.1121 865.012 26.1121 Q874.856 26.1121 879.717 31.2163 Q884.578 36.3204 884.578 46.6907 Z" fill="#000000" fill-rule="nonzero" fill-opacity="1" /><path clip-path="url(#clip570)" d="M926.221 34.1734 Q924.966 33.4443 923.467 33.1202 Q922.008 32.7556 920.226 32.7556 Q913.907 32.7556 910.504 36.8875 Q907.142 40.9789 907.142 48.6757 L907.142 72.576 L899.647 72.576 L899.647 27.2059 L907.142 27.2059 L907.142 34.2544 Q909.491 30.1225 913.259 28.1376 Q917.026 26.1121 922.414 26.1121 Q923.183 26.1121 924.115 26.2337 Q925.047 26.3147 926.181 26.5172 L926.221 34.1734 Z" fill="#000000" fill-rule="nonzero" fill-opacity="1" /><path clip-path="url(#clip570)" d="M960.735 12.096 L998.976 12.096 L998.976 18.9825 L968.918 18.9825 L968.918 36.8875 L997.72 36.8875 L997.72 43.7741 L968.918 43.7741 L968.918 65.6895 L999.705 65.6895 L999.705 72.576 L960.735 72.576 L960.735 12.096 Z" fill="#000000" fill-rule="nonzero" fill-opacity="1" /><path clip-path="url(#clip570)" d="M1050.54 45.1919 L1050.54 72.576 L1043.09 72.576 L1043.09 45.4349 Q1043.09 38.994 1040.58 35.7938 Q1038.07 32.5936 1033.04 32.5936 Q1027.01 32.5936 1023.52 36.4419 Q1020.04 40.2903 1020.04 46.9338 L1020.04 72.576 L1012.55 72.576 L1012.55 27.2059 L1020.04 27.2059 L1020.04 34.2544 Q1022.71 30.163 1026.32 28.1376 Q1029.97 26.1121 1034.7 26.1121 Q1042.52 26.1121 1046.53 30.9732 Q1050.54 35.7938 1050.54 45.1919 Z" fill="#000000" fill-rule="nonzero" fill-opacity="1" /><path clip-path="url(#clip570)" d="M1060.06 27.2059 L1067.96 27.2059 L1082.14 65.2844 L1096.32 27.2059 L1104.22 27.2059 L1087.2 72.576 L1077.08 72.576 L1060.06 27.2059 Z" fill="#000000" fill-rule="nonzero" fill-opacity="1" /><path clip-path="url(#clip570)" d="M1153.32 48.0275 L1153.32 51.6733 L1119.04 51.6733 Q1119.53 59.3701 1123.66 63.421 Q1127.83 67.4314 1135.25 67.4314 Q1139.54 67.4314 1143.55 66.3781 Q1147.6 65.3249 1151.57 63.2184 L1151.57 70.267 Q1147.56 71.9684 1143.35 72.8596 Q1139.14 73.7508 1134.8 73.7508 Q1123.95 73.7508 1117.59 67.4314 Q1111.27 61.1119 1111.27 50.3365 Q1111.27 39.1965 1117.26 32.6746 Q1123.3 26.1121 1133.51 26.1121 Q1142.66 26.1121 1147.97 32.0264 Q1153.32 37.9003 1153.32 48.0275 M1145.86 45.84 Q1145.78 39.7232 1142.42 36.0774 Q1139.1 32.4315 1133.59 32.4315 Q1127.35 32.4315 1123.58 35.9558 Q1119.85 39.4801 1119.29 45.8805 L1145.86 45.84 Z" fill="#000000" fill-rule="nonzero" fill-opacity="1" /><path clip-path="url(#clip570)" d="M1165.55 9.54393 L1173 9.54393 L1173 72.576 L1165.55 72.576 L1165.55 9.54393 Z" fill="#000000" fill-rule="nonzero" fill-opacity="1" /><path clip-path="url(#clip570)" d="M1206.18 32.4315 Q1200.18 32.4315 1196.7 37.1306 Q1193.22 41.7891 1193.22 49.9314 Q1193.22 58.0738 1196.66 62.7728 Q1200.14 67.4314 1206.18 67.4314 Q1212.13 67.4314 1215.62 62.7323 Q1219.1 58.0333 1219.1 49.9314 Q1219.1 41.8701 1215.62 37.1711 Q1212.13 32.4315 1206.18 32.4315 M1206.18 26.1121 Q1215.9 26.1121 1221.45 32.4315 Q1227 38.7509 1227 49.9314 Q1227 61.0714 1221.45 67.4314 Q1215.9 73.7508 1206.18 73.7508 Q1196.42 73.7508 1190.87 67.4314 Q1185.36 61.0714 1185.36 49.9314 Q1185.36 38.7509 1190.87 32.4315 Q1196.42 26.1121 1206.18 26.1121 Z" fill="#000000" fill-rule="nonzero" fill-opacity="1" /><path clip-path="url(#clip570)" d="M1246.57 65.7705 L1246.57 89.8329 L1239.07 89.8329 L1239.07 27.2059 L1246.57 27.2059 L1246.57 34.0924 Q1248.92 30.0415 1252.48 28.0971 Q1256.09 26.1121 1261.07 26.1121 Q1269.33 26.1121 1274.48 32.6746 Q1279.66 39.2371 1279.66 49.9314 Q1279.66 60.6258 1274.48 67.1883 Q1269.33 73.7508 1261.07 73.7508 Q1256.09 73.7508 1252.48 71.8063 Q1248.92 69.8214 1246.57 65.7705 M1271.93 49.9314 Q1271.93 41.7081 1268.52 37.0496 Q1265.16 32.3505 1259.25 32.3505 Q1253.33 32.3505 1249.93 37.0496 Q1246.57 41.7081 1246.57 49.9314 Q1246.57 58.1548 1249.93 62.8538 Q1253.33 67.5124 1259.25 67.5124 Q1265.16 67.5124 1268.52 62.8538 Q1271.93 58.1548 1271.93 49.9314 Z" fill="#000000" fill-rule="nonzero" fill-opacity="1" /><path clip-path="url(#clip570)" d="M1330.83 48.0275 L1330.83 51.6733 L1296.56 51.6733 Q1297.04 59.3701 1301.17 63.421 Q1305.35 67.4314 1312.76 67.4314 Q1317.05 67.4314 1321.06 66.3781 Q1325.11 65.3249 1329.08 63.2184 L1329.08 70.267 Q1325.07 71.9684 1320.86 72.8596 Q1316.65 73.7508 1312.31 73.7508 Q1301.46 73.7508 1295.1 67.4314 Q1288.78 61.1119 1288.78 50.3365 Q1288.78 39.1965 1294.77 32.6746 Q1300.81 26.1121 1311.02 26.1121 Q1320.17 26.1121 1325.48 32.0264 Q1330.83 37.9003 1330.83 48.0275 M1323.37 45.84 Q1323.29 39.7232 1319.93 36.0774 Q1316.61 32.4315 1311.1 32.4315 Q1304.86 32.4315 1301.09 35.9558 Q1297.37 39.4801 1296.8 45.8805 L1323.37 45.84 Z" fill="#000000" fill-rule="nonzero" fill-opacity="1" /><path clip-path="url(#clip570)" d="M1387.34 9.62495 Q1381.91 18.942 1379.27 28.0566 Q1376.64 37.1711 1376.64 46.5287 Q1376.64 55.8863 1379.27 65.0818 Q1381.95 74.2369 1387.34 83.5134 L1380.85 83.5134 Q1374.78 73.9938 1371.74 64.7983 Q1368.74 55.6027 1368.74 46.5287 Q1368.74 37.4952 1371.74 28.3401 Q1374.74 19.1851 1380.85 9.62495 L1387.34 9.62495 Z" fill="#000000" fill-rule="nonzero" fill-opacity="1" /><path clip-path="url(#clip570)" d="M1438.38 14.0809 L1438.38 22.0612 Q1433.72 19.8332 1429.59 18.7395 Q1425.45 17.6457 1421.61 17.6457 Q1414.92 17.6457 1411.28 20.2383 Q1407.67 22.8309 1407.67 27.611 Q1407.67 31.6214 1410.06 33.6873 Q1412.49 35.7128 1419.22 36.9686 L1424.16 37.9813 Q1433.31 39.7232 1437.65 44.1387 Q1442.02 48.5136 1442.02 55.8863 Q1442.02 64.6767 1436.11 69.2137 Q1430.23 73.7508 1418.85 73.7508 Q1414.56 73.7508 1409.7 72.7785 Q1404.88 71.8063 1399.69 69.9024 L1399.69 61.4765 Q1404.67 64.2716 1409.45 65.6895 Q1414.23 67.1073 1418.85 67.1073 Q1425.86 67.1073 1429.67 64.3527 Q1433.48 61.598 1433.48 56.4939 Q1433.48 52.0379 1430.72 49.5264 Q1428.01 47.0148 1421.77 45.759 L1416.79 44.7868 Q1407.63 42.9639 1403.54 39.075 Q1399.45 35.1862 1399.45 28.2591 Q1399.45 20.2383 1405.08 15.6203 Q1410.75 11.0023 1420.67 11.0023 Q1424.93 11.0023 1429.34 11.7719 Q1433.76 12.5416 1438.38 14.0809 Z" fill="#000000" fill-rule="nonzero" fill-opacity="1" /><path clip-path="url(#clip570)" d="M1483.46 44.2197 Q1486.1 45.1109 1488.57 48.0275 Q1491.08 50.9442 1493.59 56.0483 L1501.9 72.576 L1493.1 72.576 L1485.37 57.061 Q1482.37 50.9847 1479.53 48.9997 Q1476.74 47.0148 1471.88 47.0148 L1462.97 47.0148 L1462.97 72.576 L1454.78 72.576 L1454.78 12.096 L1473.26 12.096 Q1483.63 12.096 1488.73 16.4305 Q1493.83 20.7649 1493.83 29.5149 Q1493.83 35.2267 1491.16 38.994 Q1488.53 42.7613 1483.46 44.2197 M1462.97 18.8205 L1462.97 40.2903 L1473.26 40.2903 Q1479.17 40.2903 1482.17 37.5762 Q1485.21 34.8216 1485.21 29.5149 Q1485.21 24.2082 1482.17 21.5346 Q1479.17 18.8205 1473.26 18.8205 L1462.97 18.8205 Z" fill="#000000" fill-rule="nonzero" fill-opacity="1" /><path clip-path="url(#clip570)" d="M1523.49 72.576 L1500.4 12.096 L1508.94 12.096 L1528.1 63.0159 L1547.31 12.096 L1555.81 12.096 L1532.76 72.576 L1523.49 72.576 Z" fill="#000000" fill-rule="nonzero" fill-opacity="1" /><path clip-path="url(#clip570)" d="M1563.15 9.62495 L1569.63 9.62495 Q1575.7 19.1851 1578.7 28.3401 Q1581.74 37.4952 1581.74 46.5287 Q1581.74 55.6027 1578.7 64.7983 Q1575.7 73.9938 1569.63 83.5134 L1563.15 83.5134 Q1568.53 74.2369 1571.17 65.0818 Q1573.84 55.8863 1573.84 46.5287 Q1573.84 37.1711 1571.17 28.0566 Q1568.53 18.942 1563.15 9.62495 Z" fill="#000000" fill-rule="nonzero" fill-opacity="1" /><path clip-path="url(#clip572)" d="M251.451 279.649 L269.338 280.128 L287.226 280.608 L305.113 281.087 L323 281.567 L340.887 346.037 L358.775 346.516 L376.662 346.996 L394.549 209.584 L412.437 210.063 L430.324 210.543 L448.211 211.022 L466.099 211.502 L483.986 211.981 L501.873 212.461 L519.76 212.94 L537.648 213.42 L555.535 213.899 L573.422 214.379 L591.31 214.858 L609.197 215.338 L627.084 315.44 L644.972 315.919 L662.859 316.399 L680.746 316.878 L698.633 317.358 L716.521 317.837 L734.408 318.317 L752.295 318.796 L770.183 319.276 L788.07 319.755 L805.957 320.235 L823.845 143.724 L841.732 144.203 L859.619 144.683 L877.507 145.162 L895.394 145.642 L913.281 269.847 L931.168 270.327 L949.056 270.806 L966.943 271.286 L984.83 271.765 L1002.72 272.245 L1020.6 272.724 L1038.49 273.204 L1056.38 273.683 L1074.27 274.163 L1092.15 274.642 L1110.04 275.122 L1127.93 275.601 L1145.82 276.081 L1163.7 276.56 L1181.59 277.04 L1199.48 353.588 L1217.37 354.068 L1235.25 354.547 L1253.14 207.139 L1271.03 207.618 L1288.91 208.098 L1306.8 208.577 L1324.69 209.057 L1342.58 209.536 L1360.46 210.016 L1378.35 210.495 L1396.24 210.975 L1414.13 211.454 L1432.01 211.934 L1449.9 212.413 L1467.79 212.893 L1485.67 314.556 L1503.56 315.035 L1521.45 315.515 L1539.34 315.994 L1557.22 316.474 L1575.11 316.953 L1593 317.433 L1610.89 317.912 L1628.77 318.392 L1646.66 318.871 L1664.55 319.351 L1682.44 170.073 L1700.32 170.552 L1718.21 171.032 L1736.1 171.511 L1753.98 171.991 L1771.87 278.21 L1789.76 278.69 L1807.65 279.169 L1825.53 279.649 L1825.53 279.649 L1807.65 279.649 L1789.76 279.649 L1771.87 279.649 L1753.98 279.649 L1736.1 279.649 L1718.21 279.649 L1700.32 279.649 L1682.44 279.649 L1664.55 279.649 L1646.66 279.649 L1628.77 279.649 L1610.89 279.649 L1593 279.649 L1575.11 279.649 L1557.22 279.649 L1539.34 279.649 L1521.45 279.649 L1503.56 279.649 L1485.67 279.649 L1467.79 279.649 L1449.9 279.649 L1432.01 279.649 L1414.13 279.649 L1396.24 279.649 L1378.35 279.649 L1360.46 279.649 L1342.58 279.649 L1324.69 279.649 L1306.8 279.649 L1288.91 279.649 L1271.03 279.649 L1253.14 279.649 L1235.25 279.649 L1217.37 279.649 L1199.48 279.649 L1181.59 279.649 L1163.7 279.649 L1145.82 279.649 L1127.93 279.649 L1110.04 279.649 L1092.15 279.649 L1074.27 279.649 L1056.38 279.649 L1038.49 279.649 L1020.6 279.649 L1002.72 279.649 L984.83 279.649 L966.943 279.649 L949.056 279.649 L931.168 279.649 L913.281 279.649 L895.394 279.649 L877.507 279.649 L859.619 279.649 L841.732 279.649 L823.845 279.649 L805.957 279.649 L788.07 279.649 L770.183 279.649 L752.295 279.649 L734.408 279.649 L716.521 279.649 L698.633 279.649 L680.746 279.649 L662.859 279.649 L644.972 279.649 L627.084 279.649 L609.197 279.649 L591.31 279.649 L573.422 279.649 L555.535 279.649 L537.648 279.649 L519.76 279.649 L501.873 279.649 L483.986 279.649 L466.099 279.649 L448.211 279.649 L430.324 279.649 L412.437 279.649 L394.549 279.649 L376.662 279.649 L358.775 279.649 L340.887 279.649 L323 279.649 L305.113 279.649 L287.226 279.649 L269.338 279.649 L251.451 279.649  Z" fill="#0000ff" fill-rule="evenodd" fill-opacity="0.5"/>
<polyline clip-path="url(#clip572)" style="stroke:#0000ff; stroke-linecap:round; stroke-linejoin:round; stroke-width:4; stroke-opacity:1; fill:none" points="251.451,279.649 269.338,280.128 287.226,280.608 305.113,281.087 323,281.567 340.887,346.037 358.775,346.516 376.662,346.996 394.549,209.584 412.437,210.063 430.324,210.543 448.211,211.022 466.099,211.502 483.986,211.981 501.873,212.461 519.76,212.94 537.648,213.42 555.535,213.899 573.422,214.379 591.31,214.858 609.197,215.338 627.084,315.44 644.972,315.919 662.859,316.399 680.746,316.878 698.633,317.358 716.521,317.837 734.408,318.317 752.295,318.796 770.183,319.276 788.07,319.755 805.957,320.235 823.845,143.724 841.732,144.203 859.619,144.683 877.507,145.162 895.394,145.642 913.281,269.847 931.168,270.327 949.056,270.806 966.943,271.286 984.83,271.765 1002.72,272.245 1020.6,272.724 1038.49,273.204 1056.38,273.683 1074.27,274.163 1092.15,274.642 1110.04,275.122 1127.93,275.601 1145.82,276.081 1163.7,276.56 1181.59,277.04 1199.48,353.588 1217.37,354.068 1235.25,354.547 1253.14,207.139 1271.03,207.618 1288.91,208.098 1306.8,208.577 1324.69,209.057 1342.58,209.536 1360.46,210.016 1378.35,210.495 1396.24,210.975 1414.13,211.454 1432.01,211.934 1449.9,212.413 1467.79,212.893 1485.67,314.556 1503.56,315.035 1521.45,315.515 1539.34,315.994 1557.22,316.474 1575.11,316.953 1593,317.433 1610.89,317.912 1628.77,318.392 1646.66,318.871 1664.55,319.351 1682.44,170.073 1700.32,170.552 1718.21,171.032 1736.1,171.511 1753.98,171.991 1771.87,278.21 1789.76,278.69 1807.65,279.169 1825.53,279.649 "/>
<path clip-path="url(#clip572)" d="M251.451 279.649 L269.338 280.128 L287.226 280.608 L305.113 281.087 L323 387.148 L340.887 387.628 L358.775 388.107 L376.662 388.587 L394.549 389.066 L412.437 239.947 L430.324 240.427 L448.211 240.906 L466.099 241.386 L483.986 241.865 L501.873 242.345 L519.76 242.824 L537.648 243.304 L555.535 243.783 L573.422 244.263 L591.31 244.742 L609.197 346.404 L627.084 346.884 L644.972 347.363 L662.859 347.843 L680.746 348.322 L698.633 348.802 L716.521 349.281 L734.408 349.761 L752.295 350.24 L770.183 350.72 L788.07 351.199 L805.957 351.679 L823.845 352.158 L841.732 204.75 L859.619 205.229 L877.507 205.709 L895.394 282.258 L913.281 282.738 L931.168 283.217 L949.056 283.697 L966.943 284.176 L984.83 284.656 L1002.72 285.135 L1020.6 285.615 L1038.49 286.094 L1056.38 286.574 L1074.27 287.053 L1092.15 287.533 L1110.04 288.012 L1127.93 288.492 L1145.82 288.971 L1163.7 289.451 L1181.59 413.655 L1199.48 414.135 L1217.37 414.614 L1235.25 415.094 L1253.14 415.573 L1271.03 239.062 L1288.91 239.542 L1306.8 240.021 L1324.69 240.501 L1342.58 240.98 L1360.46 241.46 L1378.35 241.939 L1396.24 242.419 L1414.13 242.898 L1432.01 243.378 L1449.9 243.857 L1467.79 344.011 L1485.67 344.491 L1503.56 344.97 L1521.45 345.449 L1539.34 345.929 L1557.22 346.408 L1575.11 346.888 L1593 347.367 L1610.89 347.847 L1628.77 348.326 L1646.66 348.806 L1664.55 349.285 L1682.44 349.765 L1700.32 212.301 L1718.21 212.781 L1736.1 213.26 L1753.98 277.731 L1771.87 278.21 L1789.76 278.69 L1807.65 279.169 L1825.53 279.649 L1825.53 279.649 L1807.65 279.649 L1789.76 279.649 L1771.87 279.649 L1753.98 279.649 L1736.1 279.649 L1718.21 279.649 L1700.32 279.649 L1682.44 279.649 L1664.55 279.649 L1646.66 279.649 L1628.77 279.649 L1610.89 279.649 L1593 279.649 L1575.11 279.649 L1557.22 279.649 L1539.34 279.649 L1521.45 279.649 L1503.56 279.649 L1485.67 279.649 L1467.79 279.649 L1449.9 279.649 L1432.01 279.649 L1414.13 279.649 L1396.24 279.649 L1378.35 279.649 L1360.46 279.649 L1342.58 279.649 L1324.69 279.649 L1306.8 279.649 L1288.91 279.649 L1271.03 279.649 L1253.14 279.649 L1235.25 279.649 L1217.37 279.649 L1199.48 279.649 L1181.59 279.649 L1163.7 279.649 L1145.82 279.649 L1127.93 279.649 L1110.04 279.649 L1092.15 279.649 L1074.27 279.649 L1056.38 279.649 L1038.49 279.649 L1020.6 279.649 L1002.72 279.649 L984.83 279.649 L966.943 279.649 L949.056 279.649 L931.168 279.649 L913.281 279.649 L895.394 279.649 L877.507 279.649 L859.619 279.649 L841.732 279.649 L823.845 279.649 L805.957 279.649 L788.07 279.649 L770.183 279.649 L752.295 279.649 L734.408 279.649 L716.521 279.649 L698.633 279.649 L680.746 279.649 L662.859 279.649 L644.972 279.649 L627.084 279.649 L609.197 279.649 L591.31 279.649 L573.422 279.649 L555.535 279.649 L537.648 279.649 L519.76 279.649 L501.873 279.649 L483.986 279.649 L466.099 279.649 L448.211 279.649 L430.324 279.649 L412.437 279.649 L394.549 279.649 L376.662 279.649 L358.775 279.649 L340.887 279.649 L323 279.649 L305.113 279.649 L287.226 279.649 L269.338 279.649 L251.451 279.649  Z" fill="#ff0000" fill-rule="evenodd" fill-opacity="0.5"/>
<polyline clip-path="url(#clip572)" style="stroke:#ff0000; stroke-linecap:round; stroke-linejoin:round; stroke-width:4; stroke-opacity:1; fill:none" points="251.451,279.649 269.338,280.128 287.226,280.608 305.113,281.087 323,387.148 340.887,387.628 358.775,388.107 376.662,388.587 394.549,389.066 412.437,239.947 430.324,240.427 448.211,240.906 466.099,241.386 483.986,241.865 501.873,242.345 519.76,242.824 537.648,243.304 555.535,243.783 573.422,244.263 591.31,244.742 609.197,346.404 627.084,346.884 644.972,347.363 662.859,347.843 680.746,348.322 698.633,348.802 716.521,349.281 734.408,349.761 752.295,350.24 770.183,350.72 788.07,351.199 805.957,351.679 823.845,352.158 841.732,204.75 859.619,205.229 877.507,205.709 895.394,282.258 913.281,282.738 931.168,283.217 949.056,283.697 966.943,284.176 984.83,284.656 1002.72,285.135 1020.6,285.615 1038.49,286.094 1056.38,286.574 1074.27,287.053 1092.15,287.533 1110.04,288.012 1127.93,288.492 1145.82,288.971 1163.7,289.451 1181.59,413.655 1199.48,414.135 1217.37,414.614 1235.25,415.094 1253.14,415.573 1271.03,239.062 1288.91,239.542 1306.8,240.021 1324.69,240.501 1342.58,240.98 1360.46,241.46 1378.35,241.939 1396.24,242.419 1414.13,242.898 1432.01,243.378 1449.9,243.857 1467.79,344.011 1485.67,344.491 1503.56,344.97 1521.45,345.449 1539.34,345.929 1557.22,346.408 1575.11,346.888 1593,347.367 1610.89,347.847 1628.77,348.326 1646.66,348.806 1664.55,349.285 1682.44,349.765 1700.32,212.301 1718.21,212.781 1736.1,213.26 1753.98,277.731 1771.87,278.21 1789.76,278.69 1807.65,279.169 1825.53,279.649 "/>
<path clip-path="url(#clip570)" d="M914.163 648.176 L1162.82 648.176 L1162.82 492.656 L914.163 492.656  Z" fill="#ffffff" fill-rule="evenodd" fill-opacity="1"/>
<polyline clip-path="url(#clip570)" style="stroke:#000000; stroke-linecap:round; stroke-linejoin:round; stroke-width:4; stroke-opacity:1; fill:none" points="914.163,648.176 1162.82,648.176 1162.82,492.656 914.163,492.656 914.163,648.176 "/>
<path clip-path="url(#clip570)" d="M932.702 565.232 L1043.94 565.232 L1043.94 523.76 L932.702 523.76 L932.702 565.232  Z" fill="#0000ff" fill-rule="evenodd" fill-opacity="0.5"/>
<polyline clip-path="url(#clip570)" style="stroke:#0000ff; stroke-linecap:round; stroke-linejoin:round; stroke-width:4; stroke-opacity:1; fill:none" points="932.702,523.76 1043.94,523.76 "/>
<path clip-path="url(#clip570)" d="M1079.26 532.054 L1079.26 544.947 L1092.15 544.947 L1092.15 548.882 L1079.26 548.882 L1079.26 561.776 L1075.37 561.776 L1075.37 548.882 L1062.48 548.882 L1062.48 544.947 L1075.37 544.947 L1075.37 532.054 L1079.26 532.054 Z" fill="#000000" fill-rule="nonzero" fill-opacity="1" /><path clip-path="url(#clip570)" d="M1125.81 561.776 L1112.62 527.216 L1117.5 527.216 L1128.45 556.313 L1139.42 527.216 L1144.28 527.216 L1131.11 561.776 L1125.81 561.776 Z" fill="#000000" fill-rule="nonzero" fill-opacity="1" /><path clip-path="url(#clip570)" d="M932.702 617.072 L1043.94 617.072 L1043.94 575.6 L932.702 575.6 L932.702 617.072  Z" fill="#ff0000" fill-rule="evenodd" fill-opacity="0.5"/>
<polyline clip-path="url(#clip570)" style="stroke:#ff0000; stroke-linecap:round; stroke-linejoin:round; stroke-width:4; stroke-opacity:1; fill:none" points="932.702,575.6 1043.94,575.6 "/>
<path clip-path="url(#clip570)" d="M1062.48 598.732 L1074.95 598.732 L1074.95 602.528 L1062.48 602.528 L1062.48 598.732 Z" fill="#000000" fill-rule="nonzero" fill-opacity="1" /><path clip-path="url(#clip570)" d="M1105.9 613.616 L1092.71 579.056 L1097.59 579.056 L1108.54 608.153 L1119.51 579.056 L1124.37 579.056 L1111.2 613.616 L1105.9 613.616 Z" fill="#000000" fill-rule="nonzero" fill-opacity="1" /><path clip-path="url(#clip570)" d="M204.229 1191.73 L1872.76 1191.73 L1872.76 903.568 L204.229 903.568  Z" fill="#ffffff" fill-rule="evenodd" fill-opacity="1"/>
<defs>
  <clipPath id="clip573">
    <rect x="204" y="903" width="1670" height="289"/>
  </clipPath>
</defs>
<polyline clip-path="url(#clip573)" style="stroke:#000000; stroke-linecap:round; stroke-linejoin:round; stroke-width:2; stroke-opacity:0.1; fill:none" points="251.451,1191.73 251.451,903.568 "/>
<polyline clip-path="url(#clip573)" style="stroke:#000000; stroke-linecap:round; stroke-linejoin:round; stroke-width:2; stroke-opacity:0.1; fill:none" points="609.197,1191.73 609.197,903.568 "/>
<polyline clip-path="url(#clip573)" style="stroke:#000000; stroke-linecap:round; stroke-linejoin:round; stroke-width:2; stroke-opacity:0.1; fill:none" points="966.943,1191.73 966.943,903.568 "/>
<polyline clip-path="url(#clip573)" style="stroke:#000000; stroke-linecap:round; stroke-linejoin:round; stroke-width:2; stroke-opacity:0.1; fill:none" points="1324.69,1191.73 1324.69,903.568 "/>
<polyline clip-path="url(#clip573)" style="stroke:#000000; stroke-linecap:round; stroke-linejoin:round; stroke-width:2; stroke-opacity:0.1; fill:none" points="1682.44,1191.73 1682.44,903.568 "/>
<polyline clip-path="url(#clip573)" style="stroke:#000000; stroke-linecap:round; stroke-linejoin:round; stroke-width:2; stroke-opacity:0.1; fill:none" points="204.229,1164.56 1872.76,1164.56 "/>
<polyline clip-path="url(#clip573)" style="stroke:#000000; stroke-linecap:round; stroke-linejoin:round; stroke-width:2; stroke-opacity:0.1; fill:none" points="204.229,1106.63 1872.76,1106.63 "/>
<polyline clip-path="url(#clip573)" style="stroke:#000000; stroke-linecap:round; stroke-linejoin:round; stroke-width:2; stroke-opacity:0.1; fill:none" points="204.229,1048.7 1872.76,1048.7 "/>
<polyline clip-path="url(#clip573)" style="stroke:#000000; stroke-linecap:round; stroke-linejoin:round; stroke-width:2; stroke-opacity:0.1; fill:none" points="204.229,990.766 1872.76,990.766 "/>
<polyline clip-path="url(#clip573)" style="stroke:#000000; stroke-linecap:round; stroke-linejoin:round; stroke-width:2; stroke-opacity:0.1; fill:none" points="204.229,932.834 1872.76,932.834 "/>
<polyline clip-path="url(#clip570)" style="stroke:#000000; stroke-linecap:round; stroke-linejoin:round; stroke-width:4; stroke-opacity:1; fill:none" points="204.229,1191.73 1872.76,1191.73 "/>
<polyline clip-path="url(#clip570)" style="stroke:#000000; stroke-linecap:round; stroke-linejoin:round; stroke-width:4; stroke-opacity:1; fill:none" points="251.451,1191.73 251.451,1181.11 "/>
<polyline clip-path="url(#clip570)" style="stroke:#000000; stroke-linecap:round; stroke-linejoin:round; stroke-width:4; stroke-opacity:1; fill:none" points="609.197,1191.73 609.197,1181.11 "/>
<polyline clip-path="url(#clip570)" style="stroke:#000000; stroke-linecap:round; stroke-linejoin:round; stroke-width:4; stroke-opacity:1; fill:none" points="966.943,1191.73 966.943,1181.11 "/>
<polyline clip-path="url(#clip570)" style="stroke:#000000; stroke-linecap:round; stroke-linejoin:round; stroke-width:4; stroke-opacity:1; fill:none" points="1324.69,1191.73 1324.69,1181.11 "/>
<polyline clip-path="url(#clip570)" style="stroke:#000000; stroke-linecap:round; stroke-linejoin:round; stroke-width:4; stroke-opacity:1; fill:none" points="1682.44,1191.73 1682.44,1181.11 "/>
<path clip-path="url(#clip570)" d="M251.451 1218.81 Q247.84 1218.81 246.011 1222.37 Q244.206 1225.91 244.206 1233.04 Q244.206 1240.15 246.011 1243.71 Q247.84 1247.26 251.451 1247.26 Q255.085 1247.26 256.891 1243.71 Q258.719 1240.15 258.719 1233.04 Q258.719 1225.91 256.891 1222.37 Q255.085 1218.81 251.451 1218.81 M251.451 1215.1 Q257.261 1215.1 260.317 1219.71 Q263.395 1224.29 263.395 1233.04 Q263.395 1241.77 260.317 1246.38 Q257.261 1250.96 251.451 1250.96 Q245.641 1250.96 242.562 1246.38 Q239.507 1241.77 239.507 1233.04 Q239.507 1224.29 242.562 1219.71 Q245.641 1215.1 251.451 1215.1 Z" fill="#000000" fill-rule="nonzero" fill-opacity="1" /><path clip-path="url(#clip570)" d="M583.885 1246.35 L591.523 1246.35 L591.523 1219.99 L583.213 1221.65 L583.213 1217.4 L591.477 1215.73 L596.153 1215.73 L596.153 1246.35 L603.792 1246.35 L603.792 1250.29 L583.885 1250.29 L583.885 1246.35 Z" fill="#000000" fill-rule="nonzero" fill-opacity="1" /><path clip-path="url(#clip570)" d="M623.236 1218.81 Q619.625 1218.81 617.796 1222.37 Q615.991 1225.91 615.991 1233.04 Q615.991 1240.15 617.796 1243.71 Q619.625 1247.26 623.236 1247.26 Q626.871 1247.26 628.676 1243.71 Q630.505 1240.15 630.505 1233.04 Q630.505 1225.91 628.676 1222.37 Q626.871 1218.81 623.236 1218.81 M623.236 1215.1 Q629.046 1215.1 632.102 1219.71 Q635.181 1224.29 635.181 1233.04 Q635.181 1241.77 632.102 1246.38 Q629.046 1250.96 623.236 1250.96 Q617.426 1250.96 614.347 1246.38 Q611.292 1241.77 611.292 1233.04 Q611.292 1224.29 614.347 1219.71 Q617.426 1215.1 623.236 1215.1 Z" fill="#000000" fill-rule="nonzero" fill-opacity="1" /><path clip-path="url(#clip570)" d="M945.716 1246.35 L962.036 1246.35 L962.036 1250.29 L940.091 1250.29 L940.091 1246.35 Q942.753 1243.6 947.337 1238.97 Q951.943 1234.32 953.124 1232.97 Q955.369 1230.45 956.249 1228.71 Q957.151 1226.96 957.151 1225.27 Q957.151 1222.51 955.207 1220.78 Q953.286 1219.04 950.184 1219.04 Q947.985 1219.04 945.531 1219.8 Q943.101 1220.57 940.323 1222.12 L940.323 1217.4 Q943.147 1216.26 945.601 1215.68 Q948.054 1215.1 950.091 1215.1 Q955.462 1215.1 958.656 1217.79 Q961.85 1220.47 961.85 1224.97 Q961.85 1227.09 961.04 1229.02 Q960.253 1230.91 958.147 1233.51 Q957.568 1234.18 954.466 1237.4 Q951.364 1240.59 945.716 1246.35 Z" fill="#000000" fill-rule="nonzero" fill-opacity="1" /><path clip-path="url(#clip570)" d="M981.85 1218.81 Q978.239 1218.81 976.411 1222.37 Q974.605 1225.91 974.605 1233.04 Q974.605 1240.15 976.411 1243.71 Q978.239 1247.26 981.85 1247.26 Q985.485 1247.26 987.29 1243.71 Q989.119 1240.15 989.119 1233.04 Q989.119 1225.91 987.29 1222.37 Q985.485 1218.81 981.85 1218.81 M981.85 1215.1 Q987.66 1215.1 990.716 1219.71 Q993.795 1224.29 993.795 1233.04 Q993.795 1241.77 990.716 1246.38 Q987.66 1250.96 981.85 1250.96 Q976.04 1250.96 972.961 1246.38 Q969.906 1241.77 969.906 1233.04 Q969.906 1224.29 972.961 1219.71 Q976.04 1215.1 981.85 1215.1 Z" fill="#000000" fill-rule="nonzero" fill-opacity="1" /><path clip-path="url(#clip570)" d="M1313.53 1231.65 Q1316.89 1232.37 1318.76 1234.64 Q1320.66 1236.91 1320.66 1240.24 Q1320.66 1245.36 1317.14 1248.16 Q1313.62 1250.96 1307.14 1250.96 Q1304.97 1250.96 1302.65 1250.52 Q1300.36 1250.1 1297.91 1249.25 L1297.91 1244.73 Q1299.85 1245.87 1302.17 1246.45 Q1304.48 1247.03 1307 1247.03 Q1311.4 1247.03 1313.69 1245.29 Q1316.01 1243.55 1316.01 1240.24 Q1316.01 1237.19 1313.86 1235.47 Q1311.73 1233.74 1307.91 1233.74 L1303.88 1233.74 L1303.88 1229.9 L1308.09 1229.9 Q1311.54 1229.9 1313.37 1228.53 Q1315.2 1227.14 1315.2 1224.55 Q1315.2 1221.89 1313.3 1220.47 Q1311.43 1219.04 1307.91 1219.04 Q1305.99 1219.04 1303.79 1219.46 Q1301.59 1219.87 1298.95 1220.75 L1298.95 1216.59 Q1301.61 1215.84 1303.93 1215.47 Q1306.26 1215.1 1308.32 1215.1 Q1313.65 1215.1 1316.75 1217.53 Q1319.85 1219.94 1319.85 1224.06 Q1319.85 1226.93 1318.21 1228.92 Q1316.56 1230.89 1313.53 1231.65 Z" fill="#000000" fill-rule="nonzero" fill-opacity="1" /><path clip-path="url(#clip570)" d="M1339.53 1218.81 Q1335.92 1218.81 1334.09 1222.37 Q1332.28 1225.91 1332.28 1233.04 Q1332.28 1240.15 1334.09 1243.71 Q1335.92 1247.26 1339.53 1247.26 Q1343.16 1247.26 1344.97 1243.71 Q1346.8 1240.15 1346.8 1233.04 Q1346.8 1225.91 1344.97 1222.37 Q1343.16 1218.81 1339.53 1218.81 M1339.53 1215.1 Q1345.34 1215.1 1348.39 1219.71 Q1351.47 1224.29 1351.47 1233.04 Q1351.47 1241.77 1348.39 1246.38 Q1345.34 1250.96 1339.53 1250.96 Q1333.72 1250.96 1330.64 1246.38 Q1327.58 1241.77 1327.58 1233.04 Q1327.58 1224.29 1330.64 1219.71 Q1333.72 1215.1 1339.53 1215.1 Z" fill="#000000" fill-rule="nonzero" fill-opacity="1" /><path clip-path="url(#clip570)" d="M1670.61 1219.8 L1658.8 1238.25 L1670.61 1238.25 L1670.61 1219.8 M1669.38 1215.73 L1675.26 1215.73 L1675.26 1238.25 L1680.19 1238.25 L1680.19 1242.14 L1675.26 1242.14 L1675.26 1250.29 L1670.61 1250.29 L1670.61 1242.14 L1655 1242.14 L1655 1237.63 L1669.38 1215.73 Z" fill="#000000" fill-rule="nonzero" fill-opacity="1" /><path clip-path="url(#clip570)" d="M1697.92 1218.81 Q1694.31 1218.81 1692.48 1222.37 Q1690.68 1225.91 1690.68 1233.04 Q1690.68 1240.15 1692.48 1243.71 Q1694.31 1247.26 1697.92 1247.26 Q1701.56 1247.26 1703.36 1243.71 Q1705.19 1240.15 1705.19 1233.04 Q1705.19 1225.91 1703.36 1222.37 Q1701.56 1218.81 1697.92 1218.81 M1697.92 1215.1 Q1703.73 1215.1 1706.79 1219.71 Q1709.87 1224.29 1709.87 1233.04 Q1709.87 1241.77 1706.79 1246.38 Q1703.73 1250.96 1697.92 1250.96 Q1692.11 1250.96 1689.03 1246.38 Q1685.98 1241.77 1685.98 1233.04 Q1685.98 1224.29 1689.03 1219.71 Q1692.11 1215.1 1697.92 1215.1 Z" fill="#000000" fill-rule="nonzero" fill-opacity="1" /><polyline clip-path="url(#clip570)" style="stroke:#000000; stroke-linecap:round; stroke-linejoin:round; stroke-width:4; stroke-opacity:1; fill:none" points="204.229,1191.73 204.229,903.568 "/>
<polyline clip-path="url(#clip570)" style="stroke:#000000; stroke-linecap:round; stroke-linejoin:round; stroke-width:4; stroke-opacity:1; fill:none" points="204.229,1164.56 223.126,1164.56 "/>
<polyline clip-path="url(#clip570)" style="stroke:#000000; stroke-linecap:round; stroke-linejoin:round; stroke-width:4; stroke-opacity:1; fill:none" points="204.229,1106.63 223.126,1106.63 "/>
<polyline clip-path="url(#clip570)" style="stroke:#000000; stroke-linecap:round; stroke-linejoin:round; stroke-width:4; stroke-opacity:1; fill:none" points="204.229,1048.7 223.126,1048.7 "/>
<polyline clip-path="url(#clip570)" style="stroke:#000000; stroke-linecap:round; stroke-linejoin:round; stroke-width:4; stroke-opacity:1; fill:none" points="204.229,990.766 223.126,990.766 "/>
<polyline clip-path="url(#clip570)" style="stroke:#000000; stroke-linecap:round; stroke-linejoin:round; stroke-width:4; stroke-opacity:1; fill:none" points="204.229,932.834 223.126,932.834 "/>
<path clip-path="url(#clip570)" d="M53.3921 1165.01 L83.0679 1165.01 L83.0679 1168.95 L53.3921 1168.95 L53.3921 1165.01 Z" fill="#000000" fill-rule="nonzero" fill-opacity="1" /><path clip-path="url(#clip570)" d="M106.008 1151.35 L94.2021 1169.8 L106.008 1169.8 L106.008 1151.35 M104.781 1147.28 L110.66 1147.28 L110.66 1169.8 L115.591 1169.8 L115.591 1173.69 L110.66 1173.69 L110.66 1181.84 L106.008 1181.84 L106.008 1173.69 L90.4058 1173.69 L90.4058 1169.18 L104.781 1147.28 Z" fill="#000000" fill-rule="nonzero" fill-opacity="1" /><path clip-path="url(#clip570)" d="M133.322 1150.36 Q129.711 1150.36 127.882 1153.92 Q126.077 1157.47 126.077 1164.6 Q126.077 1171.7 127.882 1175.27 Q129.711 1178.81 133.322 1178.81 Q136.956 1178.81 138.762 1175.27 Q140.591 1171.7 140.591 1164.6 Q140.591 1157.47 138.762 1153.92 Q136.956 1150.36 133.322 1150.36 M133.322 1146.66 Q139.132 1146.66 142.188 1151.26 Q145.267 1155.85 145.267 1164.6 Q145.267 1173.32 142.188 1177.93 Q139.132 1182.51 133.322 1182.51 Q127.512 1182.51 124.433 1177.93 Q121.378 1173.32 121.378 1164.6 Q121.378 1155.85 124.433 1151.26 Q127.512 1146.66 133.322 1146.66 Z" fill="#000000" fill-rule="nonzero" fill-opacity="1" /><path clip-path="url(#clip570)" d="M163.484 1150.36 Q159.873 1150.36 158.044 1153.92 Q156.239 1157.47 156.239 1164.6 Q156.239 1171.7 158.044 1175.27 Q159.873 1178.81 163.484 1178.81 Q167.118 1178.81 168.924 1175.27 Q170.753 1171.7 170.753 1164.6 Q170.753 1157.47 168.924 1153.92 Q167.118 1150.36 163.484 1150.36 M163.484 1146.66 Q169.294 1146.66 172.35 1151.26 Q175.429 1155.85 175.429 1164.6 Q175.429 1173.32 172.35 1177.93 Q169.294 1182.51 163.484 1182.51 Q157.674 1182.51 154.595 1177.93 Q151.54 1173.32 151.54 1164.6 Q151.54 1155.85 154.595 1151.26 Q157.674 1146.66 163.484 1146.66 Z" fill="#000000" fill-rule="nonzero" fill-opacity="1" /><path clip-path="url(#clip570)" d="M53.3921 1107.08 L83.0679 1107.08 L83.0679 1111.02 L53.3921 1111.02 L53.3921 1107.08 Z" fill="#000000" fill-rule="nonzero" fill-opacity="1" /><path clip-path="url(#clip570)" d="M97.1882 1119.97 L113.508 1119.97 L113.508 1123.91 L91.5632 1123.91 L91.5632 1119.97 Q94.2252 1117.22 98.8085 1112.59 Q103.415 1107.94 104.596 1106.59 Q106.841 1104.07 107.721 1102.34 Q108.623 1100.58 108.623 1098.89 Q108.623 1096.13 106.679 1094.4 Q104.758 1092.66 101.656 1092.66 Q99.4567 1092.66 97.003 1093.42 Q94.5725 1094.19 91.7947 1095.74 L91.7947 1091.02 Q94.6188 1089.88 97.0724 1089.3 Q99.5261 1088.72 101.563 1088.72 Q106.934 1088.72 110.128 1091.41 Q113.322 1094.09 113.322 1098.59 Q113.322 1100.71 112.512 1102.64 Q111.725 1104.53 109.619 1107.13 Q109.04 1107.8 105.938 1111.02 Q102.836 1114.21 97.1882 1119.97 Z" fill="#000000" fill-rule="nonzero" fill-opacity="1" /><path clip-path="url(#clip570)" d="M133.322 1092.43 Q129.711 1092.43 127.882 1095.99 Q126.077 1099.53 126.077 1106.66 Q126.077 1113.77 127.882 1117.34 Q129.711 1120.88 133.322 1120.88 Q136.956 1120.88 138.762 1117.34 Q140.591 1113.77 140.591 1106.66 Q140.591 1099.53 138.762 1095.99 Q136.956 1092.43 133.322 1092.43 M133.322 1088.72 Q139.132 1088.72 142.188 1093.33 Q145.267 1097.91 145.267 1106.66 Q145.267 1115.39 142.188 1120 Q139.132 1124.58 133.322 1124.58 Q127.512 1124.58 124.433 1120 Q121.378 1115.39 121.378 1106.66 Q121.378 1097.91 124.433 1093.33 Q127.512 1088.72 133.322 1088.72 Z" fill="#000000" fill-rule="nonzero" fill-opacity="1" /><path clip-path="url(#clip570)" d="M163.484 1092.43 Q159.873 1092.43 158.044 1095.99 Q156.239 1099.53 156.239 1106.66 Q156.239 1113.77 158.044 1117.34 Q159.873 1120.88 163.484 1120.88 Q167.118 1120.88 168.924 1117.34 Q170.753 1113.77 170.753 1106.66 Q170.753 1099.53 168.924 1095.99 Q167.118 1092.43 163.484 1092.43 M163.484 1088.72 Q169.294 1088.72 172.35 1093.33 Q175.429 1097.91 175.429 1106.66 Q175.429 1115.39 172.35 1120 Q169.294 1124.58 163.484 1124.58 Q157.674 1124.58 154.595 1120 Q151.54 1115.39 151.54 1106.66 Q151.54 1097.91 154.595 1093.33 Q157.674 1088.72 163.484 1088.72 Z" fill="#000000" fill-rule="nonzero" fill-opacity="1" /><path clip-path="url(#clip570)" d="M163.484 1034.5 Q159.873 1034.5 158.044 1038.06 Q156.239 1041.6 156.239 1048.73 Q156.239 1055.84 158.044 1059.4 Q159.873 1062.94 163.484 1062.94 Q167.118 1062.94 168.924 1059.4 Q170.753 1055.84 170.753 1048.73 Q170.753 1041.6 168.924 1038.06 Q167.118 1034.5 163.484 1034.5 M163.484 1030.79 Q169.294 1030.79 172.35 1035.4 Q175.429 1039.98 175.429 1048.73 Q175.429 1057.46 172.35 1062.07 Q169.294 1066.65 163.484 1066.65 Q157.674 1066.65 154.595 1062.07 Q151.54 1057.46 151.54 1048.73 Q151.54 1039.98 154.595 1035.4 Q157.674 1030.79 163.484 1030.79 Z" fill="#000000" fill-rule="nonzero" fill-opacity="1" /><path clip-path="url(#clip570)" d="M97.1882 1004.11 L113.508 1004.11 L113.508 1008.05 L91.5632 1008.05 L91.5632 1004.11 Q94.2252 1001.36 98.8085 996.726 Q103.415 992.073 104.596 990.731 Q106.841 988.208 107.721 986.472 Q108.623 984.712 108.623 983.023 Q108.623 980.268 106.679 978.532 Q104.758 976.796 101.656 976.796 Q99.4567 976.796 97.003 977.56 Q94.5725 978.324 91.7947 979.874 L91.7947 975.152 Q94.6188 974.018 97.0724 973.439 Q99.5261 972.861 101.563 972.861 Q106.934 972.861 110.128 975.546 Q113.322 978.231 113.322 982.722 Q113.322 984.851 112.512 986.773 Q111.725 988.671 109.619 991.263 Q109.04 991.935 105.938 995.152 Q102.836 998.347 97.1882 1004.11 Z" fill="#000000" fill-rule="nonzero" fill-opacity="1" /><path clip-path="url(#clip570)" d="M133.322 976.564 Q129.711 976.564 127.882 980.129 Q126.077 983.671 126.077 990.8 Q126.077 997.907 127.882 1001.47 Q129.711 1005.01 133.322 1005.01 Q136.956 1005.01 138.762 1001.47 Q140.591 997.907 140.591 990.8 Q140.591 983.671 138.762 980.129 Q136.956 976.564 133.322 976.564 M133.322 972.861 Q139.132 972.861 142.188 977.467 Q145.267 982.05 145.267 990.8 Q145.267 999.527 142.188 1004.13 Q139.132 1008.72 133.322 1008.72 Q127.512 1008.72 124.433 1004.13 Q121.378 999.527 121.378 990.8 Q121.378 982.05 124.433 977.467 Q127.512 972.861 133.322 972.861 Z" fill="#000000" fill-rule="nonzero" fill-opacity="1" /><path clip-path="url(#clip570)" d="M163.484 976.564 Q159.873 976.564 158.044 980.129 Q156.239 983.671 156.239 990.8 Q156.239 997.907 158.044 1001.47 Q159.873 1005.01 163.484 1005.01 Q167.118 1005.01 168.924 1001.47 Q170.753 997.907 170.753 990.8 Q170.753 983.671 168.924 980.129 Q167.118 976.564 163.484 976.564 M163.484 972.861 Q169.294 972.861 172.35 977.467 Q175.429 982.05 175.429 990.8 Q175.429 999.527 172.35 1004.13 Q169.294 1008.72 163.484 1008.72 Q157.674 1008.72 154.595 1004.13 Q151.54 999.527 151.54 990.8 Q151.54 982.05 154.595 977.467 Q157.674 972.861 163.484 972.861 Z" fill="#000000" fill-rule="nonzero" fill-opacity="1" /><path clip-path="url(#clip570)" d="M106.008 919.628 L94.2021 938.077 L106.008 938.077 L106.008 919.628 M104.781 915.554 L110.66 915.554 L110.66 938.077 L115.591 938.077 L115.591 941.966 L110.66 941.966 L110.66 950.114 L106.008 950.114 L106.008 941.966 L90.4058 941.966 L90.4058 937.452 L104.781 915.554 Z" fill="#000000" fill-rule="nonzero" fill-opacity="1" /><path clip-path="url(#clip570)" d="M133.322 918.633 Q129.711 918.633 127.882 922.197 Q126.077 925.739 126.077 932.869 Q126.077 939.975 127.882 943.54 Q129.711 947.081 133.322 947.081 Q136.956 947.081 138.762 943.54 Q140.591 939.975 140.591 932.869 Q140.591 925.739 138.762 922.197 Q136.956 918.633 133.322 918.633 M133.322 914.929 Q139.132 914.929 142.188 919.535 Q145.267 924.119 145.267 932.869 Q145.267 941.595 142.188 946.202 Q139.132 950.785 133.322 950.785 Q127.512 950.785 124.433 946.202 Q121.378 941.595 121.378 932.869 Q121.378 924.119 124.433 919.535 Q127.512 914.929 133.322 914.929 Z" fill="#000000" fill-rule="nonzero" fill-opacity="1" /><path clip-path="url(#clip570)" d="M163.484 918.633 Q159.873 918.633 158.044 922.197 Q156.239 925.739 156.239 932.869 Q156.239 939.975 158.044 943.54 Q159.873 947.081 163.484 947.081 Q167.118 947.081 168.924 943.54 Q170.753 939.975 170.753 932.869 Q170.753 925.739 168.924 922.197 Q167.118 918.633 163.484 918.633 M163.484 914.929 Q169.294 914.929 172.35 919.535 Q175.429 924.119 175.429 932.869 Q175.429 941.595 172.35 946.202 Q169.294 950.785 163.484 950.785 Q157.674 950.785 154.595 946.202 Q151.54 941.595 151.54 932.869 Q151.54 924.119 154.595 919.535 Q157.674 914.929 163.484 914.929 Z" fill="#000000" fill-rule="nonzero" fill-opacity="1" /><path clip-path="url(#clip570)" d="M446.21 780.096 L458.403 780.096 L473.837 821.253 L489.352 780.096 L501.545 780.096 L501.545 840.576 L493.565 840.576 L493.565 787.469 L477.969 828.95 L469.745 828.95 L454.149 787.469 L454.149 840.576 L446.21 840.576 L446.21 780.096 Z" fill="#000000" fill-rule="nonzero" fill-opacity="1" /><path clip-path="url(#clip570)" d="M538.084 817.769 Q529.05 817.769 525.567 819.835 Q522.083 821.901 522.083 826.884 Q522.083 830.854 524.676 833.203 Q527.309 835.512 531.805 835.512 Q538.003 835.512 541.73 831.137 Q545.497 826.722 545.497 819.43 L545.497 817.769 L538.084 817.769 M552.951 814.691 L552.951 840.576 L545.497 840.576 L545.497 833.689 Q542.945 837.821 539.137 839.806 Q535.329 841.751 529.82 841.751 Q522.853 841.751 518.721 837.862 Q514.629 833.933 514.629 827.37 Q514.629 819.714 519.733 815.825 Q524.878 811.936 535.046 811.936 L545.497 811.936 L545.497 811.207 Q545.497 806.062 542.094 803.267 Q538.732 800.432 532.615 800.432 Q528.726 800.432 525.04 801.363 Q521.354 802.295 517.951 804.158 L517.951 797.272 Q522.042 795.692 525.891 794.922 Q529.739 794.112 533.385 794.112 Q543.229 794.112 548.09 799.216 Q552.951 804.32 552.951 814.691 Z" fill="#000000" fill-rule="nonzero" fill-opacity="1" /><path clip-path="url(#clip570)" d="M606.018 795.206 L589.612 817.283 L606.868 840.576 L598.078 840.576 L584.872 822.752 L571.666 840.576 L562.876 840.576 L580.497 816.838 L564.374 795.206 L573.165 795.206 L585.196 811.369 L597.227 795.206 L606.018 795.206 Z" fill="#000000" fill-rule="nonzero" fill-opacity="1" /><path clip-path="url(#clip570)" d="M644.096 780.096 L656.289 780.096 L671.723 821.253 L687.238 780.096 L699.432 780.096 L699.432 840.576 L691.451 840.576 L691.451 787.469 L675.855 828.95 L667.632 828.95 L652.036 787.469 L652.036 840.576 L644.096 840.576 L644.096 780.096 Z" fill="#000000" fill-rule="nonzero" fill-opacity="1" /><path clip-path="url(#clip570)" d="M732.933 800.432 Q726.937 800.432 723.453 805.131 Q719.97 809.789 719.97 817.931 Q719.97 826.074 723.413 830.773 Q726.897 835.431 732.933 835.431 Q738.887 835.431 742.371 830.732 Q745.855 826.033 745.855 817.931 Q745.855 809.87 742.371 805.171 Q738.887 800.432 732.933 800.432 M732.933 794.112 Q742.655 794.112 748.204 800.432 Q753.754 806.751 753.754 817.931 Q753.754 829.071 748.204 835.431 Q742.655 841.751 732.933 841.751 Q723.17 841.751 717.62 835.431 Q712.111 829.071 712.111 817.931 Q712.111 806.751 717.62 800.432 Q723.17 794.112 732.933 794.112 Z" fill="#000000" fill-rule="nonzero" fill-opacity="1" /><path clip-path="url(#clip570)" d="M801.433 803.915 Q804.228 798.892 808.117 796.502 Q812.006 794.112 817.272 794.112 Q824.361 794.112 828.21 799.095 Q832.058 804.037 832.058 813.192 L832.058 840.576 L824.564 840.576 L824.564 813.435 Q824.564 806.913 822.255 803.753 Q819.946 800.594 815.206 800.594 Q809.414 800.594 806.051 804.442 Q802.689 808.29 802.689 814.934 L802.689 840.576 L795.195 840.576 L795.195 813.435 Q795.195 806.872 792.886 803.753 Q790.577 800.594 785.756 800.594 Q780.045 800.594 776.682 804.482 Q773.32 808.331 773.32 814.934 L773.32 840.576 L765.826 840.576 L765.826 795.206 L773.32 795.206 L773.32 802.254 Q775.872 798.082 779.437 796.097 Q783.002 794.112 787.903 794.112 Q792.845 794.112 796.289 796.624 Q799.772 799.135 801.433 803.915 Z" fill="#000000" fill-rule="nonzero" fill-opacity="1" /><path clip-path="url(#clip570)" d="M885.733 816.028 L885.733 819.673 L851.462 819.673 Q851.948 827.37 856.08 831.421 Q860.252 835.431 867.666 835.431 Q871.96 835.431 875.97 834.378 Q880.021 833.325 883.991 831.218 L883.991 838.267 Q879.98 839.968 875.767 840.86 Q871.554 841.751 867.22 841.751 Q856.364 841.751 850.004 835.431 Q843.684 829.112 843.684 818.337 Q843.684 807.197 849.68 800.675 Q855.715 794.112 865.924 794.112 Q875.079 794.112 880.385 800.026 Q885.733 805.9 885.733 816.028 M878.279 813.84 Q878.198 807.723 874.836 804.077 Q871.514 800.432 866.005 800.432 Q859.766 800.432 855.999 803.956 Q852.272 807.48 851.705 813.881 L878.279 813.84 Z" fill="#000000" fill-rule="nonzero" fill-opacity="1" /><path clip-path="url(#clip570)" d="M935.68 813.192 L935.68 840.576 L928.227 840.576 L928.227 813.435 Q928.227 806.994 925.715 803.794 Q923.203 800.594 918.18 800.594 Q912.145 800.594 908.661 804.442 Q905.177 808.29 905.177 814.934 L905.177 840.576 L897.683 840.576 L897.683 795.206 L905.177 795.206 L905.177 802.254 Q907.851 798.163 911.456 796.138 Q915.102 794.112 919.841 794.112 Q927.659 794.112 931.67 798.973 Q935.68 803.794 935.68 813.192 Z" fill="#000000" fill-rule="nonzero" fill-opacity="1" /><path clip-path="url(#clip570)" d="M957.92 782.324 L957.92 795.206 L973.273 795.206 L973.273 800.999 L957.92 800.999 L957.92 825.628 Q957.92 831.178 959.419 832.758 Q960.958 834.338 965.616 834.338 L973.273 834.338 L973.273 840.576 L965.616 840.576 Q956.988 840.576 953.707 837.376 Q950.426 834.135 950.426 825.628 L950.426 800.999 L944.957 800.999 L944.957 795.206 L950.426 795.206 L950.426 782.324 L957.92 782.324 Z" fill="#000000" fill-rule="nonzero" fill-opacity="1" /><path clip-path="url(#clip570)" d="M1009.77 780.096 L1048.01 780.096 L1048.01 786.983 L1017.95 786.983 L1017.95 804.888 L1046.76 804.888 L1046.76 811.774 L1017.95 811.774 L1017.95 833.689 L1048.74 833.689 L1048.74 840.576 L1009.77 840.576 L1009.77 780.096 Z" fill="#000000" fill-rule="nonzero" fill-opacity="1" /><path clip-path="url(#clip570)" d="M1099.58 813.192 L1099.58 840.576 L1092.13 840.576 L1092.13 813.435 Q1092.13 806.994 1089.61 803.794 Q1087.1 800.594 1082.08 800.594 Q1076.04 800.594 1072.56 804.442 Q1069.08 808.29 1069.08 814.934 L1069.08 840.576 L1061.58 840.576 L1061.58 795.206 L1069.08 795.206 L1069.08 802.254 Q1071.75 798.163 1075.36 796.138 Q1079 794.112 1083.74 794.112 Q1091.56 794.112 1095.57 798.973 Q1099.58 803.794 1099.58 813.192 Z" fill="#000000" fill-rule="nonzero" fill-opacity="1" /><path clip-path="url(#clip570)" d="M1109.1 795.206 L1117 795.206 L1131.18 833.284 L1145.36 795.206 L1153.25 795.206 L1136.24 840.576 L1126.11 840.576 L1109.1 795.206 Z" fill="#000000" fill-rule="nonzero" fill-opacity="1" /><path clip-path="url(#clip570)" d="M1202.35 816.028 L1202.35 819.673 L1168.08 819.673 Q1168.57 827.37 1172.7 831.421 Q1176.87 835.431 1184.28 835.431 Q1188.58 835.431 1192.59 834.378 Q1196.64 833.325 1200.61 831.218 L1200.61 838.267 Q1196.6 839.968 1192.39 840.86 Q1188.17 841.751 1183.84 841.751 Q1172.98 841.751 1166.62 835.431 Q1160.3 829.112 1160.3 818.337 Q1160.3 807.197 1166.3 800.675 Q1172.33 794.112 1182.54 794.112 Q1191.7 794.112 1197 800.026 Q1202.35 805.9 1202.35 816.028 M1194.9 813.84 Q1194.82 807.723 1191.45 804.077 Q1188.13 800.432 1182.62 800.432 Q1176.38 800.432 1172.62 803.956 Q1168.89 807.48 1168.32 813.881 L1194.9 813.84 Z" fill="#000000" fill-rule="nonzero" fill-opacity="1" /><path clip-path="url(#clip570)" d="M1214.59 777.544 L1222.04 777.544 L1222.04 840.576 L1214.59 840.576 L1214.59 777.544 Z" fill="#000000" fill-rule="nonzero" fill-opacity="1" /><path clip-path="url(#clip570)" d="M1255.22 800.432 Q1249.22 800.432 1245.74 805.131 Q1242.25 809.789 1242.25 817.931 Q1242.25 826.074 1245.7 830.773 Q1249.18 835.431 1255.22 835.431 Q1261.17 835.431 1264.65 830.732 Q1268.14 826.033 1268.14 817.931 Q1268.14 809.87 1264.65 805.171 Q1261.17 800.432 1255.22 800.432 M1255.22 794.112 Q1264.94 794.112 1270.49 800.432 Q1276.04 806.751 1276.04 817.931 Q1276.04 829.071 1270.49 835.431 Q1264.94 841.751 1255.22 841.751 Q1245.45 841.751 1239.9 835.431 Q1234.39 829.071 1234.39 817.931 Q1234.39 806.751 1239.9 800.432 Q1245.45 794.112 1255.22 794.112 Z" fill="#000000" fill-rule="nonzero" fill-opacity="1" /><path clip-path="url(#clip570)" d="M1295.6 833.77 L1295.6 857.833 L1288.11 857.833 L1288.11 795.206 L1295.6 795.206 L1295.6 802.092 Q1297.95 798.042 1301.52 796.097 Q1305.12 794.112 1310.11 794.112 Q1318.37 794.112 1323.51 800.675 Q1328.7 807.237 1328.7 817.931 Q1328.7 828.626 1323.51 835.188 Q1318.37 841.751 1310.11 841.751 Q1305.12 841.751 1301.52 839.806 Q1297.95 837.821 1295.6 833.77 M1320.96 817.931 Q1320.96 809.708 1317.56 805.05 Q1314.2 800.351 1308.28 800.351 Q1302.37 800.351 1298.97 805.05 Q1295.6 809.708 1295.6 817.931 Q1295.6 826.155 1298.97 830.854 Q1302.37 835.512 1308.28 835.512 Q1314.2 835.512 1317.56 830.854 Q1320.96 826.155 1320.96 817.931 Z" fill="#000000" fill-rule="nonzero" fill-opacity="1" /><path clip-path="url(#clip570)" d="M1379.86 816.028 L1379.86 819.673 L1345.59 819.673 Q1346.08 827.37 1350.21 831.421 Q1354.38 835.431 1361.79 835.431 Q1366.09 835.431 1370.1 834.378 Q1374.15 833.325 1378.12 831.218 L1378.12 838.267 Q1374.11 839.968 1369.9 840.86 Q1365.68 841.751 1361.35 841.751 Q1350.49 841.751 1344.13 835.431 Q1337.81 829.112 1337.81 818.337 Q1337.81 807.197 1343.81 800.675 Q1349.84 794.112 1360.05 794.112 Q1369.21 794.112 1374.51 800.026 Q1379.86 805.9 1379.86 816.028 M1372.41 813.84 Q1372.33 807.723 1368.96 804.077 Q1365.64 800.432 1360.13 800.432 Q1353.9 800.432 1350.13 803.956 Q1346.4 807.48 1345.83 813.881 L1372.41 813.84 Z" fill="#000000" fill-rule="nonzero" fill-opacity="1" /><path clip-path="url(#clip570)" d="M1436.37 777.625 Q1430.94 786.942 1428.31 796.057 Q1425.68 805.171 1425.68 814.529 Q1425.68 823.886 1428.31 833.082 Q1430.98 842.237 1436.37 851.513 L1429.89 851.513 Q1423.81 841.994 1420.78 832.798 Q1417.78 823.603 1417.78 814.529 Q1417.78 805.495 1420.78 796.34 Q1423.77 787.185 1429.89 777.625 L1436.37 777.625 Z" fill="#000000" fill-rule="nonzero" fill-opacity="1" /><path clip-path="url(#clip570)" d="M1487.41 782.081 L1487.41 790.061 Q1482.75 787.833 1478.62 786.739 Q1474.49 785.646 1470.64 785.646 Q1463.96 785.646 1460.31 788.238 Q1456.71 790.831 1456.71 795.611 Q1456.71 799.621 1459.1 801.687 Q1461.53 803.713 1468.25 804.969 L1473.19 805.981 Q1482.35 807.723 1486.68 812.139 Q1491.06 816.514 1491.06 823.886 Q1491.06 832.677 1485.14 837.214 Q1479.27 841.751 1467.89 841.751 Q1463.59 841.751 1458.73 840.779 Q1453.91 839.806 1448.73 837.902 L1448.73 829.477 Q1453.71 832.272 1458.49 833.689 Q1463.27 835.107 1467.89 835.107 Q1474.9 835.107 1478.7 832.353 Q1482.51 829.598 1482.51 824.494 Q1482.51 820.038 1479.76 817.526 Q1477.04 815.015 1470.8 813.759 L1465.82 812.787 Q1456.67 810.964 1452.58 807.075 Q1448.48 803.186 1448.48 796.259 Q1448.48 788.238 1454.11 783.62 Q1459.79 779.002 1469.71 779.002 Q1473.96 779.002 1478.38 779.772 Q1482.8 780.542 1487.41 782.081 Z" fill="#000000" fill-rule="nonzero" fill-opacity="1" /><path clip-path="url(#clip570)" d="M1532.5 812.22 Q1535.13 813.111 1537.6 816.028 Q1540.12 818.944 1542.63 824.048 L1550.93 840.576 L1542.14 840.576 L1534.4 825.061 Q1531.41 818.985 1528.57 817 Q1525.78 815.015 1520.91 815.015 L1512 815.015 L1512 840.576 L1503.82 840.576 L1503.82 780.096 L1522.29 780.096 Q1532.66 780.096 1537.77 784.43 Q1542.87 788.765 1542.87 797.515 Q1542.87 803.227 1540.2 806.994 Q1537.56 810.761 1532.5 812.22 M1512 786.821 L1512 808.29 L1522.29 808.29 Q1528.21 808.29 1531.2 805.576 Q1534.24 802.822 1534.24 797.515 Q1534.24 792.208 1531.2 789.535 Q1528.21 786.821 1522.29 786.821 L1512 786.821 Z" fill="#000000" fill-rule="nonzero" fill-opacity="1" /><path clip-path="url(#clip570)" d="M1572.52 840.576 L1549.43 780.096 L1557.98 780.096 L1577.14 831.016 L1596.34 780.096 L1604.85 780.096 L1581.8 840.576 L1572.52 840.576 Z" fill="#000000" fill-rule="nonzero" fill-opacity="1" /><path clip-path="url(#clip570)" d="M1612.18 777.625 L1618.66 777.625 Q1624.74 787.185 1627.74 796.34 Q1630.77 805.495 1630.77 814.529 Q1630.77 823.603 1627.74 832.798 Q1624.74 841.994 1618.66 851.513 L1612.18 851.513 Q1617.57 842.237 1620.2 833.082 Q1622.88 823.886 1622.88 814.529 Q1622.88 805.171 1620.2 796.057 Q1617.57 786.942 1612.18 777.625 Z" fill="#000000" fill-rule="nonzero" fill-opacity="1" /><path clip-path="url(#clip573)" d="M251.451 1048.7 L269.338 1048.77 L287.226 1048.99 L305.113 1049.36 L323 1049.88 L340.887 1070.23 L358.775 1090.74 L376.662 1111.39 L394.549 1132.19 L412.437 1115.29 L430.324 1097.11 L448.211 1078.76 L466.099 1060.35 L483.986 1042.09 L501.873 1023.72 L519.76 1005.2 L537.648 986.527 L555.535 967.817 L573.422 949.191 L591.31 930.397 L609.197 911.724 L627.084 932.199 L644.972 952.789 L662.859 973.389 L680.746 994.069 L698.633 1014.8 L716.521 1035.19 L734.408 1053.68 L752.295 1071.1 L770.183 1084.53 L788.07 1096.8 L805.957 1109.21 L823.845 1121.78 L841.732 1098.66 L859.619 1075.06 L877.507 1038.75 L895.394 1000.36 L913.281 1000.1 L931.168 999.905 L949.056 999.751 L966.943 999.694 L984.83 999.741 L1002.72 999.935 L1020.6 1000.28 L1038.49 1000.41 L1056.38 1000.28 L1074.27 999.931 L1092.15 999.732 L1110.04 999.681 L1127.93 999.754 L1145.82 999.906 L1163.7 1000.1 L1181.59 1000.36 L1199.48 1038.75 L1217.37 1075.07 L1235.25 1098.66 L1253.14 1121.78 L1271.03 1109.22 L1288.91 1096.8 L1306.8 1084.53 L1324.69 1071.09 L1342.58 1053.67 L1360.46 1035.19 L1378.35 1014.8 L1396.24 994.071 L1414.13 973.395 L1432.01 952.789 L1449.9 932.201 L1467.79 911.728 L1485.67 930.404 L1503.56 949.19 L1521.45 967.82 L1539.34 986.534 L1557.22 1005.19 L1575.11 1023.72 L1593 1042.09 L1610.89 1060.35 L1628.77 1078.77 L1646.66 1097.11 L1664.55 1115.29 L1682.44 1132.19 L1700.32 1111.39 L1718.21 1090.74 L1736.1 1070.23 L1753.98 1049.88 L1771.87 1049.36 L1789.76 1048.99 L1807.65 1048.77 L1825.53 1048.7 L1825.53 1048.7 L1807.65 1048.7 L1789.76 1048.7 L1771.87 1048.7 L1753.98 1048.7 L1736.1 1048.7 L1718.21 1048.7 L1700.32 1048.7 L1682.44 1048.7 L1664.55 1048.7 L1646.66 1048.7 L1628.77 1048.7 L1610.89 1048.7 L1593 1048.7 L1575.11 1048.7 L1557.22 1048.7 L1539.34 1048.7 L1521.45 1048.7 L1503.56 1048.7 L1485.67 1048.7 L1467.79 1048.7 L1449.9 1048.7 L1432.01 1048.7 L1414.13 1048.7 L1396.24 1048.7 L1378.35 1048.7 L1360.46 1048.7 L1342.58 1048.7 L1324.69 1048.7 L1306.8 1048.7 L1288.91 1048.7 L1271.03 1048.7 L1253.14 1048.7 L1235.25 1048.7 L1217.37 1048.7 L1199.48 1048.7 L1181.59 1048.7 L1163.7 1048.7 L1145.82 1048.7 L1127.93 1048.7 L1110.04 1048.7 L1092.15 1048.7 L1074.27 1048.7 L1056.38 1048.7 L1038.49 1048.7 L1020.6 1048.7 L1002.72 1048.7 L984.83 1048.7 L966.943 1048.7 L949.056 1048.7 L931.168 1048.7 L913.281 1048.7 L895.394 1048.7 L877.507 1048.7 L859.619 1048.7 L841.732 1048.7 L823.845 1048.7 L805.957 1048.7 L788.07 1048.7 L770.183 1048.7 L752.295 1048.7 L734.408 1048.7 L716.521 1048.7 L698.633 1048.7 L680.746 1048.7 L662.859 1048.7 L644.972 1048.7 L627.084 1048.7 L609.197 1048.7 L591.31 1048.7 L573.422 1048.7 L555.535 1048.7 L537.648 1048.7 L519.76 1048.7 L501.873 1048.7 L483.986 1048.7 L466.099 1048.7 L448.211 1048.7 L430.324 1048.7 L412.437 1048.7 L394.549 1048.7 L376.662 1048.7 L358.775 1048.7 L340.887 1048.7 L323 1048.7 L305.113 1048.7 L287.226 1048.7 L269.338 1048.7 L251.451 1048.7  Z" fill="#0000ff" fill-rule="evenodd" fill-opacity="0.5"/>
<polyline clip-path="url(#clip573)" style="stroke:#0000ff; stroke-linecap:round; stroke-linejoin:round; stroke-width:4; stroke-opacity:1; fill:none" points="251.451,1048.7 269.338,1048.77 287.226,1048.99 305.113,1049.36 323,1049.88 340.887,1070.23 358.775,1090.74 376.662,1111.39 394.549,1132.19 412.437,1115.29 430.324,1097.11 448.211,1078.76 466.099,1060.35 483.986,1042.09 501.873,1023.72 519.76,1005.2 537.648,986.527 555.535,967.817 573.422,949.191 591.31,930.397 609.197,911.724 627.084,932.199 644.972,952.789 662.859,973.389 680.746,994.069 698.633,1014.8 716.521,1035.19 734.408,1053.68 752.295,1071.1 770.183,1084.53 788.07,1096.8 805.957,1109.21 823.845,1121.78 841.732,1098.66 859.619,1075.06 877.507,1038.75 895.394,1000.36 913.281,1000.1 931.168,999.905 949.056,999.751 966.943,999.694 984.83,999.741 1002.72,999.935 1020.6,1000.28 1038.49,1000.41 1056.38,1000.28 1074.27,999.931 1092.15,999.732 1110.04,999.681 1127.93,999.754 1145.82,999.906 1163.7,1000.1 1181.59,1000.36 1199.48,1038.75 1217.37,1075.07 1235.25,1098.66 1253.14,1121.78 1271.03,1109.22 1288.91,1096.8 1306.8,1084.53 1324.69,1071.09 1342.58,1053.67 1360.46,1035.19 1378.35,1014.8 1396.24,994.071 1414.13,973.395 1432.01,952.789 1449.9,932.201 1467.79,911.728 1485.67,930.404 1503.56,949.19 1521.45,967.82 1539.34,986.534 1557.22,1005.19 1575.11,1023.72 1593,1042.09 1610.89,1060.35 1628.77,1078.77 1646.66,1097.11 1664.55,1115.29 1682.44,1132.19 1700.32,1111.39 1718.21,1090.74 1736.1,1070.23 1753.98,1049.88 1771.87,1049.36 1789.76,1048.99 1807.65,1048.77 1825.53,1048.7 "/>
<path clip-path="url(#clip573)" d="M251.451 1048.7 L269.338 1048.77 L287.226 1048.99 L305.113 1049.36 L323 1049.88 L340.887 1083.03 L358.775 1116.33 L376.662 1149.78 L394.549 1183.38 L412.437 1162.58 L430.324 1141.92 L448.211 1121.42 L466.099 1101.06 L483.986 1082.55 L501.873 1064.53 L519.76 1049.25 L537.648 1037.99 L555.535 1026.88 L573.422 1015.92 L591.31 1005.1 L609.197 994.435 L627.084 1006.63 L644.972 1018.98 L662.859 1031.51 L680.746 1044.31 L698.633 1057.31 L716.521 1070.58 L734.408 1084 L752.295 1100.48 L770.183 1119.74 L788.07 1140.6 L805.957 1161.91 L823.845 1183.55 L841.732 1141.86 L859.619 1105.92 L877.507 1076.65 L895.394 1049.02 L913.281 1046.73 L931.168 1044.6 L949.056 1043.01 L966.943 1042.35 L984.83 1041.83 L1002.72 1041.46 L1020.6 1041.24 L1038.49 1041.17 L1056.38 1041.24 L1074.27 1041.46 L1092.15 1041.83 L1110.04 1042.35 L1127.93 1043.01 L1145.82 1044.6 L1163.7 1046.73 L1181.59 1049.02 L1199.48 1076.65 L1217.37 1105.92 L1235.25 1141.86 L1253.14 1183.55 L1271.03 1161.91 L1288.91 1140.6 L1306.8 1119.74 L1324.69 1100.48 L1342.58 1084.01 L1360.46 1070.58 L1378.35 1057.31 L1396.24 1044.31 L1414.13 1031.51 L1432.01 1018.97 L1449.9 1006.63 L1467.79 994.43 L1485.67 1005.1 L1503.56 1015.91 L1521.45 1026.88 L1539.34 1037.99 L1557.22 1049.39 L1575.11 1066.9 L1593 1084.55 L1610.89 1103.01 L1628.77 1122.93 L1646.66 1143 L1664.55 1163.21 L1682.44 1183.57 L1700.32 1149.93 L1718.21 1116.43 L1736.1 1083.08 L1753.98 1049.88 L1771.87 1049.36 L1789.76 1048.99 L1807.65 1048.77 L1825.53 1048.7 L1825.53 1048.7 L1807.65 1048.7 L1789.76 1048.7 L1771.87 1048.7 L1753.98 1048.7 L1736.1 1048.7 L1718.21 1048.7 L1700.32 1048.7 L1682.44 1048.7 L1664.55 1048.7 L1646.66 1048.7 L1628.77 1048.7 L1610.89 1048.7 L1593 1048.7 L1575.11 1048.7 L1557.22 1048.7 L1539.34 1048.7 L1521.45 1048.7 L1503.56 1048.7 L1485.67 1048.7 L1467.79 1048.7 L1449.9 1048.7 L1432.01 1048.7 L1414.13 1048.7 L1396.24 1048.7 L1378.35 1048.7 L1360.46 1048.7 L1342.58 1048.7 L1324.69 1048.7 L1306.8 1048.7 L1288.91 1048.7 L1271.03 1048.7 L1253.14 1048.7 L1235.25 1048.7 L1217.37 1048.7 L1199.48 1048.7 L1181.59 1048.7 L1163.7 1048.7 L1145.82 1048.7 L1127.93 1048.7 L1110.04 1048.7 L1092.15 1048.7 L1074.27 1048.7 L1056.38 1048.7 L1038.49 1048.7 L1020.6 1048.7 L1002.72 1048.7 L984.83 1048.7 L966.943 1048.7 L949.056 1048.7 L931.168 1048.7 L913.281 1048.7 L895.394 1048.7 L877.507 1048.7 L859.619 1048.7 L841.732 1048.7 L823.845 1048.7 L805.957 1048.7 L788.07 1048.7 L770.183 1048.7 L752.295 1048.7 L734.408 1048.7 L716.521 1048.7 L698.633 1048.7 L680.746 1048.7 L662.859 1048.7 L644.972 1048.7 L627.084 1048.7 L609.197 1048.7 L591.31 1048.7 L573.422 1048.7 L555.535 1048.7 L537.648 1048.7 L519.76 1048.7 L501.873 1048.7 L483.986 1048.7 L466.099 1048.7 L448.211 1048.7 L430.324 1048.7 L412.437 1048.7 L394.549 1048.7 L376.662 1048.7 L358.775 1048.7 L340.887 1048.7 L323 1048.7 L305.113 1048.7 L287.226 1048.7 L269.338 1048.7 L251.451 1048.7  Z" fill="#ff0000" fill-rule="evenodd" fill-opacity="0.5"/>
<polyline clip-path="url(#clip573)" style="stroke:#ff0000; stroke-linecap:round; stroke-linejoin:round; stroke-width:4; stroke-opacity:1; fill:none" points="251.451,1048.7 269.338,1048.77 287.226,1048.99 305.113,1049.36 323,1049.88 340.887,1083.03 358.775,1116.33 376.662,1149.78 394.549,1183.38 412.437,1162.58 430.324,1141.92 448.211,1121.42 466.099,1101.06 483.986,1082.55 501.873,1064.53 519.76,1049.25 537.648,1037.99 555.535,1026.88 573.422,1015.92 591.31,1005.1 609.197,994.435 627.084,1006.63 644.972,1018.98 662.859,1031.51 680.746,1044.31 698.633,1057.31 716.521,1070.58 734.408,1084 752.295,1100.48 770.183,1119.74 788.07,1140.6 805.957,1161.91 823.845,1183.55 841.732,1141.86 859.619,1105.92 877.507,1076.65 895.394,1049.02 913.281,1046.73 931.168,1044.6 949.056,1043.01 966.943,1042.35 984.83,1041.83 1002.72,1041.46 1020.6,1041.24 1038.49,1041.17 1056.38,1041.24 1074.27,1041.46 1092.15,1041.83 1110.04,1042.35 1127.93,1043.01 1145.82,1044.6 1163.7,1046.73 1181.59,1049.02 1199.48,1076.65 1217.37,1105.92 1235.25,1141.86 1253.14,1183.55 1271.03,1161.91 1288.91,1140.6 1306.8,1119.74 1324.69,1100.48 1342.58,1084.01 1360.46,1070.58 1378.35,1057.31 1396.24,1044.31 1414.13,1031.51 1432.01,1018.97 1449.9,1006.63 1467.79,994.43 1485.67,1005.1 1503.56,1015.91 1521.45,1026.88 1539.34,1037.99 1557.22,1049.39 1575.11,1066.9 1593,1084.55 1610.89,1103.01 1628.77,1122.93 1646.66,1143 1664.55,1163.21 1682.44,1183.57 1700.32,1149.93 1718.21,1116.43 1736.1,1083.08 1753.98,1049.88 1771.87,1049.36 1789.76,1048.99 1807.65,1048.77 1825.53,1048.7 "/>
<path clip-path="url(#clip570)" d="M912.045 1416.18 L1164.94 1416.18 L1164.94 1260.66 L912.045 1260.66  Z" fill="#ffffff" fill-rule="evenodd" fill-opacity="1"/>
<polyline clip-path="url(#clip570)" style="stroke:#000000; stroke-linecap:round; stroke-linejoin:round; stroke-width:4; stroke-opacity:1; fill:none" points="912.045,1416.18 1164.94,1416.18 1164.94,1260.66 912.045,1260.66 912.045,1416.18 "/>
<path clip-path="url(#clip570)" d="M930.584 1333.23 L1041.82 1333.23 L1041.82 1291.76 L930.584 1291.76 L930.584 1333.23  Z" fill="#0000ff" fill-rule="evenodd" fill-opacity="0.5"/>
<polyline clip-path="url(#clip570)" style="stroke:#0000ff; stroke-linecap:round; stroke-linejoin:round; stroke-width:4; stroke-opacity:1; fill:none" points="930.584,1291.76 1041.82,1291.76 "/>
<path clip-path="url(#clip570)" d="M1077.14 1300.05 L1077.14 1312.95 L1090.03 1312.95 L1090.03 1316.88 L1077.14 1316.88 L1077.14 1329.78 L1073.25 1329.78 L1073.25 1316.88 L1060.36 1316.88 L1060.36 1312.95 L1073.25 1312.95 L1073.25 1300.05 L1077.14 1300.05 Z" fill="#000000" fill-rule="nonzero" fill-opacity="1" /><path clip-path="url(#clip570)" d="M1114.78 1295.22 L1121.75 1295.22 L1130.57 1318.73 L1139.43 1295.22 L1146.4 1295.22 L1146.4 1329.78 L1141.84 1329.78 L1141.84 1299.43 L1132.93 1323.13 L1128.23 1323.13 L1119.32 1299.43 L1119.32 1329.78 L1114.78 1329.78 L1114.78 1295.22 Z" fill="#000000" fill-rule="nonzero" fill-opacity="1" /><path clip-path="url(#clip570)" d="M930.584 1385.07 L1041.82 1385.07 L1041.82 1343.6 L930.584 1343.6 L930.584 1385.07  Z" fill="#ff0000" fill-rule="evenodd" fill-opacity="0.5"/>
<polyline clip-path="url(#clip570)" style="stroke:#ff0000; stroke-linecap:round; stroke-linejoin:round; stroke-width:4; stroke-opacity:1; fill:none" points="930.584,1343.6 1041.82,1343.6 "/>
<path clip-path="url(#clip570)" d="M1060.36 1366.73 L1072.84 1366.73 L1072.84 1370.53 L1060.36 1370.53 L1060.36 1366.73 Z" fill="#000000" fill-rule="nonzero" fill-opacity="1" /><path clip-path="url(#clip570)" d="M1094.87 1347.06 L1101.84 1347.06 L1110.66 1370.57 L1119.53 1347.06 L1126.49 1347.06 L1126.49 1381.62 L1121.93 1381.62 L1121.93 1351.27 L1113.02 1374.97 L1108.32 1374.97 L1099.41 1351.27 L1099.41 1381.62 L1094.87 1381.62 L1094.87 1347.06 Z" fill="#000000" fill-rule="nonzero" fill-opacity="1" /></svg>
